%TF.GenerationSoftware,KiCad,Pcbnew,9.0.6*%
%TF.CreationDate,2026-08-06T06:06:05-05:00*%
%TF.ProjectId,12VDualRailPowerSupply,31325644-7561-46c5-9261-696c506f7765,1.0*%
%TF.SameCoordinates,Original*%
%TF.FileFunction,Copper,L1,Top*%
%TF.FilePolarity,Positive*%
%FSLAX46Y46*%
G04 Gerber Fmt 4.6, Leading zero omitted, Abs format (unit mm)*
G04 Created by KiCad (PCBNEW 9.0.6) date 2026-08-06 06:06:05*
%MOMM*%
%LPD*%
G01*
G04 APERTURE LIST*
G04 Aperture macros list*
%AMRoundRect*
0 Rectangle with rounded corners*
0 $1 Rounding radius*
0 $2 $3 $4 $5 $6 $7 $8 $9 X,Y pos of 4 corners*
0 Add a 4 corners polygon primitive as box body*
4,1,4,$2,$3,$4,$5,$6,$7,$8,$9,$2,$3,0*
0 Add four circle primitives for the rounded corners*
1,1,$1+$1,$2,$3*
1,1,$1+$1,$4,$5*
1,1,$1+$1,$6,$7*
1,1,$1+$1,$8,$9*
0 Add four rect primitives between the rounded corners*
20,1,$1+$1,$2,$3,$4,$5,0*
20,1,$1+$1,$4,$5,$6,$7,0*
20,1,$1+$1,$6,$7,$8,$9,0*
20,1,$1+$1,$8,$9,$2,$3,0*%
G04 Aperture macros list end*
%TA.AperFunction,SMDPad,CuDef*%
%ADD10RoundRect,0.250000X-0.400000X-0.625000X0.400000X-0.625000X0.400000X0.625000X-0.400000X0.625000X0*%
%TD*%
%TA.AperFunction,ComponentPad*%
%ADD11R,1.508000X1.508000*%
%TD*%
%TA.AperFunction,ComponentPad*%
%ADD12C,1.508000*%
%TD*%
%TA.AperFunction,ComponentPad*%
%ADD13C,1.100000*%
%TD*%
%TA.AperFunction,ComponentPad*%
%ADD14O,4.000000X2.000000*%
%TD*%
%TA.AperFunction,ComponentPad*%
%ADD15O,2.000000X4.000000*%
%TD*%
%TA.AperFunction,ComponentPad*%
%ADD16R,1.320800X1.320800*%
%TD*%
%TA.AperFunction,ComponentPad*%
%ADD17C,1.320800*%
%TD*%
%TA.AperFunction,SMDPad,CuDef*%
%ADD18RoundRect,0.250000X-0.625000X0.400000X-0.625000X-0.400000X0.625000X-0.400000X0.625000X0.400000X0*%
%TD*%
%TA.AperFunction,ViaPad*%
%ADD19C,0.600000*%
%TD*%
%TA.AperFunction,Conductor*%
%ADD20C,0.200000*%
%TD*%
G04 APERTURE END LIST*
D10*
%TO.P,R1,1*%
%TO.N,/V-*%
X150164200Y-100025200D03*
%TO.P,R1,2*%
%TO.N,Net-(LED1-Pad3)*%
X153264200Y-100025200D03*
%TD*%
D11*
%TO.P,U1,1,VIN*%
%TO.N,Net-(U1-VIN)*%
X136597500Y-92465000D03*
D12*
%TO.P,U1,2,GND*%
%TO.N,GND Wall*%
X139137500Y-92465000D03*
%TO.P,U1,4,-VO*%
%TO.N,/V-*%
X144217500Y-92465000D03*
%TO.P,U1,5,0V*%
%TO.N,GND*%
X146757500Y-92465000D03*
%TO.P,U1,6,+VO*%
%TO.N,/V+*%
X149297500Y-92465000D03*
%TD*%
D13*
%TO.P,J2,1,V+*%
%TO.N,/Regulated V+*%
X161029400Y-107797600D03*
%TO.P,J2,2,GND*%
%TO.N,GND*%
X159029400Y-107797600D03*
%TO.P,J2,3,V-*%
%TO.N,/Regulated V-*%
X157029400Y-107797600D03*
%TD*%
D14*
%TO.P,J1,1*%
%TO.N,/V_wall*%
X127000000Y-104145900D03*
%TO.P,J1,2*%
%TO.N,GND Wall*%
X127000000Y-98045900D03*
D15*
%TO.P,J1,3*%
X122200000Y-101145900D03*
%TD*%
D16*
%TO.P,LED1,1,1*%
%TO.N,GND*%
X159308800Y-97967800D03*
D17*
%TO.P,LED1,2,2*%
%TO.N,Net-(LED1-Pad2)*%
X156768800Y-97967800D03*
%TO.P,LED1,3,3*%
%TO.N,Net-(LED1-Pad3)*%
X159308800Y-95427800D03*
%TO.P,LED1,4,4*%
%TO.N,GND*%
X156768800Y-95427800D03*
%TD*%
D18*
%TO.P,R2,1*%
%TO.N,/V+*%
X162630000Y-92450000D03*
%TO.P,R2,2*%
%TO.N,Net-(LED1-Pad2)*%
X162630000Y-95550000D03*
%TD*%
D19*
%TO.N,/V-*%
X142880000Y-100530000D03*
%TO.N,/V+*%
X159025000Y-92465000D03*
%TO.N,GND*%
X116110000Y-90940000D03*
X142200000Y-102450000D03*
X138010000Y-98970000D03*
X114600000Y-108290000D03*
X135140000Y-98970000D03*
X132500000Y-112860000D03*
X122380000Y-112850000D03*
X143630000Y-90890000D03*
X149040000Y-97580000D03*
X149650000Y-98130000D03*
X135640000Y-112860000D03*
X125960000Y-107480000D03*
X149840000Y-106510000D03*
X164200000Y-90990000D03*
X123380000Y-105460000D03*
X162820000Y-100900000D03*
X167460000Y-93870000D03*
X151460000Y-91010000D03*
X143980000Y-104600000D03*
X137440000Y-100970000D03*
X165960000Y-100900000D03*
X158190000Y-90990000D03*
X114610000Y-101040000D03*
X148610000Y-104370000D03*
X149840000Y-96820000D03*
X159040000Y-108970000D03*
X135520000Y-97770000D03*
X137060000Y-112860000D03*
X114610000Y-95030000D03*
X116340000Y-102490000D03*
X125250000Y-112850000D03*
X123380000Y-106910000D03*
X135550000Y-101480000D03*
X130310000Y-107490000D03*
X131050000Y-112860000D03*
X150540000Y-95990000D03*
X141320000Y-97780000D03*
X149780000Y-104640000D03*
X119290000Y-105430000D03*
X152050000Y-105760000D03*
X159010000Y-110800000D03*
X123830000Y-112850000D03*
X145430000Y-104600000D03*
X134010000Y-99360000D03*
X116340000Y-99620000D03*
X159950000Y-100900000D03*
X145450000Y-97040000D03*
X129630000Y-112860000D03*
X145640000Y-93250000D03*
X167460000Y-92450000D03*
X162510000Y-90990000D03*
X167430000Y-99680000D03*
X134000000Y-105160000D03*
X156350000Y-93520000D03*
X114600000Y-103970000D03*
X167460000Y-98460000D03*
X150040000Y-91010000D03*
X126700000Y-112850000D03*
X139870000Y-97780000D03*
X156050000Y-91010000D03*
X167460000Y-95320000D03*
X134000000Y-103740000D03*
X139460000Y-98970000D03*
X120710000Y-105430000D03*
X145760000Y-107050000D03*
X158410000Y-100850000D03*
X167410000Y-100900000D03*
X116330000Y-103970000D03*
X117820000Y-112850000D03*
X116340000Y-101040000D03*
X138460000Y-112880000D03*
X136590000Y-98970000D03*
X148590000Y-91010000D03*
X148780000Y-105700000D03*
X134000000Y-106610000D03*
X128830000Y-107480000D03*
X138390000Y-97770000D03*
X146220000Y-96660000D03*
X150720000Y-94930000D03*
X114600000Y-105420000D03*
X120690000Y-112850000D03*
X114600000Y-109980000D03*
X114610000Y-93610000D03*
X114610000Y-92160000D03*
X131760000Y-107490000D03*
X116370000Y-112850000D03*
X148490000Y-107090000D03*
X167460000Y-97010000D03*
X137440000Y-109240000D03*
X116330000Y-105420000D03*
X119240000Y-112850000D03*
X150930000Y-104620000D03*
X153480000Y-93520000D03*
X116340000Y-96480000D03*
X134070000Y-97770000D03*
X140030000Y-111240000D03*
X136600000Y-100130000D03*
X145460000Y-95960000D03*
X143900000Y-107610000D03*
X164270000Y-100900000D03*
X124510000Y-107480000D03*
X114610000Y-99620000D03*
X135150000Y-100130000D03*
X134010000Y-100810000D03*
X161060000Y-90990000D03*
X147960000Y-93190000D03*
X150960000Y-105880000D03*
X114610000Y-98170000D03*
X117840000Y-105430000D03*
X146470000Y-90910000D03*
X152910000Y-91010000D03*
X154900000Y-93520000D03*
X114620000Y-90920000D03*
X139910000Y-112880000D03*
X116340000Y-93610000D03*
X152030000Y-93520000D03*
X159490000Y-93520000D03*
X156960000Y-100850000D03*
X136940000Y-97770000D03*
X114610000Y-96480000D03*
X158040000Y-93520000D03*
X145940000Y-95330000D03*
X159640000Y-90990000D03*
X114600000Y-111430000D03*
X114610000Y-102490000D03*
X143590000Y-103400000D03*
X114600000Y-106840000D03*
X116340000Y-92160000D03*
X114600000Y-112850000D03*
X133180000Y-107490000D03*
X134200000Y-102720000D03*
X154600000Y-91010000D03*
X150720000Y-93480000D03*
X142450000Y-106330000D03*
X116340000Y-95030000D03*
X147530000Y-95340000D03*
X146830000Y-95950000D03*
X167460000Y-91000000D03*
X165650000Y-90990000D03*
X134190000Y-112860000D03*
X142450000Y-104880000D03*
X122160000Y-105430000D03*
X158990000Y-112710000D03*
X141250000Y-112410000D03*
X161400000Y-100900000D03*
X142450000Y-107610000D03*
X116340000Y-98170000D03*
X143590000Y-101950000D03*
X128180000Y-112860000D03*
X127380000Y-107480000D03*
%TD*%
D20*
%TO.N,Net-(LED1-Pad3)*%
X155470000Y-97650000D02*
X156490000Y-96630000D01*
X155470000Y-99090000D02*
X155470000Y-97650000D01*
X154534800Y-100025200D02*
X155470000Y-99090000D01*
X158106600Y-96630000D02*
X159308800Y-95427800D01*
X153264200Y-100025200D02*
X154534800Y-100025200D01*
X156490000Y-96630000D02*
X158106600Y-96630000D01*
%TO.N,Net-(LED1-Pad2)*%
X160060000Y-99700000D02*
X157130000Y-99700000D01*
X156768800Y-99338800D02*
X156768800Y-97967800D01*
X162610000Y-97150000D02*
X160060000Y-99700000D01*
X162610000Y-95060000D02*
X162610000Y-97150000D01*
X157130000Y-99700000D02*
X156768800Y-99338800D01*
%TO.N,/V-*%
X144084800Y-100025200D02*
X150164200Y-100025200D01*
X143580000Y-100530000D02*
X144084800Y-100025200D01*
X142880000Y-100530000D02*
X143580000Y-100530000D01*
%TO.N,/V+*%
X159040000Y-92450000D02*
X159025000Y-92465000D01*
X162630000Y-92450000D02*
X159040000Y-92450000D01*
%TD*%
%TA.AperFunction,Conductor*%
%TO.N,GND*%
G36*
X158291512Y-97118181D02*
G01*
X158339063Y-97156686D01*
X158354899Y-97215786D01*
X158351563Y-97236593D01*
X158351310Y-97237522D01*
X158348400Y-97262602D01*
X158348400Y-97817799D01*
X158348401Y-97817800D01*
X158928256Y-97817800D01*
X158902400Y-97914296D01*
X158902400Y-98021304D01*
X158928256Y-98117800D01*
X158348402Y-98117800D01*
X158348401Y-98117801D01*
X158348401Y-98672991D01*
X158351309Y-98698074D01*
X158396613Y-98800677D01*
X158475922Y-98879986D01*
X158578527Y-98925290D01*
X158603603Y-98928199D01*
X159158798Y-98928199D01*
X159158800Y-98928198D01*
X159158800Y-98348344D01*
X159255296Y-98374200D01*
X159362304Y-98374200D01*
X159458800Y-98348344D01*
X159458800Y-98928198D01*
X159458801Y-98928199D01*
X159884979Y-98928199D01*
X159907026Y-98935362D01*
X159929924Y-98938989D01*
X159935572Y-98944637D01*
X159943170Y-98947106D01*
X159956797Y-98965862D01*
X159973189Y-98982254D01*
X159974438Y-98990143D01*
X159979134Y-98996606D01*
X159979134Y-99019791D01*
X159982760Y-99042686D01*
X159979134Y-99049802D01*
X159979134Y-99057792D01*
X159954983Y-99097203D01*
X159881682Y-99170504D01*
X159827165Y-99198281D01*
X159811678Y-99199500D01*
X157378322Y-99199500D01*
X157320131Y-99180593D01*
X157308318Y-99170504D01*
X157298296Y-99160482D01*
X157270519Y-99105965D01*
X157269300Y-99090478D01*
X157269300Y-98962226D01*
X157288207Y-98904035D01*
X157313297Y-98879911D01*
X157445084Y-98791855D01*
X157592855Y-98644084D01*
X157708957Y-98470324D01*
X157788930Y-98277253D01*
X157829700Y-98072290D01*
X157829700Y-97863310D01*
X157788930Y-97658347D01*
X157708957Y-97465276D01*
X157627048Y-97342690D01*
X157590153Y-97287472D01*
X157591308Y-97286700D01*
X157571202Y-97235324D01*
X157586654Y-97176121D01*
X157633953Y-97137308D01*
X157670031Y-97130500D01*
X158172491Y-97130500D01*
X158172492Y-97130500D01*
X158230413Y-97114980D01*
X158291512Y-97118181D01*
G37*
%TD.AperFunction*%
%TA.AperFunction,Conductor*%
G36*
X168058691Y-90449407D02*
G01*
X168094655Y-90498907D01*
X168099500Y-90529500D01*
X168099500Y-113330500D01*
X168080593Y-113388691D01*
X168031093Y-113424655D01*
X168000500Y-113429500D01*
X114199500Y-113429500D01*
X114141309Y-113410593D01*
X114105345Y-113361093D01*
X114100500Y-113330500D01*
X114100500Y-107703981D01*
X156078900Y-107703981D01*
X156078900Y-107891218D01*
X156115426Y-108074849D01*
X156187077Y-108247829D01*
X156187081Y-108247838D01*
X156261465Y-108359159D01*
X156291098Y-108403508D01*
X156423492Y-108535902D01*
X156489863Y-108580249D01*
X156579161Y-108639918D01*
X156579167Y-108639920D01*
X156579169Y-108639922D01*
X156752149Y-108711573D01*
X156935784Y-108748100D01*
X156935785Y-108748100D01*
X157123015Y-108748100D01*
X157123016Y-108748100D01*
X157306651Y-108711573D01*
X157479631Y-108639922D01*
X157479634Y-108639919D01*
X157479638Y-108639918D01*
X157524587Y-108609882D01*
X157635308Y-108535902D01*
X157767702Y-108403508D01*
X157848056Y-108283250D01*
X157871718Y-108247838D01*
X157871719Y-108247834D01*
X157871722Y-108247831D01*
X157943373Y-108074851D01*
X157979900Y-107891216D01*
X157979900Y-107713879D01*
X158179400Y-107713879D01*
X158179400Y-107881320D01*
X158212064Y-108045534D01*
X158276139Y-108200225D01*
X158331614Y-108283250D01*
X158658932Y-107955932D01*
X158709320Y-108043206D01*
X158783794Y-108117680D01*
X158871065Y-108168065D01*
X158543747Y-108495384D01*
X158626774Y-108550860D01*
X158781465Y-108614935D01*
X158945679Y-108647599D01*
X158945683Y-108647600D01*
X159113117Y-108647600D01*
X159113120Y-108647599D01*
X159277334Y-108614935D01*
X159432025Y-108550860D01*
X159515051Y-108495384D01*
X159187733Y-108168066D01*
X159275006Y-108117680D01*
X159349480Y-108043206D01*
X159399866Y-107955933D01*
X159727184Y-108283251D01*
X159782660Y-108200225D01*
X159846735Y-108045534D01*
X159879399Y-107881320D01*
X159879400Y-107881316D01*
X159879400Y-107713883D01*
X159879399Y-107713875D01*
X159877431Y-107703981D01*
X160078900Y-107703981D01*
X160078900Y-107891218D01*
X160115426Y-108074849D01*
X160187077Y-108247829D01*
X160187081Y-108247838D01*
X160261465Y-108359159D01*
X160291098Y-108403508D01*
X160423492Y-108535902D01*
X160489863Y-108580249D01*
X160579161Y-108639918D01*
X160579167Y-108639920D01*
X160579169Y-108639922D01*
X160752149Y-108711573D01*
X160935784Y-108748100D01*
X160935785Y-108748100D01*
X161123015Y-108748100D01*
X161123016Y-108748100D01*
X161306651Y-108711573D01*
X161479631Y-108639922D01*
X161479634Y-108639919D01*
X161479638Y-108639918D01*
X161524587Y-108609882D01*
X161635308Y-108535902D01*
X161767702Y-108403508D01*
X161848056Y-108283250D01*
X161871718Y-108247838D01*
X161871719Y-108247834D01*
X161871722Y-108247831D01*
X161943373Y-108074851D01*
X161979900Y-107891216D01*
X161979900Y-107703984D01*
X161943373Y-107520349D01*
X161871722Y-107347369D01*
X161871720Y-107347367D01*
X161871718Y-107347361D01*
X161812049Y-107258063D01*
X161767702Y-107191692D01*
X161635308Y-107059298D01*
X161590959Y-107029665D01*
X161479638Y-106955281D01*
X161479629Y-106955277D01*
X161306649Y-106883626D01*
X161123018Y-106847100D01*
X161123016Y-106847100D01*
X160935784Y-106847100D01*
X160935781Y-106847100D01*
X160752150Y-106883626D01*
X160579170Y-106955277D01*
X160579161Y-106955281D01*
X160423492Y-107059298D01*
X160423488Y-107059301D01*
X160291101Y-107191688D01*
X160291098Y-107191692D01*
X160187081Y-107347361D01*
X160187077Y-107347370D01*
X160115426Y-107520350D01*
X160078900Y-107703981D01*
X159877431Y-107703981D01*
X159846735Y-107549665D01*
X159782660Y-107394974D01*
X159727184Y-107311947D01*
X159399865Y-107639265D01*
X159349480Y-107551994D01*
X159275006Y-107477520D01*
X159187732Y-107427132D01*
X159515051Y-107099814D01*
X159432025Y-107044339D01*
X159277334Y-106980264D01*
X159113120Y-106947600D01*
X158945679Y-106947600D01*
X158781465Y-106980264D01*
X158626771Y-107044340D01*
X158543747Y-107099814D01*
X158871066Y-107427133D01*
X158783794Y-107477520D01*
X158709320Y-107551994D01*
X158658933Y-107639266D01*
X158331614Y-107311947D01*
X158276140Y-107394971D01*
X158212064Y-107549665D01*
X158179400Y-107713879D01*
X157979900Y-107713879D01*
X157979900Y-107703984D01*
X157943373Y-107520349D01*
X157871722Y-107347369D01*
X157871720Y-107347367D01*
X157871718Y-107347361D01*
X157803152Y-107244747D01*
X157767702Y-107191692D01*
X157635308Y-107059298D01*
X157590959Y-107029665D01*
X157479638Y-106955281D01*
X157479629Y-106955277D01*
X157306649Y-106883626D01*
X157123018Y-106847100D01*
X157123016Y-106847100D01*
X156935784Y-106847100D01*
X156935781Y-106847100D01*
X156752150Y-106883626D01*
X156579170Y-106955277D01*
X156579161Y-106955281D01*
X156423492Y-107059298D01*
X156423488Y-107059301D01*
X156291101Y-107191688D01*
X156291098Y-107191692D01*
X156187081Y-107347361D01*
X156187077Y-107347370D01*
X156115426Y-107520350D01*
X156078900Y-107703981D01*
X114100500Y-107703981D01*
X114100500Y-104035674D01*
X124599500Y-104035674D01*
X124599500Y-104256125D01*
X124633984Y-104473848D01*
X124702102Y-104683499D01*
X124702104Y-104683502D01*
X124702105Y-104683506D01*
X124802185Y-104879922D01*
X124931758Y-105058265D01*
X125087635Y-105214142D01*
X125265978Y-105343715D01*
X125462394Y-105443795D01*
X125672049Y-105511915D01*
X125759140Y-105525709D01*
X125889775Y-105546400D01*
X125889778Y-105546400D01*
X128110225Y-105546400D01*
X128219086Y-105529157D01*
X128327951Y-105511915D01*
X128537606Y-105443795D01*
X128734022Y-105343715D01*
X128912365Y-105214142D01*
X129068242Y-105058265D01*
X129197815Y-104879922D01*
X129297895Y-104683506D01*
X129366015Y-104473851D01*
X129400500Y-104256122D01*
X129400500Y-104035678D01*
X129400500Y-104035674D01*
X129366015Y-103817951D01*
X129366015Y-103817949D01*
X129297895Y-103608294D01*
X129197815Y-103411878D01*
X129068242Y-103233535D01*
X128912365Y-103077658D01*
X128734022Y-102948085D01*
X128734021Y-102948084D01*
X128734019Y-102948083D01*
X128600240Y-102879919D01*
X128537606Y-102848005D01*
X128537602Y-102848004D01*
X128537599Y-102848002D01*
X128327948Y-102779884D01*
X128110225Y-102745400D01*
X128110222Y-102745400D01*
X125889778Y-102745400D01*
X125889775Y-102745400D01*
X125672051Y-102779884D01*
X125462400Y-102848002D01*
X125265980Y-102948083D01*
X125176806Y-103012871D01*
X125087635Y-103077658D01*
X124931758Y-103233535D01*
X124866971Y-103322706D01*
X124802183Y-103411880D01*
X124702102Y-103608300D01*
X124633984Y-103817951D01*
X124599500Y-104035674D01*
X114100500Y-104035674D01*
X114100500Y-100035674D01*
X120799500Y-100035674D01*
X120799500Y-102256125D01*
X120833984Y-102473848D01*
X120902102Y-102683499D01*
X120902104Y-102683502D01*
X120902105Y-102683506D01*
X120933642Y-102745400D01*
X120985920Y-102848002D01*
X121002185Y-102879922D01*
X121131758Y-103058265D01*
X121287635Y-103214142D01*
X121465978Y-103343715D01*
X121662394Y-103443795D01*
X121872049Y-103511915D01*
X121959140Y-103525709D01*
X122089775Y-103546400D01*
X122089778Y-103546400D01*
X122310225Y-103546400D01*
X122419086Y-103529157D01*
X122527951Y-103511915D01*
X122737606Y-103443795D01*
X122934022Y-103343715D01*
X123112365Y-103214142D01*
X123268242Y-103058265D01*
X123397815Y-102879922D01*
X123497895Y-102683506D01*
X123566015Y-102473851D01*
X123600500Y-102256122D01*
X123600500Y-100461004D01*
X142179500Y-100461004D01*
X142179500Y-100598995D01*
X142206420Y-100734327D01*
X142206420Y-100734329D01*
X142259222Y-100861806D01*
X142259228Y-100861817D01*
X142335885Y-100976541D01*
X142433458Y-101074114D01*
X142548182Y-101150771D01*
X142548193Y-101150777D01*
X142590452Y-101168281D01*
X142675672Y-101203580D01*
X142811007Y-101230500D01*
X142811008Y-101230500D01*
X142948992Y-101230500D01*
X142948993Y-101230500D01*
X143084328Y-101203580D01*
X143211811Y-101150775D01*
X143326542Y-101074114D01*
X143341160Y-101059496D01*
X143395677Y-101031719D01*
X143411164Y-101030500D01*
X143645890Y-101030500D01*
X143645892Y-101030500D01*
X143773186Y-100996392D01*
X143773188Y-100996390D01*
X143773190Y-100996390D01*
X143887309Y-100930503D01*
X143887309Y-100930502D01*
X143887314Y-100930500D01*
X144101926Y-100715888D01*
X144263119Y-100554696D01*
X144317635Y-100526919D01*
X144333122Y-100525700D01*
X149014700Y-100525700D01*
X149072891Y-100544607D01*
X149108855Y-100594107D01*
X149113700Y-100624700D01*
X149113700Y-100715888D01*
X149116601Y-100752765D01*
X149116601Y-100752768D01*
X149116602Y-100752769D01*
X149162456Y-100910598D01*
X149246119Y-101052065D01*
X149362335Y-101168281D01*
X149503802Y-101251944D01*
X149661631Y-101297798D01*
X149698506Y-101300700D01*
X149698511Y-101300700D01*
X150629889Y-101300700D01*
X150629894Y-101300700D01*
X150666769Y-101297798D01*
X150824598Y-101251944D01*
X150966065Y-101168281D01*
X151082281Y-101052065D01*
X151165944Y-100910598D01*
X151211798Y-100752769D01*
X151214700Y-100715894D01*
X151214700Y-99334506D01*
X151214700Y-99334505D01*
X152213700Y-99334505D01*
X152213700Y-100715888D01*
X152216601Y-100752765D01*
X152216601Y-100752768D01*
X152216602Y-100752769D01*
X152262456Y-100910598D01*
X152346119Y-101052065D01*
X152462335Y-101168281D01*
X152603802Y-101251944D01*
X152761631Y-101297798D01*
X152798506Y-101300700D01*
X152798511Y-101300700D01*
X153729889Y-101300700D01*
X153729894Y-101300700D01*
X153766769Y-101297798D01*
X153924598Y-101251944D01*
X154066065Y-101168281D01*
X154182281Y-101052065D01*
X154265944Y-100910598D01*
X154311798Y-100752769D01*
X154314700Y-100715894D01*
X154314700Y-100624700D01*
X154333607Y-100566509D01*
X154383107Y-100530545D01*
X154413700Y-100525700D01*
X154600690Y-100525700D01*
X154600692Y-100525700D01*
X154727986Y-100491592D01*
X154727988Y-100491590D01*
X154727990Y-100491590D01*
X154842109Y-100425703D01*
X154842109Y-100425702D01*
X154842114Y-100425700D01*
X155870500Y-99397314D01*
X155906762Y-99334506D01*
X155936392Y-99283186D01*
X155970500Y-99155892D01*
X155970500Y-98895542D01*
X155974757Y-98882437D01*
X155974217Y-98868670D01*
X155983977Y-98854063D01*
X155989407Y-98837351D01*
X156000556Y-98829250D01*
X156008210Y-98817796D01*
X156024690Y-98811715D01*
X156038907Y-98801387D01*
X156052687Y-98801387D01*
X156065613Y-98796618D01*
X156082523Y-98801387D01*
X156100093Y-98801387D01*
X156124497Y-98813224D01*
X156224301Y-98879910D01*
X156262181Y-98927960D01*
X156268300Y-98962226D01*
X156268300Y-99272908D01*
X156268300Y-99404692D01*
X156273929Y-99425700D01*
X156302409Y-99531990D01*
X156368296Y-99646109D01*
X156368298Y-99646111D01*
X156368300Y-99646114D01*
X156822686Y-100100500D01*
X156822688Y-100100501D01*
X156822690Y-100100503D01*
X156936810Y-100166390D01*
X156936808Y-100166390D01*
X156936812Y-100166391D01*
X156936814Y-100166392D01*
X157064108Y-100200500D01*
X157064110Y-100200500D01*
X160125890Y-100200500D01*
X160125892Y-100200500D01*
X160253186Y-100166392D01*
X160253188Y-100166390D01*
X160253190Y-100166390D01*
X160367309Y-100100503D01*
X160367309Y-100100502D01*
X160367314Y-100100500D01*
X163010500Y-97457314D01*
X163076392Y-97343186D01*
X163110500Y-97215892D01*
X163110500Y-97084107D01*
X163110500Y-96699500D01*
X163129407Y-96641309D01*
X163178907Y-96605345D01*
X163209500Y-96600500D01*
X163320689Y-96600500D01*
X163320694Y-96600500D01*
X163357569Y-96597598D01*
X163515398Y-96551744D01*
X163656865Y-96468081D01*
X163773081Y-96351865D01*
X163856744Y-96210398D01*
X163902598Y-96052569D01*
X163905500Y-96015694D01*
X163905500Y-95084306D01*
X163902598Y-95047431D01*
X163856744Y-94889602D01*
X163773081Y-94748135D01*
X163656865Y-94631919D01*
X163515398Y-94548256D01*
X163357569Y-94502402D01*
X163357568Y-94502401D01*
X163357565Y-94502401D01*
X163334140Y-94500558D01*
X163320694Y-94499500D01*
X161939306Y-94499500D01*
X161926773Y-94500486D01*
X161902434Y-94502401D01*
X161902427Y-94502403D01*
X161744602Y-94548256D01*
X161603136Y-94631918D01*
X161486918Y-94748136D01*
X161403256Y-94889602D01*
X161357403Y-95047427D01*
X161357401Y-95047434D01*
X161354500Y-95084311D01*
X161354500Y-96015688D01*
X161357401Y-96052565D01*
X161357401Y-96052568D01*
X161357402Y-96052569D01*
X161403256Y-96210398D01*
X161486919Y-96351865D01*
X161603135Y-96468081D01*
X161744602Y-96551744D01*
X161902431Y-96597598D01*
X161939306Y-96600500D01*
X162010500Y-96600500D01*
X162068691Y-96619407D01*
X162104655Y-96668907D01*
X162109500Y-96699500D01*
X162109500Y-96901678D01*
X162090593Y-96959869D01*
X162080504Y-96971682D01*
X160438204Y-98613982D01*
X160383687Y-98641759D01*
X160323255Y-98632188D01*
X160279990Y-98588923D01*
X160269200Y-98543978D01*
X160269200Y-98117801D01*
X160269199Y-98117800D01*
X159689344Y-98117800D01*
X159715200Y-98021304D01*
X159715200Y-97914296D01*
X159689344Y-97817800D01*
X160269198Y-97817800D01*
X160269199Y-97817799D01*
X160269199Y-97262610D01*
X160269198Y-97262608D01*
X160266290Y-97237525D01*
X160220986Y-97134922D01*
X160141677Y-97055613D01*
X160039072Y-97010309D01*
X160013997Y-97007400D01*
X159458801Y-97007400D01*
X159458800Y-97007401D01*
X159458800Y-97587255D01*
X159362304Y-97561400D01*
X159255296Y-97561400D01*
X159158800Y-97587255D01*
X159158800Y-97007401D01*
X159158799Y-97007400D01*
X158676020Y-97007400D01*
X158617829Y-96988493D01*
X158581865Y-96938993D01*
X158581865Y-96877807D01*
X158606013Y-96838400D01*
X158959542Y-96484870D01*
X159014057Y-96457095D01*
X159048855Y-96457777D01*
X159204310Y-96488700D01*
X159204311Y-96488700D01*
X159413289Y-96488700D01*
X159413290Y-96488700D01*
X159618253Y-96447930D01*
X159811324Y-96367957D01*
X159985084Y-96251855D01*
X160132855Y-96104084D01*
X160248957Y-95930324D01*
X160328930Y-95737253D01*
X160369700Y-95532290D01*
X160369700Y-95323310D01*
X160328930Y-95118347D01*
X160248957Y-94925276D01*
X160132855Y-94751516D01*
X159985084Y-94603745D01*
X159985080Y-94603742D01*
X159811323Y-94487642D01*
X159618251Y-94407669D01*
X159413292Y-94366900D01*
X159413290Y-94366900D01*
X159204310Y-94366900D01*
X159204307Y-94366900D01*
X158999348Y-94407669D01*
X158806276Y-94487642D01*
X158632519Y-94603742D01*
X158484742Y-94751519D01*
X158368642Y-94925276D01*
X158288669Y-95118348D01*
X158247900Y-95323307D01*
X158247900Y-95532292D01*
X158278821Y-95687740D01*
X158271629Y-95748501D01*
X158251727Y-95777057D01*
X157928283Y-96100503D01*
X157873766Y-96128281D01*
X157858279Y-96129500D01*
X157640218Y-96129500D01*
X157582027Y-96110593D01*
X157546063Y-96061093D01*
X157546063Y-95999907D01*
X157557903Y-95975498D01*
X157619891Y-95882727D01*
X157619897Y-95882715D01*
X157692291Y-95707939D01*
X157692291Y-95707937D01*
X157729199Y-95522393D01*
X157729200Y-95522389D01*
X157729200Y-95333210D01*
X157729199Y-95333206D01*
X157692291Y-95147662D01*
X157692291Y-95147660D01*
X157619896Y-94972882D01*
X157619896Y-94972881D01*
X157546177Y-94862554D01*
X157143951Y-95264780D01*
X157094001Y-95178264D01*
X157018336Y-95102599D01*
X156931817Y-95052647D01*
X157334044Y-94650421D01*
X157223727Y-94576708D01*
X157223715Y-94576702D01*
X157048938Y-94504308D01*
X156863393Y-94467400D01*
X156674206Y-94467400D01*
X156488662Y-94504308D01*
X156488660Y-94504308D01*
X156313882Y-94576703D01*
X156203554Y-94650421D01*
X156605781Y-95052648D01*
X156519264Y-95102599D01*
X156443599Y-95178264D01*
X156393648Y-95264781D01*
X155991421Y-94862554D01*
X155917703Y-94972882D01*
X155845308Y-95147660D01*
X155845308Y-95147662D01*
X155808400Y-95333206D01*
X155808400Y-95522393D01*
X155845308Y-95707937D01*
X155845308Y-95707939D01*
X155917702Y-95882715D01*
X155917708Y-95882727D01*
X155991421Y-95993044D01*
X156393647Y-95590817D01*
X156443599Y-95677336D01*
X156519264Y-95753001D01*
X156605779Y-95802951D01*
X156182495Y-96226235D01*
X156170755Y-96241430D01*
X155162686Y-97249500D01*
X155162685Y-97249499D01*
X155069500Y-97342685D01*
X155069496Y-97342690D01*
X155003609Y-97456809D01*
X154969500Y-97584109D01*
X154969500Y-98841678D01*
X154950593Y-98899869D01*
X154940503Y-98911682D01*
X154481358Y-99370826D01*
X154426842Y-99398603D01*
X154366410Y-99389032D01*
X154323145Y-99345767D01*
X154312660Y-99308588D01*
X154311798Y-99297634D01*
X154311798Y-99297631D01*
X154265944Y-99139802D01*
X154182281Y-98998335D01*
X154066065Y-98882119D01*
X153924598Y-98798456D01*
X153766769Y-98752602D01*
X153766768Y-98752601D01*
X153766765Y-98752601D01*
X153743340Y-98750758D01*
X153729894Y-98749700D01*
X152798506Y-98749700D01*
X152785973Y-98750686D01*
X152761634Y-98752601D01*
X152761627Y-98752603D01*
X152603802Y-98798456D01*
X152462336Y-98882118D01*
X152346118Y-98998336D01*
X152262456Y-99139802D01*
X152216603Y-99297627D01*
X152216601Y-99297634D01*
X152213700Y-99334505D01*
X151214700Y-99334505D01*
X151211798Y-99297631D01*
X151165944Y-99139802D01*
X151082281Y-98998335D01*
X150966065Y-98882119D01*
X150824598Y-98798456D01*
X150666769Y-98752602D01*
X150666768Y-98752601D01*
X150666765Y-98752601D01*
X150643340Y-98750758D01*
X150629894Y-98749700D01*
X149698506Y-98749700D01*
X149685973Y-98750686D01*
X149661634Y-98752601D01*
X149661627Y-98752603D01*
X149503802Y-98798456D01*
X149362336Y-98882118D01*
X149246118Y-98998336D01*
X149162456Y-99139802D01*
X149116603Y-99297627D01*
X149116601Y-99297634D01*
X149113700Y-99334505D01*
X149113700Y-99425700D01*
X149094793Y-99483891D01*
X149045293Y-99519855D01*
X149014700Y-99524700D01*
X144150692Y-99524700D01*
X144018908Y-99524700D01*
X143941000Y-99545575D01*
X143891609Y-99558809D01*
X143777490Y-99624696D01*
X143777485Y-99624700D01*
X143437797Y-99964387D01*
X143383281Y-99992164D01*
X143322849Y-99982593D01*
X143312792Y-99976698D01*
X143211818Y-99909228D01*
X143211806Y-99909222D01*
X143084328Y-99856420D01*
X142948995Y-99829500D01*
X142948993Y-99829500D01*
X142811007Y-99829500D01*
X142811004Y-99829500D01*
X142675672Y-99856420D01*
X142675670Y-99856420D01*
X142548193Y-99909222D01*
X142548182Y-99909228D01*
X142433458Y-99985885D01*
X142335885Y-100083458D01*
X142259228Y-100198182D01*
X142259222Y-100198193D01*
X142206420Y-100325670D01*
X142206420Y-100325672D01*
X142179500Y-100461004D01*
X123600500Y-100461004D01*
X123600500Y-100035678D01*
X123600500Y-100035674D01*
X123572108Y-99856420D01*
X123566015Y-99817949D01*
X123497895Y-99608294D01*
X123397815Y-99411878D01*
X123268242Y-99233535D01*
X123112365Y-99077658D01*
X122934022Y-98948085D01*
X122934021Y-98948084D01*
X122934019Y-98948083D01*
X122839394Y-98899869D01*
X122737606Y-98848005D01*
X122737602Y-98848004D01*
X122737599Y-98848002D01*
X122527948Y-98779884D01*
X122310225Y-98745400D01*
X122310222Y-98745400D01*
X122089778Y-98745400D01*
X122089775Y-98745400D01*
X121872051Y-98779884D01*
X121662400Y-98848002D01*
X121465980Y-98948083D01*
X121418948Y-98982254D01*
X121287635Y-99077658D01*
X121131758Y-99233535D01*
X121085193Y-99297627D01*
X121002183Y-99411880D01*
X120902102Y-99608300D01*
X120833984Y-99817951D01*
X120799500Y-100035674D01*
X114100500Y-100035674D01*
X114100500Y-97935674D01*
X124599500Y-97935674D01*
X124599500Y-98156125D01*
X124633984Y-98373848D01*
X124702102Y-98583499D01*
X124702104Y-98583502D01*
X124702105Y-98583506D01*
X124746094Y-98669839D01*
X124802165Y-98779884D01*
X124802185Y-98779922D01*
X124931758Y-98958265D01*
X125087635Y-99114142D01*
X125265978Y-99243715D01*
X125462394Y-99343795D01*
X125672049Y-99411915D01*
X125759084Y-99425700D01*
X125889775Y-99446400D01*
X125889778Y-99446400D01*
X128110225Y-99446400D01*
X128240916Y-99425700D01*
X128327951Y-99411915D01*
X128537606Y-99343795D01*
X128734022Y-99243715D01*
X128912365Y-99114142D01*
X129068242Y-98958265D01*
X129197815Y-98779922D01*
X129297895Y-98583506D01*
X129366015Y-98373851D01*
X129400500Y-98156122D01*
X129400500Y-97935678D01*
X129400500Y-97935674D01*
X129366015Y-97717951D01*
X129366015Y-97717949D01*
X129297895Y-97508294D01*
X129197815Y-97311878D01*
X129068242Y-97133535D01*
X128912365Y-96977658D01*
X128734022Y-96848085D01*
X128734021Y-96848084D01*
X128734019Y-96848083D01*
X128644825Y-96802636D01*
X128537606Y-96748005D01*
X128537602Y-96748004D01*
X128537599Y-96748002D01*
X128327948Y-96679884D01*
X128110225Y-96645400D01*
X128110222Y-96645400D01*
X125889778Y-96645400D01*
X125889775Y-96645400D01*
X125672051Y-96679884D01*
X125462400Y-96748002D01*
X125265980Y-96848083D01*
X125225069Y-96877807D01*
X125087635Y-96977658D01*
X124931758Y-97133535D01*
X124866971Y-97222706D01*
X124802183Y-97311880D01*
X124702102Y-97508300D01*
X124633984Y-97717951D01*
X124599500Y-97935674D01*
X114100500Y-97935674D01*
X114100500Y-91679478D01*
X135443000Y-91679478D01*
X135443000Y-93250521D01*
X135443001Y-93250523D01*
X135457852Y-93344299D01*
X135457854Y-93344304D01*
X135515450Y-93457342D01*
X135605158Y-93547050D01*
X135718196Y-93604646D01*
X135811981Y-93619500D01*
X137383018Y-93619499D01*
X137383021Y-93619499D01*
X137383022Y-93619498D01*
X137429911Y-93612072D01*
X137476799Y-93604647D01*
X137476799Y-93604646D01*
X137476804Y-93604646D01*
X137589842Y-93547050D01*
X137679550Y-93457342D01*
X137737146Y-93344304D01*
X137752000Y-93250519D01*
X137751999Y-92374135D01*
X137983000Y-92374135D01*
X137983000Y-92555864D01*
X138011426Y-92735341D01*
X138067583Y-92908174D01*
X138150082Y-93070089D01*
X138150086Y-93070095D01*
X138256892Y-93217100D01*
X138256894Y-93217102D01*
X138256897Y-93217106D01*
X138385394Y-93345603D01*
X138385397Y-93345605D01*
X138385399Y-93345607D01*
X138532404Y-93452413D01*
X138532410Y-93452417D01*
X138694326Y-93534917D01*
X138867154Y-93591072D01*
X138867155Y-93591072D01*
X138867158Y-93591073D01*
X139046636Y-93619500D01*
X139046639Y-93619500D01*
X139228364Y-93619500D01*
X139407841Y-93591073D01*
X139407842Y-93591072D01*
X139407846Y-93591072D01*
X139580674Y-93534917D01*
X139742590Y-93452417D01*
X139889606Y-93345603D01*
X140018103Y-93217106D01*
X140124917Y-93070090D01*
X140207417Y-92908174D01*
X140263572Y-92735346D01*
X140263573Y-92735341D01*
X140292000Y-92555864D01*
X140292000Y-92374135D01*
X143063000Y-92374135D01*
X143063000Y-92555864D01*
X143091426Y-92735341D01*
X143147583Y-92908174D01*
X143230082Y-93070089D01*
X143230086Y-93070095D01*
X143336892Y-93217100D01*
X143336894Y-93217102D01*
X143336897Y-93217106D01*
X143465394Y-93345603D01*
X143465397Y-93345605D01*
X143465399Y-93345607D01*
X143612404Y-93452413D01*
X143612410Y-93452417D01*
X143774326Y-93534917D01*
X143947154Y-93591072D01*
X143947155Y-93591072D01*
X143947158Y-93591073D01*
X144126636Y-93619500D01*
X144126639Y-93619500D01*
X144308364Y-93619500D01*
X144487841Y-93591073D01*
X144487842Y-93591072D01*
X144487846Y-93591072D01*
X144660674Y-93534917D01*
X144822590Y-93452417D01*
X144969606Y-93345603D01*
X145098103Y-93217106D01*
X145204917Y-93070090D01*
X145287417Y-92908174D01*
X145343572Y-92735346D01*
X145343573Y-92735341D01*
X145372000Y-92555864D01*
X145372000Y-92374140D01*
X145371632Y-92371818D01*
X145371632Y-92371814D01*
X145369949Y-92361187D01*
X145703500Y-92361187D01*
X145703500Y-92568812D01*
X145744003Y-92772439D01*
X145823456Y-92964254D01*
X145912639Y-93097726D01*
X146313828Y-92696536D01*
X146357401Y-92772007D01*
X146450493Y-92865099D01*
X146525960Y-92908670D01*
X146124771Y-93309858D01*
X146258244Y-93399043D01*
X146450060Y-93478496D01*
X146653687Y-93518999D01*
X146653691Y-93519000D01*
X146861309Y-93519000D01*
X146861312Y-93518999D01*
X147064939Y-93478496D01*
X147256755Y-93399043D01*
X147390226Y-93309858D01*
X146989038Y-92908670D01*
X147064507Y-92865099D01*
X147157599Y-92772007D01*
X147201170Y-92696538D01*
X147602358Y-93097726D01*
X147691543Y-92964255D01*
X147770996Y-92772439D01*
X147811499Y-92568812D01*
X147811500Y-92568809D01*
X147811500Y-92374135D01*
X148143000Y-92374135D01*
X148143000Y-92555864D01*
X148171426Y-92735341D01*
X148227583Y-92908174D01*
X148310082Y-93070089D01*
X148310086Y-93070095D01*
X148416892Y-93217100D01*
X148416894Y-93217102D01*
X148416897Y-93217106D01*
X148545394Y-93345603D01*
X148545397Y-93345605D01*
X148545399Y-93345607D01*
X148692404Y-93452413D01*
X148692410Y-93452417D01*
X148854326Y-93534917D01*
X149027154Y-93591072D01*
X149027155Y-93591072D01*
X149027158Y-93591073D01*
X149206636Y-93619500D01*
X149206639Y-93619500D01*
X149388364Y-93619500D01*
X149567841Y-93591073D01*
X149567842Y-93591072D01*
X149567846Y-93591072D01*
X149740674Y-93534917D01*
X149902590Y-93452417D01*
X150049606Y-93345603D01*
X150178103Y-93217106D01*
X150284917Y-93070090D01*
X150367417Y-92908174D01*
X150423572Y-92735346D01*
X150423573Y-92735341D01*
X150452000Y-92555864D01*
X150452000Y-92396004D01*
X158324500Y-92396004D01*
X158324500Y-92533995D01*
X158351420Y-92669327D01*
X158351420Y-92669329D01*
X158404222Y-92796806D01*
X158404228Y-92796817D01*
X158480885Y-92911541D01*
X158578458Y-93009114D01*
X158693182Y-93085771D01*
X158693193Y-93085777D01*
X158722041Y-93097726D01*
X158820672Y-93138580D01*
X158956007Y-93165500D01*
X158956008Y-93165500D01*
X159093992Y-93165500D01*
X159093993Y-93165500D01*
X159229328Y-93138580D01*
X159356811Y-93085775D01*
X159471542Y-93009114D01*
X159501160Y-92979496D01*
X159555677Y-92951719D01*
X159571164Y-92950500D01*
X161282470Y-92950500D01*
X161340661Y-92969407D01*
X161376625Y-93018907D01*
X161377531Y-93021855D01*
X161403256Y-93110398D01*
X161486919Y-93251865D01*
X161603135Y-93368081D01*
X161744602Y-93451744D01*
X161902431Y-93497598D01*
X161939306Y-93500500D01*
X161939311Y-93500500D01*
X163320689Y-93500500D01*
X163320694Y-93500500D01*
X163357569Y-93497598D01*
X163515398Y-93451744D01*
X163656865Y-93368081D01*
X163773081Y-93251865D01*
X163856744Y-93110398D01*
X163902598Y-92952569D01*
X163905500Y-92915694D01*
X163905500Y-91984306D01*
X163902598Y-91947431D01*
X163856744Y-91789602D01*
X163773081Y-91648135D01*
X163656865Y-91531919D01*
X163515398Y-91448256D01*
X163357569Y-91402402D01*
X163357568Y-91402401D01*
X163357565Y-91402401D01*
X163334140Y-91400558D01*
X163320694Y-91399500D01*
X161939306Y-91399500D01*
X161926773Y-91400486D01*
X161902434Y-91402401D01*
X161902427Y-91402403D01*
X161744602Y-91448256D01*
X161603136Y-91531918D01*
X161486918Y-91648136D01*
X161403256Y-91789601D01*
X161403256Y-91789602D01*
X161382830Y-91859910D01*
X161377539Y-91878121D01*
X161343147Y-91928726D01*
X161285579Y-91949451D01*
X161282470Y-91949500D01*
X159541164Y-91949500D01*
X159482973Y-91930593D01*
X159473220Y-91922263D01*
X159471541Y-91920885D01*
X159356817Y-91844228D01*
X159356806Y-91844222D01*
X159229328Y-91791420D01*
X159093995Y-91764500D01*
X159093993Y-91764500D01*
X158956007Y-91764500D01*
X158956004Y-91764500D01*
X158820672Y-91791420D01*
X158820670Y-91791420D01*
X158693193Y-91844222D01*
X158693182Y-91844228D01*
X158578458Y-91920885D01*
X158480885Y-92018458D01*
X158404228Y-92133182D01*
X158404222Y-92133193D01*
X158351420Y-92260670D01*
X158351420Y-92260672D01*
X158324500Y-92396004D01*
X150452000Y-92396004D01*
X150452000Y-92374135D01*
X150423573Y-92194658D01*
X150403602Y-92133193D01*
X150367417Y-92021826D01*
X150284917Y-91859910D01*
X150284913Y-91859904D01*
X150178107Y-91712899D01*
X150178105Y-91712897D01*
X150178103Y-91712894D01*
X150049606Y-91584397D01*
X150049602Y-91584394D01*
X150049600Y-91584392D01*
X149902595Y-91477586D01*
X149902589Y-91477582D01*
X149740674Y-91395083D01*
X149567841Y-91338926D01*
X149388364Y-91310500D01*
X149388361Y-91310500D01*
X149206639Y-91310500D01*
X149206636Y-91310500D01*
X149027158Y-91338926D01*
X148854325Y-91395083D01*
X148692410Y-91477582D01*
X148692404Y-91477586D01*
X148545399Y-91584392D01*
X148416892Y-91712899D01*
X148310086Y-91859904D01*
X148310082Y-91859910D01*
X148227583Y-92021825D01*
X148171426Y-92194658D01*
X148143000Y-92374135D01*
X147811500Y-92374135D01*
X147811500Y-92361190D01*
X147811499Y-92361187D01*
X147770996Y-92157560D01*
X147691543Y-91965744D01*
X147602358Y-91832271D01*
X147201170Y-92233460D01*
X147157599Y-92157993D01*
X147064507Y-92064901D01*
X146989036Y-92021328D01*
X147390226Y-91620139D01*
X147256754Y-91530956D01*
X147064939Y-91451503D01*
X146861312Y-91411000D01*
X146653687Y-91411000D01*
X146450060Y-91451503D01*
X146258245Y-91530956D01*
X146258236Y-91530960D01*
X146124772Y-91620139D01*
X146525961Y-92021328D01*
X146450493Y-92064901D01*
X146357401Y-92157993D01*
X146313828Y-92233461D01*
X145912639Y-91832272D01*
X145823460Y-91965736D01*
X145823456Y-91965745D01*
X145744003Y-92157560D01*
X145703500Y-92361187D01*
X145369949Y-92361187D01*
X145343573Y-92194658D01*
X145323602Y-92133193D01*
X145287417Y-92021826D01*
X145204917Y-91859910D01*
X145193523Y-91844228D01*
X145099799Y-91715228D01*
X145099798Y-91715227D01*
X145098103Y-91712894D01*
X144969606Y-91584397D01*
X144969602Y-91584394D01*
X144969600Y-91584392D01*
X144822595Y-91477586D01*
X144822589Y-91477582D01*
X144660674Y-91395083D01*
X144487841Y-91338926D01*
X144308364Y-91310500D01*
X144308361Y-91310500D01*
X144126639Y-91310500D01*
X144126636Y-91310500D01*
X143947158Y-91338926D01*
X143774325Y-91395083D01*
X143612410Y-91477582D01*
X143612404Y-91477586D01*
X143465399Y-91584392D01*
X143336892Y-91712899D01*
X143230086Y-91859904D01*
X143230082Y-91859910D01*
X143147583Y-92021825D01*
X143091426Y-92194658D01*
X143063000Y-92374135D01*
X140292000Y-92374135D01*
X140263573Y-92194658D01*
X140243602Y-92133193D01*
X140207417Y-92021826D01*
X140124917Y-91859910D01*
X140124913Y-91859904D01*
X140018107Y-91712899D01*
X140018105Y-91712897D01*
X140018103Y-91712894D01*
X139889606Y-91584397D01*
X139889602Y-91584394D01*
X139889600Y-91584392D01*
X139742595Y-91477586D01*
X139742589Y-91477582D01*
X139580674Y-91395083D01*
X139407841Y-91338926D01*
X139228364Y-91310500D01*
X139228361Y-91310500D01*
X139046639Y-91310500D01*
X139046636Y-91310500D01*
X138867158Y-91338926D01*
X138694325Y-91395083D01*
X138532410Y-91477582D01*
X138532404Y-91477586D01*
X138385399Y-91584392D01*
X138256892Y-91712899D01*
X138150086Y-91859904D01*
X138150082Y-91859910D01*
X138067583Y-92021825D01*
X138011426Y-92194658D01*
X137983000Y-92374135D01*
X137751999Y-92374135D01*
X137751999Y-91679482D01*
X137751999Y-91679481D01*
X137751999Y-91679478D01*
X137751998Y-91679476D01*
X137737147Y-91585700D01*
X137737146Y-91585698D01*
X137737146Y-91585696D01*
X137679550Y-91472658D01*
X137589842Y-91382950D01*
X137476804Y-91325354D01*
X137476805Y-91325354D01*
X137383021Y-91310500D01*
X135811978Y-91310500D01*
X135811976Y-91310501D01*
X135718200Y-91325352D01*
X135718195Y-91325354D01*
X135605159Y-91382949D01*
X135515449Y-91472659D01*
X135457854Y-91585695D01*
X135443000Y-91679478D01*
X114100500Y-91679478D01*
X114100500Y-90529500D01*
X114119407Y-90471309D01*
X114168907Y-90435345D01*
X114199500Y-90430500D01*
X168000500Y-90430500D01*
X168058691Y-90449407D01*
G37*
%TD.AperFunction*%
%TD*%
M02*
