M48
; DRILL file {KiCad 9.0.6} date 2026-08-06T06:06:16-0500
; FORMAT={-:-/ absolute / metric / decimal}
; #@! TF.CreationDate,2026-08-06T06:06:16-05:00
; #@! TF.GenerationSoftware,Kicad,Pcbnew,9.0.6
; #@! TF.FileFunction,Plated,1,4,PTH
FMAT,2
METRIC
; #@! TA.AperFunction,Plated,PTH,ViaDrill
T1C0.300
; #@! TA.AperFunction,Plated,PTH,ComponentDrill
T2C0.700
; #@! TA.AperFunction,Plated,PTH,ComponentDrill
T3C0.800
; #@! TA.AperFunction,Plated,PTH,ComponentDrill
T4C0.813
; #@! TA.AperFunction,Plated,PTH,ComponentDrill
T5C1.000
%
G90
G05
T1
X114.6Y-103.97
X114.6Y-105.42
X114.6Y-106.84
X114.6Y-108.29
X114.6Y-109.98
X114.6Y-111.43
X114.6Y-112.85
X114.61Y-92.16
X114.61Y-93.61
X114.61Y-95.03
X114.61Y-96.48
X114.61Y-98.17
X114.61Y-99.62
X114.61Y-101.04
X114.61Y-102.49
X114.62Y-90.92
X116.11Y-90.94
X116.33Y-103.97
X116.33Y-105.42
X116.34Y-92.16
X116.34Y-93.61
X116.34Y-95.03
X116.34Y-96.48
X116.34Y-98.17
X116.34Y-99.62
X116.34Y-101.04
X116.34Y-102.49
X116.37Y-112.85
X117.82Y-112.85
X117.84Y-105.43
X119.24Y-112.85
X119.29Y-105.43
X120.69Y-112.85
X120.71Y-105.43
X122.16Y-105.43
X122.38Y-112.85
X123.38Y-105.46
X123.38Y-106.91
X123.83Y-112.85
X124.51Y-107.48
X125.25Y-112.85
X125.96Y-107.48
X126.7Y-112.85
X127.38Y-107.48
X128.18Y-112.86
X128.83Y-107.48
X129.63Y-112.86
X130.31Y-107.49
X131.05Y-112.86
X131.76Y-107.49
X132.5Y-112.86
X133.18Y-107.49
X134.0Y-103.74
X134.0Y-105.16
X134.0Y-106.61
X134.01Y-99.36
X134.01Y-100.81
X134.07Y-97.77
X134.19Y-112.86
X134.2Y-102.72
X135.14Y-98.97
X135.15Y-100.13
X135.52Y-97.77
X135.55Y-101.48
X135.64Y-112.86
X136.59Y-98.97
X136.6Y-100.13
X136.94Y-97.77
X137.06Y-112.86
X137.44Y-100.97
X137.44Y-109.24
X138.01Y-98.97
X138.39Y-97.77
X138.46Y-112.88
X139.46Y-98.97
X139.87Y-97.78
X139.91Y-112.88
X140.03Y-111.24
X141.25Y-112.41
X141.32Y-97.78
X142.2Y-102.45
X142.45Y-104.88
X142.45Y-106.33
X142.45Y-107.61
X142.88Y-100.53
X143.59Y-101.95
X143.59Y-103.4
X143.63Y-90.89
X143.9Y-107.61
X143.98Y-104.6
X145.43Y-104.6
X145.45Y-97.04
X145.46Y-95.96
X145.64Y-93.25
X145.76Y-107.05
X145.94Y-95.33
X146.22Y-96.66
X146.47Y-90.91
X146.83Y-95.95
X147.53Y-95.34
X147.96Y-93.19
X148.49Y-107.09
X148.59Y-91.01
X148.61Y-104.37
X148.78Y-105.7
X149.04Y-97.58
X149.65Y-98.13
X149.78Y-104.64
X149.84Y-96.82
X149.84Y-106.51
X150.04Y-91.01
X150.54Y-95.99
X150.72Y-93.48
X150.72Y-94.93
X150.93Y-104.62
X150.96Y-105.88
X151.46Y-91.01
X152.03Y-93.52
X152.05Y-105.76
X152.91Y-91.01
X153.48Y-93.52
X154.6Y-91.01
X154.9Y-93.52
X156.05Y-91.01
X156.35Y-93.52
X156.96Y-100.85
X158.04Y-93.52
X158.19Y-90.99
X158.41Y-100.85
X158.99Y-112.71
X159.01Y-110.8
X159.025Y-92.465
X159.04Y-108.97
X159.49Y-93.52
X159.64Y-90.99
X159.95Y-100.9
X161.06Y-90.99
X161.4Y-100.9
X162.51Y-90.99
X162.82Y-100.9
X164.2Y-90.99
X164.27Y-100.9
X165.65Y-90.99
X165.96Y-100.9
X167.41Y-100.9
X167.43Y-99.68
X167.46Y-91.0
X167.46Y-92.45
X167.46Y-93.87
X167.46Y-95.32
X167.46Y-97.01
X167.46Y-98.46
T3
X157.029Y-107.798
X159.029Y-107.798
X161.029Y-107.798
T4
X156.769Y-95.428
X156.769Y-97.968
X159.309Y-95.428
X159.309Y-97.968
T5
X136.597Y-92.465
X139.137Y-92.465
X144.218Y-92.465
X146.757Y-92.465
X149.297Y-92.465
T2
G00X122.2Y-102.296
M15
G01X122.2Y-99.996
M16
G05
G00X125.85Y-98.046
M15
G01X128.15Y-98.046
M16
G05
G00X125.85Y-104.146
M15
G01X128.15Y-104.146
M16
G05
M30
