%TF.GenerationSoftware,KiCad,Pcbnew,9.0.6*%
%TF.CreationDate,2026-08-06T06:06:05-05:00*%
%TF.ProjectId,12VDualRailPowerSupply,31325644-7561-46c5-9261-696c506f7765,1.0*%
%TF.SameCoordinates,Original*%
%TF.FileFunction,Legend,Top*%
%TF.FilePolarity,Positive*%
%FSLAX46Y46*%
G04 Gerber Fmt 4.6, Leading zero omitted, Abs format (unit mm)*
G04 Created by KiCad (PCBNEW 9.0.6) date 2026-08-06 06:06:05*
%MOMM*%
%LPD*%
G01*
G04 APERTURE LIST*
%ADD10C,0.160000*%
%ADD11C,0.200000*%
%ADD12C,0.150000*%
%ADD13C,0.100000*%
%ADD14C,0.120000*%
%ADD15C,0.127000*%
%ADD16C,0.400000*%
%ADD17C,0.152400*%
G04 APERTURE END LIST*
D10*
X165595820Y-100034260D02*
X164795820Y-100034260D01*
X164795820Y-100034260D02*
X164795820Y-99843784D01*
X164795820Y-99843784D02*
X164833915Y-99729498D01*
X164833915Y-99729498D02*
X164910105Y-99653308D01*
X164910105Y-99653308D02*
X164986296Y-99615213D01*
X164986296Y-99615213D02*
X165138677Y-99577117D01*
X165138677Y-99577117D02*
X165252963Y-99577117D01*
X165252963Y-99577117D02*
X165405344Y-99615213D01*
X165405344Y-99615213D02*
X165481534Y-99653308D01*
X165481534Y-99653308D02*
X165557725Y-99729498D01*
X165557725Y-99729498D02*
X165595820Y-99843784D01*
X165595820Y-99843784D02*
X165595820Y-100034260D01*
X165519629Y-98777117D02*
X165557725Y-98815213D01*
X165557725Y-98815213D02*
X165595820Y-98929498D01*
X165595820Y-98929498D02*
X165595820Y-99005689D01*
X165595820Y-99005689D02*
X165557725Y-99119975D01*
X165557725Y-99119975D02*
X165481534Y-99196165D01*
X165481534Y-99196165D02*
X165405344Y-99234260D01*
X165405344Y-99234260D02*
X165252963Y-99272356D01*
X165252963Y-99272356D02*
X165138677Y-99272356D01*
X165138677Y-99272356D02*
X164986296Y-99234260D01*
X164986296Y-99234260D02*
X164910105Y-99196165D01*
X164910105Y-99196165D02*
X164833915Y-99119975D01*
X164833915Y-99119975D02*
X164795820Y-99005689D01*
X164795820Y-99005689D02*
X164795820Y-98929498D01*
X164795820Y-98929498D02*
X164833915Y-98815213D01*
X164833915Y-98815213D02*
X164872010Y-98777117D01*
X165291058Y-98434260D02*
X165291058Y-97824737D01*
X165595820Y-97443784D02*
X164795820Y-97443784D01*
X164795820Y-97443784D02*
X164795820Y-97253308D01*
X164795820Y-97253308D02*
X164833915Y-97139022D01*
X164833915Y-97139022D02*
X164910105Y-97062832D01*
X164910105Y-97062832D02*
X164986296Y-97024737D01*
X164986296Y-97024737D02*
X165138677Y-96986641D01*
X165138677Y-96986641D02*
X165252963Y-96986641D01*
X165252963Y-96986641D02*
X165405344Y-97024737D01*
X165405344Y-97024737D02*
X165481534Y-97062832D01*
X165481534Y-97062832D02*
X165557725Y-97139022D01*
X165557725Y-97139022D02*
X165595820Y-97253308D01*
X165595820Y-97253308D02*
X165595820Y-97443784D01*
X165519629Y-96186641D02*
X165557725Y-96224737D01*
X165557725Y-96224737D02*
X165595820Y-96339022D01*
X165595820Y-96339022D02*
X165595820Y-96415213D01*
X165595820Y-96415213D02*
X165557725Y-96529499D01*
X165557725Y-96529499D02*
X165481534Y-96605689D01*
X165481534Y-96605689D02*
X165405344Y-96643784D01*
X165405344Y-96643784D02*
X165252963Y-96681880D01*
X165252963Y-96681880D02*
X165138677Y-96681880D01*
X165138677Y-96681880D02*
X164986296Y-96643784D01*
X164986296Y-96643784D02*
X164910105Y-96605689D01*
X164910105Y-96605689D02*
X164833915Y-96529499D01*
X164833915Y-96529499D02*
X164795820Y-96415213D01*
X164795820Y-96415213D02*
X164795820Y-96339022D01*
X164795820Y-96339022D02*
X164833915Y-96224737D01*
X164833915Y-96224737D02*
X164872010Y-96186641D01*
X164795820Y-95081879D02*
X164795820Y-94929498D01*
X164795820Y-94929498D02*
X164833915Y-94853308D01*
X164833915Y-94853308D02*
X164910105Y-94777117D01*
X164910105Y-94777117D02*
X165062486Y-94739022D01*
X165062486Y-94739022D02*
X165329153Y-94739022D01*
X165329153Y-94739022D02*
X165481534Y-94777117D01*
X165481534Y-94777117D02*
X165557725Y-94853308D01*
X165557725Y-94853308D02*
X165595820Y-94929498D01*
X165595820Y-94929498D02*
X165595820Y-95081879D01*
X165595820Y-95081879D02*
X165557725Y-95158070D01*
X165557725Y-95158070D02*
X165481534Y-95234260D01*
X165481534Y-95234260D02*
X165329153Y-95272356D01*
X165329153Y-95272356D02*
X165062486Y-95272356D01*
X165062486Y-95272356D02*
X164910105Y-95234260D01*
X164910105Y-95234260D02*
X164833915Y-95158070D01*
X164833915Y-95158070D02*
X164795820Y-95081879D01*
X165062486Y-94053308D02*
X165595820Y-94053308D01*
X165062486Y-94396165D02*
X165481534Y-94396165D01*
X165481534Y-94396165D02*
X165557725Y-94358070D01*
X165557725Y-94358070D02*
X165595820Y-94281880D01*
X165595820Y-94281880D02*
X165595820Y-94167594D01*
X165595820Y-94167594D02*
X165557725Y-94091403D01*
X165557725Y-94091403D02*
X165519629Y-94053308D01*
X165062486Y-93786641D02*
X165062486Y-93481879D01*
X164795820Y-93672355D02*
X165481534Y-93672355D01*
X165481534Y-93672355D02*
X165557725Y-93634260D01*
X165557725Y-93634260D02*
X165595820Y-93558070D01*
X165595820Y-93558070D02*
X165595820Y-93481879D01*
X165062486Y-93215212D02*
X165862486Y-93215212D01*
X165100582Y-93215212D02*
X165062486Y-93139022D01*
X165062486Y-93139022D02*
X165062486Y-92986641D01*
X165062486Y-92986641D02*
X165100582Y-92910450D01*
X165100582Y-92910450D02*
X165138677Y-92872355D01*
X165138677Y-92872355D02*
X165214867Y-92834260D01*
X165214867Y-92834260D02*
X165443439Y-92834260D01*
X165443439Y-92834260D02*
X165519629Y-92872355D01*
X165519629Y-92872355D02*
X165557725Y-92910450D01*
X165557725Y-92910450D02*
X165595820Y-92986641D01*
X165595820Y-92986641D02*
X165595820Y-93139022D01*
X165595820Y-93139022D02*
X165557725Y-93215212D01*
X165062486Y-92148545D02*
X165595820Y-92148545D01*
X165062486Y-92491402D02*
X165481534Y-92491402D01*
X165481534Y-92491402D02*
X165557725Y-92453307D01*
X165557725Y-92453307D02*
X165595820Y-92377117D01*
X165595820Y-92377117D02*
X165595820Y-92262831D01*
X165595820Y-92262831D02*
X165557725Y-92186640D01*
X165557725Y-92186640D02*
X165519629Y-92148545D01*
X165062486Y-91881878D02*
X165062486Y-91577116D01*
X164795820Y-91767592D02*
X165481534Y-91767592D01*
X165481534Y-91767592D02*
X165557725Y-91729497D01*
X165557725Y-91729497D02*
X165595820Y-91653307D01*
X165595820Y-91653307D02*
X165595820Y-91577116D01*
X166883775Y-100034260D02*
X166083775Y-100034260D01*
X166350441Y-99653308D02*
X166883775Y-99653308D01*
X166426632Y-99653308D02*
X166388537Y-99615213D01*
X166388537Y-99615213D02*
X166350441Y-99539023D01*
X166350441Y-99539023D02*
X166350441Y-99424737D01*
X166350441Y-99424737D02*
X166388537Y-99348546D01*
X166388537Y-99348546D02*
X166464727Y-99310451D01*
X166464727Y-99310451D02*
X166883775Y-99310451D01*
X166883775Y-98586641D02*
X166083775Y-98586641D01*
X166845680Y-98586641D02*
X166883775Y-98662832D01*
X166883775Y-98662832D02*
X166883775Y-98815213D01*
X166883775Y-98815213D02*
X166845680Y-98891403D01*
X166845680Y-98891403D02*
X166807584Y-98929498D01*
X166807584Y-98929498D02*
X166731394Y-98967594D01*
X166731394Y-98967594D02*
X166502822Y-98967594D01*
X166502822Y-98967594D02*
X166426632Y-98929498D01*
X166426632Y-98929498D02*
X166388537Y-98891403D01*
X166388537Y-98891403D02*
X166350441Y-98815213D01*
X166350441Y-98815213D02*
X166350441Y-98662832D01*
X166350441Y-98662832D02*
X166388537Y-98586641D01*
X166883775Y-98205688D02*
X166350441Y-98205688D01*
X166083775Y-98205688D02*
X166121870Y-98243784D01*
X166121870Y-98243784D02*
X166159965Y-98205688D01*
X166159965Y-98205688D02*
X166121870Y-98167593D01*
X166121870Y-98167593D02*
X166083775Y-98205688D01*
X166083775Y-98205688D02*
X166159965Y-98205688D01*
X166845680Y-97481879D02*
X166883775Y-97558070D01*
X166883775Y-97558070D02*
X166883775Y-97710451D01*
X166883775Y-97710451D02*
X166845680Y-97786641D01*
X166845680Y-97786641D02*
X166807584Y-97824736D01*
X166807584Y-97824736D02*
X166731394Y-97862832D01*
X166731394Y-97862832D02*
X166502822Y-97862832D01*
X166502822Y-97862832D02*
X166426632Y-97824736D01*
X166426632Y-97824736D02*
X166388537Y-97786641D01*
X166388537Y-97786641D02*
X166350441Y-97710451D01*
X166350441Y-97710451D02*
X166350441Y-97558070D01*
X166350441Y-97558070D02*
X166388537Y-97481879D01*
X166883775Y-96796165D02*
X166464727Y-96796165D01*
X166464727Y-96796165D02*
X166388537Y-96834260D01*
X166388537Y-96834260D02*
X166350441Y-96910451D01*
X166350441Y-96910451D02*
X166350441Y-97062832D01*
X166350441Y-97062832D02*
X166388537Y-97139022D01*
X166845680Y-96796165D02*
X166883775Y-96872356D01*
X166883775Y-96872356D02*
X166883775Y-97062832D01*
X166883775Y-97062832D02*
X166845680Y-97139022D01*
X166845680Y-97139022D02*
X166769489Y-97177118D01*
X166769489Y-97177118D02*
X166693299Y-97177118D01*
X166693299Y-97177118D02*
X166617108Y-97139022D01*
X166617108Y-97139022D02*
X166579013Y-97062832D01*
X166579013Y-97062832D02*
X166579013Y-96872356D01*
X166579013Y-96872356D02*
X166540918Y-96796165D01*
X166350441Y-96529498D02*
X166350441Y-96224736D01*
X166083775Y-96415212D02*
X166769489Y-96415212D01*
X166769489Y-96415212D02*
X166845680Y-96377117D01*
X166845680Y-96377117D02*
X166883775Y-96300927D01*
X166883775Y-96300927D02*
X166883775Y-96224736D01*
X166883775Y-95843784D02*
X166845680Y-95919974D01*
X166845680Y-95919974D02*
X166807584Y-95958069D01*
X166807584Y-95958069D02*
X166731394Y-95996165D01*
X166731394Y-95996165D02*
X166502822Y-95996165D01*
X166502822Y-95996165D02*
X166426632Y-95958069D01*
X166426632Y-95958069D02*
X166388537Y-95919974D01*
X166388537Y-95919974D02*
X166350441Y-95843784D01*
X166350441Y-95843784D02*
X166350441Y-95729498D01*
X166350441Y-95729498D02*
X166388537Y-95653307D01*
X166388537Y-95653307D02*
X166426632Y-95615212D01*
X166426632Y-95615212D02*
X166502822Y-95577117D01*
X166502822Y-95577117D02*
X166731394Y-95577117D01*
X166731394Y-95577117D02*
X166807584Y-95615212D01*
X166807584Y-95615212D02*
X166845680Y-95653307D01*
X166845680Y-95653307D02*
X166883775Y-95729498D01*
X166883775Y-95729498D02*
X166883775Y-95843784D01*
X166883775Y-95234259D02*
X166350441Y-95234259D01*
X166502822Y-95234259D02*
X166426632Y-95196164D01*
X166426632Y-95196164D02*
X166388537Y-95158069D01*
X166388537Y-95158069D02*
X166350441Y-95081878D01*
X166350441Y-95081878D02*
X166350441Y-95005688D01*
X166883775Y-93748545D02*
X166883775Y-94129497D01*
X166883775Y-94129497D02*
X166083775Y-94129497D01*
X166464727Y-93481878D02*
X166464727Y-93215212D01*
X166883775Y-93100926D02*
X166883775Y-93481878D01*
X166883775Y-93481878D02*
X166083775Y-93481878D01*
X166083775Y-93481878D02*
X166083775Y-93100926D01*
X166883775Y-92758068D02*
X166083775Y-92758068D01*
X166083775Y-92758068D02*
X166083775Y-92567592D01*
X166083775Y-92567592D02*
X166121870Y-92453306D01*
X166121870Y-92453306D02*
X166198060Y-92377116D01*
X166198060Y-92377116D02*
X166274251Y-92339021D01*
X166274251Y-92339021D02*
X166426632Y-92300925D01*
X166426632Y-92300925D02*
X166540918Y-92300925D01*
X166540918Y-92300925D02*
X166693299Y-92339021D01*
X166693299Y-92339021D02*
X166769489Y-92377116D01*
X166769489Y-92377116D02*
X166845680Y-92453306D01*
X166845680Y-92453306D02*
X166883775Y-92567592D01*
X166883775Y-92567592D02*
X166883775Y-92758068D01*
D11*
X119197219Y-97626517D02*
X119197219Y-98197945D01*
X119197219Y-97912231D02*
X118197219Y-97912231D01*
X118197219Y-97912231D02*
X118340076Y-98007469D01*
X118340076Y-98007469D02*
X118435314Y-98102707D01*
X118435314Y-98102707D02*
X118482933Y-98197945D01*
X118292457Y-97245564D02*
X118244838Y-97197945D01*
X118244838Y-97197945D02*
X118197219Y-97102707D01*
X118197219Y-97102707D02*
X118197219Y-96864612D01*
X118197219Y-96864612D02*
X118244838Y-96769374D01*
X118244838Y-96769374D02*
X118292457Y-96721755D01*
X118292457Y-96721755D02*
X118387695Y-96674136D01*
X118387695Y-96674136D02*
X118482933Y-96674136D01*
X118482933Y-96674136D02*
X118625790Y-96721755D01*
X118625790Y-96721755D02*
X119197219Y-97293183D01*
X119197219Y-97293183D02*
X119197219Y-96674136D01*
X118197219Y-96388421D02*
X119197219Y-96055088D01*
X119197219Y-96055088D02*
X118197219Y-95721755D01*
X119197219Y-94626516D02*
X118197219Y-94626516D01*
X118530552Y-94150326D02*
X119197219Y-94150326D01*
X118625790Y-94150326D02*
X118578171Y-94102707D01*
X118578171Y-94102707D02*
X118530552Y-94007469D01*
X118530552Y-94007469D02*
X118530552Y-93864612D01*
X118530552Y-93864612D02*
X118578171Y-93769374D01*
X118578171Y-93769374D02*
X118673409Y-93721755D01*
X118673409Y-93721755D02*
X119197219Y-93721755D01*
X118530552Y-93245564D02*
X119530552Y-93245564D01*
X118578171Y-93245564D02*
X118530552Y-93150326D01*
X118530552Y-93150326D02*
X118530552Y-92959850D01*
X118530552Y-92959850D02*
X118578171Y-92864612D01*
X118578171Y-92864612D02*
X118625790Y-92816993D01*
X118625790Y-92816993D02*
X118721028Y-92769374D01*
X118721028Y-92769374D02*
X119006742Y-92769374D01*
X119006742Y-92769374D02*
X119101980Y-92816993D01*
X119101980Y-92816993D02*
X119149600Y-92864612D01*
X119149600Y-92864612D02*
X119197219Y-92959850D01*
X119197219Y-92959850D02*
X119197219Y-93150326D01*
X119197219Y-93150326D02*
X119149600Y-93245564D01*
X118530552Y-91912231D02*
X119197219Y-91912231D01*
X118530552Y-92340802D02*
X119054361Y-92340802D01*
X119054361Y-92340802D02*
X119149600Y-92293183D01*
X119149600Y-92293183D02*
X119197219Y-92197945D01*
X119197219Y-92197945D02*
X119197219Y-92055088D01*
X119197219Y-92055088D02*
X119149600Y-91959850D01*
X119149600Y-91959850D02*
X119101980Y-91912231D01*
X118530552Y-91578897D02*
X118530552Y-91197945D01*
X118197219Y-91436040D02*
X119054361Y-91436040D01*
X119054361Y-91436040D02*
X119149600Y-91388421D01*
X119149600Y-91388421D02*
X119197219Y-91293183D01*
X119197219Y-91293183D02*
X119197219Y-91197945D01*
X116755863Y-108967331D02*
X116279673Y-108967331D01*
X116279673Y-108967331D02*
X116279673Y-107967331D01*
X117613006Y-108967331D02*
X117041578Y-108967331D01*
X117327292Y-108967331D02*
X117327292Y-107967331D01*
X117327292Y-107967331D02*
X117232054Y-108110188D01*
X117232054Y-108110188D02*
X117136816Y-108205426D01*
X117136816Y-108205426D02*
X117041578Y-108253045D01*
X118803483Y-108443521D02*
X119565388Y-108443521D01*
X119565388Y-108729235D02*
X118803483Y-108729235D01*
X121232054Y-107967331D02*
X121041578Y-107967331D01*
X121041578Y-107967331D02*
X120946340Y-108014950D01*
X120946340Y-108014950D02*
X120898721Y-108062569D01*
X120898721Y-108062569D02*
X120803483Y-108205426D01*
X120803483Y-108205426D02*
X120755864Y-108395902D01*
X120755864Y-108395902D02*
X120755864Y-108776854D01*
X120755864Y-108776854D02*
X120803483Y-108872092D01*
X120803483Y-108872092D02*
X120851102Y-108919712D01*
X120851102Y-108919712D02*
X120946340Y-108967331D01*
X120946340Y-108967331D02*
X121136816Y-108967331D01*
X121136816Y-108967331D02*
X121232054Y-108919712D01*
X121232054Y-108919712D02*
X121279673Y-108872092D01*
X121279673Y-108872092D02*
X121327292Y-108776854D01*
X121327292Y-108776854D02*
X121327292Y-108538759D01*
X121327292Y-108538759D02*
X121279673Y-108443521D01*
X121279673Y-108443521D02*
X121232054Y-108395902D01*
X121232054Y-108395902D02*
X121136816Y-108348283D01*
X121136816Y-108348283D02*
X120946340Y-108348283D01*
X120946340Y-108348283D02*
X120851102Y-108395902D01*
X120851102Y-108395902D02*
X120803483Y-108443521D01*
X120803483Y-108443521D02*
X120755864Y-108538759D01*
X121898721Y-108395902D02*
X121803483Y-108348283D01*
X121803483Y-108348283D02*
X121755864Y-108300664D01*
X121755864Y-108300664D02*
X121708245Y-108205426D01*
X121708245Y-108205426D02*
X121708245Y-108157807D01*
X121708245Y-108157807D02*
X121755864Y-108062569D01*
X121755864Y-108062569D02*
X121803483Y-108014950D01*
X121803483Y-108014950D02*
X121898721Y-107967331D01*
X121898721Y-107967331D02*
X122089197Y-107967331D01*
X122089197Y-107967331D02*
X122184435Y-108014950D01*
X122184435Y-108014950D02*
X122232054Y-108062569D01*
X122232054Y-108062569D02*
X122279673Y-108157807D01*
X122279673Y-108157807D02*
X122279673Y-108205426D01*
X122279673Y-108205426D02*
X122232054Y-108300664D01*
X122232054Y-108300664D02*
X122184435Y-108348283D01*
X122184435Y-108348283D02*
X122089197Y-108395902D01*
X122089197Y-108395902D02*
X121898721Y-108395902D01*
X121898721Y-108395902D02*
X121803483Y-108443521D01*
X121803483Y-108443521D02*
X121755864Y-108491140D01*
X121755864Y-108491140D02*
X121708245Y-108586378D01*
X121708245Y-108586378D02*
X121708245Y-108776854D01*
X121708245Y-108776854D02*
X121755864Y-108872092D01*
X121755864Y-108872092D02*
X121803483Y-108919712D01*
X121803483Y-108919712D02*
X121898721Y-108967331D01*
X121898721Y-108967331D02*
X122089197Y-108967331D01*
X122089197Y-108967331D02*
X122184435Y-108919712D01*
X122184435Y-108919712D02*
X122232054Y-108872092D01*
X122232054Y-108872092D02*
X122279673Y-108776854D01*
X122279673Y-108776854D02*
X122279673Y-108586378D01*
X122279673Y-108586378D02*
X122232054Y-108491140D01*
X122232054Y-108491140D02*
X122184435Y-108443521D01*
X122184435Y-108443521D02*
X122089197Y-108395902D01*
X122898721Y-107967331D02*
X122993959Y-107967331D01*
X122993959Y-107967331D02*
X123089197Y-108014950D01*
X123089197Y-108014950D02*
X123136816Y-108062569D01*
X123136816Y-108062569D02*
X123184435Y-108157807D01*
X123184435Y-108157807D02*
X123232054Y-108348283D01*
X123232054Y-108348283D02*
X123232054Y-108586378D01*
X123232054Y-108586378D02*
X123184435Y-108776854D01*
X123184435Y-108776854D02*
X123136816Y-108872092D01*
X123136816Y-108872092D02*
X123089197Y-108919712D01*
X123089197Y-108919712D02*
X122993959Y-108967331D01*
X122993959Y-108967331D02*
X122898721Y-108967331D01*
X122898721Y-108967331D02*
X122803483Y-108919712D01*
X122803483Y-108919712D02*
X122755864Y-108872092D01*
X122755864Y-108872092D02*
X122708245Y-108776854D01*
X122708245Y-108776854D02*
X122660626Y-108586378D01*
X122660626Y-108586378D02*
X122660626Y-108348283D01*
X122660626Y-108348283D02*
X122708245Y-108157807D01*
X122708245Y-108157807D02*
X122755864Y-108062569D01*
X122755864Y-108062569D02*
X122803483Y-108014950D01*
X122803483Y-108014950D02*
X122898721Y-107967331D01*
X123851102Y-107967331D02*
X123946340Y-107967331D01*
X123946340Y-107967331D02*
X124041578Y-108014950D01*
X124041578Y-108014950D02*
X124089197Y-108062569D01*
X124089197Y-108062569D02*
X124136816Y-108157807D01*
X124136816Y-108157807D02*
X124184435Y-108348283D01*
X124184435Y-108348283D02*
X124184435Y-108586378D01*
X124184435Y-108586378D02*
X124136816Y-108776854D01*
X124136816Y-108776854D02*
X124089197Y-108872092D01*
X124089197Y-108872092D02*
X124041578Y-108919712D01*
X124041578Y-108919712D02*
X123946340Y-108967331D01*
X123946340Y-108967331D02*
X123851102Y-108967331D01*
X123851102Y-108967331D02*
X123755864Y-108919712D01*
X123755864Y-108919712D02*
X123708245Y-108872092D01*
X123708245Y-108872092D02*
X123660626Y-108776854D01*
X123660626Y-108776854D02*
X123613007Y-108586378D01*
X123613007Y-108586378D02*
X123613007Y-108348283D01*
X123613007Y-108348283D02*
X123660626Y-108157807D01*
X123660626Y-108157807D02*
X123708245Y-108062569D01*
X123708245Y-108062569D02*
X123755864Y-108014950D01*
X123755864Y-108014950D02*
X123851102Y-107967331D01*
X124613007Y-108300664D02*
X124613007Y-108967331D01*
X124613007Y-108395902D02*
X124660626Y-108348283D01*
X124660626Y-108348283D02*
X124755864Y-108300664D01*
X124755864Y-108300664D02*
X124898721Y-108300664D01*
X124898721Y-108300664D02*
X124993959Y-108348283D01*
X124993959Y-108348283D02*
X125041578Y-108443521D01*
X125041578Y-108443521D02*
X125041578Y-108967331D01*
X125517769Y-108967331D02*
X125517769Y-107967331D01*
X125517769Y-108443521D02*
X126089197Y-108443521D01*
X126089197Y-108967331D02*
X126089197Y-107967331D01*
X116851101Y-110577275D02*
X116517768Y-110101084D01*
X116279673Y-110577275D02*
X116279673Y-109577275D01*
X116279673Y-109577275D02*
X116660625Y-109577275D01*
X116660625Y-109577275D02*
X116755863Y-109624894D01*
X116755863Y-109624894D02*
X116803482Y-109672513D01*
X116803482Y-109672513D02*
X116851101Y-109767751D01*
X116851101Y-109767751D02*
X116851101Y-109910608D01*
X116851101Y-109910608D02*
X116803482Y-110005846D01*
X116803482Y-110005846D02*
X116755863Y-110053465D01*
X116755863Y-110053465D02*
X116660625Y-110101084D01*
X116660625Y-110101084D02*
X116279673Y-110101084D01*
X117803482Y-110577275D02*
X117232054Y-110577275D01*
X117517768Y-110577275D02*
X117517768Y-109577275D01*
X117517768Y-109577275D02*
X117422530Y-109720132D01*
X117422530Y-109720132D02*
X117327292Y-109815370D01*
X117327292Y-109815370D02*
X117232054Y-109862989D01*
X118946339Y-109529656D02*
X118089197Y-110815370D01*
X119232054Y-109672513D02*
X119279673Y-109624894D01*
X119279673Y-109624894D02*
X119374911Y-109577275D01*
X119374911Y-109577275D02*
X119613006Y-109577275D01*
X119613006Y-109577275D02*
X119708244Y-109624894D01*
X119708244Y-109624894D02*
X119755863Y-109672513D01*
X119755863Y-109672513D02*
X119803482Y-109767751D01*
X119803482Y-109767751D02*
X119803482Y-109862989D01*
X119803482Y-109862989D02*
X119755863Y-110005846D01*
X119755863Y-110005846D02*
X119184435Y-110577275D01*
X119184435Y-110577275D02*
X119803482Y-110577275D01*
X120993959Y-110053465D02*
X121755864Y-110053465D01*
X121755864Y-110339179D02*
X120993959Y-110339179D01*
X123517768Y-110577275D02*
X122946340Y-110577275D01*
X123232054Y-110577275D02*
X123232054Y-109577275D01*
X123232054Y-109577275D02*
X123136816Y-109720132D01*
X123136816Y-109720132D02*
X123041578Y-109815370D01*
X123041578Y-109815370D02*
X122946340Y-109862989D01*
X123946340Y-110577275D02*
X123946340Y-109577275D01*
X124517768Y-110577275D02*
X124089197Y-110005846D01*
X124517768Y-109577275D02*
X123946340Y-110148703D01*
X116613006Y-111663409D02*
X116279673Y-111663409D01*
X116279673Y-112187219D02*
X116279673Y-111187219D01*
X116279673Y-111187219D02*
X116755863Y-111187219D01*
X117470149Y-111663409D02*
X117613006Y-111711028D01*
X117613006Y-111711028D02*
X117660625Y-111758647D01*
X117660625Y-111758647D02*
X117708244Y-111853885D01*
X117708244Y-111853885D02*
X117708244Y-111996742D01*
X117708244Y-111996742D02*
X117660625Y-112091980D01*
X117660625Y-112091980D02*
X117613006Y-112139600D01*
X117613006Y-112139600D02*
X117517768Y-112187219D01*
X117517768Y-112187219D02*
X117136816Y-112187219D01*
X117136816Y-112187219D02*
X117136816Y-111187219D01*
X117136816Y-111187219D02*
X117470149Y-111187219D01*
X117470149Y-111187219D02*
X117565387Y-111234838D01*
X117565387Y-111234838D02*
X117613006Y-111282457D01*
X117613006Y-111282457D02*
X117660625Y-111377695D01*
X117660625Y-111377695D02*
X117660625Y-111472933D01*
X117660625Y-111472933D02*
X117613006Y-111568171D01*
X117613006Y-111568171D02*
X117565387Y-111615790D01*
X117565387Y-111615790D02*
X117470149Y-111663409D01*
X117470149Y-111663409D02*
X117136816Y-111663409D01*
X118660625Y-112187219D02*
X118089197Y-112187219D01*
X118374911Y-112187219D02*
X118374911Y-111187219D01*
X118374911Y-111187219D02*
X118279673Y-111330076D01*
X118279673Y-111330076D02*
X118184435Y-111425314D01*
X118184435Y-111425314D02*
X118089197Y-111472933D01*
X119089197Y-111806266D02*
X119851102Y-111806266D01*
X120232054Y-111187219D02*
X120851101Y-111187219D01*
X120851101Y-111187219D02*
X120517768Y-111568171D01*
X120517768Y-111568171D02*
X120660625Y-111568171D01*
X120660625Y-111568171D02*
X120755863Y-111615790D01*
X120755863Y-111615790D02*
X120803482Y-111663409D01*
X120803482Y-111663409D02*
X120851101Y-111758647D01*
X120851101Y-111758647D02*
X120851101Y-111996742D01*
X120851101Y-111996742D02*
X120803482Y-112091980D01*
X120803482Y-112091980D02*
X120755863Y-112139600D01*
X120755863Y-112139600D02*
X120660625Y-112187219D01*
X120660625Y-112187219D02*
X120374911Y-112187219D01*
X120374911Y-112187219D02*
X120279673Y-112139600D01*
X120279673Y-112139600D02*
X120232054Y-112091980D01*
X122041578Y-111663409D02*
X122803483Y-111663409D01*
X122803483Y-111949123D02*
X122041578Y-111949123D01*
X123993959Y-111282457D02*
X124041578Y-111234838D01*
X124041578Y-111234838D02*
X124136816Y-111187219D01*
X124136816Y-111187219D02*
X124374911Y-111187219D01*
X124374911Y-111187219D02*
X124470149Y-111234838D01*
X124470149Y-111234838D02*
X124517768Y-111282457D01*
X124517768Y-111282457D02*
X124565387Y-111377695D01*
X124565387Y-111377695D02*
X124565387Y-111472933D01*
X124565387Y-111472933D02*
X124517768Y-111615790D01*
X124517768Y-111615790D02*
X123946340Y-112187219D01*
X123946340Y-112187219D02*
X124565387Y-112187219D01*
X124993959Y-112187219D02*
X124993959Y-111187219D01*
X125089197Y-111806266D02*
X125374911Y-112187219D01*
X125374911Y-111520552D02*
X124993959Y-111901504D01*
X127184435Y-111711028D02*
X127136816Y-111663409D01*
X127136816Y-111663409D02*
X127041578Y-111615790D01*
X127041578Y-111615790D02*
X126946340Y-111615790D01*
X126946340Y-111615790D02*
X126851102Y-111663409D01*
X126851102Y-111663409D02*
X126803483Y-111711028D01*
X126803483Y-111711028D02*
X126755864Y-111806266D01*
X126755864Y-111806266D02*
X126755864Y-111901504D01*
X126755864Y-111901504D02*
X126803483Y-111996742D01*
X126803483Y-111996742D02*
X126851102Y-112044361D01*
X126851102Y-112044361D02*
X126946340Y-112091980D01*
X126946340Y-112091980D02*
X127041578Y-112091980D01*
X127041578Y-112091980D02*
X127136816Y-112044361D01*
X127136816Y-112044361D02*
X127184435Y-111996742D01*
X127184435Y-111615790D02*
X127184435Y-111996742D01*
X127184435Y-111996742D02*
X127232054Y-112044361D01*
X127232054Y-112044361D02*
X127279673Y-112044361D01*
X127279673Y-112044361D02*
X127374912Y-111996742D01*
X127374912Y-111996742D02*
X127422531Y-111901504D01*
X127422531Y-111901504D02*
X127422531Y-111663409D01*
X127422531Y-111663409D02*
X127327293Y-111520552D01*
X127327293Y-111520552D02*
X127184435Y-111425314D01*
X127184435Y-111425314D02*
X126993959Y-111377695D01*
X126993959Y-111377695D02*
X126803483Y-111425314D01*
X126803483Y-111425314D02*
X126660626Y-111520552D01*
X126660626Y-111520552D02*
X126565388Y-111663409D01*
X126565388Y-111663409D02*
X126517769Y-111853885D01*
X126517769Y-111853885D02*
X126565388Y-112044361D01*
X126565388Y-112044361D02*
X126660626Y-112187219D01*
X126660626Y-112187219D02*
X126803483Y-112282457D01*
X126803483Y-112282457D02*
X126993959Y-112330076D01*
X126993959Y-112330076D02*
X127184435Y-112282457D01*
X127184435Y-112282457D02*
X127327293Y-112187219D01*
X129136816Y-112187219D02*
X128565388Y-112187219D01*
X128851102Y-112187219D02*
X128851102Y-111187219D01*
X128851102Y-111187219D02*
X128755864Y-111330076D01*
X128755864Y-111330076D02*
X128660626Y-111425314D01*
X128660626Y-111425314D02*
X128565388Y-111472933D01*
X129755864Y-111187219D02*
X129851102Y-111187219D01*
X129851102Y-111187219D02*
X129946340Y-111234838D01*
X129946340Y-111234838D02*
X129993959Y-111282457D01*
X129993959Y-111282457D02*
X130041578Y-111377695D01*
X130041578Y-111377695D02*
X130089197Y-111568171D01*
X130089197Y-111568171D02*
X130089197Y-111806266D01*
X130089197Y-111806266D02*
X130041578Y-111996742D01*
X130041578Y-111996742D02*
X129993959Y-112091980D01*
X129993959Y-112091980D02*
X129946340Y-112139600D01*
X129946340Y-112139600D02*
X129851102Y-112187219D01*
X129851102Y-112187219D02*
X129755864Y-112187219D01*
X129755864Y-112187219D02*
X129660626Y-112139600D01*
X129660626Y-112139600D02*
X129613007Y-112091980D01*
X129613007Y-112091980D02*
X129565388Y-111996742D01*
X129565388Y-111996742D02*
X129517769Y-111806266D01*
X129517769Y-111806266D02*
X129517769Y-111568171D01*
X129517769Y-111568171D02*
X129565388Y-111377695D01*
X129565388Y-111377695D02*
X129613007Y-111282457D01*
X129613007Y-111282457D02*
X129660626Y-111234838D01*
X129660626Y-111234838D02*
X129755864Y-111187219D01*
X130708245Y-111187219D02*
X130803483Y-111187219D01*
X130803483Y-111187219D02*
X130898721Y-111234838D01*
X130898721Y-111234838D02*
X130946340Y-111282457D01*
X130946340Y-111282457D02*
X130993959Y-111377695D01*
X130993959Y-111377695D02*
X131041578Y-111568171D01*
X131041578Y-111568171D02*
X131041578Y-111806266D01*
X131041578Y-111806266D02*
X130993959Y-111996742D01*
X130993959Y-111996742D02*
X130946340Y-112091980D01*
X130946340Y-112091980D02*
X130898721Y-112139600D01*
X130898721Y-112139600D02*
X130803483Y-112187219D01*
X130803483Y-112187219D02*
X130708245Y-112187219D01*
X130708245Y-112187219D02*
X130613007Y-112139600D01*
X130613007Y-112139600D02*
X130565388Y-112091980D01*
X130565388Y-112091980D02*
X130517769Y-111996742D01*
X130517769Y-111996742D02*
X130470150Y-111806266D01*
X130470150Y-111806266D02*
X130470150Y-111568171D01*
X130470150Y-111568171D02*
X130517769Y-111377695D01*
X130517769Y-111377695D02*
X130565388Y-111282457D01*
X130565388Y-111282457D02*
X130613007Y-111234838D01*
X130613007Y-111234838D02*
X130708245Y-111187219D01*
X131470150Y-112187219D02*
X131470150Y-111187219D01*
X131470150Y-111187219D02*
X131803483Y-111901504D01*
X131803483Y-111901504D02*
X132136816Y-111187219D01*
X132136816Y-111187219D02*
X132136816Y-112187219D01*
X132613007Y-112187219D02*
X132613007Y-111187219D01*
X132613007Y-111663409D02*
X133184435Y-111663409D01*
X133184435Y-112187219D02*
X133184435Y-111187219D01*
X133565388Y-111187219D02*
X134232054Y-111187219D01*
X134232054Y-111187219D02*
X133565388Y-112187219D01*
X133565388Y-112187219D02*
X134232054Y-112187219D01*
X136449673Y-102327219D02*
X136449673Y-101327219D01*
X136449673Y-101327219D02*
X136687768Y-101327219D01*
X136687768Y-101327219D02*
X136830625Y-101374838D01*
X136830625Y-101374838D02*
X136925863Y-101470076D01*
X136925863Y-101470076D02*
X136973482Y-101565314D01*
X136973482Y-101565314D02*
X137021101Y-101755790D01*
X137021101Y-101755790D02*
X137021101Y-101898647D01*
X137021101Y-101898647D02*
X136973482Y-102089123D01*
X136973482Y-102089123D02*
X136925863Y-102184361D01*
X136925863Y-102184361D02*
X136830625Y-102279600D01*
X136830625Y-102279600D02*
X136687768Y-102327219D01*
X136687768Y-102327219D02*
X136449673Y-102327219D01*
X138021101Y-102231980D02*
X137973482Y-102279600D01*
X137973482Y-102279600D02*
X137830625Y-102327219D01*
X137830625Y-102327219D02*
X137735387Y-102327219D01*
X137735387Y-102327219D02*
X137592530Y-102279600D01*
X137592530Y-102279600D02*
X137497292Y-102184361D01*
X137497292Y-102184361D02*
X137449673Y-102089123D01*
X137449673Y-102089123D02*
X137402054Y-101898647D01*
X137402054Y-101898647D02*
X137402054Y-101755790D01*
X137402054Y-101755790D02*
X137449673Y-101565314D01*
X137449673Y-101565314D02*
X137497292Y-101470076D01*
X137497292Y-101470076D02*
X137592530Y-101374838D01*
X137592530Y-101374838D02*
X137735387Y-101327219D01*
X137735387Y-101327219D02*
X137830625Y-101327219D01*
X137830625Y-101327219D02*
X137973482Y-101374838D01*
X137973482Y-101374838D02*
X138021101Y-101422457D01*
X138449673Y-101946266D02*
X139211578Y-101946266D01*
X139687768Y-102327219D02*
X139687768Y-101327219D01*
X139687768Y-101327219D02*
X139925863Y-101327219D01*
X139925863Y-101327219D02*
X140068720Y-101374838D01*
X140068720Y-101374838D02*
X140163958Y-101470076D01*
X140163958Y-101470076D02*
X140211577Y-101565314D01*
X140211577Y-101565314D02*
X140259196Y-101755790D01*
X140259196Y-101755790D02*
X140259196Y-101898647D01*
X140259196Y-101898647D02*
X140211577Y-102089123D01*
X140211577Y-102089123D02*
X140163958Y-102184361D01*
X140163958Y-102184361D02*
X140068720Y-102279600D01*
X140068720Y-102279600D02*
X139925863Y-102327219D01*
X139925863Y-102327219D02*
X139687768Y-102327219D01*
X141259196Y-102231980D02*
X141211577Y-102279600D01*
X141211577Y-102279600D02*
X141068720Y-102327219D01*
X141068720Y-102327219D02*
X140973482Y-102327219D01*
X140973482Y-102327219D02*
X140830625Y-102279600D01*
X140830625Y-102279600D02*
X140735387Y-102184361D01*
X140735387Y-102184361D02*
X140687768Y-102089123D01*
X140687768Y-102089123D02*
X140640149Y-101898647D01*
X140640149Y-101898647D02*
X140640149Y-101755790D01*
X140640149Y-101755790D02*
X140687768Y-101565314D01*
X140687768Y-101565314D02*
X140735387Y-101470076D01*
X140735387Y-101470076D02*
X140830625Y-101374838D01*
X140830625Y-101374838D02*
X140973482Y-101327219D01*
X140973482Y-101327219D02*
X141068720Y-101327219D01*
X141068720Y-101327219D02*
X141211577Y-101374838D01*
X141211577Y-101374838D02*
X141259196Y-101422457D01*
X143021101Y-102231980D02*
X142973482Y-102279600D01*
X142973482Y-102279600D02*
X142830625Y-102327219D01*
X142830625Y-102327219D02*
X142735387Y-102327219D01*
X142735387Y-102327219D02*
X142592530Y-102279600D01*
X142592530Y-102279600D02*
X142497292Y-102184361D01*
X142497292Y-102184361D02*
X142449673Y-102089123D01*
X142449673Y-102089123D02*
X142402054Y-101898647D01*
X142402054Y-101898647D02*
X142402054Y-101755790D01*
X142402054Y-101755790D02*
X142449673Y-101565314D01*
X142449673Y-101565314D02*
X142497292Y-101470076D01*
X142497292Y-101470076D02*
X142592530Y-101374838D01*
X142592530Y-101374838D02*
X142735387Y-101327219D01*
X142735387Y-101327219D02*
X142830625Y-101327219D01*
X142830625Y-101327219D02*
X142973482Y-101374838D01*
X142973482Y-101374838D02*
X143021101Y-101422457D01*
X143592530Y-102327219D02*
X143497292Y-102279600D01*
X143497292Y-102279600D02*
X143449673Y-102231980D01*
X143449673Y-102231980D02*
X143402054Y-102136742D01*
X143402054Y-102136742D02*
X143402054Y-101851028D01*
X143402054Y-101851028D02*
X143449673Y-101755790D01*
X143449673Y-101755790D02*
X143497292Y-101708171D01*
X143497292Y-101708171D02*
X143592530Y-101660552D01*
X143592530Y-101660552D02*
X143735387Y-101660552D01*
X143735387Y-101660552D02*
X143830625Y-101708171D01*
X143830625Y-101708171D02*
X143878244Y-101755790D01*
X143878244Y-101755790D02*
X143925863Y-101851028D01*
X143925863Y-101851028D02*
X143925863Y-102136742D01*
X143925863Y-102136742D02*
X143878244Y-102231980D01*
X143878244Y-102231980D02*
X143830625Y-102279600D01*
X143830625Y-102279600D02*
X143735387Y-102327219D01*
X143735387Y-102327219D02*
X143592530Y-102327219D01*
X144354435Y-101660552D02*
X144354435Y-102327219D01*
X144354435Y-101755790D02*
X144402054Y-101708171D01*
X144402054Y-101708171D02*
X144497292Y-101660552D01*
X144497292Y-101660552D02*
X144640149Y-101660552D01*
X144640149Y-101660552D02*
X144735387Y-101708171D01*
X144735387Y-101708171D02*
X144783006Y-101803409D01*
X144783006Y-101803409D02*
X144783006Y-102327219D01*
X145163959Y-101660552D02*
X145402054Y-102327219D01*
X145402054Y-102327219D02*
X145640149Y-101660552D01*
X146402054Y-102279600D02*
X146306816Y-102327219D01*
X146306816Y-102327219D02*
X146116340Y-102327219D01*
X146116340Y-102327219D02*
X146021102Y-102279600D01*
X146021102Y-102279600D02*
X145973483Y-102184361D01*
X145973483Y-102184361D02*
X145973483Y-101803409D01*
X145973483Y-101803409D02*
X146021102Y-101708171D01*
X146021102Y-101708171D02*
X146116340Y-101660552D01*
X146116340Y-101660552D02*
X146306816Y-101660552D01*
X146306816Y-101660552D02*
X146402054Y-101708171D01*
X146402054Y-101708171D02*
X146449673Y-101803409D01*
X146449673Y-101803409D02*
X146449673Y-101898647D01*
X146449673Y-101898647D02*
X145973483Y-101993885D01*
X146878245Y-102327219D02*
X146878245Y-101660552D01*
X146878245Y-101851028D02*
X146925864Y-101755790D01*
X146925864Y-101755790D02*
X146973483Y-101708171D01*
X146973483Y-101708171D02*
X147068721Y-101660552D01*
X147068721Y-101660552D02*
X147163959Y-101660552D01*
X147354436Y-101660552D02*
X147735388Y-101660552D01*
X147497293Y-101327219D02*
X147497293Y-102184361D01*
X147497293Y-102184361D02*
X147544912Y-102279600D01*
X147544912Y-102279600D02*
X147640150Y-102327219D01*
X147640150Y-102327219D02*
X147735388Y-102327219D01*
X148449674Y-102279600D02*
X148354436Y-102327219D01*
X148354436Y-102327219D02*
X148163960Y-102327219D01*
X148163960Y-102327219D02*
X148068722Y-102279600D01*
X148068722Y-102279600D02*
X148021103Y-102184361D01*
X148021103Y-102184361D02*
X148021103Y-101803409D01*
X148021103Y-101803409D02*
X148068722Y-101708171D01*
X148068722Y-101708171D02*
X148163960Y-101660552D01*
X148163960Y-101660552D02*
X148354436Y-101660552D01*
X148354436Y-101660552D02*
X148449674Y-101708171D01*
X148449674Y-101708171D02*
X148497293Y-101803409D01*
X148497293Y-101803409D02*
X148497293Y-101898647D01*
X148497293Y-101898647D02*
X148021103Y-101993885D01*
X148925865Y-102327219D02*
X148925865Y-101660552D01*
X148925865Y-101851028D02*
X148973484Y-101755790D01*
X148973484Y-101755790D02*
X149021103Y-101708171D01*
X149021103Y-101708171D02*
X149116341Y-101660552D01*
X149116341Y-101660552D02*
X149211579Y-101660552D01*
X136891101Y-106252148D02*
X136843482Y-106299768D01*
X136843482Y-106299768D02*
X136700625Y-106347387D01*
X136700625Y-106347387D02*
X136605387Y-106347387D01*
X136605387Y-106347387D02*
X136462530Y-106299768D01*
X136462530Y-106299768D02*
X136367292Y-106204529D01*
X136367292Y-106204529D02*
X136319673Y-106109291D01*
X136319673Y-106109291D02*
X136272054Y-105918815D01*
X136272054Y-105918815D02*
X136272054Y-105775958D01*
X136272054Y-105775958D02*
X136319673Y-105585482D01*
X136319673Y-105585482D02*
X136367292Y-105490244D01*
X136367292Y-105490244D02*
X136462530Y-105395006D01*
X136462530Y-105395006D02*
X136605387Y-105347387D01*
X136605387Y-105347387D02*
X136700625Y-105347387D01*
X136700625Y-105347387D02*
X136843482Y-105395006D01*
X136843482Y-105395006D02*
X136891101Y-105442625D01*
X137843482Y-106347387D02*
X137272054Y-106347387D01*
X137557768Y-106347387D02*
X137557768Y-105347387D01*
X137557768Y-105347387D02*
X137462530Y-105490244D01*
X137462530Y-105490244D02*
X137367292Y-105585482D01*
X137367292Y-105585482D02*
X137272054Y-105633101D01*
X138986339Y-105299768D02*
X138129197Y-106585482D01*
X139272054Y-105442625D02*
X139319673Y-105395006D01*
X139319673Y-105395006D02*
X139414911Y-105347387D01*
X139414911Y-105347387D02*
X139653006Y-105347387D01*
X139653006Y-105347387D02*
X139748244Y-105395006D01*
X139748244Y-105395006D02*
X139795863Y-105442625D01*
X139795863Y-105442625D02*
X139843482Y-105537863D01*
X139843482Y-105537863D02*
X139843482Y-105633101D01*
X139843482Y-105633101D02*
X139795863Y-105775958D01*
X139795863Y-105775958D02*
X139224435Y-106347387D01*
X139224435Y-106347387D02*
X139843482Y-106347387D01*
X141033959Y-105823577D02*
X141795864Y-105823577D01*
X141795864Y-106109291D02*
X141033959Y-106109291D01*
X143462530Y-105680720D02*
X143462530Y-106347387D01*
X143224435Y-105299768D02*
X142986340Y-106014053D01*
X142986340Y-106014053D02*
X143605387Y-106014053D01*
X143891102Y-105347387D02*
X144557768Y-105347387D01*
X144557768Y-105347387D02*
X144129197Y-106347387D01*
X145129197Y-105347387D02*
X145224435Y-105347387D01*
X145224435Y-105347387D02*
X145319673Y-105395006D01*
X145319673Y-105395006D02*
X145367292Y-105442625D01*
X145367292Y-105442625D02*
X145414911Y-105537863D01*
X145414911Y-105537863D02*
X145462530Y-105728339D01*
X145462530Y-105728339D02*
X145462530Y-105966434D01*
X145462530Y-105966434D02*
X145414911Y-106156910D01*
X145414911Y-106156910D02*
X145367292Y-106252148D01*
X145367292Y-106252148D02*
X145319673Y-106299768D01*
X145319673Y-106299768D02*
X145224435Y-106347387D01*
X145224435Y-106347387D02*
X145129197Y-106347387D01*
X145129197Y-106347387D02*
X145033959Y-106299768D01*
X145033959Y-106299768D02*
X144986340Y-106252148D01*
X144986340Y-106252148D02*
X144938721Y-106156910D01*
X144938721Y-106156910D02*
X144891102Y-105966434D01*
X144891102Y-105966434D02*
X144891102Y-105728339D01*
X144891102Y-105728339D02*
X144938721Y-105537863D01*
X144938721Y-105537863D02*
X144986340Y-105442625D01*
X144986340Y-105442625D02*
X145033959Y-105395006D01*
X145033959Y-105395006D02*
X145129197Y-105347387D01*
X146081578Y-105347387D02*
X146176816Y-105347387D01*
X146176816Y-105347387D02*
X146272054Y-105395006D01*
X146272054Y-105395006D02*
X146319673Y-105442625D01*
X146319673Y-105442625D02*
X146367292Y-105537863D01*
X146367292Y-105537863D02*
X146414911Y-105728339D01*
X146414911Y-105728339D02*
X146414911Y-105966434D01*
X146414911Y-105966434D02*
X146367292Y-106156910D01*
X146367292Y-106156910D02*
X146319673Y-106252148D01*
X146319673Y-106252148D02*
X146272054Y-106299768D01*
X146272054Y-106299768D02*
X146176816Y-106347387D01*
X146176816Y-106347387D02*
X146081578Y-106347387D01*
X146081578Y-106347387D02*
X145986340Y-106299768D01*
X145986340Y-106299768D02*
X145938721Y-106252148D01*
X145938721Y-106252148D02*
X145891102Y-106156910D01*
X145891102Y-106156910D02*
X145843483Y-105966434D01*
X145843483Y-105966434D02*
X145843483Y-105728339D01*
X145843483Y-105728339D02*
X145891102Y-105537863D01*
X145891102Y-105537863D02*
X145938721Y-105442625D01*
X145938721Y-105442625D02*
X145986340Y-105395006D01*
X145986340Y-105395006D02*
X146081578Y-105347387D01*
X146843483Y-105680720D02*
X146843483Y-106347387D01*
X146843483Y-105775958D02*
X146891102Y-105728339D01*
X146891102Y-105728339D02*
X146986340Y-105680720D01*
X146986340Y-105680720D02*
X147129197Y-105680720D01*
X147129197Y-105680720D02*
X147224435Y-105728339D01*
X147224435Y-105728339D02*
X147272054Y-105823577D01*
X147272054Y-105823577D02*
X147272054Y-106347387D01*
X148081578Y-105823577D02*
X147748245Y-105823577D01*
X147748245Y-106347387D02*
X147748245Y-105347387D01*
X147748245Y-105347387D02*
X148224435Y-105347387D01*
X136891101Y-107862092D02*
X136843482Y-107909712D01*
X136843482Y-107909712D02*
X136700625Y-107957331D01*
X136700625Y-107957331D02*
X136605387Y-107957331D01*
X136605387Y-107957331D02*
X136462530Y-107909712D01*
X136462530Y-107909712D02*
X136367292Y-107814473D01*
X136367292Y-107814473D02*
X136319673Y-107719235D01*
X136319673Y-107719235D02*
X136272054Y-107528759D01*
X136272054Y-107528759D02*
X136272054Y-107385902D01*
X136272054Y-107385902D02*
X136319673Y-107195426D01*
X136319673Y-107195426D02*
X136367292Y-107100188D01*
X136367292Y-107100188D02*
X136462530Y-107004950D01*
X136462530Y-107004950D02*
X136605387Y-106957331D01*
X136605387Y-106957331D02*
X136700625Y-106957331D01*
X136700625Y-106957331D02*
X136843482Y-107004950D01*
X136843482Y-107004950D02*
X136891101Y-107052569D01*
X137224435Y-106957331D02*
X137843482Y-106957331D01*
X137843482Y-106957331D02*
X137510149Y-107338283D01*
X137510149Y-107338283D02*
X137653006Y-107338283D01*
X137653006Y-107338283D02*
X137748244Y-107385902D01*
X137748244Y-107385902D02*
X137795863Y-107433521D01*
X137795863Y-107433521D02*
X137843482Y-107528759D01*
X137843482Y-107528759D02*
X137843482Y-107766854D01*
X137843482Y-107766854D02*
X137795863Y-107862092D01*
X137795863Y-107862092D02*
X137748244Y-107909712D01*
X137748244Y-107909712D02*
X137653006Y-107957331D01*
X137653006Y-107957331D02*
X137367292Y-107957331D01*
X137367292Y-107957331D02*
X137272054Y-107909712D01*
X137272054Y-107909712D02*
X137224435Y-107862092D01*
X138986339Y-106909712D02*
X138129197Y-108195426D01*
X139748244Y-107290664D02*
X139748244Y-107957331D01*
X139510149Y-106909712D02*
X139272054Y-107623997D01*
X139272054Y-107623997D02*
X139891101Y-107623997D01*
X141033959Y-107433521D02*
X141795864Y-107433521D01*
X141795864Y-107719235D02*
X141033959Y-107719235D01*
X143462530Y-107290664D02*
X143462530Y-107957331D01*
X143224435Y-106909712D02*
X142986340Y-107623997D01*
X142986340Y-107623997D02*
X143605387Y-107623997D01*
X143891102Y-106957331D02*
X144557768Y-106957331D01*
X144557768Y-106957331D02*
X144129197Y-107957331D01*
X145129197Y-106957331D02*
X145224435Y-106957331D01*
X145224435Y-106957331D02*
X145319673Y-107004950D01*
X145319673Y-107004950D02*
X145367292Y-107052569D01*
X145367292Y-107052569D02*
X145414911Y-107147807D01*
X145414911Y-107147807D02*
X145462530Y-107338283D01*
X145462530Y-107338283D02*
X145462530Y-107576378D01*
X145462530Y-107576378D02*
X145414911Y-107766854D01*
X145414911Y-107766854D02*
X145367292Y-107862092D01*
X145367292Y-107862092D02*
X145319673Y-107909712D01*
X145319673Y-107909712D02*
X145224435Y-107957331D01*
X145224435Y-107957331D02*
X145129197Y-107957331D01*
X145129197Y-107957331D02*
X145033959Y-107909712D01*
X145033959Y-107909712D02*
X144986340Y-107862092D01*
X144986340Y-107862092D02*
X144938721Y-107766854D01*
X144938721Y-107766854D02*
X144891102Y-107576378D01*
X144891102Y-107576378D02*
X144891102Y-107338283D01*
X144891102Y-107338283D02*
X144938721Y-107147807D01*
X144938721Y-107147807D02*
X144986340Y-107052569D01*
X144986340Y-107052569D02*
X145033959Y-107004950D01*
X145033959Y-107004950D02*
X145129197Y-106957331D01*
X145891102Y-107290664D02*
X145891102Y-107957331D01*
X145891102Y-107385902D02*
X145938721Y-107338283D01*
X145938721Y-107338283D02*
X146033959Y-107290664D01*
X146033959Y-107290664D02*
X146176816Y-107290664D01*
X146176816Y-107290664D02*
X146272054Y-107338283D01*
X146272054Y-107338283D02*
X146319673Y-107433521D01*
X146319673Y-107433521D02*
X146319673Y-107957331D01*
X147129197Y-107433521D02*
X146795864Y-107433521D01*
X146795864Y-107957331D02*
X146795864Y-106957331D01*
X146795864Y-106957331D02*
X147272054Y-106957331D01*
X136891101Y-109472036D02*
X136843482Y-109519656D01*
X136843482Y-109519656D02*
X136700625Y-109567275D01*
X136700625Y-109567275D02*
X136605387Y-109567275D01*
X136605387Y-109567275D02*
X136462530Y-109519656D01*
X136462530Y-109519656D02*
X136367292Y-109424417D01*
X136367292Y-109424417D02*
X136319673Y-109329179D01*
X136319673Y-109329179D02*
X136272054Y-109138703D01*
X136272054Y-109138703D02*
X136272054Y-108995846D01*
X136272054Y-108995846D02*
X136319673Y-108805370D01*
X136319673Y-108805370D02*
X136367292Y-108710132D01*
X136367292Y-108710132D02*
X136462530Y-108614894D01*
X136462530Y-108614894D02*
X136605387Y-108567275D01*
X136605387Y-108567275D02*
X136700625Y-108567275D01*
X136700625Y-108567275D02*
X136843482Y-108614894D01*
X136843482Y-108614894D02*
X136891101Y-108662513D01*
X137795863Y-108567275D02*
X137319673Y-108567275D01*
X137319673Y-108567275D02*
X137272054Y-109043465D01*
X137272054Y-109043465D02*
X137319673Y-108995846D01*
X137319673Y-108995846D02*
X137414911Y-108948227D01*
X137414911Y-108948227D02*
X137653006Y-108948227D01*
X137653006Y-108948227D02*
X137748244Y-108995846D01*
X137748244Y-108995846D02*
X137795863Y-109043465D01*
X137795863Y-109043465D02*
X137843482Y-109138703D01*
X137843482Y-109138703D02*
X137843482Y-109376798D01*
X137843482Y-109376798D02*
X137795863Y-109472036D01*
X137795863Y-109472036D02*
X137748244Y-109519656D01*
X137748244Y-109519656D02*
X137653006Y-109567275D01*
X137653006Y-109567275D02*
X137414911Y-109567275D01*
X137414911Y-109567275D02*
X137319673Y-109519656D01*
X137319673Y-109519656D02*
X137272054Y-109472036D01*
X138986339Y-108519656D02*
X138129197Y-109805370D01*
X139748244Y-108567275D02*
X139557768Y-108567275D01*
X139557768Y-108567275D02*
X139462530Y-108614894D01*
X139462530Y-108614894D02*
X139414911Y-108662513D01*
X139414911Y-108662513D02*
X139319673Y-108805370D01*
X139319673Y-108805370D02*
X139272054Y-108995846D01*
X139272054Y-108995846D02*
X139272054Y-109376798D01*
X139272054Y-109376798D02*
X139319673Y-109472036D01*
X139319673Y-109472036D02*
X139367292Y-109519656D01*
X139367292Y-109519656D02*
X139462530Y-109567275D01*
X139462530Y-109567275D02*
X139653006Y-109567275D01*
X139653006Y-109567275D02*
X139748244Y-109519656D01*
X139748244Y-109519656D02*
X139795863Y-109472036D01*
X139795863Y-109472036D02*
X139843482Y-109376798D01*
X139843482Y-109376798D02*
X139843482Y-109138703D01*
X139843482Y-109138703D02*
X139795863Y-109043465D01*
X139795863Y-109043465D02*
X139748244Y-108995846D01*
X139748244Y-108995846D02*
X139653006Y-108948227D01*
X139653006Y-108948227D02*
X139462530Y-108948227D01*
X139462530Y-108948227D02*
X139367292Y-108995846D01*
X139367292Y-108995846D02*
X139319673Y-109043465D01*
X139319673Y-109043465D02*
X139272054Y-109138703D01*
X141033959Y-109043465D02*
X141795864Y-109043465D01*
X141795864Y-109329179D02*
X141033959Y-109329179D01*
X142938721Y-108567275D02*
X143557768Y-108567275D01*
X143557768Y-108567275D02*
X143224435Y-108948227D01*
X143224435Y-108948227D02*
X143367292Y-108948227D01*
X143367292Y-108948227D02*
X143462530Y-108995846D01*
X143462530Y-108995846D02*
X143510149Y-109043465D01*
X143510149Y-109043465D02*
X143557768Y-109138703D01*
X143557768Y-109138703D02*
X143557768Y-109376798D01*
X143557768Y-109376798D02*
X143510149Y-109472036D01*
X143510149Y-109472036D02*
X143462530Y-109519656D01*
X143462530Y-109519656D02*
X143367292Y-109567275D01*
X143367292Y-109567275D02*
X143081578Y-109567275D01*
X143081578Y-109567275D02*
X142986340Y-109519656D01*
X142986340Y-109519656D02*
X142938721Y-109472036D01*
X143891102Y-108567275D02*
X144510149Y-108567275D01*
X144510149Y-108567275D02*
X144176816Y-108948227D01*
X144176816Y-108948227D02*
X144319673Y-108948227D01*
X144319673Y-108948227D02*
X144414911Y-108995846D01*
X144414911Y-108995846D02*
X144462530Y-109043465D01*
X144462530Y-109043465D02*
X144510149Y-109138703D01*
X144510149Y-109138703D02*
X144510149Y-109376798D01*
X144510149Y-109376798D02*
X144462530Y-109472036D01*
X144462530Y-109472036D02*
X144414911Y-109519656D01*
X144414911Y-109519656D02*
X144319673Y-109567275D01*
X144319673Y-109567275D02*
X144033959Y-109567275D01*
X144033959Y-109567275D02*
X143938721Y-109519656D01*
X143938721Y-109519656D02*
X143891102Y-109472036D01*
X145129197Y-108567275D02*
X145224435Y-108567275D01*
X145224435Y-108567275D02*
X145319673Y-108614894D01*
X145319673Y-108614894D02*
X145367292Y-108662513D01*
X145367292Y-108662513D02*
X145414911Y-108757751D01*
X145414911Y-108757751D02*
X145462530Y-108948227D01*
X145462530Y-108948227D02*
X145462530Y-109186322D01*
X145462530Y-109186322D02*
X145414911Y-109376798D01*
X145414911Y-109376798D02*
X145367292Y-109472036D01*
X145367292Y-109472036D02*
X145319673Y-109519656D01*
X145319673Y-109519656D02*
X145224435Y-109567275D01*
X145224435Y-109567275D02*
X145129197Y-109567275D01*
X145129197Y-109567275D02*
X145033959Y-109519656D01*
X145033959Y-109519656D02*
X144986340Y-109472036D01*
X144986340Y-109472036D02*
X144938721Y-109376798D01*
X144938721Y-109376798D02*
X144891102Y-109186322D01*
X144891102Y-109186322D02*
X144891102Y-108948227D01*
X144891102Y-108948227D02*
X144938721Y-108757751D01*
X144938721Y-108757751D02*
X144986340Y-108662513D01*
X144986340Y-108662513D02*
X145033959Y-108614894D01*
X145033959Y-108614894D02*
X145129197Y-108567275D01*
X145891102Y-108900608D02*
X145891102Y-109567275D01*
X145891102Y-108995846D02*
X145938721Y-108948227D01*
X145938721Y-108948227D02*
X146033959Y-108900608D01*
X146033959Y-108900608D02*
X146176816Y-108900608D01*
X146176816Y-108900608D02*
X146272054Y-108948227D01*
X146272054Y-108948227D02*
X146319673Y-109043465D01*
X146319673Y-109043465D02*
X146319673Y-109567275D01*
X147129197Y-109043465D02*
X146795864Y-109043465D01*
X146795864Y-109567275D02*
X146795864Y-108567275D01*
X146795864Y-108567275D02*
X147272054Y-108567275D01*
X136891101Y-111081980D02*
X136843482Y-111129600D01*
X136843482Y-111129600D02*
X136700625Y-111177219D01*
X136700625Y-111177219D02*
X136605387Y-111177219D01*
X136605387Y-111177219D02*
X136462530Y-111129600D01*
X136462530Y-111129600D02*
X136367292Y-111034361D01*
X136367292Y-111034361D02*
X136319673Y-110939123D01*
X136319673Y-110939123D02*
X136272054Y-110748647D01*
X136272054Y-110748647D02*
X136272054Y-110605790D01*
X136272054Y-110605790D02*
X136319673Y-110415314D01*
X136319673Y-110415314D02*
X136367292Y-110320076D01*
X136367292Y-110320076D02*
X136462530Y-110224838D01*
X136462530Y-110224838D02*
X136605387Y-110177219D01*
X136605387Y-110177219D02*
X136700625Y-110177219D01*
X136700625Y-110177219D02*
X136843482Y-110224838D01*
X136843482Y-110224838D02*
X136891101Y-110272457D01*
X137224435Y-110177219D02*
X137891101Y-110177219D01*
X137891101Y-110177219D02*
X137462530Y-111177219D01*
X138986339Y-110129600D02*
X138129197Y-111415314D01*
X139462530Y-110605790D02*
X139367292Y-110558171D01*
X139367292Y-110558171D02*
X139319673Y-110510552D01*
X139319673Y-110510552D02*
X139272054Y-110415314D01*
X139272054Y-110415314D02*
X139272054Y-110367695D01*
X139272054Y-110367695D02*
X139319673Y-110272457D01*
X139319673Y-110272457D02*
X139367292Y-110224838D01*
X139367292Y-110224838D02*
X139462530Y-110177219D01*
X139462530Y-110177219D02*
X139653006Y-110177219D01*
X139653006Y-110177219D02*
X139748244Y-110224838D01*
X139748244Y-110224838D02*
X139795863Y-110272457D01*
X139795863Y-110272457D02*
X139843482Y-110367695D01*
X139843482Y-110367695D02*
X139843482Y-110415314D01*
X139843482Y-110415314D02*
X139795863Y-110510552D01*
X139795863Y-110510552D02*
X139748244Y-110558171D01*
X139748244Y-110558171D02*
X139653006Y-110605790D01*
X139653006Y-110605790D02*
X139462530Y-110605790D01*
X139462530Y-110605790D02*
X139367292Y-110653409D01*
X139367292Y-110653409D02*
X139319673Y-110701028D01*
X139319673Y-110701028D02*
X139272054Y-110796266D01*
X139272054Y-110796266D02*
X139272054Y-110986742D01*
X139272054Y-110986742D02*
X139319673Y-111081980D01*
X139319673Y-111081980D02*
X139367292Y-111129600D01*
X139367292Y-111129600D02*
X139462530Y-111177219D01*
X139462530Y-111177219D02*
X139653006Y-111177219D01*
X139653006Y-111177219D02*
X139748244Y-111129600D01*
X139748244Y-111129600D02*
X139795863Y-111081980D01*
X139795863Y-111081980D02*
X139843482Y-110986742D01*
X139843482Y-110986742D02*
X139843482Y-110796266D01*
X139843482Y-110796266D02*
X139795863Y-110701028D01*
X139795863Y-110701028D02*
X139748244Y-110653409D01*
X139748244Y-110653409D02*
X139653006Y-110605790D01*
X141033959Y-110653409D02*
X141795864Y-110653409D01*
X141795864Y-110939123D02*
X141033959Y-110939123D01*
X143557768Y-111177219D02*
X142986340Y-111177219D01*
X143272054Y-111177219D02*
X143272054Y-110177219D01*
X143272054Y-110177219D02*
X143176816Y-110320076D01*
X143176816Y-110320076D02*
X143081578Y-110415314D01*
X143081578Y-110415314D02*
X142986340Y-110462933D01*
X144176816Y-110177219D02*
X144272054Y-110177219D01*
X144272054Y-110177219D02*
X144367292Y-110224838D01*
X144367292Y-110224838D02*
X144414911Y-110272457D01*
X144414911Y-110272457D02*
X144462530Y-110367695D01*
X144462530Y-110367695D02*
X144510149Y-110558171D01*
X144510149Y-110558171D02*
X144510149Y-110796266D01*
X144510149Y-110796266D02*
X144462530Y-110986742D01*
X144462530Y-110986742D02*
X144414911Y-111081980D01*
X144414911Y-111081980D02*
X144367292Y-111129600D01*
X144367292Y-111129600D02*
X144272054Y-111177219D01*
X144272054Y-111177219D02*
X144176816Y-111177219D01*
X144176816Y-111177219D02*
X144081578Y-111129600D01*
X144081578Y-111129600D02*
X144033959Y-111081980D01*
X144033959Y-111081980D02*
X143986340Y-110986742D01*
X143986340Y-110986742D02*
X143938721Y-110796266D01*
X143938721Y-110796266D02*
X143938721Y-110558171D01*
X143938721Y-110558171D02*
X143986340Y-110367695D01*
X143986340Y-110367695D02*
X144033959Y-110272457D01*
X144033959Y-110272457D02*
X144081578Y-110224838D01*
X144081578Y-110224838D02*
X144176816Y-110177219D01*
X145129197Y-110177219D02*
X145224435Y-110177219D01*
X145224435Y-110177219D02*
X145319673Y-110224838D01*
X145319673Y-110224838D02*
X145367292Y-110272457D01*
X145367292Y-110272457D02*
X145414911Y-110367695D01*
X145414911Y-110367695D02*
X145462530Y-110558171D01*
X145462530Y-110558171D02*
X145462530Y-110796266D01*
X145462530Y-110796266D02*
X145414911Y-110986742D01*
X145414911Y-110986742D02*
X145367292Y-111081980D01*
X145367292Y-111081980D02*
X145319673Y-111129600D01*
X145319673Y-111129600D02*
X145224435Y-111177219D01*
X145224435Y-111177219D02*
X145129197Y-111177219D01*
X145129197Y-111177219D02*
X145033959Y-111129600D01*
X145033959Y-111129600D02*
X144986340Y-111081980D01*
X144986340Y-111081980D02*
X144938721Y-110986742D01*
X144938721Y-110986742D02*
X144891102Y-110796266D01*
X144891102Y-110796266D02*
X144891102Y-110558171D01*
X144891102Y-110558171D02*
X144938721Y-110367695D01*
X144938721Y-110367695D02*
X144986340Y-110272457D01*
X144986340Y-110272457D02*
X145033959Y-110224838D01*
X145033959Y-110224838D02*
X145129197Y-110177219D01*
X145891102Y-110510552D02*
X145891102Y-111177219D01*
X145891102Y-110605790D02*
X145938721Y-110558171D01*
X145938721Y-110558171D02*
X146033959Y-110510552D01*
X146033959Y-110510552D02*
X146176816Y-110510552D01*
X146176816Y-110510552D02*
X146272054Y-110558171D01*
X146272054Y-110558171D02*
X146319673Y-110653409D01*
X146319673Y-110653409D02*
X146319673Y-111177219D01*
X147129197Y-110653409D02*
X146795864Y-110653409D01*
X146795864Y-111177219D02*
X146795864Y-110177219D01*
X146795864Y-110177219D02*
X147272054Y-110177219D01*
D12*
X148043333Y-100474819D02*
X147710000Y-99998628D01*
X147471905Y-100474819D02*
X147471905Y-99474819D01*
X147471905Y-99474819D02*
X147852857Y-99474819D01*
X147852857Y-99474819D02*
X147948095Y-99522438D01*
X147948095Y-99522438D02*
X147995714Y-99570057D01*
X147995714Y-99570057D02*
X148043333Y-99665295D01*
X148043333Y-99665295D02*
X148043333Y-99808152D01*
X148043333Y-99808152D02*
X147995714Y-99903390D01*
X147995714Y-99903390D02*
X147948095Y-99951009D01*
X147948095Y-99951009D02*
X147852857Y-99998628D01*
X147852857Y-99998628D02*
X147471905Y-99998628D01*
X148995714Y-100474819D02*
X148424286Y-100474819D01*
X148710000Y-100474819D02*
X148710000Y-99474819D01*
X148710000Y-99474819D02*
X148614762Y-99617676D01*
X148614762Y-99617676D02*
X148519524Y-99712914D01*
X148519524Y-99712914D02*
X148424286Y-99760533D01*
X134235419Y-99452932D02*
X134235419Y-100265299D01*
X134235419Y-100265299D02*
X134283205Y-100360871D01*
X134283205Y-100360871D02*
X134330992Y-100408658D01*
X134330992Y-100408658D02*
X134426564Y-100456444D01*
X134426564Y-100456444D02*
X134617709Y-100456444D01*
X134617709Y-100456444D02*
X134713282Y-100408658D01*
X134713282Y-100408658D02*
X134761068Y-100360871D01*
X134761068Y-100360871D02*
X134808854Y-100265299D01*
X134808854Y-100265299D02*
X134808854Y-99452932D01*
X135812366Y-100456444D02*
X135238931Y-100456444D01*
X135525648Y-100456444D02*
X135525648Y-99452932D01*
X135525648Y-99452932D02*
X135430076Y-99596291D01*
X135430076Y-99596291D02*
X135334503Y-99691863D01*
X135334503Y-99691863D02*
X135238931Y-99739650D01*
D13*
X161991466Y-104363019D02*
X161991466Y-105077304D01*
X161991466Y-105077304D02*
X161943847Y-105220161D01*
X161943847Y-105220161D02*
X161848609Y-105315400D01*
X161848609Y-105315400D02*
X161705752Y-105363019D01*
X161705752Y-105363019D02*
X161610514Y-105363019D01*
X162420038Y-104458257D02*
X162467657Y-104410638D01*
X162467657Y-104410638D02*
X162562895Y-104363019D01*
X162562895Y-104363019D02*
X162800990Y-104363019D01*
X162800990Y-104363019D02*
X162896228Y-104410638D01*
X162896228Y-104410638D02*
X162943847Y-104458257D01*
X162943847Y-104458257D02*
X162991466Y-104553495D01*
X162991466Y-104553495D02*
X162991466Y-104648733D01*
X162991466Y-104648733D02*
X162943847Y-104791590D01*
X162943847Y-104791590D02*
X162372419Y-105363019D01*
X162372419Y-105363019D02*
X162991466Y-105363019D01*
D12*
X119163939Y-103623879D02*
X119879394Y-103623879D01*
X119879394Y-103623879D02*
X120022485Y-103671576D01*
X120022485Y-103671576D02*
X120117880Y-103766970D01*
X120117880Y-103766970D02*
X120165577Y-103910061D01*
X120165577Y-103910061D02*
X120165577Y-104005455D01*
X120165577Y-102622241D02*
X120165577Y-103194605D01*
X120165577Y-102908423D02*
X119163939Y-102908423D01*
X119163939Y-102908423D02*
X119307030Y-103003817D01*
X119307030Y-103003817D02*
X119402424Y-103099211D01*
X119402424Y-103099211D02*
X119450121Y-103194605D01*
X157300752Y-102689819D02*
X156824562Y-102689819D01*
X156824562Y-102689819D02*
X156824562Y-101689819D01*
X157634086Y-102166009D02*
X157967419Y-102166009D01*
X158110276Y-102689819D02*
X157634086Y-102689819D01*
X157634086Y-102689819D02*
X157634086Y-101689819D01*
X157634086Y-101689819D02*
X158110276Y-101689819D01*
X158538848Y-102689819D02*
X158538848Y-101689819D01*
X158538848Y-101689819D02*
X158776943Y-101689819D01*
X158776943Y-101689819D02*
X158919800Y-101737438D01*
X158919800Y-101737438D02*
X159015038Y-101832676D01*
X159015038Y-101832676D02*
X159062657Y-101927914D01*
X159062657Y-101927914D02*
X159110276Y-102118390D01*
X159110276Y-102118390D02*
X159110276Y-102261247D01*
X159110276Y-102261247D02*
X159062657Y-102451723D01*
X159062657Y-102451723D02*
X159015038Y-102546961D01*
X159015038Y-102546961D02*
X158919800Y-102642200D01*
X158919800Y-102642200D02*
X158776943Y-102689819D01*
X158776943Y-102689819D02*
X158538848Y-102689819D01*
X160062657Y-102689819D02*
X159491229Y-102689819D01*
X159776943Y-102689819D02*
X159776943Y-101689819D01*
X159776943Y-101689819D02*
X159681705Y-101832676D01*
X159681705Y-101832676D02*
X159586467Y-101927914D01*
X159586467Y-101927914D02*
X159491229Y-101975533D01*
X162463333Y-97554819D02*
X162130000Y-97078628D01*
X161891905Y-97554819D02*
X161891905Y-96554819D01*
X161891905Y-96554819D02*
X162272857Y-96554819D01*
X162272857Y-96554819D02*
X162368095Y-96602438D01*
X162368095Y-96602438D02*
X162415714Y-96650057D01*
X162415714Y-96650057D02*
X162463333Y-96745295D01*
X162463333Y-96745295D02*
X162463333Y-96888152D01*
X162463333Y-96888152D02*
X162415714Y-96983390D01*
X162415714Y-96983390D02*
X162368095Y-97031009D01*
X162368095Y-97031009D02*
X162272857Y-97078628D01*
X162272857Y-97078628D02*
X161891905Y-97078628D01*
X162844286Y-96650057D02*
X162891905Y-96602438D01*
X162891905Y-96602438D02*
X162987143Y-96554819D01*
X162987143Y-96554819D02*
X163225238Y-96554819D01*
X163225238Y-96554819D02*
X163320476Y-96602438D01*
X163320476Y-96602438D02*
X163368095Y-96650057D01*
X163368095Y-96650057D02*
X163415714Y-96745295D01*
X163415714Y-96745295D02*
X163415714Y-96840533D01*
X163415714Y-96840533D02*
X163368095Y-96983390D01*
X163368095Y-96983390D02*
X162796667Y-97554819D01*
X162796667Y-97554819D02*
X163415714Y-97554819D01*
D14*
%TO.C,R1*%
X150987136Y-99115200D02*
X152441264Y-99115200D01*
X150987136Y-100935200D02*
X152441264Y-100935200D01*
D15*
%TO.C,U1*%
X134057500Y-91565000D02*
X135597500Y-91565000D01*
X134057500Y-98615000D02*
X134057500Y-91565000D01*
X153697500Y-91565000D02*
X150297500Y-91565000D01*
X153707500Y-91565000D02*
X153707500Y-98615000D01*
X153707500Y-98615000D02*
X134057500Y-98615000D01*
D11*
X133697500Y-92465000D02*
G75*
G02*
X133497500Y-92465000I-100000J0D01*
G01*
X133497500Y-92465000D02*
G75*
G02*
X133697500Y-92465000I100000J0D01*
G01*
D13*
%TO.C,J2*%
X155029400Y-113937600D02*
X155029400Y-106237600D01*
X163029400Y-106237600D02*
X155029400Y-106237600D01*
X163029400Y-106237600D02*
X163029400Y-113937600D01*
X163029400Y-113937600D02*
X155029400Y-113937600D01*
D15*
%TO.C,J1*%
X121500000Y-89945900D02*
X123000000Y-89945900D01*
X121500000Y-98945900D02*
X121500000Y-89945900D01*
X121500000Y-104145900D02*
X121500000Y-103245900D01*
X123000000Y-84245900D02*
X123000000Y-89945900D01*
X123000000Y-84245900D02*
X131000000Y-84245900D01*
X123000000Y-89945900D02*
X131000000Y-89945900D01*
X124600000Y-104145900D02*
X121500000Y-104145900D01*
X131000000Y-84245900D02*
X131000000Y-89945900D01*
X131000000Y-89945900D02*
X132500000Y-89945900D01*
X132500000Y-89945900D02*
X132500000Y-104145900D01*
X132500000Y-104145900D02*
X129400000Y-104145900D01*
D16*
X127210000Y-105925900D02*
G75*
G02*
X126810000Y-105925900I-200000J0D01*
G01*
X126810000Y-105925900D02*
G75*
G02*
X127210000Y-105925900I200000J0D01*
G01*
D17*
%TO.C,LED1*%
X154863800Y-89789000D02*
X154863800Y-101041200D01*
X154863800Y-101041200D02*
X161213800Y-101041200D01*
X155562300Y-89789000D02*
X155562300Y-87642700D01*
X160515300Y-89789000D02*
X160515300Y-87642700D01*
X161213800Y-89789000D02*
X154863800Y-89789000D01*
X161213800Y-101041200D02*
X161213800Y-89789000D01*
X161594800Y-97713800D02*
X161594800Y-98221800D01*
X161594800Y-97713800D02*
X162102800Y-97967800D01*
X161594800Y-98221800D02*
X162102800Y-97967800D01*
X162102800Y-97713800D02*
X162102800Y-98221800D01*
X155562300Y-87769700D02*
G75*
G02*
X160515300Y-87769700I2476500J0D01*
G01*
D14*
%TO.C,R2*%
X161720000Y-93272936D02*
X161720000Y-94727064D01*
X163540000Y-93272936D02*
X163540000Y-94727064D01*
%TD*%
M02*
