ISO-10303-21;
HEADER;
/* Generated by software containing ST-Developer
 * from STEP Tools, Inc. (www.steptools.com) 
 */

FILE_DESCRIPTION(
/* description */ ('CONN BNC JACK R/A 50 OHM PCB'),
/* implementation_level */ '2;1');

FILE_NAME(
/* name */ '031-5640.stp',
/* time_stamp */ '2026-07-22T19:15:33-05:00',
/* author */ ('tapen'),
/* organization */ (''),
/* preprocessor_version */ 'ST-DEVELOPER v20',
/* originating_system */ 'Autodesk Inventor 2025',
/* authorisation */ '');

FILE_SCHEMA (('AUTOMOTIVE_DESIGN { 1 0 10303 214 3 1 1 }'));
ENDSEC;

DATA;
#10=MECHANICAL_DESIGN_GEOMETRIC_PRESENTATION_REPRESENTATION('',(#758,#759,
#760,#761,#762,#763,#764,#765,#766,#767,#768,#769,#770,#771,#772,#773,#774,
#775,#776,#777,#778,#779,#780,#781,#782,#783,#784,#785,#786,#787,#788,#789,
#790,#791,#792,#793,#794,#795,#796,#797,#798),#1547);
#11=SHAPE_REPRESENTATION_RELATIONSHIP('SRR','None',#1554,#12);
#12=ADVANCED_BREP_SHAPE_REPRESENTATION('',(#13),#1546);
#13=MANIFOLD_SOLID_BREP('Solid3',#850);
#14=SPHERICAL_SURFACE('',#948,1.);
#15=SPHERICAL_SURFACE('',#955,1.);
#16=ELLIPSE('',#946,1.4142135623731,1.);
#17=ELLIPSE('',#947,1.41421356237309,1.);
#18=B_SPLINE_CURVE_WITH_KNOTS('',3,(#1374,#1375,#1376,#1377,#1378,#1379,
#1380,#1381,#1382,#1383,#1384,#1385,#1386,#1387,#1388,#1389,#1390,#1391),
 .UNSPECIFIED.,.F.,.F.,(4,2,2,2,2,2,2,2,4),(0.302304076127539,0.340093336281126,
0.377882596434713,0.415669355313011,0.453456114191308,0.491242873069605,
0.529029631947903,0.56681889210149,0.604608152255077),.UNSPECIFIED.);
#19=B_SPLINE_CURVE_WITH_KNOTS('',3,(#1392,#1393,#1394,#1395,#1396,#1397,
#1398,#1399,#1400,#1401,#1402,#1403,#1404,#1405,#1406,#1407,#1408,#1409),
 .UNSPECIFIED.,.F.,.F.,(4,2,2,2,2,2,2,2,4),(0.,0.0377892601535872,0.0755785203071744,
0.113365279185472,0.151152038063769,0.188938796942067,0.226725555820364,
0.264514815973951,0.302304076127539),.UNSPECIFIED.);
#20=B_SPLINE_CURVE_WITH_KNOTS('',3,(#1417,#1418,#1419,#1420,#1421,#1422,
#1423,#1424,#1425,#1426,#1427,#1428,#1429,#1430,#1431,#1432,#1433,#1434),
 .UNSPECIFIED.,.F.,.F.,(4,2,2,2,2,2,2,2,4),(0.302304076127539,0.340093336281126,
0.377882596434713,0.415669355313011,0.453456114191308,0.491242873069605,
0.529029631947903,0.56681889210149,0.604608152255077),.UNSPECIFIED.);
#21=B_SPLINE_CURVE_WITH_KNOTS('',3,(#1435,#1436,#1437,#1438,#1439,#1440,
#1441,#1442,#1443,#1444,#1445,#1446,#1447,#1448,#1449,#1450,#1451,#1452),
 .UNSPECIFIED.,.F.,.F.,(4,2,2,2,2,2,2,2,4),(0.,0.0377892601535872,0.0755785203071744,
0.113365279185472,0.151152038063769,0.188938796942067,0.226725555820364,
0.264514815973951,0.302304076127539),.UNSPECIFIED.);
#22=B_SPLINE_CURVE_WITH_KNOTS('',3,(#1490,#1491,#1492,#1493),
 .UNSPECIFIED.,.F.,.F.,(4,4),(0.697329522791457,0.829918862997465),
 .UNSPECIFIED.);
#23=B_SPLINE_CURVE_WITH_KNOTS('',3,(#1498,#1499,#1500,#1501),
 .UNSPECIFIED.,.F.,.F.,(4,4),(0.829918862997465,0.962508203203472),
 .UNSPECIFIED.);
#24=B_SPLINE_CURVE_WITH_KNOTS('',3,(#1521,#1522,#1523,#1524,#1525,#1526),
 .UNSPECIFIED.,.F.,.F.,(4,2,4),(0.697329522791457,0.829918862997465,0.962508203203473),
 .UNSPECIFIED.);
#25=FACE_BOUND('',#130,.T.);
#26=FACE_BOUND('',#131,.T.);
#27=FACE_BOUND('',#133,.T.);
#28=FACE_BOUND('',#134,.T.);
#29=FACE_BOUND('',#142,.T.);
#30=FACE_BOUND('',#144,.T.);
#31=FACE_BOUND('',#150,.T.);
#32=FACE_BOUND('',#151,.T.);
#33=FACE_BOUND('',#154,.T.);
#34=FACE_BOUND('',#156,.T.);
#35=PLANE('',#883);
#36=PLANE('',#894);
#37=PLANE('',#898);
#38=PLANE('',#902);
#39=PLANE('',#906);
#40=PLANE('',#907);
#41=PLANE('',#911);
#42=PLANE('',#912);
#43=PLANE('',#913);
#44=PLANE('',#918);
#45=PLANE('',#921);
#46=PLANE('',#928);
#47=PLANE('',#929);
#48=PLANE('',#933);
#49=PLANE('',#934);
#50=PLANE('',#942);
#51=PLANE('',#943);
#52=PLANE('',#963);
#53=PLANE('',#965);
#54=PLANE('',#967);
#55=PLANE('',#969);
#56=PLANE('',#970);
#57=PLANE('',#971);
#58=PLANE('',#972);
#59=TOROIDAL_SURFACE('',#877,1.5,0.38);
#60=TOROIDAL_SURFACE('',#888,1.5,0.36);
#61=FACE_OUTER_BOUND('',#112,.T.);
#62=FACE_OUTER_BOUND('',#113,.T.);
#63=FACE_OUTER_BOUND('',#114,.T.);
#64=FACE_OUTER_BOUND('',#115,.T.);
#65=FACE_OUTER_BOUND('',#116,.T.);
#66=FACE_OUTER_BOUND('',#117,.T.);
#67=FACE_OUTER_BOUND('',#118,.T.);
#68=FACE_OUTER_BOUND('',#119,.T.);
#69=FACE_OUTER_BOUND('',#120,.T.);
#70=FACE_OUTER_BOUND('',#121,.T.);
#71=FACE_OUTER_BOUND('',#122,.T.);
#72=FACE_OUTER_BOUND('',#123,.T.);
#73=FACE_OUTER_BOUND('',#124,.T.);
#74=FACE_OUTER_BOUND('',#125,.T.);
#75=FACE_OUTER_BOUND('',#126,.T.);
#76=FACE_OUTER_BOUND('',#127,.T.);
#77=FACE_OUTER_BOUND('',#128,.T.);
#78=FACE_OUTER_BOUND('',#129,.T.);
#79=FACE_OUTER_BOUND('',#132,.T.);
#80=FACE_OUTER_BOUND('',#135,.T.);
#81=FACE_OUTER_BOUND('',#136,.T.);
#82=FACE_OUTER_BOUND('',#137,.T.);
#83=FACE_OUTER_BOUND('',#138,.T.);
#84=FACE_OUTER_BOUND('',#139,.T.);
#85=FACE_OUTER_BOUND('',#140,.T.);
#86=FACE_OUTER_BOUND('',#141,.T.);
#87=FACE_OUTER_BOUND('',#143,.T.);
#88=FACE_OUTER_BOUND('',#145,.T.);
#89=FACE_OUTER_BOUND('',#146,.T.);
#90=FACE_OUTER_BOUND('',#147,.T.);
#91=FACE_OUTER_BOUND('',#148,.T.);
#92=FACE_OUTER_BOUND('',#149,.T.);
#93=FACE_OUTER_BOUND('',#152,.T.);
#94=FACE_OUTER_BOUND('',#153,.T.);
#95=FACE_OUTER_BOUND('',#155,.T.);
#96=FACE_OUTER_BOUND('',#157,.T.);
#97=FACE_OUTER_BOUND('',#158,.T.);
#98=FACE_OUTER_BOUND('',#159,.T.);
#99=FACE_OUTER_BOUND('',#160,.T.);
#100=FACE_OUTER_BOUND('',#161,.T.);
#101=FACE_OUTER_BOUND('',#162,.T.);
#102=FACE_OUTER_BOUND('',#163,.T.);
#103=FACE_OUTER_BOUND('',#164,.T.);
#104=FACE_OUTER_BOUND('',#165,.T.);
#105=FACE_OUTER_BOUND('',#166,.T.);
#106=FACE_OUTER_BOUND('',#167,.T.);
#107=FACE_OUTER_BOUND('',#168,.T.);
#108=FACE_OUTER_BOUND('',#169,.T.);
#109=FACE_OUTER_BOUND('',#170,.T.);
#110=FACE_OUTER_BOUND('',#171,.T.);
#111=FACE_OUTER_BOUND('',#172,.T.);
#112=EDGE_LOOP('',(#513,#514,#515,#516,#517));
#113=EDGE_LOOP('',(#518,#519,#520,#521,#522,#523));
#114=EDGE_LOOP('',(#524,#525,#526,#527,#528));
#115=EDGE_LOOP('',(#529));
#116=EDGE_LOOP('',(#530,#531,#532,#533,#534));
#117=EDGE_LOOP('',(#535,#536,#537,#538,#539,#540));
#118=EDGE_LOOP('',(#541,#542,#543,#544,#545));
#119=EDGE_LOOP('',(#546));
#120=EDGE_LOOP('',(#547,#548,#549,#550));
#121=EDGE_LOOP('',(#551,#552,#553,#554));
#122=EDGE_LOOP('',(#555,#556,#557,#558));
#123=EDGE_LOOP('',(#559,#560,#561,#562));
#124=EDGE_LOOP('',(#563,#564,#565,#566));
#125=EDGE_LOOP('',(#567,#568,#569,#570));
#126=EDGE_LOOP('',(#571,#572,#573,#574));
#127=EDGE_LOOP('',(#575,#576,#577,#578));
#128=EDGE_LOOP('',(#579,#580,#581,#582));
#129=EDGE_LOOP('',(#583,#584,#585,#586,#587,#588,#589,#590,#591,#592));
#130=EDGE_LOOP('',(#593));
#131=EDGE_LOOP('',(#594));
#132=EDGE_LOOP('',(#595,#596,#597,#598,#599,#600,#601,#602));
#133=EDGE_LOOP('',(#603));
#134=EDGE_LOOP('',(#604));
#135=EDGE_LOOP('',(#605,#606,#607,#608));
#136=EDGE_LOOP('',(#609));
#137=EDGE_LOOP('',(#610,#611,#612,#613));
#138=EDGE_LOOP('',(#614));
#139=EDGE_LOOP('',(#615,#616,#617,#618));
#140=EDGE_LOOP('',(#619,#620,#621,#622));
#141=EDGE_LOOP('',(#623));
#142=EDGE_LOOP('',(#624));
#143=EDGE_LOOP('',(#625));
#144=EDGE_LOOP('',(#626));
#145=EDGE_LOOP('',(#627,#628,#629,#630,#631));
#146=EDGE_LOOP('',(#632));
#147=EDGE_LOOP('',(#633));
#148=EDGE_LOOP('',(#634,#635,#636,#637,#638));
#149=EDGE_LOOP('',(#639,#640,#641,#642));
#150=EDGE_LOOP('',(#643,#644));
#151=EDGE_LOOP('',(#645,#646));
#152=EDGE_LOOP('',(#647,#648,#649,#650));
#153=EDGE_LOOP('',(#651));
#154=EDGE_LOOP('',(#652));
#155=EDGE_LOOP('',(#653));
#156=EDGE_LOOP('',(#654));
#157=EDGE_LOOP('',(#655,#656,#657,#658));
#158=EDGE_LOOP('',(#659,#660,#661));
#159=EDGE_LOOP('',(#662,#663,#664,#665));
#160=EDGE_LOOP('',(#666,#667,#668,#669,#670,#671,#672));
#161=EDGE_LOOP('',(#673,#674,#675));
#162=EDGE_LOOP('',(#676,#677,#678,#679));
#163=EDGE_LOOP('',(#680,#681,#682,#683));
#164=EDGE_LOOP('',(#684,#685,#686,#687,#688,#689));
#165=EDGE_LOOP('',(#690,#691,#692,#693));
#166=EDGE_LOOP('',(#694,#695,#696,#697));
#167=EDGE_LOOP('',(#698,#699,#700,#701));
#168=EDGE_LOOP('',(#702,#703,#704,#705,#706,#707,#708,#709));
#169=EDGE_LOOP('',(#710));
#170=EDGE_LOOP('',(#711,#712,#713,#714));
#171=EDGE_LOOP('',(#715,#716,#717,#718));
#172=EDGE_LOOP('',(#719,#720,#721,#722,#723,#724,#725,#726,#727,#728,#729,
#730,#731,#732,#733,#734));
#173=LINE('',#1235,#228);
#174=LINE('',#1247,#229);
#175=LINE('',#1254,#230);
#176=LINE('',#1266,#231);
#177=LINE('',#1274,#232);
#178=LINE('',#1277,#233);
#179=LINE('',#1280,#234);
#180=LINE('',#1282,#235);
#181=LINE('',#1283,#236);
#182=LINE('',#1288,#237);
#183=LINE('',#1292,#238);
#184=LINE('',#1294,#239);
#185=LINE('',#1295,#240);
#186=LINE('',#1300,#241);
#187=LINE('',#1304,#242);
#188=LINE('',#1306,#243);
#189=LINE('',#1307,#244);
#190=LINE('',#1311,#245);
#191=LINE('',#1313,#246);
#192=LINE('',#1315,#247);
#193=LINE('',#1316,#248);
#194=LINE('',#1321,#249);
#195=LINE('',#1324,#250);
#196=LINE('',#1325,#251);
#197=LINE('',#1327,#252);
#198=LINE('',#1330,#253);
#199=LINE('',#1332,#254);
#200=LINE('',#1334,#255);
#201=LINE('',#1336,#256);
#202=LINE('',#1337,#257);
#203=LINE('',#1345,#258);
#204=LINE('',#1350,#259);
#205=LINE('',#1356,#260);
#206=LINE('',#1362,#261);
#207=LINE('',#1372,#262);
#208=LINE('',#1453,#263);
#209=LINE('',#1458,#264);
#210=LINE('',#1463,#265);
#211=LINE('',#1471,#266);
#212=LINE('',#1485,#267);
#213=LINE('',#1486,#268);
#214=LINE('',#1494,#269);
#215=LINE('',#1495,#270);
#216=LINE('',#1497,#271);
#217=LINE('',#1513,#272);
#218=LINE('',#1514,#273);
#219=LINE('',#1516,#274);
#220=LINE('',#1517,#275);
#221=LINE('',#1527,#276);
#222=LINE('',#1528,#277);
#223=LINE('',#1529,#278);
#224=LINE('',#1535,#279);
#225=LINE('',#1537,#280);
#226=LINE('',#1540,#281);
#227=LINE('',#1542,#282);
#228=VECTOR('',#979,0.38);
#229=VECTOR('',#994,0.38);
#230=VECTOR('',#1003,0.36);
#231=VECTOR('',#1018,0.36);
#232=VECTOR('',#1027,10.);
#233=VECTOR('',#1030,10.);
#234=VECTOR('',#1033,10.);
#235=VECTOR('',#1034,10.);
#236=VECTOR('',#1035,10.);
#237=VECTOR('',#1040,10.);
#238=VECTOR('',#1045,10.);
#239=VECTOR('',#1046,10.);
#240=VECTOR('',#1047,10.);
#241=VECTOR('',#1052,10.);
#242=VECTOR('',#1057,10.);
#243=VECTOR('',#1058,10.);
#244=VECTOR('',#1059,10.);
#245=VECTOR('',#1062,10.);
#246=VECTOR('',#1063,10.);
#247=VECTOR('',#1064,10.);
#248=VECTOR('',#1065,10.);
#249=VECTOR('',#1070,10.);
#250=VECTOR('',#1075,10.);
#251=VECTOR('',#1076,10.);
#252=VECTOR('',#1079,10.);
#253=VECTOR('',#1082,10.);
#254=VECTOR('',#1083,10.);
#255=VECTOR('',#1084,10.);
#256=VECTOR('',#1085,10.);
#257=VECTOR('',#1086,10.);
#258=VECTOR('',#1095,0.864999999999999);
#259=VECTOR('',#1102,0.864999999999999);
#260=VECTOR('',#1109,0.370346134826523);
#261=VECTOR('',#1116,2.35);
#262=VECTOR('',#1129,1.);
#263=VECTOR('',#1138,1.);
#264=VECTOR('',#1143,4.8);
#265=VECTOR('',#1150,4.1);
#266=VECTOR('',#1159,10.);
#267=VECTOR('',#1176,10.);
#268=VECTOR('',#1177,10.);
#269=VECTOR('',#1180,10.);
#270=VECTOR('',#1181,10.);
#271=VECTOR('',#1182,10.);
#272=VECTOR('',#1195,10.);
#273=VECTOR('',#1196,10.);
#274=VECTOR('',#1199,10.);
#275=VECTOR('',#1200,10.);
#276=VECTOR('',#1203,10.);
#277=VECTOR('',#1204,10.);
#278=VECTOR('',#1205,10.);
#279=VECTOR('',#1216,10.);
#280=VECTOR('',#1219,6.35);
#281=VECTOR('',#1224,10.);
#282=VECTOR('',#1227,10.);
#283=CIRCLE('',#874,0.38);
#284=CIRCLE('',#875,0.38);
#285=CIRCLE('',#876,0.38);
#286=CIRCLE('',#878,1.12);
#287=CIRCLE('',#879,0.38);
#288=CIRCLE('',#880,0.38);
#289=CIRCLE('',#882,0.38);
#290=CIRCLE('',#885,0.36);
#291=CIRCLE('',#886,0.36);
#292=CIRCLE('',#887,0.36);
#293=CIRCLE('',#889,1.14);
#294=CIRCLE('',#890,0.36);
#295=CIRCLE('',#891,0.36);
#296=CIRCLE('',#893,0.36);
#297=CIRCLE('',#896,2.25904453114529);
#298=CIRCLE('',#897,2.25904453114529);
#299=CIRCLE('',#900,2.32691353531702);
#300=CIRCLE('',#901,2.32691353531702);
#301=CIRCLE('',#904,1.1274487393369);
#302=CIRCLE('',#905,1.1274487393369);
#303=CIRCLE('',#909,1.26870579629677);
#304=CIRCLE('',#910,1.26870579629677);
#305=CIRCLE('',#914,0.864999999999999);
#306=CIRCLE('',#915,0.864999999999999);
#307=CIRCLE('',#917,0.864999999999999);
#308=CIRCLE('',#920,0.864999999999999);
#309=CIRCLE('',#923,0.370346134826523);
#310=CIRCLE('',#924,0.370346134826523);
#311=CIRCLE('',#926,2.35);
#312=CIRCLE('',#927,2.35);
#313=CIRCLE('',#930,4.1);
#314=CIRCLE('',#932,1.);
#315=CIRCLE('',#935,1.);
#316=CIRCLE('',#938,4.8);
#317=CIRCLE('',#939,4.8);
#318=CIRCLE('',#941,4.1);
#319=CIRCLE('',#944,6.35);
#320=CIRCLE('',#949,1.);
#321=CIRCLE('',#950,1.);
#322=CIRCLE('',#951,1.);
#323=CIRCLE('',#953,1.);
#324=CIRCLE('',#956,1.);
#325=CIRCLE('',#957,1.);
#326=CIRCLE('',#958,1.);
#327=CIRCLE('',#960,1.);
#328=CIRCLE('',#964,6.35);
#329=CIRCLE('',#966,6.35);
#330=VERTEX_POINT('',#1232);
#331=VERTEX_POINT('',#1234);
#332=VERTEX_POINT('',#1236);
#333=VERTEX_POINT('',#1240);
#334=VERTEX_POINT('',#1242);
#335=VERTEX_POINT('',#1246);
#336=VERTEX_POINT('',#1251);
#337=VERTEX_POINT('',#1253);
#338=VERTEX_POINT('',#1255);
#339=VERTEX_POINT('',#1259);
#340=VERTEX_POINT('',#1261);
#341=VERTEX_POINT('',#1265);
#342=VERTEX_POINT('',#1270);
#343=VERTEX_POINT('',#1271);
#344=VERTEX_POINT('',#1273);
#345=VERTEX_POINT('',#1275);
#346=VERTEX_POINT('',#1279);
#347=VERTEX_POINT('',#1281);
#348=VERTEX_POINT('',#1285);
#349=VERTEX_POINT('',#1287);
#350=VERTEX_POINT('',#1291);
#351=VERTEX_POINT('',#1293);
#352=VERTEX_POINT('',#1297);
#353=VERTEX_POINT('',#1299);
#354=VERTEX_POINT('',#1303);
#355=VERTEX_POINT('',#1305);
#356=VERTEX_POINT('',#1309);
#357=VERTEX_POINT('',#1310);
#358=VERTEX_POINT('',#1312);
#359=VERTEX_POINT('',#1314);
#360=VERTEX_POINT('',#1318);
#361=VERTEX_POINT('',#1320);
#362=VERTEX_POINT('',#1329);
#363=VERTEX_POINT('',#1331);
#364=VERTEX_POINT('',#1333);
#365=VERTEX_POINT('',#1335);
#366=VERTEX_POINT('',#1338);
#367=VERTEX_POINT('',#1340);
#368=VERTEX_POINT('',#1343);
#369=VERTEX_POINT('',#1348);
#370=VERTEX_POINT('',#1353);
#371=VERTEX_POINT('',#1355);
#372=VERTEX_POINT('',#1359);
#373=VERTEX_POINT('',#1361);
#374=VERTEX_POINT('',#1366);
#375=VERTEX_POINT('',#1369);
#376=VERTEX_POINT('',#1371);
#377=VERTEX_POINT('',#1373);
#378=VERTEX_POINT('',#1412);
#379=VERTEX_POINT('',#1415);
#380=VERTEX_POINT('',#1416);
#381=VERTEX_POINT('',#1455);
#382=VERTEX_POINT('',#1457);
#383=VERTEX_POINT('',#1461);
#384=VERTEX_POINT('',#1466);
#385=VERTEX_POINT('',#1469);
#386=VERTEX_POINT('',#1470);
#387=VERTEX_POINT('',#1475);
#388=VERTEX_POINT('',#1476);
#389=VERTEX_POINT('',#1478);
#390=VERTEX_POINT('',#1482);
#391=VERTEX_POINT('',#1483);
#392=VERTEX_POINT('',#1488);
#393=VERTEX_POINT('',#1489);
#394=VERTEX_POINT('',#1496);
#395=VERTEX_POINT('',#1503);
#396=VERTEX_POINT('',#1504);
#397=VERTEX_POINT('',#1506);
#398=VERTEX_POINT('',#1510);
#399=VERTEX_POINT('',#1511);
#400=VERTEX_POINT('',#1519);
#401=VERTEX_POINT('',#1520);
#402=EDGE_CURVE('',#330,#330,#283,.T.);
#403=EDGE_CURVE('',#330,#331,#173,.T.);
#404=EDGE_CURVE('',#331,#332,#284,.T.);
#405=EDGE_CURVE('',#332,#331,#285,.T.);
#406=EDGE_CURVE('',#332,#333,#286,.T.);
#407=EDGE_CURVE('',#333,#334,#287,.T.);
#408=EDGE_CURVE('',#334,#333,#288,.T.);
#409=EDGE_CURVE('',#334,#335,#174,.T.);
#410=EDGE_CURVE('',#335,#335,#289,.T.);
#411=EDGE_CURVE('',#336,#336,#290,.T.);
#412=EDGE_CURVE('',#336,#337,#175,.T.);
#413=EDGE_CURVE('',#337,#338,#291,.T.);
#414=EDGE_CURVE('',#338,#337,#292,.T.);
#415=EDGE_CURVE('',#338,#339,#293,.T.);
#416=EDGE_CURVE('',#339,#340,#294,.T.);
#417=EDGE_CURVE('',#340,#339,#295,.T.);
#418=EDGE_CURVE('',#340,#341,#176,.T.);
#419=EDGE_CURVE('',#341,#341,#296,.T.);
#420=EDGE_CURVE('',#342,#343,#297,.T.);
#421=EDGE_CURVE('',#342,#344,#177,.T.);
#422=EDGE_CURVE('',#344,#345,#298,.T.);
#423=EDGE_CURVE('',#343,#345,#178,.T.);
#424=EDGE_CURVE('',#346,#342,#179,.T.);
#425=EDGE_CURVE('',#346,#347,#180,.T.);
#426=EDGE_CURVE('',#347,#344,#181,.T.);
#427=EDGE_CURVE('',#348,#346,#299,.T.);
#428=EDGE_CURVE('',#348,#349,#182,.T.);
#429=EDGE_CURVE('',#349,#347,#300,.T.);
#430=EDGE_CURVE('',#350,#348,#183,.T.);
#431=EDGE_CURVE('',#350,#351,#184,.T.);
#432=EDGE_CURVE('',#351,#349,#185,.T.);
#433=EDGE_CURVE('',#352,#350,#301,.T.);
#434=EDGE_CURVE('',#352,#353,#186,.T.);
#435=EDGE_CURVE('',#353,#351,#302,.T.);
#436=EDGE_CURVE('',#354,#352,#187,.T.);
#437=EDGE_CURVE('',#355,#354,#188,.T.);
#438=EDGE_CURVE('',#355,#353,#189,.T.);
#439=EDGE_CURVE('',#356,#357,#190,.T.);
#440=EDGE_CURVE('',#356,#358,#191,.T.);
#441=EDGE_CURVE('',#358,#359,#192,.T.);
#442=EDGE_CURVE('',#357,#359,#193,.T.);
#443=EDGE_CURVE('',#360,#356,#303,.T.);
#444=EDGE_CURVE('',#360,#361,#194,.T.);
#445=EDGE_CURVE('',#361,#358,#304,.T.);
#446=EDGE_CURVE('',#343,#360,#195,.T.);
#447=EDGE_CURVE('',#345,#361,#196,.T.);
#448=EDGE_CURVE('',#359,#355,#197,.T.);
#449=EDGE_CURVE('',#354,#362,#198,.T.);
#450=EDGE_CURVE('',#362,#363,#199,.T.);
#451=EDGE_CURVE('',#364,#363,#200,.T.);
#452=EDGE_CURVE('',#365,#364,#201,.T.);
#453=EDGE_CURVE('',#365,#357,#202,.T.);
#454=EDGE_CURVE('',#366,#366,#305,.T.);
#455=EDGE_CURVE('',#367,#367,#306,.T.);
#456=EDGE_CURVE('',#368,#368,#307,.T.);
#457=EDGE_CURVE('',#368,#367,#203,.T.);
#458=EDGE_CURVE('',#369,#369,#308,.T.);
#459=EDGE_CURVE('',#369,#366,#204,.T.);
#460=EDGE_CURVE('',#370,#370,#309,.T.);
#461=EDGE_CURVE('',#370,#371,#205,.T.);
#462=EDGE_CURVE('',#371,#371,#310,.T.);
#463=EDGE_CURVE('',#372,#372,#311,.T.);
#464=EDGE_CURVE('',#372,#373,#206,.T.);
#465=EDGE_CURVE('',#373,#373,#312,.T.);
#466=EDGE_CURVE('',#374,#374,#313,.T.);
#467=EDGE_CURVE('',#375,#375,#314,.T.);
#468=EDGE_CURVE('',#375,#376,#207,.T.);
#469=EDGE_CURVE('',#377,#376,#18,.T.);
#470=EDGE_CURVE('',#376,#377,#19,.T.);
#471=EDGE_CURVE('',#378,#378,#315,.T.);
#472=EDGE_CURVE('',#379,#380,#20,.T.);
#473=EDGE_CURVE('',#380,#379,#21,.T.);
#474=EDGE_CURVE('',#380,#378,#208,.T.);
#475=EDGE_CURVE('',#381,#381,#316,.T.);
#476=EDGE_CURVE('',#381,#382,#209,.T.);
#477=EDGE_CURVE('',#382,#382,#317,.T.);
#478=EDGE_CURVE('',#383,#383,#318,.T.);
#479=EDGE_CURVE('',#383,#374,#210,.T.);
#480=EDGE_CURVE('',#384,#384,#319,.T.);
#481=EDGE_CURVE('',#385,#386,#211,.T.);
#482=EDGE_CURVE('',#386,#364,#16,.T.);
#483=EDGE_CURVE('',#385,#363,#17,.T.);
#484=EDGE_CURVE('',#387,#388,#320,.F.);
#485=EDGE_CURVE('',#389,#387,#321,.F.);
#486=EDGE_CURVE('',#388,#389,#322,.F.);
#487=EDGE_CURVE('',#390,#391,#323,.T.);
#488=EDGE_CURVE('',#391,#389,#212,.T.);
#489=EDGE_CURVE('',#387,#390,#213,.T.);
#490=EDGE_CURVE('',#392,#393,#22,.T.);
#491=EDGE_CURVE('',#392,#388,#214,.T.);
#492=EDGE_CURVE('',#389,#364,#215,.T.);
#493=EDGE_CURVE('',#386,#394,#216,.T.);
#494=EDGE_CURVE('',#393,#394,#23,.T.);
#495=EDGE_CURVE('',#395,#396,#324,.F.);
#496=EDGE_CURVE('',#397,#395,#325,.F.);
#497=EDGE_CURVE('',#396,#397,#326,.F.);
#498=EDGE_CURVE('',#398,#399,#327,.T.);
#499=EDGE_CURVE('',#399,#397,#217,.T.);
#500=EDGE_CURVE('',#395,#398,#218,.T.);
#501=EDGE_CURVE('',#388,#396,#219,.T.);
#502=EDGE_CURVE('',#397,#387,#220,.T.);
#503=EDGE_CURVE('',#400,#401,#24,.T.);
#504=EDGE_CURVE('',#400,#385,#221,.T.);
#505=EDGE_CURVE('',#363,#395,#222,.T.);
#506=EDGE_CURVE('',#396,#401,#223,.T.);
#507=EDGE_CURVE('',#400,#394,#328,.T.);
#508=EDGE_CURVE('',#392,#401,#329,.T.);
#509=EDGE_CURVE('',#399,#390,#224,.T.);
#510=EDGE_CURVE('',#384,#393,#225,.T.);
#511=EDGE_CURVE('',#391,#365,#226,.T.);
#512=EDGE_CURVE('',#362,#398,#227,.T.);
#513=ORIENTED_EDGE('',*,*,#402,.F.);
#514=ORIENTED_EDGE('',*,*,#403,.T.);
#515=ORIENTED_EDGE('',*,*,#404,.T.);
#516=ORIENTED_EDGE('',*,*,#405,.T.);
#517=ORIENTED_EDGE('',*,*,#403,.F.);
#518=ORIENTED_EDGE('',*,*,#405,.F.);
#519=ORIENTED_EDGE('',*,*,#406,.T.);
#520=ORIENTED_EDGE('',*,*,#407,.T.);
#521=ORIENTED_EDGE('',*,*,#408,.T.);
#522=ORIENTED_EDGE('',*,*,#406,.F.);
#523=ORIENTED_EDGE('',*,*,#404,.F.);
#524=ORIENTED_EDGE('',*,*,#407,.F.);
#525=ORIENTED_EDGE('',*,*,#408,.F.);
#526=ORIENTED_EDGE('',*,*,#409,.T.);
#527=ORIENTED_EDGE('',*,*,#410,.F.);
#528=ORIENTED_EDGE('',*,*,#409,.F.);
#529=ORIENTED_EDGE('',*,*,#402,.T.);
#530=ORIENTED_EDGE('',*,*,#411,.F.);
#531=ORIENTED_EDGE('',*,*,#412,.T.);
#532=ORIENTED_EDGE('',*,*,#413,.T.);
#533=ORIENTED_EDGE('',*,*,#414,.T.);
#534=ORIENTED_EDGE('',*,*,#412,.F.);
#535=ORIENTED_EDGE('',*,*,#414,.F.);
#536=ORIENTED_EDGE('',*,*,#415,.T.);
#537=ORIENTED_EDGE('',*,*,#416,.T.);
#538=ORIENTED_EDGE('',*,*,#417,.T.);
#539=ORIENTED_EDGE('',*,*,#415,.F.);
#540=ORIENTED_EDGE('',*,*,#413,.F.);
#541=ORIENTED_EDGE('',*,*,#416,.F.);
#542=ORIENTED_EDGE('',*,*,#417,.F.);
#543=ORIENTED_EDGE('',*,*,#418,.T.);
#544=ORIENTED_EDGE('',*,*,#419,.F.);
#545=ORIENTED_EDGE('',*,*,#418,.F.);
#546=ORIENTED_EDGE('',*,*,#411,.T.);
#547=ORIENTED_EDGE('',*,*,#420,.F.);
#548=ORIENTED_EDGE('',*,*,#421,.T.);
#549=ORIENTED_EDGE('',*,*,#422,.T.);
#550=ORIENTED_EDGE('',*,*,#423,.F.);
#551=ORIENTED_EDGE('',*,*,#424,.F.);
#552=ORIENTED_EDGE('',*,*,#425,.T.);
#553=ORIENTED_EDGE('',*,*,#426,.T.);
#554=ORIENTED_EDGE('',*,*,#421,.F.);
#555=ORIENTED_EDGE('',*,*,#427,.F.);
#556=ORIENTED_EDGE('',*,*,#428,.T.);
#557=ORIENTED_EDGE('',*,*,#429,.T.);
#558=ORIENTED_EDGE('',*,*,#425,.F.);
#559=ORIENTED_EDGE('',*,*,#430,.F.);
#560=ORIENTED_EDGE('',*,*,#431,.T.);
#561=ORIENTED_EDGE('',*,*,#432,.T.);
#562=ORIENTED_EDGE('',*,*,#428,.F.);
#563=ORIENTED_EDGE('',*,*,#433,.F.);
#564=ORIENTED_EDGE('',*,*,#434,.T.);
#565=ORIENTED_EDGE('',*,*,#435,.T.);
#566=ORIENTED_EDGE('',*,*,#431,.F.);
#567=ORIENTED_EDGE('',*,*,#436,.F.);
#568=ORIENTED_EDGE('',*,*,#437,.F.);
#569=ORIENTED_EDGE('',*,*,#438,.T.);
#570=ORIENTED_EDGE('',*,*,#434,.F.);
#571=ORIENTED_EDGE('',*,*,#439,.F.);
#572=ORIENTED_EDGE('',*,*,#440,.T.);
#573=ORIENTED_EDGE('',*,*,#441,.T.);
#574=ORIENTED_EDGE('',*,*,#442,.F.);
#575=ORIENTED_EDGE('',*,*,#443,.F.);
#576=ORIENTED_EDGE('',*,*,#444,.T.);
#577=ORIENTED_EDGE('',*,*,#445,.T.);
#578=ORIENTED_EDGE('',*,*,#440,.F.);
#579=ORIENTED_EDGE('',*,*,#446,.F.);
#580=ORIENTED_EDGE('',*,*,#423,.T.);
#581=ORIENTED_EDGE('',*,*,#447,.T.);
#582=ORIENTED_EDGE('',*,*,#444,.F.);
#583=ORIENTED_EDGE('',*,*,#447,.F.);
#584=ORIENTED_EDGE('',*,*,#422,.F.);
#585=ORIENTED_EDGE('',*,*,#426,.F.);
#586=ORIENTED_EDGE('',*,*,#429,.F.);
#587=ORIENTED_EDGE('',*,*,#432,.F.);
#588=ORIENTED_EDGE('',*,*,#435,.F.);
#589=ORIENTED_EDGE('',*,*,#438,.F.);
#590=ORIENTED_EDGE('',*,*,#448,.F.);
#591=ORIENTED_EDGE('',*,*,#441,.F.);
#592=ORIENTED_EDGE('',*,*,#445,.F.);
#593=ORIENTED_EDGE('',*,*,#410,.T.);
#594=ORIENTED_EDGE('',*,*,#419,.T.);
#595=ORIENTED_EDGE('',*,*,#442,.T.);
#596=ORIENTED_EDGE('',*,*,#448,.T.);
#597=ORIENTED_EDGE('',*,*,#437,.T.);
#598=ORIENTED_EDGE('',*,*,#449,.T.);
#599=ORIENTED_EDGE('',*,*,#450,.T.);
#600=ORIENTED_EDGE('',*,*,#451,.F.);
#601=ORIENTED_EDGE('',*,*,#452,.F.);
#602=ORIENTED_EDGE('',*,*,#453,.T.);
#603=ORIENTED_EDGE('',*,*,#454,.T.);
#604=ORIENTED_EDGE('',*,*,#455,.T.);
#605=ORIENTED_EDGE('',*,*,#456,.F.);
#606=ORIENTED_EDGE('',*,*,#457,.T.);
#607=ORIENTED_EDGE('',*,*,#455,.F.);
#608=ORIENTED_EDGE('',*,*,#457,.F.);
#609=ORIENTED_EDGE('',*,*,#456,.T.);
#610=ORIENTED_EDGE('',*,*,#458,.F.);
#611=ORIENTED_EDGE('',*,*,#459,.T.);
#612=ORIENTED_EDGE('',*,*,#454,.F.);
#613=ORIENTED_EDGE('',*,*,#459,.F.);
#614=ORIENTED_EDGE('',*,*,#458,.T.);
#615=ORIENTED_EDGE('',*,*,#460,.F.);
#616=ORIENTED_EDGE('',*,*,#461,.T.);
#617=ORIENTED_EDGE('',*,*,#462,.F.);
#618=ORIENTED_EDGE('',*,*,#461,.F.);
#619=ORIENTED_EDGE('',*,*,#463,.F.);
#620=ORIENTED_EDGE('',*,*,#464,.T.);
#621=ORIENTED_EDGE('',*,*,#465,.F.);
#622=ORIENTED_EDGE('',*,*,#464,.F.);
#623=ORIENTED_EDGE('',*,*,#463,.T.);
#624=ORIENTED_EDGE('',*,*,#460,.T.);
#625=ORIENTED_EDGE('',*,*,#466,.T.);
#626=ORIENTED_EDGE('',*,*,#465,.T.);
#627=ORIENTED_EDGE('',*,*,#467,.F.);
#628=ORIENTED_EDGE('',*,*,#468,.T.);
#629=ORIENTED_EDGE('',*,*,#469,.F.);
#630=ORIENTED_EDGE('',*,*,#470,.F.);
#631=ORIENTED_EDGE('',*,*,#468,.F.);
#632=ORIENTED_EDGE('',*,*,#467,.T.);
#633=ORIENTED_EDGE('',*,*,#471,.F.);
#634=ORIENTED_EDGE('',*,*,#472,.F.);
#635=ORIENTED_EDGE('',*,*,#473,.F.);
#636=ORIENTED_EDGE('',*,*,#474,.T.);
#637=ORIENTED_EDGE('',*,*,#471,.T.);
#638=ORIENTED_EDGE('',*,*,#474,.F.);
#639=ORIENTED_EDGE('',*,*,#475,.F.);
#640=ORIENTED_EDGE('',*,*,#476,.T.);
#641=ORIENTED_EDGE('',*,*,#477,.F.);
#642=ORIENTED_EDGE('',*,*,#476,.F.);
#643=ORIENTED_EDGE('',*,*,#470,.T.);
#644=ORIENTED_EDGE('',*,*,#469,.T.);
#645=ORIENTED_EDGE('',*,*,#472,.T.);
#646=ORIENTED_EDGE('',*,*,#473,.T.);
#647=ORIENTED_EDGE('',*,*,#478,.F.);
#648=ORIENTED_EDGE('',*,*,#479,.T.);
#649=ORIENTED_EDGE('',*,*,#466,.F.);
#650=ORIENTED_EDGE('',*,*,#479,.F.);
#651=ORIENTED_EDGE('',*,*,#475,.T.);
#652=ORIENTED_EDGE('',*,*,#478,.T.);
#653=ORIENTED_EDGE('',*,*,#480,.T.);
#654=ORIENTED_EDGE('',*,*,#477,.T.);
#655=ORIENTED_EDGE('',*,*,#481,.T.);
#656=ORIENTED_EDGE('',*,*,#482,.T.);
#657=ORIENTED_EDGE('',*,*,#451,.T.);
#658=ORIENTED_EDGE('',*,*,#483,.F.);
#659=ORIENTED_EDGE('',*,*,#484,.F.);
#660=ORIENTED_EDGE('',*,*,#485,.F.);
#661=ORIENTED_EDGE('',*,*,#486,.F.);
#662=ORIENTED_EDGE('',*,*,#487,.T.);
#663=ORIENTED_EDGE('',*,*,#488,.T.);
#664=ORIENTED_EDGE('',*,*,#485,.T.);
#665=ORIENTED_EDGE('',*,*,#489,.T.);
#666=ORIENTED_EDGE('',*,*,#490,.F.);
#667=ORIENTED_EDGE('',*,*,#491,.T.);
#668=ORIENTED_EDGE('',*,*,#486,.T.);
#669=ORIENTED_EDGE('',*,*,#492,.T.);
#670=ORIENTED_EDGE('',*,*,#482,.F.);
#671=ORIENTED_EDGE('',*,*,#493,.T.);
#672=ORIENTED_EDGE('',*,*,#494,.F.);
#673=ORIENTED_EDGE('',*,*,#495,.F.);
#674=ORIENTED_EDGE('',*,*,#496,.F.);
#675=ORIENTED_EDGE('',*,*,#497,.F.);
#676=ORIENTED_EDGE('',*,*,#498,.T.);
#677=ORIENTED_EDGE('',*,*,#499,.T.);
#678=ORIENTED_EDGE('',*,*,#496,.T.);
#679=ORIENTED_EDGE('',*,*,#500,.T.);
#680=ORIENTED_EDGE('',*,*,#484,.T.);
#681=ORIENTED_EDGE('',*,*,#501,.T.);
#682=ORIENTED_EDGE('',*,*,#497,.T.);
#683=ORIENTED_EDGE('',*,*,#502,.T.);
#684=ORIENTED_EDGE('',*,*,#503,.F.);
#685=ORIENTED_EDGE('',*,*,#504,.T.);
#686=ORIENTED_EDGE('',*,*,#483,.T.);
#687=ORIENTED_EDGE('',*,*,#505,.T.);
#688=ORIENTED_EDGE('',*,*,#495,.T.);
#689=ORIENTED_EDGE('',*,*,#506,.T.);
#690=ORIENTED_EDGE('',*,*,#493,.F.);
#691=ORIENTED_EDGE('',*,*,#481,.F.);
#692=ORIENTED_EDGE('',*,*,#504,.F.);
#693=ORIENTED_EDGE('',*,*,#507,.T.);
#694=ORIENTED_EDGE('',*,*,#506,.F.);
#695=ORIENTED_EDGE('',*,*,#501,.F.);
#696=ORIENTED_EDGE('',*,*,#491,.F.);
#697=ORIENTED_EDGE('',*,*,#508,.T.);
#698=ORIENTED_EDGE('',*,*,#489,.F.);
#699=ORIENTED_EDGE('',*,*,#502,.F.);
#700=ORIENTED_EDGE('',*,*,#499,.F.);
#701=ORIENTED_EDGE('',*,*,#509,.T.);
#702=ORIENTED_EDGE('',*,*,#480,.F.);
#703=ORIENTED_EDGE('',*,*,#510,.T.);
#704=ORIENTED_EDGE('',*,*,#494,.T.);
#705=ORIENTED_EDGE('',*,*,#507,.F.);
#706=ORIENTED_EDGE('',*,*,#503,.T.);
#707=ORIENTED_EDGE('',*,*,#508,.F.);
#708=ORIENTED_EDGE('',*,*,#490,.T.);
#709=ORIENTED_EDGE('',*,*,#510,.F.);
#710=ORIENTED_EDGE('',*,*,#462,.T.);
#711=ORIENTED_EDGE('',*,*,#488,.F.);
#712=ORIENTED_EDGE('',*,*,#511,.T.);
#713=ORIENTED_EDGE('',*,*,#452,.T.);
#714=ORIENTED_EDGE('',*,*,#492,.F.);
#715=ORIENTED_EDGE('',*,*,#505,.F.);
#716=ORIENTED_EDGE('',*,*,#450,.F.);
#717=ORIENTED_EDGE('',*,*,#512,.T.);
#718=ORIENTED_EDGE('',*,*,#500,.F.);
#719=ORIENTED_EDGE('',*,*,#439,.T.);
#720=ORIENTED_EDGE('',*,*,#453,.F.);
#721=ORIENTED_EDGE('',*,*,#511,.F.);
#722=ORIENTED_EDGE('',*,*,#487,.F.);
#723=ORIENTED_EDGE('',*,*,#509,.F.);
#724=ORIENTED_EDGE('',*,*,#498,.F.);
#725=ORIENTED_EDGE('',*,*,#512,.F.);
#726=ORIENTED_EDGE('',*,*,#449,.F.);
#727=ORIENTED_EDGE('',*,*,#436,.T.);
#728=ORIENTED_EDGE('',*,*,#433,.T.);
#729=ORIENTED_EDGE('',*,*,#430,.T.);
#730=ORIENTED_EDGE('',*,*,#427,.T.);
#731=ORIENTED_EDGE('',*,*,#424,.T.);
#732=ORIENTED_EDGE('',*,*,#420,.T.);
#733=ORIENTED_EDGE('',*,*,#446,.T.);
#734=ORIENTED_EDGE('',*,*,#443,.T.);
#735=CYLINDRICAL_SURFACE('',#873,0.38);
#736=CYLINDRICAL_SURFACE('',#881,0.38);
#737=CYLINDRICAL_SURFACE('',#884,0.36);
#738=CYLINDRICAL_SURFACE('',#892,0.36);
#739=CYLINDRICAL_SURFACE('',#895,2.25904453114529);
#740=CYLINDRICAL_SURFACE('',#899,2.32691353531702);
#741=CYLINDRICAL_SURFACE('',#903,1.1274487393369);
#742=CYLINDRICAL_SURFACE('',#908,1.26870579629677);
#743=CYLINDRICAL_SURFACE('',#916,0.864999999999999);
#744=CYLINDRICAL_SURFACE('',#919,0.864999999999999);
#745=CYLINDRICAL_SURFACE('',#922,0.370346134826523);
#746=CYLINDRICAL_SURFACE('',#925,2.35);
#747=CYLINDRICAL_SURFACE('',#931,1.);
#748=CYLINDRICAL_SURFACE('',#936,1.);
#749=CYLINDRICAL_SURFACE('',#937,4.8);
#750=CYLINDRICAL_SURFACE('',#940,4.1);
#751=CYLINDRICAL_SURFACE('',#945,1.);
#752=CYLINDRICAL_SURFACE('',#952,1.);
#753=CYLINDRICAL_SURFACE('',#954,1.);
#754=CYLINDRICAL_SURFACE('',#959,1.);
#755=CYLINDRICAL_SURFACE('',#961,1.);
#756=CYLINDRICAL_SURFACE('',#962,1.);
#757=CYLINDRICAL_SURFACE('',#968,6.35);
#758=STYLED_ITEM('',(#1564),#799);
#759=STYLED_ITEM('',(#1564),#800);
#760=STYLED_ITEM('',(#1564),#801);
#761=STYLED_ITEM('',(#1564),#802);
#762=STYLED_ITEM('',(#1564),#803);
#763=STYLED_ITEM('',(#1564),#804);
#764=STYLED_ITEM('',(#1564),#805);
#765=STYLED_ITEM('',(#1564),#806);
#766=STYLED_ITEM('',(#1565),#816);
#767=STYLED_ITEM('',(#1565),#817);
#768=STYLED_ITEM('',(#1564),#818);
#769=STYLED_ITEM('',(#1564),#819);
#770=STYLED_ITEM('',(#1564),#820);
#771=STYLED_ITEM('',(#1564),#821);
#772=STYLED_ITEM('',(#1566),#822);
#773=STYLED_ITEM('',(#1567),#823);
#774=STYLED_ITEM('',(#1567),#824);
#775=STYLED_ITEM('',(#1568),#825);
#776=STYLED_ITEM('',(#1565),#826);
#777=STYLED_ITEM('',(#1565),#827);
#778=STYLED_ITEM('',(#1565),#828);
#779=STYLED_ITEM('',(#1565),#829);
#780=STYLED_ITEM('',(#1565),#830);
#781=STYLED_ITEM('',(#1568),#831);
#782=STYLED_ITEM('',(#1565),#834);
#783=STYLED_ITEM('',(#1565),#835);
#784=STYLED_ITEM('',(#1565),#836);
#785=STYLED_ITEM('',(#1565),#837);
#786=STYLED_ITEM('',(#1565),#838);
#787=STYLED_ITEM('',(#1565),#839);
#788=STYLED_ITEM('',(#1565),#840);
#789=STYLED_ITEM('',(#1565),#841);
#790=STYLED_ITEM('',(#1565),#842);
#791=STYLED_ITEM('',(#1565),#843);
#792=STYLED_ITEM('',(#1565),#844);
#793=STYLED_ITEM('',(#1565),#845);
#794=STYLED_ITEM('',(#1569),#846);
#795=STYLED_ITEM('',(#1565),#847);
#796=STYLED_ITEM('',(#1565),#848);
#797=STYLED_ITEM('',(#1565),#849);
#798=STYLED_ITEM('',(#1563),#13);
#799=ADVANCED_FACE('',(#61),#735,.T.);
#800=ADVANCED_FACE('',(#62),#59,.T.);
#801=ADVANCED_FACE('',(#63),#736,.T.);
#802=ADVANCED_FACE('',(#64),#35,.T.);
#803=ADVANCED_FACE('',(#65),#737,.T.);
#804=ADVANCED_FACE('',(#66),#60,.T.);
#805=ADVANCED_FACE('',(#67),#738,.T.);
#806=ADVANCED_FACE('',(#68),#36,.T.);
#807=ADVANCED_FACE('',(#69),#739,.T.);
#808=ADVANCED_FACE('',(#70),#37,.F.);
#809=ADVANCED_FACE('',(#71),#740,.T.);
#810=ADVANCED_FACE('',(#72),#38,.F.);
#811=ADVANCED_FACE('',(#73),#741,.T.);
#812=ADVANCED_FACE('',(#74),#39,.F.);
#813=ADVANCED_FACE('',(#75),#40,.F.);
#814=ADVANCED_FACE('',(#76),#742,.T.);
#815=ADVANCED_FACE('',(#77),#41,.F.);
#816=ADVANCED_FACE('',(#78,#25,#26),#42,.T.);
#817=ADVANCED_FACE('',(#79,#27,#28),#43,.T.);
#818=ADVANCED_FACE('',(#80),#743,.T.);
#819=ADVANCED_FACE('',(#81),#44,.T.);
#820=ADVANCED_FACE('',(#82),#744,.T.);
#821=ADVANCED_FACE('',(#83),#45,.T.);
#822=ADVANCED_FACE('',(#84),#745,.F.);
#823=ADVANCED_FACE('',(#85),#746,.T.);
#824=ADVANCED_FACE('',(#86,#29),#46,.T.);
#825=ADVANCED_FACE('',(#87,#30),#47,.T.);
#826=ADVANCED_FACE('',(#88),#747,.T.);
#827=ADVANCED_FACE('',(#89),#48,.T.);
#828=ADVANCED_FACE('',(#90),#49,.T.);
#829=ADVANCED_FACE('',(#91),#748,.T.);
#830=ADVANCED_FACE('',(#92,#31,#32),#749,.T.);
#831=ADVANCED_FACE('',(#93),#750,.F.);
#832=ADVANCED_FACE('',(#94,#33),#50,.T.);
#833=ADVANCED_FACE('',(#95,#34),#51,.T.);
#834=ADVANCED_FACE('',(#96),#751,.T.);
#835=ADVANCED_FACE('',(#97),#14,.T.);
#836=ADVANCED_FACE('',(#98),#752,.T.);
#837=ADVANCED_FACE('',(#99),#753,.T.);
#838=ADVANCED_FACE('',(#100),#15,.T.);
#839=ADVANCED_FACE('',(#101),#754,.T.);
#840=ADVANCED_FACE('',(#102),#755,.T.);
#841=ADVANCED_FACE('',(#103),#756,.T.);
#842=ADVANCED_FACE('',(#104),#52,.T.);
#843=ADVANCED_FACE('',(#105),#53,.T.);
#844=ADVANCED_FACE('',(#106),#54,.T.);
#845=ADVANCED_FACE('',(#107),#757,.T.);
#846=ADVANCED_FACE('',(#108),#55,.T.);
#847=ADVANCED_FACE('',(#109),#56,.T.);
#848=ADVANCED_FACE('',(#110),#57,.T.);
#849=ADVANCED_FACE('',(#111),#58,.F.);
#850=CLOSED_SHELL('',(#799,#800,#801,#802,#803,#804,#805,#806,#807,#808,
#809,#810,#811,#812,#813,#814,#815,#816,#817,#818,#819,#820,#821,#822,#823,
#824,#825,#826,#827,#828,#829,#830,#831,#832,#833,#834,#835,#836,#837,#838,
#839,#840,#841,#842,#843,#844,#845,#846,#847,#848,#849));
#851=DERIVED_UNIT_ELEMENT(#854,1.);
#852=DERIVED_UNIT_ELEMENT(#1549,-3.);
#853=DIMENSIONAL_EXPONENTS(0.,1.,0.,0.,0.,0.,0.);
#854=(
CONVERSION_BASED_UNIT('gram',#856)
MASS_UNIT()
NAMED_UNIT(#853)
);
#855=(
MASS_UNIT()
NAMED_UNIT(*)
SI_UNIT(.KILO.,.GRAM.)
);
#856=MASS_MEASURE_WITH_UNIT(MASS_MEASURE(0.001),#855);
#857=DERIVED_UNIT((#851,#852));
#858=MEASURE_REPRESENTATION_ITEM('density measure',
POSITIVE_RATIO_MEASURE(1.),#857);
#859=PROPERTY_DEFINITION_REPRESENTATION(#864,#861);
#860=PROPERTY_DEFINITION_REPRESENTATION(#865,#862);
#861=REPRESENTATION('material name',(#863),#1546);
#862=REPRESENTATION('density',(#858),#1546);
#863=DESCRIPTIVE_REPRESENTATION_ITEM('Generic','Generic');
#864=PROPERTY_DEFINITION('material property','material name',#1556);
#865=PROPERTY_DEFINITION('material property','density of part',#1556);
#866=DATE_TIME_ROLE('creation_date');
#867=APPLIED_DATE_AND_TIME_ASSIGNMENT(#868,#866,(#1556));
#868=DATE_AND_TIME(#869,#870);
#869=CALENDAR_DATE(2026,22,7);
#870=LOCAL_TIME(0,0,0.,#871);
#871=COORDINATED_UNIVERSAL_TIME_OFFSET(0,0,.BEHIND.);
#872=AXIS2_PLACEMENT_3D('',#1230,#973,#974);
#873=AXIS2_PLACEMENT_3D('',#1231,#975,#976);
#874=AXIS2_PLACEMENT_3D('',#1233,#977,#978);
#875=AXIS2_PLACEMENT_3D('',#1237,#980,#981);
#876=AXIS2_PLACEMENT_3D('',#1238,#982,#983);
#877=AXIS2_PLACEMENT_3D('',#1239,#984,#985);
#878=AXIS2_PLACEMENT_3D('',#1241,#986,#987);
#879=AXIS2_PLACEMENT_3D('',#1243,#988,#989);
#880=AXIS2_PLACEMENT_3D('',#1244,#990,#991);
#881=AXIS2_PLACEMENT_3D('',#1245,#992,#993);
#882=AXIS2_PLACEMENT_3D('',#1248,#995,#996);
#883=AXIS2_PLACEMENT_3D('',#1249,#997,#998);
#884=AXIS2_PLACEMENT_3D('',#1250,#999,#1000);
#885=AXIS2_PLACEMENT_3D('',#1252,#1001,#1002);
#886=AXIS2_PLACEMENT_3D('',#1256,#1004,#1005);
#887=AXIS2_PLACEMENT_3D('',#1257,#1006,#1007);
#888=AXIS2_PLACEMENT_3D('',#1258,#1008,#1009);
#889=AXIS2_PLACEMENT_3D('',#1260,#1010,#1011);
#890=AXIS2_PLACEMENT_3D('',#1262,#1012,#1013);
#891=AXIS2_PLACEMENT_3D('',#1263,#1014,#1015);
#892=AXIS2_PLACEMENT_3D('',#1264,#1016,#1017);
#893=AXIS2_PLACEMENT_3D('',#1267,#1019,#1020);
#894=AXIS2_PLACEMENT_3D('',#1268,#1021,#1022);
#895=AXIS2_PLACEMENT_3D('',#1269,#1023,#1024);
#896=AXIS2_PLACEMENT_3D('',#1272,#1025,#1026);
#897=AXIS2_PLACEMENT_3D('',#1276,#1028,#1029);
#898=AXIS2_PLACEMENT_3D('',#1278,#1031,#1032);
#899=AXIS2_PLACEMENT_3D('',#1284,#1036,#1037);
#900=AXIS2_PLACEMENT_3D('',#1286,#1038,#1039);
#901=AXIS2_PLACEMENT_3D('',#1289,#1041,#1042);
#902=AXIS2_PLACEMENT_3D('',#1290,#1043,#1044);
#903=AXIS2_PLACEMENT_3D('',#1296,#1048,#1049);
#904=AXIS2_PLACEMENT_3D('',#1298,#1050,#1051);
#905=AXIS2_PLACEMENT_3D('',#1301,#1053,#1054);
#906=AXIS2_PLACEMENT_3D('',#1302,#1055,#1056);
#907=AXIS2_PLACEMENT_3D('',#1308,#1060,#1061);
#908=AXIS2_PLACEMENT_3D('',#1317,#1066,#1067);
#909=AXIS2_PLACEMENT_3D('',#1319,#1068,#1069);
#910=AXIS2_PLACEMENT_3D('',#1322,#1071,#1072);
#911=AXIS2_PLACEMENT_3D('',#1323,#1073,#1074);
#912=AXIS2_PLACEMENT_3D('',#1326,#1077,#1078);
#913=AXIS2_PLACEMENT_3D('',#1328,#1080,#1081);
#914=AXIS2_PLACEMENT_3D('',#1339,#1087,#1088);
#915=AXIS2_PLACEMENT_3D('',#1341,#1089,#1090);
#916=AXIS2_PLACEMENT_3D('',#1342,#1091,#1092);
#917=AXIS2_PLACEMENT_3D('',#1344,#1093,#1094);
#918=AXIS2_PLACEMENT_3D('',#1346,#1096,#1097);
#919=AXIS2_PLACEMENT_3D('',#1347,#1098,#1099);
#920=AXIS2_PLACEMENT_3D('',#1349,#1100,#1101);
#921=AXIS2_PLACEMENT_3D('',#1351,#1103,#1104);
#922=AXIS2_PLACEMENT_3D('',#1352,#1105,#1106);
#923=AXIS2_PLACEMENT_3D('',#1354,#1107,#1108);
#924=AXIS2_PLACEMENT_3D('',#1357,#1110,#1111);
#925=AXIS2_PLACEMENT_3D('',#1358,#1112,#1113);
#926=AXIS2_PLACEMENT_3D('',#1360,#1114,#1115);
#927=AXIS2_PLACEMENT_3D('',#1363,#1117,#1118);
#928=AXIS2_PLACEMENT_3D('',#1364,#1119,#1120);
#929=AXIS2_PLACEMENT_3D('',#1365,#1121,#1122);
#930=AXIS2_PLACEMENT_3D('',#1367,#1123,#1124);
#931=AXIS2_PLACEMENT_3D('',#1368,#1125,#1126);
#932=AXIS2_PLACEMENT_3D('',#1370,#1127,#1128);
#933=AXIS2_PLACEMENT_3D('',#1410,#1130,#1131);
#934=AXIS2_PLACEMENT_3D('',#1411,#1132,#1133);
#935=AXIS2_PLACEMENT_3D('',#1413,#1134,#1135);
#936=AXIS2_PLACEMENT_3D('',#1414,#1136,#1137);
#937=AXIS2_PLACEMENT_3D('',#1454,#1139,#1140);
#938=AXIS2_PLACEMENT_3D('',#1456,#1141,#1142);
#939=AXIS2_PLACEMENT_3D('',#1459,#1144,#1145);
#940=AXIS2_PLACEMENT_3D('',#1460,#1146,#1147);
#941=AXIS2_PLACEMENT_3D('',#1462,#1148,#1149);
#942=AXIS2_PLACEMENT_3D('',#1464,#1151,#1152);
#943=AXIS2_PLACEMENT_3D('',#1465,#1153,#1154);
#944=AXIS2_PLACEMENT_3D('',#1467,#1155,#1156);
#945=AXIS2_PLACEMENT_3D('',#1468,#1157,#1158);
#946=AXIS2_PLACEMENT_3D('',#1472,#1160,#1161);
#947=AXIS2_PLACEMENT_3D('',#1473,#1162,#1163);
#948=AXIS2_PLACEMENT_3D('',#1474,#1164,#1165);
#949=AXIS2_PLACEMENT_3D('',#1477,#1166,#1167);
#950=AXIS2_PLACEMENT_3D('',#1479,#1168,#1169);
#951=AXIS2_PLACEMENT_3D('',#1480,#1170,#1171);
#952=AXIS2_PLACEMENT_3D('',#1481,#1172,#1173);
#953=AXIS2_PLACEMENT_3D('',#1484,#1174,#1175);
#954=AXIS2_PLACEMENT_3D('',#1487,#1178,#1179);
#955=AXIS2_PLACEMENT_3D('',#1502,#1183,#1184);
#956=AXIS2_PLACEMENT_3D('',#1505,#1185,#1186);
#957=AXIS2_PLACEMENT_3D('',#1507,#1187,#1188);
#958=AXIS2_PLACEMENT_3D('',#1508,#1189,#1190);
#959=AXIS2_PLACEMENT_3D('',#1509,#1191,#1192);
#960=AXIS2_PLACEMENT_3D('',#1512,#1193,#1194);
#961=AXIS2_PLACEMENT_3D('',#1515,#1197,#1198);
#962=AXIS2_PLACEMENT_3D('',#1518,#1201,#1202);
#963=AXIS2_PLACEMENT_3D('',#1530,#1206,#1207);
#964=AXIS2_PLACEMENT_3D('',#1531,#1208,#1209);
#965=AXIS2_PLACEMENT_3D('',#1532,#1210,#1211);
#966=AXIS2_PLACEMENT_3D('',#1533,#1212,#1213);
#967=AXIS2_PLACEMENT_3D('',#1534,#1214,#1215);
#968=AXIS2_PLACEMENT_3D('',#1536,#1217,#1218);
#969=AXIS2_PLACEMENT_3D('',#1538,#1220,#1221);
#970=AXIS2_PLACEMENT_3D('',#1539,#1222,#1223);
#971=AXIS2_PLACEMENT_3D('',#1541,#1225,#1226);
#972=AXIS2_PLACEMENT_3D('',#1543,#1228,#1229);
#973=DIRECTION('axis',(0.,0.,1.));
#974=DIRECTION('refdir',(1.,0.,0.));
#975=DIRECTION('center_axis',(-1.42336285208353E-16,-1.,0.));
#976=DIRECTION('ref_axis',(-1.,1.42336285208353E-16,1.42336285208353E-16));
#977=DIRECTION('center_axis',(-1.42336285208353E-16,-1.,-9.49410759657493E-16));
#978=DIRECTION('ref_axis',(-1.,1.42336285208353E-16,1.42336285208353E-16));
#979=DIRECTION('',(1.42336285208353E-16,1.,0.));
#980=DIRECTION('center_axis',(-1.42336285208353E-16,-1.,-9.49410759657493E-16));
#981=DIRECTION('ref_axis',(-1.,1.42336285208353E-16,1.42336285208353E-16));
#982=DIRECTION('center_axis',(-1.42336285208353E-16,-1.,-9.49410759657493E-16));
#983=DIRECTION('ref_axis',(-1.,1.42336285208353E-16,1.42336285208353E-16));
#984=DIRECTION('center_axis',(-1.,1.42336285208353E-16,0.));
#985=DIRECTION('ref_axis',(0.,0.,1.));
#986=DIRECTION('center_axis',(1.,-1.42336285208353E-16,0.));
#987=DIRECTION('ref_axis',(0.,5.91414615281385E-33,1.));
#988=DIRECTION('center_axis',(0.,0.,-1.));
#989=DIRECTION('ref_axis',(-1.,0.,0.));
#990=DIRECTION('center_axis',(0.,0.,-1.));
#991=DIRECTION('ref_axis',(-1.,0.,0.));
#992=DIRECTION('center_axis',(0.,0.,-1.));
#993=DIRECTION('ref_axis',(-1.,0.,0.));
#994=DIRECTION('',(0.,0.,1.));
#995=DIRECTION('center_axis',(0.,0.,1.));
#996=DIRECTION('ref_axis',(-1.,0.,0.));
#997=DIRECTION('center_axis',(-1.42336285208353E-16,-1.,-9.49410759657493E-16));
#998=DIRECTION('ref_axis',(-1.,1.42336285208353E-16,1.42336285208353E-16));
#999=DIRECTION('center_axis',(-1.42336285208353E-16,-1.,0.));
#1000=DIRECTION('ref_axis',(-1.,1.42336285208353E-16,1.42336285208353E-16));
#1001=DIRECTION('center_axis',(-1.42336285208353E-16,-1.,-9.49410759657493E-16));
#1002=DIRECTION('ref_axis',(-1.,1.42336285208353E-16,1.42336285208353E-16));
#1003=DIRECTION('',(1.42336285208353E-16,1.,0.));
#1004=DIRECTION('center_axis',(-1.42336285208353E-16,-1.,-9.49410759657493E-16));
#1005=DIRECTION('ref_axis',(-1.,1.42336285208353E-16,1.42336285208353E-16));
#1006=DIRECTION('center_axis',(-1.42336285208353E-16,-1.,-9.49410759657493E-16));
#1007=DIRECTION('ref_axis',(-1.,1.42336285208353E-16,1.42336285208353E-16));
#1008=DIRECTION('center_axis',(-1.,1.42336285208353E-16,0.));
#1009=DIRECTION('ref_axis',(0.,0.,1.));
#1010=DIRECTION('center_axis',(1.,-1.42336285208353E-16,0.));
#1011=DIRECTION('ref_axis',(0.,0.,1.));
#1012=DIRECTION('center_axis',(0.,0.,-1.));
#1013=DIRECTION('ref_axis',(-1.,0.,0.));
#1014=DIRECTION('center_axis',(0.,0.,-1.));
#1015=DIRECTION('ref_axis',(-1.,0.,0.));
#1016=DIRECTION('center_axis',(0.,0.,-1.));
#1017=DIRECTION('ref_axis',(-1.,0.,0.));
#1018=DIRECTION('',(0.,0.,1.));
#1019=DIRECTION('center_axis',(0.,0.,1.));
#1020=DIRECTION('ref_axis',(-1.,0.,0.));
#1021=DIRECTION('center_axis',(-1.42336285208353E-16,-1.,-9.49410759657493E-16));
#1022=DIRECTION('ref_axis',(-1.,1.42336285208353E-16,1.42336285208353E-16));
#1023=DIRECTION('center_axis',(0.,0.,1.));
#1024=DIRECTION('ref_axis',(-0.918877645283887,-0.394542612397619,0.));
#1025=DIRECTION('center_axis',(0.,0.,-1.));
#1026=DIRECTION('ref_axis',(-0.918877645283887,-0.394542612397619,0.));
#1027=DIRECTION('',(0.,0.,1.));
#1028=DIRECTION('center_axis',(0.,0.,-1.));
#1029=DIRECTION('ref_axis',(-0.918877645283887,-0.394542612397619,0.));
#1030=DIRECTION('',(0.,0.,1.));
#1031=DIRECTION('center_axis',(-1.70803542250024E-16,1.,0.));
#1032=DIRECTION('ref_axis',(-1.,-1.70803542250024E-16,0.));
#1033=DIRECTION('',(-1.,-1.70803542250024E-16,0.));
#1034=DIRECTION('',(0.,0.,1.));
#1035=DIRECTION('',(-1.,-1.70803542250024E-16,0.));
#1036=DIRECTION('center_axis',(0.,0.,1.));
#1037=DIRECTION('ref_axis',(-0.157145171497965,0.987575513606365,0.));
#1038=DIRECTION('center_axis',(0.,0.,-1.));
#1039=DIRECTION('ref_axis',(-0.157145171497965,0.987575513606365,0.));
#1040=DIRECTION('',(0.,0.,1.));
#1041=DIRECTION('center_axis',(0.,0.,-1.));
#1042=DIRECTION('ref_axis',(-0.157145171497965,0.987575513606365,0.));
#1043=DIRECTION('center_axis',(1.,-1.6821560979169E-16,0.));
#1044=DIRECTION('ref_axis',(1.6821560979169E-16,1.,0.));
#1045=DIRECTION('',(1.6821560979169E-16,1.,0.));
#1046=DIRECTION('',(0.,0.,1.));
#1047=DIRECTION('',(1.6821560979169E-16,1.,0.));
#1048=DIRECTION('center_axis',(0.,0.,1.));
#1049=DIRECTION('ref_axis',(0.932058618574216,-0.36230750963998,0.));
#1050=DIRECTION('center_axis',(0.,0.,-1.));
#1051=DIRECTION('ref_axis',(0.932058618574216,-0.36230750963998,0.));
#1052=DIRECTION('',(0.,0.,1.));
#1053=DIRECTION('center_axis',(0.,0.,-1.));
#1054=DIRECTION('ref_axis',(0.932058618574216,-0.36230750963998,0.));
#1055=DIRECTION('center_axis',(1.,0.,0.));
#1056=DIRECTION('ref_axis',(0.,1.,0.));
#1057=DIRECTION('',(0.,1.,0.));
#1058=DIRECTION('',(0.,0.,-1.));
#1059=DIRECTION('',(0.,1.,0.));
#1060=DIRECTION('center_axis',(-1.,0.,0.));
#1061=DIRECTION('ref_axis',(0.,-1.,0.));
#1062=DIRECTION('',(0.,-1.,0.));
#1063=DIRECTION('',(0.,0.,1.));
#1064=DIRECTION('',(0.,-1.,0.));
#1065=DIRECTION('',(0.,0.,1.));
#1066=DIRECTION('center_axis',(0.,0.,1.));
#1067=DIRECTION('ref_axis',(0.679901629589499,-0.733303330199409,0.));
#1068=DIRECTION('center_axis',(0.,0.,-1.));
#1069=DIRECTION('ref_axis',(0.679901629589499,-0.733303330199409,0.));
#1070=DIRECTION('',(0.,0.,1.));
#1071=DIRECTION('center_axis',(0.,0.,-1.));
#1072=DIRECTION('ref_axis',(0.679901629589499,-0.733303330199409,0.));
#1073=DIRECTION('center_axis',(-1.,0.,0.));
#1074=DIRECTION('ref_axis',(0.,-1.,0.));
#1075=DIRECTION('',(0.,-1.,0.));
#1076=DIRECTION('',(0.,-1.,0.));
#1077=DIRECTION('center_axis',(0.,0.,-1.));
#1078=DIRECTION('ref_axis',(-1.,0.,0.));
#1079=DIRECTION('',(1.,7.70988211545247E-17,0.));
#1080=DIRECTION('center_axis',(7.70988211545247E-17,-1.,0.));
#1081=DIRECTION('ref_axis',(1.,7.70988211545247E-17,0.));
#1082=DIRECTION('',(1.,7.70988211545247E-17,0.));
#1083=DIRECTION('',(0.,0.,1.));
#1084=DIRECTION('',(1.,7.70988211545247E-17,0.));
#1085=DIRECTION('',(0.,0.,1.));
#1086=DIRECTION('',(1.,7.70988211545247E-17,0.));
#1087=DIRECTION('center_axis',(-7.70988211545247E-17,1.,0.));
#1088=DIRECTION('ref_axis',(1.,1.35393051783556E-16,0.));
#1089=DIRECTION('center_axis',(-7.70988211545247E-17,1.,0.));
#1090=DIRECTION('ref_axis',(1.,0.,0.));
#1091=DIRECTION('center_axis',(0.,-1.,0.));
#1092=DIRECTION('ref_axis',(1.,0.,0.));
#1093=DIRECTION('center_axis',(7.70988211545247E-17,-1.,0.));
#1094=DIRECTION('ref_axis',(1.,7.70988211545248E-17,0.));
#1095=DIRECTION('',(0.,1.,0.));
#1096=DIRECTION('center_axis',(7.70988211545247E-17,-1.,0.));
#1097=DIRECTION('ref_axis',(0.,0.,-1.));
#1098=DIRECTION('center_axis',(1.35393051783556E-16,-1.,0.));
#1099=DIRECTION('ref_axis',(1.,1.35393051783556E-16,0.));
#1100=DIRECTION('center_axis',(7.70988211545247E-17,-1.,0.));
#1101=DIRECTION('ref_axis',(1.,7.70988211545248E-17,0.));
#1102=DIRECTION('',(-1.35393051783556E-16,1.,0.));
#1103=DIRECTION('center_axis',(7.70988211545247E-17,-1.,0.));
#1104=DIRECTION('ref_axis',(0.,0.,-1.));
#1105=DIRECTION('center_axis',(0.,0.,1.));
#1106=DIRECTION('ref_axis',(-1.,0.,0.));
#1107=DIRECTION('center_axis',(0.,0.,-1.));
#1108=DIRECTION('ref_axis',(-1.,0.,0.));
#1109=DIRECTION('',(0.,0.,-1.));
#1110=DIRECTION('center_axis',(0.,0.,1.));
#1111=DIRECTION('ref_axis',(-1.,0.,0.));
#1112=DIRECTION('center_axis',(0.,0.,1.));
#1113=DIRECTION('ref_axis',(1.,0.,0.));
#1114=DIRECTION('center_axis',(0.,0.,1.));
#1115=DIRECTION('ref_axis',(1.,0.,0.));
#1116=DIRECTION('',(0.,0.,-1.));
#1117=DIRECTION('center_axis',(0.,0.,-1.));
#1118=DIRECTION('ref_axis',(1.,0.,0.));
#1119=DIRECTION('center_axis',(0.,0.,1.));
#1120=DIRECTION('ref_axis',(1.,0.,0.));
#1121=DIRECTION('center_axis',(0.,0.,1.));
#1122=DIRECTION('ref_axis',(1.,0.,0.));
#1123=DIRECTION('center_axis',(0.,0.,1.));
#1124=DIRECTION('ref_axis',(-1.,0.,0.));
#1125=DIRECTION('center_axis',(0.,-1.,0.));
#1126=DIRECTION('ref_axis',(-1.,0.,0.));
#1127=DIRECTION('center_axis',(0.,-1.,0.));
#1128=DIRECTION('ref_axis',(1.,0.,0.));
#1129=DIRECTION('',(0.,1.,0.));
#1130=DIRECTION('center_axis',(0.,-1.,0.));
#1131=DIRECTION('ref_axis',(0.,0.,-1.));
#1132=DIRECTION('center_axis',(0.,1.,0.));
#1133=DIRECTION('ref_axis',(0.,0.,1.));
#1134=DIRECTION('center_axis',(0.,-1.,0.));
#1135=DIRECTION('ref_axis',(1.,0.,0.));
#1136=DIRECTION('center_axis',(0.,-1.,0.));
#1137=DIRECTION('ref_axis',(-1.,0.,0.));
#1138=DIRECTION('',(0.,1.,0.));
#1139=DIRECTION('center_axis',(0.,0.,1.));
#1140=DIRECTION('ref_axis',(1.,0.,0.));
#1141=DIRECTION('center_axis',(0.,0.,1.));
#1142=DIRECTION('ref_axis',(1.,0.,0.));
#1143=DIRECTION('',(0.,0.,-1.));
#1144=DIRECTION('center_axis',(0.,0.,-1.));
#1145=DIRECTION('ref_axis',(1.,0.,0.));
#1146=DIRECTION('center_axis',(0.,0.,1.));
#1147=DIRECTION('ref_axis',(-1.,0.,0.));
#1148=DIRECTION('center_axis',(0.,0.,-1.));
#1149=DIRECTION('ref_axis',(-1.,0.,0.));
#1150=DIRECTION('',(0.,0.,-1.));
#1151=DIRECTION('center_axis',(0.,0.,1.));
#1152=DIRECTION('ref_axis',(1.,0.,0.));
#1153=DIRECTION('center_axis',(0.,0.,1.));
#1154=DIRECTION('ref_axis',(1.,0.,0.));
#1155=DIRECTION('center_axis',(0.,0.,1.));
#1156=DIRECTION('ref_axis',(1.,0.,0.));
#1157=DIRECTION('center_axis',(1.,7.70988211545247E-17,0.));
#1158=DIRECTION('ref_axis',(0.,-0.707106781186548,0.707106781186548));
#1159=DIRECTION('',(-1.,-7.70988211545247E-17,0.));
#1160=DIRECTION('center_axis',(0.707106781186548,-0.707106781186548,0.));
#1161=DIRECTION('ref_axis',(-0.707106781186548,-0.707106781186548,0.));
#1162=DIRECTION('center_axis',(0.707106781186548,0.707106781186548,-7.85046229341887E-16));
#1163=DIRECTION('ref_axis',(0.707106781186547,-0.707106781186547,-7.85046229341887E-16));
#1164=DIRECTION('center_axis',(-0.816496580927727,-0.408248290463863,-0.408248290463862));
#1165=DIRECTION('ref_axis',(-0.577350269189625,0.577350269189626,0.577350269189626));
#1166=DIRECTION('center_axis',(-1.,0.,0.));
#1167=DIRECTION('ref_axis',(0.,1.,0.));
#1168=DIRECTION('center_axis',(0.,0.,1.));
#1169=DIRECTION('ref_axis',(-1.,0.,0.));
#1170=DIRECTION('center_axis',(-1.11022302462516E-15,1.,0.));
#1171=DIRECTION('ref_axis',(0.,0.,1.));
#1172=DIRECTION('center_axis',(0.,0.,1.));
#1173=DIRECTION('ref_axis',(-0.707106781186548,0.707106781186548,0.));
#1174=DIRECTION('center_axis',(0.,0.,1.));
#1175=DIRECTION('ref_axis',(-0.707106781186548,0.707106781186548,0.));
#1176=DIRECTION('',(0.,0.,1.));
#1177=DIRECTION('',(0.,0.,-1.));
#1178=DIRECTION('center_axis',(-3.55840713020883E-16,-1.,0.));
#1179=DIRECTION('ref_axis',(-0.707106781186547,0.,0.707106781186548));
#1180=DIRECTION('',(3.55840713020884E-16,1.,0.));
#1181=DIRECTION('',(-3.55840713020884E-16,-1.,0.));
#1182=DIRECTION('',(3.55840713020884E-16,1.,0.));
#1183=DIRECTION('center_axis',(0.408248290463863,-0.816496580927726,0.408248290463863));
#1184=DIRECTION('ref_axis',(0.577350269189626,0.577350269189625,0.577350269189626));
#1185=DIRECTION('center_axis',(0.,1.,0.));
#1186=DIRECTION('ref_axis',(1.,0.,0.));
#1187=DIRECTION('center_axis',(0.,0.,1.));
#1188=DIRECTION('ref_axis',(0.,1.,0.));
#1189=DIRECTION('center_axis',(1.,1.11022302462516E-15,0.));
#1190=DIRECTION('ref_axis',(0.,0.,1.));
#1191=DIRECTION('center_axis',(0.,0.,1.));
#1192=DIRECTION('ref_axis',(0.707106781186548,0.707106781186547,0.));
#1193=DIRECTION('center_axis',(0.,0.,1.));
#1194=DIRECTION('ref_axis',(0.707106781186548,0.707106781186547,0.));
#1195=DIRECTION('',(0.,0.,1.));
#1196=DIRECTION('',(0.,0.,-1.));
#1197=DIRECTION('center_axis',(-1.,0.,0.));
#1198=DIRECTION('ref_axis',(0.,0.707106781186547,0.707106781186548));
#1199=DIRECTION('',(1.,0.,0.));
#1200=DIRECTION('',(-1.,0.,0.));
#1201=DIRECTION('center_axis',(1.42336285208353E-16,1.,0.));
#1202=DIRECTION('ref_axis',(0.707106781186548,0.,0.707106781186548));
#1203=DIRECTION('',(-1.42336285208353E-16,-1.,0.));
#1204=DIRECTION('',(1.42336285208353E-16,1.,0.));
#1205=DIRECTION('',(-1.42336285208353E-16,-1.,0.));
#1206=DIRECTION('center_axis',(0.,0.,1.));
#1207=DIRECTION('ref_axis',(1.,0.,0.));
#1208=DIRECTION('center_axis',(0.,0.,-1.));
#1209=DIRECTION('ref_axis',(1.,0.,0.));
#1210=DIRECTION('center_axis',(0.,0.,1.));
#1211=DIRECTION('ref_axis',(1.,0.,0.));
#1212=DIRECTION('center_axis',(0.,0.,-1.));
#1213=DIRECTION('ref_axis',(1.,0.,0.));
#1214=DIRECTION('center_axis',(0.,1.,0.));
#1215=DIRECTION('ref_axis',(-1.,0.,0.));
#1216=DIRECTION('',(-1.,0.,0.));
#1217=DIRECTION('center_axis',(0.,0.,1.));
#1218=DIRECTION('ref_axis',(1.,0.,0.));
#1219=DIRECTION('',(0.,0.,-1.));
#1220=DIRECTION('center_axis',(0.,0.,1.));
#1221=DIRECTION('ref_axis',(1.,0.,0.));
#1222=DIRECTION('center_axis',(-1.,3.55840713020883E-16,0.));
#1223=DIRECTION('ref_axis',(-3.55840713020884E-16,-1.,0.));
#1224=DIRECTION('',(-3.55840713020884E-16,-1.,0.));
#1225=DIRECTION('center_axis',(1.,-1.42336285208353E-16,0.));
#1226=DIRECTION('ref_axis',(1.42336285208353E-16,1.,0.));
#1227=DIRECTION('',(1.42336285208353E-16,1.,0.));
#1228=DIRECTION('center_axis',(0.,0.,1.));
#1229=DIRECTION('ref_axis',(1.,0.,0.));
#1230=CARTESIAN_POINT('',(0.,0.,0.));
#1231=CARTESIAN_POINT('Origin',(-4.119603065053E-16,-1.25,1.67));
#1232=CARTESIAN_POINT('',(0.379999999999998,-11.9,1.67));
#1233=CARTESIAN_POINT('Origin',(-1.92784174397426E-15,-11.9,1.67));
#1234=CARTESIAN_POINT('',(0.38,-1.25,1.67));
#1235=CARTESIAN_POINT('',(0.38,-1.25,1.67));
#1236=CARTESIAN_POINT('',(-3.65423728137701E-16,-1.25,2.05));
#1237=CARTESIAN_POINT('Origin',(-4.119603065053E-16,-1.25,1.67));
#1238=CARTESIAN_POINT('Origin',(-4.119603065053E-16,-1.25,1.67));
#1239=CARTESIAN_POINT('Origin',(-4.119603065053E-16,-1.25,3.17));
#1240=CARTESIAN_POINT('',(-2.06007088704345E-16,-0.129999999999997,3.17));
#1241=CARTESIAN_POINT('Origin',(-3.65423728137701E-16,-1.25,3.17));
#1242=CARTESIAN_POINT('',(0.38,0.250000000000003,3.17));
#1243=CARTESIAN_POINT('Origin',(-1.9845587869277E-16,0.250000000000003,
3.17));
#1244=CARTESIAN_POINT('Origin',(-1.9845587869277E-16,0.250000000000003,
3.17));
#1245=CARTESIAN_POINT('Origin',(-1.9845587869277E-16,0.250000000000003,
4.5));
#1246=CARTESIAN_POINT('',(0.38,0.250000000000003,4.5));
#1247=CARTESIAN_POINT('',(0.38,0.250000000000003,4.5));
#1248=CARTESIAN_POINT('Origin',(-1.9845587869277E-16,0.250000000000003,
4.5));
#1249=CARTESIAN_POINT('Origin',(-1.93755268239871E-15,-11.9,1.67));
#1250=CARTESIAN_POINT('Origin',(2.54,-1.25,1.67));
#1251=CARTESIAN_POINT('',(2.9,-11.9,1.67));
#1252=CARTESIAN_POINT('Origin',(2.54,-11.9,1.67));
#1253=CARTESIAN_POINT('',(2.9,-1.25,1.67));
#1254=CARTESIAN_POINT('',(2.9,-1.25,1.67));
#1255=CARTESIAN_POINT('',(2.54,-1.25,2.03));
#1256=CARTESIAN_POINT('Origin',(2.54,-1.25,1.67));
#1257=CARTESIAN_POINT('Origin',(2.54,-1.25,1.67));
#1258=CARTESIAN_POINT('Origin',(2.54,-1.25,3.17));
#1259=CARTESIAN_POINT('',(2.54,-0.109999999999997,3.17));
#1260=CARTESIAN_POINT('Origin',(2.54,-1.25,3.17));
#1261=CARTESIAN_POINT('',(2.9,0.250000000000003,3.17));
#1262=CARTESIAN_POINT('Origin',(2.54,0.250000000000003,3.17));
#1263=CARTESIAN_POINT('Origin',(2.54,0.250000000000003,3.17));
#1264=CARTESIAN_POINT('Origin',(2.54,0.250000000000003,4.5));
#1265=CARTESIAN_POINT('',(2.9,0.250000000000003,4.5));
#1266=CARTESIAN_POINT('',(2.9,0.250000000000003,4.5));
#1267=CARTESIAN_POINT('Origin',(2.54,0.250000000000003,4.5));
#1268=CARTESIAN_POINT('Origin',(2.54,-11.9,1.67));
#1269=CARTESIAN_POINT('Origin',(-5.32578551937023,5.50871066915938,0.));
#1270=CARTESIAN_POINT('',(-3.25,6.4,0.));
#1271=CARTESIAN_POINT('',(-5.8,3.3,0.));
#1272=CARTESIAN_POINT('Origin',(-5.32578551937023,5.50871066915938,0.));
#1273=CARTESIAN_POINT('',(-3.25,6.4,4.5));
#1274=CARTESIAN_POINT('',(-3.25,6.4,0.));
#1275=CARTESIAN_POINT('',(-5.8,3.3,4.5));
#1276=CARTESIAN_POINT('Origin',(-5.32578551937023,5.50871066915938,4.5));
#1277=CARTESIAN_POINT('',(-5.8,3.3,0.));
#1278=CARTESIAN_POINT('Origin',(3.25,6.4,0.));
#1279=CARTESIAN_POINT('',(3.25,6.4,0.));
#1280=CARTESIAN_POINT('',(1.625,6.4,0.));
#1281=CARTESIAN_POINT('',(3.25,6.4,4.5));
#1282=CARTESIAN_POINT('',(3.25,6.4,0.));
#1283=CARTESIAN_POINT('',(-3.25,6.4,4.5));
#1284=CARTESIAN_POINT('Origin',(5.43433677343167,5.59800282975831,0.));
#1285=CARTESIAN_POINT('',(5.8,3.3,0.));
#1286=CARTESIAN_POINT('Origin',(5.43433677343167,5.59800282975831,0.));
#1287=CARTESIAN_POINT('',(5.80000000000001,3.3,4.5));
#1288=CARTESIAN_POINT('',(5.8,3.3,0.));
#1289=CARTESIAN_POINT('Origin',(5.43433677343167,5.59800282975831,4.5));
#1290=CARTESIAN_POINT('Origin',(5.8,-3.3,0.));
#1291=CARTESIAN_POINT('',(5.8,-3.3,0.));
#1292=CARTESIAN_POINT('',(5.8,-1.65,0.));
#1293=CARTESIAN_POINT('',(5.8,-3.3,4.5));
#1294=CARTESIAN_POINT('',(5.8,-3.3,0.));
#1295=CARTESIAN_POINT('',(5.8,3.3,4.5));
#1296=CARTESIAN_POINT('Origin',(4.85084831449959,-3.90848314499588,0.));
#1297=CARTESIAN_POINT('',(3.8,-3.5,0.));
#1298=CARTESIAN_POINT('Origin',(4.85084831449959,-3.90848314499588,0.));
#1299=CARTESIAN_POINT('',(3.8,-3.5,4.5));
#1300=CARTESIAN_POINT('',(3.8,-3.5,0.));
#1301=CARTESIAN_POINT('Origin',(4.85084831449959,-3.90848314499588,4.5));
#1302=CARTESIAN_POINT('Origin',(3.8,-7.8,0.));
#1303=CARTESIAN_POINT('',(3.8,-7.8,0.));
#1304=CARTESIAN_POINT('',(3.8,-3.9,0.));
#1305=CARTESIAN_POINT('',(3.8,-7.8,4.5));
#1306=CARTESIAN_POINT('',(3.8,-7.8,0.));
#1307=CARTESIAN_POINT('',(3.8,-3.5,4.5));
#1308=CARTESIAN_POINT('Origin',(-3.9,-3.5,0.));
#1309=CARTESIAN_POINT('',(-3.9,-3.5,0.));
#1310=CARTESIAN_POINT('',(-3.9,-7.8,0.));
#1311=CARTESIAN_POINT('',(-3.9,-1.75,0.));
#1312=CARTESIAN_POINT('',(-3.9,-3.5,4.5));
#1313=CARTESIAN_POINT('',(-3.9,-3.5,0.));
#1314=CARTESIAN_POINT('',(-3.9,-7.8,4.5));
#1315=CARTESIAN_POINT('',(-3.9,-7.8,4.5));
#1316=CARTESIAN_POINT('',(-3.9,-7.8,0.));
#1317=CARTESIAN_POINT('Origin',(-4.93740486162818,-4.23034618546771,0.));
#1318=CARTESIAN_POINT('',(-5.8,-3.3,0.));
#1319=CARTESIAN_POINT('Origin',(-4.93740486162818,-4.23034618546771,0.));
#1320=CARTESIAN_POINT('',(-5.8,-3.3,4.5));
#1321=CARTESIAN_POINT('',(-5.8,-3.3,0.));
#1322=CARTESIAN_POINT('Origin',(-4.93740486162818,-4.23034618546771,4.5));
#1323=CARTESIAN_POINT('Origin',(-5.8,3.3,0.));
#1324=CARTESIAN_POINT('',(-5.8,1.65,0.));
#1325=CARTESIAN_POINT('',(-5.8,-3.3,4.5));
#1326=CARTESIAN_POINT('Origin',(1.66533453693773E-15,-0.7,4.5));
#1327=CARTESIAN_POINT('',(-3.6,-7.8,4.5));
#1328=CARTESIAN_POINT('Origin',(-7.2,-7.8,0.));
#1329=CARTESIAN_POINT('',(7.2,-7.8,0.));
#1330=CARTESIAN_POINT('',(-7.2,-7.8,0.));
#1331=CARTESIAN_POINT('',(7.2,-7.8,13.));
#1332=CARTESIAN_POINT('',(7.2,-7.8,0.));
#1333=CARTESIAN_POINT('',(-7.2,-7.8,13.));
#1334=CARTESIAN_POINT('',(-3.6,-7.8,13.));
#1335=CARTESIAN_POINT('',(-7.2,-7.8,0.));
#1336=CARTESIAN_POINT('',(-7.2,-7.8,0.));
#1337=CARTESIAN_POINT('',(-7.2,-7.8,0.));
#1338=CARTESIAN_POINT('',(-5.945,-7.8,6.75));
#1339=CARTESIAN_POINT('Origin',(-5.08,-7.8,6.75));
#1340=CARTESIAN_POINT('',(4.215,-7.8,6.75));
#1341=CARTESIAN_POINT('Origin',(5.08,-7.8,6.75));
#1342=CARTESIAN_POINT('Origin',(5.08,-7.8,6.75));
#1343=CARTESIAN_POINT('',(4.215,-11.9,6.75));
#1344=CARTESIAN_POINT('Origin',(5.08,-11.9,6.75));
#1345=CARTESIAN_POINT('',(4.215,-7.8,6.75));
#1346=CARTESIAN_POINT('Origin',(5.08,-11.9,6.75));
#1347=CARTESIAN_POINT('Origin',(-5.08,-7.8,6.75));
#1348=CARTESIAN_POINT('',(-5.945,-11.9,6.75));
#1349=CARTESIAN_POINT('Origin',(-5.08,-11.9,6.75));
#1350=CARTESIAN_POINT('',(-5.945,-7.8,6.75));
#1351=CARTESIAN_POINT('Origin',(-5.08,-11.9,6.75));
#1352=CARTESIAN_POINT('Origin',(0.,0.,22.9));
#1353=CARTESIAN_POINT('',(0.370346134826523,4.53543208591896E-17,31.58));
#1354=CARTESIAN_POINT('Origin',(0.,0.,31.58));
#1355=CARTESIAN_POINT('',(0.370346134826523,4.53543208591896E-17,22.9));
#1356=CARTESIAN_POINT('',(0.370346134826523,4.53543208591896E-17,22.9));
#1357=CARTESIAN_POINT('Origin',(0.,0.,22.9));
#1358=CARTESIAN_POINT('Origin',(0.,0.,22.9));
#1359=CARTESIAN_POINT('',(-2.35,-2.87791997799628E-16,31.58));
#1360=CARTESIAN_POINT('Origin',(0.,0.,31.58));
#1361=CARTESIAN_POINT('',(-2.35,-2.87791997799628E-16,22.9));
#1362=CARTESIAN_POINT('',(-2.35,-2.87791997799628E-16,22.9));
#1363=CARTESIAN_POINT('Origin',(0.,0.,22.9));
#1364=CARTESIAN_POINT('Origin',(0.,0.,31.58));
#1365=CARTESIAN_POINT('Origin',(0.,0.,22.9));
#1366=CARTESIAN_POINT('',(4.1,5.02105187650415E-16,22.9));
#1367=CARTESIAN_POINT('Origin',(0.,0.,22.9));
#1368=CARTESIAN_POINT('Origin',(0.,-5.1973389188611,30.9));
#1369=CARTESIAN_POINT('',(1.,-5.7,30.9));
#1370=CARTESIAN_POINT('Origin',(0.,-5.7,30.9));
#1371=CARTESIAN_POINT('',(1.,-4.6946778377222,30.9));
#1372=CARTESIAN_POINT('',(1.,-5.1973389188611,30.9));
#1373=CARTESIAN_POINT('',(-1.,-4.6946778377222,30.9));
#1374=CARTESIAN_POINT('Ctrl Pts',(-1.,-4.6946778377222,30.9));
#1375=CARTESIAN_POINT('Ctrl Pts',(-1.,-4.6946778377222,31.025964200512));
#1376=CARTESIAN_POINT('Ctrl Pts',(-0.974750272782822,-4.70027358298615,
31.1600633101453));
#1377=CARTESIAN_POINT('Ctrl Pts',(-0.872584134673446,-4.72030790580893,
31.4063279652671));
#1378=CARTESIAN_POINT('Ctrl Pts',(-0.795687036967153,-4.73443794523689,
31.5185265254059));
#1379=CARTESIAN_POINT('Ctrl Pts',(-0.618532388542824,-4.76082315788952,
31.6956811738303));
#1380=CARTESIAN_POINT('Ctrl Pts',(-0.50633134579175,-4.77481815974286,31.7725828611097));
#1381=CARTESIAN_POINT('Ctrl Pts',(-0.260058035894108,-4.79454165769734,
31.8747523319831));
#1382=CARTESIAN_POINT('Ctrl Pts',(-0.125955862927658,-4.8,31.9));
#1383=CARTESIAN_POINT('Ctrl Pts',(0.125955862927658,-4.8,31.9));
#1384=CARTESIAN_POINT('Ctrl Pts',(0.260058035894108,-4.79454165769734,31.8747523319831));
#1385=CARTESIAN_POINT('Ctrl Pts',(0.50633134579175,-4.77481815974286,31.7725828611097));
#1386=CARTESIAN_POINT('Ctrl Pts',(0.618532388542824,-4.76082315788952,31.6956811738303));
#1387=CARTESIAN_POINT('Ctrl Pts',(0.795687036967153,-4.73443794523689,31.5185265254059));
#1388=CARTESIAN_POINT('Ctrl Pts',(0.872584134673446,-4.72030790580893,31.4063279652671));
#1389=CARTESIAN_POINT('Ctrl Pts',(0.974750272782822,-4.70027358298615,31.1600633101453));
#1390=CARTESIAN_POINT('Ctrl Pts',(1.,-4.6946778377222,31.025964200512));
#1391=CARTESIAN_POINT('Ctrl Pts',(1.,-4.6946778377222,30.9));
#1392=CARTESIAN_POINT('Ctrl Pts',(1.,-4.6946778377222,30.9));
#1393=CARTESIAN_POINT('Ctrl Pts',(1.,-4.6946778377222,30.774035799488));
#1394=CARTESIAN_POINT('Ctrl Pts',(0.974750272782822,-4.70027358298615,30.6399366898547));
#1395=CARTESIAN_POINT('Ctrl Pts',(0.872584134673446,-4.72030790580893,30.3936720347329));
#1396=CARTESIAN_POINT('Ctrl Pts',(0.795687036967153,-4.73443794523689,30.2814734745941));
#1397=CARTESIAN_POINT('Ctrl Pts',(0.618532388542824,-4.76082315788952,30.1043188261697));
#1398=CARTESIAN_POINT('Ctrl Pts',(0.50633134579175,-4.77481815974286,30.0274171388903));
#1399=CARTESIAN_POINT('Ctrl Pts',(0.260058035894108,-4.79454165769734,29.9252476680169));
#1400=CARTESIAN_POINT('Ctrl Pts',(0.125955862927658,-4.8,29.9));
#1401=CARTESIAN_POINT('Ctrl Pts',(-0.125955862927658,-4.8,29.9));
#1402=CARTESIAN_POINT('Ctrl Pts',(-0.260058035894108,-4.79454165769734,
29.9252476680169));
#1403=CARTESIAN_POINT('Ctrl Pts',(-0.50633134579175,-4.77481815974286,30.0274171388903));
#1404=CARTESIAN_POINT('Ctrl Pts',(-0.618532388542824,-4.76082315788952,
30.1043188261697));
#1405=CARTESIAN_POINT('Ctrl Pts',(-0.795687036967153,-4.73443794523689,
30.2814734745941));
#1406=CARTESIAN_POINT('Ctrl Pts',(-0.872584134673451,-4.72030790580893,
30.3936720347329));
#1407=CARTESIAN_POINT('Ctrl Pts',(-0.974750272782824,-4.70027358298615,
30.6399366898547));
#1408=CARTESIAN_POINT('Ctrl Pts',(-1.,-4.6946778377222,30.774035799488));
#1409=CARTESIAN_POINT('Ctrl Pts',(-1.,-4.6946778377222,30.9));
#1410=CARTESIAN_POINT('Origin',(0.,-5.7,30.9));
#1411=CARTESIAN_POINT('Origin',(-1.,5.7,30.9));
#1412=CARTESIAN_POINT('',(1.,5.7,30.9));
#1413=CARTESIAN_POINT('Origin',(0.,5.7,30.9));
#1414=CARTESIAN_POINT('Origin',(0.,5.1973389188611,30.9));
#1415=CARTESIAN_POINT('',(-1.,4.6946778377222,30.9));
#1416=CARTESIAN_POINT('',(1.,4.6946778377222,30.9));
#1417=CARTESIAN_POINT('Ctrl Pts',(-1.,4.6946778377222,30.9));
#1418=CARTESIAN_POINT('Ctrl Pts',(-1.,4.6946778377222,30.774035799488));
#1419=CARTESIAN_POINT('Ctrl Pts',(-0.974750272782824,4.70027358298615,30.6399366898547));
#1420=CARTESIAN_POINT('Ctrl Pts',(-0.87258413467345,4.72030790580893,30.3936720347329));
#1421=CARTESIAN_POINT('Ctrl Pts',(-0.795687036967153,4.73443794523689,30.2814734745941));
#1422=CARTESIAN_POINT('Ctrl Pts',(-0.618532388542824,4.76082315788952,30.1043188261697));
#1423=CARTESIAN_POINT('Ctrl Pts',(-0.506331345791752,4.77481815974286,30.0274171388903));
#1424=CARTESIAN_POINT('Ctrl Pts',(-0.260058035894111,4.79454165769734,29.9252476680169));
#1425=CARTESIAN_POINT('Ctrl Pts',(-0.125955862927658,4.8,29.9));
#1426=CARTESIAN_POINT('Ctrl Pts',(0.125955862927658,4.8,29.9));
#1427=CARTESIAN_POINT('Ctrl Pts',(0.260058035894108,4.79454165769734,29.9252476680169));
#1428=CARTESIAN_POINT('Ctrl Pts',(0.50633134579175,4.77481815974286,30.0274171388903));
#1429=CARTESIAN_POINT('Ctrl Pts',(0.618532388542824,4.76082315788952,30.1043188261697));
#1430=CARTESIAN_POINT('Ctrl Pts',(0.795687036967153,4.73443794523689,30.2814734745941));
#1431=CARTESIAN_POINT('Ctrl Pts',(0.872584134673446,4.72030790580893,30.3936720347329));
#1432=CARTESIAN_POINT('Ctrl Pts',(0.974750272782822,4.70027358298615,30.6399366898547));
#1433=CARTESIAN_POINT('Ctrl Pts',(1.,4.6946778377222,30.774035799488));
#1434=CARTESIAN_POINT('Ctrl Pts',(1.,4.6946778377222,30.9));
#1435=CARTESIAN_POINT('Ctrl Pts',(1.,4.6946778377222,30.9));
#1436=CARTESIAN_POINT('Ctrl Pts',(1.,4.6946778377222,31.025964200512));
#1437=CARTESIAN_POINT('Ctrl Pts',(0.974750272782822,4.70027358298615,31.1600633101453));
#1438=CARTESIAN_POINT('Ctrl Pts',(0.872584134673446,4.72030790580893,31.4063279652671));
#1439=CARTESIAN_POINT('Ctrl Pts',(0.795687036967153,4.73443794523689,31.5185265254059));
#1440=CARTESIAN_POINT('Ctrl Pts',(0.618532388542824,4.76082315788952,31.6956811738303));
#1441=CARTESIAN_POINT('Ctrl Pts',(0.50633134579175,4.77481815974286,31.7725828611097));
#1442=CARTESIAN_POINT('Ctrl Pts',(0.260058035894108,4.79454165769734,31.8747523319831));
#1443=CARTESIAN_POINT('Ctrl Pts',(0.125955862927658,4.8,31.9));
#1444=CARTESIAN_POINT('Ctrl Pts',(-0.125955862927658,4.8,31.9));
#1445=CARTESIAN_POINT('Ctrl Pts',(-0.260058035894108,4.79454165769734,31.8747523319831));
#1446=CARTESIAN_POINT('Ctrl Pts',(-0.50633134579175,4.77481815974286,31.7725828611097));
#1447=CARTESIAN_POINT('Ctrl Pts',(-0.618532388542824,4.76082315788952,31.6956811738303));
#1448=CARTESIAN_POINT('Ctrl Pts',(-0.795687036967153,4.73443794523689,31.5185265254059));
#1449=CARTESIAN_POINT('Ctrl Pts',(-0.872584134673446,4.72030790580893,31.4063279652671));
#1450=CARTESIAN_POINT('Ctrl Pts',(-0.974750272782822,4.70027358298615,31.1600633101453));
#1451=CARTESIAN_POINT('Ctrl Pts',(-1.,4.6946778377222,31.025964200512));
#1452=CARTESIAN_POINT('Ctrl Pts',(-1.,4.6946778377222,30.9));
#1453=CARTESIAN_POINT('',(1.,5.1973389188611,30.9));
#1454=CARTESIAN_POINT('Origin',(0.,0.,22.9));
#1455=CARTESIAN_POINT('',(-4.8,-5.87830463590729E-16,34.9));
#1456=CARTESIAN_POINT('Origin',(0.,0.,34.9));
#1457=CARTESIAN_POINT('',(-4.8,-5.87830463590729E-16,22.9));
#1458=CARTESIAN_POINT('',(-4.8,-5.87830463590729E-16,22.9));
#1459=CARTESIAN_POINT('Origin',(0.,0.,22.9));
#1460=CARTESIAN_POINT('Origin',(0.,0.,22.9));
#1461=CARTESIAN_POINT('',(4.1,5.02105187650415E-16,34.9));
#1462=CARTESIAN_POINT('Origin',(0.,0.,34.9));
#1463=CARTESIAN_POINT('',(4.1,5.02105187650415E-16,22.9));
#1464=CARTESIAN_POINT('Origin',(0.,0.,34.9));
#1465=CARTESIAN_POINT('Origin',(0.,0.,22.9));
#1466=CARTESIAN_POINT('',(-6.35,-7.77650717458569E-16,22.9));
#1467=CARTESIAN_POINT('Origin',(0.,0.,22.9));
#1468=CARTESIAN_POINT('Origin',(-3.6,-6.8,13.));
#1469=CARTESIAN_POINT('',(6.2,-6.8,14.));
#1470=CARTESIAN_POINT('',(-6.2,-6.8,14.));
#1471=CARTESIAN_POINT('',(-3.6,-6.8,14.));
#1472=CARTESIAN_POINT('Origin',(-6.2,-6.8,13.));
#1473=CARTESIAN_POINT('Origin',(6.2,-6.8,13.));
#1474=CARTESIAN_POINT('Origin',(-6.2,6.8,13.));
#1475=CARTESIAN_POINT('',(-6.2,7.8,13.));
#1476=CARTESIAN_POINT('',(-6.2,6.8,14.));
#1477=CARTESIAN_POINT('Origin',(-6.2,6.8,13.));
#1478=CARTESIAN_POINT('',(-7.2,6.8,13.));
#1479=CARTESIAN_POINT('Origin',(-6.2,6.8,13.));
#1480=CARTESIAN_POINT('Origin',(-6.2,6.8,13.));
#1481=CARTESIAN_POINT('Origin',(-6.2,6.8,0.));
#1482=CARTESIAN_POINT('',(-6.2,7.8,0.));
#1483=CARTESIAN_POINT('',(-7.2,6.8,0.));
#1484=CARTESIAN_POINT('Origin',(-6.2,6.8,0.));
#1485=CARTESIAN_POINT('',(-7.2,6.8,0.));
#1486=CARTESIAN_POINT('',(-6.2,7.8,0.));
#1487=CARTESIAN_POINT('Origin',(-6.2,3.9,13.));
#1488=CARTESIAN_POINT('',(-6.2,1.37204227340122,14.));
#1489=CARTESIAN_POINT('',(-6.35,-7.77650717458569E-16,13.9886859966643));
#1490=CARTESIAN_POINT('Ctrl Pts',(-6.2,1.37204227340122,14.));
#1491=CARTESIAN_POINT('Ctrl Pts',(-6.30147570882835,0.91349270322204,14.));
#1492=CARTESIAN_POINT('Ctrl Pts',(-6.35,0.441964467353361,13.9886859966643));
#1493=CARTESIAN_POINT('Ctrl Pts',(-6.35,2.4980018054066E-15,13.9886859966643));
#1494=CARTESIAN_POINT('',(-6.2,3.9,14.));
#1495=CARTESIAN_POINT('',(-7.2,3.9,13.));
#1496=CARTESIAN_POINT('',(-6.2,-1.37204227340121,14.));
#1497=CARTESIAN_POINT('',(-6.2,3.9,14.));
#1498=CARTESIAN_POINT('Ctrl Pts',(-6.35,2.35922392732846E-15,13.9886859966643));
#1499=CARTESIAN_POINT('Ctrl Pts',(-6.35,-0.441964467353356,13.9886859966643));
#1500=CARTESIAN_POINT('Ctrl Pts',(-6.30147570882835,-0.913492703222035,
14.));
#1501=CARTESIAN_POINT('Ctrl Pts',(-6.2,-1.37204227340121,14.));
#1502=CARTESIAN_POINT('Origin',(6.2,6.8,13.));
#1503=CARTESIAN_POINT('',(7.2,6.8,13.));
#1504=CARTESIAN_POINT('',(6.2,6.8,14.));
#1505=CARTESIAN_POINT('Origin',(6.2,6.8,13.));
#1506=CARTESIAN_POINT('',(6.2,7.8,13.));
#1507=CARTESIAN_POINT('Origin',(6.2,6.8,13.));
#1508=CARTESIAN_POINT('Origin',(6.2,6.8,13.));
#1509=CARTESIAN_POINT('Origin',(6.2,6.8,0.));
#1510=CARTESIAN_POINT('',(7.2,6.8,0.));
#1511=CARTESIAN_POINT('',(6.2,7.8,0.));
#1512=CARTESIAN_POINT('Origin',(6.2,6.8,0.));
#1513=CARTESIAN_POINT('',(6.2,7.8,0.));
#1514=CARTESIAN_POINT('',(7.2,6.8,0.));
#1515=CARTESIAN_POINT('Origin',(3.6,6.8,13.));
#1516=CARTESIAN_POINT('',(3.6,6.8,14.));
#1517=CARTESIAN_POINT('',(3.6,7.8,13.));
#1518=CARTESIAN_POINT('Origin',(6.2,-3.9,13.));
#1519=CARTESIAN_POINT('',(6.2,-1.37204227340122,14.));
#1520=CARTESIAN_POINT('',(6.2,1.37204227340122,14.));
#1521=CARTESIAN_POINT('Ctrl Pts',(6.2,-1.37204227340122,14.));
#1522=CARTESIAN_POINT('Ctrl Pts',(6.30147570882835,-0.913492703222042,14.));
#1523=CARTESIAN_POINT('Ctrl Pts',(6.35,-0.441964467353361,13.9886859966643));
#1524=CARTESIAN_POINT('Ctrl Pts',(6.35,0.44196446735336,13.9886859966643));
#1525=CARTESIAN_POINT('Ctrl Pts',(6.30147570882835,0.913492703222041,14.));
#1526=CARTESIAN_POINT('Ctrl Pts',(6.2,1.37204227340122,14.));
#1527=CARTESIAN_POINT('',(6.2,-3.9,14.));
#1528=CARTESIAN_POINT('',(7.2,-3.9,13.));
#1529=CARTESIAN_POINT('',(6.2,-3.9,14.));
#1530=CARTESIAN_POINT('Origin',(0.,0.,14.));
#1531=CARTESIAN_POINT('Origin',(0.,0.,14.));
#1532=CARTESIAN_POINT('Origin',(0.,0.,14.));
#1533=CARTESIAN_POINT('Origin',(0.,0.,14.));
#1534=CARTESIAN_POINT('Origin',(7.2,7.8,0.));
#1535=CARTESIAN_POINT('',(7.2,7.8,0.));
#1536=CARTESIAN_POINT('Origin',(0.,0.,14.));
#1537=CARTESIAN_POINT('',(-6.35,-7.77650717458569E-16,14.));
#1538=CARTESIAN_POINT('Origin',(0.,0.,22.9));
#1539=CARTESIAN_POINT('Origin',(-7.2,7.8,0.));
#1540=CARTESIAN_POINT('',(-7.2,7.8,0.));
#1541=CARTESIAN_POINT('Origin',(7.2,-7.8,0.));
#1542=CARTESIAN_POINT('',(7.2,-7.8,0.));
#1543=CARTESIAN_POINT('Origin',(-5.55111512312578E-16,0.,0.));
#1544=UNCERTAINTY_MEASURE_WITH_UNIT(LENGTH_MEASURE(0.01),#1548,
'DISTANCE_ACCURACY_VALUE',
'Maximum model space distance between geometric entities at asserted c
onnectivities');
#1545=UNCERTAINTY_MEASURE_WITH_UNIT(LENGTH_MEASURE(0.01),#1548,
'DISTANCE_ACCURACY_VALUE',
'Maximum model space distance between geometric entities at asserted c
onnectivities');
#1546=(
GEOMETRIC_REPRESENTATION_CONTEXT(3)
GLOBAL_UNCERTAINTY_ASSIGNED_CONTEXT((#1544))
GLOBAL_UNIT_ASSIGNED_CONTEXT((#1548,#1550,#1551))
REPRESENTATION_CONTEXT('','3D')
);
#1547=(
GEOMETRIC_REPRESENTATION_CONTEXT(3)
GLOBAL_UNCERTAINTY_ASSIGNED_CONTEXT((#1545))
GLOBAL_UNIT_ASSIGNED_CONTEXT((#1548,#1550,#1551))
REPRESENTATION_CONTEXT('','3D')
);
#1548=(
LENGTH_UNIT()
NAMED_UNIT(*)
SI_UNIT(.MILLI.,.METRE.)
);
#1549=(
LENGTH_UNIT()
NAMED_UNIT(*)
SI_UNIT(.CENTI.,.METRE.)
);
#1550=(
NAMED_UNIT(*)
PLANE_ANGLE_UNIT()
SI_UNIT($,.RADIAN.)
);
#1551=(
NAMED_UNIT(*)
SI_UNIT($,.STERADIAN.)
SOLID_ANGLE_UNIT()
);
#1552=SHAPE_DEFINITION_REPRESENTATION(#1553,#1554);
#1553=PRODUCT_DEFINITION_SHAPE('',$,#1556);
#1554=SHAPE_REPRESENTATION('',(#872),#1546);
#1555=PRODUCT_DEFINITION_CONTEXT('part definition',#1560,'design');
#1556=PRODUCT_DEFINITION('031-5640','031-5640',#1557,#1555);
#1557=PRODUCT_DEFINITION_FORMATION('1.0',$,#1562);
#1558=PRODUCT_RELATED_PRODUCT_CATEGORY('031-5640','031-5640',(#1562));
#1559=APPLICATION_PROTOCOL_DEFINITION('international standard',
'automotive_design',2009,#1560);
#1560=APPLICATION_CONTEXT(
'Core Data for Automotive Mechanical Design Process');
#1561=PRODUCT_CONTEXT('part definition',#1560,'mechanical');
#1562=PRODUCT('031-5640','031-5640','CONN BNC JACK R/A 50 OHM PCB',(#1561));
#1563=PRESENTATION_STYLE_ASSIGNMENT((#1570));
#1564=PRESENTATION_STYLE_ASSIGNMENT((#1571));
#1565=PRESENTATION_STYLE_ASSIGNMENT((#1572));
#1566=PRESENTATION_STYLE_ASSIGNMENT((#1573));
#1567=PRESENTATION_STYLE_ASSIGNMENT((#1574));
#1568=PRESENTATION_STYLE_ASSIGNMENT((#1575));
#1569=PRESENTATION_STYLE_ASSIGNMENT((#1576));
#1570=SURFACE_STYLE_USAGE(.BOTH.,#1591);
#1571=SURFACE_STYLE_USAGE(.BOTH.,#1592);
#1572=SURFACE_STYLE_USAGE(.BOTH.,#1593);
#1573=SURFACE_STYLE_USAGE(.BOTH.,#1594);
#1574=SURFACE_STYLE_USAGE(.BOTH.,#1595);
#1575=SURFACE_STYLE_USAGE(.BOTH.,#1596);
#1576=SURFACE_STYLE_USAGE(.BOTH.,#1597);
#1577=SURFACE_STYLE_RENDERING_WITH_PROPERTIES($,#1619,(#1584));
#1578=SURFACE_STYLE_RENDERING_WITH_PROPERTIES($,#1620,(#1585));
#1579=SURFACE_STYLE_RENDERING_WITH_PROPERTIES($,#1621,(#1586));
#1580=SURFACE_STYLE_RENDERING_WITH_PROPERTIES($,#1622,(#1587));
#1581=SURFACE_STYLE_RENDERING_WITH_PROPERTIES($,#1623,(#1588));
#1582=SURFACE_STYLE_RENDERING_WITH_PROPERTIES($,#1624,(#1589));
#1583=SURFACE_STYLE_RENDERING_WITH_PROPERTIES($,#1625,(#1590));
#1584=SURFACE_STYLE_TRANSPARENT(0.);
#1585=SURFACE_STYLE_TRANSPARENT(0.);
#1586=SURFACE_STYLE_TRANSPARENT(0.);
#1587=SURFACE_STYLE_TRANSPARENT(0.);
#1588=SURFACE_STYLE_TRANSPARENT(0.);
#1589=SURFACE_STYLE_TRANSPARENT(0.);
#1590=SURFACE_STYLE_TRANSPARENT(0.599999994039536);
#1591=SURFACE_SIDE_STYLE('',(#1598,#1577));
#1592=SURFACE_SIDE_STYLE('',(#1599,#1578));
#1593=SURFACE_SIDE_STYLE('',(#1600,#1579));
#1594=SURFACE_SIDE_STYLE('',(#1601,#1580));
#1595=SURFACE_SIDE_STYLE('',(#1602,#1581));
#1596=SURFACE_SIDE_STYLE('',(#1603,#1582));
#1597=SURFACE_SIDE_STYLE('',(#1604,#1583));
#1598=SURFACE_STYLE_FILL_AREA(#1605);
#1599=SURFACE_STYLE_FILL_AREA(#1606);
#1600=SURFACE_STYLE_FILL_AREA(#1607);
#1601=SURFACE_STYLE_FILL_AREA(#1608);
#1602=SURFACE_STYLE_FILL_AREA(#1609);
#1603=SURFACE_STYLE_FILL_AREA(#1610);
#1604=SURFACE_STYLE_FILL_AREA(#1611);
#1605=FILL_AREA_STYLE('',(#1612));
#1606=FILL_AREA_STYLE('',(#1613));
#1607=FILL_AREA_STYLE('',(#1614));
#1608=FILL_AREA_STYLE('',(#1615));
#1609=FILL_AREA_STYLE('',(#1616));
#1610=FILL_AREA_STYLE('',(#1617));
#1611=FILL_AREA_STYLE('',(#1618));
#1612=FILL_AREA_STYLE_COLOUR('',#1619);
#1613=FILL_AREA_STYLE_COLOUR('',#1620);
#1614=FILL_AREA_STYLE_COLOUR('',#1621);
#1615=FILL_AREA_STYLE_COLOUR('',#1622);
#1616=FILL_AREA_STYLE_COLOUR('',#1623);
#1617=FILL_AREA_STYLE_COLOUR('',#1624);
#1618=FILL_AREA_STYLE_COLOUR('',#1625);
#1619=COLOUR_RGB('',0.749019607843137,0.749019607843137,0.749019607843137);
#1620=COLOUR_RGB('',1.,0.996078431372549,0.964705882352941);
#1621=COLOUR_RGB('',0.956862745098039,0.956862745098039,0.956862745098039);
#1622=COLOUR_RGB('',0.701960784313725,0.552941176470588,0.00392156862745098);
#1623=COLOUR_RGB('',0.96078431372549,0.96078431372549,0.96078431372549);
#1624=COLOUR_RGB('',0.956862745098039,0.956862745098039,0.956862745098039);
#1625=COLOUR_RGB('',0.898039215686275,0.898039215686275,0.898039215686275);
ENDSEC;
END-ISO-10303-21;
