ISO-10303-21;
HEADER;
FILE_DESCRIPTION (( 'STEP AP214' ),
    '1' );
FILE_NAME ('CUI_PDM2-S12-D15-S.step',
    '2017-11-22T02:17:52',
    ( '' ),
    ( '' ),
    'SwSTEP 2.0',
    'SolidWorks 2017',
    '' );
FILE_SCHEMA (( 'AUTOMOTIVE_DESIGN' ));
ENDSEC;

DATA;
#1 = LINE ( 'NONE', #1199, #621 ) ;
#2 = DIRECTION ( 'NONE',  ( 1.000000000000000000, 0.0000000000000000000, 0.0000000000000000000 ) ) ;
#3 = EDGE_CURVE ( 'NONE', #1151, #41, #152, .T. ) ;
#4 = VECTOR ( 'NONE', #346, 1000.000000000000000 ) ;
#5 = PRESENTATION_LAYER_ASSIGNMENT (  '', '', ( #391 ) ) ;
#6 = SURFACE_SIDE_STYLE ('',( #785 ) ) ;
#7 = VERTEX_POINT ( 'NONE', #612 ) ;
#8 = ORIENTED_EDGE ( 'NONE', *, *, #1293, .F. ) ;
#9 = ORIENTED_EDGE ( 'NONE', *, *, #651, .F. ) ;
#10 = CARTESIAN_POINT ( 'NONE',  ( 0.2500000000000019400, -4.599999999999999600, 1.050000000000000000 ) ) ;
#11 = MECHANICAL_DESIGN_GEOMETRIC_PRESENTATION_REPRESENTATION (  '', ( #462 ), #919 ) ;
#12 = ADVANCED_FACE ( 'NONE', ( #929 ), #803, .F. ) ;
#13 = CARTESIAN_POINT ( 'NONE',  ( -7.869999999999998300, -4.599999999999999600, 1.050000000000000000 ) ) ;
#14 = PRESENTATION_STYLE_ASSIGNMENT (( #493 ) ) ;
#15 =( NAMED_UNIT ( * ) PLANE_ANGLE_UNIT ( ) SI_UNIT ( $, .RADIAN. ) );
#16 =( NAMED_UNIT ( * ) PLANE_ANGLE_UNIT ( ) SI_UNIT ( $, .RADIAN. ) );
#17 = LINE ( 'NONE', #740, #455 ) ;
#18 = DIRECTION ( 'NONE',  ( 0.0000000000000000000, 1.000000000000000000, 0.0000000000000000000 ) ) ;
#19 = ADVANCED_FACE ( 'NONE', ( #424 ), #1145, .F. ) ;
#20 = CARTESIAN_POINT ( 'NONE',  ( -5.329999999999999200, -1.311491168563962200E-032, 1.050000000000000000 ) ) ;
#21 = VERTEX_POINT ( 'NONE', #928 ) ;
#22 = VERTEX_POINT ( 'NONE', #917 ) ;
#23 = DIRECTION ( 'NONE',  ( 1.000000000000000000, 0.0000000000000000000, 0.0000000000000000000 ) ) ;
#24 = PLANE ( 'NONE',  #223 ) ;
#25 = VERTEX_POINT ( 'NONE', #1018 ) ;
#26 = DIRECTION ( 'NONE',  ( -0.0000000000000000000, -1.000000000000000000, -0.0000000000000000000 ) ) ;
#27 = ADVANCED_FACE ( 'NONE', ( #113 ), #1224, .F. ) ;
#28 = VERTEX_POINT ( 'NONE', #933 ) ;
#29 = EDGE_CURVE ( 'NONE', #28, #426, #1187, .T. ) ;
#30 = CARTESIAN_POINT ( 'NONE',  ( -7.824999999999998400, 1.000000000000000000, 7.000000000000000000 ) ) ;
#31 = CARTESIAN_POINT ( 'NONE',  ( 0.2500000000000019400, -4.943908637401553200E-032, 1.050000000000000000 ) ) ;
#32 = CARTESIAN_POINT ( 'NONE',  ( -9.324999999999999300, -0.4999999999999976100, 7.049999999999999800 ) ) ;
#33 = VECTOR ( 'NONE', #157, 1000.000000000000000 ) ;
#34 = DIRECTION ( 'NONE',  ( 1.000000000000000000, 0.0000000000000000000, 0.0000000000000000000 ) ) ;
#35 = CARTESIAN_POINT ( 'NONE',  ( 9.324999999999999300, -0.4999999999999976100, 0.0000000000000000000 ) ) ;
#36 = VECTOR ( 'NONE', #407, 1000.000000000000000 ) ;
#37 = ADVANCED_FACE ( 'NONE', ( #1219 ), #717, .F. ) ;
#38 = DIRECTION ( 'NONE',  ( 0.0000000000000000000, -1.000000000000000000, 0.0000000000000000000 ) ) ;
#39 = LINE ( 'NONE', #361, #663 ) ;
#40 = CARTESIAN_POINT ( 'NONE',  ( -7.869999999999998300, 0.0000000000000000000, 0.7500000000000000000 ) ) ;
#41 = VERTEX_POINT ( 'NONE', #813 ) ;
#42 = CARTESIAN_POINT ( 'NONE',  ( 0.2500000000000019400, -4.599999999999999600, 1.050000000000000000 ) ) ;
#43 = PLANE ( 'NONE',  #1036 ) ;
#44 = EDGE_LOOP ( 'NONE', ( #710, #1012, #749, #1129 ) ) ;
#45 = AXIS2_PLACEMENT_3D ( 'NONE', #30, #406, #1014 ) ;
#46 = DIRECTION ( 'NONE',  ( -0.0000000000000000000, -0.0000000000000000000, -1.000000000000000000 ) ) ;
#47 = CARTESIAN_POINT ( 'NONE',  ( 4.830000000000002700, -4.599999999999999600, 1.050000000000000000 ) ) ;
#48 = EDGE_CURVE ( 'NONE', #170, #495, #379, .T. ) ;
#49 = PRESENTATION_STYLE_ASSIGNMENT (( #705 ) ) ;
#50 = EDGE_CURVE ( 'NONE', #958, #1178, #289, .T. ) ;
#51 = VECTOR ( 'NONE', #1064, 1000.000000000000000 ) ;
#52 =( GEOMETRIC_REPRESENTATION_CONTEXT ( 3 ) GLOBAL_UNCERTAINTY_ASSIGNED_CONTEXT ( ( #848 ) ) GLOBAL_UNIT_ASSIGNED_CONTEXT ( ( #581, #15, #888 ) ) REPRESENTATION_CONTEXT ( 'NONE', 'WORKASPACE' ) );
#53 = CARTESIAN_POINT ( 'NONE',  ( 5.330000000000002700, -6.557455842819812000E-032, 0.7500000000000000000 ) ) ;
#54 = PRESENTATION_STYLE_ASSIGNMENT (( #636 ) ) ;
#55 = PRESENTATION_STYLE_ASSIGNMENT (( #1002 ) ) ;
#56 = CARTESIAN_POINT ( 'NONE',  ( 2.790000000000002700, -4.599999999999999600, 1.050000000000000000 ) ) ;
#57 = CARTESIAN_POINT ( 'NONE',  ( -7.369999999999998300, -4.599999999999999600, 1.050000000000000000 ) ) ;
#58 =( NAMED_UNIT ( * ) SI_UNIT ( $, .STERADIAN. ) SOLID_ANGLE_UNIT ( ) );
#59 = VERTEX_POINT ( 'NONE', #644 ) ;
#60 = EDGE_CURVE ( 'NONE', #193, #645, #1087, .T. ) ;
#61 = ORIENTED_EDGE ( 'NONE', *, *, #129, .T. ) ;
#62 = APPLICATION_PROTOCOL_DEFINITION ( 'draft international standard', 'automotive_design', 1998, #242 ) ;
#63 = DIRECTION ( 'NONE',  ( 0.0000000000000000000, 0.0000000000000000000, -1.000000000000000000 ) ) ;
#64 = ORIENTED_EDGE ( 'NONE', *, *, #50, .T. ) ;
#65 = CARTESIAN_POINT ( 'NONE',  ( 9.324999999999999300, -9.629649721936179300E-032, 7.049999999999999800 ) ) ;
#66 = ORIENTED_EDGE ( 'NONE', *, *, #247, .F. ) ;
#67 = DIRECTION ( 'NONE',  ( 0.0000000000000000000, 1.000000000000000000, 0.0000000000000000000 ) ) ;
#68 = DIRECTION ( 'NONE',  ( -1.000000000000000000, 0.0000000000000000000, 0.0000000000000000000 ) ) ;
#69 = VECTOR ( 'NONE', #970, 1000.000000000000000 ) ;
#70 = FILL_AREA_STYLE_COLOUR ( '', #653 ) ;
#71 = AXIS2_PLACEMENT_3D ( 'NONE', #1001, #1221, #602 ) ;
#72 = CARTESIAN_POINT ( 'NONE',  ( 4.830000000000002700, -4.599999999999999600, 0.7500000000000000000 ) ) ;
#73 = LINE ( 'NONE', #1116, #84 ) ;
#74 = VECTOR ( 'NONE', #1028, 1000.000000000000000 ) ;
#75 =( NAMED_UNIT ( * ) SI_UNIT ( $, .STERADIAN. ) SOLID_ANGLE_UNIT ( ) );
#76 = ORIENTED_EDGE ( 'NONE', *, *, #372, .T. ) ;
#77 = ORIENTED_EDGE ( 'NONE', *, *, #484, .F. ) ;
#78 = CARTESIAN_POINT ( 'NONE',  ( 4.830000000000002700, -4.599999999999999600, 0.7500000000000000000 ) ) ;
#79 = PRESENTATION_LAYER_ASSIGNMENT (  '', '', ( #1024 ) ) ;
#80 = DIRECTION ( 'NONE',  ( 0.0000000000000000000, 0.0000000000000000000, -1.000000000000000000 ) ) ;
#81 = LINE ( 'NONE', #349, #176 ) ;
#82 = FACE_OUTER_BOUND ( 'NONE', #914, .T. ) ;
#83 = CARTESIAN_POINT ( 'NONE',  ( 5.330000000000002700, -4.599999999999999600, 0.7500000000000000000 ) ) ;
#84 = VECTOR ( 'NONE', #233, 1000.000000000000000 ) ;
#85 = LINE ( 'NONE', #1147, #1160 ) ;
#86 = ORIENTED_EDGE ( 'NONE', *, *, #129, .F. ) ;
#87 = ORIENTED_EDGE ( 'NONE', *, *, #1258, .F. ) ;
#88 = EDGE_LOOP ( 'NONE', ( #676, #787, #275, #861 ) ) ;
#89 = LINE ( 'NONE', #1119, #576 ) ;
#90 = CARTESIAN_POINT ( 'NONE',  ( 2.290000000000002300, -4.599999999999999600, 0.7500000000000000000 ) ) ;
#91 = LINE ( 'NONE', #1098, #839 ) ;
#92 = EDGE_CURVE ( 'NONE', #206, #887, #511, .T. ) ;
#93 = CARTESIAN_POINT ( 'NONE',  ( 5.330000000000002700, -4.599999999999999600, 1.050000000000000000 ) ) ;
#94 = VECTOR ( 'NONE', #669, 1000.000000000000000 ) ;
#95 = SURFACE_STYLE_USAGE ( .BOTH. , #1088 ) ;
#96 = VERTEX_POINT ( 'NONE', #348 ) ;
#97 = VERTEX_POINT ( 'NONE', #159 ) ;
#98 = CARTESIAN_POINT ( 'NONE',  ( -5.329999999999999200, -4.599999999999999600, 0.7500000000000000000 ) ) ;
#99 = EDGE_LOOP ( 'NONE', ( #249, #66, #549, #755 ) ) ;
#100 = PLANE ( 'NONE',  #959 ) ;
#101 = PLANE ( 'NONE',  #1052 ) ;
#102 = VERTEX_POINT ( 'NONE', #260 ) ;
#103 = EDGE_LOOP ( 'NONE', ( #1075, #558, #862, #534 ) ) ;
#104 = VERTEX_POINT ( 'NONE', #531 ) ;
#105 = PRESENTATION_LAYER_ASSIGNMENT (  '', '', ( #1213 ) ) ;
#106 = DIRECTION ( 'NONE',  ( 1.000000000000000000, 0.0000000000000000000, 0.0000000000000000000 ) ) ;
#107 = CARTESIAN_POINT ( 'NONE',  ( 9.824999999999999300, 9.660000000000003700, 7.049999999999999800 ) ) ;
#108 = CARTESIAN_POINT ( 'NONE',  ( -7.369999999999998300, 0.0000000000000000000, 0.7500000000000000000 ) ) ;
#109 = EDGE_CURVE ( 'NONE', #847, #573, #943, .T. ) ;
#110 = EDGE_CURVE ( 'NONE', #958, #360, #39, .T. ) ;
#111 = PLANE ( 'NONE',  #662 ) ;
#112 = AXIS2_PLACEMENT_3D ( 'NONE', #479, #880, #377 ) ;
#113 = FACE_OUTER_BOUND ( 'NONE', #230, .T. ) ;
#114 = FILL_AREA_STYLE ('',( #326 ) ) ;
#115 = CARTESIAN_POINT ( 'NONE',  ( -7.369999999999998300, -4.599999999999999600, 0.7500000000000000000 ) ) ;
#116 = VERTEX_POINT ( 'NONE', #727 ) ;
#117 = ORIENTED_EDGE ( 'NONE', *, *, #604, .F. ) ;
#118 = ADVANCED_FACE ( 'NONE', ( #528 ), #851, .F. ) ;
#119 = EDGE_CURVE ( 'NONE', #104, #426, #17, .T. ) ;
#120 = ORIENTED_EDGE ( 'NONE', *, *, #855, .F. ) ;
#121 = CARTESIAN_POINT ( 'NONE',  ( 5.330000000000002700, -4.599999999999999600, 0.7500000000000000000 ) ) ;
#122 = CIRCLE ( 'NONE', #45, 0.2245251101629349200 ) ;
#123 = LINE ( 'NONE', #317, #33 ) ;
#124 = DIRECTION ( 'NONE',  ( 1.000000000000000000, 0.0000000000000000000, 0.0000000000000000000 ) ) ;
#125 = LINE ( 'NONE', #374, #450 ) ;
#126 = ADVANCED_FACE ( 'NONE', ( #753 ), #352, .F. ) ;
#127 = DIRECTION ( 'NONE',  ( 0.0000000000000000000, 0.0000000000000000000, 1.000000000000000000 ) ) ;
#128 = VECTOR ( 'NONE', #1084, 1000.000000000000000 ) ;
#129 = EDGE_CURVE ( 'NONE', #573, #206, #438, .T. ) ;
#130 = PLANE ( 'NONE',  #384 ) ;
#131 = FILL_AREA_STYLE ('',( #222 ) ) ;
#132 = ORIENTED_EDGE ( 'NONE', *, *, #267, .T. ) ;
#133 = ADVANCED_FACE ( 'NONE', ( #845 ), #246, .T. ) ;
#134 = ORIENTED_EDGE ( 'NONE', *, *, #1273, .F. ) ;
#135 = DIRECTION ( 'NONE',  ( 0.0000000000000000000, 0.0000000000000000000, 1.000000000000000000 ) ) ;
#136 = CARTESIAN_POINT ( 'NONE',  ( -0.2499999999999985000, -4.599999999999999600, 1.050000000000000000 ) ) ;
#137 = ORIENTED_EDGE ( 'NONE', *, *, #191, .F. ) ;
#138 = DIRECTION ( 'NONE',  ( -1.000000000000000000, -0.0000000000000000000, -0.0000000000000000000 ) ) ;
#139 = ORIENTED_EDGE ( 'NONE', *, *, #92, .F. ) ;
#140 = EDGE_LOOP ( 'NONE', ( #276, #945, #937, #664 ) ) ;
#141 = EDGE_CURVE ( 'NONE', #251, #572, #85, .T. ) ;
#142 = CARTESIAN_POINT ( 'NONE',  ( 0.0000000000000000000, 0.0000000000000000000, 0.0000000000000000000 ) ) ;
#143 = CARTESIAN_POINT ( 'NONE',  ( -0.2499999999999985000, -4.599999999999999600, 1.050000000000000000 ) ) ;
#144 = LINE ( 'NONE', #40, #837 ) ;
#145 = PRESENTATION_LAYER_ASSIGNMENT (  '', '', ( #333 ) ) ;
#146 = DIRECTION ( 'NONE',  ( 1.000000000000000000, 0.0000000000000000000, 0.0000000000000000000 ) ) ;
#147 = FACE_OUTER_BOUND ( 'NONE', #459, .T. ) ;
#148 = VECTOR ( 'NONE', #523, 1000.000000000000000 ) ;
#149 = VECTOR ( 'NONE', #287, 1000.000000000000000 ) ;
#150 = CARTESIAN_POINT ( 'NONE',  ( -9.824999999999999300, -0.4999999999999976100, 7.049999999999999800 ) ) ;
#151 = FACE_OUTER_BOUND ( 'NONE', #1076, .T. ) ;
#152 = LINE ( 'NONE', #503, #1175 ) ;
#153 = PRODUCT_CONTEXT ( 'NONE', #242, 'mechanical' ) ;
#154 = CARTESIAN_POINT ( 'NONE',  ( -0.2499999999999985000, -3.934473505691887000E-032, 0.7500000000000000000 ) ) ;
#155 = ORIENTED_EDGE ( 'NONE', *, *, #544, .F. ) ;
#156 = DIRECTION ( 'NONE',  ( -1.000000000000000000, 0.0000000000000000000, 0.0000000000000000000 ) ) ;
#157 = DIRECTION ( 'NONE',  ( 0.0000000000000000000, 0.0000000000000000000, 1.000000000000000000 ) ) ;
#158 = ORIENTED_EDGE ( 'NONE', *, *, #532, .F. ) ;
#159 = CARTESIAN_POINT ( 'NONE',  ( -0.2499999999999985000, -4.599999999999999600, 0.7500000000000000000 ) ) ;
#160 = ORIENTED_EDGE ( 'NONE', *, *, #575, .T. ) ;
#161 = CARTESIAN_POINT ( 'NONE',  ( 4.830000000000002700, -4.599999999999999600, 1.050000000000000000 ) ) ;
#162 = MECHANICAL_DESIGN_GEOMETRIC_PRESENTATION_REPRESENTATION (  '', ( #1142 ), #1093 ) ;
#163 = CARTESIAN_POINT ( 'NONE',  ( -7.869999999999998300, -4.599999999999999600, 1.050000000000000000 ) ) ;
#164 = LINE ( 'NONE', #675, #1139 ) ;
#165 = FACE_OUTER_BOUND ( 'NONE', #1292, .T. ) ;
#166 = CARTESIAN_POINT ( 'NONE',  ( 2.290000000000002300, -5.997232253098593500E-032, 1.050000000000000000 ) ) ;
#167 = DIRECTION ( 'NONE',  ( -1.000000000000000000, -0.0000000000000000000, -0.0000000000000000000 ) ) ;
#168 = SURFACE_STYLE_FILL_AREA ( #948 ) ;
#169 = EDGE_CURVE ( 'NONE', #495, #25, #1287, .T. ) ;
#170 = VERTEX_POINT ( 'NONE', #938 ) ;
#171 = CARTESIAN_POINT ( 'NONE',  ( -9.324999999999999300, 0.0000000000000000000, 7.049999999999999800 ) ) ;
#172 = ORIENTED_EDGE ( 'NONE', *, *, #141, .F. ) ;
#173 = ORIENTED_EDGE ( 'NONE', *, *, #632, .T. ) ;
#174 = DIRECTION ( 'NONE',  ( 0.0000000000000000000, 1.000000000000000000, 0.0000000000000000000 ) ) ;
#175 = DIRECTION ( 'NONE',  ( 0.0000000000000000000, 0.0000000000000000000, 1.000000000000000000 ) ) ;
#176 = VECTOR ( 'NONE', #266, 1000.000000000000000 ) ;
#177 = VECTOR ( 'NONE', #758, 1000.000000000000000 ) ;
#178 = VECTOR ( 'NONE', #1058, 1000.000000000000000 ) ;
#179 = PRESENTATION_LAYER_ASSIGNMENT (  '', '', ( #462 ) ) ;
#180 = LINE ( 'NONE', #83, #492 ) ;
#181 = EDGE_CURVE ( 'NONE', #1046, #22, #972, .T. ) ;
#182 = CARTESIAN_POINT ( 'NONE',  ( 4.830000000000002700, -4.599999999999999600, 0.7500000000000000000 ) ) ;
#183 = AXIS2_PLACEMENT_3D ( 'NONE', #714, #335, #156 ) ;
#184 = ORIENTED_EDGE ( 'NONE', *, *, #1118, .T. ) ;
#185 = AXIS2_PLACEMENT_3D ( 'NONE', #399, #504, #680 ) ;
#186 = DIRECTION ( 'NONE',  ( -1.000000000000000000, 0.0000000000000000000, 0.0000000000000000000 ) ) ;
#187 = MANIFOLD_SOLID_BREP ( 'LPattern2', #1262 ) ;
#188 = EDGE_CURVE ( 'NONE', #645, #684, #265, .T. ) ;
#189 = LINE ( 'NONE', #998, #274 ) ;
#190 = FILL_AREA_STYLE_COLOUR ( '', #1003 ) ;
#191 = EDGE_CURVE ( 'NONE', #946, #745, #766, .T. ) ;
#192 = CARTESIAN_POINT ( 'NONE',  ( -0.2499999999999985000, -4.685741084534629900E-032, 0.7499999999999997800 ) ) ;
#193 = VERTEX_POINT ( 'NONE', #472 ) ;
#194 =( LENGTH_UNIT ( ) NAMED_UNIT ( * ) SI_UNIT ( .MILLI., .METRE. ) );
#195 = EDGE_LOOP ( 'NONE', ( #977, #444, #1097, #1202 ) ) ;
#196 = EDGE_LOOP ( 'NONE', ( #530, #907, #358, #1027 ) ) ;
#197 =( NAMED_UNIT ( * ) SI_UNIT ( $, .STERADIAN. ) SOLID_ANGLE_UNIT ( ) );
#198 = DIRECTION ( 'NONE',  ( 0.0000000000000000000, 0.0000000000000000000, 1.000000000000000000 ) ) ;
#199 = CARTESIAN_POINT ( 'NONE',  ( 2.790000000000002700, -4.599999999999999600, 0.7500000000000000000 ) ) ;
#200 = EDGE_CURVE ( 'NONE', #1203, #25, #1272, .T. ) ;
#201 = DIRECTION ( 'NONE',  ( 0.0000000000000000000, 1.000000000000000000, 0.0000000000000000000 ) ) ;
#202 = VECTOR ( 'NONE', #826, 1000.000000000000000 ) ;
#203 = AXIS2_PLACEMENT_3D ( 'NONE', #1099, #18, #1105 ) ;
#204 = VECTOR ( 'NONE', #618, 1000.000000000000000 ) ;
#205 = FILL_AREA_STYLE ('',( #1194 ) ) ;
#206 = VERTEX_POINT ( 'NONE', #182 ) ;
#207 = CARTESIAN_POINT ( 'NONE',  ( 2.290000000000002300, -4.599999999999999600, 1.050000000000000000 ) ) ;
#208 = CARTESIAN_POINT ( 'NONE',  ( -7.369999999999998300, -4.599999999999999600, 1.050000000000000000 ) ) ;
#209 = EDGE_LOOP ( 'NONE', ( #551, #278, #716, #795 ) ) ;
#210 = ADVANCED_FACE ( 'NONE', ( #1253 ), #101, .F. ) ;
#211 = DIRECTION ( 'NONE',  ( 1.000000000000000000, 0.0000000000000000000, 0.0000000000000000000 ) ) ;
#212 = DIRECTION ( 'NONE',  ( 0.0000000000000000000, -1.000000000000000000, 0.0000000000000000000 ) ) ;
#213 = ORIENTED_EDGE ( 'NONE', *, *, #496, .F. ) ;
#214 = CARTESIAN_POINT ( 'NONE',  ( 9.324999999999999300, -0.4999999999999976100, 0.0000000000000000000 ) ) ;
#215 = DIRECTION ( 'NONE',  ( 0.0000000000000000000, 1.000000000000000000, 0.0000000000000000000 ) ) ;
#216 = ADVANCED_FACE ( 'NONE', ( #1185 ), #963, .F. ) ;
#217 = CARTESIAN_POINT ( 'NONE',  ( -5.329999999999999200, -4.599999999999999600, 0.7500000000000000000 ) ) ;
#218 = LINE ( 'NONE', #20, #723 ) ;
#219 = LINE ( 'NONE', #150, #804 ) ;
#220 = DIRECTION ( 'NONE',  ( 0.0000000000000000000, 0.0000000000000000000, -1.000000000000000000 ) ) ;
#221 = FACE_OUTER_BOUND ( 'NONE', #1045, .T. ) ;
#222 = FILL_AREA_STYLE_COLOUR ( '', #1000 ) ;
#223 = AXIS2_PLACEMENT_3D ( 'NONE', #1209, #603, #585 ) ;
#224 = ADVANCED_FACE ( 'NONE', ( #165 ), #1061, .F. ) ;
#225 = CARTESIAN_POINT ( 'NONE',  ( -0.2499999999999985000, -3.934473505691887000E-032, 1.050000000000000000 ) ) ;
#226 = ORIENTED_EDGE ( 'NONE', *, *, #1118, .F. ) ;
#227 = UNCERTAINTY_MEASURE_WITH_UNIT (LENGTH_MEASURE( 1.000000000000000100E-005 ), #1168, 'distance_accuracy_value', 'NONE');
#228 = FILL_AREA_STYLE_COLOUR ( '', #802 ) ;
#229 = ORIENTED_EDGE ( 'NONE', *, *, #660, .F. ) ;
#230 = EDGE_LOOP ( 'NONE', ( #1133, #1226, #226, #76 ) ) ;
#231 = EDGE_CURVE ( 'NONE', #1189, #1050, #904, .T. ) ;
#232 = CARTESIAN_POINT ( 'NONE',  ( -9.824999999999999300, -0.4999999999999976100, 0.0000000000000000000 ) ) ;
#233 = DIRECTION ( 'NONE',  ( 1.000000000000000000, 0.0000000000000000000, 0.0000000000000000000 ) ) ;
#234 = ADVANCED_FACE ( 'NONE', ( #841 ), #649, .T. ) ;
#235 = DIRECTION ( 'NONE',  ( 1.000000000000000000, 0.0000000000000000000, 0.0000000000000000000 ) ) ;
#236 = LINE ( 'NONE', #647, #366 ) ;
#237 = DIRECTION ( 'NONE',  ( 0.0000000000000000000, -1.000000000000000000, 0.0000000000000000000 ) ) ;
#238 = CLOSED_SHELL ( 'NONE', ( #126, #118, #302, #414, #1109, #12 ) ) ;
#239 = FILL_AREA_STYLE ('',( #243 ) ) ;
#240 = DIRECTION ( 'NONE',  ( 0.0000000000000000000, 0.0000000000000000000, 1.000000000000000000 ) ) ;
#241 = ORIENTED_EDGE ( 'NONE', *, *, #594, .F. ) ;
#242 = APPLICATION_CONTEXT ( 'automotive_design' ) ;
#243 = FILL_AREA_STYLE_COLOUR ( '', #524 ) ;
#244 = VECTOR ( 'NONE', #748, 1000.000000000000000 ) ;
#245 = LINE ( 'NONE', #1120, #822 ) ;
#246 = PLANE ( 'NONE',  #864 ) ;
#247 = EDGE_CURVE ( 'NONE', #59, #439, #1237, .T. ) ;
#248 = SURFACE_SIDE_STYLE ('',( #393 ) ) ;
#249 = ORIENTED_EDGE ( 'NONE', *, *, #951, .F. ) ;
#250 = DIRECTION ( 'NONE',  ( -1.000000000000000000, 0.0000000000000000000, 0.0000000000000000000 ) ) ;
#251 = VERTEX_POINT ( 'NONE', #199 ) ;
#252 = STYLED_ITEM ( 'NONE', ( #920 ), #1070 ) ;
#253 = ORIENTED_EDGE ( 'NONE', *, *, #181, .F. ) ;
#254 = ORIENTED_EDGE ( 'NONE', *, *, #515, .T. ) ;
#255 = DIRECTION ( 'NONE',  ( 0.0000000000000000000, 0.0000000000000000000, 1.000000000000000000 ) ) ;
#256 = DIRECTION ( 'NONE',  ( -1.000000000000000000, -0.0000000000000000000, -0.0000000000000000000 ) ) ;
#257 = EDGE_LOOP ( 'NONE', ( #991, #1114, #253, #1278 ) ) ;
#258 = FILL_AREA_STYLE ('',( #1260 ) ) ;
#259 = SURFACE_STYLE_FILL_AREA ( #239 ) ;
#260 = CARTESIAN_POINT ( 'NONE',  ( 2.790000000000002700, -6.255399805965514100E-032, 1.050000000000000000 ) ) ;
#261 = UNCERTAINTY_MEASURE_WITH_UNIT (LENGTH_MEASURE( 1.000000000000000100E-005 ), #344, 'distance_accuracy_value', 'NONE');
#262 = VECTOR ( 'NONE', #670, 1000.000000000000000 ) ;
#263 = VECTOR ( 'NONE', #1231, 1000.000000000000000 ) ;
#264 = DIRECTION ( 'NONE',  ( 0.0000000000000000000, 1.000000000000000000, 0.0000000000000000000 ) ) ;
#265 = LINE ( 'NONE', #954, #4 ) ;
#266 = DIRECTION ( 'NONE',  ( 0.0000000000000000000, 0.0000000000000000000, 1.000000000000000000 ) ) ;
#267 = EDGE_CURVE ( 'NONE', #887, #1059, #180, .T. ) ;
#268 = ORIENTED_EDGE ( 'NONE', *, *, #247, .T. ) ;
#269 = ORIENTED_EDGE ( 'NONE', *, *, #92, .T. ) ;
#270 = DIRECTION ( 'NONE',  ( -0.0000000000000000000, -0.0000000000000000000, -1.000000000000000000 ) ) ;
#271 = ORIENTED_EDGE ( 'NONE', *, *, #1218, .T. ) ;
#272 = ORIENTED_EDGE ( 'NONE', *, *, #308, .F. ) ;
#273 = DIRECTION ( 'NONE',  ( 0.0000000000000000000, 0.0000000000000000000, -1.000000000000000000 ) ) ;
#274 = VECTOR ( 'NONE', #316, 1000.000000000000000 ) ;
#275 = ORIENTED_EDGE ( 'NONE', *, *, #823, .F. ) ;
#276 = ORIENTED_EDGE ( 'NONE', *, *, #561, .T. ) ;
#277 = CARTESIAN_POINT ( 'NONE',  ( 0.2500000000000019400, -4.599999999999999600, 0.7500000000000000000 ) ) ;
#278 = ORIENTED_EDGE ( 'NONE', *, *, #443, .F. ) ;
#279 = AXIS2_PLACEMENT_3D ( 'NONE', #1055, #433, #1155 ) ;
#280 = ORIENTED_EDGE ( 'NONE', *, *, #188, .T. ) ;
#281 = CARTESIAN_POINT ( 'NONE',  ( -5.329999999999999200, -4.599999999999999600, 1.050000000000000000 ) ) ;
#282 = DIRECTION ( 'NONE',  ( 1.000000000000000000, -5.163351057338433900E-033, 0.0000000000000000000 ) ) ;
#283 = ORIENTED_EDGE ( 'NONE', *, *, #50, .F. ) ;
#284 = VECTOR ( 'NONE', #480, 1000.000000000000000 ) ;
#285 = EDGE_CURVE ( 'NONE', #22, #1059, #674, .T. ) ;
#286 = LINE ( 'NONE', #779, #940 ) ;
#287 = DIRECTION ( 'NONE',  ( 1.000000000000000000, 0.0000000000000000000, 0.0000000000000000000 ) ) ;
#288 = FACE_BOUND ( 'NONE', #1110, .T. ) ;
#289 = LINE ( 'NONE', #1137, #204 ) ;
#290 = ORIENTED_EDGE ( 'NONE', *, *, #1020, .F. ) ;
#291 = ORIENTED_EDGE ( 'NONE', *, *, #267, .F. ) ;
#292 = PLANE ( 'NONE',  #1270 ) ;
#293 = VERTEX_POINT ( 'NONE', #207 ) ;
#294 = VERTEX_POINT ( 'NONE', #107 ) ;
#295 = PRESENTATION_LAYER_ASSIGNMENT (  '', '', ( #252 ) ) ;
#296 = FILL_AREA_STYLE_COLOUR ( '', #825 ) ;
#297 = SURFACE_STYLE_FILL_AREA ( #924 ) ;
#298 = CARTESIAN_POINT ( 'NONE',  ( 9.324999999999999300, -9.629649721936179300E-032, 0.0000000000000000000 ) ) ;
#299 = EDGE_CURVE ( 'NONE', #732, #1189, #622, .T. ) ;
#300 = COLOUR_RGB ( '',0.2509803921568627400, 0.2509803921568627400, 0.2509803921568627400 ) ;
#301 = CARTESIAN_POINT ( 'NONE',  ( 4.830000000000002700, -6.557455842819812000E-032, 1.050000000000000000 ) ) ;
#302 = ADVANCED_FACE ( 'NONE', ( #151 ), #909, .F. ) ;
#303 = CARTESIAN_POINT ( 'NONE',  ( -9.824999999999999300, -0.4999999999999976100, 7.049999999999999800 ) ) ;
#304 = VECTOR ( 'NONE', #547, 1000.000000000000000 ) ;
#305 =( NAMED_UNIT ( * ) PLANE_ANGLE_UNIT ( ) SI_UNIT ( $, .RADIAN. ) );
#306 = EDGE_LOOP ( 'NONE', ( #254, #347, #679, #325 ) ) ;
#307 = ORIENTED_EDGE ( 'NONE', *, *, #697, .T. ) ;
#308 = EDGE_CURVE ( 'NONE', #552, #946, #73, .T. ) ;
#309 = ORIENTED_EDGE ( 'NONE', *, *, #3, .T. ) ;
#310 = DIRECTION ( 'NONE',  ( -1.000000000000000000, 0.0000000000000000000, 0.0000000000000000000 ) ) ;
#311 = ADVANCED_FACE ( 'NONE', ( #872 ), #487, .F. ) ;
#312 = DIRECTION ( 'NONE',  ( 0.0000000000000000000, 0.0000000000000000000, 1.000000000000000000 ) ) ;
#313 = EDGE_LOOP ( 'NONE', ( #1082, #846, #241, #1290 ) ) ;
#314 = AXIS2_PLACEMENT_3D ( 'NONE', #590, #806, #1208 ) ;
#315 = CARTESIAN_POINT ( 'NONE',  ( 2.290000000000002300, -4.599999999999999600, 1.050000000000000000 ) ) ;
#316 = DIRECTION ( 'NONE',  ( 0.0000000000000000000, 1.000000000000000000, 0.0000000000000000000 ) ) ;
#317 = CARTESIAN_POINT ( 'NONE',  ( -8.049525110162932200, 1.000000000000000000, 7.000000000000000000 ) ) ;
#318 = EDGE_CURVE ( 'NONE', #835, #1177, #1252, .T. ) ;
#319 = LINE ( 'NONE', #298, #1019 ) ;
#320 = ADVANCED_FACE ( 'NONE', ( #466 ), #24, .F. ) ;
#321 = VECTOR ( 'NONE', #255, 1000.000000000000000 ) ;
#322 = DIRECTION ( 'NONE',  ( 0.0000000000000000000, 0.0000000000000000000, -1.000000000000000000 ) ) ;
#323 = DIRECTION ( 'NONE',  ( 0.0000000000000000000, 0.0000000000000000000, -1.000000000000000000 ) ) ;
#324 =( GEOMETRIC_REPRESENTATION_CONTEXT ( 3 ) GLOBAL_UNCERTAINTY_ASSIGNED_CONTEXT ( ( #261 ) ) GLOBAL_UNIT_ASSIGNED_CONTEXT ( ( #344, #331, #421 ) ) REPRESENTATION_CONTEXT ( 'NONE', 'WORKASPACE' ) );
#325 = ORIENTED_EDGE ( 'NONE', *, *, #141, .T. ) ;
#326 = FILL_AREA_STYLE_COLOUR ( '', #798 ) ;
#327 = DIRECTION ( 'NONE',  ( 0.0000000000000000000, 1.000000000000000000, 0.0000000000000000000 ) ) ;
#328 = ADVANCED_FACE ( 'NONE', ( #221 ), #903, .F. ) ;
#329 = ORIENTED_EDGE ( 'NONE', *, *, #435, .T. ) ;
#330 = EDGE_CURVE ( 'NONE', #834, #102, #885, .T. ) ;
#331 =( NAMED_UNIT ( * ) PLANE_ANGLE_UNIT ( ) SI_UNIT ( $, .RADIAN. ) );
#332 = CARTESIAN_POINT ( 'NONE',  ( 2.790000000000002700, -5.245964674255848900E-032, 0.7500000000000000000 ) ) ;
#333 = STYLED_ITEM ( 'NONE', ( #54 ), #598 ) ;
#334 = PRODUCT_DEFINITION_CONTEXT ( 'detailed design', #931, 'design' ) ;
#335 = DIRECTION ( 'NONE',  ( 0.0000000000000000000, 0.0000000000000000000, -1.000000000000000000 ) ) ;
#336 =( LENGTH_UNIT ( ) NAMED_UNIT ( * ) SI_UNIT ( .MILLI., .METRE. ) );
#337 = CARTESIAN_POINT ( 'NONE',  ( 4.830000000000002700, -4.599999999999999600, 1.050000000000000000 ) ) ;
#338 = LINE ( 'NONE', #90, #1068 ) ;
#339 = VECTOR ( 'NONE', #1015, 1000.000000000000000 ) ;
#340 = CARTESIAN_POINT ( 'NONE',  ( 9.324999999999999300, -0.4999999999999976100, 7.049999999999999800 ) ) ;
#341 = SURFACE_SIDE_STYLE ('',( #259 ) ) ;
#342 = AXIS2_PLACEMENT_3D ( 'NONE', #1266, #68, #852 ) ;
#343 = ORIENTED_EDGE ( 'NONE', *, *, #110, .T. ) ;
#344 =( LENGTH_UNIT ( ) NAMED_UNIT ( * ) SI_UNIT ( .MILLI., .METRE. ) );
#345 = ORIENTED_EDGE ( 'NONE', *, *, #738, .F. ) ;
#346 = DIRECTION ( 'NONE',  ( 0.0000000000000000000, 1.000000000000000000, 0.0000000000000000000 ) ) ;
#347 = ORIENTED_EDGE ( 'NONE', *, *, #330, .F. ) ;
#348 = CARTESIAN_POINT ( 'NONE',  ( -7.369999999999998300, 0.0000000000000000000, 1.050000000000000000 ) ) ;
#349 = CARTESIAN_POINT ( 'NONE',  ( 0.2500000000000019400, -4.599999999999999600, 1.050000000000000000 ) ) ;
#350 = LINE ( 'NONE', #93, #69 ) ;
#351 = PRESENTATION_STYLE_ASSIGNMENT (( #1263 ) ) ;
#352 = PLANE ( 'NONE',  #1039 ) ;
#353 = CARTESIAN_POINT ( 'NONE',  ( -9.824999999999999300, -0.4999999999999976100, 7.049999999999999800 ) ) ;
#354 = EDGE_CURVE ( 'NONE', #360, #746, #783, .T. ) ;
#355 = VECTOR ( 'NONE', #1240, 1000.000000000000000 ) ;
#356 = SURFACE_SIDE_STYLE ('',( #168 ) ) ;
#357 = EDGE_LOOP ( 'NONE', ( #1094, #155, #548, #64 ) ) ;
#358 = ORIENTED_EDGE ( 'NONE', *, *, #1091, .T. ) ;
#359 = DIRECTION ( 'NONE',  ( 0.0000000000000000000, 1.000000000000000000, 0.0000000000000000000 ) ) ;
#360 = VERTEX_POINT ( 'NONE', #1008 ) ;
#361 = CARTESIAN_POINT ( 'NONE',  ( 9.324999999999999300, -9.629649721936179300E-032, 7.049999999999999800 ) ) ;
#362 = ORIENTED_EDGE ( 'NONE', *, *, #109, .F. ) ;
#363 = LINE ( 'NONE', #315, #1117 ) ;
#364 = VECTOR ( 'NONE', #419, 1000.000000000000000 ) ;
#365 = FILL_AREA_STYLE_COLOUR ( '', #742 ) ;
#366 = VECTOR ( 'NONE', #264, 1000.000000000000000 ) ;
#367 = LINE ( 'NONE', #926, #859 ) ;
#368 = CARTESIAN_POINT ( 'NONE',  ( -7.869999999999998300, -4.599999999999999600, 1.050000000000000000 ) ) ;
#369 = EDGE_LOOP ( 'NONE', ( #1095, #213 ) ) ;
#370 = VERTEX_POINT ( 'NONE', #413 ) ;
#371 = ORIENTED_EDGE ( 'NONE', *, *, #378, .T. ) ;
#372 = EDGE_CURVE ( 'NONE', #41, #893, #1, .T. ) ;
#373 = LINE ( 'NONE', #777, #284 ) ;
#374 = CARTESIAN_POINT ( 'NONE',  ( -9.824999999999999300, -0.4999999999999976100, 7.049999999999999800 ) ) ;
#375 = FACE_OUTER_BOUND ( 'NONE', #877, .T. ) ;
#376 = LINE ( 'NONE', #1078, #128 ) ;
#377 = DIRECTION ( 'NONE',  ( -1.000000000000000000, 0.0000000000000000000, 0.0000000000000000000 ) ) ;
#378 = EDGE_CURVE ( 'NONE', #294, #495, #1215, .T. ) ;
#379 = LINE ( 'NONE', #1235, #355 ) ;
#380 = ORIENTED_EDGE ( 'NONE', *, *, #855, .T. ) ;
#381 = ORIENTED_EDGE ( 'NONE', *, *, #109, .T. ) ;
#382 = DIRECTION ( 'NONE',  ( 0.0000000000000000000, 0.0000000000000000000, -1.000000000000000000 ) ) ;
#383 = EDGE_LOOP ( 'NONE', ( #1031, #876, #832, #478 ) ) ;
#384 = AXIS2_PLACEMENT_3D ( 'NONE', #303, #23, #800 ) ;
#385 = ORIENTED_EDGE ( 'NONE', *, *, #354, .T. ) ;
#386 = CARTESIAN_POINT ( 'NONE',  ( -9.324999999999999300, -0.4999999999999976100, 7.049999999999999800 ) ) ;
#387 = DIRECTION ( 'NONE',  ( 1.000000000000000000, 0.0000000000000000000, 0.0000000000000000000 ) ) ;
#388 = EDGE_CURVE ( 'NONE', #97, #1177, #189, .T. ) ;
#389 = DIRECTION ( 'NONE',  ( -1.000000000000000000, -0.0000000000000000000, -0.0000000000000000000 ) ) ;
#390 = LINE ( 'NONE', #700, #542 ) ;
#391 = STYLED_ITEM ( 'NONE', ( #351 ), #611 ) ;
#392 = LINE ( 'NONE', #440, #451 ) ;
#393 = SURFACE_STYLE_FILL_AREA ( #842 ) ;
#394 = CARTESIAN_POINT ( 'NONE',  ( -4.829999999999997400, -4.599999999999999600, 1.050000000000000000 ) ) ;
#395 = DIRECTION ( 'NONE',  ( 0.0000000000000000000, 0.0000000000000000000, 1.000000000000000000 ) ) ;
#396 = CARTESIAN_POINT ( 'NONE',  ( 2.290000000000002300, -4.599999999999999600, 1.050000000000000000 ) ) ;
#397 = DIRECTION ( 'NONE',  ( 1.000000000000000000, 0.0000000000000000000, 0.0000000000000000000 ) ) ;
#398 = VERTEX_POINT ( 'NONE', #1013 ) ;
#399 = CARTESIAN_POINT ( 'NONE',  ( 9.824999999999999300, -0.4999999999999976100, 7.049999999999999800 ) ) ;
#400 = EDGE_LOOP ( 'NONE', ( #591, #1276, #637, #132 ) ) ;
#401 = EDGE_LOOP ( 'NONE', ( #889, #699, #417, #533 ) ) ;
#402 = DIRECTION ( 'NONE',  ( -1.000000000000000000, -0.0000000000000000000, -0.0000000000000000000 ) ) ;
#403 = CARTESIAN_POINT ( 'NONE',  ( 9.324999999999999300, -0.4999999999999976100, 7.049999999999999800 ) ) ;
#404 = FILL_AREA_STYLE ('',( #228 ) ) ;
#405 = EDGE_CURVE ( 'NONE', #745, #96, #245, .T. ) ;
#406 = DIRECTION ( 'NONE',  ( 0.0000000000000000000, 0.0000000000000000000, 1.000000000000000000 ) ) ;
#407 = DIRECTION ( 'NONE',  ( 1.000000000000000000, 0.0000000000000000000, 0.0000000000000000000 ) ) ;
#408 = SURFACE_STYLE_FILL_AREA ( #562 ) ;
#409 = CARTESIAN_POINT ( 'NONE',  ( -9.824999999999999300, 9.660000000000003700, 7.049999999999999800 ) ) ;
#410 = AXIS2_PLACEMENT_3D ( 'NONE', #899, #1222, #211 ) ;
#411 = CARTESIAN_POINT ( 'NONE',  ( -7.824999999999998400, 1.000000000000000000, 7.000000000000000000 ) ) ;
#412 = VECTOR ( 'NONE', #1159, 1000.000000000000000 ) ;
#413 = CARTESIAN_POINT ( 'NONE',  ( -4.829999999999997400, -2.320926300273627300E-032, 1.050000000000000000 ) ) ;
#414 = ADVANCED_FACE ( 'NONE', ( #464 ), #778, .F. ) ;
#415 = ORIENTED_EDGE ( 'NONE', *, *, #29, .F. ) ;
#416 = EDGE_CURVE ( 'NONE', #518, #21, #1236, .T. ) ;
#417 = ORIENTED_EDGE ( 'NONE', *, *, #1038, .F. ) ;
#418 = DIRECTION ( 'NONE',  ( 0.0000000000000000000, 1.000000000000000000, 0.0000000000000000000 ) ) ;
#419 = DIRECTION ( 'NONE',  ( 1.000000000000000000, 0.0000000000000000000, 0.0000000000000000000 ) ) ;
#420 = FACE_OUTER_BOUND ( 'NONE', #401, .T. ) ;
#421 =( NAMED_UNIT ( * ) SI_UNIT ( $, .STERADIAN. ) SOLID_ANGLE_UNIT ( ) );
#422 = DIRECTION ( 'NONE',  ( 0.0000000000000000000, 0.0000000000000000000, 1.000000000000000000 ) ) ;
#423 = VECTOR ( 'NONE', #634, 1000.000000000000000 ) ;
#424 = FACE_OUTER_BOUND ( 'NONE', #99, .T. ) ;
#425 = CARTESIAN_POINT ( 'NONE',  ( 9.824999999999999300, -0.4999999999999976100, 7.049999999999999800 ) ) ;
#426 = VERTEX_POINT ( 'NONE', #31 ) ;
#427 = ORIENTED_EDGE ( 'NONE', *, *, #1207, .F. ) ;
#428 = DIRECTION ( 'NONE',  ( 0.0000000000000000000, 0.0000000000000000000, 1.000000000000000000 ) ) ;
#429 = CARTESIAN_POINT ( 'NONE',  ( -7.824999999999998400, 1.000000000000000000, 7.049999999999999800 ) ) ;
#430 = DIRECTION ( 'NONE',  ( 0.0000000000000000000, 0.0000000000000000000, -1.000000000000000000 ) ) ;
#431 = SURFACE_STYLE_USAGE ( .BOTH. , #341 ) ;
#432 = APPLICATION_PROTOCOL_DEFINITION ( 'draft international standard', 'automotive_design', 1998, #931 ) ;
#433 = DIRECTION ( 'NONE',  ( 5.163351057338433900E-033, 1.000000000000000000, 0.0000000000000000000 ) ) ;
#434 = CARTESIAN_POINT ( 'NONE',  ( -9.824999999999999300, 9.660000000000003700, 7.049999999999999800 ) ) ;
#435 = EDGE_CURVE ( 'NONE', #729, #1190, #707, .T. ) ;
#436 = PRESENTATION_STYLE_ASSIGNMENT (( #993 ) ) ;
#437 = STYLED_ITEM ( 'NONE', ( #1174 ), #234 ) ;
#438 = LINE ( 'NONE', #538, #709 ) ;
#439 = VERTEX_POINT ( 'NONE', #1244 ) ;
#440 = CARTESIAN_POINT ( 'NONE',  ( -4.829999999999997400, -4.599999999999999600, 1.050000000000000000 ) ) ;
#441 = ORIENTED_EDGE ( 'NONE', *, *, #667, .T. ) ;
#442 = CARTESIAN_POINT ( 'NONE',  ( 4.830000000000002700, -6.557455842819812000E-032, 1.050000000000000000 ) ) ;
#443 = EDGE_CURVE ( 'NONE', #458, #835, #1023, .T. ) ;
#444 = ORIENTED_EDGE ( 'NONE', *, *, #711, .F. ) ;
#445 =( NAMED_UNIT ( * ) PLANE_ANGLE_UNIT ( ) SI_UNIT ( $, .RADIAN. ) );
#446 =( GEOMETRIC_REPRESENTATION_CONTEXT ( 3 ) GLOBAL_UNCERTAINTY_ASSIGNED_CONTEXT ( ( #968 ) ) GLOBAL_UNIT_ASSIGNED_CONTEXT ( ( #526, #1248, #58 ) ) REPRESENTATION_CONTEXT ( 'NONE', 'WORKASPACE' ) );
#447 =( NAMED_UNIT ( * ) PLANE_ANGLE_UNIT ( ) SI_UNIT ( $, .RADIAN. ) );
#448 = LINE ( 'NONE', #232, #854 ) ;
#449 = LINE ( 'NONE', #521, #364 ) ;
#450 = VECTOR ( 'NONE', #26, 1000.000000000000000 ) ;
#451 = VECTOR ( 'NONE', #359, 1000.000000000000000 ) ;
#452 = SURFACE_STYLE_USAGE ( .BOTH. , #1067 ) ;
#453 = CIRCLE ( 'NONE', #578, 0.2245251101629349200 ) ;
#454 = EDGE_CURVE ( 'NONE', #1079, #193, #219, .T. ) ;
#455 = VECTOR ( 'NONE', #1261, 1000.000000000000000 ) ;
#456 = MECHANICAL_DESIGN_GEOMETRIC_PRESENTATION_REPRESENTATION (  '', ( #1024 ), #519 ) ;
#457 = VERTEX_POINT ( 'NONE', #35 ) ;
#458 = VERTEX_POINT ( 'NONE', #136 ) ;
#459 = EDGE_LOOP ( 'NONE', ( #895, #441, #678, #609 ) ) ;
#460 = CARTESIAN_POINT ( 'NONE',  ( 4.830000000000002700, -4.599999999999999600, 1.050000000000000000 ) ) ;
#461 = UNCERTAINTY_MEASURE_WITH_UNIT (LENGTH_MEASURE( 1.000000000000000100E-005 ), #336, 'distance_accuracy_value', 'NONE');
#462 = STYLED_ITEM ( 'NONE', ( #868 ), #1205 ) ;
#463 = LINE ( 'NONE', #396, #567 ) ;
#464 = FACE_OUTER_BOUND ( 'NONE', #815, .T. ) ;
#465 = EDGE_CURVE ( 'NONE', #28, #458, #1057, .T. ) ;
#466 = FACE_OUTER_BOUND ( 'NONE', #209, .T. ) ;
#467 = DIRECTION ( 'NONE',  ( 0.0000000000000000000, -1.000000000000000000, 0.0000000000000000000 ) ) ;
#468 = ORIENTED_EDGE ( 'NONE', *, *, #1273, .T. ) ;
#469 = EDGE_CURVE ( 'NONE', #458, #97, #1173, .T. ) ;
#470 = VECTOR ( 'NONE', #402, 1000.000000000000000 ) ;
#471 = DIRECTION ( 'NONE',  ( 0.0000000000000000000, 0.0000000000000000000, -1.000000000000000000 ) ) ;
#472 = CARTESIAN_POINT ( 'NONE',  ( -9.824999999999999300, -0.4999999999999976100, 0.0000000000000000000 ) ) ;
#473 = FACE_OUTER_BOUND ( 'NONE', #628, .T. ) ;
#474 = DIRECTION ( 'NONE',  ( 1.000000000000000000, 0.0000000000000000000, 0.0000000000000000000 ) ) ;
#475 = FACE_OUTER_BOUND ( 'NONE', #306, .T. ) ;
#476 = EDGE_LOOP ( 'NONE', ( #271, #158, #1149, #643 ) ) ;
#477 = DIRECTION ( 'NONE',  ( -1.000000000000000000, 0.0000000000000000000, 0.0000000000000000000 ) ) ;
#478 = ORIENTED_EDGE ( 'NONE', *, *, #1277, .F. ) ;
#479 = CARTESIAN_POINT ( 'NONE',  ( -5.329999999999999200, -4.599999999999999600, 1.050000000000000000 ) ) ;
#480 = DIRECTION ( 'NONE',  ( 1.000000000000000000, 0.0000000000000000000, 0.0000000000000000000 ) ) ;
#481 = CARTESIAN_POINT ( 'NONE',  ( 9.824999999999999300, 9.660000000000003700, 7.049999999999999800 ) ) ;
#482 = ORIENTED_EDGE ( 'NONE', *, *, #1038, .T. ) ;
#483 = CARTESIAN_POINT ( 'NONE',  ( 5.330000000000002700, -4.599999999999999600, 1.050000000000000000 ) ) ;
#484 = EDGE_CURVE ( 'NONE', #588, #684, #1005, .T. ) ;
#485 = LINE ( 'NONE', #1007, #737 ) ;
#486 = CARTESIAN_POINT ( 'NONE',  ( 5.330000000000002700, -7.566890974529476000E-032, 1.050000000000000000 ) ) ;
#487 = PLANE ( 'NONE',  #203 ) ;
#488 = LINE ( 'NONE', #824, #820 ) ;
#489 = DIRECTION ( 'NONE',  ( 0.0000000000000000000, -1.000000000000000000, 0.0000000000000000000 ) ) ;
#490 = SURFACE_STYLE_USAGE ( .BOTH. , #1021 ) ;
#491 =( NAMED_UNIT ( * ) SI_UNIT ( $, .STERADIAN. ) SOLID_ANGLE_UNIT ( ) );
#492 = VECTOR ( 'NONE', #878, 1000.000000000000000 ) ;
#493 = SURFACE_STYLE_USAGE ( .BOTH. , #1217 ) ;
#494 = VECTOR ( 'NONE', #1153, 1000.000000000000000 ) ;
#495 = VERTEX_POINT ( 'NONE', #512 ) ;
#496 = EDGE_CURVE ( 'NONE', #21, #518, #453, .T. ) ;
#497 = AXIS2_PLACEMENT_3D ( 'NONE', #460, #387, #858 ) ;
#498 = SURFACE_STYLE_USAGE ( .BOTH. , #685 ) ;
#499 = EDGE_LOOP ( 'NONE', ( #280, #77, #117, #918 ) ) ;
#500 = ADVANCED_FACE ( 'NONE', ( #82 ), #505, .T. ) ;
#501 = DIRECTION ( 'NONE',  ( -1.000000000000000000, -0.0000000000000000000, -0.0000000000000000000 ) ) ;
#502 = DIRECTION ( 'NONE',  ( 0.0000000000000000000, 0.0000000000000000000, 1.000000000000000000 ) ) ;
#503 = CARTESIAN_POINT ( 'NONE',  ( -5.329999999999999200, -4.599999999999999600, 1.050000000000000000 ) ) ;
#504 = DIRECTION ( 'NONE',  ( -1.000000000000000000, 0.0000000000000000000, 0.0000000000000000000 ) ) ;
#505 = PLANE ( 'NONE',  #1251 ) ;
#506 = LINE ( 'NONE', #989, #1121 ) ;
#507 = DIRECTION ( 'NONE',  ( 0.0000000000000000000, 1.000000000000000000, 0.0000000000000000000 ) ) ;
#508 = FACE_BOUND ( 'NONE', #195, .T. ) ;
#509 = VECTOR ( 'NONE', #807, 1000.000000000000000 ) ;
#510 = CARTESIAN_POINT ( 'NONE',  ( -7.869999999999998300, 0.0000000000000000000, 1.050000000000000000 ) ) ;
#511 = LINE ( 'NONE', #72, #1128 ) ;
#512 = CARTESIAN_POINT ( 'NONE',  ( 9.824999999999999300, 9.660000000000003700, 0.0000000000000000000 ) ) ;
#513 = DIRECTION ( 'NONE',  ( 1.000000000000000000, 0.0000000000000000000, 0.0000000000000000000 ) ) ;
#514 = ORIENTED_EDGE ( 'NONE', *, *, #188, .F. ) ;
#515 = EDGE_CURVE ( 'NONE', #572, #102, #367, .T. ) ;
#516 = ORIENTED_EDGE ( 'NONE', *, *, #974, .T. ) ;
#517 = DIRECTION ( 'NONE',  ( -0.0000000000000000000, -0.0000000000000000000, -1.000000000000000000 ) ) ;
#518 = VERTEX_POINT ( 'NONE', #1238 ) ;
#519 =( GEOMETRIC_REPRESENTATION_CONTEXT ( 3 ) GLOBAL_UNCERTAINTY_ASSIGNED_CONTEXT ( ( #1232 ) ) GLOBAL_UNIT_ASSIGNED_CONTEXT ( ( #890, #305, #491 ) ) REPRESENTATION_CONTEXT ( 'NONE', 'WORKASPACE' ) );
#520 = CARTESIAN_POINT ( 'NONE',  ( -9.324999999999999300, -0.4999999999999976100, 0.0000000000000000000 ) ) ;
#521 = CARTESIAN_POINT ( 'NONE',  ( -5.329999999999999200, -4.599999999999999600, 0.7500000000000000000 ) ) ;
#522 = DIRECTION ( 'NONE',  ( 0.0000000000000000000, 0.0000000000000000000, 1.000000000000000000 ) ) ;
#523 = DIRECTION ( 'NONE',  ( -1.000000000000000000, -0.0000000000000000000, -0.0000000000000000000 ) ) ;
#524 = COLOUR_RGB ( '',0.7921568627450980000, 0.8196078431372548800, 0.9333333333333333500 ) ;
#525 = FACE_OUTER_BOUND ( 'NONE', #1113, .T. ) ;
#526 =( LENGTH_UNIT ( ) NAMED_UNIT ( * ) SI_UNIT ( .MILLI., .METRE. ) );
#527 = MECHANICAL_DESIGN_GEOMETRIC_PRESENTATION_REPRESENTATION (  '', ( #1213 ), #850 ) ;
#528 = FACE_OUTER_BOUND ( 'NONE', #589, .T. ) ;
#529 = DIRECTION ( 'NONE',  ( 0.0000000000000000000, 0.0000000000000000000, 1.000000000000000000 ) ) ;
#530 = ORIENTED_EDGE ( 'NONE', *, *, #836, .T. ) ;
#531 = CARTESIAN_POINT ( 'NONE',  ( 0.2500000000000019400, -3.934473505691887000E-032, 0.7500000000000000000 ) ) ;
#532 = EDGE_CURVE ( 'NONE', #746, #170, #545, .T. ) ;
#533 = ORIENTED_EDGE ( 'NONE', *, *, #532, .T. ) ;
#534 = ORIENTED_EDGE ( 'NONE', *, *, #1071, .F. ) ;
#535 = ORIENTED_EDGE ( 'NONE', *, *, #1020, .T. ) ;
#536 =( NAMED_UNIT ( * ) PLANE_ANGLE_UNIT ( ) SI_UNIT ( $, .RADIAN. ) );
#537 =( GEOMETRIC_REPRESENTATION_CONTEXT ( 3 ) GLOBAL_UNCERTAINTY_ASSIGNED_CONTEXT ( ( #681 ) ) GLOBAL_UNIT_ASSIGNED_CONTEXT ( ( #838, #445, #743 ) ) REPRESENTATION_CONTEXT ( 'NONE', 'WORKASPACE' ) );
#538 = CARTESIAN_POINT ( 'NONE',  ( 4.830000000000002700, -4.599999999999999600, 1.050000000000000000 ) ) ;
#539 = PLANE ( 'NONE',  #342 ) ;
#540 = FACE_OUTER_BOUND ( 'NONE', #1161, .T. ) ;
#541 = DIRECTION ( 'NONE',  ( 0.0000000000000000000, 1.000000000000000000, 0.0000000000000000000 ) ) ;
#542 = VECTOR ( 'NONE', #1029, 1000.000000000000000 ) ;
#543 = LINE ( 'NONE', #208, #1283 ) ;
#544 = EDGE_CURVE ( 'NONE', #360, #457, #765, .T. ) ;
#545 = LINE ( 'NONE', #425, #202 ) ;
#546 = CARTESIAN_POINT ( 'NONE',  ( -9.324999999999999300, 0.0000000000000000000, 7.049999999999999800 ) ) ;
#547 = DIRECTION ( 'NONE',  ( 0.0000000000000000000, 1.000000000000000000, 0.0000000000000000000 ) ) ;
#548 = ORIENTED_EDGE ( 'NONE', *, *, #110, .F. ) ;
#549 = ORIENTED_EDGE ( 'NONE', *, *, #1071, .T. ) ;
#550 =( LENGTH_UNIT ( ) NAMED_UNIT ( * ) SI_UNIT ( .MILLI., .METRE. ) );
#551 = ORIENTED_EDGE ( 'NONE', *, *, #556, .T. ) ;
#552 = VERTEX_POINT ( 'NONE', #1037 ) ;
#553 = AXIS2_PLACEMENT_3D ( 'NONE', #625, #1035, #814 ) ;
#554 = CARTESIAN_POINT ( 'NONE',  ( 9.824999999999999300, 9.660000000000003700, 0.0000000000000000000 ) ) ;
#555 = COLOUR_RGB ( '',0.7921568627450980000, 0.8196078431372548800, 0.9333333333333333500 ) ;
#556 = EDGE_CURVE ( 'NONE', #426, #835, #672, .T. ) ;
#557 = AXIS2_PLACEMENT_3D ( 'NONE', #65, #1162, #1041 ) ;
#558 = ORIENTED_EDGE ( 'NONE', *, *, #951, .T. ) ;
#559 = ORIENTED_EDGE ( 'NONE', *, *, #667, .F. ) ;
#560 = EDGE_LOOP ( 'NONE', ( #1192, #584, #427, #1255 ) ) ;
#561 = EDGE_CURVE ( 'NONE', #1177, #104, #741, .T. ) ;
#562 = FILL_AREA_STYLE ('',( #190 ) ) ;
#563 = PRESENTATION_LAYER_ASSIGNMENT (  '', '', ( #437 ) ) ;
#564 = VECTOR ( 'NONE', #997, 1000.000000000000000 ) ;
#565 = DIRECTION ( 'NONE',  ( 0.0000000000000000000, 0.0000000000000000000, -1.000000000000000000 ) ) ;
#566 = DIRECTION ( 'NONE',  ( 0.0000000000000000000, -1.000000000000000000, 0.0000000000000000000 ) ) ;
#567 = VECTOR ( 'NONE', #796, 1000.000000000000000 ) ;
#568 = PLANE ( 'NONE',  #1279 ) ;
#569 = PRESENTATION_LAYER_ASSIGNMENT (  '', '', ( #1060 ) ) ;
#570 =( NAMED_UNIT ( * ) SI_UNIT ( $, .STERADIAN. ) SOLID_ANGLE_UNIT ( ) );
#571 = DIRECTION ( 'NONE',  ( 0.0000000000000000000, 0.0000000000000000000, 1.000000000000000000 ) ) ;
#572 = VERTEX_POINT ( 'NONE', #332 ) ;
#573 = VERTEX_POINT ( 'NONE', #337 ) ;
#574 = ORIENTED_EDGE ( 'NONE', *, *, #750, .F. ) ;
#575 = EDGE_CURVE ( 'NONE', #7, #1151, #969, .T. ) ;
#576 = VECTOR ( 'NONE', #418, 1000.000000000000000 ) ;
#577 = CARTESIAN_POINT ( 'NONE',  ( -0.2499999999999985000, -4.685741084534629900E-032, 1.050000000000000000 ) ) ;
#578 = AXIS2_PLACEMENT_3D ( 'NONE', #1022, #240, #235 ) ;
#579 = DIRECTION ( 'NONE',  ( 0.0000000000000000000, 1.000000000000000000, 0.0000000000000000000 ) ) ;
#580 = ADVANCED_FACE ( 'NONE', ( #475 ), #932, .F. ) ;
#581 =( LENGTH_UNIT ( ) NAMED_UNIT ( * ) SI_UNIT ( .MILLI., .METRE. ) );
#582 = VECTOR ( 'NONE', #596, 1000.000000000000000 ) ;
#583 = CARTESIAN_POINT ( 'NONE',  ( -4.829999999999997400, -1.311491168563962200E-032, 0.7500000000000000000 ) ) ;
#584 = ORIENTED_EDGE ( 'NONE', *, *, #875, .F. ) ;
#585 = DIRECTION ( 'NONE',  ( -1.000000000000000000, 0.0000000000000000000, 0.0000000000000000000 ) ) ;
#586 = ORIENTED_EDGE ( 'NONE', *, *, #1080, .T. ) ;
#587 = CARTESIAN_POINT ( 'NONE',  ( -9.324999999999999300, 0.0000000000000000000, 0.0000000000000000000 ) ) ;
#588 = VERTEX_POINT ( 'NONE', #171 ) ;
#589 = EDGE_LOOP ( 'NONE', ( #849, #627, #559, #978 ) ) ;
#590 = CARTESIAN_POINT ( 'NONE',  ( 2.290000000000002300, -4.599999999999999600, 1.050000000000000000 ) ) ;
#591 = ORIENTED_EDGE ( 'NONE', *, *, #774, .T. ) ;
#592 = CARTESIAN_POINT ( 'NONE',  ( 4.830000000000002700, -4.599999999999999600, 1.050000000000000000 ) ) ;
#593 = ORIENTED_EDGE ( 'NONE', *, *, #1150, .T. ) ;
#594 = EDGE_CURVE ( 'NONE', #946, #116, #1268, .T. ) ;
#595 = PLANE ( 'NONE',  #314 ) ;
#596 = DIRECTION ( 'NONE',  ( -0.0000000000000000000, -0.0000000000000000000, -1.000000000000000000 ) ) ;
#597 = FACE_OUTER_BOUND ( 'NONE', #950, .T. ) ;
#598 = ADVANCED_FACE ( 'NONE', ( #985 ), #953, .F. ) ;
#599 =( NAMED_UNIT ( * ) PLANE_ANGLE_UNIT ( ) SI_UNIT ( $, .RADIAN. ) );
#600 = PRESENTATION_LAYER_ASSIGNMENT (  '', '', ( #1142 ) ) ;
#601 = FACE_OUTER_BOUND ( 'NONE', #754, .T. ) ;
#602 = DIRECTION ( 'NONE',  ( 1.000000000000000000, 0.0000000000000000000, 0.0000000000000000000 ) ) ;
#603 = DIRECTION ( 'NONE',  ( 0.0000000000000000000, 0.0000000000000000000, -1.000000000000000000 ) ) ;
#604 = EDGE_CURVE ( 'NONE', #944, #588, #1069, .T. ) ;
#605 = DIRECTION ( 'NONE',  ( 1.000000000000000000, 0.0000000000000000000, 0.0000000000000000000 ) ) ;
#606 = DIRECTION ( 'NONE',  ( -0.0000000000000000000, -0.0000000000000000000, -1.000000000000000000 ) ) ;
#607 = ORIENTED_EDGE ( 'NONE', *, *, #465, .T. ) ;
#608 = STYLED_ITEM ( 'NONE', ( #436 ), #210 ) ;
#609 = ORIENTED_EDGE ( 'NONE', *, *, #308, .T. ) ;
#610 = ORIENTED_EDGE ( 'NONE', *, *, #756, .T. ) ;
#611 = ADVANCED_FACE ( 'NONE', ( #288, #508, #652, #1124, #1297 ), #833, .F. ) ;
#612 = CARTESIAN_POINT ( 'NONE',  ( -4.829999999999997400, -4.599999999999999600, 0.7500000000000000000 ) ) ;
#613 = EDGE_LOOP ( 'NONE', ( #586, #607, #1152, #593 ) ) ;
#614 = PLANE ( 'NONE',  #1176 ) ;
#615 = DIRECTION ( 'NONE',  ( 1.000000000000000000, 0.0000000000000000000, 0.0000000000000000000 ) ) ;
#616 = DIRECTION ( 'NONE',  ( 1.000000000000000000, 0.0000000000000000000, 0.0000000000000000000 ) ) ;
#617 = FACE_OUTER_BOUND ( 'NONE', #1259, .T. ) ;
#618 = DIRECTION ( 'NONE',  ( -0.0000000000000000000, -0.0000000000000000000, -1.000000000000000000 ) ) ;
#619 = CARTESIAN_POINT ( 'NONE',  ( 4.830000000000002700, -7.308723421662554400E-032, 1.050000000000000000 ) ) ;
#620 = LINE ( 'NONE', #665, #149 ) ;
#621 = VECTOR ( 'NONE', #215, 1000.000000000000000 ) ;
#622 = LINE ( 'NONE', #368, #94 ) ;
#623 = DIRECTION ( 'NONE',  ( 0.0000000000000000000, 0.0000000000000000000, 1.000000000000000000 ) ) ;
#624 = EDGE_CURVE ( 'NONE', #1188, #370, #1196, .T. ) ;
#625 = CARTESIAN_POINT ( 'NONE',  ( -0.2499999999999985000, -4.599999999999999600, 0.7500000000000000000 ) ) ;
#626 = DIRECTION ( 'NONE',  ( 0.0000000000000000000, 1.000000000000000000, 0.0000000000000000000 ) ) ;
#627 = ORIENTED_EDGE ( 'NONE', *, *, #299, .F. ) ;
#628 = EDGE_LOOP ( 'NONE', ( #757, #291, #139, #468 ) ) ;
#629 = DIRECTION ( 'NONE',  ( 1.000000000000000000, 0.0000000000000000000, 0.0000000000000000000 ) ) ;
#630 = DIRECTION ( 'NONE',  ( -1.000000000000000000, 0.0000000000000000000, 0.0000000000000000000 ) ) ;
#631 = VECTOR ( 'NONE', #507, 1000.000000000000000 ) ;
#632 = EDGE_CURVE ( 'NONE', #552, #1050, #236, .T. ) ;
#633 = VECTOR ( 'NONE', #127, 1000.000000000000000 ) ;
#634 = DIRECTION ( 'NONE',  ( 0.0000000000000000000, 0.0000000000000000000, 1.000000000000000000 ) ) ;
#635 = PRESENTATION_STYLE_ASSIGNMENT (( #1247 ) ) ;
#636 = SURFACE_STYLE_USAGE ( .BOTH. , #248 ) ;
#637 = ORIENTED_EDGE ( 'NONE', *, *, #902, .F. ) ;
#638 = CARTESIAN_POINT ( 'NONE',  ( -7.369999999999998300, -4.599999999999999600, 0.7500000000000000000 ) ) ;
#639 = EDGE_CURVE ( 'NONE', #768, #104, #1267, .T. ) ;
#640 = ORIENTED_EDGE ( 'NONE', *, *, #388, .F. ) ;
#641 = VERTEX_POINT ( 'NONE', #166 ) ;
#642 =( LENGTH_UNIT ( ) NAMED_UNIT ( * ) SI_UNIT ( .MILLI., .METRE. ) );
#643 = ORIENTED_EDGE ( 'NONE', *, *, #544, .T. ) ;
#644 = CARTESIAN_POINT ( 'NONE',  ( -7.600474889837063800, 1.000000000000000000, 7.000000000000000000 ) ) ;
#645 = VERTEX_POINT ( 'NONE', #1249 ) ;
#646 = FACE_OUTER_BOUND ( 'NONE', #1257, .T. ) ;
#647 = CARTESIAN_POINT ( 'NONE',  ( -7.869999999999998300, -4.599999999999999600, 0.7500000000000000000 ) ) ;
#648 = LINE ( 'NONE', #281, #51 ) ;
#649 = PLANE ( 'NONE',  #1122 ) ;
#650 = LINE ( 'NONE', #587, #687 ) ;
#651 = EDGE_CURVE ( 'NONE', #573, #1046, #983, .T. ) ;
#652 = FACE_OUTER_BOUND ( 'NONE', #1242, .T. ) ;
#653 = COLOUR_RGB ( '',0.2509803921568627400, 0.2509803921568627400, 0.2509803921568627400 ) ;
#654 = AXIS2_PLACEMENT_3D ( 'NONE', #56, #719, #916 ) ;
#655 = EDGE_LOOP ( 'NONE', ( #516, #8, #957, #1154 ) ) ;
#656 = ORIENTED_EDGE ( 'NONE', *, *, #231, .T. ) ;
#657 =( NAMED_UNIT ( * ) SI_UNIT ( $, .STERADIAN. ) SOLID_ANGLE_UNIT ( ) );
#658 = ORIENTED_EDGE ( 'NONE', *, *, #1186, .T. ) ;
#659 = LINE ( 'NONE', #722, #148 ) ;
#660 = EDGE_CURVE ( 'NONE', #1151, #370, #392, .T. ) ;
#661 = CARTESIAN_POINT ( 'NONE',  ( 0.0000000000000000000, -4.599999999999999600, 0.0000000000000000000 ) ) ;
#662 = AXIS2_PLACEMENT_3D ( 'NONE', #592, #999, #1106 ) ;
#663 = VECTOR ( 'NONE', #1265, 1000.000000000000000 ) ;
#664 = ORIENTED_EDGE ( 'NONE', *, *, #388, .T. ) ;
#665 = CARTESIAN_POINT ( 'NONE',  ( -5.329999999999999200, -1.311491168563962200E-032, 0.7500000000000000000 ) ) ;
#666 = ORIENTED_EDGE ( 'NONE', *, *, #181, .T. ) ;
#667 = EDGE_CURVE ( 'NONE', #116, #732, #671, .T. ) ;
#668 = VECTOR ( 'NONE', #124, 1000.000000000000000 ) ;
#669 = DIRECTION ( 'NONE',  ( 0.0000000000000000000, 1.000000000000000000, 0.0000000000000000000 ) ) ;
#670 = DIRECTION ( 'NONE',  ( 1.000000000000000000, 0.0000000000000000000, 0.0000000000000000000 ) ) ;
#671 = LINE ( 'NONE', #1051, #178 ) ;
#672 = LINE ( 'NONE', #1140, #509 ) ;
#673 = FILL_AREA_STYLE ('',( #296 ) ) ;
#674 = LINE ( 'NONE', #1096, #860 ) ;
#675 = CARTESIAN_POINT ( 'NONE',  ( -9.324999999999999300, 0.0000000000000000000, 7.049999999999999800 ) ) ;
#676 = ORIENTED_EDGE ( 'NONE', *, *, #60, .T. ) ;
#677 = AXIS2_PLACEMENT_3D ( 'NONE', #661, #467, #565 ) ;
#678 = ORIENTED_EDGE ( 'NONE', *, *, #738, .T. ) ;
#679 = ORIENTED_EDGE ( 'NONE', *, *, #836, .F. ) ;
#680 = DIRECTION ( 'NONE',  ( 0.0000000000000000000, 0.0000000000000000000, 1.000000000000000000 ) ) ;
#681 = UNCERTAINTY_MEASURE_WITH_UNIT (LENGTH_MEASURE( 1.000000000000000100E-005 ), #838, 'distance_accuracy_value', 'NONE');
#682 = CARTESIAN_POINT ( 'NONE',  ( 2.790000000000002700, -4.599999999999999600, 1.050000000000000000 ) ) ;
#683 = AXIS2_PLACEMENT_3D ( 'NONE', #163, #430, #250 ) ;
#684 = VERTEX_POINT ( 'NONE', #1157 ) ;
#685 = SURFACE_SIDE_STYLE ('',( #720 ) ) ;
#686 = MECHANICAL_DESIGN_GEOMETRIC_PRESENTATION_REPRESENTATION (  '', ( #1234 ), #52 ) ;
#687 = VECTOR ( 'NONE', #1123, 1000.000000000000000 ) ;
#688 = VECTOR ( 'NONE', #1146, 1000.000000000000000 ) ;
#689 = EDGE_CURVE ( 'NONE', #944, #645, #1171, .T. ) ;
#690 =( LENGTH_UNIT ( ) NAMED_UNIT ( * ) SI_UNIT ( .MILLI., .METRE. ) );
#691 = MECHANICAL_DESIGN_GEOMETRIC_PRESENTATION_REPRESENTATION (  '', ( #437 ), #759 ) ;
#692 = DIRECTION ( 'NONE',  ( 0.0000000000000000000, 0.0000000000000000000, -1.000000000000000000 ) ) ;
#693 = ORIENTED_EDGE ( 'NONE', *, *, #923, .T. ) ;
#694 = ORIENTED_EDGE ( 'NONE', *, *, #575, .F. ) ;
#695 = CARTESIAN_POINT ( 'NONE',  ( 2.290000000000002300, -5.997232253098593500E-032, 0.7499999999999997800 ) ) ;
#696 = ADVANCED_FACE ( 'NONE', ( #473 ), #1269, .F. ) ;
#697 = EDGE_CURVE ( 'NONE', #588, #958, #164, .T. ) ;
#698 = UNCERTAINTY_MEASURE_WITH_UNIT (LENGTH_MEASURE( 1.000000000000000100E-005 ), #900, 'distance_accuracy_value', 'NONE');
#699 = ORIENTED_EDGE ( 'NONE', *, *, #378, .F. ) ;
#700 = CARTESIAN_POINT ( 'NONE',  ( 2.290000000000002300, -5.245964674255848900E-032, 1.050000000000000000 ) ) ;
#701 = SURFACE_STYLE_FILL_AREA ( #205 ) ;
#702 =( GEOMETRIC_REPRESENTATION_CONTEXT ( 3 ) GLOBAL_UNCERTAINTY_ASSIGNED_CONTEXT ( ( #799 ) ) GLOBAL_UNIT_ASSIGNED_CONTEXT ( ( #763, #874, #570 ) ) REPRESENTATION_CONTEXT ( 'NONE', 'WORKASPACE' ) );
#703 = FACE_OUTER_BOUND ( 'NONE', #891, .T. ) ;
#704 = VECTOR ( 'NONE', #541, 1000.000000000000000 ) ;
#705 = SURFACE_STYLE_USAGE ( .BOTH. , #1047 ) ;
#706 = CARTESIAN_POINT ( 'NONE',  ( -4.829999999999997400, -4.599999999999999600, 1.050000000000000000 ) ) ;
#707 = LINE ( 'NONE', #784, #1285 ) ;
#708 = DIRECTION ( 'NONE',  ( 0.0000000000000000000, -1.000000000000000000, 0.0000000000000000000 ) ) ;
#709 = VECTOR ( 'NONE', #942, 1000.000000000000000 ) ;
#710 = ORIENTED_EDGE ( 'NONE', *, *, #119, .F. ) ;
#711 = EDGE_CURVE ( 'NONE', #1190, #1188, #620, .T. ) ;
#712 = DIRECTION ( 'NONE',  ( 0.0000000000000000000, 1.000000000000000000, 0.0000000000000000000 ) ) ;
#713 = AXIS2_PLACEMENT_3D ( 'NONE', #429, #623, #616 ) ;
#714 = CARTESIAN_POINT ( 'NONE',  ( 2.290000000000002300, -4.599999999999999600, 1.050000000000000000 ) ) ;
#715 = CARTESIAN_POINT ( 'NONE',  ( -7.869999999999998300, 0.0000000000000000000, 0.7500000000000000000 ) ) ;
#716 = ORIENTED_EDGE ( 'NONE', *, *, #465, .F. ) ;
#717 = PLANE ( 'NONE',  #183 ) ;
#718 =( NAMED_UNIT ( * ) SI_UNIT ( $, .STERADIAN. ) SOLID_ANGLE_UNIT ( ) );
#719 = DIRECTION ( 'NONE',  ( -1.000000000000000000, 0.0000000000000000000, 0.0000000000000000000 ) ) ;
#720 = SURFACE_STYLE_FILL_AREA ( #131 ) ;
#721 = DIRECTION ( 'NONE',  ( 0.0000000000000000000, 0.0000000000000000000, 1.000000000000000000 ) ) ;
#722 = CARTESIAN_POINT ( 'NONE',  ( 2.290000000000002300, -5.245964674255848900E-032, 1.050000000000000000 ) ) ;
#723 = VECTOR ( 'NONE', #1201, 1000.000000000000000 ) ;
#724 = VECTOR ( 'NONE', #46, 1000.000000000000000 ) ;
#725 = SURFACE_STYLE_FILL_AREA ( #673 ) ;
#726 = UNCERTAINTY_MEASURE_WITH_UNIT (LENGTH_MEASURE( 1.000000000000000100E-005 ), #1056, 'distance_accuracy_value', 'NONE');
#727 = CARTESIAN_POINT ( 'NONE',  ( -7.369999999999998300, -4.599999999999999600, 1.050000000000000000 ) ) ;
#728 = COLOUR_RGB ( '',0.7921568627450980000, 0.8196078431372548800, 0.9333333333333333500 ) ;
#729 = VERTEX_POINT ( 'NONE', #98 ) ;
#730 = ORIENTED_EDGE ( 'NONE', *, *, #60, .F. ) ;
#731 = DIRECTION ( 'NONE',  ( 0.0000000000000000000, 1.000000000000000000, 0.0000000000000000000 ) ) ;
#732 = VERTEX_POINT ( 'NONE', #979 ) ;
#733 = PRESENTATION_LAYER_ASSIGNMENT (  '', '', ( #1181 ) ) ;
#734 = DIRECTION ( 'NONE',  ( 0.0000000000000000000, -1.000000000000000000, 0.0000000000000000000 ) ) ;
#735 = CARTESIAN_POINT ( 'NONE',  ( -9.324999999999999300, -0.4999999999999976100, 7.049999999999999800 ) ) ;
#736 = DIRECTION ( 'NONE',  ( 1.000000000000000000, 0.0000000000000000000, 0.0000000000000000000 ) ) ;
#737 = VECTOR ( 'NONE', #626, 1000.000000000000000 ) ;
#738 = EDGE_CURVE ( 'NONE', #732, #552, #1184, .T. ) ;
#739 = MECHANICAL_DESIGN_GEOMETRIC_PRESENTATION_REPRESENTATION (  '', ( #608 ), #1286 ) ;
#740 = CARTESIAN_POINT ( 'NONE',  ( 0.2500000000000019400, -3.934473505691887000E-032, 1.050000000000000000 ) ) ;
#741 = LINE ( 'NONE', #154, #263 ) ;
#742 = COLOUR_RGB ( '',0.2509803921568627400, 0.2509803921568627400, 0.2509803921568627400 ) ;
#743 =( NAMED_UNIT ( * ) SI_UNIT ( $, .STERADIAN. ) SOLID_ANGLE_UNIT ( ) );
#744 = ORIENTED_EDGE ( 'NONE', *, *, #200, .T. ) ;
#745 = VERTEX_POINT ( 'NONE', #108 ) ;
#746 = VERTEX_POINT ( 'NONE', #771 ) ;
#747 = ORIENTED_EDGE ( 'NONE', *, *, #756, .F. ) ;
#748 = DIRECTION ( 'NONE',  ( 0.0000000000000000000, 0.0000000000000000000, -1.000000000000000000 ) ) ;
#749 = ORIENTED_EDGE ( 'NONE', *, *, #318, .F. ) ;
#750 = EDGE_CURVE ( 'NONE', #398, #251, #338, .T. ) ;
#751 = LINE ( 'NONE', #1288, #244 ) ;
#752 = VECTOR ( 'NONE', #174, 1000.000000000000000 ) ;
#753 = FACE_OUTER_BOUND ( 'NONE', #313, .T. ) ;
#754 = EDGE_LOOP ( 'NONE', ( #1220, #863, #775, #770 ) ) ;
#755 = ORIENTED_EDGE ( 'NONE', *, *, #416, .T. ) ;
#756 = EDGE_CURVE ( 'NONE', #1289, #572, #376, .T. ) ;
#757 = ORIENTED_EDGE ( 'NONE', *, *, #285, .T. ) ;
#758 = DIRECTION ( 'NONE',  ( 0.0000000000000000000, 0.0000000000000000000, 1.000000000000000000 ) ) ;
#759 =( GEOMETRIC_REPRESENTATION_CONTEXT ( 3 ) GLOBAL_UNCERTAINTY_ASSIGNED_CONTEXT ( ( #227 ) ) GLOBAL_UNIT_ASSIGNED_CONTEXT ( ( #1168, #1280, #657 ) ) REPRESENTATION_CONTEXT ( 'NONE', 'WORKASPACE' ) );
#760 = ORIENTED_EDGE ( 'NONE', *, *, #632, .F. ) ;
#761 = SURFACE_STYLE_USAGE ( .BOTH. , #1191 ) ;
#762 = EDGE_CURVE ( 'NONE', #116, #96, #543, .T. ) ;
#763 =( LENGTH_UNIT ( ) NAMED_UNIT ( * ) SI_UNIT ( .MILLI., .METRE. ) );
#764 = CARTESIAN_POINT ( 'NONE',  ( 5.330000000000002700, -6.557455842819812000E-032, 1.050000000000000000 ) ) ;
#765 = LINE ( 'NONE', #340, #1250 ) ;
#766 = LINE ( 'NONE', #638, #304 ) ;
#767 = CARTESIAN_POINT ( 'NONE',  ( -9.324999999999999300, -0.4999999999999976100, 7.049999999999999800 ) ) ;
#768 = VERTEX_POINT ( 'NONE', #277 ) ;
#769 = DIRECTION ( 'NONE',  ( 0.0000000000000000000, 0.0000000000000000000, 1.000000000000000000 ) ) ;
#770 = ORIENTED_EDGE ( 'NONE', *, *, #660, .T. ) ;
#771 = CARTESIAN_POINT ( 'NONE',  ( 9.824999999999999300, -0.4999999999999976100, 7.049999999999999800 ) ) ;
#772 = ORIENTED_EDGE ( 'NONE', *, *, #318, .T. ) ;
#773 = CARTESIAN_POINT ( 'NONE',  ( -7.824999999999998400, 1.000000000000000000, 7.000000000000000000 ) ) ;
#774 = EDGE_CURVE ( 'NONE', #1059, #1163, #1233, .T. ) ;
#775 = ORIENTED_EDGE ( 'NONE', *, *, #3, .F. ) ;
#776 =( GEOMETRIC_REPRESENTATION_CONTEXT ( 3 ) GLOBAL_UNCERTAINTY_ASSIGNED_CONTEXT ( ( #881 ) ) GLOBAL_UNIT_ASSIGNED_CONTEXT ( ( #642, #536, #75 ) ) REPRESENTATION_CONTEXT ( 'NONE', 'WORKASPACE' ) );
#777 = CARTESIAN_POINT ( 'NONE',  ( -0.2499999999999985000, -4.599999999999999600, 0.7500000000000000000 ) ) ;
#778 = PLANE ( 'NONE',  #410 ) ;
#779 = CARTESIAN_POINT ( 'NONE',  ( -4.829999999999997400, -4.599999999999999600, 0.7500000000000000000 ) ) ;
#780 = PRODUCT ( 'CUI_PDM2-S12-D15-S', 'CUI_PDM2-S12-D15-S', '', ( #153 ) ) ;
#781 = LINE ( 'NONE', #386, #262 ) ;
#782 = ADVANCED_FACE ( 'NONE', ( #375 ), #1092, .T. ) ;
#783 = LINE ( 'NONE', #403, #36 ) ;
#784 = CARTESIAN_POINT ( 'NONE',  ( -5.329999999999999200, -4.599999999999999600, 0.7500000000000000000 ) ) ;
#785 = SURFACE_STYLE_FILL_AREA ( #853 ) ;
#786 = PRODUCT_DEFINITION_FORMATION_WITH_SPECIFIED_SOURCE ( 'ANY', '', #780, .NOT_KNOWN. ) ;
#787 = ORIENTED_EDGE ( 'NONE', *, *, #689, .F. ) ;
#788 =( NAMED_UNIT ( * ) SI_UNIT ( $, .STERADIAN. ) SOLID_ANGLE_UNIT ( ) );
#789 = ORIENTED_EDGE ( 'NONE', *, *, #902, .T. ) ;
#790 = ADVANCED_FACE ( 'NONE', ( #601 ), #1294, .F. ) ;
#791 = PLANE ( 'NONE',  #1158 ) ;
#792 = EDGE_CURVE ( 'NONE', #847, #1163, #350, .T. ) ;
#793 = EDGE_LOOP ( 'NONE', ( #912, #9, #362, #1245 ) ) ;
#794 = FILL_AREA_STYLE ('',( #1111 ) ) ;
#795 = ORIENTED_EDGE ( 'NONE', *, *, #29, .T. ) ;
#796 = DIRECTION ( 'NONE',  ( 0.0000000000000000000, 1.000000000000000000, 0.0000000000000000000 ) ) ;
#797 = MECHANICAL_DESIGN_GEOMETRIC_PRESENTATION_REPRESENTATION (  '', ( #1181 ), #871 ) ;
#798 = COLOUR_RGB ( '',0.2509803921568627400, 0.2509803921568627400, 0.2509803921568627400 ) ;
#799 = UNCERTAINTY_MEASURE_WITH_UNIT (LENGTH_MEASURE( 1.000000000000000100E-005 ), #763, 'distance_accuracy_value', 'NONE');
#800 = DIRECTION ( 'NONE',  ( 0.0000000000000000000, 0.0000000000000000000, -1.000000000000000000 ) ) ;
#801 = CARTESIAN_POINT ( 'NONE',  ( -0.2499999999999985000, -4.599999999999999600, 1.050000000000000000 ) ) ;
#802 = COLOUR_RGB ( '',0.2509803921568627400, 0.2509803921568627400, 0.2509803921568627400 ) ;
#803 = PLANE ( 'NONE',  #1065 ) ;
#804 = VECTOR ( 'NONE', #606, 1000.000000000000000 ) ;
#805 = EDGE_CURVE ( 'NONE', #294, #1203, #506, .T. ) ;
#806 = DIRECTION ( 'NONE',  ( 1.000000000000000000, 0.0000000000000000000, 0.0000000000000000000 ) ) ;
#807 = DIRECTION ( 'NONE',  ( -1.000000000000000000, -0.0000000000000000000, -0.0000000000000000000 ) ) ;
#808 = ADVANCED_FACE ( 'NONE', ( #982, #703 ), #568, .F. ) ;
#809 = STYLED_ITEM ( 'NONE', ( #635 ), #187 ) ;
#810 = DIRECTION ( 'NONE',  ( 0.0000000000000000000, 0.0000000000000000000, 1.000000000000000000 ) ) ;
#811 = ORIENTED_EDGE ( 'NONE', *, *, #980, .F. ) ;
#812 = ORIENTED_EDGE ( 'NONE', *, *, #299, .T. ) ;
#813 = CARTESIAN_POINT ( 'NONE',  ( -5.329999999999999200, -4.599999999999999600, 1.050000000000000000 ) ) ;
#814 = DIRECTION ( 'NONE',  ( 1.000000000000000000, 0.0000000000000000000, 0.0000000000000000000 ) ) ;
#815 = EDGE_LOOP ( 'NONE', ( #658, #137, #272, #173 ) ) ;
#816 = DIRECTION ( 'NONE',  ( 1.000000000000000000, 0.0000000000000000000, 0.0000000000000000000 ) ) ;
#817 = LINE ( 'NONE', #214, #668 ) ;
#818 = PRODUCT_DEFINITION_SHAPE ( 'NONE', 'NONE',  #821 ) ;
#819 = DIRECTION ( 'NONE',  ( 0.0000000000000000000, 0.0000000000000000000, -1.000000000000000000 ) ) ;
#820 = VECTOR ( 'NONE', #175, 1000.000000000000000 ) ;
#821 = PRODUCT_DEFINITION ( 'UNKNOWN', '', #786, #334 ) ;
#822 = VECTOR ( 'NONE', #502, 1000.000000000000000 ) ;
#823 = EDGE_CURVE ( 'NONE', #1079, #944, #781, .T. ) ;
#824 = CARTESIAN_POINT ( 'NONE',  ( -7.600474889837063800, 1.000000000000000000, 7.000000000000000000 ) ) ;
#825 = COLOUR_RGB ( '',0.2509803921568627400, 0.2509803921568627400, 0.2509803921568627400 ) ;
#826 = DIRECTION ( 'NONE',  ( -0.0000000000000000000, -0.0000000000000000000, -1.000000000000000000 ) ) ;
#827 = EDGE_LOOP ( 'NONE', ( #789, #381, #61, #269 ) ) ;
#828 = AXIS2_PLACEMENT_3D ( 'NONE', #217, #312, #1206 ) ;
#829 =( NAMED_UNIT ( * ) SI_UNIT ( $, .STERADIAN. ) SOLID_ANGLE_UNIT ( ) );
#830 = ORIENTED_EDGE ( 'NONE', *, *, #484, .T. ) ;
#831 = ORIENTED_EDGE ( 'NONE', *, *, #200, .F. ) ;
#832 = ORIENTED_EDGE ( 'NONE', *, *, #231, .F. ) ;
#833 = PLANE ( 'NONE',  #279 ) ;
#834 = VERTEX_POINT ( 'NONE', #1197 ) ;
#835 = VERTEX_POINT ( 'NONE', #577 ) ;
#836 = EDGE_CURVE ( 'NONE', #251, #834, #91, .T. ) ;
#837 = VECTOR ( 'NONE', #605, 1000.000000000000000 ) ;
#838 =( LENGTH_UNIT ( ) NAMED_UNIT ( * ) SI_UNIT ( .MILLI., .METRE. ) );
#839 = VECTOR ( 'NONE', #869, 1000.000000000000000 ) ;
#840 = COLOUR_RGB ( '',0.2509803921568627400, 0.2509803921568627400, 0.2509803921568627400 ) ;
#841 = FACE_OUTER_BOUND ( 'NONE', #961, .T. ) ;
#842 = FILL_AREA_STYLE ('',( #70 ) ) ;
#843 = FILL_AREA_STYLE_COLOUR ( '', #728 ) ;
#844 = EDGE_CURVE ( 'NONE', #370, #893, #218, .T. ) ;
#845 = FACE_OUTER_BOUND ( 'NONE', #827, .T. ) ;
#846 = ORIENTED_EDGE ( 'NONE', *, *, #762, .F. ) ;
#847 = VERTEX_POINT ( 'NONE', #1112 ) ;
#848 = UNCERTAINTY_MEASURE_WITH_UNIT (LENGTH_MEASURE( 1.000000000000000100E-005 ), #581, 'distance_accuracy_value', 'NONE');
#849 = ORIENTED_EDGE ( 'NONE', *, *, #1277, .T. ) ;
#850 =( GEOMETRIC_REPRESENTATION_CONTEXT ( 3 ) GLOBAL_UNCERTAINTY_ASSIGNED_CONTEXT ( ( #461 ) ) GLOBAL_UNIT_ASSIGNED_CONTEXT ( ( #336, #1040, #718 ) ) REPRESENTATION_CONTEXT ( 'NONE', 'WORKASPACE' ) );
#851 = PLANE ( 'NONE',  #683 ) ;
#852 = DIRECTION ( 'NONE',  ( 0.0000000000000000000, 0.0000000000000000000, 1.000000000000000000 ) ) ;
#853 = FILL_AREA_STYLE ('',( #365 ) ) ;
#854 = VECTOR ( 'NONE', #908, 1000.000000000000000 ) ;
#855 = EDGE_CURVE ( 'NONE', #1203, #1079, #125, .T. ) ;
#856 = FACE_OUTER_BOUND ( 'NONE', #400, .T. ) ;
#857 = VECTOR ( 'NONE', #382, 1000.000000000000000 ) ;
#858 = DIRECTION ( 'NONE',  ( 0.0000000000000000000, 0.0000000000000000000, -1.000000000000000000 ) ) ;
#859 = VECTOR ( 'NONE', #522, 1000.000000000000000 ) ;
#860 = VECTOR ( 'NONE', #1195, 1000.000000000000000 ) ;
#861 = ORIENTED_EDGE ( 'NONE', *, *, #454, .T. ) ;
#862 = ORIENTED_EDGE ( 'NONE', *, *, #496, .T. ) ;
#863 = ORIENTED_EDGE ( 'NONE', *, *, #372, .F. ) ;
#864 = AXIS2_PLACEMENT_3D ( 'NONE', #1043, #734, #1256 ) ;
#865 = ORIENTED_EDGE ( 'NONE', *, *, #823, .T. ) ;
#866 = ORIENTED_EDGE ( 'NONE', *, *, #651, .T. ) ;
#867 = EDGE_CURVE ( 'NONE', #1178, #457, #319, .T. ) ;
#868 = PRESENTATION_STYLE_ASSIGNMENT (( #490 ) ) ;
#869 = DIRECTION ( 'NONE',  ( 0.0000000000000000000, 0.0000000000000000000, 1.000000000000000000 ) ) ;
#870 = SURFACE_STYLE_FILL_AREA ( #258 ) ;
#871 =( GEOMETRIC_REPRESENTATION_CONTEXT ( 3 ) GLOBAL_UNCERTAINTY_ASSIGNED_CONTEXT ( ( #698 ) ) GLOBAL_UNIT_ASSIGNED_CONTEXT ( ( #900, #599, #1009 ) ) REPRESENTATION_CONTEXT ( 'NONE', 'WORKASPACE' ) );
#872 = FACE_OUTER_BOUND ( 'NONE', #476, .T. ) ;
#873 =( NAMED_UNIT ( * ) PLANE_ANGLE_UNIT ( ) SI_UNIT ( $, .RADIAN. ) );
#874 =( NAMED_UNIT ( * ) PLANE_ANGLE_UNIT ( ) SI_UNIT ( $, .RADIAN. ) );
#875 = EDGE_CURVE ( 'NONE', #293, #641, #463, .T. ) ;
#876 = ORIENTED_EDGE ( 'NONE', *, *, #1186, .F. ) ;
#877 = EDGE_LOOP ( 'NONE', ( #160, #309, #184, #535 ) ) ;
#878 = DIRECTION ( 'NONE',  ( 0.0000000000000000000, 1.000000000000000000, 0.0000000000000000000 ) ) ;
#879 = SURFACE_STYLE_FILL_AREA ( #114 ) ;
#880 = DIRECTION ( 'NONE',  ( 0.0000000000000000000, 0.0000000000000000000, -1.000000000000000000 ) ) ;
#881 = UNCERTAINTY_MEASURE_WITH_UNIT (LENGTH_MEASURE( 1.000000000000000100E-005 ), #642, 'distance_accuracy_value', 'NONE');
#882 = FACE_OUTER_BOUND ( 'NONE', #196, .T. ) ;
#883 = VECTOR ( 'NONE', #1165, 1000.000000000000000 ) ;
#884 = AXIS2_PLACEMENT_3D ( 'NONE', #987, #477, #769 ) ;
#885 = LINE ( 'NONE', #682, #1141 ) ;
#886 = PRODUCT_RELATED_PRODUCT_CATEGORY ( 'part', '', ( #780 ) ) ;
#887 = VERTEX_POINT ( 'NONE', #121 ) ;
#888 =( NAMED_UNIT ( * ) SI_UNIT ( $, .STERADIAN. ) SOLID_ANGLE_UNIT ( ) );
#889 = ORIENTED_EDGE ( 'NONE', *, *, #48, .T. ) ;
#890 =( LENGTH_UNIT ( ) NAMED_UNIT ( * ) SI_UNIT ( .MILLI., .METRE. ) );
#891 = EDGE_LOOP ( 'NONE', ( #482, #1010, #380, #865, #975, #307, #343, #385 ) ) ;
#892 = CARTESIAN_POINT ( 'NONE',  ( -5.329999999999999200, -2.062758747406705200E-032, 1.050000000000000000 ) ) ;
#893 = VERTEX_POINT ( 'NONE', #892 ) ;
#894 = PRESENTATION_LAYER_ASSIGNMENT (  '', '', ( #1234 ) ) ;
#895 = ORIENTED_EDGE ( 'NONE', *, *, #594, .T. ) ;
#896 = ADVANCED_FACE ( 'NONE', ( #525 ), #1101, .F. ) ;
#897 = ORIENTED_EDGE ( 'NONE', *, *, #169, .F. ) ;
#898 = PLANE ( 'NONE',  #71 ) ;
#899 = CARTESIAN_POINT ( 'NONE',  ( -7.869999999999998300, -4.599999999999999600, 0.7500000000000000000 ) ) ;
#900 =( LENGTH_UNIT ( ) NAMED_UNIT ( * ) SI_UNIT ( .MILLI., .METRE. ) );
#901 = FACE_OUTER_BOUND ( 'NONE', #140, .T. ) ;
#902 = EDGE_CURVE ( 'NONE', #887, #847, #1054, .T. ) ;
#903 = PLANE ( 'NONE',  #966 ) ;
#904 = LINE ( 'NONE', #1172, #956 ) ;
#905 = ADVANCED_FACE ( 'NONE', ( #420 ), #1212, .F. ) ;
#906 = AXIS2_PLACEMENT_3D ( 'NONE', #773, #571, #2 ) ;
#907 = ORIENTED_EDGE ( 'NONE', *, *, #1207, .T. ) ;
#908 = DIRECTION ( 'NONE',  ( -0.0000000000000000000, -1.000000000000000000, -0.0000000000000000000 ) ) ;
#909 = PLANE ( 'NONE',  #1066 ) ;
#910 = ORIENTED_EDGE ( 'NONE', *, *, #923, .F. ) ;
#911 = CARTESIAN_POINT ( 'NONE',  ( 10.16000000000000000, -4.599999999999999600, 0.0000000000000000000 ) ) ;
#912 = ORIENTED_EDGE ( 'NONE', *, *, #1156, .T. ) ;
#913 = ADVANCED_FACE ( 'NONE', ( #1282 ), #111, .F. ) ;
#914 = EDGE_LOOP ( 'NONE', ( #268, #962 ) ) ;
#915 = CARTESIAN_POINT ( 'NONE',  ( -7.869999999999998300, 0.0000000000000000000, 1.050000000000000000 ) ) ;
#916 = DIRECTION ( 'NONE',  ( 0.0000000000000000000, 0.0000000000000000000, 1.000000000000000000 ) ) ;
#917 = CARTESIAN_POINT ( 'NONE',  ( 4.830000000000002700, -7.308723421662554400E-032, 0.7499999999999997800 ) ) ;
#918 = ORIENTED_EDGE ( 'NONE', *, *, #689, .T. ) ;
#919 =( GEOMETRIC_REPRESENTATION_CONTEXT ( 3 ) GLOBAL_UNCERTAINTY_ASSIGNED_CONTEXT ( ( #984 ) ) GLOBAL_UNIT_ASSIGNED_CONTEXT ( ( #690, #16, #788 ) ) REPRESENTATION_CONTEXT ( 'NONE', 'WORKASPACE' ) );
#920 = PRESENTATION_STYLE_ASSIGNMENT (( #431 ) ) ;
#921 = ADVANCED_FACE ( 'NONE', ( #617 ), #791, .F. ) ;
#922 = EDGE_CURVE ( 'NONE', #684, #1178, #650, .T. ) ;
#923 = EDGE_CURVE ( 'NONE', #7, #1188, #286, .T. ) ;
#924 = FILL_AREA_STYLE ('',( #1127 ) ) ;
#925 = SURFACE_STYLE_FILL_AREA ( #794 ) ;
#926 = CARTESIAN_POINT ( 'NONE',  ( 2.790000000000002700, -5.245964674255848900E-032, 1.050000000000000000 ) ) ;
#927 = AXIS2_PLACEMENT_3D ( 'NONE', #1291, #566, #471 ) ;
#928 = CARTESIAN_POINT ( 'NONE',  ( -8.049525110162932200, 1.000000000000000000, 7.049999999999999800 ) ) ;
#929 = FACE_OUTER_BOUND ( 'NONE', #383, .T. ) ;
#930 = CARTESIAN_POINT ( 'NONE',  ( 9.824999999999999300, -0.4999999999999976100, 7.049999999999999800 ) ) ;
#931 = APPLICATION_CONTEXT ( 'automotive_design' ) ;
#932 = PLANE ( 'NONE',  #654 ) ;
#933 = CARTESIAN_POINT ( 'NONE',  ( 0.2500000000000019400, -4.599999999999999600, 1.050000000000000000 ) ) ;
#934 = PLANE ( 'NONE',  #553 ) ;
#935 = DIRECTION ( 'NONE',  ( -1.000000000000000000, -0.0000000000000000000, -0.0000000000000000000 ) ) ;
#936 = PRESENTATION_LAYER_ASSIGNMENT (  '', '', ( #809 ) ) ;
#937 = ORIENTED_EDGE ( 'NONE', *, *, #1150, .F. ) ;
#938 = CARTESIAN_POINT ( 'NONE',  ( 9.824999999999999300, -0.4999999999999976100, 0.0000000000000000000 ) ) ;
#939 = AXIS2_PLACEMENT_3D ( 'NONE', #411, #135, #34 ) ;
#940 = VECTOR ( 'NONE', #1225, 1000.000000000000000 ) ;
#941 = CARTESIAN_POINT ( 'NONE',  ( -4.829999999999997400, -1.311491168563962200E-032, 1.050000000000000000 ) ) ;
#942 = DIRECTION ( 'NONE',  ( 0.0000000000000000000, 0.0000000000000000000, -1.000000000000000000 ) ) ;
#943 = LINE ( 'NONE', #47, #1072 ) ;
#944 = VERTEX_POINT ( 'NONE', #32 ) ;
#945 = ORIENTED_EDGE ( 'NONE', *, *, #639, .F. ) ;
#946 = VERTEX_POINT ( 'NONE', #115 ) ;
#947 = SURFACE_SIDE_STYLE ('',( #870 ) ) ;
#948 = FILL_AREA_STYLE ('',( #843 ) ) ;
#949 = CARTESIAN_POINT ( 'NONE',  ( 2.290000000000002300, -4.599999999999999600, 1.050000000000000000 ) ) ;
#950 = EDGE_LOOP ( 'NONE', ( #610, #172, #574, #1241 ) ) ;
#951 = EDGE_CURVE ( 'NONE', #439, #21, #123, .T. ) ;
#952 = SHAPE_DEFINITION_REPRESENTATION ( #818, #1033 ) ;
#953 = PLANE ( 'NONE',  #557 ) ;
#954 = CARTESIAN_POINT ( 'NONE',  ( -9.324999999999999300, 0.0000000000000000000, 0.0000000000000000000 ) ) ;
#955 =( NAMED_UNIT ( * ) PLANE_ANGLE_UNIT ( ) SI_UNIT ( $, .RADIAN. ) );
#956 = VECTOR ( 'NONE', #273, 1000.000000000000000 ) ;
#957 = ORIENTED_EDGE ( 'NONE', *, *, #1091, .F. ) ;
#958 = VERTEX_POINT ( 'NONE', #1144 ) ;
#959 = AXIS2_PLACEMENT_3D ( 'NONE', #767, #1085, #198 ) ;
#960 = DIRECTION ( 'NONE',  ( 0.0000000000000000000, 0.0000000000000000000, 1.000000000000000000 ) ) ;
#961 = EDGE_LOOP ( 'NONE', ( #1030, #1164, #1223, #1180, #514, #730, #87, #897 ) ) ;
#962 = ORIENTED_EDGE ( 'NONE', *, *, #1284, .T. ) ;
#963 = PLANE ( 'NONE',  #884 ) ;
#964 = ORIENTED_EDGE ( 'NONE', *, *, #469, .F. ) ;
#965 = PRESENTATION_STYLE_ASSIGNMENT (( #95 ) ) ;
#966 = AXIS2_PLACEMENT_3D ( 'NONE', #10, #310, #395 ) ;
#967 = PRESENTATION_STYLE_ASSIGNMENT (( #761 ) ) ;
#968 = UNCERTAINTY_MEASURE_WITH_UNIT (LENGTH_MEASURE( 1.000000000000000100E-005 ), #526, 'distance_accuracy_value', 'NONE');
#969 = LINE ( 'NONE', #706, #688 ) ;
#970 = DIRECTION ( 'NONE',  ( 0.0000000000000000000, 1.000000000000000000, 0.0000000000000000000 ) ) ;
#971 = VECTOR ( 'NONE', #322, 1000.000000000000000 ) ;
#972 = LINE ( 'NONE', #442, #412 ) ;
#973 = ORIENTED_EDGE ( 'NONE', *, *, #169, .T. ) ;
#974 = EDGE_CURVE ( 'NONE', #641, #1289, #390, .T. ) ;
#975 = ORIENTED_EDGE ( 'NONE', *, *, #604, .T. ) ;
#976 = CARTESIAN_POINT ( 'NONE',  ( 9.824999999999999300, 9.660000000000003700, 7.049999999999999800 ) ) ;
#977 = ORIENTED_EDGE ( 'NONE', *, *, #624, .F. ) ;
#978 = ORIENTED_EDGE ( 'NONE', *, *, #762, .T. ) ;
#979 = CARTESIAN_POINT ( 'NONE',  ( -7.869999999999998300, -4.599999999999999600, 1.050000000000000000 ) ) ;
#980 = EDGE_CURVE ( 'NONE', #102, #641, #659, .T. ) ;
#981 = DIRECTION ( 'NONE',  ( -1.000000000000000000, 0.0000000000000000000, 0.0000000000000000000 ) ) ;
#982 = FACE_BOUND ( 'NONE', #369, .T. ) ;
#983 = LINE ( 'NONE', #161, #704 ) ;
#984 = UNCERTAINTY_MEASURE_WITH_UNIT (LENGTH_MEASURE( 1.000000000000000100E-005 ), #690, 'distance_accuracy_value', 'NONE');
#985 = FACE_OUTER_BOUND ( 'NONE', #357, .T. ) ;
#986 = CARTESIAN_POINT ( 'NONE',  ( -0.2499999999999985000, -4.599999999999999600, 1.050000000000000000 ) ) ;
#987 = CARTESIAN_POINT ( 'NONE',  ( -4.829999999999997400, -4.599999999999999600, 1.050000000000000000 ) ) ;
#988 = VECTOR ( 'NONE', #270, 1000.000000000000000 ) ;
#989 = CARTESIAN_POINT ( 'NONE',  ( -9.824999999999999300, 9.660000000000003700, 7.049999999999999800 ) ) ;
#990 = ORIENTED_EDGE ( 'NONE', *, *, #974, .F. ) ;
#991 = ORIENTED_EDGE ( 'NONE', *, *, #774, .F. ) ;
#992 = DIRECTION ( 'NONE',  ( 0.0000000000000000000, 0.0000000000000000000, -1.000000000000000000 ) ) ;
#993 = SURFACE_STYLE_USAGE ( .BOTH. , #6 ) ;
#994 = ORIENTED_EDGE ( 'NONE', *, *, #624, .T. ) ;
#995 = AXIS2_PLACEMENT_3D ( 'NONE', #78, #529, #629 ) ;
#996 = ADVANCED_FACE ( 'NONE', ( #901 ), #934, .F. ) ;
#997 = DIRECTION ( 'NONE',  ( -1.000000000000000000, -0.0000000000000000000, -0.0000000000000000000 ) ) ;
#998 = CARTESIAN_POINT ( 'NONE',  ( -0.2499999999999985000, -4.599999999999999600, 0.7500000000000000000 ) ) ;
#999 = DIRECTION ( 'NONE',  ( 0.0000000000000000000, 0.0000000000000000000, -1.000000000000000000 ) ) ;
#1000 = COLOUR_RGB ( '',0.2509803921568627400, 0.2509803921568627400, 0.2509803921568627400 ) ;
#1001 = CARTESIAN_POINT ( 'NONE',  ( 2.290000000000002300, -4.599999999999999600, 0.7500000000000000000 ) ) ;
#1002 = SURFACE_STYLE_USAGE ( .BOTH. , #1216 ) ;
#1003 = COLOUR_RGB ( '',0.2509803921568627400, 0.2509803921568627400, 0.2509803921568627400 ) ;
#1004 = MECHANICAL_DESIGN_GEOMETRIC_PRESENTATION_REPRESENTATION (  '', ( #809 ), #1073 ) ;
#1005 = LINE ( 'NONE', #1135, #724 ) ;
#1006 = AXIS2_PLACEMENT_3D ( 'NONE', #142, #428, #615 ) ;
#1007 = CARTESIAN_POINT ( 'NONE',  ( 2.290000000000002300, -4.599999999999999600, 0.7500000000000000000 ) ) ;
#1008 = CARTESIAN_POINT ( 'NONE',  ( 9.324999999999999300, -0.4999999999999976100, 7.049999999999999800 ) ) ;
#1009 =( NAMED_UNIT ( * ) SI_UNIT ( $, .STERADIAN. ) SOLID_ANGLE_UNIT ( ) );
#1010 = ORIENTED_EDGE ( 'NONE', *, *, #805, .T. ) ;
#1011 = ADVANCED_FACE ( 'NONE', ( #882 ), #614, .T. ) ;
#1012 = ORIENTED_EDGE ( 'NONE', *, *, #561, .F. ) ;
#1013 = CARTESIAN_POINT ( 'NONE',  ( 2.290000000000002300, -4.599999999999999600, 0.7500000000000000000 ) ) ;
#1014 = DIRECTION ( 'NONE',  ( 1.000000000000000000, 0.0000000000000000000, 0.0000000000000000000 ) ) ;
#1015 = DIRECTION ( 'NONE',  ( 0.0000000000000000000, 0.0000000000000000000, -1.000000000000000000 ) ) ;
#1016 = FACE_OUTER_BOUND ( 'NONE', #655, .T. ) ;
#1017 = ADVANCED_FACE ( 'NONE', ( #1170 ), #43, .T. ) ;
#1018 = CARTESIAN_POINT ( 'NONE',  ( -9.824999999999999300, 9.660000000000003700, 0.0000000000000000000 ) ) ;
#1019 = VECTOR ( 'NONE', #489, 1000.000000000000000 ) ;
#1020 = EDGE_CURVE ( 'NONE', #729, #7, #449, .T. ) ;
#1021 = SURFACE_SIDE_STYLE ('',( #879 ) ) ;
#1022 = CARTESIAN_POINT ( 'NONE',  ( -7.824999999999998400, 1.000000000000000000, 7.049999999999999800 ) ) ;
#1023 = LINE ( 'NONE', #801, #1086 ) ;
#1024 = STYLED_ITEM ( 'NONE', ( #55 ), #311 ) ;
#1025 = CARTESIAN_POINT ( 'NONE',  ( 0.0000000000000000000, 0.0000000000000000000, 0.0000000000000000000 ) ) ;
#1026 = CARTESIAN_POINT ( 'NONE',  ( -7.824999999999998400, 1.000000000000000000, 7.000000000000000000 ) ) ;
#1027 = ORIENTED_EDGE ( 'NONE', *, *, #750, .T. ) ;
#1028 = DIRECTION ( 'NONE',  ( 0.0000000000000000000, 1.000000000000000000, 0.0000000000000000000 ) ) ;
#1029 = DIRECTION ( 'NONE',  ( 0.0000000000000000000, 0.0000000000000000000, -1.000000000000000000 ) ) ;
#1030 = ORIENTED_EDGE ( 'NONE', *, *, #48, .F. ) ;
#1031 = ORIENTED_EDGE ( 'NONE', *, *, #405, .F. ) ;
#1032 = EDGE_LOOP ( 'NONE', ( #994, #229, #694, #693 ) ) ;
#1033 = ADVANCED_BREP_SHAPE_REPRESENTATION ( 'CUI_PDM2-S12-D15-S', ( #187, #1070, #1006 ), #324 ) ;
#1034 = CARTESIAN_POINT ( 'NONE',  ( -7.824999999999998400, 1.000000000000000000, 7.000000000000000000 ) ) ;
#1035 = DIRECTION ( 'NONE',  ( 0.0000000000000000000, 0.0000000000000000000, 1.000000000000000000 ) ) ;
#1036 = AXIS2_PLACEMENT_3D ( 'NONE', #1138, #708, #1148 ) ;
#1037 = CARTESIAN_POINT ( 'NONE',  ( -7.869999999999998300, -4.599999999999999600, 0.7500000000000000000 ) ) ;
#1038 = EDGE_CURVE ( 'NONE', #746, #294, #1210, .T. ) ;
#1039 = AXIS2_PLACEMENT_3D ( 'NONE', #57, #630, #721 ) ;
#1040 =( NAMED_UNIT ( * ) PLANE_ANGLE_UNIT ( ) SI_UNIT ( $, .RADIAN. ) );
#1041 = DIRECTION ( 'NONE',  ( 0.0000000000000000000, 0.0000000000000000000, -1.000000000000000000 ) ) ;
#1042 = MECHANICAL_DESIGN_GEOMETRIC_PRESENTATION_REPRESENTATION (  '', ( #391 ), #776 ) ;
#1043 = CARTESIAN_POINT ( 'NONE',  ( 12.70000000000000100, -4.599999999999999600, 0.0000000000000000000 ) ) ;
#1044 = VECTOR ( 'NONE', #167, 1000.000000000000000 ) ;
#1045 = EDGE_LOOP ( 'NONE', ( #1077, #415, #1243, #1167 ) ) ;
#1046 = VERTEX_POINT ( 'NONE', #619 ) ;
#1047 = SURFACE_SIDE_STYLE ('',( #297 ) ) ;
#1048 = CARTESIAN_POINT ( 'NONE',  ( -7.369999999999998300, -4.599999999999999600, 1.050000000000000000 ) ) ;
#1049 = ORIENTED_EDGE ( 'NONE', *, *, #922, .T. ) ;
#1050 = VERTEX_POINT ( 'NONE', #715 ) ;
#1051 = CARTESIAN_POINT ( 'NONE',  ( -7.869999999999998300, -4.599999999999999600, 1.050000000000000000 ) ) ;
#1052 = AXIS2_PLACEMENT_3D ( 'NONE', #1090, #1271, #960 ) ;
#1053 = CARTESIAN_POINT ( 'NONE',  ( -9.824999999999999300, 9.660000000000003700, 0.0000000000000000000 ) ) ;
#1054 = LINE ( 'NONE', #483, #633 ) ;
#1055 = CARTESIAN_POINT ( 'NONE',  ( -9.324999999999999300, 0.0000000000000000000, 7.049999999999999800 ) ) ;
#1056 =( LENGTH_UNIT ( ) NAMED_UNIT ( * ) SI_UNIT ( .MILLI., .METRE. ) );
#1057 = LINE ( 'NONE', #1227, #1198 ) ;
#1058 = DIRECTION ( 'NONE',  ( -1.000000000000000000, -0.0000000000000000000, -0.0000000000000000000 ) ) ;
#1059 = VERTEX_POINT ( 'NONE', #53 ) ;
#1060 = STYLED_ITEM ( 'NONE', ( #965 ), #1126 ) ;
#1061 = PLANE ( 'NONE',  #497 ) ;
#1062 = ORIENTED_EDGE ( 'NONE', *, *, #697, .F. ) ;
#1063 =( NAMED_UNIT ( * ) SI_UNIT ( $, .STERADIAN. ) SOLID_ANGLE_UNIT ( ) );
#1064 = DIRECTION ( 'NONE',  ( 0.0000000000000000000, 0.0000000000000000000, -1.000000000000000000 ) ) ;
#1065 = AXIS2_PLACEMENT_3D ( 'NONE', #1025, #237, #323 ) ;
#1066 = AXIS2_PLACEMENT_3D ( 'NONE', #13, #397, #220 ) ;
#1067 = SURFACE_SIDE_STYLE ('',( #725 ) ) ;
#1068 = VECTOR ( 'NONE', #474, 1000.000000000000000 ) ;
#1069 = LINE ( 'NONE', #546, #752 ) ;
#1070 = MANIFOLD_SOLID_BREP ( 'Boss-Extrude2', #238 ) ;
#1071 = EDGE_CURVE ( 'NONE', #59, #518, #488, .T. ) ;
#1072 = VECTOR ( 'NONE', #256, 1000.000000000000000 ) ;
#1073 =( GEOMETRIC_REPRESENTATION_CONTEXT ( 3 ) GLOBAL_UNCERTAINTY_ASSIGNED_CONTEXT ( ( #726 ) ) GLOBAL_UNIT_ASSIGNED_CONTEXT ( ( #1056, #447, #829 ) ) REPRESENTATION_CONTEXT ( 'NONE', 'WORKASPACE' ) );
#1074 = ORIENTED_EDGE ( 'NONE', *, *, #805, .F. ) ;
#1075 = ORIENTED_EDGE ( 'NONE', *, *, #1284, .F. ) ;
#1076 = EDGE_LOOP ( 'NONE', ( #656, #760, #345, #812 ) ) ;
#1077 = ORIENTED_EDGE ( 'NONE', *, *, #119, .T. ) ;
#1078 = CARTESIAN_POINT ( 'NONE',  ( 2.290000000000002300, -5.245964674255848900E-032, 0.7500000000000000000 ) ) ;
#1079 = VERTEX_POINT ( 'NONE', #353 ) ;
#1080 = EDGE_CURVE ( 'NONE', #768, #28, #81, .T. ) ;
#1081 = PLANE ( 'NONE',  #677 ) ;
#1082 = ORIENTED_EDGE ( 'NONE', *, *, #405, .T. ) ;
#1083 = LINE ( 'NONE', #301, #564 ) ;
#1084 = DIRECTION ( 'NONE',  ( 1.000000000000000000, 0.0000000000000000000, 0.0000000000000000000 ) ) ;
#1085 = DIRECTION ( 'NONE',  ( 0.0000000000000000000, 1.000000000000000000, 0.0000000000000000000 ) ) ;
#1086 = VECTOR ( 'NONE', #327, 1000.000000000000000 ) ;
#1087 = LINE ( 'NONE', #520, #494 ) ;
#1088 = SURFACE_SIDE_STYLE ('',( #701 ) ) ;
#1089 = ORIENTED_EDGE ( 'NONE', *, *, #443, .T. ) ;
#1090 = CARTESIAN_POINT ( 'NONE',  ( -9.324999999999999300, 0.0000000000000000000, 7.049999999999999800 ) ) ;
#1091 = EDGE_CURVE ( 'NONE', #293, #398, #1182, .T. ) ;
#1092 = PLANE ( 'NONE',  #927 ) ;
#1093 =( GEOMETRIC_REPRESENTATION_CONTEXT ( 3 ) GLOBAL_UNCERTAINTY_ASSIGNED_CONTEXT ( ( #1275 ) ) GLOBAL_UNIT_ASSIGNED_CONTEXT ( ( #194, #873, #197 ) ) REPRESENTATION_CONTEXT ( 'NONE', 'WORKASPACE' ) );
#1094 = ORIENTED_EDGE ( 'NONE', *, *, #867, .T. ) ;
#1095 = ORIENTED_EDGE ( 'NONE', *, *, #416, .F. ) ;
#1096 = CARTESIAN_POINT ( 'NONE',  ( 4.830000000000002700, -6.557455842819812000E-032, 0.7500000000000000000 ) ) ;
#1097 = ORIENTED_EDGE ( 'NONE', *, *, #1107, .F. ) ;
#1098 = CARTESIAN_POINT ( 'NONE',  ( 2.790000000000002700, -4.599999999999999600, 1.050000000000000000 ) ) ;
#1099 = CARTESIAN_POINT ( 'NONE',  ( 9.324999999999999300, -0.4999999999999976100, 7.049999999999999800 ) ) ;
#1100 = ADVANCED_FACE ( 'NONE', ( #856 ), #539, .F. ) ;
#1101 = PLANE ( 'NONE',  #828 ) ;
#1102 = PRESENTATION_STYLE_ASSIGNMENT (( #498 ) ) ;
#1103 = VECTOR ( 'NONE', #731, 1000.000000000000000 ) ;
#1104 = CARTESIAN_POINT ( 'NONE',  ( -9.824999999999999300, 9.660000000000003700, 7.049999999999999800 ) ) ;
#1105 = DIRECTION ( 'NONE',  ( 0.0000000000000000000, 0.0000000000000000000, 1.000000000000000000 ) ) ;
#1106 = DIRECTION ( 'NONE',  ( -1.000000000000000000, 0.0000000000000000000, 0.0000000000000000000 ) ) ;
#1107 = EDGE_CURVE ( 'NONE', #893, #1190, #751, .T. ) ;
#1108 = UNCERTAINTY_MEASURE_WITH_UNIT (LENGTH_MEASURE( 1.000000000000000100E-005 ), #550, 'distance_accuracy_value', 'NONE');
#1109 = ADVANCED_FACE ( 'NONE', ( #147 ), #1081, .T. ) ;
#1110 = EDGE_LOOP ( 'NONE', ( #1179, #747, #990, #811 ) ) ;
#1111 = FILL_AREA_STYLE_COLOUR ( '', #1125 ) ;
#1112 = CARTESIAN_POINT ( 'NONE',  ( 5.330000000000002700, -4.599999999999999600, 1.050000000000000000 ) ) ;
#1113 = EDGE_LOOP ( 'NONE', ( #1130, #910, #290, #329 ) ) ;
#1114 = ORIENTED_EDGE ( 'NONE', *, *, #285, .F. ) ;
#1115 = CARTESIAN_POINT ( 'NONE',  ( -5.329999999999999200, -2.062758747406705200E-032, 0.7499999999999997800 ) ) ;
#1116 = CARTESIAN_POINT ( 'NONE',  ( -7.869999999999998300, -4.599999999999999600, 0.7500000000000000000 ) ) ;
#1117 = VECTOR ( 'NONE', #501, 1000.000000000000000 ) ;
#1118 = EDGE_CURVE ( 'NONE', #41, #729, #648, .T. ) ;
#1119 = CARTESIAN_POINT ( 'NONE',  ( 4.830000000000002700, -4.599999999999999600, 0.7500000000000000000 ) ) ;
#1120 = CARTESIAN_POINT ( 'NONE',  ( -7.369999999999998300, 0.0000000000000000000, 1.050000000000000000 ) ) ;
#1121 = VECTOR ( 'NONE', #389, 1000.000000000000000 ) ;
#1122 = AXIS2_PLACEMENT_3D ( 'NONE', #554, #80, #186 ) ;
#1123 = DIRECTION ( 'NONE',  ( 1.000000000000000000, -5.163351057338433900E-033, 0.0000000000000000000 ) ) ;
#1124 = FACE_BOUND ( 'NONE', #44, .T. ) ;
#1125 = COLOUR_RGB ( '',0.2509803921568627400, 0.2509803921568627400, 0.2509803921568627400 ) ;
#1126 = ADVANCED_FACE ( 'NONE', ( #1281 ), #100, .F. ) ;
#1127 = FILL_AREA_STYLE_COLOUR ( '', #555 ) ;
#1128 = VECTOR ( 'NONE', #736, 1000.000000000000000 ) ;
#1129 = ORIENTED_EDGE ( 'NONE', *, *, #556, .F. ) ;
#1130 = ORIENTED_EDGE ( 'NONE', *, *, #711, .T. ) ;
#1131 = ADVANCED_FACE ( 'NONE', ( #540 ), #292, .F. ) ;
#1132 = DIRECTION ( 'NONE',  ( 0.0000000000000000000, 0.0000000000000000000, -1.000000000000000000 ) ) ;
#1133 = ORIENTED_EDGE ( 'NONE', *, *, #1107, .T. ) ;
#1134 = MECHANICAL_DESIGN_GEOMETRIC_PRESENTATION_REPRESENTATION (  '', ( #252 ), #446 ) ;
#1135 = CARTESIAN_POINT ( 'NONE',  ( -9.324999999999999300, 0.0000000000000000000, 7.049999999999999800 ) ) ;
#1136 = CYLINDRICAL_SURFACE ( 'NONE', #939, 0.2245251101629349200 ) ;
#1137 = CARTESIAN_POINT ( 'NONE',  ( 9.324999999999999300, -9.629649721936179300E-032, 7.049999999999999800 ) ) ;
#1138 = CARTESIAN_POINT ( 'NONE',  ( 7.620000000000000100, -4.599999999999999600, 0.0000000000000000000 ) ) ;
#1139 = VECTOR ( 'NONE', #282, 1000.000000000000000 ) ;
#1140 = CARTESIAN_POINT ( 'NONE',  ( -0.2499999999999985000, -3.934473505691887000E-032, 1.050000000000000000 ) ) ;
#1141 = VECTOR ( 'NONE', #579, 1000.000000000000000 ) ;
#1142 = STYLED_ITEM ( 'NONE', ( #967 ), #808 ) ;
#1143 = CARTESIAN_POINT ( 'NONE',  ( -5.329999999999999200, -4.599999999999999600, 1.050000000000000000 ) ) ;
#1144 = CARTESIAN_POINT ( 'NONE',  ( 9.324999999999999300, -9.629649721936179300E-032, 7.049999999999999800 ) ) ;
#1145 = CYLINDRICAL_SURFACE ( 'NONE', #1230, 0.2245251101629349200 ) ;
#1146 = DIRECTION ( 'NONE',  ( 0.0000000000000000000, 0.0000000000000000000, 1.000000000000000000 ) ) ;
#1147 = CARTESIAN_POINT ( 'NONE',  ( 2.790000000000002700, -4.599999999999999600, 0.7500000000000000000 ) ) ;
#1148 = DIRECTION ( 'NONE',  ( 0.0000000000000000000, 0.0000000000000000000, -1.000000000000000000 ) ) ;
#1149 = ORIENTED_EDGE ( 'NONE', *, *, #354, .F. ) ;
#1150 = EDGE_CURVE ( 'NONE', #97, #768, #373, .T. ) ;
#1151 = VERTEX_POINT ( 'NONE', #394 ) ;
#1152 = ORIENTED_EDGE ( 'NONE', *, *, #469, .T. ) ;
#1153 = DIRECTION ( 'NONE',  ( 1.000000000000000000, 0.0000000000000000000, 0.0000000000000000000 ) ) ;
#1154 = ORIENTED_EDGE ( 'NONE', *, *, #875, .T. ) ;
#1155 = DIRECTION ( 'NONE',  ( -1.000000000000000000, 5.163351057338433900E-033, 0.0000000000000000000 ) ) ;
#1156 = EDGE_CURVE ( 'NONE', #1163, #1046, #1083, .T. ) ;
#1157 = CARTESIAN_POINT ( 'NONE',  ( -9.324999999999999300, 0.0000000000000000000, 0.0000000000000000000 ) ) ;
#1158 = AXIS2_PLACEMENT_3D ( 'NONE', #409, #212, #692 ) ;
#1159 = DIRECTION ( 'NONE',  ( 0.0000000000000000000, 0.0000000000000000000, -1.000000000000000000 ) ) ;
#1160 = VECTOR ( 'NONE', #67, 1000.000000000000000 ) ;
#1161 = EDGE_LOOP ( 'NONE', ( #772, #640, #964, #1089 ) ) ;
#1162 = DIRECTION ( 'NONE',  ( 1.000000000000000000, 0.0000000000000000000, 0.0000000000000000000 ) ) ;
#1163 = VERTEX_POINT ( 'NONE', #486 ) ;
#1164 = ORIENTED_EDGE ( 'NONE', *, *, #1218, .F. ) ;
#1165 = DIRECTION ( 'NONE',  ( -0.0000000000000000000, -0.0000000000000000000, -1.000000000000000000 ) ) ;
#1166 = MECHANICAL_DESIGN_GEOMETRIC_PRESENTATION_REPRESENTATION (  '', ( #333 ), #537 ) ;
#1167 = ORIENTED_EDGE ( 'NONE', *, *, #639, .T. ) ;
#1168 =( LENGTH_UNIT ( ) NAMED_UNIT ( * ) SI_UNIT ( .MILLI., .METRE. ) );
#1169 = FACE_OUTER_BOUND ( 'NONE', #103, .T. ) ;
#1170 = FACE_OUTER_BOUND ( 'NONE', #613, .T. ) ;
#1171 = LINE ( 'NONE', #735, #883 ) ;
#1172 = CARTESIAN_POINT ( 'NONE',  ( -7.869999999999998300, 0.0000000000000000000, 1.050000000000000000 ) ) ;
#1173 = LINE ( 'NONE', #143, #339 ) ;
#1174 = PRESENTATION_STYLE_ASSIGNMENT (( #452 ) ) ;
#1175 = VECTOR ( 'NONE', #138, 1000.000000000000000 ) ;
#1176 = AXIS2_PLACEMENT_3D ( 'NONE', #911, #38, #1132 ) ;
#1177 = VERTEX_POINT ( 'NONE', #192 ) ;
#1178 = VERTEX_POINT ( 'NONE', #1204 ) ;
#1179 = ORIENTED_EDGE ( 'NONE', *, *, #515, .F. ) ;
#1180 = ORIENTED_EDGE ( 'NONE', *, *, #922, .F. ) ;
#1181 = STYLED_ITEM ( 'NONE', ( #1102 ), #921 ) ;
#1182 = LINE ( 'NONE', #949, #1264 ) ;
#1183 = CARTESIAN_POINT ( 'NONE',  ( -7.869999999999998300, -4.599999999999999600, 1.050000000000000000 ) ) ;
#1184 = LINE ( 'NONE', #1183, #857 ) ;
#1185 = FACE_OUTER_BOUND ( 'NONE', #1032, .T. ) ;
#1186 = EDGE_CURVE ( 'NONE', #1050, #745, #144, .T. ) ;
#1187 = LINE ( 'NONE', #42, #74 ) ;
#1188 = VERTEX_POINT ( 'NONE', #583 ) ;
#1189 = VERTEX_POINT ( 'NONE', #510 ) ;
#1190 = VERTEX_POINT ( 'NONE', #1115 ) ;
#1191 = SURFACE_SIDE_STYLE ('',( #408 ) ) ;
#1192 = ORIENTED_EDGE ( 'NONE', *, *, #980, .T. ) ;
#1193 = MECHANICAL_DESIGN_GEOMETRIC_PRESENTATION_REPRESENTATION (  '', ( #1060 ), #702 ) ;
#1194 = FILL_AREA_STYLE_COLOUR ( '', #300 ) ;
#1195 = DIRECTION ( 'NONE',  ( 1.000000000000000000, 0.0000000000000000000, 0.0000000000000000000 ) ) ;
#1196 = LINE ( 'NONE', #941, #321 ) ;
#1197 = CARTESIAN_POINT ( 'NONE',  ( 2.790000000000002700, -4.599999999999999600, 1.050000000000000000 ) ) ;
#1198 = VECTOR ( 'NONE', #935, 1000.000000000000000 ) ;
#1199 = CARTESIAN_POINT ( 'NONE',  ( -5.329999999999999200, -4.599999999999999600, 1.050000000000000000 ) ) ;
#1200 = AXIS2_PLACEMENT_3D ( 'NONE', #1143, #146, #819 ) ;
#1201 = DIRECTION ( 'NONE',  ( -1.000000000000000000, -0.0000000000000000000, -0.0000000000000000000 ) ) ;
#1202 = ORIENTED_EDGE ( 'NONE', *, *, #844, .F. ) ;
#1203 = VERTEX_POINT ( 'NONE', #1104 ) ;
#1204 = CARTESIAN_POINT ( 'NONE',  ( 9.324999999999999300, -9.629649721936179300E-032, 0.0000000000000000000 ) ) ;
#1205 = ADVANCED_FACE ( 'NONE', ( #646 ), #130, .F. ) ;
#1206 = DIRECTION ( 'NONE',  ( 1.000000000000000000, 0.0000000000000000000, 0.0000000000000000000 ) ) ;
#1207 = EDGE_CURVE ( 'NONE', #834, #293, #363, .T. ) ;
#1208 = DIRECTION ( 'NONE',  ( 0.0000000000000000000, 0.0000000000000000000, -1.000000000000000000 ) ) ;
#1209 = CARTESIAN_POINT ( 'NONE',  ( -0.2499999999999985000, -4.599999999999999600, 1.050000000000000000 ) ) ;
#1210 = LINE ( 'NONE', #930, #631 ) ;
#1211 = PRESENTATION_LAYER_ASSIGNMENT (  '', '', ( #608 ) ) ;
#1212 = PLANE ( 'NONE',  #185 ) ;
#1213 = STYLED_ITEM ( 'NONE', ( #49 ), #1033 ) ;
#1214 = ADVANCED_FACE ( 'NONE', ( #1169 ), #1136, .F. ) ;
#1215 = LINE ( 'NONE', #481, #582 ) ;
#1216 = SURFACE_SIDE_STYLE ('',( #925 ) ) ;
#1217 = SURFACE_SIDE_STYLE ('',( #1296 ) ) ;
#1218 = EDGE_CURVE ( 'NONE', #457, #170, #817, .T. ) ;
#1219 = FACE_OUTER_BOUND ( 'NONE', #560, .T. ) ;
#1220 = ORIENTED_EDGE ( 'NONE', *, *, #844, .T. ) ;
#1221 = DIRECTION ( 'NONE',  ( 0.0000000000000000000, 0.0000000000000000000, 1.000000000000000000 ) ) ;
#1222 = DIRECTION ( 'NONE',  ( 0.0000000000000000000, 0.0000000000000000000, 1.000000000000000000 ) ) ;
#1223 = ORIENTED_EDGE ( 'NONE', *, *, #867, .F. ) ;
#1224 = PLANE ( 'NONE',  #1200 ) ;
#1225 = DIRECTION ( 'NONE',  ( 0.0000000000000000000, 1.000000000000000000, 0.0000000000000000000 ) ) ;
#1226 = ORIENTED_EDGE ( 'NONE', *, *, #435, .F. ) ;
#1227 = CARTESIAN_POINT ( 'NONE',  ( -0.2499999999999985000, -4.599999999999999600, 1.050000000000000000 ) ) ;
#1228 = LINE ( 'NONE', #915, #470 ) ;
#1229 = ADVANCED_FACE ( 'NONE', ( #1016 ), #595, .F. ) ;
#1230 = AXIS2_PLACEMENT_3D ( 'NONE', #1034, #810, #513 ) ;
#1231 = DIRECTION ( 'NONE',  ( 1.000000000000000000, 0.0000000000000000000, 0.0000000000000000000 ) ) ;
#1232 = UNCERTAINTY_MEASURE_WITH_UNIT (LENGTH_MEASURE( 1.000000000000000100E-005 ), #890, 'distance_accuracy_value', 'NONE');
#1233 = LINE ( 'NONE', #764, #177 ) ;
#1234 = STYLED_ITEM ( 'NONE', ( #14 ), #905 ) ;
#1235 = CARTESIAN_POINT ( 'NONE',  ( 9.824999999999999300, -0.4999999999999976100, 0.0000000000000000000 ) ) ;
#1236 = CIRCLE ( 'NONE', #713, 0.2245251101629349200 ) ;
#1237 = CIRCLE ( 'NONE', #906, 0.2245251101629349200 ) ;
#1238 = CARTESIAN_POINT ( 'NONE',  ( -7.600474889837063800, 1.000000000000000000, 7.049999999999999800 ) ) ;
#1239 = ADVANCED_FACE ( 'NONE', ( #597 ), #898, .F. ) ;
#1240 = DIRECTION ( 'NONE',  ( 0.0000000000000000000, 1.000000000000000000, 0.0000000000000000000 ) ) ;
#1241 = ORIENTED_EDGE ( 'NONE', *, *, #1293, .T. ) ;
#1242 = EDGE_LOOP ( 'NONE', ( #1049, #283, #1062, #830 ) ) ;
#1243 = ORIENTED_EDGE ( 'NONE', *, *, #1080, .F. ) ;
#1244 = CARTESIAN_POINT ( 'NONE',  ( -8.049525110162932200, 1.000000000000000000, 7.000000000000000000 ) ) ;
#1245 = ORIENTED_EDGE ( 'NONE', *, *, #792, .T. ) ;
#1246 = ORIENTED_EDGE ( 'NONE', *, *, #1258, .T. ) ;
#1247 = SURFACE_STYLE_USAGE ( .BOTH. , #356 ) ;
#1248 =( NAMED_UNIT ( * ) PLANE_ANGLE_UNIT ( ) SI_UNIT ( $, .RADIAN. ) );
#1249 = CARTESIAN_POINT ( 'NONE',  ( -9.324999999999999300, -0.4999999999999976100, 0.0000000000000000000 ) ) ;
#1250 = VECTOR ( 'NONE', #517, 1000.000000000000000 ) ;
#1251 = AXIS2_PLACEMENT_3D ( 'NONE', #1026, #422, #816 ) ;
#1252 = LINE ( 'NONE', #225, #971 ) ;
#1253 = FACE_OUTER_BOUND ( 'NONE', #499, .T. ) ;
#1254 = CARTESIAN_POINT ( 'NONE',  ( 0.2500000000000019400, -4.599999999999999600, 0.7500000000000000000 ) ) ;
#1255 = ORIENTED_EDGE ( 'NONE', *, *, #330, .T. ) ;
#1256 = DIRECTION ( 'NONE',  ( 0.0000000000000000000, 0.0000000000000000000, -1.000000000000000000 ) ) ;
#1257 = EDGE_LOOP ( 'NONE', ( #1246, #1274, #120, #744 ) ) ;
#1258 = EDGE_CURVE ( 'NONE', #25, #193, #448, .T. ) ;
#1259 = EDGE_LOOP ( 'NONE', ( #973, #831, #1074, #371 ) ) ;
#1260 = FILL_AREA_STYLE_COLOUR ( '', #840 ) ;
#1261 = DIRECTION ( 'NONE',  ( 0.0000000000000000000, 0.0000000000000000000, 1.000000000000000000 ) ) ;
#1262 = CLOSED_SHELL ( 'NONE', ( #1214, #611, #905, #921, #1205, #1126, #210, #598, #311, #808, #234, #19, #500, #216, #790, #27, #896, #782, #328, #320, #1131, #996, #1017, #580, #37, #1229, #1239, #1011, #1100, #913, #224, #696, #133 ) ) ;
#1263 = SURFACE_STYLE_USAGE ( .BOTH. , #947 ) ;
#1264 = VECTOR ( 'NONE', #63, 1000.000000000000000 ) ;
#1265 = DIRECTION ( 'NONE',  ( 0.0000000000000000000, -1.000000000000000000, 0.0000000000000000000 ) ) ;
#1266 = CARTESIAN_POINT ( 'NONE',  ( 5.330000000000002700, -4.599999999999999600, 1.050000000000000000 ) ) ;
#1267 = LINE ( 'NONE', #1254, #1103 ) ;
#1268 = LINE ( 'NONE', #1048, #423 ) ;
#1269 = PLANE ( 'NONE',  #995 ) ;
#1270 = AXIS2_PLACEMENT_3D ( 'NONE', #986, #106, #992 ) ;
#1271 = DIRECTION ( 'NONE',  ( -1.000000000000000000, 0.0000000000000000000, 0.0000000000000000000 ) ) ;
#1272 = LINE ( 'NONE', #434, #988 ) ;
#1273 = EDGE_CURVE ( 'NONE', #206, #22, #89, .T. ) ;
#1274 = ORIENTED_EDGE ( 'NONE', *, *, #454, .F. ) ;
#1275 = UNCERTAINTY_MEASURE_WITH_UNIT (LENGTH_MEASURE( 1.000000000000000100E-005 ), #194, 'distance_accuracy_value', 'NONE');
#1276 = ORIENTED_EDGE ( 'NONE', *, *, #792, .F. ) ;
#1277 = EDGE_CURVE ( 'NONE', #96, #1189, #1228, .T. ) ;
#1278 = ORIENTED_EDGE ( 'NONE', *, *, #1156, .F. ) ;
#1279 = AXIS2_PLACEMENT_3D ( 'NONE', #976, #1295, #981 ) ;
#1280 =( NAMED_UNIT ( * ) PLANE_ANGLE_UNIT ( ) SI_UNIT ( $, .RADIAN. ) );
#1281 = FACE_OUTER_BOUND ( 'NONE', #88, .T. ) ;
#1282 = FACE_OUTER_BOUND ( 'NONE', #793, .T. ) ;
#1283 = VECTOR ( 'NONE', #201, 1000.000000000000000 ) ;
#1284 = EDGE_CURVE ( 'NONE', #439, #59, #122, .T. ) ;
#1285 = VECTOR ( 'NONE', #712, 1000.000000000000000 ) ;
#1286 =( GEOMETRIC_REPRESENTATION_CONTEXT ( 3 ) GLOBAL_UNCERTAINTY_ASSIGNED_CONTEXT ( ( #1108 ) ) GLOBAL_UNIT_ASSIGNED_CONTEXT ( ( #550, #955, #1063 ) ) REPRESENTATION_CONTEXT ( 'NONE', 'WORKASPACE' ) );
#1287 = LINE ( 'NONE', #1053, #1044 ) ;
#1288 = CARTESIAN_POINT ( 'NONE',  ( -5.329999999999999200, -1.311491168563962200E-032, 1.050000000000000000 ) ) ;
#1289 = VERTEX_POINT ( 'NONE', #695 ) ;
#1290 = ORIENTED_EDGE ( 'NONE', *, *, #191, .T. ) ;
#1291 = CARTESIAN_POINT ( 'NONE',  ( 2.540000000000000000, -4.599999999999999600, 0.0000000000000000000 ) ) ;
#1292 = EDGE_LOOP ( 'NONE', ( #666, #134, #86, #866 ) ) ;
#1293 = EDGE_CURVE ( 'NONE', #398, #1289, #485, .T. ) ;
#1294 = PLANE ( 'NONE',  #112 ) ;
#1295 = DIRECTION ( 'NONE',  ( 0.0000000000000000000, 0.0000000000000000000, -1.000000000000000000 ) ) ;
#1296 = SURFACE_STYLE_FILL_AREA ( #404 ) ;
#1297 = FACE_BOUND ( 'NONE', #257, .T. ) ;
ENDSEC;
END-ISO-10303-21;
