ISO-10303-21;
HEADER;
FILE_DESCRIPTION (( 'STEP AP214' ),
    '1' );
FILE_NAME ('CUI_PCN2-S12-D15-S.step',
    '2017-08-14T17:11:59',
    ( '' ),
    ( '' ),
    'SwSTEP 2.0',
    'SolidWorks 2017',
    '' );
FILE_SCHEMA (( 'AUTOMOTIVE_DESIGN' ));
ENDSEC;

DATA;
#1 = CARTESIAN_POINT ( 'NONE',  ( 0.3699999999999979400, -4.599999999999999600, 1.800000000000000300 ) ) ;
#2 = DIRECTION ( 'NONE',  ( 0.0000000000000000000, 0.0000000000000000000, 1.000000000000000000 ) ) ;
#3 = EDGE_CURVE ( 'NONE', #844, #596, #166, .T. ) ;
#4 = DIRECTION ( 'NONE',  ( 1.000000000000000000, 0.0000000000000000000, 0.0000000000000000000 ) ) ;
#5 = SURFACE_SIDE_STYLE ('',( #1150 ) ) ;
#6 = ORIENTED_EDGE ( 'NONE', *, *, #32, .F. ) ;
#7 = ORIENTED_EDGE ( 'NONE', *, *, #576, .F. ) ;
#8 = DIRECTION ( 'NONE',  ( 0.0000000000000000000, -1.000000000000000000, 0.0000000000000000000 ) ) ;
#9 = ORIENTED_EDGE ( 'NONE', *, *, #834, .F. ) ;
#10 = ORIENTED_EDGE ( 'NONE', *, *, #680, .T. ) ;
#11 = FILL_AREA_STYLE ('',( #601 ) ) ;
#12 = CARTESIAN_POINT ( 'NONE',  ( -7.750000000000001800, -4.599999999999999600, 1.800000000000000300 ) ) ;
#13 = EDGE_CURVE ( 'NONE', #337, #877, #107, .T. ) ;
#14 = DIRECTION ( 'NONE',  ( -1.000000000000000000, -0.0000000000000000000, -0.0000000000000000000 ) ) ;
#15 = VECTOR ( 'NONE', #1090, 1000.000000000000000 ) ;
#16 = LINE ( 'NONE', #424, #855 ) ;
#17 = CARTESIAN_POINT ( 'NONE',  ( 2.409999999999998800, -4.599999999999999600, 1.800000000000000300 ) ) ;
#18 = VECTOR ( 'NONE', #172, 1000.000000000000000 ) ;
#19 = CARTESIAN_POINT ( 'NONE',  ( 2.409999999999998800, -4.599999999999999600, 1.800000000000000300 ) ) ;
#20 = LINE ( 'NONE', #100, #105 ) ;
#21 = ORIENTED_EDGE ( 'NONE', *, *, #897, .T. ) ;
#22 = DIRECTION ( 'NONE',  ( 1.000000000000000000, 0.0000000000000000000, 0.0000000000000000000 ) ) ;
#23 = VERTEX_POINT ( 'NONE', #397 ) ;
#24 = DIRECTION ( 'NONE',  ( -1.000000000000000000, -0.0000000000000000000, -0.0000000000000000000 ) ) ;
#25 = ORIENTED_EDGE ( 'NONE', *, *, #301, .F. ) ;
#26 = FILL_AREA_STYLE ('',( #329 ) ) ;
#27 = DIRECTION ( 'NONE',  ( 1.000000000000000000, 0.0000000000000000000, 0.0000000000000000000 ) ) ;
#28 = PRODUCT_DEFINITION_SHAPE ( 'NONE', 'NONE',  #1063 ) ;
#29 = DIRECTION ( 'NONE',  ( -0.0000000000000000000, -0.0000000000000000000, -1.000000000000000000 ) ) ;
#30 = SURFACE_STYLE_USAGE ( .BOTH. , #1016 ) ;
#31 = CARTESIAN_POINT ( 'NONE',  ( -9.400000000000002100, -0.5000000000000000000, 7.200000000000001100 ) ) ;
#32 = EDGE_CURVE ( 'NONE', #773, #277, #1230, .T. ) ;
#33 = LINE ( 'NONE', #405, #503 ) ;
#34 = CARTESIAN_POINT ( 'NONE',  ( 2.409999999999998800, -4.599999999999999600, 1.800000000000000300 ) ) ;
#35 = CARTESIAN_POINT ( 'NONE',  ( -5.210000000000000900, 0.0000000000000000000, 1.800000000000000300 ) ) ;
#36 = DIRECTION ( 'NONE',  ( 0.0000000000000000000, 0.0000000000000000000, 1.000000000000000000 ) ) ;
#37 = VECTOR ( 'NONE', #1072, 1000.000000000000000 ) ;
#38 = CARTESIAN_POINT ( 'NONE',  ( 2.909999999999999300, 0.0000000000000000000, 1.799999999999999800 ) ) ;
#39 = ADVANCED_FACE ( 'NONE', ( #378 ), #894, .T. ) ;
#40 = CARTESIAN_POINT ( 'NONE',  ( 0.0000000000000000000, 0.0000000000000000000, 0.0000000000000000000 ) ) ;
#41 = DIRECTION ( 'NONE',  ( 0.0000000000000000000, -1.000000000000000000, 0.0000000000000000000 ) ) ;
#42 = CARTESIAN_POINT ( 'NONE',  ( -9.800000000000000700, -0.4999999999999977200, 7.200000000000001100 ) ) ;
#43 = EDGE_CURVE ( 'NONE', #364, #550, #495, .T. ) ;
#44 = ORIENTED_EDGE ( 'NONE', *, *, #153, .F. ) ;
#45 =( NAMED_UNIT ( * ) SI_UNIT ( $, .STERADIAN. ) SOLID_ANGLE_UNIT ( ) );
#46 =( LENGTH_UNIT ( ) NAMED_UNIT ( * ) SI_UNIT ( .MILLI., .METRE. ) );
#47 = PLANE ( 'NONE',  #1291 ) ;
#48 = VECTOR ( 'NONE', #14, 1000.000000000000000 ) ;
#49 = SURFACE_STYLE_USAGE ( .BOTH. , #943 ) ;
#50 = MECHANICAL_DESIGN_GEOMETRIC_PRESENTATION_REPRESENTATION (  '', ( #95 ), #202 ) ;
#51 = LINE ( 'NONE', #1228, #288 ) ;
#52 = CARTESIAN_POINT ( 'NONE',  ( -0.1300000000000016400, 0.0000000000000000000, 1.499999999999999600 ) ) ;
#53 = CARTESIAN_POINT ( 'NONE',  ( -7.500000000000002700, 1.199999999999999700, 7.200000000000001100 ) ) ;
#54 = LINE ( 'NONE', #259, #1177 ) ;
#55 = SURFACE_SIDE_STYLE ('',( #206 ) ) ;
#56 = EDGE_CURVE ( 'NONE', #1092, #80, #1035, .T. ) ;
#57 = DIRECTION ( 'NONE',  ( 0.0000000000000000000, 0.0000000000000000000, 1.000000000000000000 ) ) ;
#58 = ORIENTED_EDGE ( 'NONE', *, *, #1193, .F. ) ;
#59 = ORIENTED_EDGE ( 'NONE', *, *, #257, .T. ) ;
#60 = AXIS2_PLACEMENT_3D ( 'NONE', #308, #871, #4 ) ;
#61 = ORIENTED_EDGE ( 'NONE', *, *, #1101, .F. ) ;
#62 = DIRECTION ( 'NONE',  ( -1.000000000000000000, -5.692061405548908500E-015, 0.0000000000000000000 ) ) ;
#63 = DIRECTION ( 'NONE',  ( 1.000000000000000000, 0.0000000000000000000, 0.0000000000000000000 ) ) ;
#64 = FACE_OUTER_BOUND ( 'NONE', #124, .T. ) ;
#65 =( NAMED_UNIT ( * ) PLANE_ANGLE_UNIT ( ) SI_UNIT ( $, .RADIAN. ) );
#66 = FACE_OUTER_BOUND ( 'NONE', #92, .T. ) ;
#67 = CARTESIAN_POINT ( 'NONE',  ( 4.949999999999999300, -4.599999999999999600, 1.800000000000000300 ) ) ;
#68 = PRESENTATION_LAYER_ASSIGNMENT (  '', '', ( #746 ) ) ;
#69 = LINE ( 'NONE', #12, #1277 ) ;
#70 = LINE ( 'NONE', #282, #1279 ) ;
#71 = EDGE_LOOP ( 'NONE', ( #173, #426, #1265, #846 ) ) ;
#72 = LINE ( 'NONE', #1001, #1124 ) ;
#73 = CARTESIAN_POINT ( 'NONE',  ( 0.3699999999999979400, -4.599999999999999600, 1.800000000000000300 ) ) ;
#74 = EDGE_LOOP ( 'NONE', ( #1293, #443, #383, #212 ) ) ;
#75 = ORIENTED_EDGE ( 'NONE', *, *, #758, .F. ) ;
#76 = CARTESIAN_POINT ( 'NONE',  ( -0.1300000000000016400, 0.0000000000000000000, 1.800000000000000700 ) ) ;
#77 = ORIENTED_EDGE ( 'NONE', *, *, #1254, .F. ) ;
#78 = ORIENTED_EDGE ( 'NONE', *, *, #387, .F. ) ;
#79 = MECHANICAL_DESIGN_GEOMETRIC_PRESENTATION_REPRESENTATION (  '', ( #584 ), #144 ) ;
#80 = VERTEX_POINT ( 'NONE', #627 ) ;
#81 = AXIS2_PLACEMENT_3D ( 'NONE', #40, #134, #1041 ) ;
#82 = CARTESIAN_POINT ( 'NONE',  ( -7.250000000000001800, -4.599999999999999600, 1.800000000000000300 ) ) ;
#83 = DIRECTION ( 'NONE',  ( 0.0000000000000000000, 1.000000000000000000, 0.0000000000000000000 ) ) ;
#84 = MANIFOLD_SOLID_BREP ( 'LPattern1', #1285 ) ;
#85 = SURFACE_SIDE_STYLE ('',( #872 ) ) ;
#86 = CARTESIAN_POINT ( 'NONE',  ( -7.250000000000001800, -4.599999999999999600, 1.500000000000000000 ) ) ;
#87 = EDGE_CURVE ( 'NONE', #319, #828, #256, .T. ) ;
#88 = VERTEX_POINT ( 'NONE', #719 ) ;
#89 = PLANE ( 'NONE',  #1221 ) ;
#90 = LINE ( 'NONE', #1191, #842 ) ;
#91 = DIRECTION ( 'NONE',  ( 0.0000000000000000000, 1.000000000000000000, 0.0000000000000000000 ) ) ;
#92 = EDGE_LOOP ( 'NONE', ( #1197, #1132, #398, #1100 ) ) ;
#93 = ORIENTED_EDGE ( 'NONE', *, *, #498, .T. ) ;
#94 = ORIENTED_EDGE ( 'NONE', *, *, #13, .T. ) ;
#95 = STYLED_ITEM ( 'NONE', ( #856 ), #406 ) ;
#96 = CARTESIAN_POINT ( 'NONE',  ( 4.949999999999999300, -4.599999999999999600, 1.800000000000000300 ) ) ;
#97 = PRESENTATION_STYLE_ASSIGNMENT (( #913 ) ) ;
#98 = VECTOR ( 'NONE', #968, 1000.000000000000000 ) ;
#99 = LINE ( 'NONE', #642, #434 ) ;
#100 = CARTESIAN_POINT ( 'NONE',  ( -4.710000000000002600, -4.599999999999999600, 1.800000000000000300 ) ) ;
#101 = VECTOR ( 'NONE', #1256, 1000.000000000000000 ) ;
#102 = EDGE_CURVE ( 'NONE', #685, #224, #1250, .T. ) ;
#103 = LINE ( 'NONE', #755, #1226 ) ;
#104 = ADVANCED_FACE ( 'NONE', ( #1290 ), #1028, .F. ) ;
#105 = VECTOR ( 'NONE', #778, 1000.000000000000000 ) ;
#106 = CARTESIAN_POINT ( 'NONE',  ( 4.949999999999999300, -4.599999999999999600, 1.500000000000000000 ) ) ;
#107 = LINE ( 'NONE', #205, #392 ) ;
#108 = EDGE_LOOP ( 'NONE', ( #314, #653, #568, #1212 ) ) ;
#109 = ORIENTED_EDGE ( 'NONE', *, *, #758, .T. ) ;
#110 = ORIENTED_EDGE ( 'NONE', *, *, #1135, .F. ) ;
#111 = CARTESIAN_POINT ( 'NONE',  ( -4.710000000000002600, -4.599999999999999600, 1.800000000000000300 ) ) ;
#112 = ORIENTED_EDGE ( 'NONE', *, *, #1101, .T. ) ;
#113 = EDGE_CURVE ( 'NONE', #754, #960, #1130, .T. ) ;
#114 = LINE ( 'NONE', #750, #690 ) ;
#115 =( LENGTH_UNIT ( ) NAMED_UNIT ( * ) SI_UNIT ( .MILLI., .METRE. ) );
#116 = SURFACE_STYLE_FILL_AREA ( #26 ) ;
#117 = VECTOR ( 'NONE', #29, 1000.000000000000000 ) ;
#118 = DIRECTION ( 'NONE',  ( -1.000000000000000000, -0.0000000000000000000, -0.0000000000000000000 ) ) ;
#119 = VECTOR ( 'NONE', #389, 1000.000000000000000 ) ;
#120 = PRESENTATION_LAYER_ASSIGNMENT (  '', '', ( #1081 ) ) ;
#121 =( NAMED_UNIT ( * ) SI_UNIT ( $, .STERADIAN. ) SOLID_ANGLE_UNIT ( ) );
#122 = ORIENTED_EDGE ( 'NONE', *, *, #675, .T. ) ;
#123 = ORIENTED_EDGE ( 'NONE', *, *, #43, .F. ) ;
#124 = EDGE_LOOP ( 'NONE', ( #140, #328, #407, #333 ) ) ;
#125 = CARTESIAN_POINT ( 'NONE',  ( -0.1300000000000016400, -4.599999999999999600, 1.500000000000000000 ) ) ;
#126 = EDGE_CURVE ( 'NONE', #1007, #319, #593, .T. ) ;
#127 = FILL_AREA_STYLE ('',( #707 ) ) ;
#128 = AXIS2_PLACEMENT_3D ( 'NONE', #181, #554, #662 ) ;
#129 = LINE ( 'NONE', #1014, #48 ) ;
#130 = PLANE ( 'NONE',  #878 ) ;
#131 = DIRECTION ( 'NONE',  ( 0.0000000000000000000, 0.0000000000000000000, 1.000000000000000000 ) ) ;
#132 = VERTEX_POINT ( 'NONE', #324 ) ;
#133 = AXIS2_PLACEMENT_3D ( 'NONE', #921, #1235, #36 ) ;
#134 = DIRECTION ( 'NONE',  ( 0.0000000000000000000, 0.0000000000000000000, 1.000000000000000000 ) ) ;
#135 = ORIENTED_EDGE ( 'NONE', *, *, #168, .T. ) ;
#136 = CARTESIAN_POINT ( 'NONE',  ( 2.909999999999998400, -4.599999999999999600, 1.800000000000000300 ) ) ;
#137 = CARTESIAN_POINT ( 'NONE',  ( -9.800000000000000700, 9.700000000000002800, 7.200000000000001100 ) ) ;
#138 = VERTEX_POINT ( 'NONE', #1116 ) ;
#139 =( NAMED_UNIT ( * ) PLANE_ANGLE_UNIT ( ) SI_UNIT ( $, .RADIAN. ) );
#140 = ORIENTED_EDGE ( 'NONE', *, *, #694, .T. ) ;
#141 = CARTESIAN_POINT ( 'NONE',  ( -0.1300000000000016400, -4.599999999999999600, 1.500000000000000000 ) ) ;
#142 = DIRECTION ( 'NONE',  ( -0.0000000000000000000, -1.000000000000000000, -0.0000000000000000000 ) ) ;
#143 = ADVANCED_FACE ( 'NONE', ( #1110 ), #915, .F. ) ;
#144 =( GEOMETRIC_REPRESENTATION_CONTEXT ( 3 ) GLOBAL_UNCERTAINTY_ASSIGNED_CONTEXT ( ( #1248 ) ) GLOBAL_UNIT_ASSIGNED_CONTEXT ( ( #1229, #1037, #430 ) ) REPRESENTATION_CONTEXT ( 'NONE', 'WORKASPACE' ) );
#145 =( NAMED_UNIT ( * ) PLANE_ANGLE_UNIT ( ) SI_UNIT ( $, .RADIAN. ) );
#146 = STYLED_ITEM ( 'NONE', ( #661 ), #901 ) ;
#147 = LINE ( 'NONE', #312, #589 ) ;
#148 = CYLINDRICAL_SURFACE ( 'NONE', #948, 0.4000000000000001900 ) ;
#149 = VECTOR ( 'NONE', #57, 1000.000000000000000 ) ;
#150 = LINE ( 'NONE', #741, #937 ) ;
#151 = DIRECTION ( 'NONE',  ( 1.000000000000000000, 0.0000000000000000000, 0.0000000000000000000 ) ) ;
#152 = VERTEX_POINT ( 'NONE', #1133 ) ;
#153 = EDGE_CURVE ( 'NONE', #1075, #925, #1088, .T. ) ;
#154 =( LENGTH_UNIT ( ) NAMED_UNIT ( * ) SI_UNIT ( .MILLI., .METRE. ) );
#155 = ORIENTED_EDGE ( 'NONE', *, *, #285, .T. ) ;
#156 = AXIS2_PLACEMENT_3D ( 'NONE', #73, #287, #1164 ) ;
#157 = EDGE_LOOP ( 'NONE', ( #566, #776 ) ) ;
#158 = CARTESIAN_POINT ( 'NONE',  ( 4.949999999999999300, 0.0000000000000000000, 1.500000000000000000 ) ) ;
#159 = ORIENTED_EDGE ( 'NONE', *, *, #897, .F. ) ;
#160 = DIRECTION ( 'NONE',  ( 0.0000000000000000000, 0.0000000000000000000, 1.000000000000000000 ) ) ;
#161 = UNCERTAINTY_MEASURE_WITH_UNIT (LENGTH_MEASURE( 1.000000000000000100E-005 ), #46, 'distance_accuracy_value', 'NONE');
#162 = PLANE ( 'NONE',  #323 ) ;
#163 = LINE ( 'NONE', #362, #450 ) ;
#164 =( NAMED_UNIT ( * ) PLANE_ANGLE_UNIT ( ) SI_UNIT ( $, .RADIAN. ) );
#165 = VECTOR ( 'NONE', #1275, 1000.000000000000000 ) ;
#166 = LINE ( 'NONE', #793, #240 ) ;
#167 = EDGE_LOOP ( 'NONE', ( #1294, #1043, #614, #757 ) ) ;
#168 = EDGE_CURVE ( 'NONE', #1154, #260, #1051, .T. ) ;
#169 = PLANE ( 'NONE',  #613 ) ;
#170 = ORIENTED_EDGE ( 'NONE', *, *, #711, .T. ) ;
#171 = MECHANICAL_DESIGN_GEOMETRIC_PRESENTATION_REPRESENTATION (  '', ( #146 ), #919 ) ;
#172 = DIRECTION ( 'NONE',  ( 1.000000000000000000, 0.0000000000000000000, 0.0000000000000000000 ) ) ;
#173 = ORIENTED_EDGE ( 'NONE', *, *, #1044, .T. ) ;
#174 = DIRECTION ( 'NONE',  ( 1.000000000000000000, 0.0000000000000000000, 0.0000000000000000000 ) ) ;
#175 = DIRECTION ( 'NONE',  ( -1.000000000000000000, -0.0000000000000000000, -0.0000000000000000000 ) ) ;
#176 = DIRECTION ( 'NONE',  ( 0.0000000000000000000, 0.0000000000000000000, -1.000000000000000000 ) ) ;
#177 = PLANE ( 'NONE',  #60 ) ;
#178 = FACE_OUTER_BOUND ( 'NONE', #511, .T. ) ;
#179 = EDGE_CURVE ( 'NONE', #88, #395, #150, .T. ) ;
#180 = VECTOR ( 'NONE', #384, 1000.000000000000000 ) ;
#181 = CARTESIAN_POINT ( 'NONE',  ( -5.210000000000000900, -4.599999999999999600, 1.800000000000000300 ) ) ;
#182 = STYLED_ITEM ( 'NONE', ( #388 ), #1211 ) ;
#183 = LINE ( 'NONE', #214, #1244 ) ;
#184 = DIRECTION ( 'NONE',  ( 1.000000000000000000, 0.0000000000000000000, 0.0000000000000000000 ) ) ;
#185 = FACE_OUTER_BOUND ( 'NONE', #71, .T. ) ;
#186 = ORIENTED_EDGE ( 'NONE', *, *, #946, .T. ) ;
#187 = CARTESIAN_POINT ( 'NONE',  ( 9.800000000000000700, 9.700000000000002800, 7.200000000000001100 ) ) ;
#188 = ORIENTED_EDGE ( 'NONE', *, *, #711, .F. ) ;
#189 = FILL_AREA_STYLE ('',( #1167 ) ) ;
#190 = ORIENTED_EDGE ( 'NONE', *, *, #87, .F. ) ;
#191 =( GEOMETRIC_REPRESENTATION_CONTEXT ( 3 ) GLOBAL_UNCERTAINTY_ASSIGNED_CONTEXT ( ( #386 ) ) GLOBAL_UNIT_ASSIGNED_CONTEXT ( ( #154, #164, #1260 ) ) REPRESENTATION_CONTEXT ( 'NONE', 'WORKASPACE' ) );
#192 = CARTESIAN_POINT ( 'NONE',  ( 9.800000000000000700, -0.4999999999999977200, 7.200000000000001100 ) ) ;
#193 = VERTEX_POINT ( 'NONE', #561 ) ;
#194 = SURFACE_STYLE_USAGE ( .BOTH. , #373 ) ;
#195 = SURFACE_STYLE_FILL_AREA ( #127 ) ;
#196 = ORIENTED_EDGE ( 'NONE', *, *, #512, .T. ) ;
#197 = CARTESIAN_POINT ( 'NONE',  ( 9.400000000000002100, 0.0000000000000000000, 7.200000000000001100 ) ) ;
#198 = EDGE_CURVE ( 'NONE', #773, #714, #886, .T. ) ;
#199 = ADVANCED_FACE ( 'NONE', ( #440 ), #461, .T. ) ;
#200 = SURFACE_STYLE_FILL_AREA ( #911 ) ;
#201 = ORIENTED_EDGE ( 'NONE', *, *, #737, .F. ) ;
#202 =( GEOMETRIC_REPRESENTATION_CONTEXT ( 3 ) GLOBAL_UNCERTAINTY_ASSIGNED_CONTEXT ( ( #600 ) ) GLOBAL_UNIT_ASSIGNED_CONTEXT ( ( #216, #203, #686 ) ) REPRESENTATION_CONTEXT ( 'NONE', 'WORKASPACE' ) );
#203 =( NAMED_UNIT ( * ) PLANE_ANGLE_UNIT ( ) SI_UNIT ( $, .RADIAN. ) );
#204 = LINE ( 'NONE', #1076, #15 ) ;
#205 = CARTESIAN_POINT ( 'NONE',  ( 5.449999999999999300, -4.599999999999999600, 1.800000000000000300 ) ) ;
#206 = SURFACE_STYLE_FILL_AREA ( #1153 ) ;
#207 = VECTOR ( 'NONE', #790, 1000.000000000000000 ) ;
#208 = AXIS2_PLACEMENT_3D ( 'NONE', #659, #475, #279 ) ;
#209 = CARTESIAN_POINT ( 'NONE',  ( 4.949999999999999300, 0.0000000000000000000, 1.800000000000000300 ) ) ;
#210 = LINE ( 'NONE', #843, #870 ) ;
#211 = AXIS2_PLACEMENT_3D ( 'NONE', #904, #8, #413 ) ;
#212 = ORIENTED_EDGE ( 'NONE', *, *, #361, .T. ) ;
#213 = EDGE_LOOP ( 'NONE', ( #922, #78, #44, #673 ) ) ;
#214 = CARTESIAN_POINT ( 'NONE',  ( 0.3699999999999979400, 0.0000000000000000000, 1.800000000000000300 ) ) ;
#215 = EDGE_CURVE ( 'NONE', #596, #1102, #254, .T. ) ;
#216 =( LENGTH_UNIT ( ) NAMED_UNIT ( * ) SI_UNIT ( .MILLI., .METRE. ) );
#217 = VECTOR ( 'NONE', #528, 1000.000000000000000 ) ;
#218 = ORIENTED_EDGE ( 'NONE', *, *, #801, .F. ) ;
#219 = SURFACE_STYLE_FILL_AREA ( #419 ) ;
#220 = VECTOR ( 'NONE', #1284, 1000.000000000000000 ) ;
#221 = SURFACE_STYLE_USAGE ( .BOTH. , #233 ) ;
#222 = VECTOR ( 'NONE', #849, 1000.000000000000000 ) ;
#223 = SURFACE_SIDE_STYLE ('',( #195 ) ) ;
#224 = VERTEX_POINT ( 'NONE', #1266 ) ;
#225 = DIRECTION ( 'NONE',  ( 0.0000000000000000000, 0.0000000000000000000, -1.000000000000000000 ) ) ;
#226 = ORIENTED_EDGE ( 'NONE', *, *, #648, .T. ) ;
#227 = PLANE ( 'NONE',  #211 ) ;
#228 = VERTEX_POINT ( 'NONE', #573 ) ;
#229 = DIRECTION ( 'NONE',  ( -1.000000000000000000, 5.692061405548908500E-015, 0.0000000000000000000 ) ) ;
#230 = EDGE_CURVE ( 'NONE', #80, #1295, #485, .T. ) ;
#231 =( GEOMETRIC_REPRESENTATION_CONTEXT ( 3 ) GLOBAL_UNCERTAINTY_ASSIGNED_CONTEXT ( ( #422 ) ) GLOBAL_UNIT_ASSIGNED_CONTEXT ( ( #115, #322, #792 ) ) REPRESENTATION_CONTEXT ( 'NONE', 'WORKASPACE' ) );
#232 = DIRECTION ( 'NONE',  ( 0.0000000000000000000, 1.000000000000000000, 0.0000000000000000000 ) ) ;
#233 = SURFACE_SIDE_STYLE ('',( #804 ) ) ;
#234 = LINE ( 'NONE', #729, #1246 ) ;
#235 = ADVANCED_FACE ( 'NONE', ( #185 ), #866, .F. ) ;
#236 = CARTESIAN_POINT ( 'NONE',  ( 9.800000000000000700, 9.700000000000002800, 0.0000000000000000000 ) ) ;
#237 = LINE ( 'NONE', #518, #708 ) ;
#238 = EDGE_CURVE ( 'NONE', #652, #899, #545, .T. ) ;
#239 = VECTOR ( 'NONE', #131, 1000.000000000000000 ) ;
#240 = VECTOR ( 'NONE', #1213, 1000.000000000000000 ) ;
#241 = FILL_AREA_STYLE ('',( #335 ) ) ;
#242 = ORIENTED_EDGE ( 'NONE', *, *, #1200, .F. ) ;
#243 = ORIENTED_EDGE ( 'NONE', *, *, #230, .F. ) ;
#244 = ORIENTED_EDGE ( 'NONE', *, *, #963, .T. ) ;
#245 = ORIENTED_EDGE ( 'NONE', *, *, #238, .F. ) ;
#246 = CARTESIAN_POINT ( 'NONE',  ( -9.400000000000002100, 0.0000000000000000000, 7.200000000000001100 ) ) ;
#247 = DIRECTION ( 'NONE',  ( -0.0000000000000000000, -0.0000000000000000000, -1.000000000000000000 ) ) ;
#248 =( NAMED_UNIT ( * ) PLANE_ANGLE_UNIT ( ) SI_UNIT ( $, .RADIAN. ) );
#249 = MECHANICAL_DESIGN_GEOMETRIC_PRESENTATION_REPRESENTATION (  '', ( #746 ), #1261 ) ;
#250 = LINE ( 'NONE', #251, #586 ) ;
#251 = CARTESIAN_POINT ( 'NONE',  ( 2.409999999999998800, 0.0000000000000000000, 1.800000000000000300 ) ) ;
#252 = DIRECTION ( 'NONE',  ( 0.0000000000000000000, -1.000000000000000000, 0.0000000000000000000 ) ) ;
#253 = FACE_OUTER_BOUND ( 'NONE', #414, .T. ) ;
#254 = LINE ( 'NONE', #1166, #390 ) ;
#255 = SURFACE_STYLE_USAGE ( .BOTH. , #55 ) ;
#256 = LINE ( 'NONE', #716, #728 ) ;
#257 = EDGE_CURVE ( 'NONE', #1025, #396, #988, .T. ) ;
#258 = EDGE_LOOP ( 'NONE', ( #462, #1040, #582, #358 ) ) ;
#259 = CARTESIAN_POINT ( 'NONE',  ( -0.1300000000000016400, -4.599999999999999600, 1.500000000000000000 ) ) ;
#260 = VERTEX_POINT ( 'NONE', #552 ) ;
#261 = CARTESIAN_POINT ( 'NONE',  ( -4.710000000000002600, 0.0000000000000000000, 1.500000000000000000 ) ) ;
#262 = EDGE_LOOP ( 'NONE', ( #345, #1099, #698, #21 ) ) ;
#263 = PRODUCT ( 'CUI_PCN2-S12-D15-S', 'CUI_PCN2-S12-D15-S', '', ( #1245 ) ) ;
#264 = ORIENTED_EDGE ( 'NONE', *, *, #654, .F. ) ;
#265 = CARTESIAN_POINT ( 'NONE',  ( 4.949999999999999300, -4.599999999999999600, 1.500000000000000000 ) ) ;
#266 = CARTESIAN_POINT ( 'NONE',  ( -9.800000000000000700, -0.4999999999999977200, 7.200000000000001100 ) ) ;
#267 = DIRECTION ( 'NONE',  ( 1.000000000000000000, 0.0000000000000000000, 0.0000000000000000000 ) ) ;
#268 = FACE_OUTER_BOUND ( 'NONE', #873, .T. ) ;
#269 = LINE ( 'NONE', #192, #934 ) ;
#270 = ORIENTED_EDGE ( 'NONE', *, *, #777, .F. ) ;
#271 = DIRECTION ( 'NONE',  ( -1.000000000000000000, 0.0000000000000000000, 0.0000000000000000000 ) ) ;
#272 = VECTOR ( 'NONE', #1203, 1000.000000000000000 ) ;
#273 = PLANE ( 'NONE',  #276 ) ;
#274 = DIRECTION ( 'NONE',  ( 0.0000000000000000000, -1.000000000000000000, 0.0000000000000000000 ) ) ;
#275 = ORIENTED_EDGE ( 'NONE', *, *, #343, .F. ) ;
#276 = AXIS2_PLACEMENT_3D ( 'NONE', #96, #1089, #1180 ) ;
#277 = VERTEX_POINT ( 'NONE', #265 ) ;
#278 = MECHANICAL_DESIGN_GEOMETRIC_PRESENTATION_REPRESENTATION (  '', ( #1054 ), #231 ) ;
#279 = DIRECTION ( 'NONE',  ( 0.0000000000000000000, 0.0000000000000000000, -1.000000000000000000 ) ) ;
#280 = EDGE_LOOP ( 'NONE', ( #891, #61, #942, #459 ) ) ;
#281 = CARTESIAN_POINT ( 'NONE',  ( 9.800000000000000700, 9.700000000000002800, 0.0000000000000000000 ) ) ;
#282 = CARTESIAN_POINT ( 'NONE',  ( 9.800000000000000700, 9.700000000000002800, 7.200000000000001100 ) ) ;
#283 = DIRECTION ( 'NONE',  ( 0.0000000000000000000, 0.0000000000000000000, -1.000000000000000000 ) ) ;
#284 = FACE_BOUND ( 'NONE', #892, .T. ) ;
#285 = EDGE_CURVE ( 'NONE', #906, #652, #103, .T. ) ;
#286 = VECTOR ( 'NONE', #612, 1000.000000000000000 ) ;
#287 = DIRECTION ( 'NONE',  ( -1.000000000000000000, 0.0000000000000000000, 0.0000000000000000000 ) ) ;
#288 = VECTOR ( 'NONE', #232, 1000.000000000000000 ) ;
#289 = CARTESIAN_POINT ( 'NONE',  ( -7.750000000000001800, 0.0000000000000000000, 1.500000000000000000 ) ) ;
#290 = FACE_OUTER_BOUND ( 'NONE', #457, .T. ) ;
#291 = CARTESIAN_POINT ( 'NONE',  ( -0.1300000000000016400, -4.599999999999999600, 1.800000000000000300 ) ) ;
#292 = ORIENTED_EDGE ( 'NONE', *, *, #982, .F. ) ;
#293 = EDGE_CURVE ( 'NONE', #685, #925, #54, .T. ) ;
#294 = ORIENTED_EDGE ( 'NONE', *, *, #852, .T. ) ;
#295 = PRESENTATION_LAYER_ASSIGNMENT (  '', '', ( #331 ) ) ;
#296 = EDGE_LOOP ( 'NONE', ( #748, #1095, #411, #310 ) ) ;
#297 = DIRECTION ( 'NONE',  ( 0.0000000000000000000, 0.0000000000000000000, -1.000000000000000000 ) ) ;
#298 = ADVANCED_FACE ( 'NONE', ( #1263 ), #372, .F. ) ;
#299 = FILL_AREA_STYLE_COLOUR ( '', #696 ) ;
#300 = FACE_OUTER_BOUND ( 'NONE', #861, .T. ) ;
#301 = EDGE_CURVE ( 'NONE', #395, #717, #902, .T. ) ;
#302 = ORIENTED_EDGE ( 'NONE', *, *, #113, .T. ) ;
#303 = PRESENTATION_STYLE_ASSIGNMENT (( #1127 ) ) ;
#304 = CARTESIAN_POINT ( 'NONE',  ( 4.949999999999999300, -4.599999999999999600, 1.800000000000000300 ) ) ;
#305 = DIRECTION ( 'NONE',  ( 0.0000000000000000000, 0.0000000000000000000, 1.000000000000000000 ) ) ;
#306 = EDGE_CURVE ( 'NONE', #23, #193, #953, .T. ) ;
#307 = EDGE_LOOP ( 'NONE', ( #109, #839, #1055, #445 ) ) ;
#308 = CARTESIAN_POINT ( 'NONE',  ( -7.500000000000002700, 1.199999999999999700, 7.150000000000000400 ) ) ;
#309 = ADVANCED_FACE ( 'NONE', ( #360 ), #273, .F. ) ;
#310 = ORIENTED_EDGE ( 'NONE', *, *, #102, .T. ) ;
#311 =( GEOMETRIC_REPRESENTATION_CONTEXT ( 3 ) GLOBAL_UNCERTAINTY_ASSIGNED_CONTEXT ( ( #1184 ) ) GLOBAL_UNIT_ASSIGNED_CONTEXT ( ( #618, #401, #121 ) ) REPRESENTATION_CONTEXT ( 'NONE', 'WORKASPACE' ) );
#312 = CARTESIAN_POINT ( 'NONE',  ( 4.949999999999999300, -4.599999999999999600, 1.800000000000000300 ) ) ;
#313 = VECTOR ( 'NONE', #247, 1000.000000000000000 ) ;
#314 = ORIENTED_EDGE ( 'NONE', *, *, #876, .T. ) ;
#315 = CARTESIAN_POINT ( 'NONE',  ( 2.909999999999998400, -4.599999999999999600, 1.500000000000000000 ) ) ;
#316 = AXIS2_PLACEMENT_3D ( 'NONE', #246, #827, #1238 ) ;
#317 = FILL_AREA_STYLE_COLOUR ( '', #542 ) ;
#318 = VERTEX_POINT ( 'NONE', #580 ) ;
#319 = VERTEX_POINT ( 'NONE', #583 ) ;
#320 = ADVANCED_FACE ( 'NONE', ( #772 ), #1292, .F. ) ;
#321 = EDGE_CURVE ( 'NONE', #889, #828, #650, .T. ) ;
#322 =( NAMED_UNIT ( * ) PLANE_ANGLE_UNIT ( ) SI_UNIT ( $, .RADIAN. ) );
#323 = AXIS2_PLACEMENT_3D ( 'NONE', #962, #1056, #348 ) ;
#324 = CARTESIAN_POINT ( 'NONE',  ( -7.250000000000001800, 0.0000000000000000000, 1.800000000000000300 ) ) ;
#325 = PLANE ( 'NONE',  #997 ) ;
#326 = DIRECTION ( 'NONE',  ( -1.000000000000000000, 0.0000000000000000000, 0.0000000000000000000 ) ) ;
#327 = DIRECTION ( 'NONE',  ( -1.000000000000000000, 0.0000000000000000000, 0.0000000000000000000 ) ) ;
#328 = ORIENTED_EDGE ( 'NONE', *, *, #417, .T. ) ;
#329 = FILL_AREA_STYLE_COLOUR ( '', #402 ) ;
#330 = LINE ( 'NONE', #412, #207 ) ;
#331 = STYLED_ITEM ( 'NONE', ( #1289 ), #320 ) ;
#332 = DIRECTION ( 'NONE',  ( 0.0000000000000000000, 0.0000000000000000000, -1.000000000000000000 ) ) ;
#333 = ORIENTED_EDGE ( 'NONE', *, *, #751, .T. ) ;
#334 = ORIENTED_EDGE ( 'NONE', *, *, #858, .T. ) ;
#335 = FILL_AREA_STYLE_COLOUR ( '', #431 ) ;
#336 = DIRECTION ( 'NONE',  ( 0.0000000000000000000, 0.0000000000000000000, -1.000000000000000000 ) ) ;
#337 = VERTEX_POINT ( 'NONE', #879 ) ;
#338 =( GEOMETRIC_REPRESENTATION_CONTEXT ( 3 ) GLOBAL_UNCERTAINTY_ASSIGNED_CONTEXT ( ( #1223 ) ) GLOBAL_UNIT_ASSIGNED_CONTEXT ( ( #677, #587, #385 ) ) REPRESENTATION_CONTEXT ( 'NONE', 'WORKASPACE' ) );
#339 = ADVANCED_FACE ( 'NONE', ( #624 ), #490, .F. ) ;
#340 = CARTESIAN_POINT ( 'NONE',  ( 9.800000000000000700, -0.4999999999999977200, 7.200000000000001100 ) ) ;
#341 = CARTESIAN_POINT ( 'NONE',  ( 9.400000000000002100, -0.5000000000000000000, 7.200000000000001100 ) ) ;
#342 = LINE ( 'NONE', #35, #838 ) ;
#343 = EDGE_CURVE ( 'NONE', #368, #1154, #1097, .T. ) ;
#344 =( NAMED_UNIT ( * ) SI_UNIT ( $, .STERADIAN. ) SOLID_ANGLE_UNIT ( ) );
#345 = ORIENTED_EDGE ( 'NONE', *, *, #408, .T. ) ;
#346 = AXIS2_PLACEMENT_3D ( 'NONE', #847, #958, #62 ) ;
#347 = EDGE_LOOP ( 'NONE', ( #404, #110, #6, #489 ) ) ;
#348 = DIRECTION ( 'NONE',  ( 1.000000000000000000, 0.0000000000000000000, 0.0000000000000000000 ) ) ;
#349 = ORIENTED_EDGE ( 'NONE', *, *, #1135, .T. ) ;
#350 = EDGE_LOOP ( 'NONE', ( #991, #58, #992, #581 ) ) ;
#351 = ORIENTED_EDGE ( 'NONE', *, *, #975, .F. ) ;
#352 = DIRECTION ( 'NONE',  ( -0.0000000000000000000, -0.0000000000000000000, -1.000000000000000000 ) ) ;
#353 = EDGE_CURVE ( 'NONE', #550, #859, #90, .T. ) ;
#354 = MECHANICAL_DESIGN_GEOMETRIC_PRESENTATION_REPRESENTATION (  '', ( #331 ), #338 ) ;
#355 = CARTESIAN_POINT ( 'NONE',  ( -7.900000000000002100, 1.199999999999999700, 7.150000000000000400 ) ) ;
#356 = LINE ( 'NONE', #867, #1121 ) ;
#357 = CARTESIAN_POINT ( 'NONE',  ( 9.800000000000000700, 9.700000000000002800, 7.200000000000001100 ) ) ;
#358 = ORIENTED_EDGE ( 'NONE', *, *, #1105, .T. ) ;
#359 = CARTESIAN_POINT ( 'NONE',  ( -5.210000000000000900, -4.599999999999999600, 1.500000000000000000 ) ) ;
#360 = FACE_OUTER_BOUND ( 'NONE', #1023, .T. ) ;
#361 = EDGE_CURVE ( 'NONE', #905, #1075, #936, .T. ) ;
#362 = CARTESIAN_POINT ( 'NONE',  ( -9.800000000000000700, 9.700000000000002800, 0.0000000000000000000 ) ) ;
#363 = CARTESIAN_POINT ( 'NONE',  ( 4.949999999999999300, -4.599999999999999600, 1.800000000000000300 ) ) ;
#364 = VERTEX_POINT ( 'NONE', #1296 ) ;
#365 = DIRECTION ( 'NONE',  ( 0.0000000000000000000, 0.0000000000000000000, 1.000000000000000000 ) ) ;
#366 = ORIENTED_EDGE ( 'NONE', *, *, #215, .T. ) ;
#367 = ORIENTED_EDGE ( 'NONE', *, *, #893, .F. ) ;
#368 = VERTEX_POINT ( 'NONE', #187 ) ;
#369 = DIRECTION ( 'NONE',  ( 0.0000000000000000000, 0.0000000000000000000, -1.000000000000000000 ) ) ;
#370 = EDGE_CURVE ( 'NONE', #193, #513, #20, .T. ) ;
#371 = PLANE ( 'NONE',  #128 ) ;
#372 = PLANE ( 'NONE',  #208 ) ;
#373 = SURFACE_SIDE_STYLE ('',( #914 ) ) ;
#374 = FACE_OUTER_BOUND ( 'NONE', #409, .T. ) ;
#375 = DIRECTION ( 'NONE',  ( 0.0000000000000000000, 1.000000000000000000, 0.0000000000000000000 ) ) ;
#376 = VECTOR ( 'NONE', #1082, 1000.000000000000000 ) ;
#377 = VECTOR ( 'NONE', #966, 1000.000000000000000 ) ;
#378 = FACE_OUTER_BOUND ( 'NONE', #812, .T. ) ;
#379 = AXIS2_PLACEMENT_3D ( 'NONE', #496, #794, #1215 ) ;
#380 = CARTESIAN_POINT ( 'NONE',  ( 4.949999999999999300, 0.0000000000000000000, 1.499999999999999600 ) ) ;
#381 = PLANE ( 'NONE',  #379 ) ;
#382 = ORIENTED_EDGE ( 'NONE', *, *, #813, .F. ) ;
#383 = ORIENTED_EDGE ( 'NONE', *, *, #1033, .F. ) ;
#384 = DIRECTION ( 'NONE',  ( 0.0000000000000000000, 0.0000000000000000000, 1.000000000000000000 ) ) ;
#385 =( NAMED_UNIT ( * ) SI_UNIT ( $, .STERADIAN. ) SOLID_ANGLE_UNIT ( ) );
#386 = UNCERTAINTY_MEASURE_WITH_UNIT (LENGTH_MEASURE( 1.000000000000000100E-005 ), #154, 'distance_accuracy_value', 'NONE');
#387 = EDGE_CURVE ( 'NONE', #925, #809, #1034, .T. ) ;
#388 = PRESENTATION_STYLE_ASSIGNMENT (( #1119 ) ) ;
#389 = DIRECTION ( 'NONE',  ( -1.000000000000000000, -0.0000000000000000000, -0.0000000000000000000 ) ) ;
#390 = VECTOR ( 'NONE', #1079, 1000.000000000000000 ) ;
#391 = DIRECTION ( 'NONE',  ( 0.0000000000000000000, 0.0000000000000000000, 1.000000000000000000 ) ) ;
#392 = VECTOR ( 'NONE', #798, 1000.000000000000000 ) ;
#393 = ORIENTED_EDGE ( 'NONE', *, *, #675, .F. ) ;
#394 = AXIS2_PLACEMENT_3D ( 'NONE', #53, #1249, #63 ) ;
#395 = VERTEX_POINT ( 'NONE', #289 ) ;
#396 = VERTEX_POINT ( 'NONE', #979 ) ;
#397 = CARTESIAN_POINT ( 'NONE',  ( -5.210000000000000900, -4.599999999999999600, 1.500000000000000000 ) ) ;
#398 = ORIENTED_EDGE ( 'NONE', *, *, #1062, .F. ) ;
#399 = FACE_BOUND ( 'NONE', #213, .T. ) ;
#400 = VECTOR ( 'NONE', #945, 1000.000000000000000 ) ;
#401 =( NAMED_UNIT ( * ) PLANE_ANGLE_UNIT ( ) SI_UNIT ( $, .RADIAN. ) );
#402 = COLOUR_RGB ( '',0.2509803921568627400, 0.2509803921568627400, 0.2509803921568627400 ) ;
#403 = FACE_OUTER_BOUND ( 'NONE', #350, .T. ) ;
#404 = ORIENTED_EDGE ( 'NONE', *, *, #1155, .T. ) ;
#405 = CARTESIAN_POINT ( 'NONE',  ( -7.750000000000001800, -4.599999999999999600, 1.500000000000000000 ) ) ;
#406 = ADVANCED_FACE ( 'NONE', ( #1003 ), #381, .F. ) ;
#407 = ORIENTED_EDGE ( 'NONE', *, *, #32, .T. ) ;
#408 = EDGE_CURVE ( 'NONE', #421, #509, #330, .T. ) ;
#409 = EDGE_LOOP ( 'NONE', ( #762, #25, #973, #594 ) ) ;
#410 = ORIENTED_EDGE ( 'NONE', *, *, #1071, .F. ) ;
#411 = ORIENTED_EDGE ( 'NONE', *, *, #1033, .T. ) ;
#412 = CARTESIAN_POINT ( 'NONE',  ( 9.400000000000002100, 0.0000000000000000000, 0.0000000000000000000 ) ) ;
#413 = DIRECTION ( 'NONE',  ( 0.0000000000000000000, 0.0000000000000000000, -1.000000000000000000 ) ) ;
#414 = EDGE_LOOP ( 'NONE', ( #10, #93, #1198, #635 ) ) ;
#415 =( LENGTH_UNIT ( ) NAMED_UNIT ( * ) SI_UNIT ( .MILLI., .METRE. ) );
#416 = LINE ( 'NONE', #315, #881 ) ;
#417 = EDGE_CURVE ( 'NONE', #337, #773, #147, .T. ) ;
#418 =( LENGTH_UNIT ( ) NAMED_UNIT ( * ) SI_UNIT ( .MILLI., .METRE. ) );
#419 = FILL_AREA_STYLE ('',( #317 ) ) ;
#420 = PRESENTATION_STYLE_ASSIGNMENT (( #221 ) ) ;
#421 = VERTEX_POINT ( 'NONE', #780 ) ;
#422 = UNCERTAINTY_MEASURE_WITH_UNIT (LENGTH_MEASURE( 1.000000000000000100E-005 ), #115, 'distance_accuracy_value', 'NONE');
#423 = VERTEX_POINT ( 'NONE', #907 ) ;
#424 = CARTESIAN_POINT ( 'NONE',  ( 9.400000000000002100, 0.0000000000000000000, 7.200000000000001100 ) ) ;
#425 =( NAMED_UNIT ( * ) PLANE_ANGLE_UNIT ( ) SI_UNIT ( $, .RADIAN. ) );
#426 = ORIENTED_EDGE ( 'NONE', *, *, #1105, .F. ) ;
#427 = EDGE_CURVE ( 'NONE', #809, #655, #183, .T. ) ;
#428 = PRODUCT_DEFINITION_FORMATION_WITH_SPECIFIED_SOURCE ( 'ANY', '', #263, .NOT_KNOWN. ) ;
#429 = ADVANCED_FACE ( 'NONE', ( #492 ), #597, .F. ) ;
#430 =( NAMED_UNIT ( * ) SI_UNIT ( $, .STERADIAN. ) SOLID_ANGLE_UNIT ( ) );
#431 = COLOUR_RGB ( '',1.000000000000000000, 1.000000000000000000, 1.000000000000000000 ) ;
#432 = DIRECTION ( 'NONE',  ( -1.000000000000000000, -0.0000000000000000000, -0.0000000000000000000 ) ) ;
#433 = DIRECTION ( 'NONE',  ( 0.0000000000000000000, 0.0000000000000000000, -1.000000000000000000 ) ) ;
#434 = VECTOR ( 'NONE', #740, 1000.000000000000000 ) ;
#435 =( NAMED_UNIT ( * ) SI_UNIT ( $, .STERADIAN. ) SOLID_ANGLE_UNIT ( ) );
#436 = LINE ( 'NONE', #1078, #1205 ) ;
#437 = EDGE_LOOP ( 'NONE', ( #775, #218, #77, #961 ) ) ;
#438 = PRESENTATION_STYLE_ASSIGNMENT (( #446 ) ) ;
#439 = CARTESIAN_POINT ( 'NONE',  ( 2.409999999999998800, -4.599999999999999600, 1.800000000000000300 ) ) ;
#440 = FACE_OUTER_BOUND ( 'NONE', #1004, .T. ) ;
#441 = PLANE ( 'NONE',  #1201 ) ;
#442 = SURFACE_STYLE_FILL_AREA ( #1096 ) ;
#443 = ORIENTED_EDGE ( 'NONE', *, *, #293, .F. ) ;
#444 = ORIENTED_EDGE ( 'NONE', *, *, #1176, .F. ) ;
#445 = ORIENTED_EDGE ( 'NONE', *, *, #813, .T. ) ;
#446 = SURFACE_STYLE_USAGE ( .BOTH. , #1255 ) ;
#447 = MECHANICAL_DESIGN_GEOMETRIC_PRESENTATION_REPRESENTATION (  '', ( #472 ), #602 ) ;
#448 = DIRECTION ( 'NONE',  ( 1.000000000000000000, 0.0000000000000000000, 0.0000000000000000000 ) ) ;
#449 = LINE ( 'NONE', #983, #1173 ) ;
#450 = VECTOR ( 'NONE', #175, 1000.000000000000000 ) ;
#451 = EDGE_CURVE ( 'NONE', #423, #395, #72, .T. ) ;
#452 = COLOUR_RGB ( '',1.000000000000000000, 1.000000000000000000, 1.000000000000000000 ) ;
#453 = AXIS2_PLACEMENT_3D ( 'NONE', #769, #274, #369 ) ;
#454 = CARTESIAN_POINT ( 'NONE',  ( -9.400000000000002100, 0.0000000000000000000, 7.200000000000001100 ) ) ;
#455 = ORIENTED_EDGE ( 'NONE', *, *, #559, .F. ) ;
#456 = DIRECTION ( 'NONE',  ( 1.000000000000000000, 0.0000000000000000000, 0.0000000000000000000 ) ) ;
#457 = EDGE_LOOP ( 'NONE', ( #547, #1267, #135, #862, #155, #615, #567, #980 ) ) ;
#458 = CARTESIAN_POINT ( 'NONE',  ( 0.3699999999999987700, 0.0000000000000000000, 1.799999999999999800 ) ) ;
#459 = ORIENTED_EDGE ( 'NONE', *, *, #1288, .T. ) ;
#460 = EDGE_LOOP ( 'NONE', ( #641, #444, #1208, #112 ) ) ;
#461 = PLANE ( 'NONE',  #1209 ) ;
#462 = ORIENTED_EDGE ( 'NONE', *, *, #993, .T. ) ;
#463 = CARTESIAN_POINT ( 'NONE',  ( -9.400000000000002100, 0.0000000000000000000, 0.0000000000000000000 ) ) ;
#464 = FILL_AREA_STYLE ('',( #555 ) ) ;
#465 =( NAMED_UNIT ( * ) SI_UNIT ( $, .STERADIAN. ) SOLID_ANGLE_UNIT ( ) );
#466 = LINE ( 'NONE', #483, #98 ) ;
#467 = FACE_OUTER_BOUND ( 'NONE', #1186, .T. ) ;
#468 = DIRECTION ( 'NONE',  ( 0.0000000000000000000, 0.0000000000000000000, 1.000000000000000000 ) ) ;
#469 = LINE ( 'NONE', #1240, #117 ) ;
#470 = VERTEX_POINT ( 'NONE', #1 ) ;
#471 = CARTESIAN_POINT ( 'NONE',  ( -7.250000000000001800, -4.599999999999999600, 1.800000000000000300 ) ) ;
#472 = STYLED_ITEM ( 'NONE', ( #820 ), #516 ) ;
#473 = DIRECTION ( 'NONE',  ( 0.0000000000000000000, 0.0000000000000000000, -1.000000000000000000 ) ) ;
#474 = ORIENTED_EDGE ( 'NONE', *, *, #408, .F. ) ;
#475 = DIRECTION ( 'NONE',  ( 1.000000000000000000, 0.0000000000000000000, 0.0000000000000000000 ) ) ;
#476 = ORIENTED_EDGE ( 'NONE', *, *, #126, .F. ) ;
#477 = DIRECTION ( 'NONE',  ( 0.0000000000000000000, 1.000000000000000000, 0.0000000000000000000 ) ) ;
#478 = EDGE_LOOP ( 'NONE', ( #1038, #1059, #924, #1194 ) ) ;
#479 =( LENGTH_UNIT ( ) NAMED_UNIT ( * ) SI_UNIT ( .MILLI., .METRE. ) );
#480 = EDGE_CURVE ( 'NONE', #228, #960, #1143, .T. ) ;
#481 = DIRECTION ( 'NONE',  ( 1.000000000000000000, 0.0000000000000000000, 0.0000000000000000000 ) ) ;
#482 = VECTOR ( 'NONE', #666, 1000.000000000000000 ) ;
#483 = CARTESIAN_POINT ( 'NONE',  ( 9.400000000000002100, -0.5000000000000000000, 7.200000000000001100 ) ) ;
#484 = VECTOR ( 'NONE', #468, 1000.000000000000000 ) ;
#485 = LINE ( 'NONE', #1175, #222 ) ;
#486 = PRESENTATION_STYLE_ASSIGNMENT (( #30 ) ) ;
#487 = AXIS2_PLACEMENT_3D ( 'NONE', #1098, #2, #688 ) ;
#488 = ORIENTED_EDGE ( 'NONE', *, *, #1155, .F. ) ;
#489 = ORIENTED_EDGE ( 'NONE', *, *, #198, .T. ) ;
#490 = PLANE ( 'NONE',  #1026 ) ;
#491 = LINE ( 'NONE', #691, #1242 ) ;
#492 = FACE_OUTER_BOUND ( 'NONE', #530, .T. ) ;
#493 = LINE ( 'NONE', #463, #781 ) ;
#494 = FACE_OUTER_BOUND ( 'NONE', #258, .T. ) ;
#495 = LINE ( 'NONE', #517, #695 ) ;
#496 = CARTESIAN_POINT ( 'NONE',  ( -9.800000000000000700, -0.4999999999999977200, 7.200000000000001100 ) ) ;
#497 = ORIENTED_EDGE ( 'NONE', *, *, #1168, .T. ) ;
#498 = EDGE_CURVE ( 'NONE', #318, #789, #69, .T. ) ;
#499 = ORIENTED_EDGE ( 'NONE', *, *, #801, .T. ) ;
#500 = CARTESIAN_POINT ( 'NONE',  ( -7.750000000000001800, -4.599999999999999600, 1.500000000000000000 ) ) ;
#501 = DIRECTION ( 'NONE',  ( 1.000000000000000000, 0.0000000000000000000, 0.0000000000000000000 ) ) ;
#502 = AXIS2_PLACEMENT_3D ( 'NONE', #1225, #533, #521 ) ;
#503 = VECTOR ( 'NONE', #501, 1000.000000000000000 ) ;
#504 = DIRECTION ( 'NONE',  ( 0.0000000000000000000, 0.0000000000000000000, 1.000000000000000000 ) ) ;
#505 = PRESENTATION_LAYER_ASSIGNMENT (  '', '', ( #1054 ) ) ;
#506 = CARTESIAN_POINT ( 'NONE',  ( 2.409999999999998800, -4.599999999999999600, 1.800000000000000300 ) ) ;
#507 = DIRECTION ( 'NONE',  ( 0.0000000000000000000, 0.0000000000000000000, 1.000000000000000000 ) ) ;
#508 = FILL_AREA_STYLE_COLOUR ( '', #452 ) ;
#509 = VERTEX_POINT ( 'NONE', #1109 ) ;
#510 = DIRECTION ( 'NONE',  ( 1.000000000000000000, 0.0000000000000000000, 0.0000000000000000000 ) ) ;
#511 = EDGE_LOOP ( 'NONE', ( #1134, #367, #242, #1057 ) ) ;
#512 = EDGE_CURVE ( 'NONE', #513, #889, #558, .T. ) ;
#513 = VERTEX_POINT ( 'NONE', #111 ) ;
#514 = CARTESIAN_POINT ( 'NONE',  ( 9.800000000000000700, -0.4999999999999977200, 7.200000000000001100 ) ) ;
#515 = PRESENTATION_LAYER_ASSIGNMENT (  '', '', ( #182 ) ) ;
#516 = ADVANCED_FACE ( 'NONE', ( #969 ), #1030, .F. ) ;
#517 = CARTESIAN_POINT ( 'NONE',  ( 2.409999999999998800, 0.0000000000000000000, 1.800000000000000300 ) ) ;
#518 = CARTESIAN_POINT ( 'NONE',  ( -7.750000000000001800, -4.599999999999999600, 1.800000000000000300 ) ) ;
#519 = DIRECTION ( 'NONE',  ( 0.0000000000000000000, 1.000000000000000000, 0.0000000000000000000 ) ) ;
#520 = CARTESIAN_POINT ( 'NONE',  ( -4.710000000000002600, 0.0000000000000000000, 1.800000000000000300 ) ) ;
#521 = DIRECTION ( 'NONE',  ( 1.000000000000000000, 0.0000000000000000000, 0.0000000000000000000 ) ) ;
#522 = COLOUR_RGB ( '',0.2509803921568627400, 0.2509803921568627400, 0.2509803921568627400 ) ;
#523 = STYLED_ITEM ( 'NONE', ( #679 ), #1031 ) ;
#524 = FACE_OUTER_BOUND ( 'NONE', #437, .T. ) ;
#525 = DIRECTION ( 'NONE',  ( 0.0000000000000000000, 0.0000000000000000000, -1.000000000000000000 ) ) ;
#526 = DIRECTION ( 'NONE',  ( 0.0000000000000000000, 0.0000000000000000000, -1.000000000000000000 ) ) ;
#527 = ORIENTED_EDGE ( 'NONE', *, *, #480, .T. ) ;
#528 = DIRECTION ( 'NONE',  ( 0.0000000000000000000, 1.000000000000000000, 0.0000000000000000000 ) ) ;
#529 = ADVANCED_FACE ( 'NONE', ( #783 ), #1039, .F. ) ;
#530 = EDGE_LOOP ( 'NONE', ( #1181, #1218, #1253, #349 ) ) ;
#531 = CARTESIAN_POINT ( 'NONE',  ( 10.16000000000000000, -4.599999999999999600, 0.0000000000000000000 ) ) ;
#532 = ORIENTED_EDGE ( 'NONE', *, *, #654, .T. ) ;
#533 = DIRECTION ( 'NONE',  ( 0.0000000000000000000, 0.0000000000000000000, 1.000000000000000000 ) ) ;
#534 = MECHANICAL_DESIGN_GEOMETRIC_PRESENTATION_REPRESENTATION (  '', ( #1052 ), #579 ) ;
#535 = ORIENTED_EDGE ( 'NONE', *, *, #370, .F. ) ;
#536 = EDGE_LOOP ( 'NONE', ( #59, #382, #7, #186 ) ) ;
#537 = APPLICATION_PROTOCOL_DEFINITION ( 'draft international standard', 'automotive_design', 1998, #631 ) ;
#538 = FILL_AREA_STYLE ('',( #955 ) ) ;
#539 = ADVANCED_FACE ( 'NONE', ( #494 ), #1237, .F. ) ;
#540 = VECTOR ( 'NONE', #621, 1000.000000000000000 ) ;
#541 = CARTESIAN_POINT ( 'NONE',  ( 9.400000000000002100, 0.0000000000000000000, 7.200000000000001100 ) ) ;
#542 = COLOUR_RGB ( '',0.2509803921568627400, 0.2509803921568627400, 0.2509803921568627400 ) ;
#543 = EDGE_CURVE ( 'NONE', #1295, #152, #1067, .T. ) ;
#544 = STYLED_ITEM ( 'NONE', ( #588 ), #1045 ) ;
#545 = LINE ( 'NONE', #454, #578 ) ;
#546 = ORIENTED_EDGE ( 'NONE', *, *, #1168, .F. ) ;
#547 = ORIENTED_EDGE ( 'NONE', *, *, #777, .T. ) ;
#548 = CARTESIAN_POINT ( 'NONE',  ( -7.100000000000002300, 1.199999999999999700, 7.200000000000001100 ) ) ;
#549 = ORIENTED_EDGE ( 'NONE', *, *, #720, .T. ) ;
#550 = VERTEX_POINT ( 'NONE', #929 ) ;
#551 = AXIS2_PLACEMENT_3D ( 'NONE', #82, #1163, #1272 ) ;
#552 = CARTESIAN_POINT ( 'NONE',  ( -9.800000000000000700, -0.4999999999999977200, 7.200000000000001100 ) ) ;
#553 = FILL_AREA_STYLE_COLOUR ( '', #522 ) ;
#554 = DIRECTION ( 'NONE',  ( 0.0000000000000000000, 0.0000000000000000000, -1.000000000000000000 ) ) ;
#555 = FILL_AREA_STYLE_COLOUR ( '', #1148 ) ;
#556 = CYLINDRICAL_SURFACE ( 'NONE', #1157, 0.4000000000000001900 ) ;
#557 = CARTESIAN_POINT ( 'NONE',  ( -7.500000000000002700, 1.199999999999999700, 7.150000000000000400 ) ) ;
#558 = LINE ( 'NONE', #890, #272 ) ;
#559 = EDGE_CURVE ( 'NONE', #789, #423, #237, .T. ) ;
#560 = VECTOR ( 'NONE', #142, 1000.000000000000000 ) ;
#561 = CARTESIAN_POINT ( 'NONE',  ( -4.710000000000002600, -4.599999999999999600, 1.500000000000000000 ) ) ;
#562 = ORIENTED_EDGE ( 'NONE', *, *, #306, .T. ) ;
#563 = PLANE ( 'NONE',  #1281 ) ;
#564 = VERTEX_POINT ( 'NONE', #38 ) ;
#565 = CARTESIAN_POINT ( 'NONE',  ( 4.949999999999999300, -4.599999999999999600, 1.500000000000000000 ) ) ;
#566 = ORIENTED_EDGE ( 'NONE', *, *, #629, .F. ) ;
#567 = ORIENTED_EDGE ( 'NONE', *, *, #918, .T. ) ;
#568 = ORIENTED_EDGE ( 'NONE', *, *, #687, .F. ) ;
#569 = DIRECTION ( 'NONE',  ( -1.000000000000000000, 0.0000000000000000000, 0.0000000000000000000 ) ) ;
#570 = EDGE_CURVE ( 'NONE', #1185, #1007, #823, .T. ) ;
#571 = DIRECTION ( 'NONE',  ( 0.0000000000000000000, -1.000000000000000000, 0.0000000000000000000 ) ) ;
#572 = AXIS2_PLACEMENT_3D ( 'NONE', #514, #704, #910 ) ;
#573 = CARTESIAN_POINT ( 'NONE',  ( -7.900000000000002100, 1.199999999999999700, 7.200000000000001100 ) ) ;
#574 = CARTESIAN_POINT ( 'NONE',  ( -0.1300000000000016400, -4.599999999999999600, 1.800000000000000300 ) ) ;
#575 = CARTESIAN_POINT ( 'NONE',  ( -9.400000000000002100, 0.0000000000000000000, 0.0000000000000000000 ) ) ;
#576 = EDGE_CURVE ( 'NONE', #260, #906, #1049, .T. ) ;
#577 = LINE ( 'NONE', #1145, #101 ) ;
#578 = VECTOR ( 'NONE', #184, 1000.000000000000000 ) ;
#579 =( GEOMETRIC_REPRESENTATION_CONTEXT ( 3 ) GLOBAL_UNCERTAINTY_ASSIGNED_CONTEXT ( ( #1073 ) ) GLOBAL_UNIT_ASSIGNED_CONTEXT ( ( #415, #425, #1222 ) ) REPRESENTATION_CONTEXT ( 'NONE', 'WORKASPACE' ) );
#580 = CARTESIAN_POINT ( 'NONE',  ( -7.250000000000001800, -4.599999999999999600, 1.800000000000000300 ) ) ;
#581 = ORIENTED_EDGE ( 'NONE', *, *, #293, .T. ) ;
#582 = ORIENTED_EDGE ( 'NONE', *, *, #498, .F. ) ;
#583 = CARTESIAN_POINT ( 'NONE',  ( -4.710000000000002600, 0.0000000000000000000, 1.799999999999999800 ) ) ;
#584 = STYLED_ITEM ( 'NONE', ( #303 ), #39 ) ;
#585 = AXIS2_PLACEMENT_3D ( 'NONE', #17, #22, #603 ) ;
#586 = VECTOR ( 'NONE', #432, 1000.000000000000000 ) ;
#587 =( NAMED_UNIT ( * ) PLANE_ANGLE_UNIT ( ) SI_UNIT ( $, .RADIAN. ) );
#588 = PRESENTATION_STYLE_ASSIGNMENT (( #194 ) ) ;
#589 = VECTOR ( 'NONE', #1207, 1000.000000000000000 ) ;
#590 = VECTOR ( 'NONE', #622, 1000.000000000000000 ) ;
#591 = ORIENTED_EDGE ( 'NONE', *, *, #1091, .F. ) ;
#592 = EDGE_CURVE ( 'NONE', #1154, #994, #916, .T. ) ;
#593 = LINE ( 'NONE', #520, #1017 ) ;
#594 = ORIENTED_EDGE ( 'NONE', *, *, #993, .F. ) ;
#595 = AXIS2_PLACEMENT_3D ( 'NONE', #136, #326, #1247 ) ;
#596 = VERTEX_POINT ( 'NONE', #1046 ) ;
#597 = PLANE ( 'NONE',  #1008 ) ;
#598 = ORIENTED_EDGE ( 'NONE', *, *, #737, .T. ) ;
#599 = DIRECTION ( 'NONE',  ( 0.0000000000000000000, 0.0000000000000000000, 1.000000000000000000 ) ) ;
#600 = UNCERTAINTY_MEASURE_WITH_UNIT (LENGTH_MEASURE( 1.000000000000000100E-005 ), #216, 'distance_accuracy_value', 'NONE');
#601 = FILL_AREA_STYLE_COLOUR ( '', #1282 ) ;
#602 =( GEOMETRIC_REPRESENTATION_CONTEXT ( 3 ) GLOBAL_UNCERTAINTY_ASSIGNED_CONTEXT ( ( #1271 ) ) GLOBAL_UNIT_ASSIGNED_CONTEXT ( ( #418, #139, #620 ) ) REPRESENTATION_CONTEXT ( 'NONE', 'WORKASPACE' ) );
#603 = DIRECTION ( 'NONE',  ( 0.0000000000000000000, 0.0000000000000000000, -1.000000000000000000 ) ) ;
#604 = SHAPE_DEFINITION_REPRESENTATION ( #28, #901 ) ;
#605 = DIRECTION ( 'NONE',  ( 1.000000000000000000, 0.0000000000000000000, 0.0000000000000000000 ) ) ;
#606 = VECTOR ( 'NONE', #225, 1000.000000000000000 ) ;
#607 = VECTOR ( 'NONE', #1120, 1000.000000000000000 ) ;
#608 = ORIENTED_EDGE ( 'NONE', *, *, #876, .F. ) ;
#609 = DIRECTION ( 'NONE',  ( 0.0000000000000000000, 0.0000000000000000000, -1.000000000000000000 ) ) ;
#610 = EDGE_CURVE ( 'NONE', #509, #596, #210, .T. ) ;
#611 = VERTEX_POINT ( 'NONE', #341 ) ;
#612 = DIRECTION ( 'NONE',  ( -1.000000000000000000, -0.0000000000000000000, -0.0000000000000000000 ) ) ;
#613 = AXIS2_PLACEMENT_3D ( 'NONE', #1274, #271, #391 ) ;
#614 = ORIENTED_EDGE ( 'NONE', *, *, #543, .T. ) ;
#615 = ORIENTED_EDGE ( 'NONE', *, *, #238, .T. ) ;
#616 = ORIENTED_EDGE ( 'NONE', *, *, #570, .F. ) ;
#617 = DIRECTION ( 'NONE',  ( -1.000000000000000000, 0.0000000000000000000, 0.0000000000000000000 ) ) ;
#618 =( LENGTH_UNIT ( ) NAMED_UNIT ( * ) SI_UNIT ( .MILLI., .METRE. ) );
#619 = DIRECTION ( 'NONE',  ( 0.0000000000000000000, 0.0000000000000000000, -1.000000000000000000 ) ) ;
#620 =( NAMED_UNIT ( * ) SI_UNIT ( $, .STERADIAN. ) SOLID_ANGLE_UNIT ( ) );
#621 = DIRECTION ( 'NONE',  ( -0.0000000000000000000, -1.000000000000000000, -0.0000000000000000000 ) ) ;
#622 = DIRECTION ( 'NONE',  ( -0.0000000000000000000, -0.0000000000000000000, -1.000000000000000000 ) ) ;
#623 =( LENGTH_UNIT ( ) NAMED_UNIT ( * ) SI_UNIT ( .MILLI., .METRE. ) );
#624 = FACE_OUTER_BOUND ( 'NONE', #74, .T. ) ;
#625 = SURFACE_SIDE_STYLE ('',( #931 ) ) ;
#626 = CARTESIAN_POINT ( 'NONE',  ( 2.909999999999998400, 0.0000000000000000000, 1.500000000000000000 ) ) ;
#627 = CARTESIAN_POINT ( 'NONE',  ( 2.909999999999998400, -4.599999999999999600, 1.800000000000000300 ) ) ;
#628 = ORIENTED_EDGE ( 'NONE', *, *, #995, .T. ) ;
#629 = EDGE_CURVE ( 'NONE', #960, #228, #1262, .T. ) ;
#630 = ORIENTED_EDGE ( 'NONE', *, *, #1243, .F. ) ;
#631 = APPLICATION_CONTEXT ( 'automotive_design' ) ;
#632 = CARTESIAN_POINT ( 'NONE',  ( -5.210000000000000900, 0.0000000000000000000, 1.500000000000000000 ) ) ;
#633 = LINE ( 'NONE', #266, #725 ) ;
#634 = LINE ( 'NONE', #565, #220 ) ;
#635 = ORIENTED_EDGE ( 'NONE', *, *, #1200, .T. ) ;
#636 = ADVANCED_FACE ( 'NONE', ( #799, #290 ), #1151, .F. ) ;
#637 = CARTESIAN_POINT ( 'NONE',  ( -0.1300000000000016400, -4.599999999999999600, 1.800000000000000300 ) ) ;
#638 = LINE ( 'NONE', #639, #149 ) ;
#639 = CARTESIAN_POINT ( 'NONE',  ( -7.900000000000002100, 1.199999999999999700, 7.150000000000000400 ) ) ;
#640 = VECTOR ( 'NONE', #1069, 1000.000000000000000 ) ;
#641 = ORIENTED_EDGE ( 'NONE', *, *, #353, .T. ) ;
#642 = CARTESIAN_POINT ( 'NONE',  ( -0.1300000000000016400, 0.0000000000000000000, 1.800000000000000300 ) ) ;
#643 = ORIENTED_EDGE ( 'NONE', *, *, #417, .F. ) ;
#644 = ORIENTED_EDGE ( 'NONE', *, *, #215, .F. ) ;
#645 =( LENGTH_UNIT ( ) NAMED_UNIT ( * ) SI_UNIT ( .MILLI., .METRE. ) );
#646 = PRODUCT_DEFINITION_CONTEXT ( 'detailed design', #841, 'design' ) ;
#647 = DIRECTION ( 'NONE',  ( 0.0000000000000000000, 0.0000000000000000000, -1.000000000000000000 ) ) ;
#648 = EDGE_CURVE ( 'NONE', #23, #1185, #577, .T. ) ;
#649 = MECHANICAL_DESIGN_GEOMETRIC_PRESENTATION_REPRESENTATION (  '', ( #182 ), #311 ) ;
#650 = LINE ( 'NONE', #880, #1128 ) ;
#651 = MANIFOLD_SOLID_BREP ( 'Boss-Extrude2', #1108 ) ;
#652 = VERTEX_POINT ( 'NONE', #1058 ) ;
#653 = ORIENTED_EDGE ( 'NONE', *, *, #648, .F. ) ;
#654 = EDGE_CURVE ( 'NONE', #1010, #228, #638, .T. ) ;
#655 = VERTEX_POINT ( 'NONE', #458 ) ;
#656 = CARTESIAN_POINT ( 'NONE',  ( -9.400000000000002100, 0.0000000000000000000, 0.0000000000000000000 ) ) ;
#657 = ORIENTED_EDGE ( 'NONE', *, *, #610, .F. ) ;
#658 =( GEOMETRIC_REPRESENTATION_CONTEXT ( 3 ) GLOBAL_UNCERTAINTY_ASSIGNED_CONTEXT ( ( #1029 ) ) GLOBAL_UNIT_ASSIGNED_CONTEXT ( ( #735, #65, #1158 ) ) REPRESENTATION_CONTEXT ( 'NONE', 'WORKASPACE' ) );
#659 = CARTESIAN_POINT ( 'NONE',  ( 4.949999999999999300, -4.599999999999999600, 1.800000000000000300 ) ) ;
#660 = DIRECTION ( 'NONE',  ( -1.000000000000000000, 0.0000000000000000000, 0.0000000000000000000 ) ) ;
#661 = PRESENTATION_STYLE_ASSIGNMENT (( #1125 ) ) ;
#662 = DIRECTION ( 'NONE',  ( -1.000000000000000000, 0.0000000000000000000, 0.0000000000000000000 ) ) ;
#663 = FACE_BOUND ( 'NONE', #761, .T. ) ;
#664 = DIRECTION ( 'NONE',  ( 0.0000000000000000000, -1.000000000000000000, 0.0000000000000000000 ) ) ;
#665 = VECTOR ( 'NONE', #252, 1000.000000000000000 ) ;
#666 = DIRECTION ( 'NONE',  ( 0.0000000000000000000, 1.000000000000000000, 0.0000000000000000000 ) ) ;
#667 = LINE ( 'NONE', #964, #1068 ) ;
#668 = CARTESIAN_POINT ( 'NONE',  ( -0.1300000000000016400, -4.599999999999999600, 1.500000000000000000 ) ) ;
#669 = FACE_OUTER_BOUND ( 'NONE', #478, .T. ) ;
#670 = VECTOR ( 'NONE', #1074, 1000.000000000000000 ) ;
#671 = SURFACE_SIDE_STYLE ('',( #442 ) ) ;
#672 = PLANE ( 'NONE',  #453 ) ;
#673 = ORIENTED_EDGE ( 'NONE', *, *, #928, .F. ) ;
#674 = SURFACE_STYLE_USAGE ( .BOTH. , #85 ) ;
#675 = EDGE_CURVE ( 'NONE', #1102, #994, #163, .T. ) ;
#676 = PRESENTATION_LAYER_ASSIGNMENT (  '', '', ( #544 ) ) ;
#677 =( LENGTH_UNIT ( ) NAMED_UNIT ( * ) SI_UNIT ( .MILLI., .METRE. ) );
#678 = ADVANCED_FACE ( 'NONE', ( #669 ), #371, .F. ) ;
#679 = PRESENTATION_STYLE_ASSIGNMENT (( #255 ) ) ;
#680 = EDGE_CURVE ( 'NONE', #1152, #318, #727, .T. ) ;
#681 = COLOUR_RGB ( '',0.2509803921568627400, 0.2509803921568627400, 0.2509803921568627400 ) ;
#682 = DIRECTION ( 'NONE',  ( 1.000000000000000000, 0.0000000000000000000, 0.0000000000000000000 ) ) ;
#683 = ADVANCED_FACE ( 'NONE', ( #524 ), #869, .F. ) ;
#684 = ORIENTED_EDGE ( 'NONE', *, *, #834, .T. ) ;
#685 = VERTEX_POINT ( 'NONE', #668 ) ;
#686 =( NAMED_UNIT ( * ) SI_UNIT ( $, .STERADIAN. ) SOLID_ANGLE_UNIT ( ) );
#687 = EDGE_CURVE ( 'NONE', #889, #23, #436, .T. ) ;
#688 = DIRECTION ( 'NONE',  ( 1.000000000000000000, 0.0000000000000000000, 0.0000000000000000000 ) ) ;
#689 = VECTOR ( 'NONE', #930, 1000.000000000000000 ) ;
#690 = VECTOR ( 'NONE', #174, 1000.000000000000000 ) ;
#691 = CARTESIAN_POINT ( 'NONE',  ( 2.409999999999998800, -4.599999999999999600, 1.500000000000000000 ) ) ;
#692 = ORIENTED_EDGE ( 'NONE', *, *, #56, .F. ) ;
#693 = SURFACE_STYLE_FILL_AREA ( #538 ) ;
#694 = EDGE_CURVE ( 'NONE', #1042, #337, #1107, .T. ) ;
#695 = VECTOR ( 'NONE', #619, 1000.000000000000000 ) ;
#696 = COLOUR_RGB ( '',0.2509803921568627400, 0.2509803921568627400, 0.2509803921568627400 ) ;
#697 = AXIS2_PLACEMENT_3D ( 'NONE', #141, #821, #1139 ) ;
#698 = ORIENTED_EDGE ( 'NONE', *, *, #918, .F. ) ;
#699 = DIRECTION ( 'NONE',  ( 0.0000000000000000000, 1.000000000000000000, 0.0000000000000000000 ) ) ;
#700 = EDGE_LOOP ( 'NONE', ( #1257, #244 ) ) ;
#701 = DIRECTION ( 'NONE',  ( 1.000000000000000000, 0.0000000000000000000, 0.0000000000000000000 ) ) ;
#702 = SURFACE_STYLE_USAGE ( .BOTH. , #671 ) ;
#703 = PRESENTATION_LAYER_ASSIGNMENT (  '', '', ( #1052 ) ) ;
#704 = DIRECTION ( 'NONE',  ( -1.000000000000000000, 0.0000000000000000000, 0.0000000000000000000 ) ) ;
#705 = FACE_OUTER_BOUND ( 'NONE', #700, .T. ) ;
#706 = VECTOR ( 'NONE', #950, 1000.000000000000000 ) ;
#707 = FILL_AREA_STYLE_COLOUR ( '', #1140 ) ;
#708 = VECTOR ( 'NONE', #526, 1000.000000000000000 ) ;
#709 =( NAMED_UNIT ( * ) PLANE_ANGLE_UNIT ( ) SI_UNIT ( $, .RADIAN. ) );
#710 = SURFACE_SIDE_STYLE ('',( #116 ) ) ;
#711 = EDGE_CURVE ( 'NONE', #782, #421, #970, .T. ) ;
#712 = ORIENTED_EDGE ( 'NONE', *, *, #694, .F. ) ;
#713 = CARTESIAN_POINT ( 'NONE',  ( -5.210000000000000900, 0.0000000000000000000, 1.499999999999999600 ) ) ;
#714 = VERTEX_POINT ( 'NONE', #753 ) ;
#715 = DIRECTION ( 'NONE',  ( 0.0000000000000000000, -1.000000000000000000, 0.0000000000000000000 ) ) ;
#716 = CARTESIAN_POINT ( 'NONE',  ( -5.210000000000000900, 0.0000000000000000000, 1.800000000000000300 ) ) ;
#717 = VERTEX_POINT ( 'NONE', #1280 ) ;
#718 = ORIENTED_EDGE ( 'NONE', *, *, #1288, .F. ) ;
#719 = CARTESIAN_POINT ( 'NONE',  ( -7.750000000000001800, 0.0000000000000000000, 1.800000000000000300 ) ) ;
#720 = EDGE_CURVE ( 'NONE', #368, #1102, #70, .T. ) ;
#721 = MECHANICAL_DESIGN_GEOMETRIC_PRESENTATION_REPRESENTATION (  '', ( #544 ), #784 ) ;
#722 = LINE ( 'NONE', #1080, #837 ) ;
#723 = ADVANCED_FACE ( 'NONE', ( #1086 ), #89, .T. ) ;
#724 = CARTESIAN_POINT ( 'NONE',  ( 9.400000000000002100, 0.0000000000000000000, 7.200000000000001100 ) ) ;
#725 = VECTOR ( 'NONE', #352, 1000.000000000000000 ) ;
#726 = FACE_OUTER_BOUND ( 'NONE', #742, .T. ) ;
#727 = LINE ( 'NONE', #1270, #376 ) ;
#728 = VECTOR ( 'NONE', #24, 1000.000000000000000 ) ;
#729 = CARTESIAN_POINT ( 'NONE',  ( -4.710000000000002600, -4.599999999999999600, 1.500000000000000000 ) ) ;
#730 = UNCERTAINTY_MEASURE_WITH_UNIT (LENGTH_MEASURE( 1.000000000000000100E-005 ), #1027, 'distance_accuracy_value', 'NONE');
#731 = PRESENTATION_LAYER_ASSIGNMENT (  '', '', ( #472 ) ) ;
#732 = ORIENTED_EDGE ( 'NONE', *, *, #592, .T. ) ;
#733 =( NAMED_UNIT ( * ) SI_UNIT ( $, .STERADIAN. ) SOLID_ANGLE_UNIT ( ) );
#734 = CARTESIAN_POINT ( 'NONE',  ( -7.750000000000001800, -4.599999999999999600, 1.800000000000000300 ) ) ;
#735 =( LENGTH_UNIT ( ) NAMED_UNIT ( * ) SI_UNIT ( .MILLI., .METRE. ) );
#736 = FACE_OUTER_BOUND ( 'NONE', #108, .T. ) ;
#737 = EDGE_CURVE ( 'NONE', #138, #877, #898, .T. ) ;
#738 = FILL_AREA_STYLE_COLOUR ( '', #883 ) ;
#739 = VECTOR ( 'NONE', #267, 1000.000000000000000 ) ;
#740 = DIRECTION ( 'NONE',  ( -1.000000000000000000, -0.0000000000000000000, -0.0000000000000000000 ) ) ;
#741 = CARTESIAN_POINT ( 'NONE',  ( -7.750000000000001800, 0.0000000000000000000, 1.800000000000000300 ) ) ;
#742 = EDGE_LOOP ( 'NONE', ( #598, #747, #712, #334 ) ) ;
#743 = CARTESIAN_POINT ( 'NONE',  ( -7.500000000000002700, 1.199999999999999700, 7.150000000000000400 ) ) ;
#744 = ORIENTED_EDGE ( 'NONE', *, *, #687, .T. ) ;
#745 = DIRECTION ( 'NONE',  ( 0.0000000000000000000, 0.0000000000000000000, -1.000000000000000000 ) ) ;
#746 = STYLED_ITEM ( 'NONE', ( #486 ), #84 ) ;
#747 = ORIENTED_EDGE ( 'NONE', *, *, #13, .F. ) ;
#748 = ORIENTED_EDGE ( 'NONE', *, *, #1254, .T. ) ;
#749 = CARTESIAN_POINT ( 'NONE',  ( -7.250000000000001800, 0.0000000000000000000, 1.800000000000000300 ) ) ;
#750 = CARTESIAN_POINT ( 'NONE',  ( 2.409999999999998800, -4.599999999999999600, 1.500000000000000000 ) ) ;
#751 = EDGE_CURVE ( 'NONE', #277, #1042, #634, .T. ) ;
#752 = VECTOR ( 'NONE', #510, 1000.000000000000000 ) ;
#753 = CARTESIAN_POINT ( 'NONE',  ( 4.949999999999999300, 0.0000000000000000000, 1.800000000000000700 ) ) ;
#754 = VERTEX_POINT ( 'NONE', #760 ) ;
#755 = CARTESIAN_POINT ( 'NONE',  ( -9.400000000000002100, 0.0000000000000000000, 7.200000000000001100 ) ) ;
#756 = ORIENTED_EDGE ( 'NONE', *, *, #570, .T. ) ;
#757 = ORIENTED_EDGE ( 'NONE', *, *, #1013, .T. ) ;
#758 = EDGE_CURVE ( 'NONE', #396, #782, #493, .T. ) ;
#759 = ORIENTED_EDGE ( 'NONE', *, *, #370, .T. ) ;
#760 = CARTESIAN_POINT ( 'NONE',  ( -7.100000000000002300, 1.199999999999999700, 7.150000000000000400 ) ) ;
#761 = EDGE_LOOP ( 'NONE', ( #201, #292, #488, #546 ) ) ;
#762 = ORIENTED_EDGE ( 'NONE', *, *, #1044, .F. ) ;
#763 =( GEOMETRIC_REPRESENTATION_CONTEXT ( 3 ) GLOBAL_UNCERTAINTY_ASSIGNED_CONTEXT ( ( #830 ) ) GLOBAL_UNIT_ASSIGNED_CONTEXT ( ( #645, #248, #344 ) ) REPRESENTATION_CONTEXT ( 'NONE', 'WORKASPACE' ) );
#764 = CARTESIAN_POINT ( 'NONE',  ( -9.800000000000000700, 9.700000000000002800, 7.200000000000001100 ) ) ;
#765 = CARTESIAN_POINT ( 'NONE',  ( -9.800000000000000700, 9.700000000000002800, 7.200000000000001100 ) ) ;
#766 = CARTESIAN_POINT ( 'NONE',  ( 5.449999999999999300, 0.0000000000000000000, 1.800000000000000300 ) ) ;
#767 = LINE ( 'NONE', #34, #1012 ) ;
#768 = VECTOR ( 'NONE', #1011, 1000.000000000000000 ) ;
#769 = CARTESIAN_POINT ( 'NONE',  ( 0.0000000000000000000, -4.599999999999999600, 0.0000000000000000000 ) ) ;
#770 = AXIS2_PLACEMENT_3D ( 'NONE', #137, #822, #332 ) ;
#771 = VECTOR ( 'NONE', #831, 1000.000000000000000 ) ;
#772 = FACE_OUTER_BOUND ( 'NONE', #262, .T. ) ;
#773 = VERTEX_POINT ( 'NONE', #67 ) ;
#774 = DIRECTION ( 'NONE',  ( 0.0000000000000000000, 0.0000000000000000000, -1.000000000000000000 ) ) ;
#775 = ORIENTED_EDGE ( 'NONE', *, *, #427, .T. ) ;
#776 = ORIENTED_EDGE ( 'NONE', *, *, #480, .F. ) ;
#777 = EDGE_CURVE ( 'NONE', #844, #368, #269, .T. ) ;
#778 = DIRECTION ( 'NONE',  ( 0.0000000000000000000, 0.0000000000000000000, 1.000000000000000000 ) ) ;
#779 = FACE_OUTER_BOUND ( 'NONE', #923, .T. ) ;
#780 = CARTESIAN_POINT ( 'NONE',  ( 9.400000000000002100, 0.0000000000000000000, 0.0000000000000000000 ) ) ;
#781 = VECTOR ( 'NONE', #1178, 1000.000000000000000 ) ;
#782 = VERTEX_POINT ( 'NONE', #575 ) ;
#783 = FACE_OUTER_BOUND ( 'NONE', #460, .T. ) ;
#784 =( GEOMETRIC_REPRESENTATION_CONTEXT ( 3 ) GLOBAL_UNCERTAINTY_ASSIGNED_CONTEXT ( ( #972 ) ) GLOBAL_UNIT_ASSIGNED_CONTEXT ( ( #479, #1070, #465 ) ) REPRESENTATION_CONTEXT ( 'NONE', 'WORKASPACE' ) );
#785 = VECTOR ( 'NONE', #811, 1000.000000000000000 ) ;
#786 = VERTEX_POINT ( 'NONE', #380 ) ;
#787 = ORIENTED_EDGE ( 'NONE', *, *, #1278, .F. ) ;
#788 = CARTESIAN_POINT ( 'NONE',  ( 2.909999999999998400, -4.599999999999999600, 1.500000000000000000 ) ) ;
#789 = VERTEX_POINT ( 'NONE', #1087 ) ;
#790 = DIRECTION ( 'NONE',  ( 0.0000000000000000000, -1.000000000000000000, 0.0000000000000000000 ) ) ;
#791 = PRESENTATION_LAYER_ASSIGNMENT (  '', '', ( #95 ) ) ;
#792 =( NAMED_UNIT ( * ) SI_UNIT ( $, .STERADIAN. ) SOLID_ANGLE_UNIT ( ) );
#793 = CARTESIAN_POINT ( 'NONE',  ( 9.800000000000000700, -0.4999999999999977200, 7.200000000000001100 ) ) ;
#794 = DIRECTION ( 'NONE',  ( 1.000000000000000000, 0.0000000000000000000, 0.0000000000000000000 ) ) ;
#795 = LINE ( 'NONE', #864, #286 ) ;
#796 = CARTESIAN_POINT ( 'NONE',  ( 0.3699999999999979400, -4.599999999999999600, 1.500000000000000000 ) ) ;
#797 = FACE_OUTER_BOUND ( 'NONE', #1022, .T. ) ;
#798 = DIRECTION ( 'NONE',  ( 0.0000000000000000000, 1.000000000000000000, 0.0000000000000000000 ) ) ;
#799 = FACE_BOUND ( 'NONE', #157, .T. ) ;
#800 = VECTOR ( 'NONE', #1196, 1000.000000000000000 ) ;
#801 = EDGE_CURVE ( 'NONE', #470, #655, #667, .T. ) ;
#802 = PLANE ( 'NONE',  #986 ) ;
#803 = ADVANCED_FACE ( 'NONE', ( #726 ), #169, .F. ) ;
#804 = SURFACE_STYLE_FILL_AREA ( #806 ) ;
#805 = CARTESIAN_POINT ( 'NONE',  ( -9.400000000000002100, -0.5000000000000000000, 7.200000000000001100 ) ) ;
#806 = FILL_AREA_STYLE ('',( #927 ) ) ;
#807 = ORIENTED_EDGE ( 'NONE', *, *, #1243, .T. ) ;
#808 = ADVANCED_FACE ( 'NONE', ( #998 ), #148, .F. ) ;
#809 = VERTEX_POINT ( 'NONE', #1020 ) ;
#810 = EDGE_LOOP ( 'NONE', ( #366, #1183, #270, #941 ) ) ;
#811 = DIRECTION ( 'NONE',  ( 1.000000000000000000, 0.0000000000000000000, 0.0000000000000000000 ) ) ;
#812 = EDGE_LOOP ( 'NONE', ( #644, #657, #474, #188, #75, #976, #630, #393 ) ) ;
#813 = EDGE_CURVE ( 'NONE', #906, #396, #1259, .T. ) ;
#814 = PLANE ( 'NONE',  #853 ) ;
#815 = LINE ( 'NONE', #1141, #689 ) ;
#816 = ADVANCED_FACE ( 'NONE', ( #797 ), #920, .F. ) ;
#817 = CARTESIAN_POINT ( 'NONE',  ( -5.210000000000000900, -4.599999999999999600, 1.800000000000000300 ) ) ;
#818 = CARTESIAN_POINT ( 'NONE',  ( -0.1300000000000016400, 0.0000000000000000000, 1.800000000000000300 ) ) ;
#819 = FACE_OUTER_BOUND ( 'NONE', #1199, .T. ) ;
#820 = PRESENTATION_STYLE_ASSIGNMENT (( #917 ) ) ;
#821 = DIRECTION ( 'NONE',  ( 0.0000000000000000000, 0.0000000000000000000, 1.000000000000000000 ) ) ;
#822 = DIRECTION ( 'NONE',  ( 0.0000000000000000000, -1.000000000000000000, 0.0000000000000000000 ) ) ;
#823 = LINE ( 'NONE', #632, #752 ) ;
#824 = CARTESIAN_POINT ( 'NONE',  ( -7.750000000000001800, -4.599999999999999600, 1.800000000000000300 ) ) ;
#825 = ADVANCED_FACE ( 'NONE', ( #374 ), #130, .F. ) ;
#826 = EDGE_CURVE ( 'NONE', #611, #509, #1047, .T. ) ;
#827 = DIRECTION ( 'NONE',  ( 0.0000000000000000000, 1.000000000000000000, 0.0000000000000000000 ) ) ;
#828 = VERTEX_POINT ( 'NONE', #1036 ) ;
#829 = CARTESIAN_POINT ( 'NONE',  ( 5.449999999999998400, 0.0000000000000000000, 1.799999999999999800 ) ) ;
#830 = UNCERTAINTY_MEASURE_WITH_UNIT (LENGTH_MEASURE( 1.000000000000000100E-005 ), #645, 'distance_accuracy_value', 'NONE');
#831 = DIRECTION ( 'NONE',  ( 1.000000000000000000, -5.692061405548909300E-015, 0.0000000000000000000 ) ) ;
#832 = ADVANCED_FACE ( 'NONE', ( #403 ), #836, .F. ) ;
#833 = CARTESIAN_POINT ( 'NONE',  ( 0.0000000000000000000, 0.0000000000000000000, 0.0000000000000000000 ) ) ;
#834 = EDGE_CURVE ( 'NONE', #193, #1007, #234, .T. ) ;
#835 = AXIS2_PLACEMENT_3D ( 'NONE', #743, #160, #456 ) ;
#836 = PLANE ( 'NONE',  #697 ) ;
#837 = VECTOR ( 'NONE', #1002, 1000.000000000000000 ) ;
#838 = VECTOR ( 'NONE', #525, 1000.000000000000000 ) ;
#839 = ORIENTED_EDGE ( 'NONE', *, *, #852, .F. ) ;
#840 = COLOUR_RGB ( '',0.2509803921568627400, 0.2509803921568627400, 0.2509803921568627400 ) ;
#841 = APPLICATION_CONTEXT ( 'automotive_design' ) ;
#842 = VECTOR ( 'NONE', #481, 1000.000000000000000 ) ;
#843 = CARTESIAN_POINT ( 'NONE',  ( 9.400000000000002100, -0.5000000000000000000, 0.0000000000000000000 ) ) ;
#844 = VERTEX_POINT ( 'NONE', #340 ) ;
#845 = AXIS2_PLACEMENT_3D ( 'NONE', #824, #1122, #617 ) ;
#846 = ORIENTED_EDGE ( 'NONE', *, *, #893, .T. ) ;
#847 = CARTESIAN_POINT ( 'NONE',  ( 9.400000000000002100, -0.5000000000000000000, 7.200000000000001100 ) ) ;
#848 = ORIENTED_EDGE ( 'NONE', *, *, #1278, .T. ) ;
#849 = DIRECTION ( 'NONE',  ( -1.000000000000000000, -0.0000000000000000000, -0.0000000000000000000 ) ) ;
#850 = DIRECTION ( 'NONE',  ( -1.000000000000000000, -0.0000000000000000000, -0.0000000000000000000 ) ) ;
#851 = FACE_OUTER_BOUND ( 'NONE', #939, .T. ) ;
#852 = EDGE_CURVE ( 'NONE', #652, #782, #469, .T. ) ;
#853 = AXIS2_PLACEMENT_3D ( 'NONE', #1220, #27, #1227 ) ;
#854 = PLANE ( 'NONE',  #346 ) ;
#855 = VECTOR ( 'NONE', #926, 1000.000000000000000 ) ;
#856 = PRESENTATION_STYLE_ASSIGNMENT (( #702 ) ) ;
#857 = DIRECTION ( 'NONE',  ( 0.0000000000000000000, 1.000000000000000000, 0.0000000000000000000 ) ) ;
#858 = EDGE_CURVE ( 'NONE', #1042, #138, #1144, .T. ) ;
#859 = VERTEX_POINT ( 'NONE', #626 ) ;
#860 = AXIS2_PLACEMENT_3D ( 'NONE', #574, #283, #569 ) ;
#861 = EDGE_LOOP ( 'NONE', ( #1114, #999, #1236, #499 ) ) ;
#862 = ORIENTED_EDGE ( 'NONE', *, *, #576, .T. ) ;
#863 = CARTESIAN_POINT ( 'NONE',  ( 2.540000000000000000, -4.599999999999999600, 0.0000000000000000000 ) ) ;
#864 = CARTESIAN_POINT ( 'NONE',  ( 4.949999999999999300, 0.0000000000000000000, 1.800000000000000300 ) ) ;
#865 = CARTESIAN_POINT ( 'NONE',  ( 5.449999999999999300, -4.599999999999999600, 1.800000000000000300 ) ) ;
#866 = PLANE ( 'NONE',  #551 ) ;
#867 = CARTESIAN_POINT ( 'NONE',  ( 2.909999999999998400, 0.0000000000000000000, 1.800000000000000300 ) ) ;
#868 = CIRCLE ( 'NONE', #835, 0.4000000000000001900 ) ;
#869 = PLANE ( 'NONE',  #156 ) ;
#870 = VECTOR ( 'NONE', #1050, 1000.000000000000000 ) ;
#871 = DIRECTION ( 'NONE',  ( 0.0000000000000000000, 0.0000000000000000000, 1.000000000000000000 ) ) ;
#872 = SURFACE_STYLE_FILL_AREA ( #464 ) ;
#873 = EDGE_LOOP ( 'NONE', ( #848, #718, #243, #1195 ) ) ;
#874 = DIRECTION ( 'NONE',  ( 1.000000000000000000, 0.0000000000000000000, 0.0000000000000000000 ) ) ;
#875 = ORIENTED_EDGE ( 'NONE', *, *, #306, .F. ) ;
#876 = EDGE_CURVE ( 'NONE', #828, #1185, #342, .T. ) ;
#877 = VERTEX_POINT ( 'NONE', #829 ) ;
#878 = AXIS2_PLACEMENT_3D ( 'NONE', #833, #41, #433 ) ;
#879 = CARTESIAN_POINT ( 'NONE',  ( 5.449999999999999300, -4.599999999999999600, 1.800000000000000300 ) ) ;
#880 = CARTESIAN_POINT ( 'NONE',  ( -5.210000000000000900, -4.599999999999999600, 1.800000000000000300 ) ) ;
#881 = VECTOR ( 'NONE', #1009, 1000.000000000000000 ) ;
#882 = FACE_OUTER_BOUND ( 'NONE', #307, .T. ) ;
#883 = COLOUR_RGB ( '',1.000000000000000000, 1.000000000000000000, 1.000000000000000000 ) ;
#884 = UNCERTAINTY_MEASURE_WITH_UNIT (LENGTH_MEASURE( 1.000000000000000100E-005 ), #623, 'distance_accuracy_value', 'NONE');
#885 = EDGE_LOOP ( 'NONE', ( #1286, #591, #535, #684 ) ) ;
#886 = LINE ( 'NONE', #363, #165 ) ;
#887 = ADVANCED_FACE ( 'NONE', ( #1174 ), #441, .T. ) ;
#888 = VECTOR ( 'NONE', #1000, 1000.000000000000000 ) ;
#889 = VERTEX_POINT ( 'NONE', #817 ) ;
#890 = CARTESIAN_POINT ( 'NONE',  ( -5.210000000000000900, -4.599999999999999600, 1.800000000000000300 ) ) ;
#891 = ORIENTED_EDGE ( 'NONE', *, *, #43, .T. ) ;
#892 = EDGE_LOOP ( 'NONE', ( #476, #616, #608, #190 ) ) ;
#893 = EDGE_CURVE ( 'NONE', #1152, #717, #51, .T. ) ;
#894 = PLANE ( 'NONE',  #1188 ) ;
#895 = PLANE ( 'NONE',  #860 ) ;
#896 = VECTOR ( 'NONE', #850, 1000.000000000000000 ) ;
#897 = EDGE_CURVE ( 'NONE', #899, #421, #16, .T. ) ;
#898 = LINE ( 'NONE', #766, #484 ) ;
#899 = VERTEX_POINT ( 'NONE', #724 ) ;
#900 = PLANE ( 'NONE',  #316 ) ;
#901 = ADVANCED_BREP_SHAPE_REPRESENTATION ( 'CUI_PCN2-S12-D15-S', ( #651, #84, #81 ), #1189 ) ;
#902 = LINE ( 'NONE', #1060, #18 ) ;
#903 = ORIENTED_EDGE ( 'NONE', *, *, #168, .F. ) ;
#904 = CARTESIAN_POINT ( 'NONE',  ( 12.70000000000000100, -4.599999999999999600, 0.0000000000000000000 ) ) ;
#905 = VERTEX_POINT ( 'NONE', #637 ) ;
#906 = VERTEX_POINT ( 'NONE', #932 ) ;
#907 = CARTESIAN_POINT ( 'NONE',  ( -7.750000000000001800, -4.599999999999999600, 1.500000000000000000 ) ) ;
#908 = ADVANCED_FACE ( 'NONE', ( #779 ), #47, .F. ) ;
#909 = EDGE_LOOP ( 'NONE', ( #807, #1283, #903, #732 ) ) ;
#910 = DIRECTION ( 'NONE',  ( 0.0000000000000000000, 0.0000000000000000000, 1.000000000000000000 ) ) ;
#911 = FILL_AREA_STYLE ('',( #508 ) ) ;
#912 = LINE ( 'NONE', #796, #768 ) ;
#913 = SURFACE_STYLE_USAGE ( .BOTH. , #223 ) ;
#914 = SURFACE_STYLE_FILL_AREA ( #189 ) ;
#915 = PLANE ( 'NONE',  #133 ) ;
#916 = LINE ( 'NONE', #1159, #1015 ) ;
#917 = SURFACE_STYLE_USAGE ( .BOTH. , #710 ) ;
#918 = EDGE_CURVE ( 'NONE', #899, #611, #1190, .T. ) ;
#919 =( GEOMETRIC_REPRESENTATION_CONTEXT ( 3 ) GLOBAL_UNCERTAINTY_ASSIGNED_CONTEXT ( ( #730 ) ) GLOBAL_UNIT_ASSIGNED_CONTEXT ( ( #1027, #145, #733 ) ) REPRESENTATION_CONTEXT ( 'NONE', 'WORKASPACE' ) );
#920 = PLANE ( 'NONE',  #595 ) ;
#921 = CARTESIAN_POINT ( 'NONE',  ( -4.710000000000002600, -4.599999999999999600, 1.800000000000000300 ) ) ;
#922 = ORIENTED_EDGE ( 'NONE', *, *, #427, .F. ) ;
#923 = EDGE_LOOP ( 'NONE', ( #1112, #1214, #455, #628 ) ) ;
#924 = ORIENTED_EDGE ( 'NONE', *, *, #512, .F. ) ;
#925 = VERTEX_POINT ( 'NONE', #52 ) ;
#926 = DIRECTION ( 'NONE',  ( -0.0000000000000000000, -0.0000000000000000000, -1.000000000000000000 ) ) ;
#927 = FILL_AREA_STYLE_COLOUR ( '', #681 ) ;
#928 = EDGE_CURVE ( 'NONE', #655, #1075, #99, .T. ) ;
#929 = CARTESIAN_POINT ( 'NONE',  ( 2.409999999999998800, 0.0000000000000000000, 1.499999999999999600 ) ) ;
#930 = DIRECTION ( 'NONE',  ( 0.0000000000000000000, 0.0000000000000000000, 1.000000000000000000 ) ) ;
#931 = SURFACE_STYLE_FILL_AREA ( #241 ) ;
#932 = CARTESIAN_POINT ( 'NONE',  ( -9.400000000000002100, -0.5000000000000000000, 7.200000000000001100 ) ) ;
#933 = CARTESIAN_POINT ( 'NONE',  ( 2.909999999999998400, -4.599999999999999600, 1.800000000000000300 ) ) ;
#934 = VECTOR ( 'NONE', #83, 1000.000000000000000 ) ;
#935 = DIRECTION ( 'NONE',  ( 0.0000000000000000000, 1.000000000000000000, 0.0000000000000000000 ) ) ;
#936 = LINE ( 'NONE', #990, #800 ) ;
#937 = VECTOR ( 'NONE', #1064, 1000.000000000000000 ) ;
#938 = AXIS2_PLACEMENT_3D ( 'NONE', #197, #682, #297 ) ;
#939 = EDGE_LOOP ( 'NONE', ( #170, #159, #245, #294 ) ) ;
#940 = PRODUCT_RELATED_PRODUCT_CATEGORY ( 'part', '', ( #263 ) ) ;
#941 = ORIENTED_EDGE ( 'NONE', *, *, #3, .T. ) ;
#942 = ORIENTED_EDGE ( 'NONE', *, *, #543, .F. ) ;
#943 = SURFACE_SIDE_STYLE ('',( #952 ) ) ;
#944 = CARTESIAN_POINT ( 'NONE',  ( 2.909999999999998400, -4.599999999999999600, 1.800000000000000300 ) ) ;
#945 = DIRECTION ( 'NONE',  ( 0.0000000000000000000, 1.000000000000000000, 0.0000000000000000000 ) ) ;
#946 = EDGE_CURVE ( 'NONE', #260, #1025, #633, .T. ) ;
#947 = FILL_AREA_STYLE ('',( #738 ) ) ;
#948 = AXIS2_PLACEMENT_3D ( 'NONE', #1115, #507, #701 ) ;
#949 = LINE ( 'NONE', #944, #217 ) ;
#950 = DIRECTION ( 'NONE',  ( 1.000000000000000000, 0.0000000000000000000, 0.0000000000000000000 ) ) ;
#951 = LINE ( 'NONE', #749, #180 ) ;
#952 = SURFACE_STYLE_FILL_AREA ( #947 ) ;
#953 = LINE ( 'NONE', #359, #640 ) ;
#954 = CARTESIAN_POINT ( 'NONE',  ( -7.500000000000002700, 1.199999999999999700, 7.150000000000000400 ) ) ;
#955 = FILL_AREA_STYLE_COLOUR ( '', #840 ) ;
#956 = AXIS2_PLACEMENT_3D ( 'NONE', #1024, #1129, #229 ) ;
#957 = ORIENTED_EDGE ( 'NONE', *, *, #353, .F. ) ;
#958 = DIRECTION ( 'NONE',  ( -5.692061405548908500E-015, 1.000000000000000000, 0.0000000000000000000 ) ) ;
#959 = EDGE_LOOP ( 'NONE', ( #122, #1252, #275, #549 ) ) ;
#960 = VERTEX_POINT ( 'NONE', #548 ) ;
#961 = ORIENTED_EDGE ( 'NONE', *, *, #1193, .T. ) ;
#962 = CARTESIAN_POINT ( 'NONE',  ( -5.210000000000000900, -4.599999999999999600, 1.500000000000000000 ) ) ;
#963 = EDGE_CURVE ( 'NONE', #1010, #754, #868, .T. ) ;
#964 = CARTESIAN_POINT ( 'NONE',  ( 0.3699999999999979400, -4.599999999999999600, 1.800000000000000300 ) ) ;
#965 = FACE_OUTER_BOUND ( 'NONE', #280, .T. ) ;
#966 = DIRECTION ( 'NONE',  ( 0.0000000000000000000, 0.0000000000000000000, -1.000000000000000000 ) ) ;
#967 = COLOUR_RGB ( '',0.2509803921568627400, 0.2509803921568627400, 0.2509803921568627400 ) ;
#968 = DIRECTION ( 'NONE',  ( 1.000000000000000000, 5.692061405548909300E-015, 0.0000000000000000000 ) ) ;
#969 = FACE_OUTER_BOUND ( 'NONE', #536, .T. ) ;
#970 = LINE ( 'NONE', #656, #739 ) ;
#971 = DIRECTION ( 'NONE',  ( -0.0000000000000000000, -0.0000000000000000000, -1.000000000000000000 ) ) ;
#972 = UNCERTAINTY_MEASURE_WITH_UNIT (LENGTH_MEASURE( 1.000000000000000100E-005 ), #479, 'distance_accuracy_value', 'NONE');
#973 = ORIENTED_EDGE ( 'NONE', *, *, #179, .F. ) ;
#974 = DIRECTION ( 'NONE',  ( 0.0000000000000000000, 0.0000000000000000000, -1.000000000000000000 ) ) ;
#975 = EDGE_CURVE ( 'NONE', #754, #1010, #1106, .T. ) ;
#976 = ORIENTED_EDGE ( 'NONE', *, *, #257, .F. ) ;
#977 = AXIS2_PLACEMENT_3D ( 'NONE', #954, #365, #1061 ) ;
#978 = ORIENTED_EDGE ( 'NONE', *, *, #1269, .F. ) ;
#979 = CARTESIAN_POINT ( 'NONE',  ( -9.400000000000002100, -0.5000000000000000000, 0.0000000000000000000 ) ) ;
#980 = ORIENTED_EDGE ( 'NONE', *, *, #1062, .T. ) ;
#981 = PLANE ( 'NONE',  #585 ) ;
#982 = EDGE_CURVE ( 'NONE', #786, #138, #985, .T. ) ;
#983 = CARTESIAN_POINT ( 'NONE',  ( -0.1300000000000016400, -4.599999999999999600, 1.800000000000000300 ) ) ;
#984 = PRESENTATION_LAYER_ASSIGNMENT (  '', '', ( #1146 ) ) ;
#985 = LINE ( 'NONE', #158, #706 ) ;
#986 = AXIS2_PLACEMENT_3D ( 'NONE', #500, #504, #1206 ) ;
#987 = PRESENTATION_STYLE_ASSIGNMENT (( #49 ) ) ;
#988 = LINE ( 'NONE', #1161, #670 ) ;
#989 = ADVANCED_FACE ( 'NONE', ( #819 ), #162, .F. ) ;
#990 = CARTESIAN_POINT ( 'NONE',  ( -0.1300000000000016400, -4.599999999999999600, 1.800000000000000300 ) ) ;
#991 = ORIENTED_EDGE ( 'NONE', *, *, #387, .T. ) ;
#992 = ORIENTED_EDGE ( 'NONE', *, *, #102, .F. ) ;
#993 = EDGE_CURVE ( 'NONE', #132, #88, #996, .T. ) ;
#994 = VERTEX_POINT ( 'NONE', #1273 ) ;
#995 = EDGE_CURVE ( 'NONE', #789, #88, #1123, .T. ) ;
#996 = LINE ( 'NONE', #1149, #896 ) ;
#997 = AXIS2_PLACEMENT_3D ( 'NONE', #506, #609, #1216 ) ;
#998 = FACE_OUTER_BOUND ( 'NONE', #1131, .T. ) ;
#999 = ORIENTED_EDGE ( 'NONE', *, *, #361, .F. ) ;
#1000 = DIRECTION ( 'NONE',  ( 0.0000000000000000000, 0.0000000000000000000, -1.000000000000000000 ) ) ;
#1001 = CARTESIAN_POINT ( 'NONE',  ( -7.750000000000001800, -4.599999999999999600, 1.500000000000000000 ) ) ;
#1002 = DIRECTION ( 'NONE',  ( 0.0000000000000000000, 1.000000000000000000, 0.0000000000000000000 ) ) ;
#1003 = FACE_OUTER_BOUND ( 'NONE', #909, .T. ) ;
#1004 = EDGE_LOOP ( 'NONE', ( #759, #196, #744, #562 ) ) ;
#1005 = DIRECTION ( 'NONE',  ( 0.0000000000000000000, 0.0000000000000000000, 1.000000000000000000 ) ) ;
#1006 = ADVANCED_FACE ( 'NONE', ( #467 ), #556, .F. ) ;
#1007 = VERTEX_POINT ( 'NONE', #261 ) ;
#1008 = AXIS2_PLACEMENT_3D ( 'NONE', #106, #1005, #605 ) ;
#1009 = DIRECTION ( 'NONE',  ( 0.0000000000000000000, 1.000000000000000000, 0.0000000000000000000 ) ) ;
#1010 = VERTEX_POINT ( 'NONE', #355 ) ;
#1011 = DIRECTION ( 'NONE',  ( 0.0000000000000000000, 1.000000000000000000, 0.0000000000000000000 ) ) ;
#1012 = VECTOR ( 'NONE', #519, 1000.000000000000000 ) ;
#1013 = EDGE_CURVE ( 'NONE', #152, #1092, #114, .T. ) ;
#1014 = CARTESIAN_POINT ( 'NONE',  ( -0.1300000000000016400, -4.599999999999999600, 1.800000000000000300 ) ) ;
#1015 = VECTOR ( 'NONE', #1156, 1000.000000000000000 ) ;
#1016 = SURFACE_SIDE_STYLE ('',( #200 ) ) ;
#1017 = VECTOR ( 'NONE', #1032, 1000.000000000000000 ) ;
#1018 = ORIENTED_EDGE ( 'NONE', *, *, #1176, .T. ) ;
#1019 = CARTESIAN_POINT ( 'NONE',  ( -9.800000000000000700, -0.4999999999999977200, 0.0000000000000000000 ) ) ;
#1020 = CARTESIAN_POINT ( 'NONE',  ( 0.3699999999999979400, 0.0000000000000000000, 1.500000000000000000 ) ) ;
#1021 = CARTESIAN_POINT ( 'NONE',  ( -7.100000000000002300, 1.199999999999999700, 7.150000000000000400 ) ) ;
#1022 = EDGE_LOOP ( 'NONE', ( #1233, #978, #692, #1018 ) ) ;
#1023 = EDGE_LOOP ( 'NONE', ( #497, #1111, #643, #94 ) ) ;
#1024 = CARTESIAN_POINT ( 'NONE',  ( -9.400000000000002100, -0.5000000000000000000, 7.200000000000001100 ) ) ;
#1025 = VERTEX_POINT ( 'NONE', #1065 ) ;
#1026 = AXIS2_PLACEMENT_3D ( 'NONE', #291, #874, #774 ) ;
#1027 =( LENGTH_UNIT ( ) NAMED_UNIT ( * ) SI_UNIT ( .MILLI., .METRE. ) );
#1028 = PLANE ( 'NONE',  #770 ) ;
#1029 = UNCERTAINTY_MEASURE_WITH_UNIT (LENGTH_MEASURE( 1.000000000000000100E-005 ), #735, 'distance_accuracy_value', 'NONE');
#1030 = PLANE ( 'NONE',  #956 ) ;
#1031 = ADVANCED_FACE ( 'NONE', ( #66 ), #854, .F. ) ;
#1032 = DIRECTION ( 'NONE',  ( 0.0000000000000000000, 0.0000000000000000000, 1.000000000000000000 ) ) ;
#1033 = EDGE_CURVE ( 'NONE', #905, #685, #449, .T. ) ;
#1034 = LINE ( 'NONE', #1083, #1224 ) ;
#1035 = LINE ( 'NONE', #933, #239 ) ;
#1036 = CARTESIAN_POINT ( 'NONE',  ( -5.210000000000000900, 0.0000000000000000000, 1.800000000000000700 ) ) ;
#1037 =( NAMED_UNIT ( * ) PLANE_ANGLE_UNIT ( ) SI_UNIT ( $, .RADIAN. ) );
#1038 = ORIENTED_EDGE ( 'NONE', *, *, #87, .T. ) ;
#1039 = PLANE ( 'NONE',  #502 ) ;
#1040 = ORIENTED_EDGE ( 'NONE', *, *, #995, .F. ) ;
#1041 = DIRECTION ( 'NONE',  ( 1.000000000000000000, 0.0000000000000000000, 0.0000000000000000000 ) ) ;
#1042 = VERTEX_POINT ( 'NONE', #1182 ) ;
#1043 = ORIENTED_EDGE ( 'NONE', *, *, #230, .T. ) ;
#1044 = EDGE_CURVE ( 'NONE', #717, #132, #951, .T. ) ;
#1045 = ADVANCED_FACE ( 'NONE', ( #882 ), #563, .F. ) ;
#1046 = CARTESIAN_POINT ( 'NONE',  ( 9.800000000000000700, -0.4999999999999977200, 0.0000000000000000000 ) ) ;
#1047 = LINE ( 'NONE', #1126, #313 ) ;
#1048 = DIRECTION ( 'NONE',  ( 0.0000000000000000000, 0.0000000000000000000, 1.000000000000000000 ) ) ;
#1049 = LINE ( 'NONE', #31, #771 ) ;
#1050 = DIRECTION ( 'NONE',  ( 1.000000000000000000, 5.692061405548909300E-015, 0.0000000000000000000 ) ) ;
#1051 = LINE ( 'NONE', #42, #560 ) ;
#1052 = STYLED_ITEM ( 'NONE', ( #420 ), #104 ) ;
#1053 = VECTOR ( 'NONE', #1241, 1000.000000000000000 ) ;
#1054 = STYLED_ITEM ( 'NONE', ( #97 ), #1251 ) ;
#1055 = ORIENTED_EDGE ( 'NONE', *, *, #285, .F. ) ;
#1056 = DIRECTION ( 'NONE',  ( 0.0000000000000000000, 0.0000000000000000000, 1.000000000000000000 ) ) ;
#1057 = ORIENTED_EDGE ( 'NONE', *, *, #451, .T. ) ;
#1058 = CARTESIAN_POINT ( 'NONE',  ( -9.400000000000002100, 0.0000000000000000000, 7.200000000000001100 ) ) ;
#1059 = ORIENTED_EDGE ( 'NONE', *, *, #321, .F. ) ;
#1060 = CARTESIAN_POINT ( 'NONE',  ( -7.750000000000001800, 0.0000000000000000000, 1.500000000000000000 ) ) ;
#1061 = DIRECTION ( 'NONE',  ( 1.000000000000000000, 0.0000000000000000000, 0.0000000000000000000 ) ) ;
#1062 = EDGE_CURVE ( 'NONE', #611, #844, #466, .T. ) ;
#1063 = PRODUCT_DEFINITION ( 'UNKNOWN', '', #428, #646 ) ;
#1064 = DIRECTION ( 'NONE',  ( 0.0000000000000000000, 0.0000000000000000000, -1.000000000000000000 ) ) ;
#1065 = CARTESIAN_POINT ( 'NONE',  ( -9.800000000000000700, -0.4999999999999977200, 0.0000000000000000000 ) ) ;
#1066 = CARTESIAN_POINT ( 'NONE',  ( 7.620000000000000100, -4.599999999999999600, 0.0000000000000000000 ) ) ;
#1067 = LINE ( 'NONE', #19, #606 ) ;
#1068 = VECTOR ( 'NONE', #375, 1000.000000000000000 ) ;
#1069 = DIRECTION ( 'NONE',  ( 1.000000000000000000, 0.0000000000000000000, 0.0000000000000000000 ) ) ;
#1070 =( NAMED_UNIT ( * ) PLANE_ANGLE_UNIT ( ) SI_UNIT ( $, .RADIAN. ) );
#1071 = EDGE_CURVE ( 'NONE', #859, #564, #356, .T. ) ;
#1072 = DIRECTION ( 'NONE',  ( 0.0000000000000000000, 0.0000000000000000000, 1.000000000000000000 ) ) ;
#1073 = UNCERTAINTY_MEASURE_WITH_UNIT (LENGTH_MEASURE( 1.000000000000000100E-005 ), #415, 'distance_accuracy_value', 'NONE');
#1074 = DIRECTION ( 'NONE',  ( 1.000000000000000000, -5.692061405548909300E-015, 0.0000000000000000000 ) ) ;
#1075 = VERTEX_POINT ( 'NONE', #76 ) ;
#1076 = CARTESIAN_POINT ( 'NONE',  ( 4.949999999999999300, -4.599999999999999600, 1.500000000000000000 ) ) ;
#1077 = ORIENTED_EDGE ( 'NONE', *, *, #963, .F. ) ;
#1078 = CARTESIAN_POINT ( 'NONE',  ( -5.210000000000000900, -4.599999999999999600, 1.800000000000000300 ) ) ;
#1079 = DIRECTION ( 'NONE',  ( 0.0000000000000000000, 1.000000000000000000, 0.0000000000000000000 ) ) ;
#1080 = CARTESIAN_POINT ( 'NONE',  ( -4.710000000000002600, -4.599999999999999600, 1.800000000000000300 ) ) ;
#1081 = STYLED_ITEM ( 'NONE', ( #438 ), #636 ) ;
#1082 = DIRECTION ( 'NONE',  ( 0.0000000000000000000, 0.0000000000000000000, 1.000000000000000000 ) ) ;
#1083 = CARTESIAN_POINT ( 'NONE',  ( -0.1300000000000016400, 0.0000000000000000000, 1.500000000000000000 ) ) ;
#1084 = LINE ( 'NONE', #209, #1258 ) ;
#1085 = DIRECTION ( 'NONE',  ( 0.0000000000000000000, 0.0000000000000000000, -1.000000000000000000 ) ) ;
#1086 = FACE_OUTER_BOUND ( 'NONE', #296, .T. ) ;
#1087 = CARTESIAN_POINT ( 'NONE',  ( -7.750000000000001800, -4.599999999999999600, 1.800000000000000300 ) ) ;
#1088 = LINE ( 'NONE', #818, #377 ) ;
#1089 = DIRECTION ( 'NONE',  ( 0.0000000000000000000, 0.0000000000000000000, -1.000000000000000000 ) ) ;
#1090 = DIRECTION ( 'NONE',  ( 0.0000000000000000000, 1.000000000000000000, 0.0000000000000000000 ) ) ;
#1091 = EDGE_CURVE ( 'NONE', #513, #319, #722, .T. ) ;
#1092 = VERTEX_POINT ( 'NONE', #788 ) ;
#1093 = ORIENTED_EDGE ( 'NONE', *, *, #113, .F. ) ;
#1094 = ADVANCED_FACE ( 'NONE', ( #705 ), #177, .T. ) ;
#1095 = ORIENTED_EDGE ( 'NONE', *, *, #1219, .T. ) ;
#1096 = FILL_AREA_STYLE ('',( #299 ) ) ;
#1097 = LINE ( 'NONE', #764, #119 ) ;
#1098 = CARTESIAN_POINT ( 'NONE',  ( -7.500000000000002700, 1.199999999999999700, 7.200000000000001100 ) ) ;
#1099 = ORIENTED_EDGE ( 'NONE', *, *, #826, .F. ) ;
#1100 = ORIENTED_EDGE ( 'NONE', *, *, #826, .T. ) ;
#1101 = EDGE_CURVE ( 'NONE', #152, #550, #491, .T. ) ;
#1102 = VERTEX_POINT ( 'NONE', #281 ) ;
#1103 = ORIENTED_EDGE ( 'NONE', *, *, #629, .T. ) ;
#1104 = SURFACE_SIDE_STYLE ('',( #219 ) ) ;
#1105 = EDGE_CURVE ( 'NONE', #318, #132, #1160, .T. ) ;
#1106 = CIRCLE ( 'NONE', #977, 0.4000000000000001900 ) ;
#1107 = LINE ( 'NONE', #865, #37 ) ;
#1108 = CLOSED_SHELL ( 'NONE', ( #235, #539, #908, #1217, #1118, #825 ) ) ;
#1109 = CARTESIAN_POINT ( 'NONE',  ( 9.400000000000002100, -0.5000000000000000000, 0.0000000000000000000 ) ) ;
#1110 = FACE_OUTER_BOUND ( 'NONE', #885, .T. ) ;
#1111 = ORIENTED_EDGE ( 'NONE', *, *, #198, .F. ) ;
#1112 = ORIENTED_EDGE ( 'NONE', *, *, #179, .T. ) ;
#1113 = PRESENTATION_LAYER_ASSIGNMENT (  '', '', ( #584 ) ) ;
#1114 = ORIENTED_EDGE ( 'NONE', *, *, #928, .T. ) ;
#1115 = CARTESIAN_POINT ( 'NONE',  ( -7.500000000000002700, 1.199999999999999700, 7.150000000000000400 ) ) ;
#1116 = CARTESIAN_POINT ( 'NONE',  ( 5.449999999999999300, 0.0000000000000000000, 1.500000000000000000 ) ) ;
#1117 = PRESENTATION_LAYER_ASSIGNMENT (  '', '', ( #146 ) ) ;
#1118 = ADVANCED_FACE ( 'NONE', ( #253 ), #672, .T. ) ;
#1119 = SURFACE_STYLE_USAGE ( .BOTH. , #1104 ) ;
#1120 = DIRECTION ( 'NONE',  ( 0.0000000000000000000, 1.000000000000000000, 0.0000000000000000000 ) ) ;
#1121 = VECTOR ( 'NONE', #599, 1000.000000000000000 ) ;
#1122 = DIRECTION ( 'NONE',  ( 0.0000000000000000000, 0.0000000000000000000, -1.000000000000000000 ) ) ;
#1123 = LINE ( 'NONE', #1268, #400 ) ;
#1124 = VECTOR ( 'NONE', #699, 1000.000000000000000 ) ;
#1125 = SURFACE_STYLE_USAGE ( .BOTH. , #625 ) ;
#1126 = CARTESIAN_POINT ( 'NONE',  ( 9.400000000000002100, -0.5000000000000000000, 7.200000000000001100 ) ) ;
#1127 = SURFACE_STYLE_USAGE ( .BOTH. , #5 ) ;
#1128 = VECTOR ( 'NONE', #91, 1000.000000000000000 ) ;
#1129 = DIRECTION ( 'NONE',  ( 5.692061405548908500E-015, 1.000000000000000000, 0.0000000000000000000 ) ) ;
#1130 = LINE ( 'NONE', #1021, #1053 ) ;
#1131 = EDGE_LOOP ( 'NONE', ( #264, #351, #302, #1103 ) ) ;
#1132 = ORIENTED_EDGE ( 'NONE', *, *, #3, .F. ) ;
#1133 = CARTESIAN_POINT ( 'NONE',  ( 2.409999999999998800, -4.599999999999999600, 1.500000000000000000 ) ) ;
#1134 = ORIENTED_EDGE ( 'NONE', *, *, #301, .T. ) ;
#1135 = EDGE_CURVE ( 'NONE', #277, #786, #204, .T. ) ;
#1136 = ADVANCED_FACE ( 'NONE', ( #300 ), #895, .F. ) ;
#1137 = PRESENTATION_LAYER_ASSIGNMENT (  '', '', ( #523 ) ) ;
#1138 = APPLICATION_PROTOCOL_DEFINITION ( 'draft international standard', 'automotive_design', 1998, #841 ) ;
#1139 = DIRECTION ( 'NONE',  ( 1.000000000000000000, 0.0000000000000000000, 0.0000000000000000000 ) ) ;
#1140 = COLOUR_RGB ( '',0.2509803921568627400, 0.2509803921568627400, 0.2509803921568627400 ) ;
#1141 = CARTESIAN_POINT ( 'NONE',  ( 0.3699999999999979400, -4.599999999999999600, 1.800000000000000300 ) ) ;
#1142 = DIRECTION ( 'NONE',  ( 0.0000000000000000000, 0.0000000000000000000, -1.000000000000000000 ) ) ;
#1143 = CIRCLE ( 'NONE', #487, 0.4000000000000001900 ) ;
#1144 = LINE ( 'NONE', #1234, #607 ) ;
#1145 = CARTESIAN_POINT ( 'NONE',  ( -5.210000000000000900, -4.599999999999999600, 1.500000000000000000 ) ) ;
#1146 = STYLED_ITEM ( 'NONE', ( #987 ), #651 ) ;
#1147 =( NAMED_UNIT ( * ) PLANE_ANGLE_UNIT ( ) SI_UNIT ( $, .RADIAN. ) );
#1148 = COLOUR_RGB ( '',0.2509803921568627400, 0.2509803921568627400, 0.2509803921568627400 ) ;
#1149 = CARTESIAN_POINT ( 'NONE',  ( -7.750000000000001800, 0.0000000000000000000, 1.800000000000000300 ) ) ;
#1150 = SURFACE_STYLE_FILL_AREA ( #11 ) ;
#1151 = PLANE ( 'NONE',  #1232 ) ;
#1152 = VERTEX_POINT ( 'NONE', #86 ) ;
#1153 = FILL_AREA_STYLE ('',( #553 ) ) ;
#1154 = VERTEX_POINT ( 'NONE', #765 ) ;
#1155 = EDGE_CURVE ( 'NONE', #714, #786, #1084, .T. ) ;
#1156 = DIRECTION ( 'NONE',  ( -0.0000000000000000000, -0.0000000000000000000, -1.000000000000000000 ) ) ;
#1157 = AXIS2_PLACEMENT_3D ( 'NONE', #557, #1048, #448 ) ;
#1158 =( NAMED_UNIT ( * ) SI_UNIT ( $, .STERADIAN. ) SOLID_ANGLE_UNIT ( ) );
#1159 = CARTESIAN_POINT ( 'NONE',  ( -9.800000000000000700, 9.700000000000002800, 7.200000000000001100 ) ) ;
#1160 = LINE ( 'NONE', #471, #482 ) ;
#1161 = CARTESIAN_POINT ( 'NONE',  ( -9.400000000000002100, -0.5000000000000000000, 0.0000000000000000000 ) ) ;
#1162 = MECHANICAL_DESIGN_GEOMETRIC_PRESENTATION_REPRESENTATION (  '', ( #1081 ), #191 ) ;
#1163 = DIRECTION ( 'NONE',  ( -1.000000000000000000, 0.0000000000000000000, 0.0000000000000000000 ) ) ;
#1164 = DIRECTION ( 'NONE',  ( 0.0000000000000000000, 0.0000000000000000000, 1.000000000000000000 ) ) ;
#1165 = EDGE_LOOP ( 'NONE', ( #410, #957, #123, #787 ) ) ;
#1166 = CARTESIAN_POINT ( 'NONE',  ( 9.800000000000000700, -0.4999999999999977200, 0.0000000000000000000 ) ) ;
#1167 = FILL_AREA_STYLE_COLOUR ( '', #967 ) ;
#1168 = EDGE_CURVE ( 'NONE', #877, #714, #795, .T. ) ;
#1169 = DIRECTION ( 'NONE',  ( 0.0000000000000000000, 0.0000000000000000000, -1.000000000000000000 ) ) ;
#1170 = DIRECTION ( 'NONE',  ( 0.0000000000000000000, 1.000000000000000000, 0.0000000000000000000 ) ) ;
#1171 = DIRECTION ( 'NONE',  ( 0.0000000000000000000, 0.0000000000000000000, 1.000000000000000000 ) ) ;
#1172 = LINE ( 'NONE', #1019, #540 ) ;
#1173 = VECTOR ( 'NONE', #974, 1000.000000000000000 ) ;
#1174 = FACE_OUTER_BOUND ( 'NONE', #167, .T. ) ;
#1175 = CARTESIAN_POINT ( 'NONE',  ( 2.409999999999998800, -4.599999999999999600, 1.800000000000000300 ) ) ;
#1176 = EDGE_CURVE ( 'NONE', #1092, #859, #416, .T. ) ;
#1177 = VECTOR ( 'NONE', #857, 1000.000000000000000 ) ;
#1178 = DIRECTION ( 'NONE',  ( 0.0000000000000000000, 1.000000000000000000, 0.0000000000000000000 ) ) ;
#1179 = MECHANICAL_DESIGN_GEOMETRIC_PRESENTATION_REPRESENTATION (  '', ( #523 ), #658 ) ;
#1180 = DIRECTION ( 'NONE',  ( -1.000000000000000000, 0.0000000000000000000, 0.0000000000000000000 ) ) ;
#1181 = ORIENTED_EDGE ( 'NONE', *, *, #982, .T. ) ;
#1182 = CARTESIAN_POINT ( 'NONE',  ( 5.449999999999999300, -4.599999999999999600, 1.500000000000000000 ) ) ;
#1183 = ORIENTED_EDGE ( 'NONE', *, *, #720, .F. ) ;
#1184 = UNCERTAINTY_MEASURE_WITH_UNIT (LENGTH_MEASURE( 1.000000000000000100E-005 ), #618, 'distance_accuracy_value', 'NONE');
#1185 = VERTEX_POINT ( 'NONE', #713 ) ;
#1186 = EDGE_LOOP ( 'NONE', ( #1077, #532, #527, #1093 ) ) ;
#1187 = DIRECTION ( 'NONE',  ( 1.000000000000000000, 0.0000000000000000000, 0.0000000000000000000 ) ) ;
#1188 = AXIS2_PLACEMENT_3D ( 'NONE', #236, #336, #327 ) ;
#1189 =( GEOMETRIC_REPRESENTATION_CONTEXT ( 3 ) GLOBAL_UNCERTAINTY_ASSIGNED_CONTEXT ( ( #161 ) ) GLOBAL_UNIT_ASSIGNED_CONTEXT ( ( #46, #1147, #45 ) ) REPRESENTATION_CONTEXT ( 'NONE', 'WORKASPACE' ) );
#1190 = LINE ( 'NONE', #541, #665 ) ;
#1191 = CARTESIAN_POINT ( 'NONE',  ( 2.409999999999998800, 0.0000000000000000000, 1.500000000000000000 ) ) ;
#1192 = ADVANCED_FACE ( 'NONE', ( #965 ), #981, .F. ) ;
#1193 = EDGE_CURVE ( 'NONE', #224, #809, #912, .T. ) ;
#1194 = ORIENTED_EDGE ( 'NONE', *, *, #1091, .T. ) ;
#1195 = ORIENTED_EDGE ( 'NONE', *, *, #1269, .T. ) ;
#1196 = DIRECTION ( 'NONE',  ( 0.0000000000000000000, 1.000000000000000000, 0.0000000000000000000 ) ) ;
#1197 = ORIENTED_EDGE ( 'NONE', *, *, #610, .T. ) ;
#1198 = ORIENTED_EDGE ( 'NONE', *, *, #559, .T. ) ;
#1199 = EDGE_LOOP ( 'NONE', ( #756, #9, #875, #226 ) ) ;
#1200 = EDGE_CURVE ( 'NONE', #423, #1152, #33, .T. ) ;
#1201 = AXIS2_PLACEMENT_3D ( 'NONE', #531, #715, #1142 ) ;
#1202 = FACE_BOUND ( 'NONE', #1165, .T. ) ;
#1203 = DIRECTION ( 'NONE',  ( -1.000000000000000000, -0.0000000000000000000, -0.0000000000000000000 ) ) ;
#1204 = ADVANCED_FACE ( 'NONE', ( #268 ), #325, .F. ) ;
#1205 = VECTOR ( 'NONE', #473, 1000.000000000000000 ) ;
#1206 = DIRECTION ( 'NONE',  ( 1.000000000000000000, 0.0000000000000000000, 0.0000000000000000000 ) ) ;
#1207 = DIRECTION ( 'NONE',  ( -1.000000000000000000, -0.0000000000000000000, -0.0000000000000000000 ) ) ;
#1208 = ORIENTED_EDGE ( 'NONE', *, *, #1013, .F. ) ;
#1209 = AXIS2_PLACEMENT_3D ( 'NONE', #863, #664, #176 ) ;
#1210 = PLANE ( 'NONE',  #572 ) ;
#1211 = ADVANCED_FACE ( 'NONE', ( #1287 ), #1210, .F. ) ;
#1212 = ORIENTED_EDGE ( 'NONE', *, *, #321, .T. ) ;
#1213 = DIRECTION ( 'NONE',  ( -0.0000000000000000000, -0.0000000000000000000, -1.000000000000000000 ) ) ;
#1214 = ORIENTED_EDGE ( 'NONE', *, *, #451, .F. ) ;
#1215 = DIRECTION ( 'NONE',  ( 0.0000000000000000000, 0.0000000000000000000, -1.000000000000000000 ) ) ;
#1216 = DIRECTION ( 'NONE',  ( -1.000000000000000000, 0.0000000000000000000, 0.0000000000000000000 ) ) ;
#1217 = ADVANCED_FACE ( 'NONE', ( #178 ), #802, .F. ) ;
#1218 = ORIENTED_EDGE ( 'NONE', *, *, #858, .F. ) ;
#1219 = EDGE_CURVE ( 'NONE', #470, #905, #129, .T. ) ;
#1220 = CARTESIAN_POINT ( 'NONE',  ( -5.210000000000000900, -4.599999999999999600, 1.800000000000000300 ) ) ;
#1221 = AXIS2_PLACEMENT_3D ( 'NONE', #1066, #571, #1169 ) ;
#1222 =( NAMED_UNIT ( * ) SI_UNIT ( $, .STERADIAN. ) SOLID_ANGLE_UNIT ( ) );
#1223 = UNCERTAINTY_MEASURE_WITH_UNIT (LENGTH_MEASURE( 1.000000000000000100E-005 ), #677, 'distance_accuracy_value', 'NONE');
#1224 = VECTOR ( 'NONE', #1187, 1000.000000000000000 ) ;
#1225 = CARTESIAN_POINT ( 'NONE',  ( 2.409999999999998800, -4.599999999999999600, 1.500000000000000000 ) ) ;
#1226 = VECTOR ( 'NONE', #1170, 1000.000000000000000 ) ;
#1227 = DIRECTION ( 'NONE',  ( 0.0000000000000000000, 0.0000000000000000000, -1.000000000000000000 ) ) ;
#1228 = CARTESIAN_POINT ( 'NONE',  ( -7.250000000000001800, -4.599999999999999600, 1.500000000000000000 ) ) ;
#1229 =( LENGTH_UNIT ( ) NAMED_UNIT ( * ) SI_UNIT ( .MILLI., .METRE. ) );
#1230 = LINE ( 'NONE', #304, #888 ) ;
#1231 = ADVANCED_FACE ( 'NONE', ( #64 ), #227, .T. ) ;
#1232 = AXIS2_PLACEMENT_3D ( 'NONE', #357, #745, #1264 ) ;
#1233 = ORIENTED_EDGE ( 'NONE', *, *, #1071, .T. ) ;
#1234 = CARTESIAN_POINT ( 'NONE',  ( 5.449999999999999300, -4.599999999999999600, 1.500000000000000000 ) ) ;
#1235 = DIRECTION ( 'NONE',  ( -1.000000000000000000, 0.0000000000000000000, 0.0000000000000000000 ) ) ;
#1236 = ORIENTED_EDGE ( 'NONE', *, *, #1219, .F. ) ;
#1237 = PLANE ( 'NONE',  #845 ) ;
#1238 = DIRECTION ( 'NONE',  ( 0.0000000000000000000, 0.0000000000000000000, 1.000000000000000000 ) ) ;
#1239 = ADVANCED_FACE ( 'NONE', ( #736 ), #814, .F. ) ;
#1240 = CARTESIAN_POINT ( 'NONE',  ( -9.400000000000002100, 0.0000000000000000000, 7.200000000000001100 ) ) ;
#1241 = DIRECTION ( 'NONE',  ( 0.0000000000000000000, 0.0000000000000000000, 1.000000000000000000 ) ) ;
#1242 = VECTOR ( 'NONE', #477, 1000.000000000000000 ) ;
#1243 = EDGE_CURVE ( 'NONE', #994, #1025, #1172, .T. ) ;
#1244 = VECTOR ( 'NONE', #305, 1000.000000000000000 ) ;
#1245 = PRODUCT_CONTEXT ( 'NONE', #631, 'mechanical' ) ;
#1246 = VECTOR ( 'NONE', #935, 1000.000000000000000 ) ;
#1247 = DIRECTION ( 'NONE',  ( 0.0000000000000000000, 0.0000000000000000000, 1.000000000000000000 ) ) ;
#1248 = UNCERTAINTY_MEASURE_WITH_UNIT (LENGTH_MEASURE( 1.000000000000000100E-005 ), #1229, 'distance_accuracy_value', 'NONE');
#1249 = DIRECTION ( 'NONE',  ( 0.0000000000000000000, 0.0000000000000000000, 1.000000000000000000 ) ) ;
#1250 = LINE ( 'NONE', #125, #785 ) ;
#1251 = ADVANCED_FACE ( 'NONE', ( #1202, #284, #851, #399, #663 ), #900, .F. ) ;
#1252 = ORIENTED_EDGE ( 'NONE', *, *, #592, .F. ) ;
#1253 = ORIENTED_EDGE ( 'NONE', *, *, #751, .F. ) ;
#1254 = EDGE_CURVE ( 'NONE', #224, #470, #815, .T. ) ;
#1255 = SURFACE_SIDE_STYLE ('',( #693 ) ) ;
#1256 = DIRECTION ( 'NONE',  ( 0.0000000000000000000, 1.000000000000000000, 0.0000000000000000000 ) ) ;
#1257 = ORIENTED_EDGE ( 'NONE', *, *, #975, .T. ) ;
#1258 = VECTOR ( 'NONE', #1085, 1000.000000000000000 ) ;
#1259 = LINE ( 'NONE', #805, #590 ) ;
#1260 =( NAMED_UNIT ( * ) SI_UNIT ( $, .STERADIAN. ) SOLID_ANGLE_UNIT ( ) );
#1261 =( GEOMETRIC_REPRESENTATION_CONTEXT ( 3 ) GLOBAL_UNCERTAINTY_ASSIGNED_CONTEXT ( ( #884 ) ) GLOBAL_UNIT_ASSIGNED_CONTEXT ( ( #623, #709, #435 ) ) REPRESENTATION_CONTEXT ( 'NONE', 'WORKASPACE' ) );
#1262 = CIRCLE ( 'NONE', #394, 0.4000000000000001900 ) ;
#1263 = FACE_OUTER_BOUND ( 'NONE', #347, .T. ) ;
#1264 = DIRECTION ( 'NONE',  ( -1.000000000000000000, 0.0000000000000000000, 0.0000000000000000000 ) ) ;
#1265 = ORIENTED_EDGE ( 'NONE', *, *, #680, .F. ) ;
#1266 = CARTESIAN_POINT ( 'NONE',  ( 0.3699999999999979400, -4.599999999999999600, 1.500000000000000000 ) ) ;
#1267 = ORIENTED_EDGE ( 'NONE', *, *, #343, .T. ) ;
#1268 = CARTESIAN_POINT ( 'NONE',  ( -7.750000000000001800, -4.599999999999999600, 1.800000000000000300 ) ) ;
#1269 = EDGE_CURVE ( 'NONE', #80, #564, #949, .T. ) ;
#1270 = CARTESIAN_POINT ( 'NONE',  ( -7.250000000000001800, -4.599999999999999600, 1.800000000000000300 ) ) ;
#1271 = UNCERTAINTY_MEASURE_WITH_UNIT (LENGTH_MEASURE( 1.000000000000000100E-005 ), #418, 'distance_accuracy_value', 'NONE');
#1272 = DIRECTION ( 'NONE',  ( 0.0000000000000000000, 0.0000000000000000000, 1.000000000000000000 ) ) ;
#1273 = CARTESIAN_POINT ( 'NONE',  ( -9.800000000000000700, 9.700000000000002800, 0.0000000000000000000 ) ) ;
#1274 = CARTESIAN_POINT ( 'NONE',  ( 5.449999999999999300, -4.599999999999999600, 1.800000000000000300 ) ) ;
#1275 = DIRECTION ( 'NONE',  ( 0.0000000000000000000, 1.000000000000000000, 0.0000000000000000000 ) ) ;
#1276 = CARTESIAN_POINT ( 'NONE',  ( -9.400000000000002100, 0.0000000000000000000, 7.200000000000001100 ) ) ;
#1277 = VECTOR ( 'NONE', #118, 1000.000000000000000 ) ;
#1278 = EDGE_CURVE ( 'NONE', #564, #364, #250, .T. ) ;
#1279 = VECTOR ( 'NONE', #971, 1000.000000000000000 ) ;
#1280 = CARTESIAN_POINT ( 'NONE',  ( -7.250000000000001800, 0.0000000000000000000, 1.500000000000000000 ) ) ;
#1281 = AXIS2_PLACEMENT_3D ( 'NONE', #1276, #660, #1171 ) ;
#1282 = COLOUR_RGB ( '',0.2509803921568627400, 0.2509803921568627400, 0.2509803921568627400 ) ;
#1283 = ORIENTED_EDGE ( 'NONE', *, *, #946, .F. ) ;
#1284 = DIRECTION ( 'NONE',  ( 1.000000000000000000, 0.0000000000000000000, 0.0000000000000000000 ) ) ;
#1285 = CLOSED_SHELL ( 'NONE', ( #1006, #1251, #1211, #104, #406, #516, #1045, #320, #1031, #636, #39, #808, #1094, #143, #678, #1239, #989, #199, #683, #1136, #339, #832, #723, #816, #1204, #1192, #529, #887, #803, #309, #298, #429, #1231 ) ) ;
#1286 = ORIENTED_EDGE ( 'NONE', *, *, #126, .T. ) ;
#1287 = FACE_OUTER_BOUND ( 'NONE', #810, .T. ) ;
#1288 = EDGE_CURVE ( 'NONE', #1295, #364, #767, .T. ) ;
#1289 = PRESENTATION_STYLE_ASSIGNMENT (( #674 ) ) ;
#1290 = FACE_OUTER_BOUND ( 'NONE', #959, .T. ) ;
#1291 = AXIS2_PLACEMENT_3D ( 'NONE', #734, #151, #647 ) ;
#1292 = PLANE ( 'NONE',  #938 ) ;
#1293 = ORIENTED_EDGE ( 'NONE', *, *, #153, .T. ) ;
#1294 = ORIENTED_EDGE ( 'NONE', *, *, #56, .T. ) ;
#1295 = VERTEX_POINT ( 'NONE', #439 ) ;
#1296 = CARTESIAN_POINT ( 'NONE',  ( 2.409999999999998800, 0.0000000000000000000, 1.800000000000000700 ) ) ;
#1297 = MECHANICAL_DESIGN_GEOMETRIC_PRESENTATION_REPRESENTATION (  '', ( #1146 ), #763 ) ;
ENDSEC;
END-ISO-10303-21;
