ISO-10303-21;
HEADER;
/* Generated by software containing ST-Developer
 * from STEP Tools, Inc. (www.steptools.com) 
 */

FILE_DESCRIPTION(
/* description */ ('CONN HEADER R/A 3POS 2MM'),
/* implementation_level */ '2;1');

FILE_NAME(
/* name */ '2SH-C-03-TR.stp',
/* time_stamp */ '2026-07-22T20:23:03-05:00',
/* author */ ('tapen'),
/* organization */ ('The University of Winnipeg'),
/* preprocessor_version */ 'ST-DEVELOPER v20',
/* originating_system */ 'Autodesk Inventor 2025',
/* authorisation */ '');

FILE_SCHEMA (('AUTOMOTIVE_DESIGN { 1 0 10303 214 3 1 1 }'));
ENDSEC;

DATA;
#10=MECHANICAL_DESIGN_GEOMETRIC_PRESENTATION_REPRESENTATION('',(#55,#56,
#57,#58,#59,#60,#61,#62,#63,#64,#65,#66,#67,#68,#69,#70,#71,#72,#73,#74,
#75,#76,#77,#78,#79,#80,#81,#82,#83,#84,#85,#86,#87),#1627);
#11=SHAPE_REPRESENTATION_RELATIONSHIP('SRR','None',#1638,#12);
#12=ADVANCED_BREP_SHAPE_REPRESENTATION('',(#13),#1626);
#13=MANIFOLD_SOLID_BREP('Solid1',#942);
#14=FACE_BOUND('',#174,.T.);
#15=FACE_BOUND('',#175,.T.);
#16=FACE_BOUND('',#176,.T.);
#17=FACE_BOUND('',#178,.T.);
#18=FACE_BOUND('',#179,.T.);
#19=FACE_BOUND('',#183,.T.);
#20=FACE_BOUND('',#184,.T.);
#21=FACE_BOUND('',#185,.T.);
#22=B_SPLINE_CURVE_WITH_KNOTS('',3,(#1374,#1375,#1376,#1377,#1378,#1379,
#1380,#1381,#1382,#1383,#1384,#1385,#1386,#1387,#1388,#1389,#1390,#1391),
 .UNSPECIFIED.,.F.,.F.,(4,2,2,2,2,2,2,2,4),(0.,0.0145652397443329,0.0291422437494261,
0.0437431291039435,0.0583945426670139,0.0731130068609237,0.0879754997762072,
0.10286655302663,0.117206322249253),.UNSPECIFIED.);
#23=B_SPLINE_CURVE_WITH_KNOTS('',3,(#1392,#1393,#1394,#1395,#1396,#1397,
#1398,#1399,#1400,#1401,#1402,#1403,#1404,#1405,#1406,#1407,#1408,#1409),
 .UNSPECIFIED.,.F.,.F.,(4,2,2,2,2,2,2,2,4),(0.117206322249253,0.131546091471876,
0.146437144722298,0.161299637637582,0.176018101831492,0.190669515394562,
0.205270400749079,0.219847404754173,0.234412644498505),.UNSPECIFIED.);
#24=B_SPLINE_CURVE_WITH_KNOTS('',3,(#1430,#1431,#1432,#1433,#1434,#1435,
#1436,#1437,#1438,#1439,#1440,#1441,#1442,#1443,#1444,#1445,#1446,#1447),
 .UNSPECIFIED.,.F.,.F.,(4,2,2,2,2,2,2,2,4),(0.,0.0145652430069446,0.0291422476997722,
0.0437431269943183,0.0583945141648399,0.0731128868654434,0.0879751034229371,
0.102865663495782,0.117205791200744),.UNSPECIFIED.);
#25=B_SPLINE_CURVE_WITH_KNOTS('',3,(#1448,#1449,#1450,#1451,#1452,#1453,
#1454,#1455,#1456,#1457,#1458,#1459,#1460,#1461,#1462,#1463,#1464,#1465),
 .UNSPECIFIED.,.F.,.F.,(4,2,2,2,2,2,2,2,4),(0.117205791200744,0.131545918905705,
0.146436478978551,0.161298695536045,0.176017068236648,0.19066845540717,
0.205269334701716,0.219846339394543,0.234411582401488),.UNSPECIFIED.);
#26=B_SPLINE_CURVE_WITH_KNOTS('',3,(#1486,#1487,#1488,#1489,#1490,#1491,
#1492,#1493,#1494,#1495,#1496,#1497,#1498,#1499,#1500,#1501,#1502,#1503),
 .UNSPECIFIED.,.F.,.F.,(4,2,2,2,2,2,2,2,4),(0.,0.0145652397443329,0.0291422437494261,
0.0437431291039435,0.0583945426670139,0.0731130068609237,0.0879754997762072,
0.10286655302663,0.117206322249253),.UNSPECIFIED.);
#27=B_SPLINE_CURVE_WITH_KNOTS('',3,(#1504,#1505,#1506,#1507,#1508,#1509,
#1510,#1511,#1512,#1513,#1514,#1515,#1516,#1517,#1518,#1519,#1520,#1521),
 .UNSPECIFIED.,.F.,.F.,(4,2,2,2,2,2,2,2,4),(0.117206322249253,0.131546091471876,
0.146437144722298,0.161299637637582,0.176018101831492,0.190669515394562,
0.205270400749079,0.219847404754173,0.234412644498505),.UNSPECIFIED.);
#28=TOROIDAL_SURFACE('',#978,0.0199960519413337,0.0155);
#29=TOROIDAL_SURFACE('',#989,0.02,0.0155);
#30=TOROIDAL_SURFACE('',#1000,0.0199960519413337,0.0155);
#31=CIRCLE('',#976,0.0155);
#32=CIRCLE('',#977,0.0155);
#33=CIRCLE('',#979,0.00449605194133372);
#34=CIRCLE('',#980,0.0155);
#35=CIRCLE('',#981,0.0155);
#36=CIRCLE('',#983,0.0155);
#37=CIRCLE('',#987,0.0155);
#38=CIRCLE('',#988,0.0155);
#39=CIRCLE('',#990,0.00450000000000002);
#40=CIRCLE('',#991,0.0155);
#41=CIRCLE('',#992,0.0155);
#42=CIRCLE('',#994,0.0155);
#43=CIRCLE('',#998,0.0155);
#44=CIRCLE('',#999,0.0155);
#45=CIRCLE('',#1001,0.00449605194133372);
#46=CIRCLE('',#1002,0.0155);
#47=CIRCLE('',#1003,0.0155);
#48=CIRCLE('',#1005,0.0155);
#49=CYLINDRICAL_SURFACE('',#975,0.0155);
#50=CYLINDRICAL_SURFACE('',#982,0.0155);
#51=CYLINDRICAL_SURFACE('',#986,0.0155);
#52=CYLINDRICAL_SURFACE('',#993,0.0155);
#53=CYLINDRICAL_SURFACE('',#997,0.0155);
#54=CYLINDRICAL_SURFACE('',#1004,0.0155);
#55=STYLED_ITEM('',(#1648),#898);
#56=STYLED_ITEM('',(#1648),#899);
#57=STYLED_ITEM('',(#1648),#903);
#58=STYLED_ITEM('',(#1648),#904);
#59=STYLED_ITEM('',(#1648),#905);
#60=STYLED_ITEM('',(#1649),#906);
#61=STYLED_ITEM('',(#1649),#907);
#62=STYLED_ITEM('',(#1649),#908);
#63=STYLED_ITEM('',(#1649),#910);
#64=STYLED_ITEM('',(#1649),#911);
#65=STYLED_ITEM('',(#1649),#912);
#66=STYLED_ITEM('',(#1649),#913);
#67=STYLED_ITEM('',(#1649),#914);
#68=STYLED_ITEM('',(#1649),#915);
#69=STYLED_ITEM('',(#1649),#916);
#70=STYLED_ITEM('',(#1649),#917);
#71=STYLED_ITEM('',(#1649),#918);
#72=STYLED_ITEM('',(#1649),#919);
#73=STYLED_ITEM('',(#1649),#920);
#74=STYLED_ITEM('',(#1648),#929);
#75=STYLED_ITEM('',(#1648),#930);
#76=STYLED_ITEM('',(#1648),#931);
#77=STYLED_ITEM('',(#1648),#932);
#78=STYLED_ITEM('',(#1648),#933);
#79=STYLED_ITEM('',(#1648),#934);
#80=STYLED_ITEM('',(#1648),#935);
#81=STYLED_ITEM('',(#1648),#936);
#82=STYLED_ITEM('',(#1648),#937);
#83=STYLED_ITEM('',(#1648),#938);
#84=STYLED_ITEM('',(#1648),#939);
#85=STYLED_ITEM('',(#1648),#940);
#86=STYLED_ITEM('',(#1648),#941);
#87=STYLED_ITEM('',(#1647),#13);
#88=FACE_OUTER_BOUND('',#135,.T.);
#89=FACE_OUTER_BOUND('',#136,.T.);
#90=FACE_OUTER_BOUND('',#137,.T.);
#91=FACE_OUTER_BOUND('',#138,.T.);
#92=FACE_OUTER_BOUND('',#139,.T.);
#93=FACE_OUTER_BOUND('',#140,.T.);
#94=FACE_OUTER_BOUND('',#141,.T.);
#95=FACE_OUTER_BOUND('',#142,.T.);
#96=FACE_OUTER_BOUND('',#143,.T.);
#97=FACE_OUTER_BOUND('',#144,.T.);
#98=FACE_OUTER_BOUND('',#145,.T.);
#99=FACE_OUTER_BOUND('',#146,.T.);
#100=FACE_OUTER_BOUND('',#147,.T.);
#101=FACE_OUTER_BOUND('',#148,.T.);
#102=FACE_OUTER_BOUND('',#149,.T.);
#103=FACE_OUTER_BOUND('',#150,.T.);
#104=FACE_OUTER_BOUND('',#151,.T.);
#105=FACE_OUTER_BOUND('',#152,.T.);
#106=FACE_OUTER_BOUND('',#153,.T.);
#107=FACE_OUTER_BOUND('',#154,.T.);
#108=FACE_OUTER_BOUND('',#155,.T.);
#109=FACE_OUTER_BOUND('',#156,.T.);
#110=FACE_OUTER_BOUND('',#157,.T.);
#111=FACE_OUTER_BOUND('',#158,.T.);
#112=FACE_OUTER_BOUND('',#159,.T.);
#113=FACE_OUTER_BOUND('',#160,.T.);
#114=FACE_OUTER_BOUND('',#161,.T.);
#115=FACE_OUTER_BOUND('',#162,.T.);
#116=FACE_OUTER_BOUND('',#163,.T.);
#117=FACE_OUTER_BOUND('',#164,.T.);
#118=FACE_OUTER_BOUND('',#165,.T.);
#119=FACE_OUTER_BOUND('',#166,.T.);
#120=FACE_OUTER_BOUND('',#167,.T.);
#121=FACE_OUTER_BOUND('',#168,.T.);
#122=FACE_OUTER_BOUND('',#169,.T.);
#123=FACE_OUTER_BOUND('',#170,.T.);
#124=FACE_OUTER_BOUND('',#171,.T.);
#125=FACE_OUTER_BOUND('',#172,.T.);
#126=FACE_OUTER_BOUND('',#173,.T.);
#127=FACE_OUTER_BOUND('',#177,.T.);
#128=FACE_OUTER_BOUND('',#180,.T.);
#129=FACE_OUTER_BOUND('',#181,.T.);
#130=FACE_OUTER_BOUND('',#182,.T.);
#131=FACE_OUTER_BOUND('',#186,.T.);
#132=FACE_OUTER_BOUND('',#187,.T.);
#133=FACE_OUTER_BOUND('',#188,.T.);
#134=FACE_OUTER_BOUND('',#189,.T.);
#135=EDGE_LOOP('',(#605,#606,#607,#608));
#136=EDGE_LOOP('',(#609,#610,#611,#612));
#137=EDGE_LOOP('',(#613,#614,#615,#616));
#138=EDGE_LOOP('',(#617,#618,#619,#620,#621,#622,#623,#624,#625,#626,#627,
#628));
#139=EDGE_LOOP('',(#629,#630,#631,#632,#633,#634));
#140=EDGE_LOOP('',(#635,#636,#637,#638));
#141=EDGE_LOOP('',(#639,#640,#641,#642));
#142=EDGE_LOOP('',(#643,#644,#645,#646));
#143=EDGE_LOOP('',(#647,#648,#649,#650,#651,#652,#653,#654));
#144=EDGE_LOOP('',(#655,#656,#657,#658,#659,#660));
#145=EDGE_LOOP('',(#661,#662,#663,#664,#665,#666,#667,#668,#669,#670,#671,
#672));
#146=EDGE_LOOP('',(#673,#674,#675,#676));
#147=EDGE_LOOP('',(#677,#678,#679,#680,#681,#682));
#148=EDGE_LOOP('',(#683,#684,#685,#686,#687));
#149=EDGE_LOOP('',(#688));
#150=EDGE_LOOP('',(#689));
#151=EDGE_LOOP('',(#690,#691,#692,#693));
#152=EDGE_LOOP('',(#694,#695,#696,#697,#698,#699));
#153=EDGE_LOOP('',(#700,#701,#702,#703,#704));
#154=EDGE_LOOP('',(#705));
#155=EDGE_LOOP('',(#706));
#156=EDGE_LOOP('',(#707,#708,#709,#710));
#157=EDGE_LOOP('',(#711,#712,#713,#714,#715,#716));
#158=EDGE_LOOP('',(#717,#718,#719,#720,#721));
#159=EDGE_LOOP('',(#722));
#160=EDGE_LOOP('',(#723));
#161=EDGE_LOOP('',(#724,#725,#726,#727));
#162=EDGE_LOOP('',(#728,#729,#730,#731));
#163=EDGE_LOOP('',(#732,#733,#734,#735));
#164=EDGE_LOOP('',(#736,#737,#738,#739));
#165=EDGE_LOOP('',(#740,#741,#742,#743));
#166=EDGE_LOOP('',(#744,#745,#746,#747));
#167=EDGE_LOOP('',(#748,#749,#750,#751));
#168=EDGE_LOOP('',(#752,#753,#754,#755));
#169=EDGE_LOOP('',(#756,#757,#758,#759,#760,#761,#762,#763));
#170=EDGE_LOOP('',(#764,#765,#766,#767,#768,#769,#770,#771));
#171=EDGE_LOOP('',(#772,#773,#774,#775));
#172=EDGE_LOOP('',(#776,#777,#778,#779));
#173=EDGE_LOOP('',(#780,#781,#782,#783));
#174=EDGE_LOOP('',(#784,#785));
#175=EDGE_LOOP('',(#786,#787));
#176=EDGE_LOOP('',(#788,#789));
#177=EDGE_LOOP('',(#790,#791,#792,#793,#794,#795,#796,#797,#798,#799,#800,
#801));
#178=EDGE_LOOP('',(#802,#803,#804,#805));
#179=EDGE_LOOP('',(#806,#807,#808,#809));
#180=EDGE_LOOP('',(#810,#811,#812,#813));
#181=EDGE_LOOP('',(#814,#815,#816,#817));
#182=EDGE_LOOP('',(#818,#819,#820,#821,#822,#823,#824,#825));
#183=EDGE_LOOP('',(#826));
#184=EDGE_LOOP('',(#827));
#185=EDGE_LOOP('',(#828));
#186=EDGE_LOOP('',(#829,#830,#831,#832,#833,#834,#835,#836));
#187=EDGE_LOOP('',(#837,#838,#839,#840,#841,#842,#843,#844));
#188=EDGE_LOOP('',(#845,#846,#847,#848));
#189=EDGE_LOOP('',(#849,#850,#851,#852,#853,#854,#855,#856));
#190=LINE('',#1267,#292);
#191=LINE('',#1269,#293);
#192=LINE('',#1271,#294);
#193=LINE('',#1272,#295);
#194=LINE('',#1275,#296);
#195=LINE('',#1277,#297);
#196=LINE('',#1278,#298);
#197=LINE('',#1281,#299);
#198=LINE('',#1283,#300);
#199=LINE('',#1284,#301);
#200=LINE('',#1287,#302);
#201=LINE('',#1289,#303);
#202=LINE('',#1291,#304);
#203=LINE('',#1293,#305);
#204=LINE('',#1295,#306);
#205=LINE('',#1297,#307);
#206=LINE('',#1299,#308);
#207=LINE('',#1301,#309);
#208=LINE('',#1302,#310);
#209=LINE('',#1305,#311);
#210=LINE('',#1307,#312);
#211=LINE('',#1309,#313);
#212=LINE('',#1310,#314);
#213=LINE('',#1314,#315);
#214=LINE('',#1316,#316);
#215=LINE('',#1318,#317);
#216=LINE('',#1319,#318);
#217=LINE('',#1323,#319);
#218=LINE('',#1325,#320);
#219=LINE('',#1327,#321);
#220=LINE('',#1328,#322);
#221=LINE('',#1330,#323);
#222=LINE('',#1331,#324);
#223=LINE('',#1334,#325);
#224=LINE('',#1335,#326);
#225=LINE('',#1337,#327);
#226=LINE('',#1339,#328);
#227=LINE('',#1340,#329);
#228=LINE('',#1343,#330);
#229=LINE('',#1345,#331);
#230=LINE('',#1347,#332);
#231=LINE('',#1349,#333);
#232=LINE('',#1350,#334);
#233=LINE('',#1353,#335);
#234=LINE('',#1355,#336);
#235=LINE('',#1357,#337);
#236=LINE('',#1359,#338);
#237=LINE('',#1361,#339);
#238=LINE('',#1363,#340);
#239=LINE('',#1364,#341);
#240=LINE('',#1369,#342);
#241=LINE('',#1417,#343);
#242=LINE('',#1425,#344);
#243=LINE('',#1473,#345);
#244=LINE('',#1481,#346);
#245=LINE('',#1529,#347);
#246=LINE('',#1535,#348);
#247=LINE('',#1537,#349);
#248=LINE('',#1538,#350);
#249=LINE('',#1541,#351);
#250=LINE('',#1543,#352);
#251=LINE('',#1544,#353);
#252=LINE('',#1546,#354);
#253=LINE('',#1547,#355);
#254=LINE('',#1550,#356);
#255=LINE('',#1552,#357);
#256=LINE('',#1553,#358);
#257=LINE('',#1556,#359);
#258=LINE('',#1558,#360);
#259=LINE('',#1559,#361);
#260=LINE('',#1561,#362);
#261=LINE('',#1562,#363);
#262=LINE('',#1565,#364);
#263=LINE('',#1567,#365);
#264=LINE('',#1568,#366);
#265=LINE('',#1571,#367);
#266=LINE('',#1573,#368);
#267=LINE('',#1574,#369);
#268=LINE('',#1576,#370);
#269=LINE('',#1578,#371);
#270=LINE('',#1582,#372);
#271=LINE('',#1584,#373);
#272=LINE('',#1586,#374);
#273=LINE('',#1587,#375);
#274=LINE('',#1591,#376);
#275=LINE('',#1593,#377);
#276=LINE('',#1595,#378);
#277=LINE('',#1596,#379);
#278=LINE('',#1598,#380);
#279=LINE('',#1599,#381);
#280=LINE('',#1602,#382);
#281=LINE('',#1603,#383);
#282=LINE('',#1605,#384);
#283=LINE('',#1606,#385);
#284=LINE('',#1607,#386);
#285=LINE('',#1610,#387);
#286=LINE('',#1611,#388);
#287=LINE('',#1613,#389);
#288=LINE('',#1617,#390);
#289=LINE('',#1618,#391);
#290=LINE('',#1620,#392);
#291=LINE('',#1622,#393);
#292=VECTOR('',#1033,0.393700787401575);
#293=VECTOR('',#1034,0.393700787401575);
#294=VECTOR('',#1035,0.393700787401575);
#295=VECTOR('',#1036,0.393700787401575);
#296=VECTOR('',#1039,0.393700787401575);
#297=VECTOR('',#1040,0.393700787401575);
#298=VECTOR('',#1041,0.393700787401575);
#299=VECTOR('',#1044,0.393700787401575);
#300=VECTOR('',#1045,0.393700787401575);
#301=VECTOR('',#1046,0.393700787401575);
#302=VECTOR('',#1049,0.393700787401575);
#303=VECTOR('',#1050,0.393700787401575);
#304=VECTOR('',#1051,0.393700787401575);
#305=VECTOR('',#1052,0.393700787401575);
#306=VECTOR('',#1053,0.393700787401575);
#307=VECTOR('',#1054,0.393700787401575);
#308=VECTOR('',#1055,0.393700787401575);
#309=VECTOR('',#1056,0.393700787401575);
#310=VECTOR('',#1057,0.393700787401575);
#311=VECTOR('',#1060,0.393700787401575);
#312=VECTOR('',#1061,0.393700787401575);
#313=VECTOR('',#1062,0.393700787401575);
#314=VECTOR('',#1063,0.393700787401575);
#315=VECTOR('',#1066,0.393700787401575);
#316=VECTOR('',#1067,0.393700787401575);
#317=VECTOR('',#1068,0.393700787401575);
#318=VECTOR('',#1069,0.393700787401575);
#319=VECTOR('',#1072,0.393700787401575);
#320=VECTOR('',#1073,0.393700787401575);
#321=VECTOR('',#1074,0.393700787401575);
#322=VECTOR('',#1075,0.393700787401575);
#323=VECTOR('',#1078,0.393700787401575);
#324=VECTOR('',#1079,0.393700787401575);
#325=VECTOR('',#1082,0.393700787401575);
#326=VECTOR('',#1083,0.393700787401575);
#327=VECTOR('',#1084,0.393700787401575);
#328=VECTOR('',#1085,0.393700787401575);
#329=VECTOR('',#1086,0.393700787401575);
#330=VECTOR('',#1089,0.393700787401575);
#331=VECTOR('',#1090,0.393700787401575);
#332=VECTOR('',#1091,0.393700787401575);
#333=VECTOR('',#1092,0.393700787401575);
#334=VECTOR('',#1093,0.393700787401575);
#335=VECTOR('',#1096,0.393700787401575);
#336=VECTOR('',#1097,0.393700787401575);
#337=VECTOR('',#1098,0.393700787401575);
#338=VECTOR('',#1099,0.393700787401575);
#339=VECTOR('',#1100,0.393700787401575);
#340=VECTOR('',#1101,0.393700787401575);
#341=VECTOR('',#1102,0.393700787401575);
#342=VECTOR('',#1107,0.0155);
#343=VECTOR('',#1120,0.0155);
#344=VECTOR('',#1131,0.0155);
#345=VECTOR('',#1144,0.0155);
#346=VECTOR('',#1155,0.0155);
#347=VECTOR('',#1168,0.0155);
#348=VECTOR('',#1177,0.393700787401575);
#349=VECTOR('',#1178,0.393700787401575);
#350=VECTOR('',#1179,0.393700787401575);
#351=VECTOR('',#1182,0.393700787401575);
#352=VECTOR('',#1183,0.393700787401575);
#353=VECTOR('',#1184,0.393700787401575);
#354=VECTOR('',#1187,0.393700787401575);
#355=VECTOR('',#1188,0.393700787401575);
#356=VECTOR('',#1191,0.393700787401575);
#357=VECTOR('',#1192,0.393700787401575);
#358=VECTOR('',#1193,0.393700787401575);
#359=VECTOR('',#1196,0.393700787401575);
#360=VECTOR('',#1197,0.393700787401575);
#361=VECTOR('',#1198,0.393700787401575);
#362=VECTOR('',#1201,0.393700787401575);
#363=VECTOR('',#1202,0.393700787401575);
#364=VECTOR('',#1205,0.393700787401575);
#365=VECTOR('',#1206,0.393700787401575);
#366=VECTOR('',#1207,0.393700787401575);
#367=VECTOR('',#1210,0.393700787401575);
#368=VECTOR('',#1211,0.393700787401575);
#369=VECTOR('',#1212,0.393700787401575);
#370=VECTOR('',#1215,0.393700787401575);
#371=VECTOR('',#1218,0.393700787401575);
#372=VECTOR('',#1221,0.393700787401575);
#373=VECTOR('',#1222,0.393700787401575);
#374=VECTOR('',#1223,0.393700787401575);
#375=VECTOR('',#1224,0.393700787401575);
#376=VECTOR('',#1227,0.393700787401575);
#377=VECTOR('',#1228,0.393700787401575);
#378=VECTOR('',#1229,0.393700787401575);
#379=VECTOR('',#1230,0.393700787401575);
#380=VECTOR('',#1233,0.393700787401575);
#381=VECTOR('',#1234,0.393700787401575);
#382=VECTOR('',#1237,0.393700787401575);
#383=VECTOR('',#1238,0.393700787401575);
#384=VECTOR('',#1239,0.393700787401575);
#385=VECTOR('',#1240,0.393700787401575);
#386=VECTOR('',#1241,0.393700787401575);
#387=VECTOR('',#1244,0.393700787401575);
#388=VECTOR('',#1245,0.393700787401575);
#389=VECTOR('',#1248,0.393700787401575);
#390=VECTOR('',#1253,0.393700787401575);
#391=VECTOR('',#1254,0.393700787401575);
#392=VECTOR('',#1257,0.393700787401575);
#393=VECTOR('',#1260,0.393700787401575);
#394=VERTEX_POINT('',#1265);
#395=VERTEX_POINT('',#1266);
#396=VERTEX_POINT('',#1268);
#397=VERTEX_POINT('',#1270);
#398=VERTEX_POINT('',#1274);
#399=VERTEX_POINT('',#1276);
#400=VERTEX_POINT('',#1280);
#401=VERTEX_POINT('',#1282);
#402=VERTEX_POINT('',#1286);
#403=VERTEX_POINT('',#1288);
#404=VERTEX_POINT('',#1290);
#405=VERTEX_POINT('',#1292);
#406=VERTEX_POINT('',#1294);
#407=VERTEX_POINT('',#1296);
#408=VERTEX_POINT('',#1298);
#409=VERTEX_POINT('',#1300);
#410=VERTEX_POINT('',#1304);
#411=VERTEX_POINT('',#1306);
#412=VERTEX_POINT('',#1308);
#413=VERTEX_POINT('',#1312);
#414=VERTEX_POINT('',#1313);
#415=VERTEX_POINT('',#1315);
#416=VERTEX_POINT('',#1317);
#417=VERTEX_POINT('',#1321);
#418=VERTEX_POINT('',#1322);
#419=VERTEX_POINT('',#1324);
#420=VERTEX_POINT('',#1326);
#421=VERTEX_POINT('',#1333);
#422=VERTEX_POINT('',#1336);
#423=VERTEX_POINT('',#1338);
#424=VERTEX_POINT('',#1342);
#425=VERTEX_POINT('',#1344);
#426=VERTEX_POINT('',#1346);
#427=VERTEX_POINT('',#1348);
#428=VERTEX_POINT('',#1352);
#429=VERTEX_POINT('',#1354);
#430=VERTEX_POINT('',#1356);
#431=VERTEX_POINT('',#1358);
#432=VERTEX_POINT('',#1360);
#433=VERTEX_POINT('',#1362);
#434=VERTEX_POINT('',#1366);
#435=VERTEX_POINT('',#1368);
#436=VERTEX_POINT('',#1372);
#437=VERTEX_POINT('',#1373);
#438=VERTEX_POINT('',#1410);
#439=VERTEX_POINT('',#1412);
#440=VERTEX_POINT('',#1416);
#441=VERTEX_POINT('',#1422);
#442=VERTEX_POINT('',#1424);
#443=VERTEX_POINT('',#1428);
#444=VERTEX_POINT('',#1429);
#445=VERTEX_POINT('',#1466);
#446=VERTEX_POINT('',#1468);
#447=VERTEX_POINT('',#1472);
#448=VERTEX_POINT('',#1478);
#449=VERTEX_POINT('',#1480);
#450=VERTEX_POINT('',#1484);
#451=VERTEX_POINT('',#1485);
#452=VERTEX_POINT('',#1522);
#453=VERTEX_POINT('',#1524);
#454=VERTEX_POINT('',#1528);
#455=VERTEX_POINT('',#1534);
#456=VERTEX_POINT('',#1536);
#457=VERTEX_POINT('',#1540);
#458=VERTEX_POINT('',#1542);
#459=VERTEX_POINT('',#1549);
#460=VERTEX_POINT('',#1551);
#461=VERTEX_POINT('',#1555);
#462=VERTEX_POINT('',#1557);
#463=VERTEX_POINT('',#1564);
#464=VERTEX_POINT('',#1566);
#465=VERTEX_POINT('',#1570);
#466=VERTEX_POINT('',#1572);
#467=VERTEX_POINT('',#1580);
#468=VERTEX_POINT('',#1581);
#469=VERTEX_POINT('',#1583);
#470=VERTEX_POINT('',#1585);
#471=VERTEX_POINT('',#1589);
#472=VERTEX_POINT('',#1590);
#473=VERTEX_POINT('',#1592);
#474=VERTEX_POINT('',#1594);
#475=VERTEX_POINT('',#1601);
#476=VERTEX_POINT('',#1604);
#477=VERTEX_POINT('',#1609);
#478=VERTEX_POINT('',#1616);
#479=EDGE_CURVE('',#394,#395,#190,.T.);
#480=EDGE_CURVE('',#396,#394,#191,.T.);
#481=EDGE_CURVE('',#397,#396,#192,.T.);
#482=EDGE_CURVE('',#397,#395,#193,.T.);
#483=EDGE_CURVE('',#395,#398,#194,.T.);
#484=EDGE_CURVE('',#399,#397,#195,.T.);
#485=EDGE_CURVE('',#399,#398,#196,.T.);
#486=EDGE_CURVE('',#398,#400,#197,.T.);
#487=EDGE_CURVE('',#401,#399,#198,.T.);
#488=EDGE_CURVE('',#400,#401,#199,.T.);
#489=EDGE_CURVE('',#402,#400,#200,.T.);
#490=EDGE_CURVE('',#402,#403,#201,.T.);
#491=EDGE_CURVE('',#404,#403,#202,.T.);
#492=EDGE_CURVE('',#405,#404,#203,.T.);
#493=EDGE_CURVE('',#405,#406,#204,.T.);
#494=EDGE_CURVE('',#406,#407,#205,.T.);
#495=EDGE_CURVE('',#407,#408,#206,.T.);
#496=EDGE_CURVE('',#409,#408,#207,.T.);
#497=EDGE_CURVE('',#394,#409,#208,.T.);
#498=EDGE_CURVE('',#401,#410,#209,.T.);
#499=EDGE_CURVE('',#411,#410,#210,.T.);
#500=EDGE_CURVE('',#411,#412,#211,.T.);
#501=EDGE_CURVE('',#412,#402,#212,.T.);
#502=EDGE_CURVE('',#413,#414,#213,.T.);
#503=EDGE_CURVE('',#415,#413,#214,.T.);
#504=EDGE_CURVE('',#416,#415,#215,.T.);
#505=EDGE_CURVE('',#414,#416,#216,.T.);
#506=EDGE_CURVE('',#417,#418,#217,.T.);
#507=EDGE_CURVE('',#419,#417,#218,.T.);
#508=EDGE_CURVE('',#420,#419,#219,.T.);
#509=EDGE_CURVE('',#420,#418,#220,.T.);
#510=EDGE_CURVE('',#418,#413,#221,.T.);
#511=EDGE_CURVE('',#415,#420,#222,.T.);
#512=EDGE_CURVE('',#409,#421,#223,.T.);
#513=EDGE_CURVE('',#421,#414,#224,.T.);
#514=EDGE_CURVE('',#422,#416,#225,.T.);
#515=EDGE_CURVE('',#422,#423,#226,.T.);
#516=EDGE_CURVE('',#423,#396,#227,.T.);
#517=EDGE_CURVE('',#417,#424,#228,.T.);
#518=EDGE_CURVE('',#424,#425,#229,.T.);
#519=EDGE_CURVE('',#425,#426,#230,.T.);
#520=EDGE_CURVE('',#427,#426,#231,.T.);
#521=EDGE_CURVE('',#419,#427,#232,.T.);
#522=EDGE_CURVE('',#421,#428,#233,.T.);
#523=EDGE_CURVE('',#428,#429,#234,.T.);
#524=EDGE_CURVE('',#430,#429,#235,.T.);
#525=EDGE_CURVE('',#431,#430,#236,.T.);
#526=EDGE_CURVE('',#432,#431,#237,.T.);
#527=EDGE_CURVE('',#432,#433,#238,.T.);
#528=EDGE_CURVE('',#424,#433,#239,.T.);
#529=EDGE_CURVE('',#434,#434,#31,.T.);
#530=EDGE_CURVE('',#434,#435,#240,.T.);
#531=EDGE_CURVE('',#435,#435,#32,.T.);
#532=EDGE_CURVE('',#436,#437,#22,.T.);
#533=EDGE_CURVE('',#437,#436,#23,.T.);
#534=EDGE_CURVE('',#437,#438,#33,.T.);
#535=EDGE_CURVE('',#438,#439,#34,.T.);
#536=EDGE_CURVE('',#439,#438,#35,.T.);
#537=EDGE_CURVE('',#439,#440,#241,.T.);
#538=EDGE_CURVE('',#440,#440,#36,.T.);
#539=EDGE_CURVE('',#441,#441,#37,.T.);
#540=EDGE_CURVE('',#441,#442,#242,.T.);
#541=EDGE_CURVE('',#442,#442,#38,.T.);
#542=EDGE_CURVE('',#443,#444,#24,.T.);
#543=EDGE_CURVE('',#444,#443,#25,.T.);
#544=EDGE_CURVE('',#444,#445,#39,.T.);
#545=EDGE_CURVE('',#445,#446,#40,.T.);
#546=EDGE_CURVE('',#446,#445,#41,.T.);
#547=EDGE_CURVE('',#446,#447,#243,.T.);
#548=EDGE_CURVE('',#447,#447,#42,.T.);
#549=EDGE_CURVE('',#448,#448,#43,.T.);
#550=EDGE_CURVE('',#448,#449,#244,.T.);
#551=EDGE_CURVE('',#449,#449,#44,.T.);
#552=EDGE_CURVE('',#450,#451,#26,.T.);
#553=EDGE_CURVE('',#451,#450,#27,.T.);
#554=EDGE_CURVE('',#451,#452,#45,.T.);
#555=EDGE_CURVE('',#452,#453,#46,.T.);
#556=EDGE_CURVE('',#453,#452,#47,.T.);
#557=EDGE_CURVE('',#453,#454,#245,.T.);
#558=EDGE_CURVE('',#454,#454,#48,.T.);
#559=EDGE_CURVE('',#455,#403,#246,.T.);
#560=EDGE_CURVE('',#456,#455,#247,.T.);
#561=EDGE_CURVE('',#404,#456,#248,.T.);
#562=EDGE_CURVE('',#406,#457,#249,.T.);
#563=EDGE_CURVE('',#458,#405,#250,.T.);
#564=EDGE_CURVE('',#458,#457,#251,.T.);
#565=EDGE_CURVE('',#457,#455,#252,.T.);
#566=EDGE_CURVE('',#456,#458,#253,.T.);
#567=EDGE_CURVE('',#459,#430,#254,.T.);
#568=EDGE_CURVE('',#460,#459,#255,.T.);
#569=EDGE_CURVE('',#431,#460,#256,.T.);
#570=EDGE_CURVE('',#433,#461,#257,.T.);
#571=EDGE_CURVE('',#462,#432,#258,.T.);
#572=EDGE_CURVE('',#462,#461,#259,.T.);
#573=EDGE_CURVE('',#461,#459,#260,.T.);
#574=EDGE_CURVE('',#460,#462,#261,.T.);
#575=EDGE_CURVE('',#463,#425,#262,.T.);
#576=EDGE_CURVE('',#464,#463,#263,.T.);
#577=EDGE_CURVE('',#426,#464,#264,.T.);
#578=EDGE_CURVE('',#412,#465,#265,.T.);
#579=EDGE_CURVE('',#466,#411,#266,.T.);
#580=EDGE_CURVE('',#466,#465,#267,.T.);
#581=EDGE_CURVE('',#429,#463,#268,.T.);
#582=EDGE_CURVE('',#465,#407,#269,.T.);
#583=EDGE_CURVE('',#467,#468,#270,.T.);
#584=EDGE_CURVE('',#469,#467,#271,.T.);
#585=EDGE_CURVE('',#469,#470,#272,.T.);
#586=EDGE_CURVE('',#468,#470,#273,.T.);
#587=EDGE_CURVE('',#471,#472,#274,.T.);
#588=EDGE_CURVE('',#473,#471,#275,.T.);
#589=EDGE_CURVE('',#473,#474,#276,.T.);
#590=EDGE_CURVE('',#472,#474,#277,.T.);
#591=EDGE_CURVE('',#470,#473,#278,.T.);
#592=EDGE_CURVE('',#474,#469,#279,.T.);
#593=EDGE_CURVE('',#410,#475,#280,.T.);
#594=EDGE_CURVE('',#475,#472,#281,.T.);
#595=EDGE_CURVE('',#467,#476,#282,.T.);
#596=EDGE_CURVE('',#476,#427,#283,.T.);
#597=EDGE_CURVE('',#464,#466,#284,.T.);
#598=EDGE_CURVE('',#468,#477,#285,.T.);
#599=EDGE_CURVE('',#477,#476,#286,.T.);
#600=EDGE_CURVE('',#408,#428,#287,.T.);
#601=EDGE_CURVE('',#423,#478,#288,.T.);
#602=EDGE_CURVE('',#478,#475,#289,.T.);
#603=EDGE_CURVE('',#477,#422,#290,.T.);
#604=EDGE_CURVE('',#478,#471,#291,.T.);
#605=ORIENTED_EDGE('',*,*,#479,.F.);
#606=ORIENTED_EDGE('',*,*,#480,.F.);
#607=ORIENTED_EDGE('',*,*,#481,.F.);
#608=ORIENTED_EDGE('',*,*,#482,.T.);
#609=ORIENTED_EDGE('',*,*,#483,.F.);
#610=ORIENTED_EDGE('',*,*,#482,.F.);
#611=ORIENTED_EDGE('',*,*,#484,.F.);
#612=ORIENTED_EDGE('',*,*,#485,.T.);
#613=ORIENTED_EDGE('',*,*,#486,.F.);
#614=ORIENTED_EDGE('',*,*,#485,.F.);
#615=ORIENTED_EDGE('',*,*,#487,.F.);
#616=ORIENTED_EDGE('',*,*,#488,.F.);
#617=ORIENTED_EDGE('',*,*,#479,.T.);
#618=ORIENTED_EDGE('',*,*,#483,.T.);
#619=ORIENTED_EDGE('',*,*,#486,.T.);
#620=ORIENTED_EDGE('',*,*,#489,.F.);
#621=ORIENTED_EDGE('',*,*,#490,.T.);
#622=ORIENTED_EDGE('',*,*,#491,.F.);
#623=ORIENTED_EDGE('',*,*,#492,.F.);
#624=ORIENTED_EDGE('',*,*,#493,.T.);
#625=ORIENTED_EDGE('',*,*,#494,.T.);
#626=ORIENTED_EDGE('',*,*,#495,.T.);
#627=ORIENTED_EDGE('',*,*,#496,.F.);
#628=ORIENTED_EDGE('',*,*,#497,.F.);
#629=ORIENTED_EDGE('',*,*,#488,.T.);
#630=ORIENTED_EDGE('',*,*,#498,.T.);
#631=ORIENTED_EDGE('',*,*,#499,.F.);
#632=ORIENTED_EDGE('',*,*,#500,.T.);
#633=ORIENTED_EDGE('',*,*,#501,.T.);
#634=ORIENTED_EDGE('',*,*,#489,.T.);
#635=ORIENTED_EDGE('',*,*,#502,.F.);
#636=ORIENTED_EDGE('',*,*,#503,.F.);
#637=ORIENTED_EDGE('',*,*,#504,.F.);
#638=ORIENTED_EDGE('',*,*,#505,.F.);
#639=ORIENTED_EDGE('',*,*,#506,.F.);
#640=ORIENTED_EDGE('',*,*,#507,.F.);
#641=ORIENTED_EDGE('',*,*,#508,.F.);
#642=ORIENTED_EDGE('',*,*,#509,.T.);
#643=ORIENTED_EDGE('',*,*,#510,.F.);
#644=ORIENTED_EDGE('',*,*,#509,.F.);
#645=ORIENTED_EDGE('',*,*,#511,.F.);
#646=ORIENTED_EDGE('',*,*,#503,.T.);
#647=ORIENTED_EDGE('',*,*,#480,.T.);
#648=ORIENTED_EDGE('',*,*,#497,.T.);
#649=ORIENTED_EDGE('',*,*,#512,.T.);
#650=ORIENTED_EDGE('',*,*,#513,.T.);
#651=ORIENTED_EDGE('',*,*,#505,.T.);
#652=ORIENTED_EDGE('',*,*,#514,.F.);
#653=ORIENTED_EDGE('',*,*,#515,.T.);
#654=ORIENTED_EDGE('',*,*,#516,.T.);
#655=ORIENTED_EDGE('',*,*,#507,.T.);
#656=ORIENTED_EDGE('',*,*,#517,.T.);
#657=ORIENTED_EDGE('',*,*,#518,.T.);
#658=ORIENTED_EDGE('',*,*,#519,.T.);
#659=ORIENTED_EDGE('',*,*,#520,.F.);
#660=ORIENTED_EDGE('',*,*,#521,.F.);
#661=ORIENTED_EDGE('',*,*,#506,.T.);
#662=ORIENTED_EDGE('',*,*,#510,.T.);
#663=ORIENTED_EDGE('',*,*,#502,.T.);
#664=ORIENTED_EDGE('',*,*,#513,.F.);
#665=ORIENTED_EDGE('',*,*,#522,.T.);
#666=ORIENTED_EDGE('',*,*,#523,.T.);
#667=ORIENTED_EDGE('',*,*,#524,.F.);
#668=ORIENTED_EDGE('',*,*,#525,.F.);
#669=ORIENTED_EDGE('',*,*,#526,.F.);
#670=ORIENTED_EDGE('',*,*,#527,.T.);
#671=ORIENTED_EDGE('',*,*,#528,.F.);
#672=ORIENTED_EDGE('',*,*,#517,.F.);
#673=ORIENTED_EDGE('',*,*,#529,.F.);
#674=ORIENTED_EDGE('',*,*,#530,.T.);
#675=ORIENTED_EDGE('',*,*,#531,.F.);
#676=ORIENTED_EDGE('',*,*,#530,.F.);
#677=ORIENTED_EDGE('',*,*,#532,.F.);
#678=ORIENTED_EDGE('',*,*,#533,.F.);
#679=ORIENTED_EDGE('',*,*,#534,.T.);
#680=ORIENTED_EDGE('',*,*,#535,.T.);
#681=ORIENTED_EDGE('',*,*,#536,.T.);
#682=ORIENTED_EDGE('',*,*,#534,.F.);
#683=ORIENTED_EDGE('',*,*,#536,.F.);
#684=ORIENTED_EDGE('',*,*,#537,.T.);
#685=ORIENTED_EDGE('',*,*,#538,.T.);
#686=ORIENTED_EDGE('',*,*,#537,.F.);
#687=ORIENTED_EDGE('',*,*,#535,.F.);
#688=ORIENTED_EDGE('',*,*,#529,.T.);
#689=ORIENTED_EDGE('',*,*,#538,.F.);
#690=ORIENTED_EDGE('',*,*,#539,.F.);
#691=ORIENTED_EDGE('',*,*,#540,.T.);
#692=ORIENTED_EDGE('',*,*,#541,.F.);
#693=ORIENTED_EDGE('',*,*,#540,.F.);
#694=ORIENTED_EDGE('',*,*,#542,.F.);
#695=ORIENTED_EDGE('',*,*,#543,.F.);
#696=ORIENTED_EDGE('',*,*,#544,.T.);
#697=ORIENTED_EDGE('',*,*,#545,.T.);
#698=ORIENTED_EDGE('',*,*,#546,.T.);
#699=ORIENTED_EDGE('',*,*,#544,.F.);
#700=ORIENTED_EDGE('',*,*,#546,.F.);
#701=ORIENTED_EDGE('',*,*,#547,.T.);
#702=ORIENTED_EDGE('',*,*,#548,.T.);
#703=ORIENTED_EDGE('',*,*,#547,.F.);
#704=ORIENTED_EDGE('',*,*,#545,.F.);
#705=ORIENTED_EDGE('',*,*,#539,.T.);
#706=ORIENTED_EDGE('',*,*,#548,.F.);
#707=ORIENTED_EDGE('',*,*,#549,.F.);
#708=ORIENTED_EDGE('',*,*,#550,.T.);
#709=ORIENTED_EDGE('',*,*,#551,.F.);
#710=ORIENTED_EDGE('',*,*,#550,.F.);
#711=ORIENTED_EDGE('',*,*,#552,.F.);
#712=ORIENTED_EDGE('',*,*,#553,.F.);
#713=ORIENTED_EDGE('',*,*,#554,.T.);
#714=ORIENTED_EDGE('',*,*,#555,.T.);
#715=ORIENTED_EDGE('',*,*,#556,.T.);
#716=ORIENTED_EDGE('',*,*,#554,.F.);
#717=ORIENTED_EDGE('',*,*,#556,.F.);
#718=ORIENTED_EDGE('',*,*,#557,.T.);
#719=ORIENTED_EDGE('',*,*,#558,.T.);
#720=ORIENTED_EDGE('',*,*,#557,.F.);
#721=ORIENTED_EDGE('',*,*,#555,.F.);
#722=ORIENTED_EDGE('',*,*,#549,.T.);
#723=ORIENTED_EDGE('',*,*,#558,.F.);
#724=ORIENTED_EDGE('',*,*,#559,.F.);
#725=ORIENTED_EDGE('',*,*,#560,.F.);
#726=ORIENTED_EDGE('',*,*,#561,.F.);
#727=ORIENTED_EDGE('',*,*,#491,.T.);
#728=ORIENTED_EDGE('',*,*,#562,.F.);
#729=ORIENTED_EDGE('',*,*,#493,.F.);
#730=ORIENTED_EDGE('',*,*,#563,.F.);
#731=ORIENTED_EDGE('',*,*,#564,.T.);
#732=ORIENTED_EDGE('',*,*,#565,.F.);
#733=ORIENTED_EDGE('',*,*,#564,.F.);
#734=ORIENTED_EDGE('',*,*,#566,.F.);
#735=ORIENTED_EDGE('',*,*,#560,.T.);
#736=ORIENTED_EDGE('',*,*,#567,.F.);
#737=ORIENTED_EDGE('',*,*,#568,.F.);
#738=ORIENTED_EDGE('',*,*,#569,.F.);
#739=ORIENTED_EDGE('',*,*,#525,.T.);
#740=ORIENTED_EDGE('',*,*,#570,.F.);
#741=ORIENTED_EDGE('',*,*,#527,.F.);
#742=ORIENTED_EDGE('',*,*,#571,.F.);
#743=ORIENTED_EDGE('',*,*,#572,.T.);
#744=ORIENTED_EDGE('',*,*,#573,.F.);
#745=ORIENTED_EDGE('',*,*,#572,.F.);
#746=ORIENTED_EDGE('',*,*,#574,.F.);
#747=ORIENTED_EDGE('',*,*,#568,.T.);
#748=ORIENTED_EDGE('',*,*,#575,.F.);
#749=ORIENTED_EDGE('',*,*,#576,.F.);
#750=ORIENTED_EDGE('',*,*,#577,.F.);
#751=ORIENTED_EDGE('',*,*,#519,.F.);
#752=ORIENTED_EDGE('',*,*,#578,.F.);
#753=ORIENTED_EDGE('',*,*,#500,.F.);
#754=ORIENTED_EDGE('',*,*,#579,.F.);
#755=ORIENTED_EDGE('',*,*,#580,.T.);
#756=ORIENTED_EDGE('',*,*,#570,.T.);
#757=ORIENTED_EDGE('',*,*,#573,.T.);
#758=ORIENTED_EDGE('',*,*,#567,.T.);
#759=ORIENTED_EDGE('',*,*,#524,.T.);
#760=ORIENTED_EDGE('',*,*,#581,.T.);
#761=ORIENTED_EDGE('',*,*,#575,.T.);
#762=ORIENTED_EDGE('',*,*,#518,.F.);
#763=ORIENTED_EDGE('',*,*,#528,.T.);
#764=ORIENTED_EDGE('',*,*,#562,.T.);
#765=ORIENTED_EDGE('',*,*,#565,.T.);
#766=ORIENTED_EDGE('',*,*,#559,.T.);
#767=ORIENTED_EDGE('',*,*,#490,.F.);
#768=ORIENTED_EDGE('',*,*,#501,.F.);
#769=ORIENTED_EDGE('',*,*,#578,.T.);
#770=ORIENTED_EDGE('',*,*,#582,.T.);
#771=ORIENTED_EDGE('',*,*,#494,.F.);
#772=ORIENTED_EDGE('',*,*,#583,.F.);
#773=ORIENTED_EDGE('',*,*,#584,.F.);
#774=ORIENTED_EDGE('',*,*,#585,.T.);
#775=ORIENTED_EDGE('',*,*,#586,.F.);
#776=ORIENTED_EDGE('',*,*,#587,.F.);
#777=ORIENTED_EDGE('',*,*,#588,.F.);
#778=ORIENTED_EDGE('',*,*,#589,.T.);
#779=ORIENTED_EDGE('',*,*,#590,.F.);
#780=ORIENTED_EDGE('',*,*,#591,.F.);
#781=ORIENTED_EDGE('',*,*,#585,.F.);
#782=ORIENTED_EDGE('',*,*,#592,.F.);
#783=ORIENTED_EDGE('',*,*,#589,.F.);
#784=ORIENTED_EDGE('',*,*,#532,.T.);
#785=ORIENTED_EDGE('',*,*,#533,.T.);
#786=ORIENTED_EDGE('',*,*,#542,.T.);
#787=ORIENTED_EDGE('',*,*,#543,.T.);
#788=ORIENTED_EDGE('',*,*,#552,.T.);
#789=ORIENTED_EDGE('',*,*,#553,.T.);
#790=ORIENTED_EDGE('',*,*,#579,.T.);
#791=ORIENTED_EDGE('',*,*,#499,.T.);
#792=ORIENTED_EDGE('',*,*,#593,.T.);
#793=ORIENTED_EDGE('',*,*,#594,.T.);
#794=ORIENTED_EDGE('',*,*,#590,.T.);
#795=ORIENTED_EDGE('',*,*,#592,.T.);
#796=ORIENTED_EDGE('',*,*,#584,.T.);
#797=ORIENTED_EDGE('',*,*,#595,.T.);
#798=ORIENTED_EDGE('',*,*,#596,.T.);
#799=ORIENTED_EDGE('',*,*,#520,.T.);
#800=ORIENTED_EDGE('',*,*,#577,.T.);
#801=ORIENTED_EDGE('',*,*,#597,.T.);
#802=ORIENTED_EDGE('',*,*,#561,.T.);
#803=ORIENTED_EDGE('',*,*,#566,.T.);
#804=ORIENTED_EDGE('',*,*,#563,.T.);
#805=ORIENTED_EDGE('',*,*,#492,.T.);
#806=ORIENTED_EDGE('',*,*,#569,.T.);
#807=ORIENTED_EDGE('',*,*,#574,.T.);
#808=ORIENTED_EDGE('',*,*,#571,.T.);
#809=ORIENTED_EDGE('',*,*,#526,.T.);
#810=ORIENTED_EDGE('',*,*,#583,.T.);
#811=ORIENTED_EDGE('',*,*,#598,.T.);
#812=ORIENTED_EDGE('',*,*,#599,.T.);
#813=ORIENTED_EDGE('',*,*,#595,.F.);
#814=ORIENTED_EDGE('',*,*,#512,.F.);
#815=ORIENTED_EDGE('',*,*,#496,.T.);
#816=ORIENTED_EDGE('',*,*,#600,.T.);
#817=ORIENTED_EDGE('',*,*,#522,.F.);
#818=ORIENTED_EDGE('',*,*,#600,.F.);
#819=ORIENTED_EDGE('',*,*,#495,.F.);
#820=ORIENTED_EDGE('',*,*,#582,.F.);
#821=ORIENTED_EDGE('',*,*,#580,.F.);
#822=ORIENTED_EDGE('',*,*,#597,.F.);
#823=ORIENTED_EDGE('',*,*,#576,.T.);
#824=ORIENTED_EDGE('',*,*,#581,.F.);
#825=ORIENTED_EDGE('',*,*,#523,.F.);
#826=ORIENTED_EDGE('',*,*,#531,.T.);
#827=ORIENTED_EDGE('',*,*,#541,.T.);
#828=ORIENTED_EDGE('',*,*,#551,.T.);
#829=ORIENTED_EDGE('',*,*,#481,.T.);
#830=ORIENTED_EDGE('',*,*,#516,.F.);
#831=ORIENTED_EDGE('',*,*,#601,.T.);
#832=ORIENTED_EDGE('',*,*,#602,.T.);
#833=ORIENTED_EDGE('',*,*,#593,.F.);
#834=ORIENTED_EDGE('',*,*,#498,.F.);
#835=ORIENTED_EDGE('',*,*,#487,.T.);
#836=ORIENTED_EDGE('',*,*,#484,.T.);
#837=ORIENTED_EDGE('',*,*,#508,.T.);
#838=ORIENTED_EDGE('',*,*,#521,.T.);
#839=ORIENTED_EDGE('',*,*,#596,.F.);
#840=ORIENTED_EDGE('',*,*,#599,.F.);
#841=ORIENTED_EDGE('',*,*,#603,.T.);
#842=ORIENTED_EDGE('',*,*,#514,.T.);
#843=ORIENTED_EDGE('',*,*,#504,.T.);
#844=ORIENTED_EDGE('',*,*,#511,.T.);
#845=ORIENTED_EDGE('',*,*,#587,.T.);
#846=ORIENTED_EDGE('',*,*,#594,.F.);
#847=ORIENTED_EDGE('',*,*,#602,.F.);
#848=ORIENTED_EDGE('',*,*,#604,.T.);
#849=ORIENTED_EDGE('',*,*,#588,.T.);
#850=ORIENTED_EDGE('',*,*,#604,.F.);
#851=ORIENTED_EDGE('',*,*,#601,.F.);
#852=ORIENTED_EDGE('',*,*,#515,.F.);
#853=ORIENTED_EDGE('',*,*,#603,.F.);
#854=ORIENTED_EDGE('',*,*,#598,.F.);
#855=ORIENTED_EDGE('',*,*,#586,.T.);
#856=ORIENTED_EDGE('',*,*,#591,.T.);
#857=PLANE('',#964);
#858=PLANE('',#965);
#859=PLANE('',#966);
#860=PLANE('',#967);
#861=PLANE('',#968);
#862=PLANE('',#969);
#863=PLANE('',#970);
#864=PLANE('',#971);
#865=PLANE('',#972);
#866=PLANE('',#973);
#867=PLANE('',#974);
#868=PLANE('',#984);
#869=PLANE('',#985);
#870=PLANE('',#995);
#871=PLANE('',#996);
#872=PLANE('',#1006);
#873=PLANE('',#1007);
#874=PLANE('',#1008);
#875=PLANE('',#1009);
#876=PLANE('',#1010);
#877=PLANE('',#1011);
#878=PLANE('',#1012);
#879=PLANE('',#1013);
#880=PLANE('',#1014);
#881=PLANE('',#1015);
#882=PLANE('',#1016);
#883=PLANE('',#1017);
#884=PLANE('',#1018);
#885=PLANE('',#1019);
#886=PLANE('',#1020);
#887=PLANE('',#1021);
#888=PLANE('',#1022);
#889=PLANE('',#1023);
#890=PLANE('',#1024);
#891=PLANE('',#1025);
#892=PLANE('',#1026);
#893=PLANE('',#1027);
#894=PLANE('',#1028);
#895=ADVANCED_FACE('',(#88),#857,.F.);
#896=ADVANCED_FACE('',(#89),#858,.F.);
#897=ADVANCED_FACE('',(#90),#859,.F.);
#898=ADVANCED_FACE('',(#91),#860,.F.);
#899=ADVANCED_FACE('',(#92),#861,.T.);
#900=ADVANCED_FACE('',(#93),#862,.F.);
#901=ADVANCED_FACE('',(#94),#863,.F.);
#902=ADVANCED_FACE('',(#95),#864,.F.);
#903=ADVANCED_FACE('',(#96),#865,.T.);
#904=ADVANCED_FACE('',(#97),#866,.T.);
#905=ADVANCED_FACE('',(#98),#867,.F.);
#906=ADVANCED_FACE('',(#99),#49,.T.);
#907=ADVANCED_FACE('',(#100),#28,.T.);
#908=ADVANCED_FACE('',(#101),#50,.T.);
#909=ADVANCED_FACE('',(#102),#868,.T.);
#910=ADVANCED_FACE('',(#103),#869,.F.);
#911=ADVANCED_FACE('',(#104),#51,.T.);
#912=ADVANCED_FACE('',(#105),#29,.T.);
#913=ADVANCED_FACE('',(#106),#52,.T.);
#914=ADVANCED_FACE('',(#107),#870,.T.);
#915=ADVANCED_FACE('',(#108),#871,.F.);
#916=ADVANCED_FACE('',(#109),#53,.T.);
#917=ADVANCED_FACE('',(#110),#30,.T.);
#918=ADVANCED_FACE('',(#111),#54,.T.);
#919=ADVANCED_FACE('',(#112),#872,.T.);
#920=ADVANCED_FACE('',(#113),#873,.F.);
#921=ADVANCED_FACE('',(#114),#874,.F.);
#922=ADVANCED_FACE('',(#115),#875,.F.);
#923=ADVANCED_FACE('',(#116),#876,.F.);
#924=ADVANCED_FACE('',(#117),#877,.F.);
#925=ADVANCED_FACE('',(#118),#878,.F.);
#926=ADVANCED_FACE('',(#119),#879,.F.);
#927=ADVANCED_FACE('',(#120),#880,.F.);
#928=ADVANCED_FACE('',(#121),#881,.F.);
#929=ADVANCED_FACE('',(#122),#882,.F.);
#930=ADVANCED_FACE('',(#123),#883,.F.);
#931=ADVANCED_FACE('',(#124),#884,.F.);
#932=ADVANCED_FACE('',(#125),#885,.F.);
#933=ADVANCED_FACE('',(#126,#14,#15,#16),#886,.F.);
#934=ADVANCED_FACE('',(#127,#17,#18),#887,.T.);
#935=ADVANCED_FACE('',(#128),#888,.T.);
#936=ADVANCED_FACE('',(#129),#889,.F.);
#937=ADVANCED_FACE('',(#130,#19,#20,#21),#890,.F.);
#938=ADVANCED_FACE('',(#131),#891,.T.);
#939=ADVANCED_FACE('',(#132),#892,.T.);
#940=ADVANCED_FACE('',(#133),#893,.T.);
#941=ADVANCED_FACE('',(#134),#894,.F.);
#942=CLOSED_SHELL('',(#895,#896,#897,#898,#899,#900,#901,#902,#903,#904,
#905,#906,#907,#908,#909,#910,#911,#912,#913,#914,#915,#916,#917,#918,#919,
#920,#921,#922,#923,#924,#925,#926,#927,#928,#929,#930,#931,#932,#933,#934,
#935,#936,#937,#938,#939,#940,#941));
#943=DERIVED_UNIT_ELEMENT(#945,1.);
#944=DERIVED_UNIT_ELEMENT(#1632,-3.);
#945=(
CONVERSION_BASED_UNIT('gram',#947)
MASS_UNIT()
NAMED_UNIT(#1629)
);
#946=(
MASS_UNIT()
NAMED_UNIT(*)
SI_UNIT(.KILO.,.GRAM.)
);
#947=MASS_MEASURE_WITH_UNIT(MASS_MEASURE(0.001),#946);
#948=DERIVED_UNIT((#943,#944));
#949=MEASURE_REPRESENTATION_ITEM('density measure',
POSITIVE_RATIO_MEASURE(1.),#948);
#950=PROPERTY_DEFINITION_REPRESENTATION(#955,#952);
#951=PROPERTY_DEFINITION_REPRESENTATION(#956,#953);
#952=REPRESENTATION('material name',(#954),#1626);
#953=REPRESENTATION('density',(#949),#1626);
#954=DESCRIPTIVE_REPRESENTATION_ITEM('Generic','Generic');
#955=PROPERTY_DEFINITION('material property','material name',#1640);
#956=PROPERTY_DEFINITION('material property','density of part',#1640);
#957=DATE_TIME_ROLE('creation_date');
#958=APPLIED_DATE_AND_TIME_ASSIGNMENT(#959,#957,(#1640));
#959=DATE_AND_TIME(#960,#961);
#960=CALENDAR_DATE(2026,15,7);
#961=LOCAL_TIME(0,0,0.,#962);
#962=COORDINATED_UNIVERSAL_TIME_OFFSET(0,0,.BEHIND.);
#963=AXIS2_PLACEMENT_3D('',#1263,#1029,#1030);
#964=AXIS2_PLACEMENT_3D('',#1264,#1031,#1032);
#965=AXIS2_PLACEMENT_3D('',#1273,#1037,#1038);
#966=AXIS2_PLACEMENT_3D('',#1279,#1042,#1043);
#967=AXIS2_PLACEMENT_3D('',#1285,#1047,#1048);
#968=AXIS2_PLACEMENT_3D('',#1303,#1058,#1059);
#969=AXIS2_PLACEMENT_3D('',#1311,#1064,#1065);
#970=AXIS2_PLACEMENT_3D('',#1320,#1070,#1071);
#971=AXIS2_PLACEMENT_3D('',#1329,#1076,#1077);
#972=AXIS2_PLACEMENT_3D('',#1332,#1080,#1081);
#973=AXIS2_PLACEMENT_3D('',#1341,#1087,#1088);
#974=AXIS2_PLACEMENT_3D('',#1351,#1094,#1095);
#975=AXIS2_PLACEMENT_3D('',#1365,#1103,#1104);
#976=AXIS2_PLACEMENT_3D('',#1367,#1105,#1106);
#977=AXIS2_PLACEMENT_3D('',#1370,#1108,#1109);
#978=AXIS2_PLACEMENT_3D('',#1371,#1110,#1111);
#979=AXIS2_PLACEMENT_3D('',#1411,#1112,#1113);
#980=AXIS2_PLACEMENT_3D('',#1413,#1114,#1115);
#981=AXIS2_PLACEMENT_3D('',#1414,#1116,#1117);
#982=AXIS2_PLACEMENT_3D('',#1415,#1118,#1119);
#983=AXIS2_PLACEMENT_3D('',#1418,#1121,#1122);
#984=AXIS2_PLACEMENT_3D('',#1419,#1123,#1124);
#985=AXIS2_PLACEMENT_3D('',#1420,#1125,#1126);
#986=AXIS2_PLACEMENT_3D('',#1421,#1127,#1128);
#987=AXIS2_PLACEMENT_3D('',#1423,#1129,#1130);
#988=AXIS2_PLACEMENT_3D('',#1426,#1132,#1133);
#989=AXIS2_PLACEMENT_3D('',#1427,#1134,#1135);
#990=AXIS2_PLACEMENT_3D('',#1467,#1136,#1137);
#991=AXIS2_PLACEMENT_3D('',#1469,#1138,#1139);
#992=AXIS2_PLACEMENT_3D('',#1470,#1140,#1141);
#993=AXIS2_PLACEMENT_3D('',#1471,#1142,#1143);
#994=AXIS2_PLACEMENT_3D('',#1474,#1145,#1146);
#995=AXIS2_PLACEMENT_3D('',#1475,#1147,#1148);
#996=AXIS2_PLACEMENT_3D('',#1476,#1149,#1150);
#997=AXIS2_PLACEMENT_3D('',#1477,#1151,#1152);
#998=AXIS2_PLACEMENT_3D('',#1479,#1153,#1154);
#999=AXIS2_PLACEMENT_3D('',#1482,#1156,#1157);
#1000=AXIS2_PLACEMENT_3D('',#1483,#1158,#1159);
#1001=AXIS2_PLACEMENT_3D('',#1523,#1160,#1161);
#1002=AXIS2_PLACEMENT_3D('',#1525,#1162,#1163);
#1003=AXIS2_PLACEMENT_3D('',#1526,#1164,#1165);
#1004=AXIS2_PLACEMENT_3D('',#1527,#1166,#1167);
#1005=AXIS2_PLACEMENT_3D('',#1530,#1169,#1170);
#1006=AXIS2_PLACEMENT_3D('',#1531,#1171,#1172);
#1007=AXIS2_PLACEMENT_3D('',#1532,#1173,#1174);
#1008=AXIS2_PLACEMENT_3D('',#1533,#1175,#1176);
#1009=AXIS2_PLACEMENT_3D('',#1539,#1180,#1181);
#1010=AXIS2_PLACEMENT_3D('',#1545,#1185,#1186);
#1011=AXIS2_PLACEMENT_3D('',#1548,#1189,#1190);
#1012=AXIS2_PLACEMENT_3D('',#1554,#1194,#1195);
#1013=AXIS2_PLACEMENT_3D('',#1560,#1199,#1200);
#1014=AXIS2_PLACEMENT_3D('',#1563,#1203,#1204);
#1015=AXIS2_PLACEMENT_3D('',#1569,#1208,#1209);
#1016=AXIS2_PLACEMENT_3D('',#1575,#1213,#1214);
#1017=AXIS2_PLACEMENT_3D('',#1577,#1216,#1217);
#1018=AXIS2_PLACEMENT_3D('',#1579,#1219,#1220);
#1019=AXIS2_PLACEMENT_3D('',#1588,#1225,#1226);
#1020=AXIS2_PLACEMENT_3D('',#1597,#1231,#1232);
#1021=AXIS2_PLACEMENT_3D('',#1600,#1235,#1236);
#1022=AXIS2_PLACEMENT_3D('',#1608,#1242,#1243);
#1023=AXIS2_PLACEMENT_3D('',#1612,#1246,#1247);
#1024=AXIS2_PLACEMENT_3D('',#1614,#1249,#1250);
#1025=AXIS2_PLACEMENT_3D('',#1615,#1251,#1252);
#1026=AXIS2_PLACEMENT_3D('',#1619,#1255,#1256);
#1027=AXIS2_PLACEMENT_3D('',#1621,#1258,#1259);
#1028=AXIS2_PLACEMENT_3D('',#1623,#1261,#1262);
#1029=DIRECTION('axis',(0.,0.,1.));
#1030=DIRECTION('refdir',(1.,0.,0.));
#1031=DIRECTION('center_axis',(0.,0.,-1.));
#1032=DIRECTION('ref_axis',(0.,1.,0.));
#1033=DIRECTION('',(1.04070399758639E-16,-1.,0.));
#1034=DIRECTION('',(1.,1.4009476890586E-16,0.));
#1035=DIRECTION('',(0.,1.,0.));
#1036=DIRECTION('',(1.,0.,0.));
#1037=DIRECTION('center_axis',(0.,-1.,0.));
#1038=DIRECTION('ref_axis',(0.,0.,-1.));
#1039=DIRECTION('',(2.77415037724526E-16,0.,1.));
#1040=DIRECTION('',(0.,0.,-1.));
#1041=DIRECTION('',(1.,0.,0.));
#1042=DIRECTION('center_axis',(0.,0.,1.));
#1043=DIRECTION('ref_axis',(0.,-1.,0.));
#1044=DIRECTION('',(-1.04070399758639E-16,1.,0.));
#1045=DIRECTION('',(0.,-1.,0.));
#1046=DIRECTION('',(-1.,-1.4009476890586E-16,0.));
#1047=DIRECTION('center_axis',(-1.,-1.04070399758639E-16,2.77415037724526E-16));
#1048=DIRECTION('ref_axis',(-2.77415037724526E-16,-3.88643956010278E-32,
-1.));
#1049=DIRECTION('',(-2.77415037724526E-16,-3.88643956010278E-32,-1.));
#1050=DIRECTION('',(1.04070399758639E-16,-1.,0.));
#1051=DIRECTION('',(0.,0.,-1.));
#1052=DIRECTION('',(0.,1.,0.));
#1053=DIRECTION('',(0.,0.,-1.));
#1054=DIRECTION('',(1.04070399758639E-16,-1.,0.));
#1055=DIRECTION('',(-2.77415037724526E-16,-3.88643956010278E-32,-1.));
#1056=DIRECTION('',(1.04070399758639E-16,-1.,0.));
#1057=DIRECTION('',(-2.77415037724526E-16,-3.88643956010278E-32,-1.));
#1058=DIRECTION('center_axis',(-1.4009476890586E-16,1.,0.));
#1059=DIRECTION('ref_axis',(-1.,-1.4009476890586E-16,0.));
#1060=DIRECTION('',(0.,0.,1.));
#1061=DIRECTION('',(-1.,-1.4009476890586E-16,0.));
#1062=DIRECTION('',(0.,0.,-1.));
#1063=DIRECTION('',(-1.,-1.4009476890586E-16,0.));
#1064=DIRECTION('center_axis',(0.,0.,-1.));
#1065=DIRECTION('ref_axis',(-4.32767998996319E-16,-1.,0.));
#1066=DIRECTION('',(-1.04070399758639E-16,1.,0.));
#1067=DIRECTION('',(-1.,5.30870840372413E-16,0.));
#1068=DIRECTION('',(-4.32767998996319E-16,-1.,0.));
#1069=DIRECTION('',(1.,1.4009476890586E-16,0.));
#1070=DIRECTION('center_axis',(0.,0.,1.));
#1071=DIRECTION('ref_axis',(4.32767998996319E-16,1.,0.));
#1072=DIRECTION('',(1.04070399758639E-16,-1.,0.));
#1073=DIRECTION('',(-1.,-1.4009476890586E-16,0.));
#1074=DIRECTION('',(4.32767998996319E-16,1.,0.));
#1075=DIRECTION('',(-1.,5.30870840372413E-16,0.));
#1076=DIRECTION('center_axis',(-5.30870840372413E-16,-1.,0.));
#1077=DIRECTION('ref_axis',(0.,0.,1.));
#1078=DIRECTION('',(-2.77415037724526E-16,1.47271554208764E-31,-1.));
#1079=DIRECTION('',(0.,0.,1.));
#1080=DIRECTION('center_axis',(-1.4009476890586E-16,1.,0.));
#1081=DIRECTION('ref_axis',(-1.,-1.4009476890586E-16,0.));
#1082=DIRECTION('',(1.,1.4009476890586E-16,0.));
#1083=DIRECTION('',(2.77415037724526E-16,3.88643956010278E-32,1.));
#1084=DIRECTION('',(0.,0.,1.));
#1085=DIRECTION('',(-1.,-1.4009476890586E-16,0.));
#1086=DIRECTION('',(0.,0.,1.));
#1087=DIRECTION('center_axis',(-1.4009476890586E-16,1.,0.));
#1088=DIRECTION('ref_axis',(-1.,-1.4009476890586E-16,0.));
#1089=DIRECTION('',(2.77415037724526E-16,3.88643956010278E-32,1.));
#1090=DIRECTION('',(-1.,-1.4009476890586E-16,0.));
#1091=DIRECTION('',(0.,0.,1.));
#1092=DIRECTION('',(-1.,-1.4009476890586E-16,0.));
#1093=DIRECTION('',(0.,0.,1.));
#1094=DIRECTION('center_axis',(1.,1.04070399758639E-16,-2.77415037724526E-16));
#1095=DIRECTION('ref_axis',(2.77415037724526E-16,3.88643956010278E-32,1.));
#1096=DIRECTION('',(1.04070399758639E-16,-1.,0.));
#1097=DIRECTION('',(2.77415037724526E-16,3.88643956010278E-32,1.));
#1098=DIRECTION('',(1.04070399758639E-16,-1.,0.));
#1099=DIRECTION('',(0.,0.,-1.));
#1100=DIRECTION('',(-1.04070399758639E-16,-1.,0.));
#1101=DIRECTION('',(0.,0.,-1.));
#1102=DIRECTION('',(1.04070399758639E-16,-1.,0.));
#1103=DIRECTION('center_axis',(0.,1.,3.41480999208034E-16));
#1104=DIRECTION('ref_axis',(1.,0.,-3.55380640975594E-32));
#1105=DIRECTION('center_axis',(-1.04070399758639E-16,1.,0.));
#1106=DIRECTION('ref_axis',(1.,1.04070399758639E-16,0.));
#1107=DIRECTION('',(0.,-1.,-3.41480999208034E-16));
#1108=DIRECTION('center_axis',(1.04070399758639E-16,-1.,0.));
#1109=DIRECTION('ref_axis',(1.,0.,-3.55380640975594E-32));
#1110=DIRECTION('center_axis',(-1.,0.,0.));
#1111=DIRECTION('ref_axis',(0.,0.,1.));
#1112=DIRECTION('center_axis',(1.,0.,0.));
#1113=DIRECTION('ref_axis',(0.,0.,1.));
#1114=DIRECTION('center_axis',(-1.04070399758639E-16,1.71782496331538E-15,
1.));
#1115=DIRECTION('ref_axis',(1.,1.787747306476E-31,1.04070399758639E-16));
#1116=DIRECTION('center_axis',(-1.04070399758639E-16,1.71782496331538E-15,
1.));
#1117=DIRECTION('ref_axis',(1.,1.787747306476E-31,1.04070399758639E-16));
#1118=DIRECTION('center_axis',(0.,0.,1.));
#1119=DIRECTION('ref_axis',(1.,1.787747306476E-31,0.));
#1120=DIRECTION('',(0.,0.,-1.));
#1121=DIRECTION('center_axis',(-1.04070399758639E-16,1.71782496331538E-15,
1.));
#1122=DIRECTION('ref_axis',(1.,1.787747306476E-31,1.04070399758639E-16));
#1123=DIRECTION('center_axis',(-1.04070399758639E-16,1.,0.));
#1124=DIRECTION('ref_axis',(0.,0.,1.));
#1125=DIRECTION('center_axis',(-1.04070399758639E-16,1.71782496331538E-15,
1.));
#1126=DIRECTION('ref_axis',(0.,-1.,1.71782496331538E-15));
#1127=DIRECTION('center_axis',(0.,1.,3.41480999208034E-16));
#1128=DIRECTION('ref_axis',(1.,0.,-3.55380640975594E-32));
#1129=DIRECTION('center_axis',(-1.04070399758639E-16,1.,0.));
#1130=DIRECTION('ref_axis',(1.,1.04070399758639E-16,0.));
#1131=DIRECTION('',(0.,-1.,-3.41480999208034E-16));
#1132=DIRECTION('center_axis',(1.04070399758639E-16,-1.,0.));
#1133=DIRECTION('ref_axis',(1.,0.,-3.55380640975594E-32));
#1134=DIRECTION('center_axis',(-1.,0.,0.));
#1135=DIRECTION('ref_axis',(0.,0.,1.));
#1136=DIRECTION('center_axis',(1.,0.,0.));
#1137=DIRECTION('ref_axis',(0.,0.,1.));
#1138=DIRECTION('center_axis',(-1.04070399758639E-16,1.71782496331538E-15,
1.));
#1139=DIRECTION('ref_axis',(1.,1.787747306476E-31,1.04070399758639E-16));
#1140=DIRECTION('center_axis',(-1.04070399758639E-16,1.71782496331538E-15,
1.));
#1141=DIRECTION('ref_axis',(1.,1.787747306476E-31,1.04070399758639E-16));
#1142=DIRECTION('center_axis',(0.,0.,1.));
#1143=DIRECTION('ref_axis',(1.,1.787747306476E-31,0.));
#1144=DIRECTION('',(0.,0.,-1.));
#1145=DIRECTION('center_axis',(-1.04070399758639E-16,1.71782496331538E-15,
1.));
#1146=DIRECTION('ref_axis',(1.,1.787747306476E-31,1.04070399758639E-16));
#1147=DIRECTION('center_axis',(-1.04070399758639E-16,1.,0.));
#1148=DIRECTION('ref_axis',(0.,0.,1.));
#1149=DIRECTION('center_axis',(-1.04070399758639E-16,1.71782496331538E-15,
1.));
#1150=DIRECTION('ref_axis',(0.,-1.,1.71782496331538E-15));
#1151=DIRECTION('center_axis',(0.,1.,3.41480999208034E-16));
#1152=DIRECTION('ref_axis',(1.,0.,-3.55380640975594E-32));
#1153=DIRECTION('center_axis',(-1.04070399758639E-16,1.,0.));
#1154=DIRECTION('ref_axis',(1.,1.04070399758639E-16,0.));
#1155=DIRECTION('',(0.,-1.,-3.41480999208034E-16));
#1156=DIRECTION('center_axis',(1.04070399758639E-16,-1.,0.));
#1157=DIRECTION('ref_axis',(1.,0.,-3.55380640975594E-32));
#1158=DIRECTION('center_axis',(-1.,0.,0.));
#1159=DIRECTION('ref_axis',(0.,0.,1.));
#1160=DIRECTION('center_axis',(1.,0.,0.));
#1161=DIRECTION('ref_axis',(0.,0.,1.));
#1162=DIRECTION('center_axis',(-1.04070399758639E-16,1.71782496331538E-15,
1.));
#1163=DIRECTION('ref_axis',(1.,1.787747306476E-31,1.04070399758639E-16));
#1164=DIRECTION('center_axis',(-1.04070399758639E-16,1.71782496331538E-15,
1.));
#1165=DIRECTION('ref_axis',(1.,1.787747306476E-31,1.04070399758639E-16));
#1166=DIRECTION('center_axis',(0.,0.,1.));
#1167=DIRECTION('ref_axis',(1.,1.787747306476E-31,0.));
#1168=DIRECTION('',(0.,0.,-1.));
#1169=DIRECTION('center_axis',(-1.04070399758639E-16,1.71782496331538E-15,
1.));
#1170=DIRECTION('ref_axis',(1.,1.787747306476E-31,1.04070399758639E-16));
#1171=DIRECTION('center_axis',(-1.04070399758639E-16,1.,0.));
#1172=DIRECTION('ref_axis',(0.,0.,1.));
#1173=DIRECTION('center_axis',(-1.04070399758639E-16,1.71782496331538E-15,
1.));
#1174=DIRECTION('ref_axis',(0.,-1.,1.71782496331538E-15));
#1175=DIRECTION('center_axis',(0.,1.,0.));
#1176=DIRECTION('ref_axis',(1.,0.,0.));
#1177=DIRECTION('',(-1.,0.,0.));
#1178=DIRECTION('',(0.,0.,-1.));
#1179=DIRECTION('',(1.,0.,0.));
#1180=DIRECTION('center_axis',(0.,-1.,0.));
#1181=DIRECTION('ref_axis',(-1.,0.,0.));
#1182=DIRECTION('',(1.,0.,0.));
#1183=DIRECTION('',(-1.,0.,0.));
#1184=DIRECTION('',(0.,0.,-1.));
#1185=DIRECTION('center_axis',(1.,0.,0.));
#1186=DIRECTION('ref_axis',(0.,-1.,0.));
#1187=DIRECTION('',(0.,1.,0.));
#1188=DIRECTION('',(0.,-1.,0.));
#1189=DIRECTION('center_axis',(1.24396203188457E-16,-1.,0.));
#1190=DIRECTION('ref_axis',(-1.,-1.24396203188457E-16,0.));
#1191=DIRECTION('',(1.,1.24396203188457E-16,0.));
#1192=DIRECTION('',(0.,0.,-1.));
#1193=DIRECTION('',(-1.,-1.24396203188457E-16,0.));
#1194=DIRECTION('center_axis',(4.9758481275383E-16,1.,0.));
#1195=DIRECTION('ref_axis',(1.,-4.9758481275383E-16,0.));
#1196=DIRECTION('',(-1.,4.9758481275383E-16,0.));
#1197=DIRECTION('',(1.,-4.9758481275383E-16,0.));
#1198=DIRECTION('',(0.,0.,-1.));
#1199=DIRECTION('center_axis',(-1.,-2.29225744857197E-16,0.));
#1200=DIRECTION('ref_axis',(-2.29225744857197E-16,1.,0.));
#1201=DIRECTION('',(2.29225744857197E-16,-1.,0.));
#1202=DIRECTION('',(-2.29225744857197E-16,1.,0.));
#1203=DIRECTION('center_axis',(1.,0.,0.));
#1204=DIRECTION('ref_axis',(0.,-1.,0.));
#1205=DIRECTION('',(0.,1.,0.));
#1206=DIRECTION('',(0.,0.,-1.));
#1207=DIRECTION('',(0.,-1.,0.));
#1208=DIRECTION('center_axis',(-1.,0.,0.));
#1209=DIRECTION('ref_axis',(0.,1.,0.));
#1210=DIRECTION('',(0.,-1.,0.));
#1211=DIRECTION('',(0.,1.,0.));
#1212=DIRECTION('',(0.,0.,-1.));
#1213=DIRECTION('center_axis',(0.,0.,1.));
#1214=DIRECTION('ref_axis',(-1.,-1.4009476890586E-16,0.));
#1215=DIRECTION('',(-1.,-1.4009476890586E-16,0.));
#1216=DIRECTION('center_axis',(0.,0.,1.));
#1217=DIRECTION('ref_axis',(-1.,-1.4009476890586E-16,0.));
#1218=DIRECTION('',(-1.,-1.4009476890586E-16,0.));
#1219=DIRECTION('center_axis',(1.,0.,0.));
#1220=DIRECTION('ref_axis',(0.,0.,-1.));
#1221=DIRECTION('',(0.,0.,-1.));
#1222=DIRECTION('',(0.,-1.,0.));
#1223=DIRECTION('',(0.,0.,-1.));
#1224=DIRECTION('',(0.,1.,0.));
#1225=DIRECTION('center_axis',(-1.,0.,0.));
#1226=DIRECTION('ref_axis',(0.,0.,1.));
#1227=DIRECTION('',(0.,0.,1.));
#1228=DIRECTION('',(0.,-1.,0.));
#1229=DIRECTION('',(0.,0.,1.));
#1230=DIRECTION('',(0.,1.,0.));
#1231=DIRECTION('center_axis',(0.,1.,0.));
#1232=DIRECTION('ref_axis',(0.,0.,1.));
#1233=DIRECTION('',(-1.,0.,0.));
#1234=DIRECTION('',(1.,0.,0.));
#1235=DIRECTION('center_axis',(0.,0.,1.));
#1236=DIRECTION('ref_axis',(1.,0.,0.));
#1237=DIRECTION('',(0.,-1.,0.));
#1238=DIRECTION('',(1.,0.,0.));
#1239=DIRECTION('',(1.,0.,0.));
#1240=DIRECTION('',(4.32767998996319E-16,1.,0.));
#1241=DIRECTION('',(-1.,-1.70003639025391E-16,0.));
#1242=DIRECTION('center_axis',(0.,-1.,0.));
#1243=DIRECTION('ref_axis',(1.,0.,0.));
#1244=DIRECTION('',(1.,0.,0.));
#1245=DIRECTION('',(0.,0.,1.));
#1246=DIRECTION('center_axis',(0.,0.,-1.));
#1247=DIRECTION('ref_axis',(1.,1.4009476890586E-16,0.));
#1248=DIRECTION('',(1.,1.4009476890586E-16,0.));
#1249=DIRECTION('center_axis',(1.04070399758639E-16,-1.,0.));
#1250=DIRECTION('ref_axis',(0.,0.,-1.));
#1251=DIRECTION('center_axis',(-1.,0.,0.));
#1252=DIRECTION('ref_axis',(0.,-1.,0.));
#1253=DIRECTION('',(0.,-1.,0.));
#1254=DIRECTION('',(0.,0.,1.));
#1255=DIRECTION('center_axis',(1.,-4.32767998996319E-16,0.));
#1256=DIRECTION('ref_axis',(4.32767998996319E-16,1.,0.));
#1257=DIRECTION('',(4.32767998996319E-16,1.,0.));
#1258=DIRECTION('center_axis',(0.,-1.,0.));
#1259=DIRECTION('ref_axis',(1.,0.,0.));
#1260=DIRECTION('',(1.,0.,0.));
#1261=DIRECTION('center_axis',(0.,0.,1.));
#1262=DIRECTION('ref_axis',(1.,0.,0.));
#1263=CARTESIAN_POINT('',(0.,0.,0.));
#1264=CARTESIAN_POINT('Origin',(-0.156,0.0572215271390058,0.109971252377909));
#1265=CARTESIAN_POINT('',(-0.128554800794882,0.1515,0.109971252377909));
#1266=CARTESIAN_POINT('',(-0.128554800794882,0.0572215271390058,0.109971252377909));
#1267=CARTESIAN_POINT('',(-0.128554800794882,0.104360763569503,0.109971252377909));
#1268=CARTESIAN_POINT('',(-0.156,0.1515,0.109971252377909));
#1269=CARTESIAN_POINT('',(-2.84587443834433E-17,0.1515,0.109971252377909));
#1270=CARTESIAN_POINT('',(-0.156,0.0572215271390058,0.109971252377909));
#1271=CARTESIAN_POINT('',(-0.156,0.104360763569503,0.109971252377909));
#1272=CARTESIAN_POINT('',(-0.156,0.0572215271390058,0.109971252377909));
#1273=CARTESIAN_POINT('Origin',(-0.156,0.0572215271390058,0.15103992612339));
#1274=CARTESIAN_POINT('',(-0.128554800794882,0.0572215271390058,0.15103992612339));
#1275=CARTESIAN_POINT('',(-0.128554800794882,0.0572215271390058,0.164160012225172));
#1276=CARTESIAN_POINT('',(-0.156,0.0572215271390058,0.15103992612339));
#1277=CARTESIAN_POINT('',(-0.156,0.0572215271390058,0.0755199630616949));
#1278=CARTESIAN_POINT('',(-0.156,0.0572215271390058,0.15103992612339));
#1279=CARTESIAN_POINT('Origin',(-0.156,0.1515,0.15103992612339));
#1280=CARTESIAN_POINT('',(-0.128554800794882,0.1515,0.15103992612339));
#1281=CARTESIAN_POINT('',(-0.128554800794882,0.1515,0.15103992612339));
#1282=CARTESIAN_POINT('',(-0.156,0.1515,0.15103992612339));
#1283=CARTESIAN_POINT('',(-0.156,0.1515,0.15103992612339));
#1284=CARTESIAN_POINT('',(-2.18547839493141E-17,0.1515,0.15103992612339));
#1285=CARTESIAN_POINT('Origin',(-0.128554800794882,0.1515,0.177280098326955));
#1286=CARTESIAN_POINT('',(-0.128554800794882,0.1515,0.177280098326955));
#1287=CARTESIAN_POINT('',(-0.128554800794882,0.1515,0.0886400491634776));
#1288=CARTESIAN_POINT('',(-0.128554800794882,0.0735789602140501,0.177280098326955));
#1289=CARTESIAN_POINT('',(-0.128554800794882,0.1515,0.177280098326955));
#1290=CARTESIAN_POINT('',(-0.128554800794882,0.0735789602140501,0.197));
#1291=CARTESIAN_POINT('',(-0.128554800794882,0.0735789602140501,0.197));
#1292=CARTESIAN_POINT('',(-0.128554800794882,-0.0217627910492261,0.197));
#1293=CARTESIAN_POINT('',(-0.128554800794882,-0.010881395524613,0.197));
#1294=CARTESIAN_POINT('',(-0.128554800794882,-0.0217627910492261,0.177280098326955));
#1295=CARTESIAN_POINT('',(-0.128554800794882,-0.0217627910492261,0.197));
#1296=CARTESIAN_POINT('',(-0.128554800794882,-0.0585,0.177280098326955));
#1297=CARTESIAN_POINT('',(-0.128554800794882,0.1515,0.177280098326955));
#1298=CARTESIAN_POINT('',(-0.128554800794882,-0.0585,0.0197199016730449));
#1299=CARTESIAN_POINT('',(-0.128554800794882,-0.0585,0.0197199016730449));
#1300=CARTESIAN_POINT('',(-0.128554800794882,0.1515,0.0197199016730449));
#1301=CARTESIAN_POINT('',(-0.128554800794882,0.1515,0.0197199016730449));
#1302=CARTESIAN_POINT('',(-0.128554800794882,0.1515,0.0886400491634776));
#1303=CARTESIAN_POINT('Origin',(0.156,0.1515,0.));
#1304=CARTESIAN_POINT('',(-0.156,0.1515,0.197));
#1305=CARTESIAN_POINT('',(-0.156,0.1515,0.));
#1306=CARTESIAN_POINT('',(-0.0127813214566043,0.1515,0.197));
#1307=CARTESIAN_POINT('',(0.156,0.1515,0.197));
#1308=CARTESIAN_POINT('',(-0.0127813214566043,0.1515,0.177280098326955));
#1309=CARTESIAN_POINT('',(-0.0127813214566043,0.1515,0.0985));
#1310=CARTESIAN_POINT('',(0.142277400397441,0.1515,0.177280098326955));
#1311=CARTESIAN_POINT('Origin',(0.156,0.1515,0.109971252377909));
#1312=CARTESIAN_POINT('',(0.128554800794882,0.0572215271390058,0.109971252377909));
#1313=CARTESIAN_POINT('',(0.128554800794882,0.1515,0.109971252377909));
#1314=CARTESIAN_POINT('',(0.128554800794882,0.1515,0.109971252377909));
#1315=CARTESIAN_POINT('',(0.156,0.0572215271390058,0.109971252377909));
#1316=CARTESIAN_POINT('',(0.156,0.0572215271390058,0.109971252377909));
#1317=CARTESIAN_POINT('',(0.156,0.1515,0.109971252377909));
#1318=CARTESIAN_POINT('',(0.156,-4.37095678986282E-17,0.109971252377909));
#1319=CARTESIAN_POINT('',(0.156,0.1515,0.109971252377909));
#1320=CARTESIAN_POINT('Origin',(0.156,0.0572215271390058,0.15103992612339));
#1321=CARTESIAN_POINT('',(0.128554800794882,0.1515,0.15103992612339));
#1322=CARTESIAN_POINT('',(0.128554800794882,0.0572215271390058,0.15103992612339));
#1323=CARTESIAN_POINT('',(0.128554800794882,0.104360763569503,0.15103992612339));
#1324=CARTESIAN_POINT('',(0.156,0.1515,0.15103992612339));
#1325=CARTESIAN_POINT('',(0.156,0.1515,0.15103992612339));
#1326=CARTESIAN_POINT('',(0.156,0.0572215271390058,0.15103992612339));
#1327=CARTESIAN_POINT('',(0.156,-0.0471392364304971,0.15103992612339));
#1328=CARTESIAN_POINT('',(0.156,0.0572215271390058,0.15103992612339));
#1329=CARTESIAN_POINT('Origin',(0.156,0.0572215271390058,0.109971252377909));
#1330=CARTESIAN_POINT('',(0.128554800794882,0.0572215271390058,0.0648455770254769));
#1331=CARTESIAN_POINT('',(0.156,0.0572215271390058,0.0549856261889544));
#1332=CARTESIAN_POINT('Origin',(0.156,0.1515,0.));
#1333=CARTESIAN_POINT('',(0.128554800794882,0.1515,0.0197199016730449));
#1334=CARTESIAN_POINT('',(0.013722599602559,0.1515,0.0197199016730449));
#1335=CARTESIAN_POINT('',(0.128554800794882,0.1515,0.00985995083652244));
#1336=CARTESIAN_POINT('',(0.156,0.1515,0.));
#1337=CARTESIAN_POINT('',(0.156,0.1515,0.));
#1338=CARTESIAN_POINT('',(-0.156,0.1515,0.));
#1339=CARTESIAN_POINT('',(0.156,0.1515,0.));
#1340=CARTESIAN_POINT('',(-0.156,0.1515,0.));
#1341=CARTESIAN_POINT('Origin',(0.156,0.1515,0.));
#1342=CARTESIAN_POINT('',(0.128554800794882,0.1515,0.177280098326955));
#1343=CARTESIAN_POINT('',(0.128554800794882,0.1515,0.00985995083652244));
#1344=CARTESIAN_POINT('',(0.0148539681792969,0.1515,0.177280098326955));
#1345=CARTESIAN_POINT('',(0.142277400397441,0.1515,0.177280098326955));
#1346=CARTESIAN_POINT('',(0.0148539681792969,0.1515,0.197));
#1347=CARTESIAN_POINT('',(0.0148539681792969,0.1515,0.0985));
#1348=CARTESIAN_POINT('',(0.156,0.1515,0.197));
#1349=CARTESIAN_POINT('',(0.156,0.1515,0.197));
#1350=CARTESIAN_POINT('',(0.156,0.1515,0.));
#1351=CARTESIAN_POINT('Origin',(0.128554800794882,0.1515,0.0197199016730449));
#1352=CARTESIAN_POINT('',(0.128554800794882,-0.0584999999999999,0.0197199016730449));
#1353=CARTESIAN_POINT('',(0.128554800794882,0.1515,0.0197199016730449));
#1354=CARTESIAN_POINT('',(0.128554800794882,-0.0584999999999999,0.177280098326955));
#1355=CARTESIAN_POINT('',(0.128554800794882,-0.0584999999999999,0.177280098326955));
#1356=CARTESIAN_POINT('',(0.128554800794882,-0.0217627910492261,0.177280098326955));
#1357=CARTESIAN_POINT('',(0.128554800794882,0.1515,0.177280098326955));
#1358=CARTESIAN_POINT('',(0.128554800794882,-0.0217627910492261,0.197));
#1359=CARTESIAN_POINT('',(0.128554800794882,-0.0217627910492261,0.197));
#1360=CARTESIAN_POINT('',(0.128554800794882,0.0735789602140501,0.197));
#1361=CARTESIAN_POINT('',(0.128554800794882,0.0367894801070251,0.197));
#1362=CARTESIAN_POINT('',(0.128554800794882,0.0735789602140501,0.177280098326955));
#1363=CARTESIAN_POINT('',(0.128554800794882,0.0735789602140501,0.197));
#1364=CARTESIAN_POINT('',(0.128554800794882,0.1515,0.177280098326955));
#1365=CARTESIAN_POINT('Origin',(-0.0790548007948821,-0.0744999999999999,
0.13));
#1366=CARTESIAN_POINT('',(-0.0945548007948821,0.112129921259843,0.13));
#1367=CARTESIAN_POINT('Origin',(-0.0790548007948821,0.112129921259843,0.13));
#1368=CARTESIAN_POINT('',(-0.0945548007948821,-0.0584999999999999,0.13));
#1369=CARTESIAN_POINT('',(-0.0945548007948821,-0.0744999999999999,0.13));
#1370=CARTESIAN_POINT('Origin',(-0.0790548007948821,-0.0584999999999999,
0.13));
#1371=CARTESIAN_POINT('Origin',(-0.0790548007948821,-0.0744999999999999,
0.110003948058666));
#1372=CARTESIAN_POINT('',(-0.0790548007948821,-0.0764999999999999,0.145443610915723));
#1373=CARTESIAN_POINT('',(-0.0790548007948821,-0.0764999999999999,0.114030669188714));
#1374=CARTESIAN_POINT('Ctrl Pts',(-0.0790548007948821,-0.0764999999999999,
0.145443610915723));
#1375=CARTESIAN_POINT('Ctrl Pts',(-0.0771433520095365,-0.0764999999999999,
0.145443610915723));
#1376=CARTESIAN_POINT('Ctrl Pts',(-0.0748937630386485,-0.0764999999999999,
0.144995742672802));
#1377=CARTESIAN_POINT('Ctrl Pts',(-0.0713608294248716,-0.0764999999999999,
0.14353125218626));
#1378=CARTESIAN_POINT('Ctrl Pts',(-0.0694527581759612,-0.0764999999999999,
0.142254928174295));
#1379=CARTESIAN_POINT('Ctrl Pts',(-0.0667464895186598,-0.0764999999999999,
0.139546004981728));
#1380=CARTESIAN_POINT('Ctrl Pts',(-0.0654704884248013,-0.0764999999999999,
0.137633195283855));
#1381=CARTESIAN_POINT('Ctrl Pts',(-0.0640031178670143,-0.0764999999999999,
0.134085822048531));
#1382=CARTESIAN_POINT('Ctrl Pts',(-0.063554800794882,-0.0764999999999999,
0.131822486534028));
#1383=CARTESIAN_POINT('Ctrl Pts',(-0.063554800794882,-0.0764999999999999,
0.127968171867757));
#1384=CARTESIAN_POINT('Ctrl Pts',(-0.064006829907737,-0.0764999999999999,
0.125694807951839));
#1385=CARTESIAN_POINT('Ctrl Pts',(-0.0654836556333236,-0.0764999999999999,
0.122104678553229));
#1386=CARTESIAN_POINT('Ctrl Pts',(-0.066777409989286,-0.0764999999999999,
0.120154198029085));
#1387=CARTESIAN_POINT('Ctrl Pts',(-0.0695160186183698,-0.0764999999999999,
0.117370957044826));
#1388=CARTESIAN_POINT('Ctrl Pts',(-0.0714473045274431,-0.0764999999999999,
0.116040775209435));
#1389=CARTESIAN_POINT('Ctrl Pts',(-0.0749676508965408,-0.0764999999999999,
0.114516779360384));
#1390=CARTESIAN_POINT('Ctrl Pts',(-0.0771729413168475,-0.0764999999999999,
0.114030669188714));
#1391=CARTESIAN_POINT('Ctrl Pts',(-0.0790548007948821,-0.0764999999999999,
0.114030669188714));
#1392=CARTESIAN_POINT('Ctrl Pts',(-0.0790548007948821,-0.0764999999999999,
0.114030669188714));
#1393=CARTESIAN_POINT('Ctrl Pts',(-0.0809366602729166,-0.0764999999999999,
0.114030669188714));
#1394=CARTESIAN_POINT('Ctrl Pts',(-0.0831419506932233,-0.0764999999999999,
0.114516779360384));
#1395=CARTESIAN_POINT('Ctrl Pts',(-0.086662297062321,-0.0764999999999999,
0.116040775209435));
#1396=CARTESIAN_POINT('Ctrl Pts',(-0.0885935829713942,-0.0764999999999999,
0.117370957044826));
#1397=CARTESIAN_POINT('Ctrl Pts',(-0.0913321916004781,-0.0764999999999999,
0.120154198029085));
#1398=CARTESIAN_POINT('Ctrl Pts',(-0.0926259459564405,-0.0764999999999999,
0.122104678553229));
#1399=CARTESIAN_POINT('Ctrl Pts',(-0.0941027716820271,-0.0764999999999999,
0.125694807951839));
#1400=CARTESIAN_POINT('Ctrl Pts',(-0.0945548007948821,-0.0764999999999999,
0.127968171867757));
#1401=CARTESIAN_POINT('Ctrl Pts',(-0.0945548007948821,-0.0764999999999999,
0.131822486534028));
#1402=CARTESIAN_POINT('Ctrl Pts',(-0.0941064837227497,-0.0764999999999999,
0.134085822048531));
#1403=CARTESIAN_POINT('Ctrl Pts',(-0.0926391131649628,-0.0764999999999999,
0.137633195283855));
#1404=CARTESIAN_POINT('Ctrl Pts',(-0.0913631120711043,-0.0764999999999999,
0.139546004981728));
#1405=CARTESIAN_POINT('Ctrl Pts',(-0.0886568434138029,-0.0764999999999999,
0.142254928174295));
#1406=CARTESIAN_POINT('Ctrl Pts',(-0.0867487721648925,-0.0764999999999999,
0.14353125218626));
#1407=CARTESIAN_POINT('Ctrl Pts',(-0.0832158385511156,-0.0764999999999999,
0.144995742672802));
#1408=CARTESIAN_POINT('Ctrl Pts',(-0.0809662495802276,-0.0764999999999999,
0.145443610915723));
#1409=CARTESIAN_POINT('Ctrl Pts',(-0.0790548007948821,-0.0764999999999999,
0.145443610915723));
#1410=CARTESIAN_POINT('',(-0.0790548007948821,-0.0789960519413336,0.110003948058666));
#1411=CARTESIAN_POINT('Origin',(-0.0790548007948821,-0.0744999999999999,
0.110003948058666));
#1412=CARTESIAN_POINT('',(-0.0945548007948821,-0.0944960519413336,0.110003948058666));
#1413=CARTESIAN_POINT('Origin',(-0.0790548007948821,-0.0944960519413336,
0.110003948058666));
#1414=CARTESIAN_POINT('Origin',(-0.0790548007948821,-0.0944960519413336,
0.110003948058666));
#1415=CARTESIAN_POINT('Origin',(-0.0790548007948821,-0.0944960519413336,
-0.13));
#1416=CARTESIAN_POINT('',(-0.0945548007948821,-0.0944960519413336,-0.13));
#1417=CARTESIAN_POINT('',(-0.0945548007948821,-0.0944960519413336,-0.13));
#1418=CARTESIAN_POINT('Origin',(-0.0790548007948821,-0.0944960519413336,
-0.13));
#1419=CARTESIAN_POINT('Origin',(-0.0790548007948821,0.112129921259843,0.13));
#1420=CARTESIAN_POINT('Origin',(-0.0790548007948821,-0.0944960519413336,
-0.13));
#1421=CARTESIAN_POINT('Origin',(-5.48007948820557E-5,-0.0744999999999999,
0.130003948058666));
#1422=CARTESIAN_POINT('',(-0.0155548007948821,0.112129921259843,0.130003948058666));
#1423=CARTESIAN_POINT('Origin',(-5.48007948820557E-5,0.112129921259843,
0.130003948058666));
#1424=CARTESIAN_POINT('',(-0.0155548007948821,-0.0584999999999999,0.130003948058666));
#1425=CARTESIAN_POINT('',(-0.0155548007948821,-0.0744999999999999,0.130003948058666));
#1426=CARTESIAN_POINT('Origin',(-5.48007948820557E-5,-0.0584999999999999,
0.130003948058666));
#1427=CARTESIAN_POINT('Origin',(-5.48007948820557E-5,-0.0744999999999999,
0.110003948058666));
#1428=CARTESIAN_POINT('',(-5.48007948820557E-5,-0.0764999999999999,0.145447565255561));
#1429=CARTESIAN_POINT('',(-5.4800794882056E-5,-0.0764999999999999,0.114035076932816));
#1430=CARTESIAN_POINT('Ctrl Pts',(-5.48007948820557E-5,-0.0764999999999999,
0.145447565255561));
#1431=CARTESIAN_POINT('Ctrl Pts',(0.00185664841862773,-0.0764999999999999,
0.145447565255561));
#1432=CARTESIAN_POINT('Ctrl Pts',(0.00410623790538492,-0.0764999999999999,
0.144999696972399));
#1433=CARTESIAN_POINT('Ctrl Pts',(0.00763917206075789,-0.0764999999999999,
0.14353520643858));
#1434=CARTESIAN_POINT('Ctrl Pts',(0.00954724351732598,-0.0764999999999999,
0.142258882542261));
#1435=CARTESIAN_POINT('Ctrl Pts',(0.0122535119337108,-0.0764999999999999,
0.139549960105572));
#1436=CARTESIAN_POINT('Ctrl Pts',(0.0135295128509113,-0.0764999999999999,
0.13763715143703));
#1437=CARTESIAN_POINT('Ctrl Pts',(0.0149968822130004,-0.0764999999999999,
0.134089782315945));
#1438=CARTESIAN_POINT('Ctrl Pts',(0.0154451992051179,-0.0764999999999999,
0.131826451022652));
#1439=CARTESIAN_POINT('Ctrl Pts',(0.0154451992051179,-0.0764999999999999,
0.127972151826966));
#1440=CARTESIAN_POINT('Ctrl Pts',(0.0149931740824245,-0.0764999999999999,
0.125698801808117));
#1441=CARTESIAN_POINT('Ctrl Pts',(0.0135163635235922,-0.0764999999999999,
0.1221087183698));
#1442=CARTESIAN_POINT('Ctrl Pts',(0.0122226330652227,-0.0764999999999999,
0.120158274218876));
#1443=CARTESIAN_POINT('Ctrl Pts',(0.00948407808347634,-0.0764999999999999,
0.117375122127032));
#1444=CARTESIAN_POINT('Ctrl Pts',(0.00755283891695204,-0.0764999999999999,
0.116045009347727));
#1445=CARTESIAN_POINT('Ctrl Pts',(0.00403247190291733,-0.0764999999999999,
0.114521105683973));
#1446=CARTESIAN_POINT('Ctrl Pts',(0.00182710572807877,-0.0764999999999999,
0.114035076932816));
#1447=CARTESIAN_POINT('Ctrl Pts',(-5.48007948820583E-5,-0.0764999999999999,
0.114035076932816));
#1448=CARTESIAN_POINT('Ctrl Pts',(-5.48007948820583E-5,-0.0764999999999999,
0.114035076932816));
#1449=CARTESIAN_POINT('Ctrl Pts',(-0.00193670731784288,-0.0764999999999999,
0.114035076932816));
#1450=CARTESIAN_POINT('Ctrl Pts',(-0.00414207349268144,-0.0764999999999999,
0.114521105683973));
#1451=CARTESIAN_POINT('Ctrl Pts',(-0.00766244050671615,-0.0764999999999999,
0.116045009347727));
#1452=CARTESIAN_POINT('Ctrl Pts',(-0.00959367967324045,-0.0764999999999999,
0.117375122127032));
#1453=CARTESIAN_POINT('Ctrl Pts',(-0.0123322346549868,-0.0764999999999999,
0.120158274218876));
#1454=CARTESIAN_POINT('Ctrl Pts',(-0.0136259651133563,-0.0764999999999999,
0.1221087183698));
#1455=CARTESIAN_POINT('Ctrl Pts',(-0.0151027756721886,-0.0764999999999999,
0.125698801808117));
#1456=CARTESIAN_POINT('Ctrl Pts',(-0.0155548007948821,-0.0764999999999999,
0.127972151826966));
#1457=CARTESIAN_POINT('Ctrl Pts',(-0.0155548007948821,-0.0764999999999999,
0.131826451022652));
#1458=CARTESIAN_POINT('Ctrl Pts',(-0.0151064838027645,-0.0764999999999999,
0.134089782315945));
#1459=CARTESIAN_POINT('Ctrl Pts',(-0.0136391144406754,-0.0764999999999999,
0.13763715143703));
#1460=CARTESIAN_POINT('Ctrl Pts',(-0.0123631135234749,-0.0764999999999999,
0.139549960105572));
#1461=CARTESIAN_POINT('Ctrl Pts',(-0.00965684510709009,-0.0764999999999999,
0.142258882542261));
#1462=CARTESIAN_POINT('Ctrl Pts',(-0.00774877365052201,-0.0764999999999999,
0.14353520643858));
#1463=CARTESIAN_POINT('Ctrl Pts',(-0.00421583949514903,-0.0764999999999999,
0.144999696972399));
#1464=CARTESIAN_POINT('Ctrl Pts',(-0.00196625000839184,-0.0764999999999999,
0.145447565255561));
#1465=CARTESIAN_POINT('Ctrl Pts',(-5.48007948820557E-5,-0.0764999999999999,
0.145447565255561));
#1466=CARTESIAN_POINT('',(-5.48007948820538E-5,-0.0789999999999999,0.110003948058666));
#1467=CARTESIAN_POINT('Origin',(-5.48007948820538E-5,-0.0744999999999999,
0.110003948058666));
#1468=CARTESIAN_POINT('',(-0.0155548007948821,-0.0944999999999999,0.110003948058666));
#1469=CARTESIAN_POINT('Origin',(-5.48007948820557E-5,-0.0944999999999999,
0.110003948058666));
#1470=CARTESIAN_POINT('Origin',(-5.48007948820557E-5,-0.0944999999999999,
0.110003948058666));
#1471=CARTESIAN_POINT('Origin',(-5.48007948820557E-5,-0.0944999999999999,
-0.13));
#1472=CARTESIAN_POINT('',(-0.0155548007948821,-0.0944999999999999,-0.13));
#1473=CARTESIAN_POINT('',(-0.0155548007948821,-0.0944999999999999,-0.13));
#1474=CARTESIAN_POINT('Origin',(-5.48007948820557E-5,-0.0944999999999999,
-0.13));
#1475=CARTESIAN_POINT('Origin',(-5.48007948820557E-5,0.112129921259843,
0.130003948058666));
#1476=CARTESIAN_POINT('Origin',(-5.48007948820557E-5,-0.0944999999999999,
-0.13));
#1477=CARTESIAN_POINT('Origin',(0.0789451992051179,-0.0744999999999998,
0.13));
#1478=CARTESIAN_POINT('',(0.0634451992051179,0.112129921259843,0.13));
#1479=CARTESIAN_POINT('Origin',(0.0789451992051179,0.112129921259843,0.13));
#1480=CARTESIAN_POINT('',(0.0634451992051179,-0.0584999999999999,0.13));
#1481=CARTESIAN_POINT('',(0.0634451992051179,-0.0744999999999998,0.13));
#1482=CARTESIAN_POINT('Origin',(0.0789451992051179,-0.0584999999999999,
0.13));
#1483=CARTESIAN_POINT('Origin',(0.0789451992051179,-0.0744999999999999,
0.110003948058666));
#1484=CARTESIAN_POINT('',(0.0789451992051179,-0.0764999999999999,0.145443610915723));
#1485=CARTESIAN_POINT('',(0.0789451992051179,-0.0764999999999999,0.114030669188714));
#1486=CARTESIAN_POINT('Ctrl Pts',(0.0789451992051179,-0.0764999999999999,
0.145443610915723));
#1487=CARTESIAN_POINT('Ctrl Pts',(0.0808566479904635,-0.0764999999999999,
0.145443610915723));
#1488=CARTESIAN_POINT('Ctrl Pts',(0.0831062369613515,-0.0764999999999999,
0.144995742672802));
#1489=CARTESIAN_POINT('Ctrl Pts',(0.0866391705751284,-0.0764999999999999,
0.14353125218626));
#1490=CARTESIAN_POINT('Ctrl Pts',(0.0885472418240388,-0.0764999999999999,
0.142254928174295));
#1491=CARTESIAN_POINT('Ctrl Pts',(0.0912535104813401,-0.0764999999999999,
0.139546004981728));
#1492=CARTESIAN_POINT('Ctrl Pts',(0.0925295115751987,-0.0764999999999999,
0.137633195283855));
#1493=CARTESIAN_POINT('Ctrl Pts',(0.0939968821329856,-0.0764999999999999,
0.134085822048531));
#1494=CARTESIAN_POINT('Ctrl Pts',(0.0944451992051179,-0.0764999999999999,
0.131822486534028));
#1495=CARTESIAN_POINT('Ctrl Pts',(0.0944451992051179,-0.0764999999999999,
0.127968171867757));
#1496=CARTESIAN_POINT('Ctrl Pts',(0.093993170092263,-0.0764999999999999,
0.125694807951839));
#1497=CARTESIAN_POINT('Ctrl Pts',(0.0925163443666763,-0.0764999999999999,
0.122104678553229));
#1498=CARTESIAN_POINT('Ctrl Pts',(0.091222590010714,-0.0764999999999999,
0.120154198029085));
#1499=CARTESIAN_POINT('Ctrl Pts',(0.0884839813816301,-0.0764999999999999,
0.117370957044826));
#1500=CARTESIAN_POINT('Ctrl Pts',(0.0865526954725569,-0.0764999999999999,
0.116040775209435));
#1501=CARTESIAN_POINT('Ctrl Pts',(0.0830323491034592,-0.0764999999999999,
0.114516779360384));
#1502=CARTESIAN_POINT('Ctrl Pts',(0.0808270586831525,-0.0764999999999999,
0.114030669188714));
#1503=CARTESIAN_POINT('Ctrl Pts',(0.0789451992051179,-0.0764999999999999,
0.114030669188714));
#1504=CARTESIAN_POINT('Ctrl Pts',(0.0789451992051179,-0.0764999999999999,
0.114030669188714));
#1505=CARTESIAN_POINT('Ctrl Pts',(0.0770633397270834,-0.0764999999999999,
0.114030669188714));
#1506=CARTESIAN_POINT('Ctrl Pts',(0.0748580493067766,-0.0764999999999999,
0.114516779360384));
#1507=CARTESIAN_POINT('Ctrl Pts',(0.071337702937679,-0.0764999999999999,
0.116040775209435));
#1508=CARTESIAN_POINT('Ctrl Pts',(0.0694064170286057,-0.0764999999999999,
0.117370957044826));
#1509=CARTESIAN_POINT('Ctrl Pts',(0.0666678083995219,-0.0764999999999999,
0.120154198029085));
#1510=CARTESIAN_POINT('Ctrl Pts',(0.0653740540435595,-0.0764999999999999,
0.122104678553229));
#1511=CARTESIAN_POINT('Ctrl Pts',(0.0638972283179729,-0.0764999999999999,
0.125694807951839));
#1512=CARTESIAN_POINT('Ctrl Pts',(0.0634451992051179,-0.0764999999999999,
0.127968171867757));
#1513=CARTESIAN_POINT('Ctrl Pts',(0.0634451992051179,-0.0764999999999999,
0.131822486534028));
#1514=CARTESIAN_POINT('Ctrl Pts',(0.0638935162772502,-0.0764999999999999,
0.134085822048531));
#1515=CARTESIAN_POINT('Ctrl Pts',(0.0653608868350372,-0.0764999999999999,
0.137633195283855));
#1516=CARTESIAN_POINT('Ctrl Pts',(0.0666368879288957,-0.0764999999999999,
0.139546004981728));
#1517=CARTESIAN_POINT('Ctrl Pts',(0.069343156586197,-0.0764999999999999,
0.142254928174295));
#1518=CARTESIAN_POINT('Ctrl Pts',(0.0712512278351075,-0.0764999999999999,
0.14353125218626));
#1519=CARTESIAN_POINT('Ctrl Pts',(0.0747841614488843,-0.0764999999999999,
0.144995742672802));
#1520=CARTESIAN_POINT('Ctrl Pts',(0.0770337504197724,-0.0764999999999999,
0.145443610915723));
#1521=CARTESIAN_POINT('Ctrl Pts',(0.0789451992051179,-0.0764999999999999,
0.145443610915723));
#1522=CARTESIAN_POINT('',(0.0789451992051179,-0.0789960519413336,0.110003948058666));
#1523=CARTESIAN_POINT('Origin',(0.0789451992051179,-0.0744999999999999,
0.110003948058666));
#1524=CARTESIAN_POINT('',(0.0634451992051179,-0.0944960519413336,0.110003948058666));
#1525=CARTESIAN_POINT('Origin',(0.0789451992051179,-0.0944960519413336,
0.110003948058666));
#1526=CARTESIAN_POINT('Origin',(0.0789451992051179,-0.0944960519413336,
0.110003948058666));
#1527=CARTESIAN_POINT('Origin',(0.0789451992051179,-0.0944960519413336,
-0.13));
#1528=CARTESIAN_POINT('',(0.0634451992051179,-0.0944960519413336,-0.13));
#1529=CARTESIAN_POINT('',(0.0634451992051179,-0.0944960519413336,-0.13));
#1530=CARTESIAN_POINT('Origin',(0.0789451992051179,-0.0944960519413336,
-0.13));
#1531=CARTESIAN_POINT('Origin',(0.0789451992051179,0.112129921259843,0.13));
#1532=CARTESIAN_POINT('Origin',(0.0789451992051179,-0.0944960519413336,
-0.13));
#1533=CARTESIAN_POINT('Origin',(-0.128554800794882,0.0735789602140501,0.197));
#1534=CARTESIAN_POINT('',(-0.0846330745099475,0.0735789602140501,0.177280098326955));
#1535=CARTESIAN_POINT('',(-9.83465277719135E-17,0.0735789602140501,0.177280098326955));
#1536=CARTESIAN_POINT('',(-0.0846330745099475,0.0735789602140501,0.197));
#1537=CARTESIAN_POINT('',(-0.0846330745099475,0.0735789602140501,0.197));
#1538=CARTESIAN_POINT('',(-0.064277400397441,0.0735789602140501,0.197));
#1539=CARTESIAN_POINT('Origin',(-0.0846330745099475,-0.0217627910492261,
0.197));
#1540=CARTESIAN_POINT('',(-0.0846330745099475,-0.0217627910492261,0.177280098326955));
#1541=CARTESIAN_POINT('',(0.0219608631424672,-0.0217627910492261,0.177280098326955));
#1542=CARTESIAN_POINT('',(-0.0846330745099475,-0.0217627910492261,0.197));
#1543=CARTESIAN_POINT('',(-0.0423165372549738,-0.0217627910492261,0.197));
#1544=CARTESIAN_POINT('',(-0.0846330745099475,-0.0217627910492261,0.197));
#1545=CARTESIAN_POINT('Origin',(-0.0846330745099475,0.0735789602140501,
0.197));
#1546=CARTESIAN_POINT('',(-0.0846330745099475,0.112539480107025,0.177280098326955));
#1547=CARTESIAN_POINT('',(-0.0846330745099475,0.0367894801070251,0.197));
#1548=CARTESIAN_POINT('Origin',(0.128554800794882,-0.0217627910492261,0.197));
#1549=CARTESIAN_POINT('',(0.0846330745099473,-0.0217627910492261,0.177280098326955));
#1550=CARTESIAN_POINT('',(0.128554800794882,-0.0217627910492261,0.177280098326955));
#1551=CARTESIAN_POINT('',(0.0846330745099473,-0.0217627910492261,0.197));
#1552=CARTESIAN_POINT('',(0.0846330745099473,-0.0217627910492261,0.197));
#1553=CARTESIAN_POINT('',(0.0642774003974409,-0.0217627910492261,0.197));
#1554=CARTESIAN_POINT('Origin',(0.0846330745099473,0.0735789602140501,0.197));
#1555=CARTESIAN_POINT('',(0.0846330745099473,0.0735789602140501,0.177280098326955));
#1556=CARTESIAN_POINT('',(0.106593937652415,0.0735789602140501,0.177280098326955));
#1557=CARTESIAN_POINT('',(0.0846330745099473,0.0735789602140501,0.197));
#1558=CARTESIAN_POINT('',(0.0423165372549737,0.0735789602140502,0.197));
#1559=CARTESIAN_POINT('',(0.0846330745099473,0.0735789602140501,0.197));
#1560=CARTESIAN_POINT('Origin',(0.0846330745099473,-0.0217627910492261,
0.197));
#1561=CARTESIAN_POINT('',(0.0846330745099473,0.064868604475387,0.177280098326955));
#1562=CARTESIAN_POINT('',(0.0846330745099473,-0.010881395524613,0.197));
#1563=CARTESIAN_POINT('Origin',(0.0148539681792969,0.1515,0.197));
#1564=CARTESIAN_POINT('',(0.0148539681792969,-0.0585,0.177280098326955));
#1565=CARTESIAN_POINT('',(0.0148539681792969,0.1515,0.177280098326955));
#1566=CARTESIAN_POINT('',(0.0148539681792969,-0.0585,0.197));
#1567=CARTESIAN_POINT('',(0.0148539681792969,-0.0585,0.197));
#1568=CARTESIAN_POINT('',(0.0148539681792969,0.07575,0.197));
#1569=CARTESIAN_POINT('Origin',(-0.0127813214566043,-0.0585,0.197));
#1570=CARTESIAN_POINT('',(-0.0127813214566043,-0.0585,0.177280098326955));
#1571=CARTESIAN_POINT('',(-0.0127813214566043,0.0465,0.177280098326955));
#1572=CARTESIAN_POINT('',(-0.0127813214566043,-0.0585,0.197));
#1573=CARTESIAN_POINT('',(-0.0127813214566043,-0.02925,0.197));
#1574=CARTESIAN_POINT('',(-0.0127813214566043,-0.0585,0.197));
#1575=CARTESIAN_POINT('Origin',(0.128554800794882,0.1515,0.177280098326955));
#1576=CARTESIAN_POINT('',(-0.128554800794882,-0.0585,0.177280098326955));
#1577=CARTESIAN_POINT('Origin',(0.128554800794882,0.1515,0.177280098326955));
#1578=CARTESIAN_POINT('',(-0.128554800794882,-0.0585,0.177280098326955));
#1579=CARTESIAN_POINT('Origin',(0.128554800794882,-0.1515,0.197));
#1580=CARTESIAN_POINT('',(0.128554800794882,-0.1515,0.197));
#1581=CARTESIAN_POINT('',(0.128554800794882,-0.1515,0.));
#1582=CARTESIAN_POINT('',(0.128554800794882,-0.1515,0.0985));
#1583=CARTESIAN_POINT('',(0.128554800794882,-0.0764999999999999,0.197));
#1584=CARTESIAN_POINT('',(0.128554800794882,-0.0757499999999999,0.197));
#1585=CARTESIAN_POINT('',(0.128554800794882,-0.0764999999999999,0.));
#1586=CARTESIAN_POINT('',(0.128554800794882,-0.0764999999999999,0.));
#1587=CARTESIAN_POINT('',(0.128554800794882,-0.0757499999999999,0.));
#1588=CARTESIAN_POINT('Origin',(-0.128554800794882,-0.1515,0.));
#1589=CARTESIAN_POINT('',(-0.128554800794882,-0.1515,0.));
#1590=CARTESIAN_POINT('',(-0.128554800794882,-0.1515,0.197));
#1591=CARTESIAN_POINT('',(-0.128554800794882,-0.1515,0.));
#1592=CARTESIAN_POINT('',(-0.128554800794882,-0.0764999999999999,0.));
#1593=CARTESIAN_POINT('',(-0.128554800794882,-0.0757499999999999,0.));
#1594=CARTESIAN_POINT('',(-0.128554800794882,-0.0764999999999999,0.197));
#1595=CARTESIAN_POINT('',(-0.128554800794882,-0.0764999999999999,0.197));
#1596=CARTESIAN_POINT('',(-0.128554800794882,-0.0757499999999999,0.197));
#1597=CARTESIAN_POINT('Origin',(-1.09273919746571E-16,-0.0764999999999999,
0.0985));
#1598=CARTESIAN_POINT('',(-6.55643518479423E-17,-0.0764999999999999,0.));
#1599=CARTESIAN_POINT('',(-6.55643518479423E-17,-0.0764999999999999,0.197));
#1600=CARTESIAN_POINT('Origin',(-2.18547839493141E-17,4.37095678986282E-17,
0.197));
#1601=CARTESIAN_POINT('',(-0.156,-0.1515,0.197));
#1602=CARTESIAN_POINT('',(-0.156,0.1515,0.197));
#1603=CARTESIAN_POINT('',(-0.156,-0.1515,0.197));
#1604=CARTESIAN_POINT('',(0.156,-0.1515,0.197));
#1605=CARTESIAN_POINT('',(-0.156,-0.1515,0.197));
#1606=CARTESIAN_POINT('',(0.156,-0.1515,0.197));
#1607=CARTESIAN_POINT('',(0.00742698408964844,-0.0585,0.197));
#1608=CARTESIAN_POINT('Origin',(-0.156,-0.1515,0.));
#1609=CARTESIAN_POINT('',(0.156,-0.1515,0.));
#1610=CARTESIAN_POINT('',(-0.156,-0.1515,0.));
#1611=CARTESIAN_POINT('',(0.156,-0.1515,0.));
#1612=CARTESIAN_POINT('Origin',(-0.128554800794882,0.1515,0.0197199016730449));
#1613=CARTESIAN_POINT('',(0.128554800794882,-0.0584999999999999,0.0197199016730449));
#1614=CARTESIAN_POINT('Origin',(-1.09273919746571E-16,-0.0584999999999999,
0.0985));
#1615=CARTESIAN_POINT('Origin',(-0.156,0.1515,0.));
#1616=CARTESIAN_POINT('',(-0.156,-0.1515,0.));
#1617=CARTESIAN_POINT('',(-0.156,0.1515,0.));
#1618=CARTESIAN_POINT('',(-0.156,-0.1515,0.));
#1619=CARTESIAN_POINT('Origin',(0.156,-0.1515,0.));
#1620=CARTESIAN_POINT('',(0.156,-0.1515,0.));
#1621=CARTESIAN_POINT('Origin',(-0.156,-0.1515,0.));
#1622=CARTESIAN_POINT('',(-0.156,-0.1515,0.));
#1623=CARTESIAN_POINT('Origin',(-2.18547839493141E-17,4.37095678986282E-17,
0.));
#1624=UNCERTAINTY_MEASURE_WITH_UNIT(LENGTH_MEASURE(0.000393700787401575),
#1630,'DISTANCE_ACCURACY_VALUE',
'Maximum model space distance between geometric entities at asserted c
onnectivities');
#1625=UNCERTAINTY_MEASURE_WITH_UNIT(LENGTH_MEASURE(0.000393700787401575),
#1630,'DISTANCE_ACCURACY_VALUE',
'Maximum model space distance between geometric entities at asserted c
onnectivities');
#1626=(
GEOMETRIC_REPRESENTATION_CONTEXT(3)
GLOBAL_UNCERTAINTY_ASSIGNED_CONTEXT((#1624))
GLOBAL_UNIT_ASSIGNED_CONTEXT((#1630,#1634,#1635))
REPRESENTATION_CONTEXT('','3D')
);
#1627=(
GEOMETRIC_REPRESENTATION_CONTEXT(3)
GLOBAL_UNCERTAINTY_ASSIGNED_CONTEXT((#1625))
GLOBAL_UNIT_ASSIGNED_CONTEXT((#1630,#1634,#1635))
REPRESENTATION_CONTEXT('','3D')
);
#1628=DIMENSIONAL_EXPONENTS(1.,0.,0.,0.,0.,0.,0.);
#1629=DIMENSIONAL_EXPONENTS(0.,1.,0.,0.,0.,0.,0.);
#1630=(
CONVERSION_BASED_UNIT('inch',#1633)
LENGTH_UNIT()
NAMED_UNIT(#1628)
);
#1631=(
LENGTH_UNIT()
NAMED_UNIT(*)
SI_UNIT(.MILLI.,.METRE.)
);
#1632=(
LENGTH_UNIT()
NAMED_UNIT(*)
SI_UNIT(.CENTI.,.METRE.)
);
#1633=LENGTH_MEASURE_WITH_UNIT(LENGTH_MEASURE(25.4),#1631);
#1634=(
NAMED_UNIT(*)
PLANE_ANGLE_UNIT()
SI_UNIT($,.RADIAN.)
);
#1635=(
NAMED_UNIT(*)
SI_UNIT($,.STERADIAN.)
SOLID_ANGLE_UNIT()
);
#1636=SHAPE_DEFINITION_REPRESENTATION(#1637,#1638);
#1637=PRODUCT_DEFINITION_SHAPE('',$,#1640);
#1638=SHAPE_REPRESENTATION('',(#963),#1626);
#1639=PRODUCT_DEFINITION_CONTEXT('part definition',#1644,'design');
#1640=PRODUCT_DEFINITION('2SH-C-03-TR','2SH-C-03-TR',#1641,#1639);
#1641=PRODUCT_DEFINITION_FORMATION('',$,#1646);
#1642=PRODUCT_RELATED_PRODUCT_CATEGORY('2SH-C-03-TR','2SH-C-03-TR',(#1646));
#1643=APPLICATION_PROTOCOL_DEFINITION('international standard',
'automotive_design',2009,#1644);
#1644=APPLICATION_CONTEXT(
'Core Data for Automotive Mechanical Design Process');
#1645=PRODUCT_CONTEXT('part definition',#1644,'mechanical');
#1646=PRODUCT('2SH-C-03-TR','2SH-C-03-TR','CONN HEADER R/A 3POS 2MM',(#1645));
#1647=PRESENTATION_STYLE_ASSIGNMENT((#1650));
#1648=PRESENTATION_STYLE_ASSIGNMENT((#1651));
#1649=PRESENTATION_STYLE_ASSIGNMENT((#1652));
#1650=SURFACE_STYLE_USAGE(.BOTH.,#1659);
#1651=SURFACE_STYLE_USAGE(.BOTH.,#1660);
#1652=SURFACE_STYLE_USAGE(.BOTH.,#1661);
#1653=SURFACE_STYLE_RENDERING_WITH_PROPERTIES($,#1671,(#1656));
#1654=SURFACE_STYLE_RENDERING_WITH_PROPERTIES($,#1672,(#1657));
#1655=SURFACE_STYLE_RENDERING_WITH_PROPERTIES($,#1673,(#1658));
#1656=SURFACE_STYLE_TRANSPARENT(0.);
#1657=SURFACE_STYLE_TRANSPARENT(0.);
#1658=SURFACE_STYLE_TRANSPARENT(0.);
#1659=SURFACE_SIDE_STYLE('',(#1662,#1653));
#1660=SURFACE_SIDE_STYLE('',(#1663,#1654));
#1661=SURFACE_SIDE_STYLE('',(#1664,#1655));
#1662=SURFACE_STYLE_FILL_AREA(#1665);
#1663=SURFACE_STYLE_FILL_AREA(#1666);
#1664=SURFACE_STYLE_FILL_AREA(#1667);
#1665=FILL_AREA_STYLE('',(#1668));
#1666=FILL_AREA_STYLE('',(#1669));
#1667=FILL_AREA_STYLE('',(#1670));
#1668=FILL_AREA_STYLE_COLOUR('',#1671);
#1669=FILL_AREA_STYLE_COLOUR('',#1672);
#1670=FILL_AREA_STYLE_COLOUR('',#1673);
#1671=COLOUR_RGB('',0.749019607843137,0.749019607843137,0.749019607843137);
#1672=COLOUR_RGB('',0.96078431372549,0.96078431372549,0.96078431372549);
#1673=COLOUR_RGB('',1.,0.996078431372549,0.964705882352941);
ENDSEC;
END-ISO-10303-21;
