%TF.GenerationSoftware,KiCad,Pcbnew,9.0.7-9.0.7~ubuntu24.04.1*%
%TF.CreationDate,2026-08-17T01:15:09-05:00*%
%TF.ProjectId,CoyotePCB,436f796f-7465-4504-9342-2e6b69636164,1.0*%
%TF.SameCoordinates,Original*%
%TF.FileFunction,Copper,L2,Bot*%
%TF.FilePolarity,Positive*%
%FSLAX46Y46*%
G04 Gerber Fmt 4.6, Leading zero omitted, Abs format (unit mm)*
G04 Created by KiCad (PCBNEW 9.0.7-9.0.7~ubuntu24.04.1) date 2026-08-17 01:15:09*
%MOMM*%
%LPD*%
G01*
G04 APERTURE LIST*
G04 Aperture macros list*
%AMHorizOval*
0 Thick line with rounded ends*
0 $1 width*
0 $2 $3 position (X,Y) of the first rounded end (center of the circle)*
0 $4 $5 position (X,Y) of the second rounded end (center of the circle)*
0 Add line between two ends*
20,1,$1,$2,$3,$4,$5,0*
0 Add two circle primitives to create the rounded ends*
1,1,$1,$2,$3*
1,1,$1,$4,$5*%
%AMRotRect*
0 Rectangle, with rotation*
0 The origin of the aperture is its center*
0 $1 length*
0 $2 width*
0 $3 Rotation angle, in degrees counterclockwise*
0 Add horizontal line*
21,1,$1,$2,0,0,$3*%
G04 Aperture macros list end*
%TA.AperFunction,ComponentPad*%
%ADD10C,1.800000*%
%TD*%
%TA.AperFunction,ComponentPad*%
%ADD11C,1.600000*%
%TD*%
%TA.AperFunction,ComponentPad*%
%ADD12C,1.500000*%
%TD*%
%TA.AperFunction,ComponentPad*%
%ADD13RotRect,1.050000X1.500000X320.000000*%
%TD*%
%TA.AperFunction,ComponentPad*%
%ADD14HorizOval,1.050000X-0.144627X-0.172360X0.144627X0.172360X0*%
%TD*%
%TA.AperFunction,ComponentPad*%
%ADD15C,1.676400*%
%TD*%
%TA.AperFunction,ComponentPad*%
%ADD16C,2.006600*%
%TD*%
%TA.AperFunction,Conductor*%
%ADD17C,0.500000*%
%TD*%
G04 APERTURE END LIST*
D10*
%TO.P,D2,1,K*%
%TO.N,Net-(D2-K)*%
X148440000Y-78400000D03*
%TO.P,D2,2,A*%
%TO.N,+3V0*%
X150980000Y-78400000D03*
%TD*%
D11*
%TO.P,R4,1*%
%TO.N,+3V0*%
X159713402Y-72062319D03*
%TO.P,R4,2*%
%TO.N,Base input*%
X161036602Y-64558084D03*
%TD*%
D12*
%TO.P,R1,1*%
%TO.N,Base input*%
X144775000Y-88835200D03*
%TO.P,R1,2*%
%TO.N,GND*%
X141375000Y-88835200D03*
%TD*%
D11*
%TO.P,R3,1*%
%TO.N,Net-(D2-K)*%
X154950000Y-72000000D03*
%TO.P,R3,2*%
%TO.N,Net-(Q1-C)*%
X144790000Y-72000000D03*
%TD*%
D13*
%TO.P,Q1,1,E*%
%TO.N,GND*%
X149670720Y-66084436D03*
D14*
%TO.P,Q1,2,B*%
%TO.N,Base input*%
X150643596Y-66900776D03*
%TO.P,Q1,3,C*%
%TO.N,Net-(Q1-C)*%
X151616473Y-67717117D03*
%TD*%
D10*
%TO.P,D1,1,K*%
%TO.N,Net-(D1-K)*%
X137660000Y-78400000D03*
%TO.P,D1,2,A*%
%TO.N,+3V0*%
X135120000Y-78400000D03*
%TD*%
D11*
%TO.P,R2,1*%
%TO.N,Net-(D1-K)*%
X131150000Y-72000000D03*
%TO.P,R2,2*%
%TO.N,Net-(Q1-C)*%
X141310000Y-72000000D03*
%TD*%
D15*
%TO.P,B1,1*%
%TO.N,GND*%
X143050000Y-83185200D03*
D16*
%TO.P,B1,2*%
%TO.N,+3V0*%
X143050000Y-103175000D03*
%TD*%
D17*
%TO.N,+3V0*%
X135120000Y-78400000D02*
X135120000Y-78440000D01*
X135150000Y-94435200D02*
X135150000Y-78430000D01*
X154925000Y-78410200D02*
X150950000Y-78410200D01*
X159438402Y-72377119D02*
X159713402Y-72102119D01*
X159725000Y-72073917D02*
X159725000Y-73610200D01*
X149150000Y-99760200D02*
X145735200Y-103175000D01*
X145735200Y-103175000D02*
X143050000Y-103175000D01*
X159713402Y-72102119D02*
X159713402Y-72062319D01*
X143050000Y-103175000D02*
X140539800Y-103175000D01*
X159713402Y-72062319D02*
X159725000Y-72073917D01*
X149150000Y-95710200D02*
X149150000Y-99760200D01*
X150950000Y-93910200D02*
X149150000Y-95710200D01*
X159725000Y-73610200D02*
X154925000Y-78410200D01*
X140539800Y-103175000D02*
X137325000Y-99960200D01*
X150950000Y-78410200D02*
X150950000Y-93910200D01*
X137325000Y-99960200D02*
X137325000Y-96610200D01*
X135150000Y-78430000D02*
X135120000Y-78400000D01*
X137325000Y-96610200D02*
X135150000Y-94435200D01*
%TO.N,Net-(D1-K)*%
X132850000Y-75835200D02*
X131150000Y-74135200D01*
X137700000Y-78400000D02*
X137700000Y-77135200D01*
X136400000Y-75835200D02*
X132850000Y-75835200D01*
X131150000Y-74135200D02*
X131150000Y-72000000D01*
X137700000Y-77135200D02*
X136400000Y-75835200D01*
%TO.N,Base input*%
X148059172Y-69485200D02*
X150643596Y-66900776D01*
X138550000Y-71260200D02*
X140325000Y-69485200D01*
X140325000Y-69485200D02*
X148059172Y-69485200D01*
X138550000Y-73885200D02*
X138550000Y-71260200D01*
X152986288Y-64558084D02*
X161036602Y-64558084D01*
X144775000Y-88835200D02*
X144775000Y-80110200D01*
X144775000Y-80110200D02*
X138550000Y-73885200D01*
X150643596Y-66900776D02*
X152986288Y-64558084D01*
%TO.N,Net-(D2-K)*%
X149900000Y-75535200D02*
X153450000Y-75535200D01*
X148525000Y-78675000D02*
X148525000Y-76910200D01*
X148525000Y-76910200D02*
X149900000Y-75535200D01*
X153450000Y-75535200D02*
X154950000Y-74035200D01*
X154950000Y-74035200D02*
X154950000Y-72000000D01*
%TO.N,Net-(Q1-C)*%
X144790000Y-72000000D02*
X147333590Y-72000000D01*
X141310000Y-72000000D02*
X144790000Y-72000000D01*
X147333590Y-72000000D02*
X151616473Y-67717117D01*
%TD*%
%TA.AperFunction,Conductor*%
%TO.N,+3V0*%
G36*
X142850088Y-102196397D02*
G01*
X142856400Y-102202749D01*
X142857049Y-102204898D01*
X143050541Y-103172706D01*
X143050541Y-103177294D01*
X142857049Y-104145101D01*
X142852067Y-104152542D01*
X142843282Y-104154280D01*
X142841133Y-104153631D01*
X141073235Y-103427978D01*
X141066883Y-103421666D01*
X141065978Y-103417154D01*
X141065978Y-102932845D01*
X141069405Y-102924572D01*
X141073233Y-102922021D01*
X142841134Y-102196368D01*
X142850088Y-102196397D01*
G37*
%TD.AperFunction*%
%TD*%
%TA.AperFunction,Conductor*%
%TO.N,+3V0*%
G36*
X143258864Y-102196367D02*
G01*
X145026765Y-102922021D01*
X145033117Y-102928333D01*
X145034022Y-102932845D01*
X145034022Y-103417154D01*
X145030595Y-103425427D01*
X145026765Y-103427978D01*
X143258866Y-104153631D01*
X143249911Y-104153602D01*
X143243599Y-104147250D01*
X143242952Y-104145108D01*
X143049458Y-103177290D01*
X143049458Y-103172709D01*
X143242951Y-102204895D01*
X143247932Y-102197457D01*
X143256717Y-102195719D01*
X143258864Y-102196367D01*
G37*
%TD.AperFunction*%
%TD*%
%TA.AperFunction,Conductor*%
%TO.N,GND*%
G36*
X158976902Y-57321320D02*
G01*
X159211783Y-57353051D01*
X159236643Y-57359074D01*
X159409321Y-57420360D01*
X159433011Y-57431724D01*
X159541984Y-57499053D01*
X159626889Y-57551512D01*
X159641178Y-57561811D01*
X159816862Y-57708475D01*
X159827859Y-57718856D01*
X160188922Y-58103990D01*
X160199769Y-58117299D01*
X160251370Y-58190413D01*
X160533739Y-58590506D01*
X160541404Y-58602845D01*
X160663771Y-58828308D01*
X160852895Y-59176774D01*
X160858156Y-59187711D01*
X161113433Y-59792618D01*
X161143623Y-59864155D01*
X161147162Y-59873598D01*
X161403666Y-60652874D01*
X161406019Y-60660930D01*
X161631457Y-61542753D01*
X161633003Y-61549604D01*
X161825952Y-62533511D01*
X161826952Y-62539341D01*
X161946255Y-63351041D01*
X161936528Y-63420231D01*
X161890939Y-63473178D01*
X161823962Y-63493072D01*
X161756861Y-63473598D01*
X161750689Y-63469392D01*
X161718214Y-63445798D01*
X161535825Y-63352865D01*
X161341136Y-63289606D01*
X161166597Y-63261962D01*
X161138954Y-63257584D01*
X160934250Y-63257584D01*
X160909931Y-63261435D01*
X160732067Y-63289606D01*
X160537378Y-63352865D01*
X160354988Y-63445799D01*
X160189388Y-63566112D01*
X160044634Y-63710866D01*
X160044630Y-63710871D01*
X160011502Y-63756469D01*
X159956173Y-63799135D01*
X159911184Y-63807584D01*
X152912368Y-63807584D01*
X152767380Y-63836424D01*
X152767374Y-63836426D01*
X152630796Y-63892998D01*
X152630784Y-63893005D01*
X152581558Y-63925895D01*
X152581559Y-63925896D01*
X152507869Y-63975133D01*
X152507866Y-63975136D01*
X150892125Y-65590876D01*
X150830802Y-65624361D01*
X150761110Y-65619377D01*
X150724738Y-65598184D01*
X150460553Y-65376506D01*
X150007048Y-65916973D01*
X149970795Y-65854181D01*
X149900975Y-65784361D01*
X149815465Y-65734992D01*
X149776815Y-65724635D01*
X150230739Y-65183671D01*
X149909156Y-64913832D01*
X149888076Y-64899940D01*
X149888074Y-64899939D01*
X149780360Y-64868692D01*
X149780353Y-64868691D01*
X149668625Y-64878467D01*
X149567971Y-64927944D01*
X149567962Y-64927950D01*
X149549620Y-64945284D01*
X149549607Y-64945298D01*
X149135150Y-65439228D01*
X149503258Y-65748107D01*
X149440465Y-65784361D01*
X149370645Y-65854181D01*
X149321276Y-65939691D01*
X149310920Y-65978338D01*
X148942315Y-65669042D01*
X148942314Y-65669042D01*
X148527849Y-66162986D01*
X148513957Y-66184066D01*
X148513956Y-66184068D01*
X148482709Y-66291782D01*
X148482708Y-66291789D01*
X148492484Y-66403517D01*
X148541961Y-66504171D01*
X148541967Y-66504180D01*
X148559301Y-66522522D01*
X148559306Y-66522526D01*
X148880885Y-66792363D01*
X149334390Y-66251896D01*
X149370645Y-66314691D01*
X149440465Y-66384511D01*
X149525975Y-66433880D01*
X149564622Y-66444235D01*
X149110699Y-66985199D01*
X149110699Y-66985200D01*
X149217521Y-67074833D01*
X149256224Y-67133004D01*
X149257333Y-67202865D01*
X149225497Y-67257504D01*
X147784623Y-68698381D01*
X147723300Y-68731866D01*
X147696942Y-68734700D01*
X140251080Y-68734700D01*
X140106092Y-68763540D01*
X140106082Y-68763543D01*
X139969509Y-68820113D01*
X139944024Y-68837142D01*
X139846579Y-68902251D01*
X139846578Y-68902252D01*
X137967047Y-70781784D01*
X137967043Y-70781789D01*
X137942461Y-70818581D01*
X137942461Y-70818582D01*
X137884913Y-70904708D01*
X137828343Y-71041282D01*
X137828340Y-71041292D01*
X137799500Y-71186279D01*
X137799500Y-71186282D01*
X137799500Y-73959118D01*
X137799500Y-73959120D01*
X137799499Y-73959120D01*
X137828340Y-74104107D01*
X137828343Y-74104117D01*
X137884913Y-74240690D01*
X137884914Y-74240692D01*
X137908028Y-74275284D01*
X137908029Y-74275286D01*
X137967043Y-74363610D01*
X137967047Y-74363615D01*
X137967048Y-74363616D01*
X140990673Y-77387241D01*
X143988181Y-80384748D01*
X144021666Y-80446071D01*
X144024500Y-80472429D01*
X144024500Y-82371468D01*
X144004815Y-82438507D01*
X143988181Y-82459149D01*
X143555309Y-82892021D01*
X143517476Y-82826493D01*
X143408707Y-82717724D01*
X143343177Y-82679890D01*
X143741995Y-82281071D01*
X143741995Y-82281070D01*
X143646550Y-82211726D01*
X143486914Y-82130386D01*
X143316530Y-82075026D01*
X143139583Y-82047000D01*
X142960417Y-82047000D01*
X142783469Y-82075026D01*
X142613085Y-82130386D01*
X142453456Y-82211722D01*
X142358003Y-82281071D01*
X142756822Y-82679890D01*
X142691293Y-82717724D01*
X142582524Y-82826493D01*
X142544690Y-82892022D01*
X142145871Y-82493203D01*
X142076522Y-82588656D01*
X141995186Y-82748285D01*
X141939826Y-82918669D01*
X141911800Y-83095616D01*
X141911800Y-83274783D01*
X141939826Y-83451730D01*
X141995186Y-83622114D01*
X142076526Y-83781750D01*
X142145870Y-83877195D01*
X142145871Y-83877195D01*
X142544689Y-83478377D01*
X142582524Y-83543907D01*
X142691293Y-83652676D01*
X142756821Y-83690509D01*
X142358002Y-84089327D01*
X142358003Y-84089328D01*
X142453449Y-84158673D01*
X142613085Y-84240013D01*
X142783469Y-84295373D01*
X142960417Y-84323400D01*
X143139583Y-84323400D01*
X143316530Y-84295373D01*
X143486914Y-84240013D01*
X143646547Y-84158675D01*
X143741995Y-84089327D01*
X143741996Y-84089327D01*
X143343178Y-83690509D01*
X143408707Y-83652676D01*
X143517476Y-83543907D01*
X143555309Y-83478377D01*
X143988181Y-83911249D01*
X144021666Y-83972572D01*
X144024500Y-83998930D01*
X144024500Y-87771585D01*
X144004815Y-87838624D01*
X143973388Y-87871901D01*
X143960356Y-87881369D01*
X143821171Y-88020555D01*
X143705476Y-88179794D01*
X143616117Y-88355170D01*
X143555290Y-88542373D01*
X143524500Y-88736777D01*
X143524500Y-88933622D01*
X143555290Y-89128026D01*
X143616117Y-89315229D01*
X143692452Y-89465044D01*
X143705476Y-89490605D01*
X143821172Y-89649846D01*
X143960354Y-89789028D01*
X144119595Y-89904724D01*
X144178996Y-89934990D01*
X144294970Y-89994082D01*
X144294972Y-89994082D01*
X144294975Y-89994084D01*
X144395317Y-90026687D01*
X144482173Y-90054909D01*
X144676578Y-90085700D01*
X144676583Y-90085700D01*
X144873422Y-90085700D01*
X145067826Y-90054909D01*
X145077671Y-90051710D01*
X145255025Y-89994084D01*
X145430405Y-89904724D01*
X145589646Y-89789028D01*
X145728828Y-89649846D01*
X145844524Y-89490605D01*
X145933884Y-89315225D01*
X145994709Y-89128026D01*
X146004831Y-89064117D01*
X146025500Y-88933622D01*
X146025500Y-88736777D01*
X145994709Y-88542373D01*
X145957599Y-88428161D01*
X145933884Y-88355175D01*
X145933882Y-88355172D01*
X145933882Y-88355170D01*
X145877358Y-88244235D01*
X145844524Y-88179795D01*
X145728828Y-88020554D01*
X145589646Y-87881372D01*
X145589645Y-87881371D01*
X145589643Y-87881369D01*
X145576612Y-87871901D01*
X145533948Y-87816570D01*
X145525500Y-87771585D01*
X145525500Y-80036279D01*
X145496659Y-79891292D01*
X145496658Y-79891291D01*
X145496658Y-79891287D01*
X145479938Y-79850921D01*
X145440087Y-79754711D01*
X145440080Y-79754698D01*
X145357952Y-79631785D01*
X145308406Y-79582239D01*
X145253416Y-79527249D01*
X142295229Y-76569062D01*
X139336819Y-73610651D01*
X139303334Y-73549328D01*
X139300500Y-73522970D01*
X139300500Y-71622430D01*
X139320185Y-71555391D01*
X139336819Y-71534749D01*
X140599549Y-70272019D01*
X140660872Y-70238534D01*
X140687230Y-70235700D01*
X147737160Y-70235700D01*
X147804199Y-70255385D01*
X147849954Y-70308189D01*
X147859898Y-70377347D01*
X147830873Y-70440903D01*
X147824841Y-70447381D01*
X147059041Y-71213181D01*
X146997718Y-71246666D01*
X146971360Y-71249500D01*
X145915418Y-71249500D01*
X145848379Y-71229815D01*
X145815100Y-71198385D01*
X145781971Y-71152787D01*
X145781967Y-71152782D01*
X145637213Y-71008028D01*
X145471613Y-70887715D01*
X145471612Y-70887714D01*
X145471610Y-70887713D01*
X145411527Y-70857099D01*
X145289223Y-70794781D01*
X145094534Y-70731522D01*
X144919995Y-70703878D01*
X144892352Y-70699500D01*
X144687648Y-70699500D01*
X144663329Y-70703351D01*
X144485465Y-70731522D01*
X144290776Y-70794781D01*
X144108386Y-70887715D01*
X143942786Y-71008028D01*
X143798032Y-71152782D01*
X143798028Y-71152787D01*
X143764900Y-71198385D01*
X143709571Y-71241051D01*
X143664582Y-71249500D01*
X142435418Y-71249500D01*
X142368379Y-71229815D01*
X142335100Y-71198385D01*
X142301971Y-71152787D01*
X142301967Y-71152782D01*
X142157213Y-71008028D01*
X141991613Y-70887715D01*
X141991612Y-70887714D01*
X141991610Y-70887713D01*
X141931527Y-70857099D01*
X141809223Y-70794781D01*
X141614534Y-70731522D01*
X141439995Y-70703878D01*
X141412352Y-70699500D01*
X141207648Y-70699500D01*
X141183329Y-70703351D01*
X141005465Y-70731522D01*
X140810776Y-70794781D01*
X140628386Y-70887715D01*
X140462786Y-71008028D01*
X140318028Y-71152786D01*
X140197715Y-71318386D01*
X140104781Y-71500776D01*
X140041522Y-71695465D01*
X140009500Y-71897648D01*
X140009500Y-72102351D01*
X140041522Y-72304534D01*
X140104781Y-72499223D01*
X140197715Y-72681613D01*
X140318028Y-72847213D01*
X140462786Y-72991971D01*
X140611719Y-73100175D01*
X140628390Y-73112287D01*
X140740188Y-73169251D01*
X140810776Y-73205218D01*
X140810778Y-73205218D01*
X140810781Y-73205220D01*
X140898692Y-73233784D01*
X141005465Y-73268477D01*
X141092323Y-73282234D01*
X141207648Y-73300500D01*
X141207649Y-73300500D01*
X141412351Y-73300500D01*
X141412352Y-73300500D01*
X141614534Y-73268477D01*
X141809219Y-73205220D01*
X141991610Y-73112287D01*
X142107640Y-73027987D01*
X142157213Y-72991971D01*
X142157215Y-72991968D01*
X142157219Y-72991966D01*
X142301966Y-72847219D01*
X142304650Y-72843524D01*
X142335100Y-72801615D01*
X142390429Y-72758949D01*
X142435418Y-72750500D01*
X143664582Y-72750500D01*
X143731621Y-72770185D01*
X143764900Y-72801615D01*
X143798028Y-72847212D01*
X143798032Y-72847217D01*
X143942786Y-72991971D01*
X144091719Y-73100175D01*
X144108390Y-73112287D01*
X144220188Y-73169251D01*
X144290776Y-73205218D01*
X144290778Y-73205218D01*
X144290781Y-73205220D01*
X144378692Y-73233784D01*
X144485465Y-73268477D01*
X144572323Y-73282234D01*
X144687648Y-73300500D01*
X144687649Y-73300500D01*
X144892351Y-73300500D01*
X144892352Y-73300500D01*
X145094534Y-73268477D01*
X145289219Y-73205220D01*
X145471610Y-73112287D01*
X145587640Y-73027987D01*
X145637213Y-72991971D01*
X145637215Y-72991968D01*
X145637219Y-72991966D01*
X145781966Y-72847219D01*
X145784650Y-72843524D01*
X145815100Y-72801615D01*
X145870429Y-72758949D01*
X145915418Y-72750500D01*
X147407510Y-72750500D01*
X147505052Y-72731096D01*
X147552503Y-72721658D01*
X147689085Y-72665084D01*
X147756832Y-72619817D01*
X147812006Y-72582952D01*
X151444554Y-68950401D01*
X151505875Y-68916918D01*
X151521416Y-68914557D01*
X151661844Y-68902272D01*
X151855779Y-68845744D01*
X152034961Y-68752468D01*
X152192502Y-68626028D01*
X152611603Y-68126562D01*
X152708765Y-67949459D01*
X152769509Y-67756802D01*
X152791501Y-67555997D01*
X152773895Y-67354759D01*
X152717367Y-67160824D01*
X152624091Y-66981642D01*
X152497651Y-66824101D01*
X152342905Y-66694254D01*
X152342904Y-66694253D01*
X152268743Y-66653567D01*
X152209244Y-66620925D01*
X152159938Y-66571423D01*
X152145222Y-66503121D01*
X152169768Y-66437705D01*
X152181199Y-66424539D01*
X153260837Y-65344903D01*
X153322160Y-65311418D01*
X153348518Y-65308584D01*
X159911184Y-65308584D01*
X159978223Y-65328269D01*
X160011502Y-65359699D01*
X160044630Y-65405296D01*
X160044634Y-65405301D01*
X160189388Y-65550055D01*
X160291664Y-65624361D01*
X160354992Y-65670371D01*
X160443800Y-65715621D01*
X160537378Y-65763302D01*
X160537380Y-65763302D01*
X160537383Y-65763304D01*
X160602190Y-65784361D01*
X160732067Y-65826561D01*
X160833159Y-65842572D01*
X160934250Y-65858584D01*
X160934251Y-65858584D01*
X161138953Y-65858584D01*
X161138954Y-65858584D01*
X161341136Y-65826561D01*
X161535821Y-65763304D01*
X161718212Y-65670371D01*
X161817570Y-65598184D01*
X161883815Y-65550055D01*
X161883817Y-65550052D01*
X161883821Y-65550050D01*
X161901359Y-65532511D01*
X161920185Y-65522231D01*
X161936236Y-65507997D01*
X161950239Y-65505818D01*
X161962679Y-65499026D01*
X161984077Y-65500555D01*
X162005275Y-65497259D01*
X162018233Y-65502998D01*
X162032371Y-65504009D01*
X162049545Y-65516865D01*
X162069160Y-65525552D01*
X162076958Y-65537385D01*
X162088305Y-65545879D01*
X162095802Y-65565978D01*
X162107608Y-65583892D01*
X162111271Y-65607450D01*
X162112724Y-65611343D01*
X162113032Y-65618767D01*
X162115654Y-65846916D01*
X162115662Y-65848532D01*
X162114884Y-66354705D01*
X162114872Y-66356222D01*
X162107903Y-66862132D01*
X162107871Y-66863720D01*
X162094948Y-67349664D01*
X162094885Y-67351529D01*
X162076303Y-67797606D01*
X162076174Y-67800084D01*
X162052449Y-68184463D01*
X162052154Y-68188291D01*
X162024022Y-68491203D01*
X162023462Y-68496149D01*
X162008730Y-68606469D01*
X162008218Y-68609930D01*
X161964384Y-68879884D01*
X161964130Y-68881391D01*
X161912815Y-69174534D01*
X161912582Y-69175823D01*
X161859408Y-69461776D01*
X161859134Y-69463203D01*
X161809351Y-69714496D01*
X161808904Y-69716651D01*
X161768513Y-69903112D01*
X161767511Y-69907373D01*
X161746127Y-69991603D01*
X161745330Y-69994586D01*
X161729628Y-70050552D01*
X161728732Y-70056784D01*
X161727994Y-70063029D01*
X161728760Y-70121141D01*
X161728763Y-70124222D01*
X161728715Y-70128330D01*
X161727125Y-70146723D01*
X161724037Y-70165766D01*
X161724037Y-70165772D01*
X161727128Y-70196245D01*
X161727835Y-70203211D01*
X161727394Y-70240829D01*
X161734454Y-70268473D01*
X161735388Y-70277678D01*
X161735389Y-70277684D01*
X161737337Y-70296883D01*
X161748209Y-70325517D01*
X161748208Y-70325517D01*
X161750698Y-70332077D01*
X161760005Y-70368515D01*
X161773978Y-70393388D01*
X161777261Y-70402033D01*
X161777266Y-70402042D01*
X161784117Y-70420085D01*
X161802030Y-70444930D01*
X161809550Y-70456707D01*
X161824549Y-70483405D01*
X161824556Y-70483414D01*
X161838028Y-70497207D01*
X161838029Y-70497207D01*
X161844495Y-70503826D01*
X161861190Y-70526981D01*
X161890345Y-70550766D01*
X161895239Y-70555776D01*
X161895241Y-70555778D01*
X161916636Y-70577682D01*
X161916635Y-70577682D01*
X161929341Y-70585218D01*
X161941188Y-70592244D01*
X161963304Y-70610287D01*
X161997619Y-70625714D01*
X162029983Y-70644910D01*
X162035021Y-70646323D01*
X162048876Y-70651109D01*
X162059106Y-70655335D01*
X162073134Y-70664325D01*
X162106790Y-70675035D01*
X162111584Y-70677016D01*
X162111988Y-70677340D01*
X162115076Y-70678522D01*
X162142564Y-70690880D01*
X162171134Y-70695511D01*
X162198713Y-70704288D01*
X162235896Y-70706010D01*
X162269148Y-70711401D01*
X162332173Y-70741561D01*
X162368887Y-70801007D01*
X162373200Y-70828743D01*
X162379141Y-70974204D01*
X162379126Y-70984679D01*
X162368651Y-71224311D01*
X162367720Y-71234991D01*
X162303372Y-71726536D01*
X162299977Y-71743340D01*
X162175091Y-72197179D01*
X162169650Y-72212795D01*
X161963346Y-72698055D01*
X161959907Y-72705457D01*
X161923750Y-72777022D01*
X161923528Y-72777460D01*
X161847374Y-72926721D01*
X161839607Y-72938399D01*
X161840119Y-72938729D01*
X161835722Y-72945567D01*
X161811784Y-72996342D01*
X161810081Y-72999813D01*
X161784568Y-73049821D01*
X161781850Y-73057482D01*
X161781277Y-73057278D01*
X161776792Y-73070566D01*
X161760245Y-73105666D01*
X161752000Y-73120446D01*
X161739366Y-73139850D01*
X161739365Y-73139852D01*
X161731062Y-73165299D01*
X161729925Y-73168623D01*
X161727899Y-73174281D01*
X161713928Y-73203919D01*
X161710501Y-73222884D01*
X161707958Y-73229990D01*
X161691013Y-73287859D01*
X161689895Y-73291472D01*
X161672413Y-73345054D01*
X161672413Y-73345056D01*
X161671997Y-73352808D01*
X161669816Y-73360258D01*
X161668474Y-73418463D01*
X161668372Y-73420374D01*
X161665354Y-73476651D01*
X161665409Y-73477357D01*
X161666938Y-73485146D01*
X161666781Y-73492007D01*
X161674560Y-73523967D01*
X161675098Y-73526706D01*
X161674875Y-73529128D01*
X161675508Y-73534254D01*
X161676308Y-73534147D01*
X161677395Y-73542200D01*
X161684635Y-73568873D01*
X161686287Y-73575722D01*
X161692598Y-73605595D01*
X161695301Y-73613257D01*
X161694964Y-73613375D01*
X161698297Y-73621876D01*
X161698956Y-73624193D01*
X161706963Y-73657084D01*
X161709792Y-73662256D01*
X161711622Y-73668683D01*
X161711914Y-73669380D01*
X161711915Y-73669383D01*
X161741740Y-73720659D01*
X161770209Y-73772700D01*
X161774818Y-73777526D01*
X161778174Y-73783295D01*
X161778181Y-73783304D01*
X161819114Y-73823973D01*
X161820273Y-73825125D01*
X161861224Y-73868007D01*
X161866923Y-73871475D01*
X161871661Y-73876182D01*
X161871663Y-73876183D01*
X161871664Y-73876184D01*
X161921737Y-73904878D01*
X161923154Y-73905690D01*
X161973805Y-73936510D01*
X161980204Y-73938383D01*
X161985993Y-73941700D01*
X161986002Y-73941705D01*
X162041874Y-73956481D01*
X162044801Y-73957296D01*
X162076848Y-73966680D01*
X162135649Y-74004407D01*
X162164722Y-74067941D01*
X162164448Y-74105228D01*
X162152841Y-74177939D01*
X162146283Y-74202495D01*
X162070500Y-74401635D01*
X162063949Y-74416017D01*
X161922345Y-74680757D01*
X161916422Y-74690687D01*
X161722093Y-74984440D01*
X161716362Y-74992401D01*
X161483808Y-75289843D01*
X161477657Y-75297115D01*
X161221982Y-75576900D01*
X161214601Y-75584323D01*
X160950818Y-75828073D01*
X160941627Y-75835777D01*
X160704541Y-76015710D01*
X160700296Y-76018792D01*
X160617332Y-76076394D01*
X160606422Y-76083159D01*
X160577074Y-76099318D01*
X160577063Y-76099326D01*
X160565242Y-76110676D01*
X160564559Y-76111327D01*
X160557761Y-76117754D01*
X160536620Y-76132434D01*
X160514168Y-76158974D01*
X160509145Y-76163725D01*
X160504140Y-76166278D01*
X160496797Y-76172651D01*
X160497015Y-76172914D01*
X160490751Y-76178101D01*
X160458136Y-76213235D01*
X160453144Y-76218312D01*
X160418561Y-76251519D01*
X160417588Y-76253129D01*
X160402377Y-76273302D01*
X160401098Y-76274679D01*
X160378679Y-76317072D01*
X160377018Y-76320214D01*
X160350367Y-76364285D01*
X160346308Y-76378287D01*
X160340370Y-76389517D01*
X160339489Y-76391182D01*
X160328807Y-76437930D01*
X160328808Y-76437931D01*
X160328013Y-76441409D01*
X160313681Y-76490859D01*
X160313384Y-76505436D01*
X160310557Y-76517809D01*
X160310557Y-76517813D01*
X160310136Y-76519653D01*
X160311917Y-76567562D01*
X160312001Y-76572875D01*
X160311995Y-76573794D01*
X160311005Y-76622617D01*
X160311700Y-76625442D01*
X160311641Y-76635937D01*
X160311254Y-76637227D01*
X160311392Y-76643110D01*
X160310913Y-76650623D01*
X160310913Y-76650630D01*
X160313969Y-76665849D01*
X160316308Y-76685639D01*
X160316885Y-76701149D01*
X160327012Y-76734010D01*
X160328857Y-76739996D01*
X160336857Y-76779836D01*
X160348182Y-76802698D01*
X160351127Y-76812253D01*
X160355699Y-76827084D01*
X160355702Y-76827091D01*
X160373986Y-76856206D01*
X160380087Y-76867103D01*
X160395356Y-76897922D01*
X160395359Y-76897928D01*
X160405606Y-76909569D01*
X160405608Y-76909571D01*
X160412217Y-76917080D01*
X160425788Y-76938689D01*
X160455567Y-76966332D01*
X160459692Y-76971019D01*
X160459700Y-76971027D01*
X160482427Y-76996848D01*
X160503671Y-77010987D01*
X160522373Y-77028348D01*
X160558299Y-77047346D01*
X160599503Y-77074770D01*
X160604662Y-77078396D01*
X160644812Y-77108180D01*
X160656851Y-77112939D01*
X160667624Y-77120109D01*
X160717952Y-77137092D01*
X160799708Y-77169410D01*
X160814054Y-77176988D01*
X160814112Y-77176873D01*
X160821372Y-77180511D01*
X160821375Y-77180513D01*
X160873511Y-77198584D01*
X160924832Y-77218871D01*
X160935625Y-77220112D01*
X160948508Y-77224578D01*
X160948509Y-77224578D01*
X160948510Y-77224579D01*
X161053718Y-77261046D01*
X161075393Y-77270985D01*
X161080194Y-77273775D01*
X161122939Y-77285352D01*
X161131127Y-77287877D01*
X161147109Y-77293416D01*
X161172984Y-77302385D01*
X161172983Y-77302385D01*
X161178515Y-77302783D01*
X161202036Y-77306775D01*
X161771440Y-77460996D01*
X161779786Y-77463256D01*
X161808292Y-77475434D01*
X161843118Y-77480410D01*
X161877071Y-77489606D01*
X161899432Y-77489665D01*
X161916617Y-77490911D01*
X162475791Y-77570807D01*
X162551223Y-77581585D01*
X162561155Y-77583004D01*
X162585408Y-77590595D01*
X162626116Y-77592286D01*
X162666455Y-77598050D01*
X162679888Y-77596431D01*
X162681728Y-77596210D01*
X162701704Y-77595426D01*
X163277003Y-77619329D01*
X163286107Y-77621811D01*
X163342707Y-77622058D01*
X163393969Y-77624188D01*
X163460131Y-77646640D01*
X163503654Y-77701299D01*
X163510716Y-77770811D01*
X163479076Y-77833106D01*
X163476652Y-77835608D01*
X163369919Y-77942717D01*
X163360061Y-77951603D01*
X163139507Y-78129983D01*
X163129382Y-78137359D01*
X162937321Y-78262918D01*
X162932121Y-78266137D01*
X162661278Y-78424712D01*
X162643064Y-78433468D01*
X162629231Y-78438777D01*
X162629228Y-78438778D01*
X162629227Y-78438779D01*
X162629224Y-78438780D01*
X162629219Y-78438784D01*
X162600831Y-78459405D01*
X162595884Y-78462998D01*
X162560343Y-78483809D01*
X162542809Y-78501556D01*
X162534602Y-78507519D01*
X162534603Y-78507519D01*
X162522610Y-78516232D01*
X162522609Y-78516233D01*
X162500529Y-78543498D01*
X162500528Y-78543498D01*
X162496672Y-78548258D01*
X162467726Y-78577560D01*
X162455384Y-78599239D01*
X162449000Y-78607122D01*
X162448999Y-78607125D01*
X162439673Y-78618641D01*
X162439666Y-78618652D01*
X162425396Y-78650699D01*
X162422908Y-78656285D01*
X162402529Y-78692086D01*
X162396214Y-78716235D01*
X162392092Y-78725493D01*
X162386062Y-78739035D01*
X162386062Y-78739036D01*
X162380572Y-78773686D01*
X162378069Y-78785640D01*
X162369195Y-78819584D01*
X162369194Y-78819591D01*
X162369284Y-78834403D01*
X162369323Y-78840778D01*
X162369346Y-78844543D01*
X162365441Y-78869197D01*
X162369744Y-78910162D01*
X162369782Y-78916281D01*
X162369783Y-78916282D01*
X162369997Y-78951368D01*
X162369997Y-78951369D01*
X162373918Y-78965654D01*
X162377661Y-78985513D01*
X162379210Y-79000256D01*
X162379210Y-79000258D01*
X162379211Y-79000259D01*
X162390491Y-79029650D01*
X162391782Y-79033012D01*
X162391781Y-79033012D01*
X162393976Y-79038732D01*
X162404879Y-79078451D01*
X162417485Y-79099983D01*
X162421116Y-79109444D01*
X162421117Y-79109445D01*
X162426432Y-79123292D01*
X162447055Y-79151680D01*
X162450652Y-79156631D01*
X162471463Y-79192177D01*
X162489218Y-79209717D01*
X162503889Y-79229912D01*
X162503891Y-79229914D01*
X162503892Y-79229915D01*
X162524383Y-79246509D01*
X162535908Y-79255842D01*
X162565214Y-79284794D01*
X162586904Y-79297141D01*
X162606302Y-79312851D01*
X162606304Y-79312852D01*
X162606303Y-79312852D01*
X162638343Y-79327118D01*
X162649246Y-79332630D01*
X162679740Y-79349991D01*
X162694083Y-79353740D01*
X162713147Y-79360426D01*
X162929673Y-79456841D01*
X162936292Y-79460027D01*
X163202139Y-79597815D01*
X163504841Y-79754705D01*
X163572386Y-79789713D01*
X163584351Y-79796791D01*
X164174492Y-80192245D01*
X164185024Y-80200147D01*
X164733351Y-80658938D01*
X164742843Y-80667764D01*
X165236561Y-81177497D01*
X165245272Y-81187511D01*
X165672238Y-81734982D01*
X165680276Y-81746599D01*
X165972317Y-82224693D01*
X166029638Y-82318531D01*
X166036767Y-82331996D01*
X166219408Y-82735112D01*
X166223243Y-82762368D01*
X166230432Y-82788934D01*
X166228043Y-82796470D01*
X166229145Y-82804300D01*
X166217635Y-82829303D01*
X166209320Y-82855538D01*
X166203236Y-82860586D01*
X166199930Y-82867769D01*
X166176731Y-82882579D01*
X166155551Y-82900155D01*
X166147702Y-82901112D01*
X166141039Y-82905367D01*
X166113517Y-82905284D01*
X166086196Y-82908619D01*
X166075315Y-82905170D01*
X166071169Y-82905158D01*
X166052559Y-82897958D01*
X166014535Y-82879602D01*
X166012882Y-82878787D01*
X165616568Y-82679745D01*
X165604500Y-82672810D01*
X165601846Y-82671080D01*
X165601845Y-82671079D01*
X165547643Y-82645105D01*
X165545598Y-82644102D01*
X165491883Y-82617125D01*
X165488894Y-82616085D01*
X165488894Y-82616086D01*
X165486399Y-82615219D01*
X165486398Y-82615218D01*
X165486379Y-82615212D01*
X165486372Y-82615209D01*
X165486017Y-82615115D01*
X165483002Y-82614129D01*
X165423928Y-82603070D01*
X165421672Y-82602626D01*
X165362818Y-82590474D01*
X165359650Y-82590242D01*
X165359650Y-82590243D01*
X165357045Y-82590053D01*
X165357027Y-82590052D01*
X165357017Y-82590051D01*
X165356637Y-82590052D01*
X165353463Y-82589879D01*
X165293529Y-82594486D01*
X165293530Y-82594487D01*
X165292339Y-82594578D01*
X165231260Y-82598136D01*
X165226783Y-82599619D01*
X165222077Y-82599981D01*
X165222070Y-82599983D01*
X165165375Y-82619942D01*
X165165376Y-82619943D01*
X165164277Y-82620329D01*
X165106164Y-82639587D01*
X165102220Y-82642180D01*
X165098116Y-82643625D01*
X165097763Y-82643750D01*
X165048152Y-82677712D01*
X165048153Y-82677713D01*
X165047186Y-82678374D01*
X164996060Y-82712002D01*
X164992922Y-82715527D01*
X164989025Y-82718196D01*
X164989021Y-82718199D01*
X164949901Y-82763834D01*
X164949902Y-82763835D01*
X164949158Y-82764703D01*
X164908449Y-82810447D01*
X164906333Y-82814658D01*
X164903256Y-82818249D01*
X164877282Y-82872452D01*
X164877283Y-82872453D01*
X164876777Y-82873507D01*
X164849303Y-82928213D01*
X164848348Y-82932834D01*
X164846308Y-82937093D01*
X164839573Y-82973068D01*
X164835035Y-82997309D01*
X164822653Y-83057275D01*
X164822926Y-83061980D01*
X164822057Y-83066626D01*
X164826665Y-83126563D01*
X164826756Y-83127746D01*
X164830314Y-83188836D01*
X164831798Y-83193314D01*
X164832160Y-83198020D01*
X164832160Y-83198022D01*
X164832161Y-83198025D01*
X164852502Y-83255800D01*
X164871765Y-83313932D01*
X164874358Y-83317875D01*
X164875928Y-83322333D01*
X164909901Y-83371957D01*
X164910560Y-83372919D01*
X164944180Y-83424036D01*
X164947703Y-83427171D01*
X164954744Y-83437455D01*
X164954747Y-83437459D01*
X165140760Y-83709159D01*
X165144764Y-83715400D01*
X165542840Y-84378696D01*
X165549282Y-84390928D01*
X165875652Y-85104481D01*
X165880360Y-85116354D01*
X166139628Y-85883444D01*
X166142942Y-85895101D01*
X166330181Y-86701447D01*
X166332304Y-86713084D01*
X166443276Y-87544258D01*
X166444283Y-87556093D01*
X166475734Y-88407963D01*
X166474994Y-88410874D01*
X166475766Y-88416118D01*
X166467650Y-88697096D01*
X166467469Y-88701119D01*
X166464398Y-88751113D01*
X166440640Y-88816819D01*
X166385130Y-88859250D01*
X166315492Y-88864935D01*
X166253835Y-88832068D01*
X166238416Y-88813710D01*
X166234455Y-88807942D01*
X166226956Y-88795521D01*
X166226936Y-88795483D01*
X166191328Y-88745129D01*
X166190357Y-88743737D01*
X166182147Y-88731783D01*
X166155504Y-88692990D01*
X166155501Y-88692988D01*
X166155501Y-88692987D01*
X166155475Y-88692958D01*
X166146419Y-88681622D01*
X166127487Y-88654851D01*
X166117268Y-88640399D01*
X166110149Y-88629085D01*
X166107143Y-88623682D01*
X166107141Y-88623676D01*
X166107137Y-88623670D01*
X166107135Y-88623667D01*
X166072147Y-88576537D01*
X166070466Y-88574217D01*
X166036602Y-88526328D01*
X166032388Y-88521772D01*
X166023856Y-88511487D01*
X166019047Y-88505009D01*
X166008062Y-88487266D01*
X166002101Y-88475534D01*
X165977547Y-88448201D01*
X165975415Y-88445765D01*
X165972715Y-88442597D01*
X165948337Y-88409759D01*
X165941852Y-88404617D01*
X165933189Y-88396216D01*
X165933186Y-88396213D01*
X165918064Y-88381550D01*
X165912141Y-88375396D01*
X165879401Y-88338951D01*
X165876833Y-88336753D01*
X165876831Y-88336750D01*
X165875379Y-88335507D01*
X165872158Y-88333460D01*
X165852354Y-88317832D01*
X165851923Y-88317414D01*
X165851915Y-88317408D01*
X165816847Y-88297875D01*
X165810924Y-88294358D01*
X165810280Y-88293951D01*
X165768952Y-88267046D01*
X165766415Y-88266218D01*
X165764045Y-88264720D01*
X165760726Y-88263678D01*
X165737541Y-88253702D01*
X165736793Y-88253286D01*
X165736792Y-88253285D01*
X165736791Y-88253285D01*
X165697125Y-88243308D01*
X165690523Y-88241452D01*
X165689674Y-88241188D01*
X165643665Y-88226181D01*
X165641000Y-88226037D01*
X165638322Y-88225204D01*
X165635116Y-88225068D01*
X165610164Y-88221437D01*
X165608989Y-88221141D01*
X165567105Y-88221786D01*
X165560270Y-88221703D01*
X165559387Y-88221667D01*
X165512068Y-88219135D01*
X165509476Y-88219682D01*
X165506671Y-88219571D01*
X165503871Y-88220195D01*
X165478825Y-88223146D01*
X165477225Y-88223170D01*
X165477218Y-88223171D01*
X165435805Y-88234953D01*
X165429221Y-88236632D01*
X165428294Y-88236841D01*
X165383133Y-88246388D01*
X165380781Y-88247582D01*
X165378038Y-88248203D01*
X165375856Y-88249343D01*
X165352431Y-88258675D01*
X165350465Y-88259234D01*
X165312426Y-88281984D01*
X165306532Y-88285295D01*
X165305754Y-88285704D01*
X165265645Y-88306085D01*
X165263684Y-88307845D01*
X165260969Y-88309274D01*
X165260829Y-88309372D01*
X165259309Y-88310768D01*
X165239131Y-88325819D01*
X165237373Y-88326870D01*
X165237365Y-88326876D01*
X165205633Y-88359600D01*
X165200693Y-88364418D01*
X165200033Y-88365026D01*
X165167611Y-88394154D01*
X165166334Y-88396113D01*
X165163828Y-88398425D01*
X165163757Y-88398510D01*
X165162663Y-88400232D01*
X165147051Y-88420014D01*
X165145630Y-88421479D01*
X165145623Y-88421488D01*
X165122863Y-88462347D01*
X165119260Y-88468404D01*
X165118814Y-88469106D01*
X165095711Y-88504597D01*
X165095074Y-88506546D01*
X165093088Y-88509680D01*
X165093066Y-88509728D01*
X165092455Y-88511673D01*
X165082492Y-88534830D01*
X165081499Y-88536611D01*
X165081498Y-88536615D01*
X165069841Y-88582959D01*
X165067888Y-88589869D01*
X165067648Y-88590631D01*
X165054846Y-88629884D01*
X165054748Y-88631698D01*
X165053570Y-88635449D01*
X165053569Y-88635456D01*
X165053483Y-88637487D01*
X165049853Y-88662436D01*
X165049355Y-88664412D01*
X165049354Y-88664421D01*
X165050089Y-88712181D01*
X165049992Y-88719366D01*
X165049780Y-88724341D01*
X165049715Y-88725688D01*
X165048126Y-88755382D01*
X165046931Y-88767151D01*
X165046901Y-88767344D01*
X165050893Y-88802554D01*
X165051667Y-88814609D01*
X165052212Y-88850024D01*
X165052213Y-88850030D01*
X165056172Y-88863945D01*
X165060115Y-88883908D01*
X165060746Y-88889475D01*
X165060704Y-88903077D01*
X165061408Y-88903070D01*
X165061497Y-88911194D01*
X165069534Y-88967456D01*
X165069990Y-88971019D01*
X165076393Y-89027492D01*
X165078356Y-89035383D01*
X165077669Y-89035553D01*
X165081143Y-89048708D01*
X165085758Y-89081014D01*
X165086801Y-89093646D01*
X165096474Y-89156080D01*
X165096685Y-89157496D01*
X165096765Y-89158055D01*
X165097405Y-89163324D01*
X165115022Y-89340074D01*
X165115520Y-89347091D01*
X165126740Y-89610304D01*
X165126844Y-89614050D01*
X165130948Y-89945628D01*
X165130953Y-89948188D01*
X165127887Y-90319001D01*
X165127851Y-90321112D01*
X165118108Y-90706248D01*
X165118039Y-90708314D01*
X165102263Y-91084053D01*
X165102139Y-91086448D01*
X165081163Y-91428179D01*
X165080913Y-91431516D01*
X165056096Y-91711863D01*
X165055439Y-91717707D01*
X165028858Y-91912351D01*
X165027551Y-91920086D01*
X165023337Y-91940982D01*
X165021969Y-91946992D01*
X164920121Y-92348023D01*
X164918251Y-92354615D01*
X164814394Y-92685687D01*
X164800262Y-92706812D01*
X164789669Y-92729916D01*
X164781162Y-92735364D01*
X164775546Y-92743761D01*
X164752237Y-92753892D01*
X164730834Y-92767602D01*
X164720731Y-92767586D01*
X164711468Y-92771613D01*
X164686381Y-92767534D01*
X164660964Y-92767496D01*
X164652474Y-92762022D01*
X164642503Y-92760401D01*
X164623603Y-92743405D01*
X164602243Y-92729633D01*
X164594034Y-92716816D01*
X164590549Y-92713683D01*
X164583207Y-92699913D01*
X164582547Y-92698462D01*
X164578442Y-92685634D01*
X164577732Y-92685873D01*
X164575143Y-92678169D01*
X164575143Y-92678167D01*
X164550054Y-92626893D01*
X164548582Y-92623773D01*
X164524940Y-92571784D01*
X164520375Y-92566237D01*
X164517223Y-92559794D01*
X164478592Y-92515468D01*
X164461226Y-92494367D01*
X164441198Y-92470030D01*
X164435352Y-92465853D01*
X164430639Y-92460444D01*
X164381846Y-92427622D01*
X164380408Y-92426595D01*
X164380408Y-92426594D01*
X164333971Y-92393415D01*
X164333967Y-92393413D01*
X164329685Y-92391808D01*
X164327247Y-92390894D01*
X164321292Y-92386889D01*
X164265671Y-92367815D01*
X164264014Y-92367194D01*
X164264013Y-92367193D01*
X164210570Y-92347164D01*
X164203640Y-92345557D01*
X164196635Y-92344142D01*
X164139689Y-92340232D01*
X164139689Y-92340231D01*
X164137924Y-92340109D01*
X164079402Y-92334427D01*
X164072318Y-92335606D01*
X164065159Y-92335115D01*
X164065158Y-92335115D01*
X164065153Y-92335115D01*
X164009133Y-92346077D01*
X164007394Y-92346417D01*
X163949408Y-92356074D01*
X163942876Y-92359043D01*
X163935829Y-92360423D01*
X163884542Y-92385516D01*
X163882957Y-92386291D01*
X163829445Y-92410627D01*
X163823902Y-92415187D01*
X163817452Y-92418344D01*
X163817451Y-92418344D01*
X163774442Y-92455827D01*
X163771773Y-92458088D01*
X163727692Y-92494367D01*
X163727690Y-92494370D01*
X163723516Y-92500210D01*
X163718104Y-92504928D01*
X163685284Y-92553717D01*
X163684263Y-92555147D01*
X163684261Y-92555148D01*
X163651078Y-92601591D01*
X163651074Y-92601599D01*
X163648554Y-92608321D01*
X163644550Y-92614275D01*
X163625475Y-92669897D01*
X163624851Y-92671563D01*
X163624849Y-92671565D01*
X163604826Y-92724991D01*
X163604825Y-92724997D01*
X163604825Y-92724998D01*
X163604130Y-92732145D01*
X163601803Y-92738934D01*
X163597778Y-92797542D01*
X163597609Y-92799288D01*
X163597606Y-92799331D01*
X163592088Y-92856164D01*
X163592365Y-92864280D01*
X163591623Y-92864305D01*
X163592271Y-92877754D01*
X163564837Y-93277320D01*
X163564116Y-93284637D01*
X163487414Y-93881257D01*
X163484652Y-93895805D01*
X163346611Y-94442464D01*
X163342075Y-94456735D01*
X163185974Y-94861383D01*
X163165579Y-94888001D01*
X163145807Y-94915101D01*
X163144398Y-94915646D01*
X163143480Y-94916845D01*
X163111921Y-94928215D01*
X163080647Y-94940319D01*
X163079167Y-94940016D01*
X163077747Y-94940528D01*
X163045053Y-94933032D01*
X163012197Y-94926306D01*
X163010584Y-94925129D01*
X163009644Y-94924914D01*
X162983685Y-94905503D01*
X162866022Y-94790692D01*
X162861121Y-94785910D01*
X162859896Y-94784698D01*
X162833672Y-94758382D01*
X162792953Y-94717519D01*
X162790239Y-94714424D01*
X162786221Y-94710422D01*
X162786220Y-94710420D01*
X162740386Y-94664766D01*
X162740222Y-94664602D01*
X162690358Y-94614563D01*
X162687229Y-94611819D01*
X162585004Y-94509995D01*
X162577073Y-94502096D01*
X162575275Y-94499090D01*
X162530454Y-94455660D01*
X162486192Y-94411572D01*
X162486189Y-94411570D01*
X162486112Y-94411511D01*
X162475117Y-94402040D01*
X162393417Y-94322875D01*
X162384606Y-94314337D01*
X162382207Y-94310487D01*
X162337345Y-94268543D01*
X162336519Y-94267743D01*
X162336518Y-94267742D01*
X162293223Y-94225790D01*
X162291064Y-94224187D01*
X162280299Y-94215208D01*
X162257175Y-94193588D01*
X162232841Y-94170836D01*
X162223392Y-94159733D01*
X162223028Y-94160055D01*
X162217654Y-94153956D01*
X162203030Y-94141191D01*
X162176062Y-94117650D01*
X162172920Y-94114812D01*
X162132566Y-94077083D01*
X162125960Y-94072358D01*
X162126242Y-94071963D01*
X162114232Y-94063679D01*
X162107270Y-94057602D01*
X162103439Y-94054258D01*
X162088842Y-94039155D01*
X162084956Y-94034385D01*
X162080749Y-94029220D01*
X162071150Y-94022289D01*
X162050693Y-94007517D01*
X162049706Y-94006797D01*
X162045590Y-94003763D01*
X162013814Y-93976025D01*
X161996342Y-93967458D01*
X161987362Y-93960839D01*
X161986817Y-93960123D01*
X161984536Y-93958693D01*
X161961601Y-93940751D01*
X161957677Y-93937681D01*
X161957669Y-93937677D01*
X161950680Y-93933554D01*
X161950834Y-93933292D01*
X161948062Y-93931728D01*
X161947919Y-93931995D01*
X161940759Y-93928135D01*
X161904137Y-93914199D01*
X161878690Y-93900967D01*
X161876710Y-93899626D01*
X161876707Y-93899624D01*
X161869335Y-93897069D01*
X161834632Y-93885041D01*
X161826735Y-93881998D01*
X161785776Y-93864581D01*
X161785775Y-93864580D01*
X161785773Y-93864580D01*
X161780490Y-93863834D01*
X161757238Y-93858218D01*
X161752192Y-93856469D01*
X161752187Y-93856468D01*
X161707797Y-93853275D01*
X161699358Y-93852377D01*
X161655290Y-93846154D01*
X161655281Y-93846154D01*
X161649988Y-93846800D01*
X161638055Y-93848258D01*
X161620744Y-93847013D01*
X161572867Y-93856219D01*
X161568650Y-93856734D01*
X161568647Y-93856733D01*
X161524478Y-93862128D01*
X161524469Y-93862130D01*
X161519518Y-93864127D01*
X161496581Y-93870888D01*
X161491332Y-93871897D01*
X161451270Y-93891337D01*
X161451269Y-93891336D01*
X161447437Y-93893195D01*
X161402254Y-93911417D01*
X161388390Y-93921848D01*
X161377585Y-93927092D01*
X161377583Y-93927094D01*
X161372768Y-93929431D01*
X161372767Y-93929431D01*
X161339128Y-93958555D01*
X161332523Y-93963889D01*
X161310311Y-93980603D01*
X161305010Y-93984378D01*
X161294809Y-93991246D01*
X161294798Y-93991255D01*
X161280425Y-94007758D01*
X161268088Y-94020059D01*
X161251541Y-94034385D01*
X161251538Y-94034389D01*
X161235812Y-94057602D01*
X161231600Y-94063820D01*
X161208252Y-94090629D01*
X161194802Y-94118139D01*
X161177741Y-94143324D01*
X161177627Y-94143493D01*
X161177624Y-94143498D01*
X161168444Y-94169982D01*
X161168445Y-94169983D01*
X161165982Y-94177087D01*
X161150371Y-94209022D01*
X161144500Y-94239072D01*
X161141639Y-94247329D01*
X161141640Y-94247329D01*
X161134472Y-94268011D01*
X161134472Y-94268012D01*
X161132459Y-94295981D01*
X161132458Y-94295980D01*
X161131918Y-94303482D01*
X161125106Y-94338362D01*
X161127212Y-94368908D01*
X161126587Y-94377611D01*
X161125016Y-94399456D01*
X161125016Y-94399458D01*
X161129987Y-94425309D01*
X161131907Y-94457479D01*
X161130441Y-94478173D01*
X161130442Y-94478184D01*
X161135699Y-94505359D01*
X161137662Y-94520372D01*
X161139568Y-94547999D01*
X161139569Y-94548003D01*
X161146787Y-94569031D01*
X161151247Y-94585738D01*
X161159330Y-94627524D01*
X161161237Y-94641761D01*
X161161295Y-94642538D01*
X161173813Y-94702464D01*
X161174176Y-94704269D01*
X161184643Y-94758382D01*
X161185106Y-94760913D01*
X161194350Y-94814662D01*
X161186313Y-94884068D01*
X161142028Y-94938111D01*
X161075556Y-94959633D01*
X161027788Y-94951475D01*
X160917307Y-94909155D01*
X160903617Y-94902072D01*
X160903484Y-94902343D01*
X160896196Y-94898749D01*
X160845190Y-94881431D01*
X160845190Y-94881432D01*
X160842925Y-94880663D01*
X160790402Y-94860544D01*
X160780668Y-94859527D01*
X160767507Y-94855059D01*
X160072747Y-94619192D01*
X160056805Y-94612506D01*
X160036950Y-94602499D01*
X160036948Y-94602498D01*
X160009837Y-94596858D01*
X159995236Y-94592877D01*
X159969009Y-94583974D01*
X159946829Y-94582519D01*
X159929692Y-94580186D01*
X159194274Y-94427200D01*
X159194274Y-94427199D01*
X159185828Y-94425442D01*
X159156565Y-94414962D01*
X159121612Y-94412084D01*
X159114134Y-94410529D01*
X159114132Y-94410529D01*
X159087264Y-94404940D01*
X159087256Y-94404940D01*
X159064813Y-94406213D01*
X159047620Y-94405994D01*
X158294881Y-94344037D01*
X158294881Y-94344036D01*
X158286065Y-94343310D01*
X158256603Y-94336587D01*
X158220687Y-94337930D01*
X158213289Y-94337322D01*
X158184866Y-94334982D01*
X158163803Y-94338807D01*
X158146289Y-94340714D01*
X157380273Y-94369381D01*
X157380274Y-94369382D01*
X157370147Y-94369761D01*
X157345361Y-94366630D01*
X157304572Y-94372215D01*
X157298453Y-94372445D01*
X157298452Y-94372444D01*
X157298452Y-94372445D01*
X157263429Y-94373755D01*
X157263417Y-94373757D01*
X157249221Y-94378136D01*
X157229503Y-94382496D01*
X156672906Y-94458723D01*
X156672905Y-94458723D01*
X156662938Y-94460087D01*
X156637647Y-94459438D01*
X156597956Y-94468986D01*
X156591808Y-94469828D01*
X156591792Y-94469832D01*
X156557458Y-94474535D01*
X156543385Y-94480450D01*
X156524348Y-94486694D01*
X155870846Y-94643913D01*
X155861471Y-94646168D01*
X155834585Y-94648349D01*
X155797682Y-94661514D01*
X155791245Y-94663063D01*
X155791244Y-94663062D01*
X155759582Y-94670680D01*
X155759571Y-94670685D01*
X155744334Y-94678967D01*
X155726786Y-94686809D01*
X155060798Y-94924419D01*
X155060796Y-94924420D01*
X155050930Y-94927939D01*
X155027665Y-94932034D01*
X154989124Y-94949988D01*
X154983669Y-94951935D01*
X154983667Y-94951937D01*
X154949061Y-94964284D01*
X154949055Y-94964287D01*
X154938233Y-94971762D01*
X154920134Y-94982130D01*
X154259396Y-95289965D01*
X154249445Y-95294601D01*
X154228592Y-95300135D01*
X154189955Y-95322316D01*
X154185153Y-95324554D01*
X154185155Y-95324554D01*
X154149554Y-95341141D01*
X154149544Y-95341147D01*
X154141421Y-95347958D01*
X154123497Y-95360471D01*
X153478744Y-95730640D01*
X153469017Y-95736224D01*
X153449585Y-95743116D01*
X153412091Y-95768906D01*
X153407714Y-95771420D01*
X153372615Y-95791572D01*
X153369286Y-95794886D01*
X153366113Y-95798044D01*
X153365951Y-95798205D01*
X153348759Y-95812474D01*
X152884578Y-96131785D01*
X152722073Y-96243572D01*
X152703249Y-96252029D01*
X152667983Y-96280780D01*
X152663822Y-96283643D01*
X152663820Y-96283643D01*
X152630498Y-96306566D01*
X152624375Y-96313741D01*
X152608413Y-96329347D01*
X152029872Y-96801027D01*
X152021367Y-96807960D01*
X152002486Y-96818461D01*
X151970510Y-96849422D01*
X151966400Y-96852774D01*
X151966397Y-96852778D01*
X151935986Y-96877573D01*
X151935980Y-96877579D01*
X151929750Y-96886214D01*
X151915455Y-96902734D01*
X151387497Y-97413973D01*
X151387495Y-97413975D01*
X151379977Y-97421256D01*
X151360469Y-97434629D01*
X151332826Y-97466911D01*
X151328663Y-97470943D01*
X151302293Y-97496481D01*
X151302289Y-97496484D01*
X151295516Y-97507792D01*
X151283335Y-97524714D01*
X150822338Y-98063123D01*
X150822337Y-98063122D01*
X150815099Y-98071575D01*
X150798832Y-98084833D01*
X150772418Y-98121422D01*
X150769070Y-98125334D01*
X150769066Y-98125341D01*
X150743050Y-98155727D01*
X150743046Y-98155733D01*
X150738788Y-98164632D01*
X150727481Y-98183677D01*
X150520585Y-98470303D01*
X150520583Y-98470305D01*
X150514208Y-98479135D01*
X150498465Y-98494414D01*
X150475807Y-98532332D01*
X150472660Y-98536692D01*
X150472656Y-98536699D01*
X150449928Y-98568187D01*
X150449927Y-98568188D01*
X150445993Y-98578532D01*
X150436540Y-98598049D01*
X150360691Y-98724985D01*
X150360692Y-98724986D01*
X150355222Y-98734141D01*
X150355032Y-98734459D01*
X150341017Y-98750566D01*
X150321366Y-98790801D01*
X150318686Y-98795287D01*
X150318684Y-98795291D01*
X150298389Y-98829258D01*
X150295568Y-98839187D01*
X150287712Y-98859710D01*
X150202473Y-99034242D01*
X150202474Y-99034243D01*
X150196897Y-99045663D01*
X150187972Y-99057197D01*
X150168066Y-99104697D01*
X150166502Y-99107901D01*
X150145465Y-99150976D01*
X150142883Y-99158681D01*
X150140630Y-99157925D01*
X150114060Y-99209195D01*
X150053476Y-99244001D01*
X149983693Y-99240527D01*
X149926866Y-99199877D01*
X149901037Y-99134957D01*
X149900500Y-99123434D01*
X149900500Y-96072429D01*
X149920185Y-96005390D01*
X149936819Y-95984748D01*
X151532948Y-94388619D01*
X151532951Y-94388616D01*
X151615084Y-94265695D01*
X151671658Y-94129113D01*
X151686199Y-94056013D01*
X151700500Y-93984120D01*
X151700500Y-79670820D01*
X151720185Y-79603781D01*
X151751611Y-79570504D01*
X151892365Y-79468242D01*
X152048242Y-79312365D01*
X152121294Y-79211815D01*
X152176623Y-79169149D01*
X152221613Y-79160700D01*
X154998920Y-79160700D01*
X155096462Y-79141296D01*
X155143913Y-79131858D01*
X155280495Y-79075284D01*
X155329729Y-79042386D01*
X155335206Y-79038727D01*
X155354071Y-79026121D01*
X155403416Y-78993152D01*
X160307951Y-74088616D01*
X160311916Y-74082682D01*
X160345499Y-74032421D01*
X160390080Y-73965701D01*
X160390080Y-73965700D01*
X160390084Y-73965695D01*
X160392132Y-73960752D01*
X160424957Y-73881503D01*
X160446658Y-73829113D01*
X160460951Y-73757260D01*
X160475500Y-73684120D01*
X160475500Y-73179309D01*
X160495185Y-73112270D01*
X160526614Y-73078992D01*
X160560621Y-73054285D01*
X160705368Y-72909538D01*
X160705370Y-72909534D01*
X160705373Y-72909532D01*
X160783778Y-72801615D01*
X160825689Y-72743929D01*
X160918622Y-72561538D01*
X160981879Y-72366853D01*
X161013902Y-72164671D01*
X161013902Y-71959967D01*
X161004985Y-71903668D01*
X160981879Y-71757784D01*
X160944461Y-71642624D01*
X160918622Y-71563100D01*
X160918620Y-71563097D01*
X160918620Y-71563095D01*
X160884905Y-71496926D01*
X160825689Y-71380709D01*
X160780412Y-71318390D01*
X160705373Y-71215105D01*
X160560615Y-71070347D01*
X160395015Y-70950034D01*
X160395014Y-70950033D01*
X160395012Y-70950032D01*
X160306053Y-70904705D01*
X160212625Y-70857100D01*
X160017936Y-70793841D01*
X159843397Y-70766197D01*
X159815754Y-70761819D01*
X159611050Y-70761819D01*
X159586731Y-70765670D01*
X159408867Y-70793841D01*
X159214178Y-70857100D01*
X159031788Y-70950034D01*
X158866188Y-71070347D01*
X158721430Y-71215105D01*
X158601117Y-71380705D01*
X158508183Y-71563095D01*
X158444924Y-71757784D01*
X158412902Y-71959967D01*
X158412902Y-72164670D01*
X158444924Y-72366853D01*
X158508183Y-72561542D01*
X158537892Y-72619848D01*
X158589767Y-72721658D01*
X158601117Y-72743932D01*
X158721430Y-72909532D01*
X158721436Y-72909538D01*
X158866183Y-73054285D01*
X158923384Y-73095844D01*
X158926725Y-73100175D01*
X158931703Y-73102449D01*
X158947833Y-73127548D01*
X158966051Y-73151173D01*
X158967304Y-73157846D01*
X158969477Y-73161227D01*
X158974500Y-73196162D01*
X158974500Y-73247970D01*
X158954815Y-73315009D01*
X158938181Y-73335651D01*
X154650451Y-77623381D01*
X154589128Y-77656866D01*
X154562770Y-77659700D01*
X152236435Y-77659700D01*
X152169396Y-77640015D01*
X152136118Y-77608587D01*
X152048242Y-77487635D01*
X151892365Y-77331758D01*
X151892363Y-77331756D01*
X151892358Y-77331752D01*
X151714025Y-77202187D01*
X151714024Y-77202186D01*
X151714022Y-77202185D01*
X151627939Y-77158323D01*
X151517606Y-77102104D01*
X151517603Y-77102103D01*
X151307952Y-77033985D01*
X151196324Y-77016305D01*
X151090222Y-76999500D01*
X150869778Y-76999500D01*
X150816042Y-77008011D01*
X150652047Y-77033985D01*
X150442396Y-77102103D01*
X150442393Y-77102104D01*
X150245974Y-77202187D01*
X150067641Y-77331752D01*
X150067636Y-77331756D01*
X149911756Y-77487636D01*
X149911752Y-77487641D01*
X149810318Y-77627254D01*
X149754988Y-77669920D01*
X149685375Y-77675899D01*
X149623580Y-77643293D01*
X149609682Y-77627254D01*
X149508247Y-77487641D01*
X149508243Y-77487636D01*
X149348920Y-77328313D01*
X149349867Y-77327365D01*
X149315012Y-77273960D01*
X149314520Y-77204092D01*
X149346057Y-77150509D01*
X150174548Y-76322019D01*
X150235871Y-76288534D01*
X150262229Y-76285700D01*
X153523920Y-76285700D01*
X153633034Y-76263995D01*
X153668913Y-76256858D01*
X153757027Y-76220360D01*
X153805491Y-76200286D01*
X153805492Y-76200285D01*
X153805495Y-76200284D01*
X153860479Y-76163545D01*
X153928416Y-76118152D01*
X155532951Y-74513616D01*
X155615084Y-74390695D01*
X155671658Y-74254113D01*
X155692012Y-74151789D01*
X155700500Y-74109120D01*
X155700500Y-73125416D01*
X155720185Y-73058377D01*
X155751613Y-73025099D01*
X155797219Y-72991966D01*
X155941966Y-72847219D01*
X155941968Y-72847215D01*
X155941971Y-72847213D01*
X156017010Y-72743929D01*
X156062287Y-72681610D01*
X156155220Y-72499219D01*
X156218477Y-72304534D01*
X156250500Y-72102352D01*
X156250500Y-71897648D01*
X156226060Y-71743340D01*
X156218477Y-71695465D01*
X156155218Y-71500776D01*
X156094038Y-71380705D01*
X156062287Y-71318390D01*
X156029163Y-71272798D01*
X155941971Y-71152786D01*
X155797213Y-71008028D01*
X155631613Y-70887715D01*
X155631612Y-70887714D01*
X155631610Y-70887713D01*
X155571527Y-70857099D01*
X155449223Y-70794781D01*
X155254534Y-70731522D01*
X155079995Y-70703878D01*
X155052352Y-70699500D01*
X154847648Y-70699500D01*
X154823329Y-70703351D01*
X154645465Y-70731522D01*
X154450776Y-70794781D01*
X154268386Y-70887715D01*
X154102786Y-71008028D01*
X153958028Y-71152786D01*
X153837715Y-71318386D01*
X153744781Y-71500776D01*
X153681522Y-71695465D01*
X153649500Y-71897648D01*
X153649500Y-72102351D01*
X153681522Y-72304534D01*
X153744781Y-72499223D01*
X153837715Y-72681613D01*
X153958028Y-72847213D01*
X153958034Y-72847219D01*
X154102781Y-72991966D01*
X154148384Y-73025098D01*
X154191050Y-73080425D01*
X154199500Y-73125416D01*
X154199500Y-73672970D01*
X154179815Y-73740009D01*
X154163181Y-73760651D01*
X153175451Y-74748381D01*
X153114128Y-74781866D01*
X153087770Y-74784700D01*
X149826082Y-74784700D01*
X149823654Y-74785182D01*
X149816442Y-74786617D01*
X149816434Y-74786619D01*
X149811820Y-74787537D01*
X149681088Y-74813541D01*
X149607272Y-74844117D01*
X149600380Y-74846971D01*
X149600372Y-74846974D01*
X149544508Y-74870114D01*
X149514651Y-74890064D01*
X149421582Y-74952249D01*
X149421579Y-74952252D01*
X147942052Y-76431778D01*
X147942049Y-76431781D01*
X147902575Y-76490858D01*
X147902576Y-76490859D01*
X147859914Y-76554708D01*
X147803343Y-76691282D01*
X147803340Y-76691292D01*
X147774500Y-76836279D01*
X147774500Y-77091284D01*
X147754815Y-77158323D01*
X147709776Y-77199073D01*
X147710126Y-77199643D01*
X147707094Y-77201500D01*
X147706801Y-77201765D01*
X147706087Y-77202129D01*
X147705972Y-77202188D01*
X147527641Y-77331752D01*
X147527636Y-77331756D01*
X147371756Y-77487636D01*
X147371752Y-77487641D01*
X147242187Y-77665974D01*
X147142104Y-77862393D01*
X147142103Y-77862396D01*
X147073985Y-78072047D01*
X147063641Y-78137359D01*
X147039500Y-78289778D01*
X147039500Y-78510222D01*
X147045524Y-78548254D01*
X147073985Y-78727952D01*
X147142103Y-78937603D01*
X147142104Y-78937606D01*
X147195494Y-79042387D01*
X147241082Y-79131858D01*
X147242187Y-79134025D01*
X147371752Y-79312358D01*
X147371756Y-79312363D01*
X147527636Y-79468243D01*
X147527641Y-79468247D01*
X147654190Y-79560189D01*
X147705978Y-79597815D01*
X147834375Y-79663237D01*
X147902393Y-79697895D01*
X147902396Y-79697896D01*
X148007221Y-79731955D01*
X148112049Y-79766015D01*
X148329778Y-79800500D01*
X148329779Y-79800500D01*
X148550221Y-79800500D01*
X148550222Y-79800500D01*
X148767951Y-79766015D01*
X148977606Y-79697895D01*
X149174022Y-79597815D01*
X149352365Y-79468242D01*
X149508242Y-79312365D01*
X149555187Y-79247751D01*
X149609682Y-79172745D01*
X149665011Y-79130079D01*
X149734625Y-79124100D01*
X149796420Y-79156705D01*
X149810318Y-79172745D01*
X149911752Y-79312358D01*
X149911756Y-79312363D01*
X150067638Y-79468245D01*
X150148385Y-79526910D01*
X150191051Y-79582239D01*
X150199500Y-79627228D01*
X150199500Y-93547969D01*
X150179815Y-93615008D01*
X150163181Y-93635650D01*
X148567052Y-95231778D01*
X148567046Y-95231785D01*
X148520961Y-95300757D01*
X148520962Y-95300758D01*
X148484913Y-95354708D01*
X148428343Y-95491282D01*
X148428340Y-95491292D01*
X148399500Y-95636279D01*
X148399500Y-99397970D01*
X148379815Y-99465009D01*
X148363181Y-99485651D01*
X145460651Y-102388181D01*
X145433723Y-102402884D01*
X145407905Y-102419477D01*
X145401704Y-102420368D01*
X145399328Y-102421666D01*
X145372970Y-102424500D01*
X145170371Y-102424500D01*
X145123286Y-102415213D01*
X143831602Y-101885027D01*
X143822392Y-101880799D01*
X143627256Y-101781372D01*
X143453055Y-101724771D01*
X143402141Y-101708229D01*
X143402139Y-101708228D01*
X143402137Y-101708228D01*
X143308250Y-101693356D01*
X143308250Y-101693357D01*
X143306114Y-101693018D01*
X143302294Y-101692278D01*
X143301648Y-101692311D01*
X143295395Y-101691322D01*
X143295392Y-101691320D01*
X143295385Y-101691320D01*
X143179975Y-101673041D01*
X143168352Y-101671200D01*
X142931648Y-101671200D01*
X142931643Y-101671200D01*
X142797513Y-101692444D01*
X142790980Y-101693479D01*
X142788711Y-101693594D01*
X142786089Y-101694253D01*
X142780604Y-101695123D01*
X142780603Y-101695122D01*
X142780598Y-101695124D01*
X142697857Y-101708229D01*
X142697854Y-101708229D01*
X142472743Y-101781372D01*
X142472735Y-101781376D01*
X142277601Y-101880801D01*
X142268392Y-101885029D01*
X140976713Y-102415213D01*
X140968755Y-102416782D01*
X140964563Y-102419477D01*
X140929628Y-102424500D01*
X140902030Y-102424500D01*
X140834991Y-102404815D01*
X140814349Y-102388181D01*
X138111819Y-99685651D01*
X138078334Y-99624328D01*
X138075500Y-99597970D01*
X138075500Y-96536279D01*
X138046659Y-96391292D01*
X138046658Y-96391291D01*
X138046658Y-96391287D01*
X138021002Y-96329347D01*
X137990087Y-96254711D01*
X137990080Y-96254698D01*
X137907952Y-96131785D01*
X137858292Y-96082125D01*
X137803416Y-96027249D01*
X135936819Y-94160651D01*
X135903334Y-94099328D01*
X135900500Y-94072970D01*
X135900500Y-88731779D01*
X140325000Y-88731779D01*
X140325000Y-88938620D01*
X140365348Y-89141466D01*
X140365350Y-89141474D01*
X140444502Y-89332563D01*
X140444502Y-89332564D01*
X140533021Y-89465043D01*
X140533023Y-89465043D01*
X141004533Y-88993533D01*
X141054920Y-89080806D01*
X141129394Y-89155280D01*
X141216665Y-89205665D01*
X140745155Y-89677175D01*
X140877631Y-89765694D01*
X140877641Y-89765699D01*
X141068725Y-89844849D01*
X141068733Y-89844851D01*
X141271579Y-89885199D01*
X141271583Y-89885200D01*
X141478417Y-89885200D01*
X141478420Y-89885199D01*
X141681266Y-89844851D01*
X141681274Y-89844849D01*
X141872359Y-89765699D01*
X142004844Y-89677176D01*
X141533334Y-89205665D01*
X141620606Y-89155280D01*
X141695080Y-89080806D01*
X141745466Y-88993534D01*
X142216976Y-89465044D01*
X142305499Y-89332559D01*
X142384649Y-89141474D01*
X142384651Y-89141466D01*
X142424999Y-88938620D01*
X142425000Y-88938617D01*
X142425000Y-88731783D01*
X142424999Y-88731779D01*
X142384651Y-88528933D01*
X142384649Y-88528925D01*
X142305499Y-88337841D01*
X142305494Y-88337831D01*
X142216975Y-88205355D01*
X141745465Y-88676865D01*
X141695080Y-88589594D01*
X141620606Y-88515120D01*
X141533334Y-88464733D01*
X142004843Y-87993223D01*
X142004843Y-87993221D01*
X141872363Y-87904702D01*
X141681274Y-87825550D01*
X141681266Y-87825548D01*
X141478420Y-87785200D01*
X141271579Y-87785200D01*
X141068733Y-87825548D01*
X141068725Y-87825550D01*
X140877639Y-87904701D01*
X140745155Y-87993223D01*
X140745154Y-87993223D01*
X141216665Y-88464733D01*
X141129394Y-88515120D01*
X141054920Y-88589594D01*
X141004534Y-88676865D01*
X140533023Y-88205354D01*
X140533023Y-88205355D01*
X140444501Y-88337839D01*
X140365350Y-88528925D01*
X140365348Y-88528933D01*
X140325000Y-88731779D01*
X135900500Y-88731779D01*
X135900500Y-79627228D01*
X135920185Y-79560189D01*
X135951615Y-79526910D01*
X136032361Y-79468245D01*
X136032361Y-79468244D01*
X136032365Y-79468242D01*
X136188242Y-79312365D01*
X136235187Y-79247751D01*
X136289682Y-79172745D01*
X136345011Y-79130079D01*
X136414625Y-79124100D01*
X136476420Y-79156705D01*
X136490318Y-79172745D01*
X136591752Y-79312358D01*
X136591756Y-79312363D01*
X136747636Y-79468243D01*
X136747641Y-79468247D01*
X136874190Y-79560189D01*
X136925978Y-79597815D01*
X137054375Y-79663237D01*
X137122393Y-79697895D01*
X137122396Y-79697896D01*
X137227221Y-79731955D01*
X137332049Y-79766015D01*
X137549778Y-79800500D01*
X137549779Y-79800500D01*
X137770221Y-79800500D01*
X137770222Y-79800500D01*
X137987951Y-79766015D01*
X138197606Y-79697895D01*
X138394022Y-79597815D01*
X138572365Y-79468242D01*
X138728242Y-79312365D01*
X138857815Y-79134022D01*
X138957895Y-78937606D01*
X139026015Y-78727951D01*
X139060500Y-78510222D01*
X139060500Y-78289778D01*
X139026015Y-78072049D01*
X138975957Y-77917983D01*
X138957896Y-77862396D01*
X138957895Y-77862393D01*
X138914532Y-77777290D01*
X138857815Y-77665978D01*
X138826827Y-77623326D01*
X138728247Y-77487641D01*
X138728243Y-77487636D01*
X138572367Y-77331760D01*
X138572361Y-77331755D01*
X138501615Y-77280355D01*
X138500614Y-77279057D01*
X138499084Y-77278467D01*
X138479346Y-77251476D01*
X138458949Y-77225025D01*
X138458498Y-77222967D01*
X138457841Y-77222069D01*
X138456034Y-77211728D01*
X138450725Y-77187499D01*
X138450500Y-77183767D01*
X138450500Y-77061282D01*
X138441553Y-77016305D01*
X138421659Y-76916288D01*
X138382339Y-76821362D01*
X138365084Y-76779705D01*
X138300964Y-76683742D01*
X138285712Y-76660915D01*
X138282951Y-76656783D01*
X138282949Y-76656781D01*
X136878421Y-75252252D01*
X136878414Y-75252246D01*
X136804729Y-75203012D01*
X136804729Y-75203013D01*
X136755491Y-75170113D01*
X136618917Y-75113543D01*
X136618907Y-75113540D01*
X136473920Y-75084700D01*
X136473918Y-75084700D01*
X133212230Y-75084700D01*
X133145191Y-75065015D01*
X133124549Y-75048381D01*
X131936819Y-73860651D01*
X131903334Y-73799328D01*
X131900500Y-73772970D01*
X131900500Y-73125416D01*
X131920185Y-73058377D01*
X131951613Y-73025099D01*
X131997219Y-72991966D01*
X132141966Y-72847219D01*
X132141968Y-72847215D01*
X132141971Y-72847213D01*
X132217010Y-72743929D01*
X132262287Y-72681610D01*
X132355220Y-72499219D01*
X132418477Y-72304534D01*
X132450500Y-72102352D01*
X132450500Y-71897648D01*
X132426060Y-71743340D01*
X132418477Y-71695465D01*
X132355218Y-71500776D01*
X132294038Y-71380705D01*
X132262287Y-71318390D01*
X132229163Y-71272798D01*
X132141971Y-71152786D01*
X131997213Y-71008028D01*
X131831613Y-70887715D01*
X131831612Y-70887714D01*
X131831610Y-70887713D01*
X131771527Y-70857099D01*
X131649223Y-70794781D01*
X131454534Y-70731522D01*
X131279995Y-70703878D01*
X131252352Y-70699500D01*
X131047648Y-70699500D01*
X131023329Y-70703351D01*
X130845465Y-70731522D01*
X130650776Y-70794781D01*
X130468386Y-70887715D01*
X130302786Y-71008028D01*
X130158028Y-71152786D01*
X130037715Y-71318386D01*
X129944781Y-71500776D01*
X129881522Y-71695465D01*
X129849500Y-71897648D01*
X129849500Y-72102351D01*
X129881522Y-72304534D01*
X129944781Y-72499223D01*
X130037715Y-72681613D01*
X130158028Y-72847213D01*
X130158034Y-72847219D01*
X130302781Y-72991966D01*
X130348384Y-73025098D01*
X130391050Y-73080425D01*
X130399500Y-73125416D01*
X130399500Y-74209118D01*
X130399500Y-74209120D01*
X130399499Y-74209120D01*
X130428340Y-74354107D01*
X130428343Y-74354117D01*
X130484913Y-74490690D01*
X130484914Y-74490692D01*
X130509373Y-74527297D01*
X130509374Y-74527299D01*
X130567043Y-74613610D01*
X130567047Y-74613615D01*
X132371586Y-76418154D01*
X132387948Y-76429086D01*
X132439433Y-76463486D01*
X132494505Y-76500284D01*
X132494507Y-76500285D01*
X132494511Y-76500287D01*
X132610617Y-76548379D01*
X132631087Y-76556858D01*
X132631091Y-76556858D01*
X132631092Y-76556859D01*
X132776079Y-76585700D01*
X132776082Y-76585700D01*
X132776083Y-76585700D01*
X132923917Y-76585700D01*
X136037770Y-76585700D01*
X136104809Y-76605385D01*
X136125451Y-76622019D01*
X136703731Y-77200299D01*
X136737216Y-77261622D01*
X136732232Y-77331314D01*
X136703732Y-77375661D01*
X136591751Y-77487642D01*
X136490318Y-77627254D01*
X136434988Y-77669920D01*
X136365375Y-77675899D01*
X136303580Y-77643293D01*
X136289682Y-77627254D01*
X136188247Y-77487641D01*
X136188243Y-77487636D01*
X136032363Y-77331756D01*
X136032358Y-77331752D01*
X135854025Y-77202187D01*
X135854024Y-77202186D01*
X135854022Y-77202185D01*
X135767939Y-77158323D01*
X135657606Y-77102104D01*
X135657603Y-77102103D01*
X135447952Y-77033985D01*
X135336324Y-77016305D01*
X135230222Y-76999500D01*
X135009778Y-76999500D01*
X134956042Y-77008011D01*
X134792047Y-77033985D01*
X134582396Y-77102103D01*
X134582393Y-77102104D01*
X134385974Y-77202187D01*
X134207641Y-77331752D01*
X134207636Y-77331756D01*
X134051756Y-77487636D01*
X134051752Y-77487641D01*
X133922187Y-77665974D01*
X133822104Y-77862393D01*
X133822103Y-77862396D01*
X133753985Y-78072047D01*
X133743641Y-78137359D01*
X133719500Y-78289778D01*
X133719500Y-78510222D01*
X133725524Y-78548254D01*
X133753985Y-78727952D01*
X133822103Y-78937603D01*
X133822104Y-78937606D01*
X133875494Y-79042387D01*
X133921082Y-79131858D01*
X133922187Y-79134025D01*
X134051752Y-79312358D01*
X134051756Y-79312363D01*
X134051758Y-79312365D01*
X134207635Y-79468242D01*
X134348387Y-79570503D01*
X134391051Y-79625831D01*
X134399500Y-79670820D01*
X134399500Y-94509118D01*
X134399500Y-94509120D01*
X134399499Y-94509120D01*
X134428340Y-94654107D01*
X134428343Y-94654117D01*
X134484913Y-94790690D01*
X134484914Y-94790692D01*
X134512333Y-94831727D01*
X134512334Y-94831729D01*
X134567043Y-94913610D01*
X134567047Y-94913615D01*
X134567048Y-94913616D01*
X135568075Y-95914643D01*
X136538181Y-96884748D01*
X136571666Y-96946071D01*
X136574500Y-96972429D01*
X136574500Y-100026165D01*
X136554815Y-100093204D01*
X136502011Y-100138959D01*
X136432853Y-100148903D01*
X136369297Y-100119878D01*
X136334612Y-100070278D01*
X136314192Y-100016628D01*
X136314166Y-100016291D01*
X136314077Y-100016325D01*
X136178015Y-99655986D01*
X136177202Y-99649511D01*
X136154768Y-99594421D01*
X136133766Y-99538800D01*
X136129984Y-99531743D01*
X136124442Y-99519952D01*
X136035494Y-99301523D01*
X136033559Y-99290245D01*
X136010702Y-99240641D01*
X135997897Y-99209195D01*
X135990108Y-99190066D01*
X135986086Y-99183003D01*
X135986118Y-99182984D01*
X135977550Y-99168694D01*
X135969386Y-99150976D01*
X135898299Y-98996702D01*
X135894447Y-98980625D01*
X135870811Y-98937048D01*
X135850067Y-98892028D01*
X135847315Y-98888718D01*
X135833672Y-98868574D01*
X135755232Y-98723954D01*
X135749389Y-98705751D01*
X135723932Y-98666246D01*
X135701520Y-98624924D01*
X135696333Y-98619453D01*
X135682085Y-98601305D01*
X135640449Y-98536692D01*
X135597481Y-98470012D01*
X135591182Y-98454147D01*
X135561911Y-98414812D01*
X135535345Y-98373586D01*
X135535342Y-98373583D01*
X135535341Y-98373581D01*
X135531652Y-98370236D01*
X135515471Y-98352407D01*
X135426796Y-98233245D01*
X135418657Y-98222308D01*
X135414212Y-98212375D01*
X135379402Y-98169557D01*
X135346477Y-98125312D01*
X135346472Y-98125308D01*
X135340815Y-98119481D01*
X135340905Y-98119392D01*
X135329352Y-98107991D01*
X135278669Y-98045650D01*
X135238136Y-97995792D01*
X135231030Y-97982186D01*
X135196705Y-97944829D01*
X135194335Y-97941914D01*
X135194333Y-97941911D01*
X135164694Y-97905453D01*
X135164686Y-97905445D01*
X135162388Y-97903782D01*
X135143779Y-97887227D01*
X134568395Y-97261015D01*
X134561312Y-97253306D01*
X134548473Y-97233477D01*
X134516909Y-97204980D01*
X134488133Y-97173662D01*
X134488132Y-97173661D01*
X134477028Y-97166608D01*
X134460417Y-97153977D01*
X133823275Y-96578746D01*
X133815464Y-96571694D01*
X133800973Y-96553294D01*
X133766742Y-96527707D01*
X133735029Y-96499075D01*
X133735028Y-96499074D01*
X133723547Y-96493205D01*
X133705749Y-96482115D01*
X133024469Y-95972863D01*
X133016128Y-95966628D01*
X132999664Y-95949353D01*
X132963564Y-95927337D01*
X132929693Y-95902019D01*
X132917194Y-95897025D01*
X132898639Y-95887742D01*
X132182925Y-95451262D01*
X132182924Y-95451262D01*
X132174280Y-95445990D01*
X132155321Y-95429674D01*
X132118257Y-95411824D01*
X132113020Y-95408630D01*
X132113017Y-95408627D01*
X132083131Y-95390403D01*
X132083128Y-95390401D01*
X132083126Y-95390400D01*
X132083124Y-95390399D01*
X132068833Y-95386199D01*
X132049998Y-95378951D01*
X131467235Y-95098298D01*
X131305690Y-95020500D01*
X131288514Y-95008059D01*
X131246547Y-94992017D01*
X131241858Y-94989759D01*
X131206061Y-94972520D01*
X131206056Y-94972519D01*
X131196093Y-94970633D01*
X131174885Y-94964624D01*
X130789307Y-94817242D01*
X130777373Y-94812680D01*
X130765319Y-94804947D01*
X130716011Y-94789226D01*
X130667659Y-94770744D01*
X130667649Y-94770742D01*
X130666108Y-94770582D01*
X130641242Y-94765386D01*
X130287972Y-94652753D01*
X130287971Y-94652752D01*
X130276206Y-94649000D01*
X130262180Y-94641208D01*
X130213674Y-94629062D01*
X130209927Y-94627868D01*
X130209907Y-94627863D01*
X130165956Y-94613851D01*
X130165945Y-94613849D01*
X130162234Y-94613675D01*
X130137937Y-94610099D01*
X129815144Y-94529280D01*
X129815143Y-94529280D01*
X129804035Y-94526498D01*
X129786156Y-94518309D01*
X129740347Y-94510551D01*
X129735683Y-94509384D01*
X129735677Y-94509383D01*
X129719604Y-94505359D01*
X129695272Y-94499267D01*
X129695270Y-94499267D01*
X129695264Y-94499266D01*
X129687057Y-94499401D01*
X129664321Y-94497678D01*
X129342170Y-94443130D01*
X129330762Y-94441198D01*
X129312752Y-94434547D01*
X129266026Y-94430237D01*
X129261390Y-94429452D01*
X129261388Y-94429451D01*
X129219768Y-94422404D01*
X129212161Y-94423122D01*
X129189133Y-94423146D01*
X128844298Y-94391344D01*
X128831759Y-94390187D01*
X128817325Y-94385813D01*
X128766353Y-94384156D01*
X128762666Y-94383816D01*
X128762665Y-94383815D01*
X128715563Y-94379472D01*
X128713090Y-94379897D01*
X128688114Y-94381614D01*
X128297554Y-94368924D01*
X128297553Y-94368924D01*
X128282926Y-94368448D01*
X128276359Y-94366649D01*
X128217185Y-94366312D01*
X128215522Y-94366258D01*
X128215521Y-94366257D01*
X128164193Y-94364591D01*
X128158022Y-94364391D01*
X128158021Y-94364391D01*
X128158017Y-94364391D01*
X128149935Y-94365189D01*
X128149857Y-94364408D01*
X128136773Y-94365855D01*
X128133885Y-94365839D01*
X128120397Y-94365028D01*
X128115029Y-94364410D01*
X128115023Y-94364410D01*
X128100131Y-94364651D01*
X128055941Y-94365367D01*
X128053232Y-94365381D01*
X127994208Y-94365046D01*
X127988857Y-94365720D01*
X127975394Y-94366673D01*
X127595206Y-94372839D01*
X127595205Y-94372839D01*
X127582113Y-94373051D01*
X127569330Y-94370537D01*
X127516450Y-94374115D01*
X127513251Y-94374167D01*
X127513249Y-94374168D01*
X127463386Y-94374978D01*
X127463188Y-94375007D01*
X127437785Y-94379440D01*
X127116041Y-94401215D01*
X127116042Y-94401216D01*
X127104387Y-94402004D01*
X127085772Y-94399756D01*
X127038894Y-94406436D01*
X127034298Y-94406748D01*
X127034297Y-94406749D01*
X126991618Y-94409638D01*
X126991614Y-94409639D01*
X126984907Y-94411931D01*
X126962309Y-94417351D01*
X126673390Y-94458528D01*
X126673391Y-94458529D01*
X126662594Y-94460067D01*
X126640715Y-94459329D01*
X126597612Y-94469329D01*
X126592307Y-94470086D01*
X126592298Y-94470088D01*
X126553801Y-94475575D01*
X126553798Y-94475576D01*
X126543693Y-94479889D01*
X126523054Y-94486630D01*
X126246168Y-94550877D01*
X126246169Y-94550878D01*
X126235184Y-94553427D01*
X126214851Y-94554375D01*
X126171234Y-94568266D01*
X126166374Y-94569393D01*
X126166373Y-94569393D01*
X126126645Y-94578613D01*
X126126637Y-94578616D01*
X126118623Y-94582888D01*
X126097930Y-94591613D01*
X125901687Y-94654117D01*
X125802290Y-94685775D01*
X125787942Y-94687264D01*
X125739709Y-94705705D01*
X125736335Y-94706780D01*
X125736332Y-94706780D01*
X125690470Y-94721389D01*
X125690463Y-94721392D01*
X125689054Y-94722296D01*
X125666412Y-94733731D01*
X125404619Y-94833827D01*
X125404618Y-94833826D01*
X125397233Y-94836649D01*
X125397153Y-94836659D01*
X125334749Y-94860544D01*
X125334712Y-94860558D01*
X125334711Y-94860558D01*
X125334709Y-94860559D01*
X125267131Y-94886397D01*
X125266783Y-94886556D01*
X125095672Y-94952048D01*
X125091285Y-94952399D01*
X125087608Y-94954821D01*
X125056762Y-94955165D01*
X125026025Y-94957628D01*
X125022144Y-94955551D01*
X125017742Y-94955601D01*
X124991606Y-94939213D01*
X124964418Y-94924668D01*
X124962276Y-94920823D01*
X124958546Y-94918485D01*
X124945421Y-94890574D01*
X124930410Y-94863633D01*
X124930158Y-94858116D01*
X124928814Y-94855257D01*
X124928420Y-94819965D01*
X124929112Y-94814739D01*
X124947138Y-94678600D01*
X124948475Y-94670553D01*
X124951735Y-94654294D01*
X124955839Y-94641878D01*
X124954998Y-94641616D01*
X124957417Y-94633862D01*
X124957420Y-94633858D01*
X124967550Y-94575409D01*
X124979212Y-94517236D01*
X124978785Y-94510581D01*
X124982455Y-94489403D01*
X124982835Y-94487327D01*
X124994226Y-94428341D01*
X124994226Y-94428335D01*
X124994437Y-94424815D01*
X124994571Y-94422555D01*
X124994566Y-94422204D01*
X124994707Y-94418713D01*
X124994711Y-94418696D01*
X124989311Y-94358990D01*
X124989124Y-94356671D01*
X124988173Y-94343313D01*
X124984869Y-94296888D01*
X124984867Y-94296883D01*
X124984162Y-94293438D01*
X124984158Y-94293418D01*
X124983703Y-94291198D01*
X124983612Y-94290876D01*
X124982842Y-94287450D01*
X124962196Y-94231239D01*
X124961399Y-94229003D01*
X124959734Y-94224187D01*
X124941809Y-94172338D01*
X124941805Y-94172332D01*
X124940231Y-94169184D01*
X124940230Y-94169183D01*
X124939215Y-94167155D01*
X124939042Y-94166865D01*
X124937408Y-94163749D01*
X124937406Y-94163743D01*
X124902883Y-94114746D01*
X124901555Y-94112821D01*
X124867979Y-94063176D01*
X124867972Y-94063170D01*
X124865623Y-94060521D01*
X124865623Y-94060520D01*
X124864139Y-94058847D01*
X124863905Y-94058621D01*
X124861499Y-94056010D01*
X124821072Y-94022289D01*
X124807843Y-94009471D01*
X124791703Y-93991321D01*
X124791700Y-93991319D01*
X124791699Y-93991318D01*
X124771185Y-93977814D01*
X124758133Y-93967929D01*
X124749956Y-93960839D01*
X124739579Y-93951841D01*
X124739577Y-93951840D01*
X124739575Y-93951838D01*
X124716770Y-93940751D01*
X124702810Y-93932807D01*
X124681631Y-93918866D01*
X124681622Y-93918861D01*
X124658317Y-93911128D01*
X124650527Y-93908544D01*
X124621060Y-93894218D01*
X124588260Y-93887884D01*
X124580627Y-93885352D01*
X124580623Y-93885351D01*
X124556547Y-93877363D01*
X124554558Y-93877246D01*
X124532021Y-93875925D01*
X124523828Y-93875444D01*
X124491667Y-93869235D01*
X124458361Y-93871605D01*
X124450331Y-93871134D01*
X124450323Y-93871135D01*
X124424991Y-93869651D01*
X124424984Y-93869651D01*
X124400924Y-93874609D01*
X124400925Y-93874610D01*
X124392888Y-93876266D01*
X124360214Y-93878592D01*
X124328640Y-93889507D01*
X124320756Y-93891132D01*
X124320754Y-93891131D01*
X124295919Y-93896250D01*
X124295917Y-93896251D01*
X124273961Y-93907267D01*
X124273960Y-93907266D01*
X124266621Y-93910948D01*
X124235664Y-93921652D01*
X124207993Y-93940365D01*
X124200798Y-93943976D01*
X124172250Y-93958300D01*
X124167233Y-93960678D01*
X124119841Y-93981857D01*
X124119836Y-93981860D01*
X124114502Y-93986191D01*
X124111011Y-93989026D01*
X124100851Y-93994125D01*
X124060008Y-94030444D01*
X124057839Y-94032206D01*
X123984599Y-94091682D01*
X123964906Y-94104770D01*
X123959573Y-94107621D01*
X123927608Y-94137565D01*
X123921007Y-94143324D01*
X123886999Y-94170942D01*
X123886993Y-94170948D01*
X123883441Y-94175851D01*
X123867805Y-94193588D01*
X123775617Y-94279950D01*
X123765144Y-94289760D01*
X123758257Y-94293726D01*
X123717170Y-94334701D01*
X123715729Y-94336052D01*
X123715702Y-94336079D01*
X123674767Y-94374428D01*
X123669614Y-94380709D01*
X123669143Y-94380322D01*
X123660413Y-94391306D01*
X123512170Y-94539153D01*
X123512169Y-94539154D01*
X123504859Y-94546443D01*
X123502608Y-94547771D01*
X123458412Y-94592764D01*
X123457908Y-94593268D01*
X123457823Y-94593355D01*
X123411803Y-94639253D01*
X123404753Y-94647320D01*
X123187063Y-94867092D01*
X123185163Y-94868968D01*
X123138304Y-94914281D01*
X123076428Y-94946733D01*
X123006830Y-94940581D01*
X122951607Y-94897777D01*
X122937152Y-94871634D01*
X122894194Y-94765411D01*
X122891527Y-94758171D01*
X122752025Y-94339659D01*
X122749162Y-94329699D01*
X122745434Y-94314339D01*
X122644162Y-93897062D01*
X122642147Y-93886933D01*
X122641900Y-93885352D01*
X122577863Y-93474769D01*
X122576607Y-93463112D01*
X122569718Y-93348640D01*
X122559668Y-93181628D01*
X122559724Y-93165853D01*
X122592128Y-92685777D01*
X122598165Y-92630618D01*
X122596556Y-92620176D01*
X122597268Y-92609635D01*
X122587048Y-92557729D01*
X122587048Y-92557728D01*
X122586549Y-92555193D01*
X122578106Y-92500369D01*
X122573851Y-92490701D01*
X122571810Y-92480334D01*
X122547365Y-92430521D01*
X122525020Y-92379750D01*
X122518407Y-92371512D01*
X122513755Y-92362032D01*
X122513754Y-92362031D01*
X122513753Y-92362028D01*
X122478950Y-92322188D01*
X122475645Y-92318240D01*
X122442527Y-92276982D01*
X122442526Y-92276981D01*
X122442525Y-92276980D01*
X122434002Y-92270731D01*
X122427054Y-92262778D01*
X122380989Y-92231868D01*
X122336241Y-92199064D01*
X122336240Y-92199063D01*
X122336233Y-92199060D01*
X122326392Y-92195234D01*
X122317623Y-92189350D01*
X122265134Y-92171418D01*
X122262710Y-92170476D01*
X122262708Y-92170475D01*
X122213415Y-92151311D01*
X122209101Y-92150838D01*
X122202910Y-92150161D01*
X122192915Y-92146747D01*
X122137582Y-92143011D01*
X122135008Y-92142730D01*
X122135006Y-92142729D01*
X122082414Y-92136974D01*
X122082405Y-92136975D01*
X122071963Y-92138582D01*
X122061430Y-92137872D01*
X122007047Y-92148578D01*
X122004488Y-92148973D01*
X122004460Y-92148979D01*
X121952163Y-92157034D01*
X121944360Y-92159309D01*
X121944311Y-92159141D01*
X121939772Y-92160567D01*
X121939828Y-92160733D01*
X121932129Y-92163329D01*
X121884627Y-92186640D01*
X121884626Y-92186639D01*
X121882287Y-92187786D01*
X121831543Y-92210120D01*
X121823308Y-92216729D01*
X121813827Y-92221382D01*
X121813819Y-92221388D01*
X121773979Y-92256187D01*
X121773980Y-92256188D01*
X121772027Y-92257893D01*
X121728774Y-92292616D01*
X121722528Y-92301133D01*
X121714577Y-92308080D01*
X121714571Y-92308086D01*
X121685099Y-92352009D01*
X121682139Y-92356228D01*
X121650858Y-92398898D01*
X121646948Y-92406027D01*
X121646794Y-92405942D01*
X121644593Y-92410161D01*
X121644750Y-92410239D01*
X121641142Y-92417519D01*
X121624036Y-92467590D01*
X121622268Y-92472433D01*
X121541089Y-92681239D01*
X121526119Y-92700671D01*
X121514752Y-92722405D01*
X121505176Y-92727858D01*
X121498450Y-92736590D01*
X121475350Y-92744844D01*
X121454038Y-92756982D01*
X121443033Y-92756392D01*
X121432655Y-92760101D01*
X121408760Y-92754556D01*
X121384268Y-92753245D01*
X121375329Y-92746800D01*
X121364593Y-92744309D01*
X121347489Y-92726727D01*
X121327594Y-92712382D01*
X121319205Y-92697651D01*
X121315874Y-92694227D01*
X121310128Y-92681712D01*
X121295958Y-92645702D01*
X121291936Y-92633721D01*
X121156601Y-92150232D01*
X121153943Y-92138599D01*
X121058570Y-91603598D01*
X121057190Y-91593440D01*
X121054394Y-91563677D01*
X120999991Y-90984662D01*
X120999506Y-90976877D01*
X120994287Y-90806726D01*
X120979840Y-90335724D01*
X120979783Y-90331735D01*
X120979801Y-90320023D01*
X120980265Y-90016145D01*
X120980279Y-90014603D01*
X120985120Y-89703247D01*
X120985162Y-89701432D01*
X120987117Y-89637592D01*
X120993553Y-89427407D01*
X120993659Y-89424848D01*
X121004480Y-89217972D01*
X121004808Y-89213375D01*
X121012909Y-89123643D01*
X121013333Y-89119677D01*
X121045129Y-88862504D01*
X121048621Y-88847985D01*
X121048222Y-88847897D01*
X121049979Y-88839962D01*
X121049979Y-88839961D01*
X121049980Y-88839959D01*
X121054927Y-88783260D01*
X121061905Y-88726825D01*
X121060641Y-88717779D01*
X121061436Y-88708674D01*
X121051926Y-88654814D01*
X121051239Y-88650473D01*
X121043674Y-88596308D01*
X121043672Y-88596303D01*
X121043672Y-88596302D01*
X121040109Y-88587889D01*
X121038522Y-88578896D01*
X121014477Y-88527363D01*
X121013625Y-88525350D01*
X121013608Y-88525311D01*
X121004836Y-88504597D01*
X120992284Y-88474957D01*
X120990490Y-88472658D01*
X120986662Y-88467749D01*
X120982801Y-88459472D01*
X120946228Y-88415906D01*
X120911236Y-88371041D01*
X120911235Y-88371040D01*
X120911234Y-88371039D01*
X120903940Y-88365533D01*
X120898069Y-88358539D01*
X120851472Y-88325927D01*
X120840748Y-88317832D01*
X120806054Y-88291642D01*
X120806050Y-88291640D01*
X120797582Y-88288210D01*
X120790101Y-88282975D01*
X120736634Y-88263528D01*
X120683908Y-88242174D01*
X120683904Y-88242173D01*
X120676041Y-88240133D01*
X120676143Y-88239737D01*
X120674274Y-88239287D01*
X120674186Y-88239686D01*
X120666248Y-88237927D01*
X120611789Y-88233175D01*
X120609556Y-88232981D01*
X120553120Y-88226004D01*
X120544074Y-88227267D01*
X120534969Y-88226473D01*
X120534968Y-88226473D01*
X120534962Y-88226473D01*
X120481159Y-88235973D01*
X120476756Y-88236669D01*
X120422606Y-88244233D01*
X120422605Y-88244233D01*
X120414548Y-88247645D01*
X120414187Y-88247798D01*
X120405192Y-88249387D01*
X120353648Y-88273435D01*
X120351580Y-88274311D01*
X120351578Y-88274311D01*
X120301256Y-88295622D01*
X120301248Y-88295627D01*
X120294042Y-88301246D01*
X120285767Y-88305108D01*
X120242238Y-88341648D01*
X120240462Y-88343034D01*
X120240440Y-88343053D01*
X120197332Y-88376676D01*
X120191827Y-88383968D01*
X120184834Y-88389840D01*
X120152228Y-88436426D01*
X120150873Y-88438222D01*
X120150867Y-88438231D01*
X120117938Y-88481853D01*
X120113932Y-88488921D01*
X120113578Y-88488720D01*
X120106448Y-88501838D01*
X119885403Y-88817674D01*
X119861242Y-88836994D01*
X119838445Y-88857889D01*
X119834200Y-88858620D01*
X119830836Y-88861311D01*
X119800069Y-88864502D01*
X119769591Y-88869755D01*
X119765624Y-88868075D01*
X119761339Y-88868520D01*
X119733734Y-88854572D01*
X119705251Y-88842512D01*
X119702821Y-88838953D01*
X119698977Y-88837011D01*
X119683295Y-88810354D01*
X119665854Y-88784808D01*
X119664854Y-88779005D01*
X119663550Y-88776789D01*
X119659860Y-88750027D01*
X119659352Y-88731783D01*
X119655581Y-88596464D01*
X119655539Y-88594223D01*
X119655498Y-88589869D01*
X119653440Y-88371251D01*
X119653467Y-88367330D01*
X119669455Y-87678104D01*
X119669961Y-87669443D01*
X119670506Y-87663621D01*
X119727337Y-87056034D01*
X119728688Y-87046024D01*
X119832237Y-86460282D01*
X119834346Y-86450622D01*
X119992411Y-85844391D01*
X119994143Y-85838383D01*
X120087584Y-85542663D01*
X120089866Y-85536096D01*
X120326164Y-84913367D01*
X120330169Y-84903995D01*
X120378302Y-84803052D01*
X120607484Y-84322416D01*
X120612659Y-84312701D01*
X120919989Y-83793130D01*
X120922542Y-83789005D01*
X120932904Y-83772964D01*
X120933827Y-83771556D01*
X120967872Y-83720527D01*
X120967875Y-83720516D01*
X120968186Y-83719886D01*
X120975287Y-83707348D01*
X121002435Y-83665321D01*
X121012918Y-83652411D01*
X121012883Y-83652384D01*
X121017859Y-83645964D01*
X121017863Y-83645961D01*
X121044024Y-83601166D01*
X121046921Y-83596452D01*
X121075079Y-83552864D01*
X121075080Y-83552860D01*
X121078563Y-83545514D01*
X121078603Y-83545533D01*
X121085386Y-83530347D01*
X121100286Y-83504837D01*
X121110052Y-83490521D01*
X121123764Y-83473163D01*
X121134842Y-83447445D01*
X121135203Y-83446618D01*
X121138031Y-83440211D01*
X121155589Y-83410151D01*
X121162559Y-83384646D01*
X121166294Y-83376188D01*
X121168378Y-83373720D01*
X121172218Y-83364488D01*
X121184174Y-83343680D01*
X121189280Y-83324456D01*
X121195231Y-83307262D01*
X121203106Y-83288985D01*
X121208473Y-83252219D01*
X121218013Y-83216313D01*
X121217951Y-83187294D01*
X121222143Y-83158583D01*
X121218642Y-83128766D01*
X121217797Y-83114570D01*
X121217766Y-83100013D01*
X121217734Y-83084530D01*
X121210163Y-83056514D01*
X121206781Y-83027697D01*
X121193047Y-82993176D01*
X121183355Y-82957309D01*
X121174707Y-82942403D01*
X121167380Y-82927578D01*
X121166465Y-82925368D01*
X121161476Y-82911848D01*
X121160020Y-82909789D01*
X121158358Y-82905771D01*
X121158065Y-82905246D01*
X121158008Y-82905170D01*
X121140119Y-82881164D01*
X121132293Y-82869299D01*
X121132000Y-82868794D01*
X121114598Y-82838799D01*
X121106089Y-82830326D01*
X121092327Y-82814034D01*
X121085403Y-82804239D01*
X121066996Y-82788934D01*
X121051996Y-82776462D01*
X121021215Y-82745811D01*
X121001527Y-82734499D01*
X120984070Y-82719985D01*
X120984068Y-82719984D01*
X120984067Y-82719983D01*
X120984068Y-82719983D01*
X120949668Y-82704131D01*
X120939795Y-82699033D01*
X120912253Y-82683210D01*
X120906948Y-82680162D01*
X120906947Y-82680161D01*
X120906946Y-82680161D01*
X120906943Y-82680159D01*
X120895335Y-82677075D01*
X120875291Y-82669855D01*
X120864385Y-82664830D01*
X120864375Y-82664826D01*
X120827042Y-82658416D01*
X120827042Y-82658417D01*
X120821556Y-82657475D01*
X120779581Y-82646323D01*
X120756878Y-82646370D01*
X120746330Y-82644560D01*
X120746328Y-82644559D01*
X120734501Y-82642529D01*
X120734499Y-82642529D01*
X120721241Y-82643749D01*
X120696776Y-82646000D01*
X120685686Y-82646521D01*
X120647794Y-82646603D01*
X120647792Y-82646603D01*
X120636203Y-82649734D01*
X120636204Y-82649735D01*
X120625873Y-82652526D01*
X120603269Y-82654607D01*
X120562522Y-82669645D01*
X120557149Y-82671097D01*
X120557146Y-82671096D01*
X120520577Y-82680980D01*
X120515226Y-82683210D01*
X120510647Y-82684858D01*
X120469036Y-82703792D01*
X120460617Y-82707256D01*
X120420322Y-82722128D01*
X120420319Y-82722129D01*
X120414677Y-82726118D01*
X120394476Y-82737717D01*
X120386703Y-82741255D01*
X120374249Y-82746131D01*
X120368377Y-82748071D01*
X120315498Y-82773618D01*
X120312916Y-82774829D01*
X120259517Y-82799127D01*
X120254291Y-82802389D01*
X120242582Y-82808846D01*
X120200385Y-82829231D01*
X120188576Y-82834094D01*
X120187775Y-82834492D01*
X120187774Y-82834493D01*
X120135370Y-82860586D01*
X120132175Y-82862177D01*
X120130849Y-82862827D01*
X120074039Y-82890273D01*
X120062920Y-82896661D01*
X120057643Y-82899288D01*
X120051662Y-82902069D01*
X120045938Y-82904548D01*
X119976597Y-82913127D01*
X119913625Y-82882856D01*
X119877016Y-82823346D01*
X119878392Y-82753490D01*
X119882132Y-82743224D01*
X119882950Y-82741255D01*
X119892519Y-82718199D01*
X119898039Y-82704901D01*
X119901798Y-82696701D01*
X119907179Y-82686007D01*
X120173220Y-82157296D01*
X120180890Y-82144139D01*
X120531458Y-81619857D01*
X120539415Y-81609237D01*
X120968268Y-81096645D01*
X120976507Y-81087728D01*
X121470784Y-80602800D01*
X121479514Y-80595011D01*
X122025530Y-80152487D01*
X122035118Y-80145452D01*
X122623408Y-79755876D01*
X122632280Y-79750523D01*
X123034839Y-79530130D01*
X123038582Y-79528165D01*
X123390777Y-79351085D01*
X123398059Y-79349353D01*
X123449565Y-79321526D01*
X123501831Y-79295248D01*
X123501839Y-79295240D01*
X123508052Y-79291020D01*
X123514002Y-79286716D01*
X123519575Y-79281448D01*
X123556548Y-79246509D01*
X123600237Y-79207594D01*
X123604346Y-79201339D01*
X123609786Y-79196199D01*
X123640470Y-79146360D01*
X123672603Y-79097457D01*
X123674953Y-79090353D01*
X123678878Y-79083979D01*
X123695623Y-79027878D01*
X123713998Y-78972342D01*
X123714429Y-78964874D01*
X123716571Y-78957700D01*
X123718225Y-78899186D01*
X123721601Y-78840778D01*
X123720084Y-78833450D01*
X123720296Y-78825969D01*
X123706749Y-78769021D01*
X123694892Y-78711728D01*
X123691531Y-78705044D01*
X123689799Y-78697761D01*
X123673410Y-78667426D01*
X123662828Y-78647838D01*
X123662827Y-78647836D01*
X123661967Y-78646245D01*
X123635694Y-78593989D01*
X123630719Y-78588403D01*
X123627160Y-78581816D01*
X123627156Y-78581811D01*
X123588199Y-78540587D01*
X123588199Y-78540586D01*
X123586915Y-78539227D01*
X123548039Y-78495583D01*
X123541786Y-78491474D01*
X123536645Y-78486034D01*
X123518548Y-78474892D01*
X123488348Y-78456298D01*
X123488348Y-78456297D01*
X123486760Y-78455319D01*
X123437902Y-78423217D01*
X123430799Y-78420867D01*
X123239752Y-78303242D01*
X123234014Y-78299487D01*
X122880944Y-78054197D01*
X122867531Y-78043425D01*
X122644445Y-77837247D01*
X122632482Y-77817253D01*
X122616872Y-77799954D01*
X122614879Y-77787832D01*
X122608572Y-77777290D01*
X122609318Y-77754000D01*
X122605539Y-77731009D01*
X122610416Y-77719733D01*
X122610810Y-77707456D01*
X122624027Y-77688268D01*
X122633279Y-77666882D01*
X122643477Y-77660033D01*
X122650447Y-77649917D01*
X122671941Y-77640921D01*
X122691285Y-77627933D01*
X122710539Y-77624767D01*
X122714900Y-77622943D01*
X122726096Y-77622209D01*
X122731132Y-77622107D01*
X122733067Y-77622086D01*
X122793694Y-77621907D01*
X122793705Y-77621903D01*
X122795886Y-77621611D01*
X122809951Y-77620524D01*
X123028698Y-77616132D01*
X123037482Y-77617972D01*
X123094464Y-77614812D01*
X123151488Y-77613667D01*
X123151491Y-77613666D01*
X123151492Y-77613666D01*
X123159525Y-77612445D01*
X123159590Y-77612876D01*
X123174182Y-77610391D01*
X123395502Y-77598118D01*
X123405070Y-77599743D01*
X123461156Y-77594477D01*
X123517394Y-77591359D01*
X123517396Y-77591358D01*
X123525382Y-77589853D01*
X123525440Y-77590163D01*
X123540471Y-77587030D01*
X123726512Y-77569565D01*
X123738670Y-77571031D01*
X123791937Y-77563423D01*
X123845524Y-77558393D01*
X123845530Y-77558390D01*
X123850018Y-77557366D01*
X123870156Y-77552252D01*
X123912561Y-77546196D01*
X123937609Y-77545180D01*
X123940043Y-77545328D01*
X123986448Y-77535865D01*
X123993691Y-77534611D01*
X124011579Y-77532056D01*
X124040597Y-77527912D01*
X124042844Y-77526952D01*
X124066772Y-77519485D01*
X124142293Y-77504086D01*
X124157521Y-77502727D01*
X124157486Y-77502402D01*
X124165566Y-77501523D01*
X124165566Y-77501522D01*
X124165573Y-77501523D01*
X124218133Y-77488710D01*
X124222598Y-77487711D01*
X124275632Y-77476898D01*
X124275637Y-77476895D01*
X124275639Y-77476895D01*
X124283318Y-77474248D01*
X124283425Y-77474558D01*
X124297788Y-77469296D01*
X124410517Y-77441819D01*
X124417188Y-77441796D01*
X124474449Y-77426236D01*
X124476049Y-77425846D01*
X124532067Y-77412193D01*
X124532069Y-77412192D01*
X124532074Y-77412191D01*
X124532078Y-77412188D01*
X124539652Y-77409251D01*
X124539972Y-77410076D01*
X124552078Y-77405142D01*
X124673072Y-77372265D01*
X124678926Y-77372110D01*
X124736568Y-77355012D01*
X124794594Y-77339245D01*
X124794598Y-77339242D01*
X124800278Y-77336866D01*
X124812866Y-77332379D01*
X124927032Y-77298516D01*
X124933634Y-77298169D01*
X124990102Y-77279808D01*
X125032532Y-77267222D01*
X125047037Y-77262921D01*
X125054460Y-77259612D01*
X125054856Y-77260501D01*
X125066642Y-77254921D01*
X125143174Y-77230036D01*
X125158520Y-77226873D01*
X125158465Y-77226630D01*
X125166392Y-77224830D01*
X125182506Y-77218871D01*
X125216534Y-77206287D01*
X125221164Y-77204679D01*
X125272031Y-77188141D01*
X125272037Y-77188137D01*
X125279369Y-77184639D01*
X125279476Y-77184863D01*
X125293466Y-77177840D01*
X125343823Y-77159219D01*
X125363530Y-77153734D01*
X125377437Y-77151076D01*
X125409612Y-77135505D01*
X125420596Y-77130830D01*
X125454133Y-77118430D01*
X125454136Y-77118428D01*
X125465689Y-77110250D01*
X125483315Y-77099841D01*
X125494585Y-77094388D01*
X125509724Y-77088261D01*
X125533116Y-77080543D01*
X125561007Y-77062249D01*
X125591033Y-77047720D01*
X125615871Y-77026263D01*
X125643312Y-77008265D01*
X125660165Y-76989373D01*
X125664816Y-76984440D01*
X125668084Y-76981158D01*
X125690760Y-76961571D01*
X125697543Y-76951579D01*
X125705739Y-76943351D01*
X125707386Y-76942446D01*
X125710750Y-76938594D01*
X125712607Y-76936927D01*
X125722740Y-76921364D01*
X125734118Y-76906485D01*
X125746473Y-76892639D01*
X125760586Y-76864625D01*
X125767400Y-76852779D01*
X125784518Y-76826491D01*
X125790275Y-76808843D01*
X125797410Y-76791535D01*
X125805768Y-76774948D01*
X125813542Y-76737532D01*
X125825395Y-76701207D01*
X125826892Y-76673291D01*
X125832580Y-76645920D01*
X125830795Y-76614612D01*
X125830773Y-76600919D01*
X125832453Y-76569612D01*
X125826674Y-76542259D01*
X125825084Y-76514349D01*
X125813111Y-76478063D01*
X125805212Y-76440674D01*
X125792550Y-76415749D01*
X125783791Y-76389202D01*
X125762831Y-76357246D01*
X125745526Y-76323180D01*
X125733128Y-76309376D01*
X125732500Y-76308672D01*
X125726588Y-76301988D01*
X125711514Y-76279006D01*
X125686601Y-76256778D01*
X125681743Y-76251286D01*
X125680608Y-76248868D01*
X125673636Y-76241087D01*
X125658868Y-76220360D01*
X125644007Y-76208096D01*
X125630681Y-76195317D01*
X125617801Y-76180977D01*
X125592115Y-76164251D01*
X125580854Y-76155978D01*
X125556475Y-76135859D01*
X125541314Y-76120359D01*
X125538583Y-76117700D01*
X125497983Y-76087397D01*
X125495559Y-76085588D01*
X125454158Y-76051421D01*
X125442895Y-76046280D01*
X125400409Y-76014569D01*
X125389849Y-76005733D01*
X125386944Y-76003014D01*
X125386940Y-76003011D01*
X125346980Y-75974400D01*
X125340025Y-75969035D01*
X125028242Y-75710447D01*
X125018183Y-75701117D01*
X124945311Y-75625597D01*
X124708935Y-75380630D01*
X124701381Y-75372042D01*
X124411709Y-75010356D01*
X124404791Y-75000823D01*
X124396740Y-74988541D01*
X124163328Y-74632480D01*
X124157242Y-74622135D01*
X124152770Y-74613616D01*
X124051913Y-74421472D01*
X124044639Y-74404719D01*
X123992048Y-74254107D01*
X123985247Y-74234632D01*
X123979496Y-74210824D01*
X123978339Y-74202495D01*
X123964308Y-74101530D01*
X123974578Y-74032421D01*
X124020581Y-73979834D01*
X124070899Y-73961531D01*
X124076799Y-73960752D01*
X124076799Y-73960751D01*
X124076806Y-73960751D01*
X124110273Y-73946872D01*
X124121313Y-73942897D01*
X124155944Y-73932257D01*
X124167540Y-73924987D01*
X124185893Y-73915514D01*
X124198539Y-73910271D01*
X124231936Y-73884623D01*
X124267605Y-73862265D01*
X124283981Y-73844654D01*
X124303058Y-73830004D01*
X124317715Y-73810886D01*
X124333945Y-73793470D01*
X124351664Y-73777791D01*
X124359606Y-73765787D01*
X124372205Y-73749778D01*
X124382017Y-73739228D01*
X124401466Y-73702524D01*
X124424385Y-73667888D01*
X124432193Y-73644539D01*
X124443723Y-73622782D01*
X124453009Y-73582296D01*
X124466183Y-73542907D01*
X124467682Y-73518331D01*
X124473187Y-73494335D01*
X124471898Y-73458857D01*
X124472046Y-73446808D01*
X124472057Y-73446632D01*
X124474209Y-73411368D01*
X124469296Y-73387241D01*
X124468403Y-73362637D01*
X124456204Y-73322935D01*
X124447917Y-73282233D01*
X124441342Y-73269051D01*
X124441235Y-73268834D01*
X124436843Y-73259926D01*
X124429696Y-73236665D01*
X124409894Y-73205075D01*
X124387568Y-73161227D01*
X124387183Y-73160463D01*
X124363145Y-73112270D01*
X124358904Y-73103766D01*
X124358903Y-73103765D01*
X124357384Y-73100719D01*
X124353451Y-73094050D01*
X124349597Y-73086501D01*
X124349511Y-73086099D01*
X124319702Y-73027947D01*
X124290170Y-72969949D01*
X124290169Y-72969948D01*
X124287303Y-72964319D01*
X124285757Y-72961726D01*
X124267813Y-72926721D01*
X124262132Y-72915638D01*
X124261467Y-72914102D01*
X124228151Y-72849345D01*
X124228150Y-72849344D01*
X124228067Y-72849183D01*
X124198330Y-72791170D01*
X124198078Y-72790891D01*
X124194236Y-72783423D01*
X124194232Y-72783417D01*
X124183113Y-72761807D01*
X124179097Y-72753208D01*
X123949395Y-72207639D01*
X123943308Y-72189301D01*
X123937215Y-72164671D01*
X123808079Y-71642620D01*
X123804919Y-71623602D01*
X123799652Y-71563100D01*
X123753604Y-71034132D01*
X123753140Y-71024015D01*
X123753059Y-71008203D01*
X123753059Y-71007103D01*
X123753181Y-70980879D01*
X123753979Y-70808005D01*
X123773973Y-70741058D01*
X123826988Y-70695548D01*
X123856805Y-70688221D01*
X123856511Y-70686684D01*
X123864495Y-70685154D01*
X123864497Y-70685155D01*
X123881663Y-70681867D01*
X123900701Y-70679730D01*
X123918181Y-70679128D01*
X123955557Y-70667719D01*
X123993930Y-70660372D01*
X124018311Y-70648564D01*
X124044224Y-70640655D01*
X124077372Y-70619962D01*
X124112537Y-70602933D01*
X124133027Y-70585220D01*
X124141185Y-70580128D01*
X124141185Y-70580127D01*
X124156015Y-70570871D01*
X124178146Y-70547159D01*
X124183521Y-70541744D01*
X124185565Y-70539807D01*
X124212238Y-70516753D01*
X124216381Y-70510646D01*
X124218472Y-70509114D01*
X124245124Y-70475903D01*
X124251167Y-70468925D01*
X124280226Y-70437792D01*
X124289115Y-70421091D01*
X124300958Y-70406336D01*
X124319966Y-70363135D01*
X124342149Y-70321462D01*
X124346414Y-70303025D01*
X124354032Y-70285712D01*
X124361211Y-70239064D01*
X124371852Y-70193069D01*
X124371601Y-70185792D01*
X124372970Y-70162657D01*
X124374078Y-70155461D01*
X124369440Y-70113125D01*
X124368953Y-70107475D01*
X124368841Y-70105716D01*
X124367313Y-70061362D01*
X124365696Y-70056064D01*
X124364966Y-70044541D01*
X124364843Y-70043815D01*
X124364844Y-70043812D01*
X124356893Y-69996669D01*
X124355907Y-69989571D01*
X124354536Y-69977055D01*
X124350705Y-69942073D01*
X124349973Y-69940190D01*
X124343266Y-69915864D01*
X124329747Y-69835699D01*
X124182550Y-68962846D01*
X124181866Y-68958267D01*
X124060192Y-68024497D01*
X124059599Y-68018981D01*
X123984727Y-67133967D01*
X123984359Y-67127742D01*
X123955039Y-66266165D01*
X123954988Y-66259748D01*
X123955727Y-66218186D01*
X123970352Y-65395385D01*
X123970605Y-65389388D01*
X124030306Y-64496287D01*
X124030766Y-64491070D01*
X124135188Y-63540378D01*
X124135524Y-63537612D01*
X124138402Y-63515938D01*
X124166949Y-63300939D01*
X124167416Y-63297743D01*
X124168715Y-63289606D01*
X124332429Y-62263920D01*
X124333533Y-62257959D01*
X124531252Y-61319681D01*
X124532919Y-61312765D01*
X124540995Y-61283027D01*
X124762397Y-60467731D01*
X124764858Y-60459749D01*
X125023829Y-59710859D01*
X125027488Y-59701521D01*
X125064366Y-59617562D01*
X125312863Y-59051810D01*
X125318260Y-59040990D01*
X125625931Y-58492977D01*
X125633884Y-58480597D01*
X125961289Y-58031860D01*
X125971488Y-58019621D01*
X126242434Y-57734077D01*
X126253023Y-57724155D01*
X126476404Y-57538224D01*
X126492436Y-57526902D01*
X126665147Y-57424418D01*
X126688968Y-57413504D01*
X126853237Y-57358398D01*
X126876595Y-57353008D01*
X127111414Y-57322330D01*
X127129632Y-57321305D01*
X127338127Y-57324967D01*
X127353926Y-57326259D01*
X127571961Y-57358230D01*
X127586165Y-57361170D01*
X127835125Y-57428100D01*
X127846895Y-57431904D01*
X128134715Y-57541076D01*
X128143972Y-57545025D01*
X128475688Y-57702747D01*
X128482720Y-57706371D01*
X128862106Y-57917569D01*
X128867377Y-57920678D01*
X129297895Y-58189157D01*
X129301845Y-58191725D01*
X129787337Y-58520741D01*
X129790268Y-58522790D01*
X130334963Y-58915321D01*
X130337057Y-58916865D01*
X130929276Y-59363546D01*
X130945535Y-59375809D01*
X130947052Y-59376972D01*
X131624903Y-59905793D01*
X131625570Y-59906319D01*
X131978225Y-60186778D01*
X131978360Y-60186886D01*
X132619476Y-60700529D01*
X132619669Y-60700683D01*
X133181599Y-61153133D01*
X133613435Y-61503150D01*
X133668272Y-61547597D01*
X133668651Y-61547906D01*
X133885437Y-61725209D01*
X134082149Y-61886093D01*
X134082737Y-61886576D01*
X134426995Y-62171677D01*
X134427838Y-62172382D01*
X134705145Y-62406210D01*
X134706410Y-62407291D01*
X134909920Y-62583635D01*
X134911782Y-62585248D01*
X134912726Y-62586075D01*
X134950783Y-62619732D01*
X134959663Y-62627586D01*
X134965316Y-62632585D01*
X134965525Y-62632770D01*
X135019462Y-62680688D01*
X135021438Y-62682219D01*
X135094633Y-62746954D01*
X135100504Y-62755102D01*
X135143875Y-62790505D01*
X135145722Y-62792139D01*
X135145722Y-62792140D01*
X135172759Y-62816050D01*
X135185829Y-62827609D01*
X135185830Y-62827609D01*
X135185831Y-62827610D01*
X135192572Y-62832156D01*
X135192426Y-62832371D01*
X135205533Y-62840835D01*
X135240078Y-62869035D01*
X135247478Y-62875585D01*
X135269299Y-62896517D01*
X135277000Y-62903904D01*
X135284860Y-62908227D01*
X135303513Y-62920815D01*
X135310470Y-62926494D01*
X135347768Y-62943275D01*
X135356623Y-62947692D01*
X135377136Y-62958974D01*
X135391809Y-62967044D01*
X135392806Y-62967599D01*
X135447859Y-62998541D01*
X135449348Y-62999122D01*
X135450412Y-62999543D01*
X135451921Y-63000147D01*
X135452066Y-63000182D01*
X135452069Y-63000184D01*
X135501525Y-63012339D01*
X135513214Y-63015212D01*
X135514287Y-63015480D01*
X135575411Y-63031105D01*
X135575418Y-63031104D01*
X135578251Y-63031444D01*
X135578252Y-63031444D01*
X135578273Y-63031447D01*
X135579897Y-63031641D01*
X135580040Y-63031638D01*
X135580045Y-63031639D01*
X135643184Y-63030325D01*
X135643933Y-63030313D01*
X135707185Y-63029583D01*
X135707198Y-63029579D01*
X135710049Y-63029171D01*
X135711655Y-63028940D01*
X135711795Y-63028899D01*
X135711800Y-63028899D01*
X135772885Y-63011162D01*
X135834077Y-62994006D01*
X135836089Y-62992811D01*
X135838348Y-62992156D01*
X135838351Y-62992153D01*
X135838358Y-62992152D01*
X135885163Y-62963813D01*
X135898723Y-62956711D01*
X135925596Y-62944691D01*
X135940975Y-62932191D01*
X135955944Y-62921755D01*
X135972993Y-62911649D01*
X135994038Y-62890110D01*
X136004498Y-62880565D01*
X136027866Y-62861576D01*
X136039490Y-62845516D01*
X136051240Y-62831572D01*
X136065096Y-62817394D01*
X136083325Y-62784960D01*
X136105139Y-62754825D01*
X136115472Y-62727763D01*
X136128191Y-62705135D01*
X136129663Y-62702516D01*
X136129663Y-62702515D01*
X136129665Y-62702512D01*
X136137124Y-62673327D01*
X136141403Y-62659854D01*
X136149276Y-62639234D01*
X136191579Y-62583635D01*
X136257232Y-62559729D01*
X136325387Y-62575112D01*
X136328422Y-62576856D01*
X136335850Y-62581268D01*
X136349553Y-62590706D01*
X136490593Y-62702512D01*
X136493902Y-62705135D01*
X136500622Y-62710863D01*
X136519074Y-62727763D01*
X136691481Y-62885671D01*
X136696255Y-62890285D01*
X136898567Y-63096554D01*
X136903013Y-63101332D01*
X137094325Y-63318111D01*
X137098310Y-63322860D01*
X137187558Y-63434802D01*
X137192852Y-63441955D01*
X137277118Y-63564786D01*
X137321682Y-63629745D01*
X137329965Y-63641818D01*
X137334005Y-63648105D01*
X137497512Y-63920249D01*
X137500018Y-63924618D01*
X137670098Y-64235653D01*
X137672248Y-64239766D01*
X137733415Y-64362308D01*
X137824653Y-64545096D01*
X137827150Y-64550097D01*
X137829586Y-64555275D01*
X137871711Y-64650440D01*
X137952157Y-64832179D01*
X137954306Y-64837345D01*
X137981434Y-64906957D01*
X137982083Y-64908661D01*
X138069827Y-65143988D01*
X138072035Y-65150446D01*
X138086515Y-65196954D01*
X138086519Y-65196962D01*
X138087107Y-65197892D01*
X138093981Y-65208768D01*
X138098860Y-65221852D01*
X138129064Y-65264279D01*
X138130885Y-65267159D01*
X138130901Y-65267182D01*
X138156926Y-65308357D01*
X138156928Y-65308359D01*
X138157735Y-65309104D01*
X138167191Y-65317831D01*
X138175291Y-65329209D01*
X138215471Y-65362392D01*
X138217976Y-65364704D01*
X138217977Y-65364706D01*
X138253762Y-65397734D01*
X138253766Y-65397736D01*
X138253767Y-65397737D01*
X138266133Y-65404231D01*
X138276903Y-65413125D01*
X138324294Y-65434773D01*
X138370442Y-65459008D01*
X138384072Y-65462081D01*
X138396773Y-65467883D01*
X138448145Y-65476527D01*
X138498998Y-65487993D01*
X138512958Y-65487433D01*
X138526730Y-65489751D01*
X138578599Y-65484803D01*
X138630678Y-65482717D01*
X138644016Y-65478564D01*
X138657919Y-65477238D01*
X138706731Y-65459037D01*
X138756504Y-65443541D01*
X138768316Y-65436074D01*
X138781399Y-65431197D01*
X138823837Y-65400982D01*
X138867903Y-65373132D01*
X138868875Y-65372078D01*
X138877503Y-65362775D01*
X138888755Y-65354766D01*
X138919815Y-65317155D01*
X138919849Y-65317119D01*
X138924233Y-65312098D01*
X139196942Y-65016625D01*
X139208470Y-65006651D01*
X139208243Y-65006398D01*
X139214284Y-65000966D01*
X139214290Y-65000963D01*
X139240253Y-64970617D01*
X139249487Y-64959825D01*
X139252569Y-64956355D01*
X139289308Y-64916551D01*
X139289311Y-64916546D01*
X139293999Y-64909903D01*
X139294277Y-64910099D01*
X139302820Y-64897488D01*
X139375579Y-64812449D01*
X139384251Y-64805940D01*
X139418313Y-64762503D01*
X139454204Y-64720555D01*
X139454206Y-64720548D01*
X139458637Y-64713740D01*
X139458748Y-64713812D01*
X139467294Y-64700041D01*
X139576549Y-64560719D01*
X139582167Y-64556249D01*
X139617139Y-64508958D01*
X139653439Y-64462670D01*
X139653438Y-64462670D01*
X139653440Y-64462669D01*
X139657578Y-64455673D01*
X139658224Y-64456055D01*
X139664905Y-64444369D01*
X139786084Y-64280512D01*
X139791344Y-64276089D01*
X139825207Y-64227610D01*
X139860359Y-64180079D01*
X139860360Y-64180074D01*
X139860362Y-64180073D01*
X139864300Y-64172966D01*
X139865007Y-64173358D01*
X139871246Y-64161701D01*
X139984308Y-63999844D01*
X139988024Y-63996595D01*
X140021998Y-63945888D01*
X140056950Y-63895853D01*
X140056952Y-63895846D01*
X140058334Y-63893186D01*
X140065915Y-63880492D01*
X140212129Y-63665877D01*
X140213865Y-63663396D01*
X140220700Y-63653877D01*
X140275785Y-63610903D01*
X140345363Y-63604531D01*
X140407342Y-63636787D01*
X140439799Y-63689272D01*
X140459683Y-63753015D01*
X140463842Y-63770926D01*
X140504067Y-64030135D01*
X140504791Y-64035597D01*
X140514045Y-64119755D01*
X140514045Y-64119757D01*
X140515573Y-64133661D01*
X140514490Y-64143034D01*
X140522753Y-64198973D01*
X140523006Y-64201268D01*
X140523010Y-64201298D01*
X140528945Y-64255268D01*
X140530880Y-64263158D01*
X140530532Y-64263243D01*
X140534413Y-64277890D01*
X140535644Y-64286217D01*
X140536953Y-64301908D01*
X140537468Y-64328094D01*
X140537469Y-64328098D01*
X140544063Y-64350904D01*
X140544073Y-64350938D01*
X140546391Y-64358964D01*
X140551080Y-64390697D01*
X140564531Y-64421775D01*
X140566724Y-64429368D01*
X140566722Y-64429644D01*
X140567120Y-64430771D01*
X140583119Y-64488716D01*
X140583936Y-64490583D01*
X140584528Y-64491960D01*
X140585325Y-64493845D01*
X140594452Y-64508958D01*
X140617585Y-64547264D01*
X140618297Y-64548459D01*
X140649807Y-64602092D01*
X140649810Y-64602095D01*
X140652145Y-64605092D01*
X140652145Y-64605093D01*
X140653398Y-64606700D01*
X140698394Y-64649959D01*
X140698394Y-64649960D01*
X140698965Y-64650509D01*
X140743697Y-64694568D01*
X140746368Y-64696082D01*
X140748584Y-64698213D01*
X140748588Y-64698215D01*
X140748590Y-64698217D01*
X140769655Y-64709832D01*
X140803005Y-64728222D01*
X140803006Y-64728222D01*
X140803639Y-64728571D01*
X140858322Y-64759591D01*
X140861297Y-64760364D01*
X140863994Y-64761851D01*
X140864000Y-64761852D01*
X140864001Y-64761853D01*
X140924282Y-64776740D01*
X140925736Y-64777108D01*
X140935506Y-64779646D01*
X140985871Y-64792733D01*
X140985878Y-64792732D01*
X140989580Y-64793192D01*
X140989604Y-64793195D01*
X140991675Y-64793451D01*
X140991929Y-64793445D01*
X140991934Y-64793447D01*
X141054042Y-64792223D01*
X141055535Y-64792204D01*
X141117651Y-64791733D01*
X141117657Y-64791731D01*
X141121356Y-64791216D01*
X141121379Y-64791213D01*
X141123441Y-64790925D01*
X141123689Y-64790853D01*
X141123693Y-64790853D01*
X141184066Y-64773395D01*
X141244683Y-64756659D01*
X141247332Y-64755101D01*
X141250291Y-64754246D01*
X141291926Y-64729101D01*
X141316571Y-64717692D01*
X141316723Y-64717641D01*
X141357701Y-64690450D01*
X141357989Y-64690261D01*
X141360517Y-64688604D01*
X141405255Y-64662321D01*
X141413677Y-64653769D01*
X141424756Y-64646510D01*
X141427530Y-64645668D01*
X141427424Y-64645513D01*
X141463277Y-64620902D01*
X141484487Y-64606342D01*
X141485939Y-64605362D01*
X141536838Y-64571591D01*
X141536844Y-64571584D01*
X141537841Y-64570716D01*
X141549120Y-64561977D01*
X141579884Y-64540859D01*
X141586570Y-64536855D01*
X141589505Y-64534808D01*
X141589511Y-64534807D01*
X141641806Y-64498358D01*
X141642416Y-64497937D01*
X141680438Y-64471838D01*
X141684572Y-64469120D01*
X141964865Y-64292801D01*
X141972128Y-64288569D01*
X142319347Y-64101799D01*
X142324918Y-64098984D01*
X142706657Y-63918162D01*
X142712181Y-63915711D01*
X143087154Y-63760237D01*
X143094135Y-63757588D01*
X143428274Y-63642324D01*
X143435488Y-63640081D01*
X143530014Y-63613836D01*
X143536351Y-63612257D01*
X143933800Y-63524454D01*
X143940472Y-63523172D01*
X144345866Y-63456789D01*
X144352215Y-63455918D01*
X144746510Y-63412286D01*
X144753359Y-63411721D01*
X145112870Y-63392120D01*
X145121375Y-63391950D01*
X145418547Y-63396232D01*
X145431061Y-63397047D01*
X145541800Y-63409917D01*
X145606117Y-63437209D01*
X145645470Y-63494942D01*
X145647363Y-63564786D01*
X145619327Y-63616399D01*
X145518216Y-63727867D01*
X145515704Y-63730555D01*
X145313718Y-63940368D01*
X145312068Y-63942049D01*
X145269683Y-63984434D01*
X145267568Y-63987189D01*
X145267569Y-63987190D01*
X145266180Y-63988999D01*
X145265990Y-63989290D01*
X145263919Y-63992097D01*
X145234927Y-64044590D01*
X145233771Y-64046636D01*
X145203794Y-64098558D01*
X145202458Y-64101785D01*
X145201589Y-64103879D01*
X145201484Y-64104201D01*
X145200206Y-64107459D01*
X145185787Y-64165673D01*
X145185510Y-64166796D01*
X145169686Y-64225855D01*
X145169686Y-64230687D01*
X145168524Y-64235379D01*
X145169686Y-64296499D01*
X145169686Y-64357639D01*
X145170937Y-64362308D01*
X145171029Y-64367141D01*
X145187650Y-64424769D01*
X145187649Y-64424769D01*
X145187978Y-64425912D01*
X145203794Y-64484933D01*
X145206210Y-64489119D01*
X145207550Y-64493762D01*
X145225108Y-64522881D01*
X145238503Y-64545096D01*
X145239700Y-64547124D01*
X145253436Y-64570916D01*
X145269687Y-64599062D01*
X145271789Y-64601801D01*
X145271811Y-64601829D01*
X145273213Y-64603657D01*
X145273431Y-64603901D01*
X145275595Y-64606613D01*
X145275598Y-64606616D01*
X145275599Y-64606617D01*
X145319629Y-64649004D01*
X145362872Y-64692247D01*
X145367057Y-64694663D01*
X145370539Y-64698015D01*
X145423044Y-64727012D01*
X145425049Y-64728145D01*
X145477000Y-64758139D01*
X145477004Y-64758140D01*
X145480207Y-64759467D01*
X145480206Y-64759467D01*
X145482352Y-64760355D01*
X145482687Y-64760466D01*
X145485891Y-64761721D01*
X145485899Y-64761726D01*
X145544134Y-64776149D01*
X145546350Y-64776720D01*
X145604294Y-64792247D01*
X145604302Y-64792247D01*
X145607729Y-64792699D01*
X145607728Y-64792699D01*
X145610033Y-64793002D01*
X145610380Y-64793022D01*
X145613808Y-64793406D01*
X145613818Y-64793409D01*
X145673781Y-64792269D01*
X145676137Y-64792247D01*
X146180030Y-64792247D01*
X146186309Y-64792406D01*
X146206070Y-64793408D01*
X146645741Y-64815702D01*
X146657422Y-64816851D01*
X147038482Y-64872713D01*
X147149038Y-64888920D01*
X147157038Y-64890362D01*
X147532405Y-64970805D01*
X147593127Y-64984732D01*
X147596772Y-64984599D01*
X147600340Y-64985364D01*
X147661720Y-64982249D01*
X147663472Y-64982173D01*
X147678930Y-64981611D01*
X147695013Y-64982070D01*
X147720198Y-64984433D01*
X147752557Y-64978934D01*
X147785352Y-64977742D01*
X147817232Y-64967945D01*
X147850120Y-64962357D01*
X147879951Y-64948671D01*
X147911323Y-64939031D01*
X147939586Y-64921312D01*
X147969901Y-64907406D01*
X147988907Y-64891657D01*
X147992019Y-64889164D01*
X147996887Y-64885391D01*
X148022981Y-64869035D01*
X148035832Y-64855212D01*
X148043811Y-64849030D01*
X148045065Y-64848538D01*
X148048315Y-64845700D01*
X148051250Y-64843629D01*
X148051258Y-64843626D01*
X148087496Y-64810198D01*
X148092438Y-64805876D01*
X148130406Y-64774419D01*
X148138210Y-64763419D01*
X148148125Y-64754274D01*
X148176231Y-64709832D01*
X148206665Y-64666940D01*
X148206840Y-64666467D01*
X148218295Y-64643320D01*
X148227062Y-64629459D01*
X148239203Y-64613337D01*
X148249093Y-64602219D01*
X148267552Y-64565438D01*
X148289550Y-64530657D01*
X148296990Y-64506784D01*
X148370736Y-64359845D01*
X148371936Y-64357519D01*
X148574607Y-63974943D01*
X148579352Y-63966760D01*
X148800990Y-63616156D01*
X148806075Y-63608727D01*
X149044418Y-63286454D01*
X149050288Y-63279117D01*
X149292188Y-62999262D01*
X149299599Y-62991411D01*
X149529109Y-62768554D01*
X149539631Y-62759429D01*
X149734038Y-62609143D01*
X149751243Y-62597988D01*
X149807144Y-62568000D01*
X149875525Y-62553657D01*
X149940806Y-62578560D01*
X149982261Y-62634803D01*
X149988020Y-62656570D01*
X149988072Y-62656881D01*
X149988159Y-62657070D01*
X149996437Y-62681654D01*
X149996483Y-62681864D01*
X150019456Y-62725802D01*
X150022304Y-62731613D01*
X150042954Y-62776693D01*
X150043087Y-62776854D01*
X150045234Y-62779522D01*
X150052202Y-62788431D01*
X150057543Y-62798646D01*
X150075253Y-62817904D01*
X150078302Y-62821802D01*
X150079420Y-62824616D01*
X150088709Y-62837412D01*
X150089454Y-62838737D01*
X150117444Y-62867368D01*
X150124299Y-62874985D01*
X150149840Y-62905848D01*
X150166930Y-62917988D01*
X150181579Y-62932973D01*
X150220439Y-62956000D01*
X150257276Y-62982168D01*
X150276923Y-62989470D01*
X150294953Y-63000154D01*
X150338452Y-63012339D01*
X150380803Y-63028080D01*
X150401672Y-63030048D01*
X150421853Y-63035702D01*
X150467021Y-63036214D01*
X150512005Y-63040458D01*
X150532672Y-63036958D01*
X150553628Y-63037196D01*
X150597392Y-63025999D01*
X150641939Y-63018456D01*
X150650878Y-63014361D01*
X150671774Y-63006968D01*
X150681300Y-63004532D01*
X150716227Y-62984890D01*
X150725316Y-62980263D01*
X150761752Y-62963574D01*
X150769328Y-62957303D01*
X150787594Y-62944756D01*
X150797066Y-62939430D01*
X150803122Y-62936243D01*
X150846687Y-62914843D01*
X150857314Y-62905551D01*
X150869619Y-62898632D01*
X150906779Y-62862304D01*
X150976059Y-62801733D01*
X150989441Y-62792397D01*
X150989377Y-62792309D01*
X150995932Y-62787520D01*
X150995941Y-62787516D01*
X151034619Y-62750626D01*
X151035800Y-62749502D01*
X151077234Y-62713278D01*
X151083232Y-62704328D01*
X151093112Y-62694920D01*
X151093310Y-62694817D01*
X151093673Y-62694390D01*
X151212770Y-62582390D01*
X151214642Y-62580669D01*
X151363722Y-62446568D01*
X151365090Y-62445358D01*
X151550059Y-62284616D01*
X151551021Y-62283792D01*
X151778485Y-62091091D01*
X151779011Y-62090650D01*
X152056054Y-61860179D01*
X152056294Y-61859981D01*
X152389145Y-61586600D01*
X152785063Y-61264279D01*
X153251012Y-60887227D01*
X153251048Y-60887271D01*
X153251176Y-60887094D01*
X153640925Y-60572840D01*
X154277206Y-60063423D01*
X154277525Y-60063170D01*
X154842256Y-59617905D01*
X154843146Y-59617211D01*
X155345104Y-59229771D01*
X155346327Y-59228842D01*
X155793313Y-58893635D01*
X155795027Y-58892374D01*
X156195199Y-58603461D01*
X156197468Y-58601863D01*
X156365140Y-58486551D01*
X156559000Y-58353228D01*
X156561768Y-58351379D01*
X156893192Y-58136713D01*
X156896470Y-58134663D01*
X157206630Y-57947469D01*
X157210248Y-57945368D01*
X157509555Y-57778353D01*
X157512774Y-57776621D01*
X157742553Y-57657453D01*
X157747932Y-57654828D01*
X158116905Y-57485771D01*
X158128530Y-57481141D01*
X158418547Y-57382353D01*
X158435292Y-57377928D01*
X158680844Y-57331119D01*
X158699825Y-57329001D01*
X158956104Y-57320277D01*
X158976902Y-57321320D01*
G37*
%TD.AperFunction*%
%TD*%
M02*
