%TF.GenerationSoftware,KiCad,Pcbnew,9.0.7-9.0.7~ubuntu24.04.1*%
%TF.CreationDate,2026-08-17T01:15:09-05:00*%
%TF.ProjectId,CoyotePCB,436f796f-7465-4504-9342-2e6b69636164,1.0*%
%TF.SameCoordinates,Original*%
%TF.FileFunction,Soldermask,Top*%
%TF.FilePolarity,Negative*%
%FSLAX46Y46*%
G04 Gerber Fmt 4.6, Leading zero omitted, Abs format (unit mm)*
G04 Created by KiCad (PCBNEW 9.0.7-9.0.7~ubuntu24.04.1) date 2026-08-17 01:15:09*
%MOMM*%
%LPD*%
G01*
G04 APERTURE LIST*
G04 Aperture macros list*
%AMHorizOval*
0 Thick line with rounded ends*
0 $1 width*
0 $2 $3 position (X,Y) of the first rounded end (center of the circle)*
0 $4 $5 position (X,Y) of the second rounded end (center of the circle)*
0 Add line between two ends*
20,1,$1,$2,$3,$4,$5,0*
0 Add two circle primitives to create the rounded ends*
1,1,$1,$2,$3*
1,1,$1,$4,$5*%
%AMRotRect*
0 Rectangle, with rotation*
0 The origin of the aperture is its center*
0 $1 length*
0 $2 width*
0 $3 Rotation angle, in degrees counterclockwise*
0 Add horizontal line*
21,1,$1,$2,0,0,$3*%
G04 Aperture macros list end*
%ADD10C,0.000000*%
%ADD11C,1.800000*%
%ADD12C,1.600000*%
%ADD13C,1.500000*%
%ADD14RotRect,1.050000X1.500000X320.000000*%
%ADD15HorizOval,1.050000X-0.144627X-0.172360X0.144627X0.172360X0*%
%ADD16C,1.676400*%
%ADD17C,2.006600*%
G04 APERTURE END LIST*
D10*
%TO.C,REF\u002A\u002A*%
G36*
X141494755Y-96375899D02*
G01*
X141856535Y-96429764D01*
X141967243Y-96458888D01*
X142267983Y-96560252D01*
X142541950Y-96673272D01*
X142765205Y-96786902D01*
X142913807Y-96890096D01*
X142925086Y-96900852D01*
X142985448Y-96955486D01*
X143040245Y-96970649D01*
X143117718Y-96940914D01*
X143246113Y-96860854D01*
X143292696Y-96830221D01*
X143725985Y-96602383D01*
X144207949Y-96448904D01*
X144713385Y-96373461D01*
X145217089Y-96379727D01*
X145693858Y-96471378D01*
X145713355Y-96477286D01*
X146028067Y-96600977D01*
X146343823Y-96771586D01*
X146627597Y-96968530D01*
X146846361Y-97171225D01*
X146868611Y-97197298D01*
X147034390Y-97472481D01*
X147141243Y-97810792D01*
X147185295Y-98187259D01*
X147162671Y-98576909D01*
X147117273Y-98799860D01*
X147049061Y-99059574D01*
X147013101Y-98825476D01*
X146971521Y-98648690D01*
X146903244Y-98449356D01*
X146821378Y-98258021D01*
X146739036Y-98105233D01*
X146669327Y-98021538D01*
X146667592Y-98020429D01*
X146626649Y-98006202D01*
X146586698Y-98026917D01*
X146539995Y-98096055D01*
X146478795Y-98227092D01*
X146395352Y-98433506D01*
X146324148Y-98618061D01*
X146231740Y-98855850D01*
X146128253Y-99115931D01*
X146021332Y-99379831D01*
X145918619Y-99629073D01*
X145827759Y-99845184D01*
X145756395Y-100009687D01*
X145712170Y-100104109D01*
X145703311Y-100118658D01*
X145654234Y-100103396D01*
X145554662Y-100040813D01*
X145513749Y-100011092D01*
X145391005Y-99921200D01*
X145298293Y-99857200D01*
X145283951Y-99848266D01*
X145215439Y-99860245D01*
X145097874Y-99926848D01*
X144982670Y-100012974D01*
X144914574Y-100070953D01*
X144858609Y-100116780D01*
X144802202Y-100152526D01*
X144732785Y-100180262D01*
X144637787Y-100202058D01*
X144504637Y-100219985D01*
X144320766Y-100236113D01*
X144073602Y-100252514D01*
X143750576Y-100271257D01*
X143339117Y-100294413D01*
X143239840Y-100300056D01*
X142978651Y-100305635D01*
X142693775Y-100297668D01*
X142486671Y-100281735D01*
X142230461Y-100258822D01*
X141943332Y-100241442D01*
X141746636Y-100234738D01*
X141545175Y-100227635D01*
X141411635Y-100206996D01*
X141310065Y-100161108D01*
X141204518Y-100078253D01*
X141168970Y-100046486D01*
X140997057Y-99916026D01*
X140852177Y-99873472D01*
X140709276Y-99916846D01*
X140592552Y-100001007D01*
X140486911Y-100081024D01*
X140418179Y-100116651D01*
X140408507Y-100115289D01*
X140368178Y-100046023D01*
X140297170Y-99893623D01*
X140201433Y-99672165D01*
X140086918Y-99395728D01*
X139959576Y-99078389D01*
X139831855Y-98751116D01*
X139730666Y-98493328D01*
X139639045Y-98269218D01*
X139564808Y-98097215D01*
X139515771Y-97995751D01*
X139504018Y-97978026D01*
X139448796Y-97982941D01*
X139373493Y-98065039D01*
X139291444Y-98203138D01*
X139215983Y-98376057D01*
X139176413Y-98498430D01*
X139116293Y-98716428D01*
X139022443Y-98562103D01*
X138951138Y-98366262D01*
X138926295Y-98115364D01*
X138947280Y-97846947D01*
X139013456Y-97598552D01*
X139039757Y-97538198D01*
X139159769Y-97342968D01*
X139328581Y-97135689D01*
X139523760Y-96937807D01*
X139722871Y-96770767D01*
X139903479Y-96656013D01*
X140000823Y-96619513D01*
X140099279Y-96591141D01*
X140257507Y-96538576D01*
X140408961Y-96484854D01*
X140730508Y-96404118D01*
X141105926Y-96367576D01*
X141494755Y-96375899D01*
G37*
%TD*%
D11*
%TO.C,D2*%
X148440000Y-78400000D03*
X150980000Y-78400000D03*
%TD*%
D12*
%TO.C,R4*%
X159713402Y-72062319D03*
X161036602Y-64558084D03*
%TD*%
D13*
%TO.C,R1*%
X144775000Y-88835200D03*
X141375000Y-88835200D03*
%TD*%
D12*
%TO.C,R3*%
X154950000Y-72000000D03*
X144790000Y-72000000D03*
%TD*%
D14*
%TO.C,Q1*%
X149670720Y-66084436D03*
D15*
X150643596Y-66900776D03*
X151616473Y-67717117D03*
%TD*%
D11*
%TO.C,D1*%
X137660000Y-78400000D03*
X135120000Y-78400000D03*
%TD*%
D12*
%TO.C,R2*%
X131150000Y-72000000D03*
X141310000Y-72000000D03*
%TD*%
D16*
%TO.C,B1*%
X143050000Y-83185200D03*
D17*
X143050000Y-103175000D03*
%TD*%
M02*
