%TF.GenerationSoftware,KiCad,Pcbnew,9.0.7-9.0.7~ubuntu24.04.1*%
%TF.CreationDate,2026-08-17T01:15:09-05:00*%
%TF.ProjectId,CoyotePCB,436f796f-7465-4504-9342-2e6b69636164,1.0*%
%TF.SameCoordinates,Original*%
%TF.FileFunction,Legend,Top*%
%TF.FilePolarity,Positive*%
%FSLAX46Y46*%
G04 Gerber Fmt 4.6, Leading zero omitted, Abs format (unit mm)*
G04 Created by KiCad (PCBNEW 9.0.7-9.0.7~ubuntu24.04.1) date 2026-08-17 01:15:09*
%MOMM*%
%LPD*%
G01*
G04 APERTURE LIST*
%ADD10C,0.162500*%
%ADD11C,0.600000*%
%ADD12C,0.100000*%
%ADD13C,0.120000*%
%ADD14C,0.000000*%
G04 APERTURE END LIST*
D10*
X134429526Y-71491464D02*
X134491430Y-71429559D01*
X134491430Y-71429559D02*
X134615240Y-71367654D01*
X134615240Y-71367654D02*
X134924764Y-71367654D01*
X134924764Y-71367654D02*
X135048573Y-71429559D01*
X135048573Y-71429559D02*
X135110478Y-71491464D01*
X135110478Y-71491464D02*
X135172383Y-71615273D01*
X135172383Y-71615273D02*
X135172383Y-71739083D01*
X135172383Y-71739083D02*
X135110478Y-71924797D01*
X135110478Y-71924797D02*
X134367621Y-72667654D01*
X134367621Y-72667654D02*
X135172383Y-72667654D01*
X135667621Y-71491464D02*
X135729525Y-71429559D01*
X135729525Y-71429559D02*
X135853335Y-71367654D01*
X135853335Y-71367654D02*
X136162859Y-71367654D01*
X136162859Y-71367654D02*
X136286668Y-71429559D01*
X136286668Y-71429559D02*
X136348573Y-71491464D01*
X136348573Y-71491464D02*
X136410478Y-71615273D01*
X136410478Y-71615273D02*
X136410478Y-71739083D01*
X136410478Y-71739083D02*
X136348573Y-71924797D01*
X136348573Y-71924797D02*
X135605716Y-72667654D01*
X135605716Y-72667654D02*
X136410478Y-72667654D01*
X137215239Y-71367654D02*
X137339049Y-71367654D01*
X137339049Y-71367654D02*
X137462858Y-71429559D01*
X137462858Y-71429559D02*
X137524763Y-71491464D01*
X137524763Y-71491464D02*
X137586668Y-71615273D01*
X137586668Y-71615273D02*
X137648573Y-71862892D01*
X137648573Y-71862892D02*
X137648573Y-72172416D01*
X137648573Y-72172416D02*
X137586668Y-72420035D01*
X137586668Y-72420035D02*
X137524763Y-72543845D01*
X137524763Y-72543845D02*
X137462858Y-72605750D01*
X137462858Y-72605750D02*
X137339049Y-72667654D01*
X137339049Y-72667654D02*
X137215239Y-72667654D01*
X137215239Y-72667654D02*
X137091430Y-72605750D01*
X137091430Y-72605750D02*
X137029525Y-72543845D01*
X137029525Y-72543845D02*
X136967620Y-72420035D01*
X136967620Y-72420035D02*
X136905716Y-72172416D01*
X136905716Y-72172416D02*
X136905716Y-71862892D01*
X136905716Y-71862892D02*
X136967620Y-71615273D01*
X136967620Y-71615273D02*
X137029525Y-71491464D01*
X137029525Y-71491464D02*
X137091430Y-71429559D01*
X137091430Y-71429559D02*
X137215239Y-71367654D01*
D11*
X153448307Y-81911857D02*
X154162593Y-84911857D01*
X154162593Y-84911857D02*
X154734021Y-82769000D01*
X154734021Y-82769000D02*
X155305450Y-84911857D01*
X155305450Y-84911857D02*
X156019736Y-81911857D01*
D10*
X148229526Y-71466464D02*
X148291430Y-71404559D01*
X148291430Y-71404559D02*
X148415240Y-71342654D01*
X148415240Y-71342654D02*
X148724764Y-71342654D01*
X148724764Y-71342654D02*
X148848573Y-71404559D01*
X148848573Y-71404559D02*
X148910478Y-71466464D01*
X148910478Y-71466464D02*
X148972383Y-71590273D01*
X148972383Y-71590273D02*
X148972383Y-71714083D01*
X148972383Y-71714083D02*
X148910478Y-71899797D01*
X148910478Y-71899797D02*
X148167621Y-72642654D01*
X148167621Y-72642654D02*
X148972383Y-72642654D01*
X149467621Y-71466464D02*
X149529525Y-71404559D01*
X149529525Y-71404559D02*
X149653335Y-71342654D01*
X149653335Y-71342654D02*
X149962859Y-71342654D01*
X149962859Y-71342654D02*
X150086668Y-71404559D01*
X150086668Y-71404559D02*
X150148573Y-71466464D01*
X150148573Y-71466464D02*
X150210478Y-71590273D01*
X150210478Y-71590273D02*
X150210478Y-71714083D01*
X150210478Y-71714083D02*
X150148573Y-71899797D01*
X150148573Y-71899797D02*
X149405716Y-72642654D01*
X149405716Y-72642654D02*
X150210478Y-72642654D01*
X151015239Y-71342654D02*
X151139049Y-71342654D01*
X151139049Y-71342654D02*
X151262858Y-71404559D01*
X151262858Y-71404559D02*
X151324763Y-71466464D01*
X151324763Y-71466464D02*
X151386668Y-71590273D01*
X151386668Y-71590273D02*
X151448573Y-71837892D01*
X151448573Y-71837892D02*
X151448573Y-72147416D01*
X151448573Y-72147416D02*
X151386668Y-72395035D01*
X151386668Y-72395035D02*
X151324763Y-72518845D01*
X151324763Y-72518845D02*
X151262858Y-72580750D01*
X151262858Y-72580750D02*
X151139049Y-72642654D01*
X151139049Y-72642654D02*
X151015239Y-72642654D01*
X151015239Y-72642654D02*
X150891430Y-72580750D01*
X150891430Y-72580750D02*
X150829525Y-72518845D01*
X150829525Y-72518845D02*
X150767620Y-72395035D01*
X150767620Y-72395035D02*
X150705716Y-72147416D01*
X150705716Y-72147416D02*
X150705716Y-71837892D01*
X150705716Y-71837892D02*
X150767620Y-71590273D01*
X150767620Y-71590273D02*
X150829525Y-71466464D01*
X150829525Y-71466464D02*
X150891430Y-71404559D01*
X150891430Y-71404559D02*
X151015239Y-71342654D01*
D11*
X130834021Y-81911857D02*
X130834021Y-84340428D01*
X130834021Y-84340428D02*
X130976878Y-84626142D01*
X130976878Y-84626142D02*
X131119736Y-84769000D01*
X131119736Y-84769000D02*
X131405450Y-84911857D01*
X131405450Y-84911857D02*
X131976878Y-84911857D01*
X131976878Y-84911857D02*
X132262593Y-84769000D01*
X132262593Y-84769000D02*
X132405450Y-84626142D01*
X132405450Y-84626142D02*
X132548307Y-84340428D01*
X132548307Y-84340428D02*
X132548307Y-81911857D01*
D12*
X168216666Y-103967619D02*
X167883333Y-103491428D01*
X167645238Y-103967619D02*
X167645238Y-102967619D01*
X167645238Y-102967619D02*
X168026190Y-102967619D01*
X168026190Y-102967619D02*
X168121428Y-103015238D01*
X168121428Y-103015238D02*
X168169047Y-103062857D01*
X168169047Y-103062857D02*
X168216666Y-103158095D01*
X168216666Y-103158095D02*
X168216666Y-103300952D01*
X168216666Y-103300952D02*
X168169047Y-103396190D01*
X168169047Y-103396190D02*
X168121428Y-103443809D01*
X168121428Y-103443809D02*
X168026190Y-103491428D01*
X168026190Y-103491428D02*
X167645238Y-103491428D01*
X168645238Y-103443809D02*
X168978571Y-103443809D01*
X169121428Y-103967619D02*
X168645238Y-103967619D01*
X168645238Y-103967619D02*
X168645238Y-102967619D01*
X168645238Y-102967619D02*
X169121428Y-102967619D01*
X169883333Y-103443809D02*
X169550000Y-103443809D01*
X169550000Y-103967619D02*
X169550000Y-102967619D01*
X169550000Y-102967619D02*
X170026190Y-102967619D01*
X170550000Y-102967619D02*
X170550000Y-103205714D01*
X170311905Y-103110476D02*
X170550000Y-103205714D01*
X170550000Y-103205714D02*
X170788095Y-103110476D01*
X170407143Y-103396190D02*
X170550000Y-103205714D01*
X170550000Y-103205714D02*
X170692857Y-103396190D01*
X171311905Y-102967619D02*
X171311905Y-103205714D01*
X171073810Y-103110476D02*
X171311905Y-103205714D01*
X171311905Y-103205714D02*
X171550000Y-103110476D01*
X171169048Y-103396190D02*
X171311905Y-103205714D01*
X171311905Y-103205714D02*
X171454762Y-103396190D01*
D13*
%TO.C,R1*%
X144625000Y-86685200D02*
X141575000Y-86685200D01*
X144625000Y-90985200D02*
X141575000Y-90985200D01*
X141575000Y-90985200D02*
G75*
G02*
X141530487Y-86716951I1500000J2150000D01*
G01*
X144625000Y-86685200D02*
G75*
G02*
X144603234Y-91000725I-1550000J-2150000D01*
G01*
%TO.C,R3*%
X145830000Y-72000000D02*
X146600000Y-72000000D01*
X153910000Y-72000000D02*
X153140000Y-72000000D01*
X153140000Y-73370000D02*
X146600000Y-73370000D01*
X146600000Y-70630000D01*
X153140000Y-70630000D01*
X153140000Y-73370000D01*
%TO.C,Q1*%
X148805399Y-67115685D02*
X150673322Y-68683058D01*
D12*
X150379691Y-65001548D02*
G75*
G02*
X152555596Y-66755974I263905J-1899228D01*
G01*
D14*
%TO.C,REF\u002A\u002A*%
G36*
X137798371Y-79704633D02*
G01*
X137896741Y-79818098D01*
X137920000Y-79950000D01*
X137880792Y-80108480D01*
X137781541Y-80232073D01*
X137649798Y-80288109D01*
X137634314Y-80288746D01*
X137553912Y-80261219D01*
X137464072Y-80207886D01*
X137373143Y-80091396D01*
X137355446Y-79946684D01*
X137401182Y-79806015D01*
X137500552Y-79701652D01*
X137628834Y-79665433D01*
X137798371Y-79704633D01*
G37*
G36*
X148584375Y-79801940D02*
G01*
X148696722Y-79889600D01*
X148754715Y-80024722D01*
X148746955Y-80151193D01*
X148671632Y-80261647D01*
X148535150Y-80331318D01*
X148377317Y-80343871D01*
X148314982Y-80328459D01*
X148214151Y-80243060D01*
X148157471Y-80106167D01*
X148161294Y-79966380D01*
X148179663Y-79926221D01*
X148300000Y-79810000D01*
X148443519Y-79771990D01*
X148584375Y-79801940D01*
G37*
G36*
X137281040Y-94634616D02*
G01*
X137817169Y-94756745D01*
X138398583Y-94836831D01*
X138671634Y-94857488D01*
X139219477Y-94887505D01*
X139077259Y-95308808D01*
X138997148Y-95552138D01*
X138903286Y-95846270D01*
X138811183Y-96142324D01*
X138774633Y-96262523D01*
X138691134Y-96524052D01*
X138620902Y-96692396D01*
X138553443Y-96775504D01*
X138478262Y-96781321D01*
X138384865Y-96717795D01*
X138293887Y-96626577D01*
X138032275Y-96302606D01*
X137770019Y-95894951D01*
X137518558Y-95423110D01*
X137299262Y-94931137D01*
X137165486Y-94601913D01*
X137281040Y-94634616D01*
G37*
G36*
X136033595Y-76106263D02*
G01*
X136057855Y-76120558D01*
X136233222Y-76283607D01*
X136323805Y-76494339D01*
X136327560Y-76737615D01*
X136242441Y-76998298D01*
X136189354Y-77093966D01*
X136016738Y-77281113D01*
X135785132Y-77405251D01*
X135527098Y-77452470D01*
X135380372Y-77439575D01*
X135266980Y-77388075D01*
X135143735Y-77293180D01*
X135134905Y-77284539D01*
X135003824Y-77091575D01*
X134958525Y-76878748D01*
X134986988Y-76661218D01*
X135077193Y-76454146D01*
X135217117Y-76272692D01*
X135394740Y-76132017D01*
X135598042Y-76047280D01*
X135815000Y-76033642D01*
X136033595Y-76106263D01*
G37*
G36*
X150473799Y-76039911D02*
G01*
X150513297Y-76049544D01*
X150733176Y-76150513D01*
X150929610Y-76311775D01*
X151071039Y-76503988D01*
X151112382Y-76606482D01*
X151151386Y-76761909D01*
X151157548Y-76867771D01*
X151128564Y-76973799D01*
X151091238Y-77063030D01*
X150962651Y-77253869D01*
X150774955Y-77362693D01*
X150543181Y-77394336D01*
X150254043Y-77349248D01*
X150017997Y-77216362D01*
X149841161Y-76999248D01*
X149829645Y-76978139D01*
X149734429Y-76744373D01*
X149723452Y-76544492D01*
X149796738Y-76351555D01*
X149830249Y-76298234D01*
X150004930Y-76124959D01*
X150227245Y-76036012D01*
X150473799Y-76039911D01*
G37*
G36*
X148895247Y-94656018D02*
G01*
X148863746Y-94772797D01*
X148797391Y-94946794D01*
X148703825Y-95161127D01*
X148590694Y-95398914D01*
X148465642Y-95643274D01*
X148336312Y-95877324D01*
X148237447Y-96041766D01*
X148079919Y-96275091D01*
X147919650Y-96483321D01*
X147771042Y-96650177D01*
X147648498Y-96759381D01*
X147571125Y-96794936D01*
X147516614Y-96750613D01*
X147451857Y-96638605D01*
X147424806Y-96574179D01*
X147377317Y-96438822D01*
X147308921Y-96231771D01*
X147228633Y-95980814D01*
X147145469Y-95713738D01*
X147142524Y-95704138D01*
X147064978Y-95453761D01*
X146995671Y-95234749D01*
X146941570Y-95068786D01*
X146909640Y-94977554D01*
X146907349Y-94972011D01*
X146903474Y-94935344D01*
X146939686Y-94908753D01*
X147031722Y-94888927D01*
X147195322Y-94872557D01*
X147446222Y-94856331D01*
X147461475Y-94855456D01*
X147752942Y-94831004D01*
X148057078Y-94792637D01*
X148329139Y-94746541D01*
X148459161Y-94717542D01*
X148650170Y-94669209D01*
X148797968Y-94632788D01*
X148877513Y-94614416D01*
X148884248Y-94613341D01*
X148895247Y-94656018D01*
G37*
G36*
X150803093Y-75626821D02*
G01*
X150823792Y-75630624D01*
X151410117Y-75789417D01*
X151945968Y-76033926D01*
X152424593Y-76356062D01*
X152839241Y-76747735D01*
X153183159Y-77200855D01*
X153449595Y-77707332D01*
X153631797Y-78259078D01*
X153723014Y-78848001D01*
X153732586Y-79115691D01*
X153725212Y-79432488D01*
X153695912Y-79667182D01*
X153633917Y-79840951D01*
X153528457Y-79974978D01*
X153368764Y-80090441D01*
X153187835Y-80187094D01*
X152967997Y-80300008D01*
X152701987Y-80442713D01*
X152432918Y-80591888D01*
X152312062Y-80660832D01*
X151673780Y-80999674D01*
X151079311Y-81251828D01*
X150519053Y-81419711D01*
X149983403Y-81505736D01*
X149462760Y-81512320D01*
X149095594Y-81469866D01*
X148733972Y-81388479D01*
X148362745Y-81269029D01*
X148011324Y-81123480D01*
X147709118Y-80963797D01*
X147513211Y-80826145D01*
X147408637Y-80710688D01*
X147330636Y-80553993D01*
X147273969Y-80338655D01*
X147233397Y-80047269D01*
X147215108Y-79835631D01*
X147184586Y-79420089D01*
X147291978Y-79673862D01*
X147538059Y-80139406D01*
X147847497Y-80537737D01*
X148209313Y-80865371D01*
X148612527Y-81118828D01*
X149046157Y-81294626D01*
X149499223Y-81389283D01*
X149960746Y-81399317D01*
X150419744Y-81321246D01*
X150865237Y-81151590D01*
X151236313Y-80924554D01*
X151638269Y-80566377D01*
X151958890Y-80146243D01*
X152195170Y-79670435D01*
X152344102Y-79145234D01*
X152402681Y-78576925D01*
X152403479Y-78485120D01*
X152385993Y-78086267D01*
X152330111Y-77737180D01*
X152225935Y-77395203D01*
X152063572Y-77017676D01*
X152062594Y-77015620D01*
X151814757Y-76598013D01*
X151493074Y-76214799D01*
X151122570Y-75893550D01*
X150927678Y-75765279D01*
X150778808Y-75675915D01*
X150713088Y-75629101D01*
X150723517Y-75615761D01*
X150803093Y-75626821D01*
G37*
G36*
X135400376Y-75614943D02*
G01*
X135374203Y-75652729D01*
X135261033Y-75725597D01*
X135242437Y-75736312D01*
X134791347Y-76052340D01*
X134409332Y-76440832D01*
X134102502Y-76891622D01*
X133876972Y-77394541D01*
X133738851Y-77939425D01*
X133699266Y-78303320D01*
X133709512Y-78879240D01*
X133807787Y-79403136D01*
X133996629Y-79882007D01*
X134278578Y-80322854D01*
X134539597Y-80619574D01*
X134943335Y-80963800D01*
X135377414Y-81211789D01*
X135836429Y-81361648D01*
X136314974Y-81411488D01*
X136708353Y-81378057D01*
X137036366Y-81295572D01*
X137385645Y-81161862D01*
X137715311Y-80995164D01*
X137984481Y-80813713D01*
X137997584Y-80802947D01*
X138224889Y-80578183D01*
X138451028Y-80293695D01*
X138646444Y-79989688D01*
X138755460Y-79772122D01*
X138883228Y-79472032D01*
X138860416Y-79917800D01*
X138822258Y-80279584D01*
X138750272Y-80557775D01*
X138732451Y-80601287D01*
X138677523Y-80712775D01*
X138613825Y-80798262D01*
X138520269Y-80874740D01*
X138375765Y-80959203D01*
X138159224Y-81068641D01*
X138141802Y-81077197D01*
X137896857Y-81190029D01*
X137646057Y-81293403D01*
X137428501Y-81371661D01*
X137344651Y-81396415D01*
X136995648Y-81461666D01*
X136595929Y-81495951D01*
X136190621Y-81497766D01*
X135824851Y-81465608D01*
X135734426Y-81450069D01*
X135422039Y-81379981D01*
X135121817Y-81291758D01*
X134815137Y-81177590D01*
X134483374Y-81029669D01*
X134107905Y-80840183D01*
X133670105Y-80601326D01*
X133552831Y-80535300D01*
X133304341Y-80396265D01*
X133069481Y-80267615D01*
X132872452Y-80162428D01*
X132737456Y-80093780D01*
X132723244Y-80087067D01*
X132547992Y-79964946D01*
X132428422Y-79781583D01*
X132361305Y-79527579D01*
X132343410Y-79193538D01*
X132351191Y-79004547D01*
X132399175Y-78549752D01*
X132487445Y-78147884D01*
X132628450Y-77751783D01*
X132755656Y-77472236D01*
X133038148Y-77006494D01*
X133404105Y-76587885D01*
X133839431Y-76227836D01*
X134330034Y-75937777D01*
X134861819Y-75729136D01*
X134929118Y-75709729D01*
X135180613Y-75643679D01*
X135336772Y-75612005D01*
X135400376Y-75614943D01*
G37*
G36*
X139474304Y-97975451D02*
G01*
X139514989Y-98021390D01*
X139580136Y-98142906D01*
X139658546Y-98318004D01*
X139696548Y-98411923D01*
X139824872Y-98736638D01*
X139954109Y-99058541D01*
X140077641Y-99361647D01*
X140188850Y-99629968D01*
X140281119Y-99847520D01*
X140347829Y-99998314D01*
X140379995Y-100062872D01*
X140424275Y-100098212D01*
X140494303Y-100072174D01*
X140590409Y-99997944D01*
X140750980Y-99891285D01*
X140894149Y-99871487D01*
X141045335Y-99940130D01*
X141160420Y-100033350D01*
X141239395Y-100102336D01*
X141311348Y-100151258D01*
X141396599Y-100184979D01*
X141515465Y-100208361D01*
X141688262Y-100226268D01*
X141935310Y-100243561D01*
X142075713Y-100252414D01*
X142461221Y-100275169D01*
X142774908Y-100289344D01*
X143048486Y-100294957D01*
X143313664Y-100292028D01*
X143602152Y-100280575D01*
X143945659Y-100260616D01*
X144054857Y-100253581D01*
X144739704Y-100208878D01*
X144982198Y-100008492D01*
X145119558Y-99907826D01*
X145231043Y-99849059D01*
X145284263Y-99843137D01*
X145361991Y-99895292D01*
X145480789Y-99981160D01*
X145514061Y-100005963D01*
X145624010Y-100080940D01*
X145694173Y-100114672D01*
X145703623Y-100113529D01*
X145733577Y-100055562D01*
X145794013Y-99919433D01*
X145877288Y-99723618D01*
X145975758Y-99486591D01*
X146081779Y-99226828D01*
X146187708Y-98962804D01*
X146285901Y-98712993D01*
X146324460Y-98612932D01*
X146427077Y-98348836D01*
X146502298Y-98169103D01*
X146557714Y-98060277D01*
X146600919Y-98008906D01*
X146639503Y-98001536D01*
X146663308Y-98012460D01*
X146753667Y-98113903D01*
X146845813Y-98294573D01*
X146932249Y-98530230D01*
X147005479Y-98796631D01*
X147058004Y-99069534D01*
X147082330Y-99324697D01*
X147083147Y-99370033D01*
X147071783Y-99551736D01*
X147028307Y-99670149D01*
X146967044Y-99740953D01*
X146747322Y-99906448D01*
X146448766Y-100079270D01*
X146094873Y-100248849D01*
X145709142Y-100404618D01*
X145315071Y-100536010D01*
X145031446Y-100611439D01*
X144482354Y-100716908D01*
X143887313Y-100791930D01*
X143282061Y-100833984D01*
X142702334Y-100840552D01*
X142201297Y-100810959D01*
X141769057Y-100748176D01*
X141302368Y-100649488D01*
X140827292Y-100522756D01*
X140369891Y-100375845D01*
X139956228Y-100216618D01*
X139612364Y-100052938D01*
X139526246Y-100003862D01*
X139306959Y-99866471D01*
X139164019Y-99754645D01*
X139081384Y-99646438D01*
X139043015Y-99519907D01*
X139032872Y-99353107D01*
X139032790Y-99328765D01*
X139048386Y-99091955D01*
X139090758Y-98835790D01*
X139153279Y-98580578D01*
X139229324Y-98346628D01*
X139312269Y-98154247D01*
X139395487Y-98023744D01*
X139472353Y-97975425D01*
X139474304Y-97975451D01*
G37*
G36*
X129189641Y-79091784D02*
G01*
X128797544Y-79162806D01*
X128270957Y-79290208D01*
X127715322Y-79481337D01*
X127169011Y-79720885D01*
X126670397Y-79993543D01*
X126592504Y-80042493D01*
X126439022Y-80149752D01*
X126266902Y-80283318D01*
X126095953Y-80425990D01*
X125945985Y-80560565D01*
X125836808Y-80669839D01*
X125788229Y-80736609D01*
X125787392Y-80741670D01*
X125834127Y-80752235D01*
X125957624Y-80744076D01*
X126132821Y-80719060D01*
X126163976Y-80713617D01*
X126313454Y-80694348D01*
X126522234Y-80677520D01*
X126772266Y-80663491D01*
X127045496Y-80652616D01*
X127323875Y-80645254D01*
X127589349Y-80641760D01*
X127823867Y-80642490D01*
X128009378Y-80647802D01*
X128127830Y-80658052D01*
X128161170Y-80673597D01*
X128160639Y-80674176D01*
X128097667Y-80710403D01*
X127968780Y-80769988D01*
X127839680Y-80824468D01*
X127242945Y-81122265D01*
X126696368Y-81507407D01*
X126205241Y-81973541D01*
X125774859Y-82514312D01*
X125410515Y-83123367D01*
X125117503Y-83794353D01*
X124963358Y-84276735D01*
X124911884Y-84480906D01*
X124856500Y-84728911D01*
X124802344Y-84994011D01*
X124754556Y-85249465D01*
X124718275Y-85468535D01*
X124698640Y-85624481D01*
X124696594Y-85664707D01*
X124731393Y-85661039D01*
X124826304Y-85595800D01*
X124967093Y-85479978D01*
X125139530Y-85324566D01*
X125151093Y-85313732D01*
X125689497Y-84846667D01*
X126219370Y-84463082D01*
X126733130Y-84167830D01*
X127223196Y-83965759D01*
X127290259Y-83944951D01*
X127447631Y-83899318D01*
X127559655Y-83868897D01*
X127595135Y-83861194D01*
X127572103Y-83895998D01*
X127491533Y-83989563D01*
X127367739Y-84125616D01*
X127280796Y-84218617D01*
X126996634Y-84536750D01*
X126773769Y-84829828D01*
X126588346Y-85132303D01*
X126432592Y-85443566D01*
X126359158Y-85622517D01*
X126276630Y-85855071D01*
X126192674Y-86115484D01*
X126114955Y-86378014D01*
X126051137Y-86616917D01*
X126008886Y-86806452D01*
X125995636Y-86911090D01*
X126033812Y-86914043D01*
X126135485Y-86865262D01*
X126280648Y-86774815D01*
X126319805Y-86747978D01*
X126513929Y-86620179D01*
X126740255Y-86482906D01*
X126980031Y-86346130D01*
X127214500Y-86219823D01*
X127424909Y-86113957D01*
X127592504Y-86038503D01*
X127698530Y-86003433D01*
X127720476Y-86003237D01*
X127703213Y-86037392D01*
X127611963Y-86116545D01*
X127460456Y-86230035D01*
X127262422Y-86367201D01*
X127188410Y-86416364D01*
X126925084Y-86591166D01*
X126651456Y-86775579D01*
X126400269Y-86947382D01*
X126207984Y-87081709D01*
X125823465Y-87355208D01*
X125851854Y-86839996D01*
X125911536Y-86364657D01*
X126033104Y-85874398D01*
X126206182Y-85396597D01*
X126420392Y-84958632D01*
X126665355Y-84587881D01*
X126739564Y-84498102D01*
X126904160Y-84309919D01*
X126644447Y-84457208D01*
X126307455Y-84672511D01*
X125912785Y-84968327D01*
X125464401Y-85341550D01*
X125086165Y-85678693D01*
X124514794Y-86200939D01*
X124499019Y-85876154D01*
X124507763Y-85517623D01*
X124560774Y-85093920D01*
X124651976Y-84630747D01*
X124775294Y-84153804D01*
X124924652Y-83688792D01*
X125093974Y-83261413D01*
X125141880Y-83156749D01*
X125359966Y-82755646D01*
X125632838Y-82347551D01*
X125943213Y-81952547D01*
X126273805Y-81590718D01*
X126607330Y-81282148D01*
X126926504Y-81046922D01*
X126990911Y-81008251D01*
X127267760Y-80849489D01*
X127008046Y-80849308D01*
X126840539Y-80857567D01*
X126609190Y-80879843D01*
X126352469Y-80912134D01*
X126228905Y-80930423D01*
X125981848Y-80968925D01*
X125749572Y-81004835D01*
X125566813Y-81032795D01*
X125502013Y-81042543D01*
X125294550Y-81073365D01*
X125444828Y-80870040D01*
X125873623Y-80376130D01*
X126376256Y-79950480D01*
X126940763Y-79602780D01*
X127114053Y-79518042D01*
X127479868Y-79369908D01*
X127875749Y-79245074D01*
X128269511Y-79151551D01*
X128628967Y-79097347D01*
X128845688Y-79087123D01*
X129189641Y-79091784D01*
G37*
G36*
X157653914Y-79117676D02*
G01*
X158112908Y-79210991D01*
X158592604Y-79360834D01*
X159066806Y-79558557D01*
X159509318Y-79795513D01*
X159648795Y-79884075D01*
X159915507Y-80085186D01*
X160184238Y-80328886D01*
X160427122Y-80587117D01*
X160616290Y-80831819D01*
X160661644Y-80903906D01*
X160760232Y-81072373D01*
X160557759Y-81035261D01*
X160124313Y-80960603D01*
X159736478Y-80903275D01*
X159411694Y-80865555D01*
X159167399Y-80849721D01*
X159134631Y-80849369D01*
X158848946Y-80849489D01*
X159108659Y-80999571D01*
X159448080Y-81235425D01*
X159800581Y-81552373D01*
X160149524Y-81931965D01*
X160478270Y-82355751D01*
X160770177Y-82805282D01*
X160827696Y-82905614D01*
X161060517Y-83390508D01*
X161262873Y-83948509D01*
X161426974Y-84551342D01*
X161545029Y-85170734D01*
X161606289Y-85731132D01*
X161642541Y-86276531D01*
X161128770Y-85782732D01*
X160815095Y-85484227D01*
X160553298Y-85244092D01*
X160322735Y-85046312D01*
X160102759Y-84874876D01*
X159872728Y-84713770D01*
X159611994Y-84546981D01*
X159299914Y-84358498D01*
X159268536Y-84339883D01*
X159271770Y-84361658D01*
X159327099Y-84446344D01*
X159415921Y-84566817D01*
X159600677Y-84845759D01*
X159785687Y-85190657D01*
X159953586Y-85565086D01*
X160087011Y-85932623D01*
X160119578Y-86042789D01*
X160160032Y-86217163D01*
X160198605Y-86431967D01*
X160232774Y-86664932D01*
X160260016Y-86893790D01*
X160277811Y-87096271D01*
X160283635Y-87250107D01*
X160274967Y-87333028D01*
X160266647Y-87341357D01*
X160214408Y-87312346D01*
X160106647Y-87237352D01*
X160003987Y-87160867D01*
X159872532Y-87065748D01*
X159677289Y-86931067D01*
X159442130Y-86773011D01*
X159190929Y-86607762D01*
X159126477Y-86565966D01*
X158824963Y-86370618D01*
X158600548Y-86223744D01*
X158442769Y-86117912D01*
X158341165Y-86045688D01*
X158285274Y-85999643D01*
X158264634Y-85972342D01*
X158268607Y-85956529D01*
X158325774Y-85965965D01*
X158454778Y-86018797D01*
X158637883Y-86105807D01*
X158857351Y-86217774D01*
X159095444Y-86345481D01*
X159334425Y-86479707D01*
X159556555Y-86611234D01*
X159691254Y-86695937D01*
X160118020Y-86973132D01*
X160086504Y-86806631D01*
X160026007Y-86542411D01*
X159938831Y-86230840D01*
X159837238Y-85910923D01*
X159733490Y-85621666D01*
X159654857Y-85433523D01*
X159461741Y-85062541D01*
X159238933Y-84730546D01*
X158960501Y-84400729D01*
X158831704Y-84265223D01*
X158687242Y-84111695D01*
X158579302Y-83986386D01*
X158522461Y-83906812D01*
X158518390Y-83888750D01*
X158583252Y-83887842D01*
X158719870Y-83922652D01*
X158905907Y-83984867D01*
X159119028Y-84066171D01*
X159336897Y-84158250D01*
X159537177Y-84252790D01*
X159633679Y-84303906D01*
X159951882Y-84503922D01*
X160308969Y-84766106D01*
X160679782Y-85070830D01*
X161039165Y-85398461D01*
X161051054Y-85409934D01*
X161201455Y-85552723D01*
X161322700Y-85662891D01*
X161396468Y-85724009D01*
X161409289Y-85731132D01*
X161423791Y-85683823D01*
X161421525Y-85556726D01*
X161405252Y-85372085D01*
X161377734Y-85152145D01*
X161341735Y-84919152D01*
X161300015Y-84695349D01*
X161258065Y-84513280D01*
X161163379Y-84217089D01*
X161023698Y-83863693D01*
X160852570Y-83481704D01*
X160663542Y-83099736D01*
X160470162Y-82746402D01*
X160285980Y-82450315D01*
X160270710Y-82428020D01*
X159889013Y-81949789D01*
X159442325Y-81530212D01*
X158919089Y-81159833D01*
X158329518Y-80839604D01*
X157913976Y-80640099D01*
X158874917Y-80667077D01*
X159284037Y-80679182D01*
X159602058Y-80690355D01*
X159841753Y-80701532D01*
X160015891Y-80713650D01*
X160137244Y-80727646D01*
X160218582Y-80744454D01*
X160272676Y-80765013D01*
X160282475Y-80770295D01*
X160313566Y-80777369D01*
X160280650Y-80730348D01*
X160198251Y-80643144D01*
X160080894Y-80529668D01*
X159943102Y-80403832D01*
X159799401Y-80279548D01*
X159664314Y-80170728D01*
X159628087Y-80143506D01*
X159464302Y-80021380D01*
X159326185Y-79915472D01*
X159241878Y-79847389D01*
X159238516Y-79844416D01*
X159126320Y-79766309D01*
X159030140Y-79735244D01*
X158979370Y-79759329D01*
X158977223Y-79772333D01*
X158956011Y-79787233D01*
X158922088Y-79743639D01*
X158857574Y-79682896D01*
X158815937Y-79684152D01*
X158744599Y-79676084D01*
X158650315Y-79612506D01*
X158528708Y-79537145D01*
X158325871Y-79451527D01*
X158063112Y-79362090D01*
X157761736Y-79275266D01*
X157443050Y-79197493D01*
X157128360Y-79135204D01*
X157004978Y-79115569D01*
X156987580Y-79105713D01*
X157058977Y-79096764D01*
X157204080Y-79090381D01*
X157241817Y-79089535D01*
X157653914Y-79117676D01*
G37*
G36*
X159201839Y-57146832D02*
G01*
X159428673Y-57223115D01*
X159461316Y-57238175D01*
X159683691Y-57376186D01*
X159934210Y-57584563D01*
X160190650Y-57842811D01*
X160430788Y-58130439D01*
X160435198Y-58136252D01*
X160771281Y-58648287D01*
X161078937Y-59257877D01*
X161357410Y-59962446D01*
X161605944Y-60759417D01*
X161823782Y-61646213D01*
X162010167Y-62620257D01*
X162164345Y-63678973D01*
X162230554Y-64252809D01*
X162257940Y-64592750D01*
X162277479Y-65006217D01*
X162289398Y-65473384D01*
X162293925Y-65974426D01*
X162291289Y-66489515D01*
X162281717Y-66998825D01*
X162265438Y-67482530D01*
X162242681Y-67920802D01*
X162213672Y-68293817D01*
X162180905Y-68567247D01*
X162036487Y-69393583D01*
X161871130Y-70129491D01*
X161702983Y-70717338D01*
X161633857Y-70937498D01*
X161580679Y-71117867D01*
X161549324Y-71237752D01*
X161544172Y-71276597D01*
X161583875Y-71248015D01*
X161678337Y-71158039D01*
X161812107Y-71021842D01*
X161925322Y-70902355D01*
X162133770Y-70691121D01*
X162290606Y-70562511D01*
X162403647Y-70513942D01*
X162480707Y-70542829D01*
X162529602Y-70646587D01*
X162541240Y-70698683D01*
X162557897Y-70914371D01*
X162545709Y-71197274D01*
X162507988Y-71515828D01*
X162448051Y-71838466D01*
X162402189Y-72023096D01*
X162272529Y-72395665D01*
X162086069Y-72803548D01*
X161861514Y-73210711D01*
X161617574Y-73581120D01*
X161539600Y-73684565D01*
X161416813Y-73844165D01*
X161325997Y-73967381D01*
X161280462Y-74035903D01*
X161278332Y-74044016D01*
X161332928Y-74025950D01*
X161456529Y-73978648D01*
X161617895Y-73914159D01*
X161914531Y-73813500D01*
X162135041Y-73783529D01*
X162279426Y-73824250D01*
X162347692Y-73935666D01*
X162339841Y-74117781D01*
X162255876Y-74370598D01*
X162175401Y-74543478D01*
X161985586Y-74869227D01*
X161740566Y-75214378D01*
X161469412Y-75541426D01*
X161201194Y-75812864D01*
X161170509Y-75839985D01*
X160984322Y-75990022D01*
X160740532Y-76170192D01*
X160471008Y-76357840D01*
X160207620Y-76530311D01*
X160141560Y-76571418D01*
X160103416Y-76605448D01*
X160115545Y-76642572D01*
X160191235Y-76693733D01*
X160343773Y-76769871D01*
X160433199Y-76811582D01*
X160899736Y-77012623D01*
X161334286Y-77165176D01*
X161765881Y-77275816D01*
X162223550Y-77351116D01*
X162736323Y-77397651D01*
X163098154Y-77415065D01*
X163971084Y-77446265D01*
X163802675Y-77700235D01*
X163617221Y-77919887D01*
X163356922Y-78147365D01*
X163047854Y-78365854D01*
X162716094Y-78558536D01*
X162387717Y-78708596D01*
X162103219Y-78796235D01*
X161994427Y-78831245D01*
X161981399Y-78872283D01*
X162066509Y-78922892D01*
X162225224Y-78978393D01*
X162781853Y-79188733D01*
X163359444Y-79476111D01*
X163932933Y-79824431D01*
X164477254Y-80217597D01*
X164967344Y-80639514D01*
X165236039Y-80911821D01*
X165564598Y-81301860D01*
X165868408Y-81723965D01*
X166134391Y-82156209D01*
X166349473Y-82576666D01*
X166500576Y-82963409D01*
X166538018Y-83095038D01*
X166552187Y-83197684D01*
X166511278Y-83234571D01*
X166463323Y-83237881D01*
X166375030Y-83215364D01*
X166217390Y-83154134D01*
X166013086Y-83063668D01*
X165795422Y-82958775D01*
X165566105Y-82848598D01*
X165309591Y-82732870D01*
X165043609Y-82618692D01*
X164785893Y-82513167D01*
X164554172Y-82423396D01*
X164366180Y-82356481D01*
X164239646Y-82319524D01*
X164193463Y-82317153D01*
X164219179Y-82359978D01*
X164304325Y-82460786D01*
X164435083Y-82603891D01*
X164575728Y-82751143D01*
X165073056Y-83333474D01*
X165510786Y-83991043D01*
X165884481Y-84711055D01*
X166189702Y-85480715D01*
X166422009Y-86287228D01*
X166576965Y-87117800D01*
X166650129Y-87959635D01*
X166642771Y-88709527D01*
X166622683Y-89036216D01*
X166601704Y-89265446D01*
X166573959Y-89403523D01*
X166533572Y-89456755D01*
X166474666Y-89431448D01*
X166391365Y-89333908D01*
X166277794Y-89170443D01*
X166250809Y-89130213D01*
X166082682Y-88887889D01*
X165898062Y-88636586D01*
X165705611Y-88386392D01*
X165513995Y-88147392D01*
X165331878Y-87929672D01*
X165167923Y-87743319D01*
X165030794Y-87598418D01*
X164929157Y-87505055D01*
X164871674Y-87473317D01*
X164867010Y-87513290D01*
X164870329Y-87523157D01*
X164967231Y-87824513D01*
X165066373Y-88186577D01*
X165157153Y-88566966D01*
X165228973Y-88923299D01*
X165246533Y-89027298D01*
X165283326Y-89352356D01*
X165304631Y-89746024D01*
X165311132Y-90182410D01*
X165303516Y-90635619D01*
X165282466Y-91079761D01*
X165248668Y-91488941D01*
X165202807Y-91837267D01*
X165167464Y-92016204D01*
X165089736Y-92318570D01*
X165004004Y-92608685D01*
X164916417Y-92869757D01*
X164833124Y-93084995D01*
X164760273Y-93237605D01*
X164704013Y-93310797D01*
X164691959Y-93314772D01*
X164656204Y-93270412D01*
X164594998Y-93153367D01*
X164520758Y-92987689D01*
X164510933Y-92964159D01*
X164411617Y-92737576D01*
X164288287Y-92475894D01*
X164152066Y-92200642D01*
X164014072Y-91933349D01*
X163885426Y-91695545D01*
X163777249Y-91508760D01*
X163700662Y-91394523D01*
X163699337Y-91392891D01*
X163593139Y-91263034D01*
X163625481Y-91444834D01*
X163725255Y-92214053D01*
X163747184Y-92952446D01*
X163692110Y-93649731D01*
X163560874Y-94295629D01*
X163354320Y-94879859D01*
X163341856Y-94907652D01*
X163261910Y-95080210D01*
X163197453Y-95212445D01*
X163161064Y-95278662D01*
X163159117Y-95281016D01*
X163116325Y-95254532D01*
X163014364Y-95165347D01*
X162866182Y-95025534D01*
X162684727Y-94847168D01*
X162572187Y-94733706D01*
X162153315Y-94333437D01*
X161745831Y-94000107D01*
X161447264Y-93790225D01*
X161178710Y-93618236D01*
X160971503Y-93496778D01*
X160830669Y-93428061D01*
X160761232Y-93414295D01*
X160768219Y-93457688D01*
X160808951Y-93509558D01*
X160931367Y-93686930D01*
X161059958Y-93937145D01*
X161183680Y-94230594D01*
X161291490Y-94537670D01*
X161372348Y-94828766D01*
X161415208Y-95074276D01*
X161419209Y-95145754D01*
X161410067Y-95201120D01*
X161371754Y-95226473D01*
X161290011Y-95219217D01*
X161150581Y-95176755D01*
X160939204Y-95096490D01*
X160766432Y-95026874D01*
X160145890Y-94802006D01*
X159544515Y-94645474D01*
X158932467Y-94552254D01*
X158279907Y-94517324D01*
X157784120Y-94524822D01*
X157217914Y-94558758D01*
X156719963Y-94617227D01*
X156256341Y-94706025D01*
X155793122Y-94830946D01*
X155566479Y-94903592D01*
X154723092Y-95235156D01*
X153895656Y-95656224D01*
X153099649Y-96155707D01*
X152350547Y-96722515D01*
X151663827Y-97345560D01*
X151054965Y-98013753D01*
X150834687Y-98293850D01*
X150690646Y-98488419D01*
X150573712Y-98656736D01*
X150474710Y-98817256D01*
X150384462Y-98988431D01*
X150293793Y-99188717D01*
X150193526Y-99436566D01*
X150074484Y-99750433D01*
X149970501Y-100031723D01*
X149688349Y-100768937D01*
X149417254Y-101411728D01*
X149151699Y-101968229D01*
X148886167Y-102446573D01*
X148615139Y-102854892D01*
X148333098Y-103201318D01*
X148034526Y-103493983D01*
X147713906Y-103741020D01*
X147365720Y-103950561D01*
X147282406Y-103993678D01*
X147110333Y-104078509D01*
X146976300Y-104141184D01*
X146905308Y-104170085D01*
X146901223Y-104170805D01*
X146908306Y-104130813D01*
X146957893Y-104027947D01*
X147010122Y-103934716D01*
X147082783Y-103797724D01*
X147120655Y-103699710D01*
X147120639Y-103670787D01*
X147070022Y-103687271D01*
X146962674Y-103756699D01*
X146820840Y-103864525D01*
X146806181Y-103876400D01*
X146387455Y-104173237D01*
X145909839Y-104426700D01*
X145363094Y-104640773D01*
X144736980Y-104819441D01*
X144021259Y-104966690D01*
X143991913Y-104971761D01*
X143643471Y-105029940D01*
X143370397Y-105069096D01*
X143146005Y-105089625D01*
X142943608Y-105091919D01*
X142736519Y-105076374D01*
X142498053Y-105043383D01*
X142227269Y-104997834D01*
X141538971Y-104860892D01*
X140939685Y-104703587D01*
X140415655Y-104520768D01*
X139953127Y-104307282D01*
X139538345Y-104057980D01*
X139344447Y-103918201D01*
X139186892Y-103801737D01*
X139063562Y-103717595D01*
X138994935Y-103679498D01*
X138987881Y-103679264D01*
X139000227Y-103730868D01*
X139052327Y-103843143D01*
X139101095Y-103934358D01*
X139170132Y-104066262D01*
X139206062Y-104152092D01*
X139205879Y-104170805D01*
X139150640Y-104148365D01*
X139025817Y-104088297D01*
X138853691Y-104001477D01*
X138763037Y-103954652D01*
X138384669Y-103725485D01*
X138032407Y-103442248D01*
X137701502Y-103097952D01*
X137387205Y-102685607D01*
X137084767Y-102198222D01*
X136789440Y-101628807D01*
X136496473Y-100970373D01*
X136201120Y-100215928D01*
X136175053Y-100145243D01*
X136008246Y-99701432D01*
X135861233Y-99338142D01*
X135724003Y-99036375D01*
X135586545Y-98777132D01*
X135438845Y-98541417D01*
X135270894Y-98310232D01*
X135088608Y-98083678D01*
X134394958Y-97323545D01*
X133648993Y-96644910D01*
X132856470Y-96051383D01*
X132023141Y-95546576D01*
X131154762Y-95134101D01*
X130257085Y-94817568D01*
X129631154Y-94658602D01*
X129416646Y-94615868D01*
X129214751Y-94584638D01*
X129002454Y-94563195D01*
X128756742Y-94549823D01*
X128454602Y-94542803D01*
X128073019Y-94540418D01*
X128046901Y-94540385D01*
X127534703Y-94546478D01*
X127100391Y-94568905D01*
X126718649Y-94612091D01*
X126364162Y-94680461D01*
X126011614Y-94778441D01*
X125635691Y-94910455D01*
X125400281Y-95003021D01*
X125170111Y-95094137D01*
X124972347Y-95168631D01*
X124828309Y-95218726D01*
X124759797Y-95236654D01*
X124705768Y-95192723D01*
X124691673Y-95072450D01*
X124712423Y-94893115D01*
X124762924Y-94671994D01*
X124838087Y-94426368D01*
X124932820Y-94173515D01*
X125042032Y-93930714D01*
X125160631Y-93715243D01*
X125244061Y-93593129D01*
X125324549Y-93480496D01*
X125368864Y-93404667D01*
X125371850Y-93393962D01*
X125331559Y-93399788D01*
X125227561Y-93447907D01*
X125125122Y-93503748D01*
X124601055Y-93830945D01*
X124130553Y-94186398D01*
X123674475Y-94600490D01*
X123543632Y-94731486D01*
X123348428Y-94925364D01*
X123176384Y-95086476D01*
X123041181Y-95202765D01*
X122956496Y-95262175D01*
X122936709Y-95266437D01*
X122884591Y-95194864D01*
X122813847Y-95044237D01*
X122732073Y-94836023D01*
X122646865Y-94591691D01*
X122565818Y-94332709D01*
X122496527Y-94080544D01*
X122457528Y-93912114D01*
X122416685Y-93651644D01*
X122386312Y-93330955D01*
X122367076Y-92978075D01*
X122359647Y-92621032D01*
X122364691Y-92287855D01*
X122382875Y-92006571D01*
X122408039Y-91834404D01*
X122447543Y-91645313D01*
X122484785Y-91461059D01*
X122487975Y-91444834D01*
X122523566Y-91263034D01*
X122414281Y-91392891D01*
X122349505Y-91489697D01*
X122251149Y-91660889D01*
X122129368Y-91886619D01*
X121994313Y-92147039D01*
X121856137Y-92422304D01*
X121724994Y-92692565D01*
X121611035Y-92937976D01*
X121537429Y-93107001D01*
X121418599Y-93392686D01*
X121342168Y-93250494D01*
X121259067Y-93063678D01*
X121165974Y-92802063D01*
X121071037Y-92493141D01*
X120982403Y-92164402D01*
X120908221Y-91843340D01*
X120876283Y-91678576D01*
X120834047Y-91388013D01*
X120805597Y-91060543D01*
X120789565Y-90674109D01*
X120784585Y-90206658D01*
X120784588Y-90198208D01*
X120796264Y-89623034D01*
X120833183Y-89124325D01*
X120899082Y-88676911D01*
X120997697Y-88255624D01*
X121132766Y-87835292D01*
X121137236Y-87822941D01*
X121195828Y-87648649D01*
X121231856Y-87515494D01*
X121238192Y-87450197D01*
X121237103Y-87448601D01*
X121188712Y-87469300D01*
X121088713Y-87562803D01*
X120946418Y-87717760D01*
X120771135Y-87922824D01*
X120572173Y-88166647D01*
X120358842Y-88437880D01*
X120140452Y-88725176D01*
X119926311Y-89017186D01*
X119776090Y-89229587D01*
X119677119Y-89361323D01*
X119596986Y-89449011D01*
X119562733Y-89471009D01*
X119528262Y-89421942D01*
X119499685Y-89285956D01*
X119477445Y-89079876D01*
X119461987Y-88820525D01*
X119453755Y-88524727D01*
X119453194Y-88209307D01*
X119457590Y-88024079D01*
X119769155Y-88024079D01*
X119771044Y-88301619D01*
X119788005Y-88664539D01*
X120045527Y-88301619D01*
X120182630Y-88125674D01*
X120370423Y-87909507D01*
X120597948Y-87663572D01*
X120854247Y-87398322D01*
X121128362Y-87124211D01*
X121409334Y-86851692D01*
X121686205Y-86591219D01*
X121948017Y-86353246D01*
X122183811Y-86148226D01*
X122382628Y-85986613D01*
X122533511Y-85878861D01*
X122625502Y-85835422D01*
X122631222Y-85835018D01*
X122619952Y-85871044D01*
X122553196Y-85967037D01*
X122443974Y-86104865D01*
X122398100Y-86159660D01*
X121996013Y-86711511D01*
X121663320Y-87331602D01*
X121402106Y-88009045D01*
X121214454Y-88732951D01*
X121102447Y-89492432D01*
X121068169Y-90276600D01*
X121113702Y-91074566D01*
X121241130Y-91875442D01*
X121275165Y-92028732D01*
X121331626Y-92247166D01*
X121385367Y-92412632D01*
X121430968Y-92513362D01*
X121463012Y-92537589D01*
X121476080Y-92473547D01*
X121476144Y-92465199D01*
X121503041Y-92369341D01*
X121576615Y-92206183D01*
X121686195Y-91995045D01*
X121821105Y-91755245D01*
X121970673Y-91506103D01*
X122124226Y-91266940D01*
X122197431Y-91159612D01*
X122377998Y-90905955D01*
X122575918Y-90636194D01*
X122781524Y-90362613D01*
X122985151Y-90097493D01*
X123177133Y-89853119D01*
X123347804Y-89641774D01*
X123487497Y-89475740D01*
X123586547Y-89367301D01*
X123635287Y-89328740D01*
X123637528Y-89329598D01*
X123623421Y-89381111D01*
X123568987Y-89504413D01*
X123483326Y-89679920D01*
X123396404Y-89848599D01*
X123084099Y-90519221D01*
X122863479Y-91178948D01*
X122728465Y-91852030D01*
X122672984Y-92562717D01*
X122670827Y-92744571D01*
X122692227Y-93333644D01*
X122758377Y-93847097D01*
X122872208Y-94304405D01*
X122930799Y-94473452D01*
X123044101Y-94775077D01*
X123529343Y-94305649D01*
X124125411Y-93793669D01*
X124782110Y-93346640D01*
X125208664Y-93110715D01*
X125361821Y-93040917D01*
X125567079Y-92957454D01*
X125800087Y-92869026D01*
X126036497Y-92784335D01*
X126251962Y-92712078D01*
X126422133Y-92660957D01*
X126522660Y-92639672D01*
X126527416Y-92639517D01*
X126512562Y-92668932D01*
X126432960Y-92746310D01*
X126305487Y-92855349D01*
X126295779Y-92863280D01*
X125980470Y-93159853D01*
X125682271Y-93512649D01*
X125434313Y-93880877D01*
X125361737Y-94013255D01*
X125251192Y-94242639D01*
X125161926Y-94452010D01*
X125101499Y-94621194D01*
X125077471Y-94730017D01*
X125082920Y-94757267D01*
X125138508Y-94749910D01*
X125264848Y-94709152D01*
X125437474Y-94643137D01*
X125487315Y-94622676D01*
X125858412Y-94484403D01*
X126235999Y-94379412D01*
X126640706Y-94304445D01*
X127093163Y-94256242D01*
X127614000Y-94231544D01*
X127994958Y-94226563D01*
X128419467Y-94228235D01*
X128762747Y-94236700D01*
X129047315Y-94253318D01*
X129295685Y-94279447D01*
X129530373Y-94316447D01*
X129553240Y-94320664D01*
X130400206Y-94527852D01*
X131248931Y-94831164D01*
X132085252Y-95224066D01*
X132895006Y-95700025D01*
X133552821Y-96165775D01*
X133825935Y-96386194D01*
X134114608Y-96637013D01*
X134396943Y-96897700D01*
X134651041Y-97147724D01*
X134855004Y-97366552D01*
X134932696Y-97459565D01*
X135044675Y-97593846D01*
X135131379Y-97683627D01*
X135174390Y-97709879D01*
X135174704Y-97709600D01*
X135161023Y-97656414D01*
X135105204Y-97525523D01*
X135014278Y-97330737D01*
X134895274Y-97085866D01*
X134755224Y-96804718D01*
X134601157Y-96501102D01*
X134440104Y-96188829D01*
X134279095Y-95881706D01*
X134125160Y-95593542D01*
X133985331Y-95338149D01*
X133866636Y-95129333D01*
X133827350Y-95063099D01*
X133707653Y-94859622D01*
X133613802Y-94690363D01*
X133555637Y-94573764D01*
X133542226Y-94528717D01*
X133583242Y-94555405D01*
X133670403Y-94654780D01*
X133793315Y-94812377D01*
X133941586Y-95013734D01*
X134104820Y-95244384D01*
X134272623Y-95489865D01*
X134434603Y-95735710D01*
X134580364Y-95967456D01*
X134603504Y-96005608D01*
X134813540Y-96371824D01*
X135048082Y-96810877D01*
X135295296Y-97298281D01*
X135543349Y-97809549D01*
X135780409Y-98320197D01*
X135994643Y-98805739D01*
X136174217Y-99241687D01*
X136202391Y-99314159D01*
X136393718Y-99811045D01*
X136552824Y-100222246D01*
X136684417Y-100559180D01*
X136793208Y-100833259D01*
X136883904Y-101055901D01*
X136961215Y-101238519D01*
X137029852Y-101392530D01*
X137094522Y-101529349D01*
X137159936Y-101660391D01*
X137211426Y-101760041D01*
X137342653Y-102002825D01*
X137483896Y-102250306D01*
X137611965Y-102462301D01*
X137657272Y-102532636D01*
X137759368Y-102671913D01*
X137895163Y-102837483D01*
X138049078Y-103012773D01*
X138205534Y-103181209D01*
X138348953Y-103326216D01*
X138463756Y-103431220D01*
X138534365Y-103479648D01*
X138547010Y-103479217D01*
X138541928Y-103422854D01*
X138505285Y-103301504D01*
X138466911Y-103197824D01*
X138412086Y-103036135D01*
X138358549Y-102840889D01*
X138312027Y-102639160D01*
X138278248Y-102458021D01*
X138262935Y-102324547D01*
X138270064Y-102267137D01*
X138305351Y-102295937D01*
X138374335Y-102393837D01*
X138450171Y-102519259D01*
X138723493Y-102912235D01*
X139085441Y-103297926D01*
X139520959Y-103662541D01*
X140014990Y-103992288D01*
X140132126Y-104059959D01*
X140313304Y-104152562D01*
X140524819Y-104247059D01*
X140737866Y-104332134D01*
X140923639Y-104396473D01*
X141053333Y-104428762D01*
X141075541Y-104430519D01*
X141064406Y-104398960D01*
X140989489Y-104314712D01*
X140865259Y-104193421D01*
X140805438Y-104138433D01*
X140646772Y-103987797D01*
X140548335Y-103880144D01*
X140513324Y-103822246D01*
X140544937Y-103820871D01*
X140646371Y-103882790D01*
X140704532Y-103924801D01*
X141040589Y-104141803D01*
X141443829Y-104350107D01*
X141877826Y-104533410D01*
X142306155Y-104675410D01*
X142481772Y-104720225D01*
X142911680Y-104771064D01*
X143386543Y-104741716D01*
X143887082Y-104633639D01*
X143973812Y-104607392D01*
X144434807Y-104438337D01*
X144882377Y-104230476D01*
X145277637Y-104002507D01*
X145387878Y-103927539D01*
X145524741Y-103835782D01*
X145624768Y-103779458D01*
X145661640Y-103770071D01*
X145638215Y-103813540D01*
X145553719Y-103904858D01*
X145427318Y-104025888D01*
X145278179Y-104158491D01*
X145125468Y-104284530D01*
X145084120Y-104316601D01*
X144928291Y-104435418D01*
X145110091Y-104403584D01*
X145287016Y-104352673D01*
X145525074Y-104256679D01*
X145799029Y-104128247D01*
X146083643Y-103980019D01*
X146353679Y-103824638D01*
X146583899Y-103674749D01*
X146626568Y-103643862D01*
X146970737Y-103359880D01*
X147273593Y-103042422D01*
X147564538Y-102660054D01*
X147612815Y-102589468D01*
X147825206Y-102274895D01*
X147791626Y-102574488D01*
X147752024Y-102803321D01*
X147689758Y-103043048D01*
X147655956Y-103142762D01*
X147604214Y-103294608D01*
X147578258Y-103403324D01*
X147579962Y-103437540D01*
X147631545Y-103421253D01*
X147732683Y-103339053D01*
X147868727Y-103206697D01*
X148025026Y-103039940D01*
X148186930Y-102854538D01*
X148339789Y-102666248D01*
X148468953Y-102490826D01*
X148491962Y-102456695D01*
X148664648Y-102180822D01*
X148832030Y-101881055D01*
X149000784Y-101543123D01*
X149177585Y-101152760D01*
X149369107Y-100695694D01*
X149582026Y-100157659D01*
X149649881Y-99981436D01*
X149991279Y-99113106D01*
X150316826Y-98334140D01*
X150632371Y-97632308D01*
X150943768Y-96995379D01*
X151256868Y-96411125D01*
X151577523Y-95867315D01*
X151744943Y-95603005D01*
X151911211Y-95352294D01*
X152079361Y-95108646D01*
X152238853Y-94886247D01*
X152379149Y-94699280D01*
X152489712Y-94561928D01*
X152560001Y-94488375D01*
X152578638Y-94480934D01*
X152563462Y-94532075D01*
X152503946Y-94650328D01*
X152411001Y-94814831D01*
X152354712Y-94909045D01*
X152256524Y-95077392D01*
X152131472Y-95302183D01*
X151986556Y-95569797D01*
X151828777Y-95866612D01*
X151665136Y-96179009D01*
X151502635Y-96493366D01*
X151348274Y-96796063D01*
X151209053Y-97073479D01*
X151091975Y-97311992D01*
X151004040Y-97497982D01*
X150952248Y-97617829D01*
X150941971Y-97657627D01*
X150985421Y-97634771D01*
X151072511Y-97549244D01*
X151168596Y-97438433D01*
X151368022Y-97218423D01*
X151634515Y-96959118D01*
X151947987Y-96677762D01*
X152288352Y-96391598D01*
X152635522Y-96117869D01*
X152969412Y-95873819D01*
X153076841Y-95800331D01*
X153880863Y-95304176D01*
X154672026Y-94904959D01*
X155462464Y-94598784D01*
X156264308Y-94381752D01*
X157089692Y-94249967D01*
X157950748Y-94199531D01*
X158063138Y-94198750D01*
X158788891Y-94230040D01*
X159496642Y-94323100D01*
X160163636Y-94473612D01*
X160767120Y-94677260D01*
X160913670Y-94739653D01*
X160980750Y-94750063D01*
X161002084Y-94695119D01*
X160977291Y-94566016D01*
X160905994Y-94353949D01*
X160895909Y-94326816D01*
X160722253Y-93960389D01*
X160480605Y-93585341D01*
X160196877Y-93237476D01*
X159907190Y-92960877D01*
X159751534Y-92830400D01*
X159634900Y-92726252D01*
X159574511Y-92664117D01*
X159570279Y-92654039D01*
X159628956Y-92657933D01*
X159762658Y-92692649D01*
X159949791Y-92750835D01*
X160168762Y-92825136D01*
X160397979Y-92908201D01*
X160615848Y-92992677D01*
X160800776Y-93071210D01*
X160816568Y-93078426D01*
X161261653Y-93313472D01*
X161728652Y-93613304D01*
X162184264Y-93954710D01*
X162595190Y-94314476D01*
X162609510Y-94328229D01*
X163066629Y-94768893D01*
X163153680Y-94548274D01*
X163202466Y-94399928D01*
X163261157Y-94184909D01*
X163320419Y-93938633D01*
X163348725Y-93808228D01*
X163395110Y-93563612D01*
X163423987Y-93344773D01*
X163437522Y-93118229D01*
X163437878Y-92850497D01*
X163429287Y-92561603D01*
X163365323Y-91837126D01*
X163225780Y-91158479D01*
X163003681Y-90501547D01*
X162692052Y-89842210D01*
X162588953Y-89655900D01*
X162485956Y-89472576D01*
X162406103Y-89325522D01*
X162360991Y-89236335D01*
X162355081Y-89220351D01*
X162384517Y-89220881D01*
X162472580Y-89306483D01*
X162618900Y-89476720D01*
X162823107Y-89731155D01*
X163084832Y-90069352D01*
X163184140Y-90199765D01*
X163575192Y-90724133D01*
X163899482Y-91179285D01*
X164161342Y-91571752D01*
X164365103Y-91908066D01*
X164515097Y-92194761D01*
X164534092Y-92235797D01*
X164681249Y-92559977D01*
X164766333Y-92275105D01*
X164883896Y-91780601D01*
X164966492Y-91218551D01*
X165012599Y-90619764D01*
X165020699Y-90015047D01*
X164989270Y-89435209D01*
X164929048Y-88977553D01*
X164758468Y-88227799D01*
X164524054Y-87543787D01*
X164228919Y-86933218D01*
X163902120Y-86437318D01*
X163732603Y-86215455D01*
X163617543Y-86063015D01*
X163548189Y-85966976D01*
X163515794Y-85914313D01*
X163511609Y-85892003D01*
X163526885Y-85887024D01*
X163532417Y-85886960D01*
X163606792Y-85921344D01*
X163742660Y-86017095D01*
X163927076Y-86163118D01*
X164147097Y-86348315D01*
X164389777Y-86561590D01*
X164642171Y-86791845D01*
X164891336Y-87027984D01*
X165077484Y-87211500D01*
X165311899Y-87453887D01*
X165544975Y-87706394D01*
X165755628Y-87945398D01*
X165922774Y-88147281D01*
X165981594Y-88224384D01*
X166112300Y-88401477D01*
X166223565Y-88548894D01*
X166298699Y-88644670D01*
X166317075Y-88665897D01*
X166336977Y-88643046D01*
X166346737Y-88534751D01*
X166347317Y-88358858D01*
X166339680Y-88133215D01*
X166324791Y-87875668D01*
X166303611Y-87604063D01*
X166277104Y-87336246D01*
X166246232Y-87090065D01*
X166224574Y-86951787D01*
X166036208Y-86078062D01*
X165785829Y-85282747D01*
X165469781Y-84558307D01*
X165084406Y-83897206D01*
X164626050Y-83291907D01*
X164255135Y-82892709D01*
X163951990Y-82601710D01*
X163682984Y-82370024D01*
X163417927Y-82175389D01*
X163126628Y-81995548D01*
X162796594Y-81817356D01*
X162634339Y-81730467D01*
X162523162Y-81664660D01*
X162481251Y-81630944D01*
X162484938Y-81628733D01*
X162551627Y-81638284D01*
X162701067Y-81665290D01*
X162914276Y-81706152D01*
X163172277Y-81757271D01*
X163316021Y-81786342D01*
X164160435Y-81986675D01*
X164917546Y-82225653D01*
X165582195Y-82501646D01*
X165589605Y-82505184D01*
X165778695Y-82593146D01*
X165928819Y-82658318D01*
X166018288Y-82691513D01*
X166033522Y-82693226D01*
X166023518Y-82636560D01*
X165967775Y-82512496D01*
X165877161Y-82340742D01*
X165762545Y-82141007D01*
X165634796Y-81933000D01*
X165510251Y-81744349D01*
X165224062Y-81380330D01*
X164861982Y-80999956D01*
X164445965Y-80621766D01*
X163997970Y-80264301D01*
X163539953Y-79946102D01*
X163093871Y-79685710D01*
X163039128Y-79657688D01*
X162207755Y-79292183D01*
X161319787Y-79005027D01*
X161134426Y-78956590D01*
X160862287Y-78883699D01*
X160607839Y-78807604D01*
X160398060Y-78736886D01*
X160259928Y-78680128D01*
X160251400Y-78675713D01*
X160043629Y-78564720D01*
X160277371Y-78602834D01*
X160782284Y-78645370D01*
X161315072Y-78619713D01*
X161840382Y-78530380D01*
X162322860Y-78381885D01*
X162458966Y-78324198D01*
X162629158Y-78239587D01*
X162819250Y-78134569D01*
X163007361Y-78022678D01*
X163171612Y-77917450D01*
X163290121Y-77832417D01*
X163341009Y-77781116D01*
X163341538Y-77778263D01*
X163293357Y-77762984D01*
X163162530Y-77746023D01*
X162970220Y-77729652D01*
X162783608Y-77718369D01*
X161983743Y-77632487D01*
X161228389Y-77456587D01*
X160511436Y-77188010D01*
X159826773Y-76824098D01*
X159168291Y-76362190D01*
X158660142Y-75923964D01*
X158411084Y-75670085D01*
X158132136Y-75350988D01*
X157843560Y-74992435D01*
X157565616Y-74620186D01*
X157318567Y-74260002D01*
X157191053Y-74056145D01*
X157057756Y-73822357D01*
X156927318Y-73574916D01*
X156808012Y-73331899D01*
X156708113Y-73111382D01*
X156635894Y-72931442D01*
X156599627Y-72810155D01*
X156601485Y-72768027D01*
X156637342Y-72798965D01*
X156715167Y-72904679D01*
X156824739Y-73070120D01*
X156955841Y-73280237D01*
X157007914Y-73366551D01*
X157146467Y-73595111D01*
X157268520Y-73790572D01*
X157363226Y-73935999D01*
X157419738Y-74014456D01*
X157428215Y-74022800D01*
X157452459Y-73991812D01*
X157468531Y-73883170D01*
X157472463Y-73770824D01*
X157496071Y-73458712D01*
X157571075Y-73146799D01*
X157703743Y-72821981D01*
X157900344Y-72471153D01*
X158167146Y-72081212D01*
X158465870Y-71694196D01*
X158673005Y-71431882D01*
X158819398Y-71233974D01*
X158913475Y-71087364D01*
X158963659Y-70978944D01*
X158978375Y-70896749D01*
X158994050Y-70747051D01*
X159032917Y-70561733D01*
X159051633Y-70494193D01*
X159086983Y-70355036D01*
X159096649Y-70267542D01*
X159088800Y-70252196D01*
X159040349Y-70289134D01*
X158945774Y-70386518D01*
X158824503Y-70524199D01*
X158810220Y-70541114D01*
X158637085Y-70734703D01*
X158438898Y-70938488D01*
X158298423Y-71071779D01*
X158161605Y-71192645D01*
X158089844Y-71247565D01*
X158072306Y-71241534D01*
X158098157Y-71179549D01*
X158108312Y-71159445D01*
X158176318Y-71008437D01*
X158256456Y-70802430D01*
X158343146Y-70559385D01*
X158430805Y-70297263D01*
X158513851Y-70034026D01*
X158586705Y-69787633D01*
X158643783Y-69576047D01*
X158679504Y-69417227D01*
X158688287Y-69329136D01*
X158680797Y-69317226D01*
X158631771Y-69350778D01*
X158527854Y-69440192D01*
X158388337Y-69568609D01*
X158333930Y-69620356D01*
X158172929Y-69769075D01*
X158026674Y-69894233D01*
X157921141Y-69973863D01*
X157903271Y-69984562D01*
X157853035Y-70003654D01*
X157843917Y-69978004D01*
X157880077Y-69894212D01*
X157965673Y-69738875D01*
X157995778Y-69686434D01*
X158251687Y-69181382D01*
X158462879Y-68626791D01*
X158634289Y-68006996D01*
X158770854Y-67306334D01*
X158795342Y-67148959D01*
X158860812Y-66529355D01*
X158859821Y-65963596D01*
X158790469Y-65424138D01*
X158650852Y-64883435D01*
X158635663Y-64836470D01*
X158554284Y-64630416D01*
X158461497Y-64507874D01*
X158333850Y-64449169D01*
X158156638Y-64434609D01*
X157913264Y-64434609D01*
X157928022Y-63668453D01*
X157927967Y-63285752D01*
X157913252Y-62952218D01*
X157885369Y-62679523D01*
X157845808Y-62479338D01*
X157796061Y-62363335D01*
X157758148Y-62338541D01*
X157733456Y-62349020D01*
X157696810Y-62389990D01*
X157642075Y-62471756D01*
X157563116Y-62604624D01*
X157453798Y-62798899D01*
X157307987Y-63064888D01*
X157128799Y-63395754D01*
X156946547Y-63733382D01*
X157130919Y-63525611D01*
X157249197Y-63372708D01*
X157383828Y-63169501D01*
X157506155Y-62959315D01*
X157508863Y-62954241D01*
X157590925Y-62804285D01*
X157651702Y-62710679D01*
X157693729Y-62680652D01*
X157719541Y-62721434D01*
X157731673Y-62840254D01*
X157732662Y-63044342D01*
X157725042Y-63340927D01*
X157717948Y-63550449D01*
X157692570Y-63999659D01*
X157645793Y-64377736D01*
X157569609Y-64716564D01*
X157456013Y-65048028D01*
X157296998Y-65404013D01*
X157207822Y-65582004D01*
X156883775Y-66123614D01*
X156485596Y-66624333D01*
X155998828Y-67102211D01*
X155970127Y-67127381D01*
X155584559Y-67463702D01*
X155877244Y-67429303D01*
X156156148Y-67378593D01*
X156493720Y-67289317D01*
X156856884Y-67171648D01*
X157212566Y-67035755D01*
X157350740Y-66976154D01*
X157521237Y-66904008D01*
X157651668Y-66856966D01*
X157716622Y-66844062D01*
X157718831Y-66845258D01*
X157711931Y-66905639D01*
X157655004Y-67028874D01*
X157560207Y-67194599D01*
X157439699Y-67382451D01*
X157305636Y-67572066D01*
X157215198Y-67688826D01*
X156942669Y-67984990D01*
X156616624Y-68260244D01*
X156217417Y-68530248D01*
X155992095Y-68663694D01*
X155813032Y-68771712D01*
X155701552Y-68851435D01*
X155667563Y-68895241D01*
X155683166Y-68901298D01*
X155770497Y-68889018D01*
X155937310Y-68855245D01*
X156162648Y-68805016D01*
X156425552Y-68743372D01*
X156705066Y-68675351D01*
X156980230Y-68605994D01*
X157230088Y-68540338D01*
X157433682Y-68483424D01*
X157485368Y-68467963D01*
X157732016Y-68392472D01*
X157641196Y-68555952D01*
X157506141Y-68747579D01*
X157308776Y-68964626D01*
X157077056Y-69181091D01*
X156838940Y-69370974D01*
X156622382Y-69508273D01*
X156610929Y-69514148D01*
X156271893Y-69669052D01*
X155956947Y-69772457D01*
X155629089Y-69832756D01*
X155251317Y-69858344D01*
X155083097Y-69860725D01*
X154817482Y-69859554D01*
X154631296Y-69851597D01*
X154500127Y-69833181D01*
X154399567Y-69800632D01*
X154305203Y-69750276D01*
X154290970Y-69741517D01*
X154173362Y-69664623D01*
X154104046Y-69612012D01*
X154096185Y-69601941D01*
X154141221Y-69597114D01*
X154252166Y-69608971D01*
X154277985Y-69612973D01*
X154410424Y-69620014D01*
X154459727Y-69587426D01*
X154459784Y-69585630D01*
X154420775Y-69525596D01*
X154315539Y-69419505D01*
X154161761Y-69282544D01*
X153977127Y-69129901D01*
X153779322Y-68976762D01*
X153603269Y-68850113D01*
X153366584Y-68687269D01*
X153666600Y-68466410D01*
X154068964Y-68109428D01*
X154395426Y-67690837D01*
X154562419Y-67389581D01*
X154670495Y-67132881D01*
X154713497Y-66956945D01*
X154691346Y-66861498D01*
X154603962Y-66846262D01*
X154451266Y-66910961D01*
X154429134Y-66923738D01*
X154309242Y-66991380D01*
X154232379Y-67028996D01*
X154222420Y-67031746D01*
X154232713Y-66989299D01*
X154281138Y-66876656D01*
X154358035Y-66715857D01*
X154381013Y-66669849D01*
X154516471Y-66372309D01*
X154651280Y-66027450D01*
X154768315Y-65682030D01*
X154847216Y-65396899D01*
X154860046Y-65326202D01*
X154847039Y-65302987D01*
X154795290Y-65333937D01*
X154691896Y-65425737D01*
X154571436Y-65539741D01*
X154425240Y-65676242D01*
X154308531Y-65779719D01*
X154240621Y-65833245D01*
X154232226Y-65837063D01*
X154226743Y-65823831D01*
X154236971Y-65776478D01*
X154266950Y-65683521D01*
X154320716Y-65533472D01*
X154402309Y-65314849D01*
X154515765Y-65016164D01*
X154579221Y-64850151D01*
X155062477Y-63728498D01*
X155631358Y-62664298D01*
X156284415Y-61659858D01*
X157020204Y-60717486D01*
X157513884Y-60169001D01*
X157776414Y-59906122D01*
X158049388Y-59656715D01*
X158315689Y-59434604D01*
X158558203Y-59253612D01*
X158759813Y-59127562D01*
X158859810Y-59081989D01*
X159028900Y-59059197D01*
X159193071Y-59114603D01*
X159356581Y-59252996D01*
X159523690Y-59479160D01*
X159698656Y-59797883D01*
X159885738Y-60213949D01*
X159902031Y-60253218D01*
X160033200Y-60602227D01*
X160162153Y-61001841D01*
X160283464Y-61429530D01*
X160391707Y-61862762D01*
X160481455Y-62279006D01*
X160547281Y-62655731D01*
X160583761Y-62970407D01*
X160589348Y-63107102D01*
X160607227Y-63280449D01*
X160650758Y-63433167D01*
X160659780Y-63452200D01*
X160713370Y-63610910D01*
X160759406Y-63856963D01*
X160797371Y-64174056D01*
X160826750Y-64545884D01*
X160847026Y-64956143D01*
X160857682Y-65388530D01*
X160858202Y-65826740D01*
X160848070Y-66254470D01*
X160826770Y-66655417D01*
X160793784Y-67013275D01*
X160776708Y-67144137D01*
X160600634Y-68085787D01*
X160352948Y-68956909D01*
X160030019Y-69765531D01*
X159628216Y-70519679D01*
X159143906Y-71227381D01*
X158677346Y-71784506D01*
X158279327Y-72271040D01*
X157980348Y-72750406D01*
X157776645Y-73230369D01*
X157664450Y-73718696D01*
X157644613Y-73914159D01*
X157616819Y-74329701D01*
X157882990Y-74693300D01*
X158070120Y-74930940D01*
X158293059Y-75185352D01*
X158538868Y-75444603D01*
X158794607Y-75696757D01*
X159047336Y-75929881D01*
X159284116Y-76132039D01*
X159492006Y-76291299D01*
X159658067Y-76395724D01*
X159769359Y-76433381D01*
X159769656Y-76433382D01*
X159861783Y-76402021D01*
X160014630Y-76316652D01*
X160209589Y-76190340D01*
X160428051Y-76036153D01*
X160651409Y-75867157D01*
X160861053Y-75696418D01*
X161016561Y-75557804D01*
X161188211Y-75382050D01*
X161364197Y-75178075D01*
X161535029Y-74960122D01*
X161691220Y-74742433D01*
X161823279Y-74539251D01*
X161921718Y-74364817D01*
X161977049Y-74233374D01*
X161979782Y-74159164D01*
X161955912Y-74147901D01*
X161898252Y-74165406D01*
X161759348Y-74214087D01*
X161555058Y-74288193D01*
X161301240Y-74381970D01*
X161015694Y-74488937D01*
X160729907Y-74595324D01*
X160479173Y-74686093D01*
X160278954Y-74755859D01*
X160144710Y-74799233D01*
X160091905Y-74810830D01*
X160091863Y-74810791D01*
X160118765Y-74770272D01*
X160207252Y-74679743D01*
X160339932Y-74556686D01*
X160380568Y-74520598D01*
X160597839Y-74309272D01*
X160845416Y-74036246D01*
X161102628Y-73727421D01*
X161348798Y-73408694D01*
X161563256Y-73105964D01*
X161725325Y-72845130D01*
X161741300Y-72815963D01*
X161890409Y-72492035D01*
X162028303Y-72108546D01*
X162141038Y-71709787D01*
X162214673Y-71340046D01*
X162221330Y-71291050D01*
X162257362Y-71005365D01*
X161643951Y-71611605D01*
X161321600Y-71926907D01*
X161064198Y-72171545D01*
X160873128Y-72344279D01*
X160749778Y-72443869D01*
X160695532Y-72469076D01*
X160692913Y-72462898D01*
X160714700Y-72403701D01*
X160771891Y-72278907D01*
X160852230Y-72115225D01*
X160854405Y-72110914D01*
X160936610Y-71932667D01*
X161038465Y-71689049D01*
X161146556Y-71413172D01*
X161240344Y-71158299D01*
X161559217Y-70112977D01*
X161795960Y-69009492D01*
X161950137Y-67853850D01*
X162021316Y-66652058D01*
X162009060Y-65410124D01*
X161912937Y-64134053D01*
X161807854Y-63306652D01*
X161682347Y-62511152D01*
X161551144Y-61804831D01*
X161410151Y-61172997D01*
X161255273Y-60600955D01*
X161082416Y-60074013D01*
X160887487Y-59577477D01*
X160666390Y-59096653D01*
X160595369Y-58955270D01*
X160443550Y-58671674D01*
X160303873Y-58448051D01*
X160149981Y-58247885D01*
X159955520Y-58034658D01*
X159861829Y-57938900D01*
X159607379Y-57695658D01*
X159393576Y-57528229D01*
X159200533Y-57427998D01*
X159008363Y-57386351D01*
X158797181Y-57394676D01*
X158660453Y-57418524D01*
X158290622Y-57526821D01*
X157864494Y-57709812D01*
X157380518Y-57968454D01*
X156837144Y-58303708D01*
X156232824Y-58716532D01*
X155566006Y-59207885D01*
X154835142Y-59778725D01*
X154797413Y-59808952D01*
X154213094Y-60277799D01*
X153703435Y-60687248D01*
X153261877Y-61042672D01*
X152881862Y-61349446D01*
X152556831Y-61612943D01*
X152280223Y-61838537D01*
X152045481Y-62031604D01*
X151846045Y-62197516D01*
X151675356Y-62341649D01*
X151526854Y-62469375D01*
X151393982Y-62586071D01*
X151270179Y-62697109D01*
X151249000Y-62716319D01*
X150677532Y-63268210D01*
X150203681Y-63797310D01*
X149824520Y-64306968D01*
X149729101Y-64456085D01*
X149619739Y-64628192D01*
X149533707Y-64752924D01*
X149482503Y-64814204D01*
X149473281Y-64813782D01*
X149482461Y-64745459D01*
X149507858Y-64593393D01*
X149546258Y-64375893D01*
X149594449Y-64111268D01*
X149632444Y-63906955D01*
X149688426Y-63605995D01*
X149739742Y-63325689D01*
X149782324Y-63088586D01*
X149812107Y-62917234D01*
X149822257Y-62854585D01*
X149852908Y-62651044D01*
X149653403Y-62802642D01*
X149365227Y-63067667D01*
X149076720Y-63417881D01*
X148797699Y-63835083D01*
X148537982Y-64301075D01*
X148307390Y-64797656D01*
X148115738Y-65306626D01*
X147972848Y-65809786D01*
X147934782Y-65988342D01*
X147858913Y-66382461D01*
X148002782Y-66507112D01*
X148170412Y-66671608D01*
X148318487Y-66851274D01*
X148428801Y-67020735D01*
X148483148Y-67154611D01*
X148485865Y-67180484D01*
X148481826Y-67235804D01*
X148459619Y-67269988D01*
X148404916Y-67281758D01*
X148303388Y-67269838D01*
X148140708Y-67232951D01*
X147902545Y-67169820D01*
X147681257Y-67108777D01*
X147405450Y-67034984D01*
X147076480Y-66951036D01*
X146742643Y-66869096D01*
X146538516Y-66820966D01*
X146282606Y-66761407D01*
X146119424Y-66720901D01*
X146040371Y-66695602D01*
X146036845Y-66681660D01*
X146100245Y-66675228D01*
X146207070Y-66672686D01*
X146473154Y-66684783D01*
X146803485Y-66724229D01*
X147163805Y-66785373D01*
X147519855Y-66862562D01*
X147777650Y-66931785D01*
X147954598Y-66981350D01*
X148088141Y-67012649D01*
X148151703Y-67019533D01*
X148153146Y-67018684D01*
X148134859Y-66970344D01*
X148050937Y-66877795D01*
X147920176Y-66757352D01*
X147761375Y-66625330D01*
X147593332Y-66498043D01*
X147434845Y-66391806D01*
X147421543Y-66383744D01*
X147156963Y-66245629D01*
X146866693Y-66127374D01*
X146584222Y-66040411D01*
X146343038Y-65996170D01*
X146276397Y-65992891D01*
X146132953Y-65981134D01*
X146082104Y-65944690D01*
X146125307Y-65881804D01*
X146188997Y-65839981D01*
X146914016Y-65839981D01*
X146982696Y-65875215D01*
X147116472Y-65927060D01*
X147226147Y-65964506D01*
X147382319Y-66021677D01*
X147494047Y-66074655D01*
X147527883Y-66100748D01*
X147578433Y-66147102D01*
X147623101Y-66105657D01*
X147665166Y-65970614D01*
X147697628Y-65800513D01*
X147724448Y-65623873D01*
X147739636Y-65493415D01*
X147739964Y-65436959D01*
X147739825Y-65436804D01*
X147688979Y-65449744D01*
X147565874Y-65497424D01*
X147392572Y-65571045D01*
X147299149Y-65612515D01*
X147116644Y-65700131D01*
X146982678Y-65775224D01*
X146916127Y-65826645D01*
X146914016Y-65839981D01*
X146188997Y-65839981D01*
X146264019Y-65790717D01*
X146499698Y-65669673D01*
X146573370Y-65634791D01*
X146818108Y-65522461D01*
X147055836Y-65416982D01*
X147254737Y-65332287D01*
X147356614Y-65291785D01*
X147497220Y-65232526D01*
X147586568Y-65181908D01*
X147603342Y-65162058D01*
X147557888Y-65128392D01*
X147438519Y-65075739D01*
X147270725Y-65015296D01*
X147264624Y-65013287D01*
X146991112Y-64950552D01*
X146646430Y-64912306D01*
X146260469Y-64898983D01*
X145863123Y-64911018D01*
X145484282Y-64948843D01*
X145276715Y-64984424D01*
X144988573Y-65055603D01*
X144659677Y-65155759D01*
X144322175Y-65273393D01*
X144008212Y-65397010D01*
X143749935Y-65515111D01*
X143664602Y-65560990D01*
X143529780Y-65629251D01*
X143433312Y-65660932D01*
X143407191Y-65657816D01*
X143434342Y-65614553D01*
X143527014Y-65508129D01*
X143676316Y-65347876D01*
X143873356Y-65143125D01*
X144109243Y-64903209D01*
X144375086Y-64637457D01*
X144450893Y-64562439D01*
X145527172Y-63499639D01*
X145140590Y-63499639D01*
X144386563Y-63550872D01*
X143639774Y-63704858D01*
X142898476Y-63962024D01*
X142486983Y-64150327D01*
X141918561Y-64468557D01*
X141372284Y-64849906D01*
X140829296Y-65308413D01*
X140476003Y-65647631D01*
X140294398Y-65825735D01*
X140145675Y-65963945D01*
X140041243Y-66052283D01*
X139992512Y-66080773D01*
X139992033Y-66070805D01*
X140131081Y-65712195D01*
X140230960Y-65417063D01*
X140298620Y-65155801D01*
X140341013Y-64898800D01*
X140365089Y-64616453D01*
X140372695Y-64449305D01*
X140382101Y-64125865D01*
X140380990Y-63899959D01*
X140366119Y-63765491D01*
X140334246Y-63716364D01*
X140282130Y-63746483D01*
X140206526Y-63849750D01*
X140125195Y-63983944D01*
X139867059Y-64373252D01*
X139535221Y-64791981D01*
X139147912Y-65221173D01*
X138723361Y-65641868D01*
X138279800Y-66035110D01*
X137835458Y-66381937D01*
X137783769Y-66418957D01*
X137535711Y-66588764D01*
X137294823Y-66742841D01*
X137076966Y-66872152D01*
X136898000Y-66967664D01*
X136773786Y-67020342D01*
X136721991Y-67023742D01*
X136753209Y-66985955D01*
X136853497Y-66894916D01*
X137010171Y-66761470D01*
X137210548Y-66596461D01*
X137398883Y-66444959D01*
X137684444Y-66212825D01*
X137890551Y-66034009D01*
X138023224Y-65902780D01*
X138088481Y-65813408D01*
X138097821Y-65779405D01*
X138077986Y-65655023D01*
X138024170Y-65459951D01*
X137944903Y-65218288D01*
X137848717Y-64954132D01*
X137744145Y-64691582D01*
X137639718Y-64454736D01*
X137599440Y-64371680D01*
X137329168Y-63892249D01*
X137020457Y-63445689D01*
X136694837Y-63062132D01*
X136585934Y-62953178D01*
X136440875Y-62820133D01*
X136325493Y-62724241D01*
X136258655Y-62680817D01*
X136250306Y-62680760D01*
X136251501Y-62737464D01*
X136270820Y-62877870D01*
X136305332Y-63083949D01*
X136352105Y-63337673D01*
X136382356Y-63492821D01*
X136440166Y-63793909D01*
X136492508Y-64085112D01*
X136534737Y-64339234D01*
X136562206Y-64529077D01*
X136567768Y-64578290D01*
X136582900Y-64743131D01*
X136583837Y-64815330D01*
X136566492Y-64805638D01*
X136526780Y-64724805D01*
X136518707Y-64707353D01*
X136358618Y-64420947D01*
X136125973Y-64089573D01*
X135833142Y-63728098D01*
X135492496Y-63351387D01*
X135116403Y-62974306D01*
X134937848Y-62807505D01*
X134781589Y-62669484D01*
X134555089Y-62475928D01*
X134269471Y-62235899D01*
X133935855Y-61958459D01*
X133565361Y-61652670D01*
X133169111Y-61327592D01*
X132758225Y-60992288D01*
X132343825Y-60655819D01*
X131937031Y-60327247D01*
X131548964Y-60015633D01*
X131190745Y-59730038D01*
X130873494Y-59479526D01*
X130608333Y-59273156D01*
X130480470Y-59175505D01*
X129817041Y-58690599D01*
X129210502Y-58281676D01*
X128662231Y-57949423D01*
X128173607Y-57694531D01*
X127746007Y-57517690D01*
X127380810Y-57419588D01*
X127079395Y-57400916D01*
X126967916Y-57417904D01*
X126671470Y-57537521D01*
X126370870Y-57755658D01*
X126070712Y-58067319D01*
X125775591Y-58467506D01*
X125490102Y-58951224D01*
X125403405Y-59119092D01*
X125154643Y-59676579D01*
X124929752Y-60309656D01*
X124726748Y-61025245D01*
X124543647Y-61830268D01*
X124393288Y-62642584D01*
X124308645Y-63158834D01*
X124241837Y-63602982D01*
X124190836Y-63999798D01*
X124153614Y-64374052D01*
X124128143Y-64750514D01*
X124112395Y-65153956D01*
X124104341Y-65609146D01*
X124101953Y-66140856D01*
X124101948Y-66200662D01*
X124103260Y-66673997D01*
X124107631Y-67063277D01*
X124116061Y-67388310D01*
X124129552Y-67668905D01*
X124149103Y-67924873D01*
X124175716Y-68176022D01*
X124210391Y-68442162D01*
X124217866Y-68495303D01*
X124412740Y-69588984D01*
X124681482Y-70628902D01*
X125031128Y-71640834D01*
X125171324Y-71986988D01*
X125240494Y-72162135D01*
X125285611Y-72297222D01*
X125298373Y-72366886D01*
X125296777Y-72370350D01*
X125251103Y-72347364D01*
X125146365Y-72265310D01*
X124997589Y-72137941D01*
X124819798Y-71979009D01*
X124628020Y-71802268D01*
X124437277Y-71621470D01*
X124262596Y-71450370D01*
X124119002Y-71302719D01*
X124061469Y-71239618D01*
X123855130Y-71005365D01*
X123886464Y-71339279D01*
X123932756Y-71614732D01*
X124019346Y-71944889D01*
X124134356Y-72294623D01*
X124265904Y-72628808D01*
X124402111Y-72912317D01*
X124442103Y-72982231D01*
X124600949Y-73220158D01*
X124814361Y-73503307D01*
X125060941Y-73806040D01*
X125319292Y-74102714D01*
X125568015Y-74367689D01*
X125729162Y-74524486D01*
X125872507Y-74659060D01*
X125977401Y-74762147D01*
X126027801Y-74817774D01*
X126029122Y-74823157D01*
X125963688Y-74805935D01*
X125821543Y-74759173D01*
X125623089Y-74690223D01*
X125388728Y-74606442D01*
X125138862Y-74515181D01*
X124893892Y-74423795D01*
X124674221Y-74339639D01*
X124540766Y-74286673D01*
X124345694Y-74209989D01*
X124190412Y-74153621D01*
X124097249Y-74125443D01*
X124080843Y-74124467D01*
X124095954Y-74174180D01*
X124151939Y-74292847D01*
X124238402Y-74459072D01*
X124284990Y-74544606D01*
X124583546Y-74994559D01*
X124974859Y-75436935D01*
X125447852Y-75860934D01*
X125991447Y-76255757D01*
X126133027Y-76346120D01*
X126348806Y-76480343D01*
X126652455Y-76267526D01*
X126955554Y-76029797D01*
X127288049Y-75726112D01*
X127627116Y-75380327D01*
X127949937Y-75016295D01*
X128233691Y-74657872D01*
X128351726Y-74491266D01*
X128439703Y-74325119D01*
X128481292Y-74141556D01*
X128477085Y-73919069D01*
X128427673Y-73636149D01*
X128380522Y-73443471D01*
X128299884Y-73172431D01*
X128201695Y-72924308D01*
X128074819Y-72680118D01*
X127908121Y-72420879D01*
X127690465Y-72127606D01*
X127410716Y-71781318D01*
X127392997Y-71759984D01*
X126973678Y-71238776D01*
X126624890Y-70764121D01*
X126336459Y-70317161D01*
X126098209Y-69879036D01*
X125899967Y-69430889D01*
X125731558Y-68953858D01*
X125582809Y-68429086D01*
X125571041Y-68382844D01*
X125436333Y-67802755D01*
X125340235Y-67269354D01*
X125275800Y-66735967D01*
X125236079Y-66155920D01*
X125234472Y-66121709D01*
X125225894Y-65792636D01*
X125227831Y-65436987D01*
X125239034Y-65072633D01*
X125258252Y-64717444D01*
X125284235Y-64389291D01*
X125315733Y-64106045D01*
X125351497Y-63885576D01*
X125390276Y-63745756D01*
X125402302Y-63722223D01*
X125444970Y-63604102D01*
X125471563Y-63431860D01*
X125475944Y-63332653D01*
X125498364Y-62958748D01*
X125561108Y-62515062D01*
X125658158Y-62024791D01*
X125783497Y-61511129D01*
X125931108Y-60997273D01*
X126094971Y-60506417D01*
X126269070Y-60061757D01*
X126396132Y-59785733D01*
X126577071Y-59461494D01*
X126749128Y-59236493D01*
X126917128Y-59106993D01*
X127085896Y-59069257D01*
X127257693Y-59118218D01*
X127493556Y-59264246D01*
X127776579Y-59479865D01*
X128092001Y-59751256D01*
X128425058Y-60064599D01*
X128760985Y-60406074D01*
X129085020Y-60761861D01*
X129347538Y-61074487D01*
X129795606Y-61673741D01*
X130236715Y-62342367D01*
X130653066Y-63049635D01*
X131026858Y-63764815D01*
X131340291Y-64457179D01*
X131415440Y-64644381D01*
X131554934Y-65007520D01*
X131670116Y-65316591D01*
X131757689Y-65562210D01*
X131814358Y-65734991D01*
X131836825Y-65825548D01*
X131834305Y-65837063D01*
X131785904Y-65803918D01*
X131683451Y-65716331D01*
X131547579Y-65592066D01*
X131523955Y-65569814D01*
X131371638Y-65433425D01*
X131280279Y-65371483D01*
X131243041Y-65379719D01*
X131241379Y-65393339D01*
X131260827Y-65508976D01*
X131312890Y-65693473D01*
X131388152Y-65920687D01*
X131477196Y-66164474D01*
X131570602Y-66398692D01*
X131658954Y-66597199D01*
X131711861Y-66699356D01*
X131793754Y-66848269D01*
X131849220Y-66960187D01*
X131864692Y-67003348D01*
X131826236Y-67002579D01*
X131730066Y-66956020D01*
X131689747Y-66932097D01*
X131511122Y-66840898D01*
X131398621Y-66829157D01*
X131352144Y-66897108D01*
X131371595Y-67044983D01*
X131456875Y-67273017D01*
X131503653Y-67374737D01*
X131674836Y-67663920D01*
X131909973Y-67966552D01*
X132180102Y-68249621D01*
X132456260Y-68480113D01*
X132500163Y-68510643D01*
X132749101Y-68678288D01*
X132475710Y-68859830D01*
X132295350Y-68990134D01*
X132086100Y-69156699D01*
X131894751Y-69322142D01*
X131587181Y-69602911D01*
X131764894Y-69629772D01*
X131942606Y-69656633D01*
X131807536Y-69747525D01*
X131657578Y-69808146D01*
X131431306Y-69850470D01*
X131154879Y-69873288D01*
X130854453Y-69875388D01*
X130556186Y-69855562D01*
X130306410Y-69816965D01*
X129878682Y-69688692D01*
X129462805Y-69493286D01*
X129080691Y-69245379D01*
X128754247Y-68959601D01*
X128505385Y-68650581D01*
X128468086Y-68589420D01*
X128369843Y-68419282D01*
X128494057Y-68448313D01*
X128585155Y-68470796D01*
X128756786Y-68514202D01*
X128988913Y-68573425D01*
X129261497Y-68643358D01*
X129448532Y-68691534D01*
X129733421Y-68762705D01*
X129988153Y-68821996D01*
X130193589Y-68865290D01*
X130330590Y-68888470D01*
X130374436Y-68890717D01*
X130380324Y-68861081D01*
X130296566Y-68790794D01*
X130127612Y-68683229D01*
X130011660Y-68615999D01*
X129668137Y-68391691D01*
X129323829Y-68113843D01*
X129001940Y-67805022D01*
X128725678Y-67487794D01*
X128518248Y-67184726D01*
X128493072Y-67139198D01*
X128411232Y-66972495D01*
X128373979Y-66866737D01*
X128385884Y-66835245D01*
X128389186Y-66836370D01*
X128791026Y-66998572D01*
X129115535Y-67124834D01*
X129380386Y-67221252D01*
X129603249Y-67293920D01*
X129801795Y-67348934D01*
X129993695Y-67392389D01*
X130011661Y-67396025D01*
X130219666Y-67435946D01*
X130384956Y-67464254D01*
X130484328Y-67477152D01*
X130502421Y-67476362D01*
X130471459Y-67439113D01*
X130375968Y-67349671D01*
X130231433Y-67222098D01*
X130081543Y-67094152D01*
X129705121Y-66736608D01*
X129339320Y-66313618D01*
X129015342Y-65861563D01*
X128989290Y-65820676D01*
X128791063Y-65443254D01*
X128618984Y-64992698D01*
X128480714Y-64498100D01*
X128383914Y-63988554D01*
X128336245Y-63493153D01*
X128332586Y-63326914D01*
X128335611Y-63039960D01*
X128347128Y-62850178D01*
X128370800Y-62750967D01*
X128410290Y-62735727D01*
X128469262Y-62797856D01*
X128551377Y-62930754D01*
X128551906Y-62931681D01*
X128666585Y-63122546D01*
X128789832Y-63311799D01*
X128908124Y-63480627D01*
X129007939Y-63610218D01*
X129075752Y-63681757D01*
X129095960Y-63688549D01*
X129084746Y-63635177D01*
X129029746Y-63526488D01*
X128991418Y-63462822D01*
X128902853Y-63312658D01*
X128792502Y-63111953D01*
X128683949Y-62903624D01*
X128681885Y-62899530D01*
X128579275Y-62705932D01*
X128478887Y-62533322D01*
X128401037Y-62416472D01*
X128395673Y-62409685D01*
X128291187Y-62280671D01*
X128223996Y-62513570D01*
X128196391Y-62667264D01*
X128175231Y-62897906D01*
X128160997Y-63178733D01*
X128154171Y-63482979D01*
X128155235Y-63783880D01*
X128164672Y-64054669D01*
X128182962Y-64268583D01*
X128191395Y-64324228D01*
X128213072Y-64463140D01*
X128205315Y-64523357D01*
X128158662Y-64528133D01*
X128113481Y-64515700D01*
X127983602Y-64485219D01*
X127815902Y-64456090D01*
X127784607Y-64451685D01*
X127649083Y-64439918D01*
X127573279Y-64468230D01*
X127517026Y-64560032D01*
X127489288Y-64623812D01*
X127375642Y-64945774D01*
X127281571Y-65318046D01*
X127209374Y-65718016D01*
X127161349Y-66123073D01*
X127139793Y-66510603D01*
X127147003Y-66857996D01*
X127185277Y-67142641D01*
X127220865Y-67265488D01*
X127273246Y-67421744D01*
X127336037Y-67633942D01*
X127395886Y-67856896D01*
X127397383Y-67862830D01*
X127562737Y-68451382D01*
X127745538Y-68964436D01*
X127956200Y-69430143D01*
X128028032Y-69567890D01*
X128141822Y-69787100D01*
X128202970Y-69928458D01*
X128207902Y-69992557D01*
X128153043Y-69979989D01*
X128034817Y-69891345D01*
X127849649Y-69727218D01*
X127730910Y-69617095D01*
X127389197Y-69297439D01*
X127426651Y-69502118D01*
X127466266Y-69672952D01*
X127531611Y-69906503D01*
X127614370Y-70177450D01*
X127706226Y-70460472D01*
X127798860Y-70730245D01*
X127883958Y-70961449D01*
X127953200Y-71128762D01*
X127976046Y-71174790D01*
X127998147Y-71230342D01*
X127967304Y-71223053D01*
X127879254Y-71149371D01*
X127729731Y-71005746D01*
X127524037Y-70798399D01*
X127301912Y-70575342D01*
X127143585Y-70425627D01*
X127043866Y-70344925D01*
X126997567Y-70328907D01*
X126994811Y-70356886D01*
X127022620Y-70479099D01*
X127062771Y-70656201D01*
X127091981Y-70785321D01*
X127130646Y-70925026D01*
X127186905Y-71055771D01*
X127273720Y-71198816D01*
X127404056Y-71375422D01*
X127590877Y-71606849D01*
X127598764Y-71616404D01*
X127913795Y-72010692D01*
X128159920Y-72350463D01*
X128345473Y-72650677D01*
X128478786Y-72926290D01*
X128568191Y-73192260D01*
X128620061Y-73449731D01*
X128650014Y-73632411D01*
X128683135Y-73741373D01*
X128729130Y-73773783D01*
X128797705Y-73726807D01*
X128898563Y-73597614D01*
X129041410Y-73383369D01*
X129086512Y-73313561D01*
X129239703Y-73075797D01*
X129345968Y-72912405D01*
X129415030Y-72810677D01*
X129456615Y-72757909D01*
X129480449Y-72741392D01*
X129496255Y-72748420D01*
X129508879Y-72761686D01*
X129506287Y-72826922D01*
X129456220Y-72965150D01*
X129366522Y-73161429D01*
X129245041Y-73400821D01*
X129099621Y-73668387D01*
X128938107Y-73949186D01*
X128768346Y-74228281D01*
X128610485Y-74472401D01*
X128068972Y-75208599D01*
X127494041Y-75847252D01*
X126882808Y-76390112D01*
X126232390Y-76838931D01*
X125539903Y-77195462D01*
X124802461Y-77461456D01*
X124017182Y-77638665D01*
X123257531Y-77724312D01*
X122696798Y-77760158D01*
X123078049Y-78011303D01*
X123490551Y-78255377D01*
X123896401Y-78432011D01*
X124342634Y-78560566D01*
X124489040Y-78592173D01*
X124933134Y-78649848D01*
X125368153Y-78646182D01*
X125761717Y-78582288D01*
X125889249Y-78543986D01*
X126029014Y-78500523D01*
X126121653Y-78480974D01*
X126140055Y-78482841D01*
X126121573Y-78524363D01*
X126024479Y-78587435D01*
X125869412Y-78662929D01*
X125677013Y-78741716D01*
X125467921Y-78814668D01*
X125262777Y-78872657D01*
X125253761Y-78874817D01*
X124318673Y-79140876D01*
X123457318Y-79477034D01*
X122670847Y-79882510D01*
X121960408Y-80356524D01*
X121327149Y-80898292D01*
X120772221Y-81507034D01*
X120296771Y-82181968D01*
X120230745Y-82291643D01*
X120132582Y-82466445D01*
X120063480Y-82605562D01*
X120034150Y-82686720D01*
X120035523Y-82697600D01*
X120091867Y-82689556D01*
X120214361Y-82642487D01*
X120377520Y-82566308D01*
X120393076Y-82558490D01*
X120848900Y-82354872D01*
X121388785Y-82159989D01*
X121992929Y-81980281D01*
X122641533Y-81822189D01*
X122687055Y-81812320D01*
X122973404Y-81751310D01*
X123224444Y-81698906D01*
X123422532Y-81658703D01*
X123550027Y-81634297D01*
X123588746Y-81628524D01*
X123565154Y-81651321D01*
X123466940Y-81712019D01*
X123311477Y-81800253D01*
X123190255Y-81866230D01*
X122539406Y-82273660D01*
X121948761Y-82763831D01*
X121421117Y-83332901D01*
X120959272Y-83977027D01*
X120566022Y-84692366D01*
X120244167Y-85475075D01*
X120021837Y-86218037D01*
X119924818Y-86662504D01*
X119847707Y-87133745D01*
X119794491Y-87598642D01*
X119769155Y-88024079D01*
X119457590Y-88024079D01*
X119460747Y-87891087D01*
X119476861Y-87586893D01*
X119501978Y-87313548D01*
X119505065Y-87288052D01*
X119587604Y-86732595D01*
X119695238Y-86222953D01*
X119840417Y-85704061D01*
X119917242Y-85465119D01*
X120213935Y-84696337D01*
X120571728Y-84001826D01*
X120999882Y-83365830D01*
X121486630Y-82794715D01*
X121648330Y-82620146D01*
X121777065Y-82473958D01*
X121859640Y-82371654D01*
X121883053Y-82328907D01*
X121822431Y-82333250D01*
X121684390Y-82374339D01*
X121485875Y-82445472D01*
X121243830Y-82539948D01*
X120975199Y-82651064D01*
X120696927Y-82772118D01*
X120425958Y-82896408D01*
X120320427Y-82946980D01*
X120084907Y-83057595D01*
X119875288Y-83148864D01*
X119713175Y-83211867D01*
X119620170Y-83237686D01*
X119615866Y-83237881D01*
X119544046Y-83223712D01*
X119534890Y-83161114D01*
X119551682Y-83095038D01*
X119768976Y-82524798D01*
X120078352Y-81957273D01*
X120468339Y-81403468D01*
X120927464Y-80874386D01*
X121444256Y-80381032D01*
X122007243Y-79934409D01*
X122604953Y-79545521D01*
X123225913Y-79225372D01*
X123825838Y-78995264D01*
X123983298Y-78941353D01*
X124091511Y-78896818D01*
X124124374Y-78874690D01*
X124079338Y-78846610D01*
X123958956Y-78794593D01*
X123786179Y-78728315D01*
X123722533Y-78705303D01*
X123296202Y-78514325D01*
X122889440Y-78259277D01*
X122533930Y-77962007D01*
X122343906Y-77754711D01*
X122094900Y-77446265D01*
X123019162Y-77413156D01*
X123565072Y-77382521D01*
X124035362Y-77329383D01*
X124456906Y-77248201D01*
X124856575Y-77133434D01*
X125261241Y-76979541D01*
X125388117Y-76924702D01*
X125589618Y-76836849D01*
X125762636Y-76763862D01*
X125879529Y-76717307D01*
X125904263Y-76708713D01*
X125980997Y-76667965D01*
X125995162Y-76643742D01*
X125954328Y-76601472D01*
X125844399Y-76517779D01*
X125684238Y-76406521D01*
X125566635Y-76328902D01*
X125099931Y-75980982D01*
X124660325Y-75566562D01*
X124278913Y-75116464D01*
X124132688Y-74907642D01*
X123947247Y-74601900D01*
X123829491Y-74352243D01*
X123772990Y-74141961D01*
X123769998Y-73965163D01*
X123786882Y-73873440D01*
X123829335Y-73828177D01*
X123926021Y-73813703D01*
X124047310Y-73813577D01*
X124316686Y-73851472D01*
X124537536Y-73930448D01*
X124711661Y-74010810D01*
X124800427Y-74035186D01*
X124807677Y-74000845D01*
X124737250Y-73905055D01*
X124674129Y-73833286D01*
X124334794Y-73394343D01*
X124044347Y-72892071D01*
X123812562Y-72351145D01*
X123649212Y-71796240D01*
X123564072Y-71252033D01*
X123553854Y-71005065D01*
X123559196Y-70772028D01*
X123577475Y-70622009D01*
X123612068Y-70534580D01*
X123635973Y-70508419D01*
X123680312Y-70487663D01*
X123737556Y-70502939D01*
X123821772Y-70564562D01*
X123947024Y-70682846D01*
X124127381Y-70868105D01*
X124129429Y-70870246D01*
X124290694Y-71034923D01*
X124422280Y-71161874D01*
X124510259Y-71238180D01*
X124540766Y-71251827D01*
X124524915Y-71179877D01*
X124483828Y-71042893D01*
X124439171Y-70908137D01*
X124262977Y-70319606D01*
X124108542Y-69649569D01*
X123978805Y-68918684D01*
X123876706Y-68147612D01*
X123805183Y-67357012D01*
X123767177Y-66567544D01*
X123761625Y-66145879D01*
X123780495Y-65368197D01*
X123835000Y-64551275D01*
X123921977Y-63714768D01*
X124038268Y-62878332D01*
X124180711Y-62061622D01*
X124346145Y-61284294D01*
X124531411Y-60566001D01*
X124733347Y-59926401D01*
X124784335Y-59785733D01*
X125005687Y-59255701D01*
X125259246Y-58758479D01*
X125536202Y-58306417D01*
X125827746Y-57911868D01*
X126125069Y-57587182D01*
X126419362Y-57344711D01*
X126600727Y-57239014D01*
X126861833Y-57149677D01*
X127154036Y-57119947D01*
X127481253Y-57151709D01*
X127847399Y-57246850D01*
X128256391Y-57407256D01*
X128712142Y-57634814D01*
X129218571Y-57931410D01*
X129779592Y-58298930D01*
X130399121Y-58739262D01*
X131081073Y-59254290D01*
X131553036Y-59624731D01*
X132287830Y-60210931D01*
X132942749Y-60737716D01*
X133521127Y-61207866D01*
X134026298Y-61624164D01*
X134461597Y-61989391D01*
X134830358Y-62306327D01*
X135135914Y-62577754D01*
X135381599Y-62806454D01*
X135467774Y-62890474D01*
X135696607Y-63115010D01*
X135861743Y-63270757D01*
X135971176Y-63364115D01*
X136032898Y-63401481D01*
X136054900Y-63389254D01*
X136051737Y-63357959D01*
X136031228Y-63234962D01*
X136008360Y-63047633D01*
X135987901Y-62835278D01*
X135986907Y-62823244D01*
X135973986Y-62611009D01*
X135979349Y-62477588D01*
X136005483Y-62399117D01*
X136034504Y-62366509D01*
X136147467Y-62323029D01*
X136294597Y-62357710D01*
X136482850Y-62473742D01*
X136719180Y-62674316D01*
X136732488Y-62686719D01*
X137181512Y-63163722D01*
X137568155Y-63699681D01*
X137900002Y-64306766D01*
X138184638Y-64997149D01*
X138200926Y-65043036D01*
X138391520Y-65584672D01*
X138924183Y-65026767D01*
X139291431Y-64613760D01*
X139645211Y-64163951D01*
X139871516Y-63841408D01*
X140021494Y-63617444D01*
X140152910Y-63426772D01*
X140254564Y-63285219D01*
X140315259Y-63208613D01*
X140325549Y-63199705D01*
X140399354Y-63224033D01*
X140481220Y-63334169D01*
X140561504Y-63513554D01*
X140621094Y-63707302D01*
X140674995Y-64008711D01*
X140689892Y-64356646D01*
X140685302Y-64523167D01*
X140677901Y-64732584D01*
X140675467Y-64896182D01*
X140678163Y-64991199D01*
X140681847Y-65005979D01*
X140727170Y-64975188D01*
X140831475Y-64893555D01*
X140974309Y-64777187D01*
X141010906Y-64746831D01*
X141678902Y-64255733D01*
X142392906Y-63853228D01*
X143144043Y-63542584D01*
X143923436Y-63327067D01*
X144722210Y-63209946D01*
X145245182Y-63188129D01*
X145541770Y-63203776D01*
X145744489Y-63252417D01*
X145858648Y-63336123D01*
X145890065Y-63439792D01*
X145875029Y-63506627D01*
X145823090Y-63594495D01*
X145725090Y-63714092D01*
X145571869Y-63876112D01*
X145354269Y-64091251D01*
X145227795Y-64213142D01*
X145016977Y-64417271D01*
X144838273Y-64594273D01*
X144702796Y-64732809D01*
X144621656Y-64821539D01*
X144604307Y-64849441D01*
X144670302Y-64836571D01*
X144808222Y-64801924D01*
X144990185Y-64752558D01*
X145019849Y-64744237D01*
X145496785Y-64645482D01*
X146010100Y-64601467D01*
X146529988Y-64611227D01*
X147026645Y-64673798D01*
X147470265Y-64788215D01*
X147574853Y-64826979D01*
X147734502Y-64888704D01*
X147848820Y-64929068D01*
X147891522Y-64939240D01*
X147915349Y-64890780D01*
X147974580Y-64767234D01*
X148060220Y-64587433D01*
X148160578Y-64375905D01*
X148453136Y-63818734D01*
X148769134Y-63328911D01*
X149100681Y-62916814D01*
X149439886Y-62592823D01*
X149613914Y-62464440D01*
X149785409Y-62358836D01*
X149901874Y-62314385D01*
X149989163Y-62327052D01*
X150073074Y-62392742D01*
X150121645Y-62463179D01*
X150140878Y-62565385D01*
X150134784Y-62729427D01*
X150127803Y-62803184D01*
X150100390Y-63006378D01*
X150064281Y-63192712D01*
X150037722Y-63289419D01*
X150005473Y-63407025D01*
X150003176Y-63474781D01*
X150004924Y-63477226D01*
X150047887Y-63451217D01*
X150148740Y-63363030D01*
X150293575Y-63225564D01*
X150468482Y-63051721D01*
X150517371Y-63001945D01*
X150704082Y-62815892D01*
X150914803Y-62616046D01*
X151156843Y-62396171D01*
X151437511Y-62150027D01*
X151764116Y-61871377D01*
X152143967Y-61553981D01*
X152584373Y-61191601D01*
X153092644Y-60777999D01*
X153654672Y-60324176D01*
X154416503Y-59717471D01*
X155108661Y-59181016D01*
X155735709Y-58712386D01*
X156302208Y-58309156D01*
X156812719Y-57968904D01*
X157271806Y-57689203D01*
X157684028Y-57467631D01*
X158053948Y-57301761D01*
X158386127Y-57189171D01*
X158685127Y-57127436D01*
X158955511Y-57114131D01*
X159201839Y-57146832D01*
G37*
D13*
%TO.C,R2*%
X132190000Y-72000000D02*
X132960000Y-72000000D01*
X140270000Y-72000000D02*
X139500000Y-72000000D01*
X132960000Y-70630000D02*
X139500000Y-70630000D01*
X139500000Y-73370000D01*
X132960000Y-73370000D01*
X132960000Y-70630000D01*
%TD*%
M02*
