%TF.GenerationSoftware,KiCad,Pcbnew,9.0.7-9.0.7~ubuntu24.04.1*%
%TF.CreationDate,2026-08-17T01:15:09-05:00*%
%TF.ProjectId,CoyotePCB,436f796f-7465-4504-9342-2e6b69636164,1.0*%
%TF.SameCoordinates,Original*%
%TF.FileFunction,Profile,NP*%
%FSLAX46Y46*%
G04 Gerber Fmt 4.6, Leading zero omitted, Abs format (unit mm)*
G04 Created by KiCad (PCBNEW 9.0.7-9.0.7~ubuntu24.04.1) date 2026-08-17 01:15:09*
%MOMM*%
%LPD*%
G01*
G04 APERTURE LIST*
%TA.AperFunction,Profile*%
%ADD10C,0.100000*%
%TD*%
G04 APERTURE END LIST*
D10*
%TO.C,REF\u002A\u002A*%
X159010862Y-56820862D02*
X159342993Y-56865731D01*
X159639455Y-56970951D01*
X159927797Y-57149104D01*
X160166903Y-57348714D01*
X160583696Y-57793294D01*
X160963800Y-58331870D01*
X161307385Y-58964933D01*
X161614624Y-59692971D01*
X161885686Y-60516473D01*
X162120744Y-61435928D01*
X162319968Y-62451826D01*
X162483530Y-63564654D01*
X162552448Y-64161891D01*
X162578817Y-64489265D01*
X162598091Y-64891457D01*
X162610474Y-65349696D01*
X162616169Y-65845212D01*
X162615378Y-66359234D01*
X162608303Y-66872991D01*
X162595147Y-67367713D01*
X162576113Y-67824629D01*
X162551403Y-68224967D01*
X162521220Y-68549959D01*
X162503661Y-68681452D01*
X162457805Y-68963863D01*
X162405255Y-69264058D01*
X162350802Y-69556886D01*
X162299233Y-69817197D01*
X162255337Y-70019839D01*
X162229320Y-70122320D01*
X162228633Y-70180819D01*
X162287698Y-70207374D01*
X162413878Y-70213220D01*
X162596143Y-70237675D01*
X162729924Y-70317263D01*
X162819215Y-70461318D01*
X162868009Y-70679173D01*
X162880302Y-70980162D01*
X162867494Y-71273167D01*
X162794022Y-71834408D01*
X162646581Y-72370211D01*
X162415908Y-72912791D01*
X162369897Y-73003862D01*
X162260340Y-73218592D01*
X162194741Y-73357741D01*
X162168666Y-73437659D01*
X162177680Y-73474691D01*
X162217349Y-73485183D01*
X162239218Y-73485612D01*
X162438876Y-73528670D01*
X162579643Y-73655721D01*
X162659129Y-73863584D01*
X162677092Y-74068854D01*
X162636942Y-74320375D01*
X162524090Y-74616918D01*
X162349936Y-74942516D01*
X162125879Y-75281207D01*
X161863319Y-75617026D01*
X161573654Y-75934007D01*
X161268284Y-76216186D01*
X160996602Y-76422375D01*
X160876189Y-76505978D01*
X160812740Y-76566901D01*
X160814592Y-76616705D01*
X160890082Y-76666949D01*
X161047546Y-76729194D01*
X161274638Y-76807907D01*
X161944315Y-76989286D01*
X162672019Y-77093262D01*
X163354190Y-77121604D01*
X163646289Y-77122883D01*
X163852972Y-77128258D01*
X163992693Y-77140044D01*
X164083907Y-77160551D01*
X164145068Y-77192092D01*
X164183432Y-77225490D01*
X164261315Y-77339400D01*
X164287317Y-77435330D01*
X164243610Y-77625003D01*
X164121891Y-77846458D01*
X163936262Y-78083444D01*
X163700824Y-78319710D01*
X163429681Y-78539005D01*
X163198315Y-78690260D01*
X162870087Y-78882433D01*
X163150174Y-79007150D01*
X163833842Y-79361495D01*
X164480707Y-79794959D01*
X165079603Y-80296063D01*
X165619362Y-80853330D01*
X166088817Y-81455283D01*
X166476800Y-82090442D01*
X166761557Y-82718940D01*
X166850928Y-82999279D01*
X166878697Y-83210782D01*
X166845235Y-83367988D01*
X166780569Y-83458619D01*
X166643864Y-83543924D01*
X166463552Y-83562840D01*
X166230091Y-83514106D01*
X165933939Y-83396464D01*
X165792601Y-83328232D01*
X165326137Y-83093959D01*
X165564294Y-83441823D01*
X165989928Y-84151037D01*
X166344200Y-84925593D01*
X166623560Y-85752130D01*
X166824456Y-86617288D01*
X166943338Y-87507707D01*
X166976653Y-88410026D01*
X166967649Y-88721713D01*
X166944702Y-89095237D01*
X166912577Y-89377182D01*
X166867782Y-89579695D01*
X166806828Y-89714927D01*
X166726224Y-89795027D01*
X166650304Y-89826348D01*
X166529047Y-89839120D01*
X166414433Y-89805745D01*
X166293562Y-89715724D01*
X166153531Y-89558558D01*
X165981436Y-89323749D01*
X165916863Y-89229579D01*
X165780243Y-89030660D01*
X165665997Y-88869102D01*
X165585745Y-88760999D01*
X165551107Y-88722442D01*
X165550810Y-88722597D01*
X165551639Y-88776439D01*
X165566286Y-88905640D01*
X165591634Y-89083063D01*
X165593743Y-89096676D01*
X165614812Y-89308057D01*
X165627190Y-89598440D01*
X165631490Y-89945878D01*
X165628327Y-90328424D01*
X165618317Y-90724132D01*
X165602072Y-91111055D01*
X165580209Y-91467246D01*
X165553341Y-91770760D01*
X165522083Y-91999650D01*
X165510892Y-92055142D01*
X165400975Y-92487948D01*
X165282593Y-92865324D01*
X165160066Y-93177315D01*
X165037717Y-93413967D01*
X164919869Y-93565325D01*
X164832288Y-93618173D01*
X164664644Y-93639937D01*
X164532193Y-93601118D01*
X164417716Y-93489342D01*
X164303996Y-93292239D01*
X164265902Y-93211215D01*
X164096614Y-92838953D01*
X164062895Y-93330074D01*
X163979066Y-93982128D01*
X163822630Y-94601634D01*
X163636418Y-95084333D01*
X163519896Y-95322383D01*
X163421469Y-95478145D01*
X163325716Y-95567662D01*
X163217217Y-95606976D01*
X163128042Y-95613220D01*
X163056810Y-95601072D01*
X162971841Y-95557891D01*
X162860530Y-95473571D01*
X162710273Y-95338007D01*
X162508467Y-95141093D01*
X162386327Y-95018523D01*
X162179668Y-94812677D01*
X161992258Y-94631083D01*
X161838881Y-94487682D01*
X161734323Y-94396414D01*
X161701178Y-94372480D01*
X161650551Y-94350951D01*
X161628954Y-94369649D01*
X161634347Y-94447818D01*
X161664695Y-94604707D01*
X161672596Y-94642534D01*
X161726532Y-94956141D01*
X161737577Y-95188755D01*
X161705147Y-95354264D01*
X161638237Y-95457392D01*
X161529525Y-95530165D01*
X161386464Y-95554893D01*
X161194837Y-95530016D01*
X160940427Y-95453975D01*
X160672901Y-95351498D01*
X159870505Y-95079089D01*
X159049838Y-94908370D01*
X158209475Y-94839201D01*
X157347989Y-94871442D01*
X156690653Y-94961466D01*
X155940708Y-95141887D01*
X155179303Y-95413540D01*
X154420648Y-95766993D01*
X153678957Y-96192817D01*
X152968443Y-96681580D01*
X152303318Y-97223852D01*
X151697795Y-97810200D01*
X151166086Y-98431195D01*
X150894312Y-98807698D01*
X150761833Y-99029413D01*
X150624113Y-99311408D01*
X150474799Y-99667718D01*
X150323317Y-100068849D01*
X150033820Y-100833079D01*
X149754167Y-101502454D01*
X149479028Y-102084889D01*
X149203072Y-102588299D01*
X148920966Y-103020600D01*
X148627380Y-103389706D01*
X148316982Y-103703533D01*
X147984441Y-103969997D01*
X147624426Y-104197013D01*
X147496529Y-104265733D01*
X147270453Y-104378653D01*
X147109254Y-104447023D01*
X146988076Y-104478649D01*
X146882067Y-104481335D01*
X146830607Y-104474850D01*
X146703214Y-104466461D01*
X146577168Y-104492274D01*
X146418317Y-104561861D01*
X146304393Y-104622373D01*
X145928508Y-104799180D01*
X145469208Y-104966110D01*
X144946901Y-105116904D01*
X144381993Y-105245306D01*
X144106154Y-105296384D01*
X143702662Y-105361217D01*
X143370733Y-105401773D01*
X143081014Y-105418443D01*
X142804153Y-105411613D01*
X142510798Y-105381672D01*
X142171595Y-105329008D01*
X142133738Y-105322457D01*
X141511849Y-105201418D01*
X140975546Y-105068525D01*
X140506742Y-104918540D01*
X140087349Y-104746223D01*
X139997536Y-104703639D01*
X139748858Y-104586760D01*
X139569218Y-104513874D01*
X139437078Y-104478098D01*
X139330899Y-104472549D01*
X139289733Y-104477434D01*
X139186455Y-104482672D01*
X139069629Y-104459518D01*
X138916262Y-104400383D01*
X138703356Y-104297679D01*
X138627863Y-104259007D01*
X138241666Y-104030529D01*
X137883600Y-103755357D01*
X137548600Y-103426089D01*
X137231598Y-103035321D01*
X136927529Y-102575649D01*
X136631328Y-102039670D01*
X136337927Y-101419980D01*
X136042260Y-100709175D01*
X135846062Y-100193699D01*
X135688811Y-99777247D01*
X135551419Y-99439856D01*
X135423078Y-99161328D01*
X135292982Y-98921469D01*
X135150321Y-98700081D01*
X134984291Y-98476969D01*
X134817900Y-98272299D01*
X134164167Y-97560816D01*
X133448540Y-96914726D01*
X132682814Y-96342352D01*
X131878790Y-95852016D01*
X131048264Y-95452043D01*
X130550507Y-95261781D01*
X130076700Y-95110717D01*
X129637630Y-95000784D01*
X129201176Y-94926881D01*
X128735215Y-94883909D01*
X128207626Y-94866767D01*
X128057256Y-94865913D01*
X127537386Y-94874344D01*
X127091160Y-94904546D01*
X126689658Y-94961770D01*
X126303958Y-95051267D01*
X125905142Y-95178290D01*
X125514521Y-95327645D01*
X125194911Y-95449974D01*
X124951396Y-95524584D01*
X124768771Y-95553312D01*
X124631827Y-95537991D01*
X124525355Y-95480458D01*
X124492759Y-95450973D01*
X124435142Y-95381127D01*
X124405660Y-95298413D01*
X124399231Y-95172930D01*
X124410775Y-94974775D01*
X124411105Y-94970502D01*
X124430484Y-94767618D01*
X124453680Y-94592429D01*
X124475524Y-94483465D01*
X124490310Y-94398151D01*
X124461477Y-94373150D01*
X124384201Y-94411923D01*
X124253661Y-94517932D01*
X124065035Y-94694637D01*
X123813499Y-94945500D01*
X123769881Y-94989907D01*
X123537905Y-95224102D01*
X123363816Y-95392447D01*
X123234829Y-95505235D01*
X123138157Y-95572758D01*
X123061017Y-95605310D01*
X122995614Y-95613220D01*
X122850973Y-95585878D01*
X122723810Y-95496123D01*
X122604333Y-95332361D01*
X122482751Y-95082997D01*
X122422886Y-94934967D01*
X122268948Y-94473147D01*
X122151640Y-93989797D01*
X122078788Y-93522693D01*
X122057678Y-93171911D01*
X122093467Y-92641673D01*
X121888071Y-93169982D01*
X121758229Y-93429442D01*
X121630272Y-93594626D01*
X121493938Y-93674429D01*
X121338969Y-93677749D01*
X121309904Y-93671315D01*
X121217680Y-93628045D01*
X121136229Y-93535455D01*
X121047677Y-93371393D01*
X121020569Y-93312714D01*
X120818552Y-92799319D01*
X120666502Y-92256111D01*
X120561304Y-91665996D01*
X120499845Y-91011879D01*
X120479269Y-90341032D01*
X120479773Y-90011109D01*
X120484754Y-89690788D01*
X120493495Y-89405356D01*
X120505278Y-89180100D01*
X120515359Y-89068435D01*
X120557102Y-88730807D01*
X120239546Y-89184541D01*
X120056904Y-89436543D01*
X119912488Y-89611149D01*
X119792460Y-89720857D01*
X119682981Y-89778169D01*
X119570212Y-89795584D01*
X119562988Y-89795633D01*
X119441817Y-89781936D01*
X119346684Y-89733773D01*
X119274549Y-89640537D01*
X119222367Y-89491619D01*
X119187096Y-89276413D01*
X119165694Y-88984311D01*
X119155117Y-88604706D01*
X119152868Y-88365845D01*
X119169598Y-87644628D01*
X119231391Y-86984008D01*
X119343734Y-86348530D01*
X119512113Y-85702741D01*
X119615660Y-85375040D01*
X119867339Y-84711776D01*
X120167697Y-84081870D01*
X120500465Y-83519294D01*
X120514954Y-83497576D01*
X120618909Y-83336643D01*
X120690171Y-83214630D01*
X120717374Y-83151483D01*
X120714751Y-83146962D01*
X120655436Y-83168854D01*
X120526773Y-83227398D01*
X120351880Y-83311893D01*
X120265845Y-83354733D01*
X119936736Y-83497259D01*
X119670039Y-83561428D01*
X119460569Y-83547766D01*
X119303141Y-83456800D01*
X119299180Y-83452895D01*
X119236526Y-83361255D01*
X119214654Y-83241024D01*
X119235809Y-83077346D01*
X119302238Y-82855365D01*
X119416188Y-82560226D01*
X119444487Y-82492047D01*
X119743435Y-81897941D01*
X120134038Y-81313785D01*
X120604091Y-80751951D01*
X121141392Y-80224811D01*
X121733738Y-79744739D01*
X122368924Y-79324107D01*
X122804047Y-79085886D01*
X123218133Y-78877687D01*
X122962643Y-78720387D01*
X122559721Y-78440463D01*
X122234470Y-78139864D01*
X122025175Y-77886045D01*
X121879147Y-77663099D01*
X121811353Y-77489550D01*
X121818903Y-77349899D01*
X121898910Y-77228647D01*
X121902041Y-77225490D01*
X121952810Y-77183710D01*
X122019452Y-77154834D01*
X122120503Y-77136527D01*
X122274496Y-77126452D01*
X122499967Y-77122274D01*
X122726321Y-77121604D01*
X123075561Y-77114591D01*
X123423892Y-77095275D01*
X123733139Y-77066243D01*
X123904606Y-77041755D01*
X124111068Y-76999655D01*
X124349534Y-76941531D01*
X124599768Y-76873536D01*
X124841537Y-76801822D01*
X125054608Y-76732543D01*
X125218745Y-76671849D01*
X125313715Y-76625894D01*
X125329142Y-76608603D01*
X125289478Y-76564443D01*
X125186409Y-76479384D01*
X125041993Y-76371594D01*
X125037581Y-76368435D01*
X124682065Y-76073575D01*
X124328749Y-75707418D01*
X124002492Y-75300051D01*
X123728155Y-74881560D01*
X123587323Y-74613262D01*
X123492291Y-74341106D01*
X123455135Y-74073720D01*
X123475844Y-73835894D01*
X123554405Y-73652421D01*
X123587819Y-73613108D01*
X123716607Y-73523503D01*
X123849706Y-73485628D01*
X123851861Y-73485612D01*
X123945954Y-73473186D01*
X123970625Y-73446655D01*
X123940431Y-73386117D01*
X123874060Y-73255771D01*
X123782994Y-73078116D01*
X123727106Y-72969488D01*
X123469175Y-72356872D01*
X123310529Y-71715529D01*
X123252776Y-71052099D01*
X123252552Y-71007676D01*
X123253676Y-70764144D01*
X123260657Y-70600413D01*
X123278912Y-70492398D01*
X123313859Y-70416016D01*
X123370913Y-70347183D01*
X123410037Y-70307457D01*
X123536936Y-70202394D01*
X123652769Y-70168363D01*
X123726369Y-70173286D01*
X123835088Y-70181194D01*
X123869379Y-70144455D01*
X123860355Y-70062067D01*
X123687076Y-69034554D01*
X123562069Y-68075200D01*
X123484686Y-67160517D01*
X123454280Y-66267018D01*
X123470204Y-65371216D01*
X123531809Y-64449623D01*
X123638448Y-63478753D01*
X123671885Y-63226921D01*
X123840616Y-62169815D01*
X124045208Y-61198924D01*
X124284936Y-60316151D01*
X124559074Y-59523401D01*
X124866898Y-58822579D01*
X125207683Y-58215587D01*
X125580704Y-57704331D01*
X125904625Y-57362956D01*
X126194356Y-57121798D01*
X126466841Y-56960110D01*
X126751585Y-56864588D01*
X127078091Y-56821931D01*
X127108039Y-56820349D01*
X127386939Y-56825248D01*
X127680771Y-56868334D01*
X127995217Y-56952869D01*
X128335960Y-57082115D01*
X128708685Y-57259336D01*
X129119075Y-57487795D01*
X129572813Y-57770754D01*
X130075582Y-58111477D01*
X130633066Y-58513226D01*
X131250949Y-58979264D01*
X131934913Y-59512854D01*
X132290589Y-59795715D01*
X132932746Y-60310191D01*
X133496183Y-60763855D01*
X133984315Y-61159502D01*
X134400555Y-61499930D01*
X134748318Y-61787933D01*
X135031020Y-62026310D01*
X135252073Y-62217855D01*
X135297648Y-62258344D01*
X135468045Y-62409044D01*
X135575921Y-62497102D01*
X135635517Y-62529877D01*
X135661073Y-62514726D01*
X135666830Y-62459010D01*
X135666867Y-62449134D01*
X135709826Y-62303369D01*
X135818700Y-62158099D01*
X135994024Y-62038008D01*
X136196985Y-62008621D01*
X136440926Y-62068413D01*
X136476721Y-62082814D01*
X136627552Y-62172399D01*
X136822254Y-62326743D01*
X137041860Y-62527880D01*
X137267407Y-62757839D01*
X137479930Y-62998654D01*
X137592880Y-63140324D01*
X137753335Y-63374213D01*
X137933071Y-63673366D01*
X138114845Y-64005790D01*
X138281414Y-64339496D01*
X138415535Y-64642493D01*
X138449404Y-64729401D01*
X138544802Y-64985256D01*
X138876827Y-64625516D01*
X139031067Y-64445242D01*
X139218935Y-64205672D01*
X139418768Y-63935459D01*
X139608907Y-63663259D01*
X139645149Y-63609169D01*
X139802824Y-63377733D01*
X139946435Y-63177734D01*
X140063874Y-63025240D01*
X140143028Y-62936319D01*
X140163886Y-62920928D01*
X140371140Y-62888754D01*
X140559179Y-62952490D01*
X140722332Y-63105051D01*
X140854930Y-63339348D01*
X140951304Y-63648294D01*
X141000777Y-63967105D01*
X141019246Y-64135069D01*
X141036575Y-64252364D01*
X141047963Y-64291747D01*
X141094910Y-64264165D01*
X141205214Y-64190976D01*
X141357389Y-64086520D01*
X141399720Y-64057017D01*
X141716334Y-63857850D01*
X142096286Y-63653473D01*
X142506273Y-63459271D01*
X142912997Y-63290632D01*
X143283155Y-63162944D01*
X143412150Y-63127129D01*
X143842616Y-63032031D01*
X144281035Y-62960241D01*
X144708745Y-62912911D01*
X145107089Y-62891193D01*
X145457406Y-62896241D01*
X145741038Y-62929206D01*
X145900051Y-62973454D01*
X146080509Y-63071001D01*
X146177392Y-63200091D01*
X146210521Y-63390098D01*
X146211243Y-63434692D01*
X146195874Y-63602414D01*
X146139852Y-63751408D01*
X146028308Y-63910475D01*
X145882706Y-64070991D01*
X145670186Y-64291747D01*
X146195859Y-64291747D01*
X146700693Y-64317346D01*
X147241895Y-64396684D01*
X147640788Y-64482168D01*
X147701316Y-64479967D01*
X147760343Y-64431060D01*
X147831327Y-64318822D01*
X147926473Y-64129246D01*
X148143520Y-63719534D01*
X148390122Y-63329439D01*
X148656122Y-62969771D01*
X148931365Y-62651342D01*
X149205694Y-62384966D01*
X149468953Y-62181454D01*
X149710987Y-62051617D01*
X149920636Y-62006267D01*
X150132465Y-62049861D01*
X150310703Y-62165984D01*
X150431264Y-62332643D01*
X150470548Y-62508355D01*
X150493411Y-62535981D01*
X150566863Y-62494676D01*
X150698198Y-62379851D01*
X150743248Y-62336886D01*
X150874830Y-62213145D01*
X151032900Y-62070958D01*
X151224577Y-61904388D01*
X151456980Y-61707503D01*
X151737228Y-61474366D01*
X152072440Y-61199045D01*
X152469735Y-60875603D01*
X152936233Y-60498107D01*
X153327399Y-60182709D01*
X153965940Y-59671484D01*
X154534871Y-59222907D01*
X155042592Y-58831020D01*
X155497504Y-58489868D01*
X155908009Y-58193496D01*
X156282506Y-57935946D01*
X156629397Y-57711262D01*
X156957083Y-57513489D01*
X157273963Y-57336669D01*
X157525617Y-57206156D01*
X157937203Y-57017575D01*
X158298589Y-56894476D01*
X158634548Y-56830433D01*
X158969856Y-56819020D01*
X159010862Y-56820862D01*
%TD*%
M02*
