%TF.GenerationSoftware,KiCad,Pcbnew,9.0.6*%
%TF.CreationDate,2026-05-21T15:30:17-05:00*%
%TF.ProjectId,KVL+KCL,4b564c2b-4b43-44c2-9e6b-696361645f70,rev?*%
%TF.SameCoordinates,Original*%
%TF.FileFunction,Soldermask,Top*%
%TF.FilePolarity,Negative*%
%FSLAX46Y46*%
G04 Gerber Fmt 4.6, Leading zero omitted, Abs format (unit mm)*
G04 Created by KiCad (PCBNEW 9.0.6) date 2026-05-21 15:30:17*
%MOMM*%
%LPD*%
G01*
G04 APERTURE LIST*
G04 APERTURE END LIST*
G36*
X48331654Y-141332665D02*
G01*
X48546447Y-141390219D01*
X48751891Y-141475316D01*
X48944469Y-141586502D01*
X49120888Y-141721872D01*
X49278128Y-141879112D01*
X49413498Y-142055531D01*
X49524684Y-142248109D01*
X49609781Y-142453553D01*
X49667335Y-142668346D01*
X49696360Y-142888815D01*
X49696360Y-143111185D01*
X49667335Y-143331654D01*
X49609781Y-143546447D01*
X49524684Y-143751891D01*
X49413498Y-143944469D01*
X49278128Y-144120888D01*
X49120888Y-144278128D01*
X48944469Y-144413498D01*
X48751891Y-144524684D01*
X48546447Y-144609781D01*
X48331654Y-144667335D01*
X48111185Y-144696360D01*
X47888815Y-144696360D01*
X47668346Y-144667335D01*
X47453553Y-144609781D01*
X47248109Y-144524684D01*
X47055531Y-144413498D01*
X46879112Y-144278128D01*
X46721872Y-144120888D01*
X46586502Y-143944469D01*
X46475316Y-143751891D01*
X46390219Y-143546447D01*
X46332665Y-143331654D01*
X46303640Y-143111185D01*
X46303640Y-142888815D01*
X46332665Y-142668346D01*
X46390219Y-142453553D01*
X46475316Y-142248109D01*
X46586502Y-142055531D01*
X46721872Y-141879112D01*
X46879112Y-141721872D01*
X47055531Y-141586502D01*
X47248109Y-141475316D01*
X47453553Y-141390219D01*
X47668346Y-141332665D01*
X47888815Y-141303640D01*
X48111185Y-141303640D01*
X48331654Y-141332665D01*
G37*
G36*
X240331654Y-141332665D02*
G01*
X240546447Y-141390219D01*
X240751891Y-141475316D01*
X240944469Y-141586502D01*
X241120888Y-141721872D01*
X241278128Y-141879112D01*
X241413498Y-142055531D01*
X241524684Y-142248109D01*
X241609781Y-142453553D01*
X241667335Y-142668346D01*
X241696360Y-142888815D01*
X241696360Y-143111185D01*
X241667335Y-143331654D01*
X241609781Y-143546447D01*
X241524684Y-143751891D01*
X241413498Y-143944469D01*
X241278128Y-144120888D01*
X241120888Y-144278128D01*
X240944469Y-144413498D01*
X240751891Y-144524684D01*
X240546447Y-144609781D01*
X240331654Y-144667335D01*
X240111185Y-144696360D01*
X239888815Y-144696360D01*
X239668346Y-144667335D01*
X239453553Y-144609781D01*
X239248109Y-144524684D01*
X239055531Y-144413498D01*
X238879112Y-144278128D01*
X238721872Y-144120888D01*
X238586502Y-143944469D01*
X238475316Y-143751891D01*
X238390219Y-143546447D01*
X238332665Y-143331654D01*
X238303640Y-143111185D01*
X238303640Y-142888815D01*
X238332665Y-142668346D01*
X238390219Y-142453553D01*
X238475316Y-142248109D01*
X238586502Y-142055531D01*
X238721872Y-141879112D01*
X238879112Y-141721872D01*
X239055531Y-141586502D01*
X239248109Y-141475316D01*
X239453553Y-141390219D01*
X239668346Y-141332665D01*
X239888815Y-141303640D01*
X240111185Y-141303640D01*
X240331654Y-141332665D01*
G37*
G36*
X134512418Y-124984122D02*
G01*
X134846868Y-125060458D01*
X135170667Y-125173760D01*
X135479744Y-125322604D01*
X135770213Y-125505118D01*
X136038421Y-125719006D01*
X136280994Y-125961579D01*
X136494882Y-126229787D01*
X136677396Y-126520256D01*
X136826240Y-126829333D01*
X136939542Y-127153132D01*
X137015878Y-127487582D01*
X137054287Y-127828475D01*
X137054287Y-128171525D01*
X137015878Y-128512418D01*
X136939542Y-128846868D01*
X136826240Y-129170667D01*
X136677396Y-129479744D01*
X136494882Y-129770213D01*
X136280994Y-130038421D01*
X136038421Y-130280994D01*
X135770213Y-130494882D01*
X135479744Y-130677396D01*
X135170667Y-130826240D01*
X134846868Y-130939542D01*
X134512418Y-131015878D01*
X134171525Y-131054287D01*
X133828475Y-131054287D01*
X133487582Y-131015878D01*
X133153132Y-130939542D01*
X132829333Y-130826240D01*
X132520256Y-130677396D01*
X132229787Y-130494882D01*
X131961579Y-130280994D01*
X131719006Y-130038421D01*
X131505118Y-129770213D01*
X131322604Y-129479744D01*
X131173760Y-129170667D01*
X131060458Y-128846868D01*
X130984122Y-128512418D01*
X130945713Y-128171525D01*
X130945713Y-127828475D01*
X130984122Y-127487582D01*
X131060458Y-127153132D01*
X131173760Y-126829333D01*
X131322604Y-126520256D01*
X131505118Y-126229787D01*
X131719006Y-125961579D01*
X131961579Y-125719006D01*
X132229787Y-125505118D01*
X132520256Y-125322604D01*
X132829333Y-125173760D01*
X133153132Y-125060458D01*
X133487582Y-124984122D01*
X133828475Y-124945713D01*
X134171525Y-124945713D01*
X134512418Y-124984122D01*
G37*
G36*
X153562418Y-124857122D02*
G01*
X153896868Y-124933458D01*
X154220667Y-125046760D01*
X154529744Y-125195604D01*
X154820213Y-125378118D01*
X155088421Y-125592006D01*
X155330994Y-125834579D01*
X155544882Y-126102787D01*
X155727396Y-126393256D01*
X155876240Y-126702333D01*
X155989542Y-127026132D01*
X156065878Y-127360582D01*
X156104287Y-127701475D01*
X156104287Y-128044525D01*
X156065878Y-128385418D01*
X155989542Y-128719868D01*
X155876240Y-129043667D01*
X155727396Y-129352744D01*
X155544882Y-129643213D01*
X155330994Y-129911421D01*
X155088421Y-130153994D01*
X154820213Y-130367882D01*
X154529744Y-130550396D01*
X154220667Y-130699240D01*
X153896868Y-130812542D01*
X153562418Y-130888878D01*
X153221525Y-130927287D01*
X152878475Y-130927287D01*
X152537582Y-130888878D01*
X152203132Y-130812542D01*
X151879333Y-130699240D01*
X151570256Y-130550396D01*
X151279787Y-130367882D01*
X151011579Y-130153994D01*
X150769006Y-129911421D01*
X150555118Y-129643213D01*
X150372604Y-129352744D01*
X150223760Y-129043667D01*
X150110458Y-128719868D01*
X150034122Y-128385418D01*
X149995713Y-128044525D01*
X149995713Y-127701475D01*
X150034122Y-127360582D01*
X150110458Y-127026132D01*
X150223760Y-126702333D01*
X150372604Y-126393256D01*
X150555118Y-126102787D01*
X150769006Y-125834579D01*
X151011579Y-125592006D01*
X151279787Y-125378118D01*
X151570256Y-125195604D01*
X151879333Y-125046760D01*
X152203132Y-124933458D01*
X152537582Y-124857122D01*
X152878475Y-124818713D01*
X153221525Y-124818713D01*
X153562418Y-124857122D01*
G37*
G36*
X58315151Y-126687301D02*
G01*
X58516623Y-126752763D01*
X58705373Y-126848936D01*
X58876755Y-126973452D01*
X59026548Y-127123245D01*
X59151064Y-127294627D01*
X59247237Y-127483377D01*
X59312699Y-127684849D01*
X59345838Y-127894080D01*
X59345838Y-128105920D01*
X59312699Y-128315151D01*
X59247237Y-128516623D01*
X59151064Y-128705373D01*
X59026548Y-128876755D01*
X58876755Y-129026548D01*
X58705373Y-129151064D01*
X58516623Y-129247237D01*
X58315151Y-129312699D01*
X58105920Y-129345838D01*
X57894080Y-129345838D01*
X57684849Y-129312699D01*
X57483377Y-129247237D01*
X57294627Y-129151064D01*
X57123245Y-129026548D01*
X56973452Y-128876755D01*
X56848936Y-128705373D01*
X56752763Y-128516623D01*
X56687301Y-128315151D01*
X56654162Y-128105920D01*
X56654162Y-127894080D01*
X56687301Y-127684849D01*
X56752763Y-127483377D01*
X56848936Y-127294627D01*
X56973452Y-127123245D01*
X57123245Y-126973452D01*
X57294627Y-126848936D01*
X57483377Y-126752763D01*
X57684849Y-126687301D01*
X57894080Y-126654162D01*
X58105920Y-126654162D01*
X58315151Y-126687301D01*
G37*
G36*
X202315151Y-126687301D02*
G01*
X202516623Y-126752763D01*
X202705373Y-126848936D01*
X202876755Y-126973452D01*
X203026548Y-127123245D01*
X203151064Y-127294627D01*
X203247237Y-127483377D01*
X203312699Y-127684849D01*
X203345838Y-127894080D01*
X203345838Y-128105920D01*
X203312699Y-128315151D01*
X203247237Y-128516623D01*
X203151064Y-128705373D01*
X203026548Y-128876755D01*
X202876755Y-129026548D01*
X202705373Y-129151064D01*
X202516623Y-129247237D01*
X202315151Y-129312699D01*
X202105920Y-129345838D01*
X201894080Y-129345838D01*
X201684849Y-129312699D01*
X201483377Y-129247237D01*
X201294627Y-129151064D01*
X201123245Y-129026548D01*
X200973452Y-128876755D01*
X200848936Y-128705373D01*
X200752763Y-128516623D01*
X200687301Y-128315151D01*
X200654162Y-128105920D01*
X200654162Y-127894080D01*
X200687301Y-127684849D01*
X200752763Y-127483377D01*
X200848936Y-127294627D01*
X200973452Y-127123245D01*
X201123245Y-126973452D01*
X201294627Y-126848936D01*
X201483377Y-126752763D01*
X201684849Y-126687301D01*
X201894080Y-126654162D01*
X202105920Y-126654162D01*
X202315151Y-126687301D01*
G37*
G36*
X93561256Y-127138754D02*
G01*
X93724257Y-127206271D01*
X93870954Y-127304291D01*
X93995709Y-127429046D01*
X94093729Y-127575743D01*
X94161246Y-127738744D01*
X94195666Y-127911785D01*
X94195666Y-128088215D01*
X94161246Y-128261256D01*
X94093729Y-128424257D01*
X93995709Y-128570954D01*
X93870954Y-128695709D01*
X93724257Y-128793729D01*
X93561256Y-128861246D01*
X93388215Y-128895666D01*
X93211785Y-128895666D01*
X93038744Y-128861246D01*
X92875743Y-128793729D01*
X92729046Y-128695709D01*
X92604291Y-128570954D01*
X92506271Y-128424257D01*
X92438754Y-128261256D01*
X92404334Y-128088215D01*
X92404334Y-127911785D01*
X92438754Y-127738744D01*
X92506271Y-127575743D01*
X92604291Y-127429046D01*
X92729046Y-127304291D01*
X92875743Y-127206271D01*
X93038744Y-127138754D01*
X93211785Y-127104334D01*
X93388215Y-127104334D01*
X93561256Y-127138754D01*
G37*
G36*
X106261256Y-127138754D02*
G01*
X106424257Y-127206271D01*
X106570954Y-127304291D01*
X106695709Y-127429046D01*
X106793729Y-127575743D01*
X106861246Y-127738744D01*
X106895666Y-127911785D01*
X106895666Y-128088215D01*
X106861246Y-128261256D01*
X106793729Y-128424257D01*
X106695709Y-128570954D01*
X106570954Y-128695709D01*
X106424257Y-128793729D01*
X106261256Y-128861246D01*
X106088215Y-128895666D01*
X105911785Y-128895666D01*
X105738744Y-128861246D01*
X105575743Y-128793729D01*
X105429046Y-128695709D01*
X105304291Y-128570954D01*
X105206271Y-128424257D01*
X105138754Y-128261256D01*
X105104334Y-128088215D01*
X105104334Y-127911785D01*
X105138754Y-127738744D01*
X105206271Y-127575743D01*
X105304291Y-127429046D01*
X105429046Y-127304291D01*
X105575743Y-127206271D01*
X105738744Y-127138754D01*
X105911785Y-127104334D01*
X106088215Y-127104334D01*
X106261256Y-127138754D01*
G37*
G36*
X181751384Y-106628882D02*
G01*
X181914385Y-106696399D01*
X182061082Y-106794419D01*
X182185837Y-106919174D01*
X182283857Y-107065871D01*
X182351374Y-107228872D01*
X182385794Y-107401913D01*
X182385794Y-107578343D01*
X182351374Y-107751384D01*
X182283857Y-107914385D01*
X182185837Y-108061082D01*
X182061082Y-108185837D01*
X181914385Y-108283857D01*
X181751384Y-108351374D01*
X181578343Y-108385794D01*
X181401913Y-108385794D01*
X181228872Y-108351374D01*
X181065871Y-108283857D01*
X180919174Y-108185837D01*
X180794419Y-108061082D01*
X180696399Y-107914385D01*
X180628882Y-107751384D01*
X180594462Y-107578343D01*
X180594462Y-107401913D01*
X180628882Y-107228872D01*
X180696399Y-107065871D01*
X180794419Y-106919174D01*
X180919174Y-106794419D01*
X181065871Y-106696399D01*
X181228872Y-106628882D01*
X181401913Y-106594462D01*
X181578343Y-106594462D01*
X181751384Y-106628882D01*
G37*
G36*
X222771128Y-106628882D02*
G01*
X222934129Y-106696399D01*
X223080826Y-106794419D01*
X223205581Y-106919174D01*
X223303601Y-107065871D01*
X223371118Y-107228872D01*
X223405538Y-107401913D01*
X223405538Y-107578343D01*
X223371118Y-107751384D01*
X223303601Y-107914385D01*
X223205581Y-108061082D01*
X223080826Y-108185837D01*
X222934129Y-108283857D01*
X222771128Y-108351374D01*
X222598087Y-108385794D01*
X222421657Y-108385794D01*
X222248616Y-108351374D01*
X222085615Y-108283857D01*
X221938918Y-108185837D01*
X221814163Y-108061082D01*
X221716143Y-107914385D01*
X221648626Y-107751384D01*
X221614206Y-107578343D01*
X221614206Y-107401913D01*
X221648626Y-107228872D01*
X221716143Y-107065871D01*
X221814163Y-106919174D01*
X221938918Y-106794419D01*
X222085615Y-106696399D01*
X222248616Y-106628882D01*
X222421657Y-106594462D01*
X222598087Y-106594462D01*
X222771128Y-106628882D01*
G37*
G36*
X51913338Y-100695045D02*
G01*
X52085557Y-100766381D01*
X52240551Y-100869944D01*
X52372362Y-101001755D01*
X52475925Y-101156749D01*
X52547261Y-101328968D01*
X52583627Y-101511796D01*
X52583627Y-101698204D01*
X52547261Y-101881032D01*
X52475925Y-102053251D01*
X52372362Y-102208245D01*
X52240551Y-102340056D01*
X52085557Y-102443619D01*
X51913338Y-102514955D01*
X51730510Y-102551321D01*
X51544102Y-102551321D01*
X51361274Y-102514955D01*
X51189055Y-102443619D01*
X51034061Y-102340056D01*
X50902250Y-102208245D01*
X50798687Y-102053251D01*
X50727351Y-101881032D01*
X50690985Y-101698204D01*
X50690985Y-101511796D01*
X50727351Y-101328968D01*
X50798687Y-101156749D01*
X50902250Y-101001755D01*
X51034061Y-100869944D01*
X51189055Y-100766381D01*
X51361274Y-100695045D01*
X51544102Y-100658679D01*
X51730510Y-100658679D01*
X51913338Y-100695045D01*
G37*
G36*
X62073338Y-100695045D02*
G01*
X62245557Y-100766381D01*
X62400551Y-100869944D01*
X62532362Y-101001755D01*
X62635925Y-101156749D01*
X62707261Y-101328968D01*
X62743627Y-101511796D01*
X62743627Y-101698204D01*
X62707261Y-101881032D01*
X62635925Y-102053251D01*
X62532362Y-102208245D01*
X62400551Y-102340056D01*
X62245557Y-102443619D01*
X62073338Y-102514955D01*
X61890510Y-102551321D01*
X61704102Y-102551321D01*
X61521274Y-102514955D01*
X61349055Y-102443619D01*
X61194061Y-102340056D01*
X61062250Y-102208245D01*
X60958687Y-102053251D01*
X60887351Y-101881032D01*
X60850985Y-101698204D01*
X60850985Y-101511796D01*
X60887351Y-101328968D01*
X60958687Y-101156749D01*
X61062250Y-101001755D01*
X61194061Y-100869944D01*
X61349055Y-100766381D01*
X61521274Y-100695045D01*
X61704102Y-100658679D01*
X61890510Y-100658679D01*
X62073338Y-100695045D01*
G37*
G36*
X172771128Y-97648626D02*
G01*
X172934129Y-97716143D01*
X173080826Y-97814163D01*
X173205581Y-97938918D01*
X173303601Y-98085615D01*
X173371118Y-98248616D01*
X173405538Y-98421657D01*
X173405538Y-98598087D01*
X173371118Y-98771128D01*
X173303601Y-98934129D01*
X173205581Y-99080826D01*
X173080826Y-99205581D01*
X172934129Y-99303601D01*
X172771128Y-99371118D01*
X172598087Y-99405538D01*
X172421657Y-99405538D01*
X172248616Y-99371118D01*
X172085615Y-99303601D01*
X171938918Y-99205581D01*
X171814163Y-99080826D01*
X171716143Y-98934129D01*
X171648626Y-98771128D01*
X171614206Y-98598087D01*
X171614206Y-98421657D01*
X171648626Y-98248616D01*
X171716143Y-98085615D01*
X171814163Y-97938918D01*
X171938918Y-97814163D01*
X172085615Y-97716143D01*
X172248616Y-97648626D01*
X172421657Y-97614206D01*
X172598087Y-97614206D01*
X172771128Y-97648626D01*
G37*
G36*
X231751384Y-97648626D02*
G01*
X231914385Y-97716143D01*
X232061082Y-97814163D01*
X232185837Y-97938918D01*
X232283857Y-98085615D01*
X232351374Y-98248616D01*
X232385794Y-98421657D01*
X232385794Y-98598087D01*
X232351374Y-98771128D01*
X232283857Y-98934129D01*
X232185837Y-99080826D01*
X232061082Y-99205581D01*
X231914385Y-99303601D01*
X231751384Y-99371118D01*
X231578343Y-99405538D01*
X231401913Y-99405538D01*
X231228872Y-99371118D01*
X231065871Y-99303601D01*
X230919174Y-99205581D01*
X230794419Y-99080826D01*
X230696399Y-98934129D01*
X230628882Y-98771128D01*
X230594462Y-98598087D01*
X230594462Y-98421657D01*
X230628882Y-98248616D01*
X230696399Y-98085615D01*
X230794419Y-97938918D01*
X230919174Y-97814163D01*
X231065871Y-97716143D01*
X231228872Y-97648626D01*
X231401913Y-97614206D01*
X231578343Y-97614206D01*
X231751384Y-97648626D01*
G37*
G36*
X202639418Y-91984122D02*
G01*
X202973868Y-92060458D01*
X203297667Y-92173760D01*
X203606744Y-92322604D01*
X203897213Y-92505118D01*
X204165421Y-92719006D01*
X204407994Y-92961579D01*
X204621882Y-93229787D01*
X204804396Y-93520256D01*
X204953240Y-93829333D01*
X205066542Y-94153132D01*
X205142878Y-94487582D01*
X205181287Y-94828475D01*
X205181287Y-95171525D01*
X205142878Y-95512418D01*
X205066542Y-95846868D01*
X204953240Y-96170667D01*
X204804396Y-96479744D01*
X204621882Y-96770213D01*
X204407994Y-97038421D01*
X204165421Y-97280994D01*
X203897213Y-97494882D01*
X203606744Y-97677396D01*
X203297667Y-97826240D01*
X202973868Y-97939542D01*
X202639418Y-98015878D01*
X202298525Y-98054287D01*
X201955475Y-98054287D01*
X201614582Y-98015878D01*
X201280132Y-97939542D01*
X200956333Y-97826240D01*
X200647256Y-97677396D01*
X200356787Y-97494882D01*
X200088579Y-97280994D01*
X199846006Y-97038421D01*
X199632118Y-96770213D01*
X199449604Y-96479744D01*
X199300760Y-96170667D01*
X199187458Y-95846868D01*
X199111122Y-95512418D01*
X199072713Y-95171525D01*
X199072713Y-94828475D01*
X199111122Y-94487582D01*
X199187458Y-94153132D01*
X199300760Y-93829333D01*
X199449604Y-93520256D01*
X199632118Y-93229787D01*
X199846006Y-92961579D01*
X200088579Y-92719006D01*
X200356787Y-92505118D01*
X200647256Y-92322604D01*
X200956333Y-92173760D01*
X201280132Y-92060458D01*
X201614582Y-91984122D01*
X201955475Y-91945713D01*
X202298525Y-91945713D01*
X202639418Y-91984122D01*
G37*
G36*
X58337879Y-95106410D02*
G01*
X58555603Y-95177152D01*
X58759579Y-95281083D01*
X58944786Y-95415644D01*
X59106662Y-95577520D01*
X59241223Y-95762727D01*
X59345154Y-95966703D01*
X59415896Y-96184427D01*
X59451709Y-96410536D01*
X59451709Y-96639464D01*
X59415896Y-96865573D01*
X59345154Y-97083297D01*
X59241223Y-97287273D01*
X59106662Y-97472480D01*
X58944786Y-97634356D01*
X58759579Y-97768917D01*
X58555603Y-97872848D01*
X58337879Y-97943590D01*
X58111770Y-97979403D01*
X57882842Y-97979403D01*
X57656733Y-97943590D01*
X57439009Y-97872848D01*
X57235033Y-97768917D01*
X57049826Y-97634356D01*
X56887950Y-97472480D01*
X56753389Y-97287273D01*
X56649458Y-97083297D01*
X56578716Y-96865573D01*
X56542903Y-96639464D01*
X56542903Y-96410536D01*
X56578716Y-96184427D01*
X56649458Y-95966703D01*
X56753389Y-95762727D01*
X56887950Y-95577520D01*
X57049826Y-95415644D01*
X57235033Y-95281083D01*
X57439009Y-95177152D01*
X57656733Y-95106410D01*
X57882842Y-95070597D01*
X58111770Y-95070597D01*
X58337879Y-95106410D01*
G37*
G36*
X51913338Y-90535045D02*
G01*
X52085557Y-90606381D01*
X52240551Y-90709944D01*
X52372362Y-90841755D01*
X52475925Y-90996749D01*
X52547261Y-91168968D01*
X52583627Y-91351796D01*
X52583627Y-91538204D01*
X52547261Y-91721032D01*
X52475925Y-91893251D01*
X52372362Y-92048245D01*
X52240551Y-92180056D01*
X52085557Y-92283619D01*
X51913338Y-92354955D01*
X51730510Y-92391321D01*
X51544102Y-92391321D01*
X51361274Y-92354955D01*
X51189055Y-92283619D01*
X51034061Y-92180056D01*
X50902250Y-92048245D01*
X50798687Y-91893251D01*
X50727351Y-91721032D01*
X50690985Y-91538204D01*
X50690985Y-91351796D01*
X50727351Y-91168968D01*
X50798687Y-90996749D01*
X50902250Y-90841755D01*
X51034061Y-90709944D01*
X51189055Y-90606381D01*
X51361274Y-90535045D01*
X51544102Y-90498679D01*
X51730510Y-90498679D01*
X51913338Y-90535045D01*
G37*
G36*
X62073338Y-90535045D02*
G01*
X62245557Y-90606381D01*
X62400551Y-90709944D01*
X62532362Y-90841755D01*
X62635925Y-90996749D01*
X62707261Y-91168968D01*
X62743627Y-91351796D01*
X62743627Y-91538204D01*
X62707261Y-91721032D01*
X62635925Y-91893251D01*
X62532362Y-92048245D01*
X62400551Y-92180056D01*
X62245557Y-92283619D01*
X62073338Y-92354955D01*
X61890510Y-92391321D01*
X61704102Y-92391321D01*
X61521274Y-92354955D01*
X61349055Y-92283619D01*
X61194061Y-92180056D01*
X61062250Y-92048245D01*
X60958687Y-91893251D01*
X60887351Y-91721032D01*
X60850985Y-91538204D01*
X60850985Y-91351796D01*
X60887351Y-91168968D01*
X60958687Y-90996749D01*
X61062250Y-90841755D01*
X61194061Y-90709944D01*
X61349055Y-90606381D01*
X61521274Y-90535045D01*
X61704102Y-90498679D01*
X61890510Y-90498679D01*
X62073338Y-90535045D01*
G37*
G36*
X119331654Y-85332665D02*
G01*
X119546447Y-85390219D01*
X119751891Y-85475316D01*
X119944469Y-85586502D01*
X120120888Y-85721872D01*
X120278128Y-85879112D01*
X120413498Y-86055531D01*
X120524684Y-86248109D01*
X120609781Y-86453553D01*
X120667335Y-86668346D01*
X120696360Y-86888815D01*
X120696360Y-87111185D01*
X120667335Y-87331654D01*
X120609781Y-87546447D01*
X120524684Y-87751891D01*
X120413498Y-87944469D01*
X120278128Y-88120888D01*
X120120888Y-88278128D01*
X119944469Y-88413498D01*
X119751891Y-88524684D01*
X119546447Y-88609781D01*
X119331654Y-88667335D01*
X119111185Y-88696360D01*
X118888815Y-88696360D01*
X118668346Y-88667335D01*
X118453553Y-88609781D01*
X118248109Y-88524684D01*
X118055531Y-88413498D01*
X117879112Y-88278128D01*
X117721872Y-88120888D01*
X117586502Y-87944469D01*
X117475316Y-87751891D01*
X117390219Y-87546447D01*
X117332665Y-87331654D01*
X117303640Y-87111185D01*
X117303640Y-86888815D01*
X117332665Y-86668346D01*
X117390219Y-86453553D01*
X117475316Y-86248109D01*
X117586502Y-86055531D01*
X117721872Y-85879112D01*
X117879112Y-85721872D01*
X118055531Y-85586502D01*
X118248109Y-85475316D01*
X118453553Y-85390219D01*
X118668346Y-85332665D01*
X118888815Y-85303640D01*
X119111185Y-85303640D01*
X119331654Y-85332665D01*
G37*
G36*
X51913338Y-81645045D02*
G01*
X52085557Y-81716381D01*
X52240551Y-81819944D01*
X52372362Y-81951755D01*
X52475925Y-82106749D01*
X52547261Y-82278968D01*
X52583627Y-82461796D01*
X52583627Y-82648204D01*
X52547261Y-82831032D01*
X52475925Y-83003251D01*
X52372362Y-83158245D01*
X52240551Y-83290056D01*
X52085557Y-83393619D01*
X51913338Y-83464955D01*
X51730510Y-83501321D01*
X51544102Y-83501321D01*
X51361274Y-83464955D01*
X51189055Y-83393619D01*
X51034061Y-83290056D01*
X50902250Y-83158245D01*
X50798687Y-83003251D01*
X50727351Y-82831032D01*
X50690985Y-82648204D01*
X50690985Y-82461796D01*
X50727351Y-82278968D01*
X50798687Y-82106749D01*
X50902250Y-81951755D01*
X51034061Y-81819944D01*
X51189055Y-81716381D01*
X51361274Y-81645045D01*
X51544102Y-81608679D01*
X51730510Y-81608679D01*
X51913338Y-81645045D01*
G37*
G36*
X62073338Y-81645045D02*
G01*
X62245557Y-81716381D01*
X62400551Y-81819944D01*
X62532362Y-81951755D01*
X62635925Y-82106749D01*
X62707261Y-82278968D01*
X62743627Y-82461796D01*
X62743627Y-82648204D01*
X62707261Y-82831032D01*
X62635925Y-83003251D01*
X62532362Y-83158245D01*
X62400551Y-83290056D01*
X62245557Y-83393619D01*
X62073338Y-83464955D01*
X61890510Y-83501321D01*
X61704102Y-83501321D01*
X61521274Y-83464955D01*
X61349055Y-83393619D01*
X61194061Y-83290056D01*
X61062250Y-83158245D01*
X60958687Y-83003251D01*
X60887351Y-82831032D01*
X60850985Y-82648204D01*
X60850985Y-82461796D01*
X60887351Y-82278968D01*
X60958687Y-82106749D01*
X61062250Y-81951755D01*
X61194061Y-81819944D01*
X61349055Y-81716381D01*
X61521274Y-81645045D01*
X61704102Y-81608679D01*
X61890510Y-81608679D01*
X62073338Y-81645045D01*
G37*
G36*
X202512418Y-72934122D02*
G01*
X202846868Y-73010458D01*
X203170667Y-73123760D01*
X203479744Y-73272604D01*
X203770213Y-73455118D01*
X204038421Y-73669006D01*
X204280994Y-73911579D01*
X204494882Y-74179787D01*
X204677396Y-74470256D01*
X204826240Y-74779333D01*
X204939542Y-75103132D01*
X205015878Y-75437582D01*
X205054287Y-75778475D01*
X205054287Y-76121525D01*
X205015878Y-76462418D01*
X204939542Y-76796868D01*
X204826240Y-77120667D01*
X204677396Y-77429744D01*
X204494882Y-77720213D01*
X204280994Y-77988421D01*
X204038421Y-78230994D01*
X203770213Y-78444882D01*
X203479744Y-78627396D01*
X203170667Y-78776240D01*
X202846868Y-78889542D01*
X202512418Y-78965878D01*
X202171525Y-79004287D01*
X201828475Y-79004287D01*
X201487582Y-78965878D01*
X201153132Y-78889542D01*
X200829333Y-78776240D01*
X200520256Y-78627396D01*
X200229787Y-78444882D01*
X199961579Y-78230994D01*
X199719006Y-77988421D01*
X199505118Y-77720213D01*
X199322604Y-77429744D01*
X199173760Y-77120667D01*
X199060458Y-76796868D01*
X198984122Y-76462418D01*
X198945713Y-76121525D01*
X198945713Y-75778475D01*
X198984122Y-75437582D01*
X199060458Y-75103132D01*
X199173760Y-74779333D01*
X199322604Y-74470256D01*
X199505118Y-74179787D01*
X199719006Y-73911579D01*
X199961579Y-73669006D01*
X200229787Y-73455118D01*
X200520256Y-73272604D01*
X200829333Y-73123760D01*
X201153132Y-73010458D01*
X201487582Y-72934122D01*
X201828475Y-72895713D01*
X202171525Y-72895713D01*
X202512418Y-72934122D01*
G37*
G36*
X58337879Y-76056410D02*
G01*
X58555603Y-76127152D01*
X58759579Y-76231083D01*
X58944786Y-76365644D01*
X59106662Y-76527520D01*
X59241223Y-76712727D01*
X59345154Y-76916703D01*
X59415896Y-77134427D01*
X59451709Y-77360536D01*
X59451709Y-77589464D01*
X59415896Y-77815573D01*
X59345154Y-78033297D01*
X59241223Y-78237273D01*
X59106662Y-78422480D01*
X58944786Y-78584356D01*
X58759579Y-78718917D01*
X58555603Y-78822848D01*
X58337879Y-78893590D01*
X58111770Y-78929403D01*
X57882842Y-78929403D01*
X57656733Y-78893590D01*
X57439009Y-78822848D01*
X57235033Y-78718917D01*
X57049826Y-78584356D01*
X56887950Y-78422480D01*
X56753389Y-78237273D01*
X56649458Y-78033297D01*
X56578716Y-77815573D01*
X56542903Y-77589464D01*
X56542903Y-77360536D01*
X56578716Y-77134427D01*
X56649458Y-76916703D01*
X56753389Y-76712727D01*
X56887950Y-76527520D01*
X57049826Y-76365644D01*
X57235033Y-76231083D01*
X57439009Y-76127152D01*
X57656733Y-76056410D01*
X57882842Y-76020597D01*
X58111770Y-76020597D01*
X58337879Y-76056410D01*
G37*
G36*
X173131836Y-72544309D02*
G01*
X173466286Y-72620645D01*
X173790085Y-72733947D01*
X174099162Y-72882791D01*
X174389631Y-73065305D01*
X174657839Y-73279193D01*
X174900412Y-73521766D01*
X175114300Y-73789974D01*
X175296814Y-74080443D01*
X175445658Y-74389520D01*
X175558960Y-74713319D01*
X175635296Y-75047769D01*
X175673705Y-75388662D01*
X175673705Y-75731712D01*
X175635296Y-76072605D01*
X175558960Y-76407055D01*
X175445658Y-76730854D01*
X175296814Y-77039931D01*
X175114300Y-77330400D01*
X174900412Y-77598608D01*
X174657839Y-77841181D01*
X174389631Y-78055069D01*
X174099162Y-78237583D01*
X173790085Y-78386427D01*
X173466286Y-78499729D01*
X173131836Y-78576065D01*
X172790943Y-78614474D01*
X172447893Y-78614474D01*
X172107000Y-78576065D01*
X171772550Y-78499729D01*
X171448751Y-78386427D01*
X171139674Y-78237583D01*
X170849205Y-78055069D01*
X170580997Y-77841181D01*
X170338424Y-77598608D01*
X170124536Y-77330400D01*
X169942022Y-77039931D01*
X169793178Y-76730854D01*
X169679876Y-76407055D01*
X169603540Y-76072605D01*
X169565131Y-75731712D01*
X169565131Y-75388662D01*
X169603540Y-75047769D01*
X169679876Y-74713319D01*
X169793178Y-74389520D01*
X169942022Y-74080443D01*
X170124536Y-73789974D01*
X170338424Y-73521766D01*
X170580997Y-73279193D01*
X170849205Y-73065305D01*
X171139674Y-72882791D01*
X171448751Y-72733947D01*
X171772550Y-72620645D01*
X172107000Y-72544309D01*
X172447893Y-72505900D01*
X172790943Y-72505900D01*
X173131836Y-72544309D01*
G37*
G36*
X232072605Y-72364704D02*
G01*
X232407055Y-72441040D01*
X232730854Y-72554342D01*
X233039931Y-72703186D01*
X233330400Y-72885700D01*
X233598608Y-73099588D01*
X233841181Y-73342161D01*
X234055069Y-73610369D01*
X234237583Y-73900838D01*
X234386427Y-74209915D01*
X234499729Y-74533714D01*
X234576065Y-74868164D01*
X234614474Y-75209057D01*
X234614474Y-75552107D01*
X234576065Y-75893000D01*
X234499729Y-76227450D01*
X234386427Y-76551249D01*
X234237583Y-76860326D01*
X234055069Y-77150795D01*
X233841181Y-77419003D01*
X233598608Y-77661576D01*
X233330400Y-77875464D01*
X233039931Y-78057978D01*
X232730854Y-78206822D01*
X232407055Y-78320124D01*
X232072605Y-78396460D01*
X231731712Y-78434869D01*
X231388662Y-78434869D01*
X231047769Y-78396460D01*
X230713319Y-78320124D01*
X230389520Y-78206822D01*
X230080443Y-78057978D01*
X229789974Y-77875464D01*
X229521766Y-77661576D01*
X229279193Y-77419003D01*
X229065305Y-77150795D01*
X228882791Y-76860326D01*
X228733947Y-76551249D01*
X228620645Y-76227450D01*
X228544309Y-75893000D01*
X228505900Y-75552107D01*
X228505900Y-75209057D01*
X228544309Y-74868164D01*
X228620645Y-74533714D01*
X228733947Y-74209915D01*
X228882791Y-73900838D01*
X229065305Y-73610369D01*
X229279193Y-73342161D01*
X229521766Y-73099588D01*
X229789974Y-72885700D01*
X230080443Y-72703186D01*
X230389520Y-72554342D01*
X230713319Y-72441040D01*
X231047769Y-72364704D01*
X231388662Y-72326295D01*
X231731712Y-72326295D01*
X232072605Y-72364704D01*
G37*
G36*
X51913338Y-71485045D02*
G01*
X52085557Y-71556381D01*
X52240551Y-71659944D01*
X52372362Y-71791755D01*
X52475925Y-71946749D01*
X52547261Y-72118968D01*
X52583627Y-72301796D01*
X52583627Y-72488204D01*
X52547261Y-72671032D01*
X52475925Y-72843251D01*
X52372362Y-72998245D01*
X52240551Y-73130056D01*
X52085557Y-73233619D01*
X51913338Y-73304955D01*
X51730510Y-73341321D01*
X51544102Y-73341321D01*
X51361274Y-73304955D01*
X51189055Y-73233619D01*
X51034061Y-73130056D01*
X50902250Y-72998245D01*
X50798687Y-72843251D01*
X50727351Y-72671032D01*
X50690985Y-72488204D01*
X50690985Y-72301796D01*
X50727351Y-72118968D01*
X50798687Y-71946749D01*
X50902250Y-71791755D01*
X51034061Y-71659944D01*
X51189055Y-71556381D01*
X51361274Y-71485045D01*
X51544102Y-71448679D01*
X51730510Y-71448679D01*
X51913338Y-71485045D01*
G37*
G36*
X62073338Y-71485045D02*
G01*
X62245557Y-71556381D01*
X62400551Y-71659944D01*
X62532362Y-71791755D01*
X62635925Y-71946749D01*
X62707261Y-72118968D01*
X62743627Y-72301796D01*
X62743627Y-72488204D01*
X62707261Y-72671032D01*
X62635925Y-72843251D01*
X62532362Y-72998245D01*
X62400551Y-73130056D01*
X62245557Y-73233619D01*
X62073338Y-73304955D01*
X61890510Y-73341321D01*
X61704102Y-73341321D01*
X61521274Y-73304955D01*
X61349055Y-73233619D01*
X61194061Y-73130056D01*
X61062250Y-72998245D01*
X60958687Y-72843251D01*
X60887351Y-72671032D01*
X60850985Y-72488204D01*
X60850985Y-72301796D01*
X60887351Y-72118968D01*
X60958687Y-71946749D01*
X61062250Y-71791755D01*
X61194061Y-71659944D01*
X61349055Y-71556381D01*
X61521274Y-71485045D01*
X61704102Y-71448679D01*
X61890510Y-71448679D01*
X62073338Y-71485045D01*
G37*
G36*
X186512418Y-58984122D02*
G01*
X186846868Y-59060458D01*
X187170667Y-59173760D01*
X187479744Y-59322604D01*
X187770213Y-59505118D01*
X188038421Y-59719006D01*
X188280994Y-59961579D01*
X188494882Y-60229787D01*
X188677396Y-60520256D01*
X188826240Y-60829333D01*
X188939542Y-61153132D01*
X189015878Y-61487582D01*
X189054287Y-61828475D01*
X189054287Y-62171525D01*
X189015878Y-62512418D01*
X188939542Y-62846868D01*
X188826240Y-63170667D01*
X188677396Y-63479744D01*
X188494882Y-63770213D01*
X188280994Y-64038421D01*
X188038421Y-64280994D01*
X187770213Y-64494882D01*
X187479744Y-64677396D01*
X187170667Y-64826240D01*
X186846868Y-64939542D01*
X186512418Y-65015878D01*
X186171525Y-65054287D01*
X185828475Y-65054287D01*
X185487582Y-65015878D01*
X185153132Y-64939542D01*
X184829333Y-64826240D01*
X184520256Y-64677396D01*
X184229787Y-64494882D01*
X183961579Y-64280994D01*
X183719006Y-64038421D01*
X183505118Y-63770213D01*
X183322604Y-63479744D01*
X183173760Y-63170667D01*
X183060458Y-62846868D01*
X182984122Y-62512418D01*
X182945713Y-62171525D01*
X182945713Y-61828475D01*
X182984122Y-61487582D01*
X183060458Y-61153132D01*
X183173760Y-60829333D01*
X183322604Y-60520256D01*
X183505118Y-60229787D01*
X183719006Y-59961579D01*
X183961579Y-59719006D01*
X184229787Y-59505118D01*
X184520256Y-59322604D01*
X184829333Y-59173760D01*
X185153132Y-59060458D01*
X185487582Y-58984122D01*
X185828475Y-58945713D01*
X186171525Y-58945713D01*
X186512418Y-58984122D01*
G37*
G36*
X218512418Y-58984122D02*
G01*
X218846868Y-59060458D01*
X219170667Y-59173760D01*
X219479744Y-59322604D01*
X219770213Y-59505118D01*
X220038421Y-59719006D01*
X220280994Y-59961579D01*
X220494882Y-60229787D01*
X220677396Y-60520256D01*
X220826240Y-60829333D01*
X220939542Y-61153132D01*
X221015878Y-61487582D01*
X221054287Y-61828475D01*
X221054287Y-62171525D01*
X221015878Y-62512418D01*
X220939542Y-62846868D01*
X220826240Y-63170667D01*
X220677396Y-63479744D01*
X220494882Y-63770213D01*
X220280994Y-64038421D01*
X220038421Y-64280994D01*
X219770213Y-64494882D01*
X219479744Y-64677396D01*
X219170667Y-64826240D01*
X218846868Y-64939542D01*
X218512418Y-65015878D01*
X218171525Y-65054287D01*
X217828475Y-65054287D01*
X217487582Y-65015878D01*
X217153132Y-64939542D01*
X216829333Y-64826240D01*
X216520256Y-64677396D01*
X216229787Y-64494882D01*
X215961579Y-64280994D01*
X215719006Y-64038421D01*
X215505118Y-63770213D01*
X215322604Y-63479744D01*
X215173760Y-63170667D01*
X215060458Y-62846868D01*
X214984122Y-62512418D01*
X214945713Y-62171525D01*
X214945713Y-61828475D01*
X214984122Y-61487582D01*
X215060458Y-61153132D01*
X215173760Y-60829333D01*
X215322604Y-60520256D01*
X215505118Y-60229787D01*
X215719006Y-59961579D01*
X215961579Y-59719006D01*
X216229787Y-59505118D01*
X216520256Y-59322604D01*
X216829333Y-59173760D01*
X217153132Y-59060458D01*
X217487582Y-58984122D01*
X217828475Y-58945713D01*
X218171525Y-58945713D01*
X218512418Y-58984122D01*
G37*
G36*
X134462418Y-42984122D02*
G01*
X134796868Y-43060458D01*
X135120667Y-43173760D01*
X135429744Y-43322604D01*
X135720213Y-43505118D01*
X135988421Y-43719006D01*
X136230994Y-43961579D01*
X136444882Y-44229787D01*
X136627396Y-44520256D01*
X136776240Y-44829333D01*
X136889542Y-45153132D01*
X136965878Y-45487582D01*
X137004287Y-45828475D01*
X137004287Y-46171525D01*
X136965878Y-46512418D01*
X136889542Y-46846868D01*
X136776240Y-47170667D01*
X136627396Y-47479744D01*
X136444882Y-47770213D01*
X136230994Y-48038421D01*
X135988421Y-48280994D01*
X135720213Y-48494882D01*
X135429744Y-48677396D01*
X135120667Y-48826240D01*
X134796868Y-48939542D01*
X134462418Y-49015878D01*
X134121525Y-49054287D01*
X133778475Y-49054287D01*
X133437582Y-49015878D01*
X133103132Y-48939542D01*
X132779333Y-48826240D01*
X132470256Y-48677396D01*
X132179787Y-48494882D01*
X131911579Y-48280994D01*
X131669006Y-48038421D01*
X131455118Y-47770213D01*
X131272604Y-47479744D01*
X131123760Y-47170667D01*
X131010458Y-46846868D01*
X130934122Y-46512418D01*
X130895713Y-46171525D01*
X130895713Y-45828475D01*
X130934122Y-45487582D01*
X131010458Y-45153132D01*
X131123760Y-44829333D01*
X131272604Y-44520256D01*
X131455118Y-44229787D01*
X131669006Y-43961579D01*
X131911579Y-43719006D01*
X132179787Y-43505118D01*
X132470256Y-43322604D01*
X132779333Y-43173760D01*
X133103132Y-43060458D01*
X133437582Y-42984122D01*
X133778475Y-42945713D01*
X134121525Y-42945713D01*
X134462418Y-42984122D01*
G37*
G36*
X153512418Y-42857122D02*
G01*
X153846868Y-42933458D01*
X154170667Y-43046760D01*
X154479744Y-43195604D01*
X154770213Y-43378118D01*
X155038421Y-43592006D01*
X155280994Y-43834579D01*
X155494882Y-44102787D01*
X155677396Y-44393256D01*
X155826240Y-44702333D01*
X155939542Y-45026132D01*
X156015878Y-45360582D01*
X156054287Y-45701475D01*
X156054287Y-46044525D01*
X156015878Y-46385418D01*
X155939542Y-46719868D01*
X155826240Y-47043667D01*
X155677396Y-47352744D01*
X155494882Y-47643213D01*
X155280994Y-47911421D01*
X155038421Y-48153994D01*
X154770213Y-48367882D01*
X154479744Y-48550396D01*
X154170667Y-48699240D01*
X153846868Y-48812542D01*
X153512418Y-48888878D01*
X153171525Y-48927287D01*
X152828475Y-48927287D01*
X152487582Y-48888878D01*
X152153132Y-48812542D01*
X151829333Y-48699240D01*
X151520256Y-48550396D01*
X151229787Y-48367882D01*
X150961579Y-48153994D01*
X150719006Y-47911421D01*
X150505118Y-47643213D01*
X150322604Y-47352744D01*
X150173760Y-47043667D01*
X150060458Y-46719868D01*
X149984122Y-46385418D01*
X149945713Y-46044525D01*
X149945713Y-45701475D01*
X149984122Y-45360582D01*
X150060458Y-45026132D01*
X150173760Y-44702333D01*
X150322604Y-44393256D01*
X150505118Y-44102787D01*
X150719006Y-43834579D01*
X150961579Y-43592006D01*
X151229787Y-43378118D01*
X151520256Y-43195604D01*
X151829333Y-43046760D01*
X152153132Y-42933458D01*
X152487582Y-42857122D01*
X152828475Y-42818713D01*
X153171525Y-42818713D01*
X153512418Y-42857122D01*
G37*
G36*
X58315151Y-44687301D02*
G01*
X58516623Y-44752763D01*
X58705373Y-44848936D01*
X58876755Y-44973452D01*
X59026548Y-45123245D01*
X59151064Y-45294627D01*
X59247237Y-45483377D01*
X59312699Y-45684849D01*
X59345838Y-45894080D01*
X59345838Y-46105920D01*
X59312699Y-46315151D01*
X59247237Y-46516623D01*
X59151064Y-46705373D01*
X59026548Y-46876755D01*
X58876755Y-47026548D01*
X58705373Y-47151064D01*
X58516623Y-47247237D01*
X58315151Y-47312699D01*
X58105920Y-47345838D01*
X57894080Y-47345838D01*
X57684849Y-47312699D01*
X57483377Y-47247237D01*
X57294627Y-47151064D01*
X57123245Y-47026548D01*
X56973452Y-46876755D01*
X56848936Y-46705373D01*
X56752763Y-46516623D01*
X56687301Y-46315151D01*
X56654162Y-46105920D01*
X56654162Y-45894080D01*
X56687301Y-45684849D01*
X56752763Y-45483377D01*
X56848936Y-45294627D01*
X56973452Y-45123245D01*
X57123245Y-44973452D01*
X57294627Y-44848936D01*
X57483377Y-44752763D01*
X57684849Y-44687301D01*
X57894080Y-44654162D01*
X58105920Y-44654162D01*
X58315151Y-44687301D01*
G37*
G36*
X202315151Y-44687301D02*
G01*
X202516623Y-44752763D01*
X202705373Y-44848936D01*
X202876755Y-44973452D01*
X203026548Y-45123245D01*
X203151064Y-45294627D01*
X203247237Y-45483377D01*
X203312699Y-45684849D01*
X203345838Y-45894080D01*
X203345838Y-46105920D01*
X203312699Y-46315151D01*
X203247237Y-46516623D01*
X203151064Y-46705373D01*
X203026548Y-46876755D01*
X202876755Y-47026548D01*
X202705373Y-47151064D01*
X202516623Y-47247237D01*
X202315151Y-47312699D01*
X202105920Y-47345838D01*
X201894080Y-47345838D01*
X201684849Y-47312699D01*
X201483377Y-47247237D01*
X201294627Y-47151064D01*
X201123245Y-47026548D01*
X200973452Y-46876755D01*
X200848936Y-46705373D01*
X200752763Y-46516623D01*
X200687301Y-46315151D01*
X200654162Y-46105920D01*
X200654162Y-45894080D01*
X200687301Y-45684849D01*
X200752763Y-45483377D01*
X200848936Y-45294627D01*
X200973452Y-45123245D01*
X201123245Y-44973452D01*
X201294627Y-44848936D01*
X201483377Y-44752763D01*
X201684849Y-44687301D01*
X201894080Y-44654162D01*
X202105920Y-44654162D01*
X202315151Y-44687301D01*
G37*
G36*
X93911256Y-45138754D02*
G01*
X94074257Y-45206271D01*
X94220954Y-45304291D01*
X94345709Y-45429046D01*
X94443729Y-45575743D01*
X94511246Y-45738744D01*
X94545666Y-45911785D01*
X94545666Y-46088215D01*
X94511246Y-46261256D01*
X94443729Y-46424257D01*
X94345709Y-46570954D01*
X94220954Y-46695709D01*
X94074257Y-46793729D01*
X93911256Y-46861246D01*
X93738215Y-46895666D01*
X93561785Y-46895666D01*
X93388744Y-46861246D01*
X93225743Y-46793729D01*
X93079046Y-46695709D01*
X92954291Y-46570954D01*
X92856271Y-46424257D01*
X92788754Y-46261256D01*
X92754334Y-46088215D01*
X92754334Y-45911785D01*
X92788754Y-45738744D01*
X92856271Y-45575743D01*
X92954291Y-45429046D01*
X93079046Y-45304291D01*
X93225743Y-45206271D01*
X93388744Y-45138754D01*
X93561785Y-45104334D01*
X93738215Y-45104334D01*
X93911256Y-45138754D01*
G37*
G36*
X106611256Y-45138754D02*
G01*
X106774257Y-45206271D01*
X106920954Y-45304291D01*
X107045709Y-45429046D01*
X107143729Y-45575743D01*
X107211246Y-45738744D01*
X107245666Y-45911785D01*
X107245666Y-46088215D01*
X107211246Y-46261256D01*
X107143729Y-46424257D01*
X107045709Y-46570954D01*
X106920954Y-46695709D01*
X106774257Y-46793729D01*
X106611256Y-46861246D01*
X106438215Y-46895666D01*
X106261785Y-46895666D01*
X106088744Y-46861246D01*
X105925743Y-46793729D01*
X105779046Y-46695709D01*
X105654291Y-46570954D01*
X105556271Y-46424257D01*
X105488754Y-46261256D01*
X105454334Y-46088215D01*
X105454334Y-45911785D01*
X105488754Y-45738744D01*
X105556271Y-45575743D01*
X105654291Y-45429046D01*
X105779046Y-45304291D01*
X105925743Y-45206271D01*
X106088744Y-45138754D01*
X106261785Y-45104334D01*
X106438215Y-45104334D01*
X106611256Y-45138754D01*
G37*
G36*
X48331654Y-29332665D02*
G01*
X48546447Y-29390219D01*
X48751891Y-29475316D01*
X48944469Y-29586502D01*
X49120888Y-29721872D01*
X49278128Y-29879112D01*
X49413498Y-30055531D01*
X49524684Y-30248109D01*
X49609781Y-30453553D01*
X49667335Y-30668346D01*
X49696360Y-30888815D01*
X49696360Y-31111185D01*
X49667335Y-31331654D01*
X49609781Y-31546447D01*
X49524684Y-31751891D01*
X49413498Y-31944469D01*
X49278128Y-32120888D01*
X49120888Y-32278128D01*
X48944469Y-32413498D01*
X48751891Y-32524684D01*
X48546447Y-32609781D01*
X48331654Y-32667335D01*
X48111185Y-32696360D01*
X47888815Y-32696360D01*
X47668346Y-32667335D01*
X47453553Y-32609781D01*
X47248109Y-32524684D01*
X47055531Y-32413498D01*
X46879112Y-32278128D01*
X46721872Y-32120888D01*
X46586502Y-31944469D01*
X46475316Y-31751891D01*
X46390219Y-31546447D01*
X46332665Y-31331654D01*
X46303640Y-31111185D01*
X46303640Y-30888815D01*
X46332665Y-30668346D01*
X46390219Y-30453553D01*
X46475316Y-30248109D01*
X46586502Y-30055531D01*
X46721872Y-29879112D01*
X46879112Y-29721872D01*
X47055531Y-29586502D01*
X47248109Y-29475316D01*
X47453553Y-29390219D01*
X47668346Y-29332665D01*
X47888815Y-29303640D01*
X48111185Y-29303640D01*
X48331654Y-29332665D01*
G37*
G36*
X240331654Y-29332665D02*
G01*
X240546447Y-29390219D01*
X240751891Y-29475316D01*
X240944469Y-29586502D01*
X241120888Y-29721872D01*
X241278128Y-29879112D01*
X241413498Y-30055531D01*
X241524684Y-30248109D01*
X241609781Y-30453553D01*
X241667335Y-30668346D01*
X241696360Y-30888815D01*
X241696360Y-31111185D01*
X241667335Y-31331654D01*
X241609781Y-31546447D01*
X241524684Y-31751891D01*
X241413498Y-31944469D01*
X241278128Y-32120888D01*
X241120888Y-32278128D01*
X240944469Y-32413498D01*
X240751891Y-32524684D01*
X240546447Y-32609781D01*
X240331654Y-32667335D01*
X240111185Y-32696360D01*
X239888815Y-32696360D01*
X239668346Y-32667335D01*
X239453553Y-32609781D01*
X239248109Y-32524684D01*
X239055531Y-32413498D01*
X238879112Y-32278128D01*
X238721872Y-32120888D01*
X238586502Y-31944469D01*
X238475316Y-31751891D01*
X238390219Y-31546447D01*
X238332665Y-31331654D01*
X238303640Y-31111185D01*
X238303640Y-30888815D01*
X238332665Y-30668346D01*
X238390219Y-30453553D01*
X238475316Y-30248109D01*
X238586502Y-30055531D01*
X238721872Y-29879112D01*
X238879112Y-29721872D01*
X239055531Y-29586502D01*
X239248109Y-29475316D01*
X239453553Y-29390219D01*
X239668346Y-29332665D01*
X239888815Y-29303640D01*
X240111185Y-29303640D01*
X240331654Y-29332665D01*
G37*
M02*
