ISO-10303-21;
HEADER;
/* Generated by software containing ST-Developer
 * from STEP Tools, Inc. (www.steptools.com) 
 */

FILE_DESCRIPTION(
/* description */ (''),
/* implementation_level */ '2;1');

FILE_NAME(
/* name */ 'SSF-LXHM250GGD.stp',
/* time_stamp */ '2026-07-27T21:47:26-05:00',
/* author */ ('tapen'),
/* organization */ ('Lumex Opto/Components Inc.'),
/* preprocessor_version */ 'ST-DEVELOPER v20',
/* originating_system */ 'Autodesk Inventor 2025',
/* authorisation */ '');

FILE_SCHEMA (('AUTOMOTIVE_DESIGN { 1 0 10303 214 3 1 1 }'));
ENDSEC;

DATA;
#10=MECHANICAL_DESIGN_GEOMETRIC_PRESENTATION_REPRESENTATION('',(#22,#23,
#24,#25,#26,#27,#28,#29,#30,#31,#32,#33),#592);
#11=SHAPE_REPRESENTATION_RELATIONSHIP('SRR','None',#599,#12);
#12=ADVANCED_BREP_SHAPE_REPRESENTATION('',(#13),#591);
#13=MANIFOLD_SOLID_BREP('Solid1',#309);
#14=FACE_BOUND('',#77,.T.);
#15=FACE_BOUND('',#78,.T.);
#16=FACE_BOUND('',#83,.T.);
#17=FACE_BOUND('',#84,.T.);
#18=FACE_BOUND('',#85,.T.);
#19=FACE_BOUND('',#86,.T.);
#20=(
BOUNDED_SURFACE()
B_SPLINE_SURFACE(2,2,((#491,#492,#493,#494,#495,#496,#497,#498,#499),(#500,
#501,#502,#503,#504,#505,#506,#507,#508),(#509,#510,#511,#512,#513,#514,
#515,#516,#517)),.UNSPECIFIED.,.F.,.T.,.F.)
B_SPLINE_SURFACE_WITH_KNOTS((3,3),(3,2,2,2,3),(-2.74484129129311E-16,1.50896036766881),
(-3.14159265358979,-1.5707963267949,0.,1.5707963267949,3.14159265358979),
 .UNSPECIFIED.)
GEOMETRIC_REPRESENTATION_ITEM()
RATIONAL_B_SPLINE_SURFACE(((1.,0.707106781186548,1.,0.707106781186548,1.,
0.707106781186548,1.,0.707106781186548,1.),(0.728627668902008,0.515217565640756,
0.728627668902008,0.515217565640756,0.728627668902008,0.515217565640756,
0.728627668902008,0.515217565640756,0.728627668902008),(1.,0.707106781186548,
1.,0.707106781186548,1.,0.707106781186548,1.,0.707106781186548,1.)))
REPRESENTATION_ITEM('')
SURFACE()
);
#21=(
BOUNDED_SURFACE()
B_SPLINE_SURFACE(2,2,((#528,#529,#530,#531,#532,#533,#534,#535,#536),(#537,
#538,#539,#540,#541,#542,#543,#544,#545),(#546,#547,#548,#549,#550,#551,
#552,#553,#554)),.UNSPECIFIED.,.F.,.T.,.F.)
B_SPLINE_SURFACE_WITH_KNOTS((3,3),(3,2,2,2,3),(-2.74484129129311E-16,1.50896036766881),
(-3.14159265358979,-1.5707963267949,0.,1.5707963267949,3.14159265358979),
 .UNSPECIFIED.)
GEOMETRIC_REPRESENTATION_ITEM()
RATIONAL_B_SPLINE_SURFACE(((1.,0.707106781186548,1.,0.707106781186548,1.,
0.707106781186548,1.,0.707106781186548,1.),(0.728627668902008,0.515217565640756,
0.728627668902008,0.515217565640756,0.728627668902008,0.515217565640756,
0.728627668902008,0.515217565640756,0.728627668902008),(1.,0.707106781186548,
1.,0.707106781186548,1.,0.707106781186548,1.,0.707106781186548,1.)))
REPRESENTATION_ITEM('')
SURFACE()
);
#22=STYLED_ITEM('',(#609),#298);
#23=STYLED_ITEM('',(#609),#299);
#24=STYLED_ITEM('',(#609),#300);
#25=STYLED_ITEM('',(#609),#301);
#26=STYLED_ITEM('',(#610),#302);
#27=STYLED_ITEM('',(#610),#303);
#28=STYLED_ITEM('',(#610),#304);
#29=STYLED_ITEM('',(#610),#305);
#30=STYLED_ITEM('',(#610),#306);
#31=STYLED_ITEM('',(#610),#307);
#32=STYLED_ITEM('',(#610),#308);
#33=STYLED_ITEM('',(#608),#13);
#34=PLANE('',#335);
#35=PLANE('',#339);
#36=PLANE('',#343);
#37=PLANE('',#347);
#38=PLANE('',#358);
#39=PLANE('',#359);
#40=PLANE('',#360);
#41=PLANE('',#361);
#42=PLANE('',#362);
#43=PLANE('',#363);
#44=PLANE('',#364);
#45=FACE_OUTER_BOUND('',#64,.T.);
#46=FACE_OUTER_BOUND('',#65,.T.);
#47=FACE_OUTER_BOUND('',#66,.T.);
#48=FACE_OUTER_BOUND('',#67,.T.);
#49=FACE_OUTER_BOUND('',#68,.T.);
#50=FACE_OUTER_BOUND('',#69,.T.);
#51=FACE_OUTER_BOUND('',#70,.T.);
#52=FACE_OUTER_BOUND('',#71,.T.);
#53=FACE_OUTER_BOUND('',#72,.T.);
#54=FACE_OUTER_BOUND('',#73,.T.);
#55=FACE_OUTER_BOUND('',#74,.T.);
#56=FACE_OUTER_BOUND('',#75,.T.);
#57=FACE_OUTER_BOUND('',#76,.T.);
#58=FACE_OUTER_BOUND('',#79,.T.);
#59=FACE_OUTER_BOUND('',#80,.T.);
#60=FACE_OUTER_BOUND('',#81,.T.);
#61=FACE_OUTER_BOUND('',#82,.T.);
#62=FACE_OUTER_BOUND('',#87,.T.);
#63=FACE_OUTER_BOUND('',#88,.T.);
#64=EDGE_LOOP('',(#210,#211,#212,#213));
#65=EDGE_LOOP('',(#214));
#66=EDGE_LOOP('',(#215,#216,#217,#218));
#67=EDGE_LOOP('',(#219));
#68=EDGE_LOOP('',(#220,#221,#222,#223));
#69=EDGE_LOOP('',(#224));
#70=EDGE_LOOP('',(#225,#226,#227,#228));
#71=EDGE_LOOP('',(#229));
#72=EDGE_LOOP('',(#230,#231,#232,#233,#234));
#73=EDGE_LOOP('',(#235,#236,#237,#238));
#74=EDGE_LOOP('',(#239,#240,#241,#242,#243));
#75=EDGE_LOOP('',(#244,#245,#246,#247));
#76=EDGE_LOOP('',(#248,#249,#250,#251));
#77=EDGE_LOOP('',(#252));
#78=EDGE_LOOP('',(#253));
#79=EDGE_LOOP('',(#254,#255,#256,#257));
#80=EDGE_LOOP('',(#258,#259,#260,#261));
#81=EDGE_LOOP('',(#262,#263,#264,#265));
#82=EDGE_LOOP('',(#266,#267,#268,#269));
#83=EDGE_LOOP('',(#270));
#84=EDGE_LOOP('',(#271));
#85=EDGE_LOOP('',(#272));
#86=EDGE_LOOP('',(#273));
#87=EDGE_LOOP('',(#274,#275,#276,#277,#278));
#88=EDGE_LOOP('',(#279,#280,#281,#282,#283));
#89=LINE('',#459,#110);
#90=LINE('',#466,#111);
#91=LINE('',#473,#112);
#92=LINE('',#480,#113);
#93=LINE('',#489,#114);
#94=LINE('',#525,#115);
#95=LINE('',#560,#116);
#96=LINE('',#562,#117);
#97=LINE('',#564,#118);
#98=LINE('',#565,#119);
#99=LINE('',#568,#120);
#100=LINE('',#570,#121);
#101=LINE('',#571,#122);
#102=LINE('',#574,#123);
#103=LINE('',#576,#124);
#104=LINE('',#577,#125);
#105=LINE('',#580,#126);
#106=LINE('',#582,#127);
#107=LINE('',#583,#128);
#108=LINE('',#585,#129);
#109=LINE('',#586,#130);
#110=VECTOR('',#371,0.25);
#111=VECTOR('',#380,0.25);
#112=VECTOR('',#389,0.25);
#113=VECTOR('',#398,0.25);
#114=VECTOR('',#409,2.35);
#115=VECTOR('',#418,2.35);
#116=VECTOR('',#427,10.);
#117=VECTOR('',#428,10.);
#118=VECTOR('',#429,10.);
#119=VECTOR('',#430,10.);
#120=VECTOR('',#433,10.);
#121=VECTOR('',#434,10.);
#122=VECTOR('',#435,10.);
#123=VECTOR('',#438,10.);
#124=VECTOR('',#439,10.);
#125=VECTOR('',#440,10.);
#126=VECTOR('',#443,10.);
#127=VECTOR('',#444,10.);
#128=VECTOR('',#445,10.);
#129=VECTOR('',#448,10.);
#130=VECTOR('',#449,10.);
#131=CIRCLE('',#333,0.25);
#132=CIRCLE('',#334,0.25);
#133=CIRCLE('',#337,0.25);
#134=CIRCLE('',#338,0.25);
#135=CIRCLE('',#341,0.25);
#136=CIRCLE('',#342,0.25);
#137=CIRCLE('',#345,0.25);
#138=CIRCLE('',#346,0.25);
#139=CIRCLE('',#349,2.35);
#140=CIRCLE('',#350,2.35);
#141=CIRCLE('',#351,2.35);
#142=CIRCLE('',#352,2.50478723404255);
#143=CIRCLE('',#354,2.35);
#144=CIRCLE('',#355,2.35);
#145=CIRCLE('',#356,2.35);
#146=CIRCLE('',#357,2.50478723404255);
#147=VERTEX_POINT('',#456);
#148=VERTEX_POINT('',#458);
#149=VERTEX_POINT('',#463);
#150=VERTEX_POINT('',#465);
#151=VERTEX_POINT('',#470);
#152=VERTEX_POINT('',#472);
#153=VERTEX_POINT('',#477);
#154=VERTEX_POINT('',#479);
#155=VERTEX_POINT('',#484);
#156=VERTEX_POINT('',#485);
#157=VERTEX_POINT('',#488);
#158=VERTEX_POINT('',#518);
#159=VERTEX_POINT('',#521);
#160=VERTEX_POINT('',#522);
#161=VERTEX_POINT('',#524);
#162=VERTEX_POINT('',#555);
#163=VERTEX_POINT('',#558);
#164=VERTEX_POINT('',#559);
#165=VERTEX_POINT('',#561);
#166=VERTEX_POINT('',#563);
#167=VERTEX_POINT('',#567);
#168=VERTEX_POINT('',#569);
#169=VERTEX_POINT('',#573);
#170=VERTEX_POINT('',#575);
#171=VERTEX_POINT('',#579);
#172=VERTEX_POINT('',#581);
#173=EDGE_CURVE('',#147,#147,#131,.T.);
#174=EDGE_CURVE('',#147,#148,#89,.T.);
#175=EDGE_CURVE('',#148,#148,#132,.T.);
#176=EDGE_CURVE('',#149,#149,#133,.T.);
#177=EDGE_CURVE('',#149,#150,#90,.T.);
#178=EDGE_CURVE('',#150,#150,#134,.T.);
#179=EDGE_CURVE('',#151,#151,#135,.T.);
#180=EDGE_CURVE('',#151,#152,#91,.T.);
#181=EDGE_CURVE('',#152,#152,#136,.T.);
#182=EDGE_CURVE('',#153,#153,#137,.T.);
#183=EDGE_CURVE('',#153,#154,#92,.T.);
#184=EDGE_CURVE('',#154,#154,#138,.T.);
#185=EDGE_CURVE('',#155,#156,#139,.T.);
#186=EDGE_CURVE('',#156,#155,#140,.T.);
#187=EDGE_CURVE('',#155,#157,#93,.T.);
#188=EDGE_CURVE('',#157,#157,#141,.T.);
#189=EDGE_CURVE('',#158,#156,#142,.T.);
#190=EDGE_CURVE('',#159,#160,#143,.T.);
#191=EDGE_CURVE('',#159,#161,#94,.T.);
#192=EDGE_CURVE('',#161,#161,#144,.T.);
#193=EDGE_CURVE('',#160,#159,#145,.T.);
#194=EDGE_CURVE('',#162,#160,#146,.T.);
#195=EDGE_CURVE('',#163,#164,#95,.T.);
#196=EDGE_CURVE('',#164,#165,#96,.T.);
#197=EDGE_CURVE('',#166,#165,#97,.T.);
#198=EDGE_CURVE('',#163,#166,#98,.T.);
#199=EDGE_CURVE('',#167,#163,#99,.T.);
#200=EDGE_CURVE('',#168,#166,#100,.T.);
#201=EDGE_CURVE('',#167,#168,#101,.T.);
#202=EDGE_CURVE('',#169,#167,#102,.T.);
#203=EDGE_CURVE('',#170,#168,#103,.T.);
#204=EDGE_CURVE('',#169,#170,#104,.T.);
#205=EDGE_CURVE('',#171,#169,#105,.T.);
#206=EDGE_CURVE('',#172,#170,#106,.T.);
#207=EDGE_CURVE('',#171,#172,#107,.T.);
#208=EDGE_CURVE('',#164,#171,#108,.T.);
#209=EDGE_CURVE('',#165,#172,#109,.T.);
#210=ORIENTED_EDGE('',*,*,#173,.F.);
#211=ORIENTED_EDGE('',*,*,#174,.T.);
#212=ORIENTED_EDGE('',*,*,#175,.F.);
#213=ORIENTED_EDGE('',*,*,#174,.F.);
#214=ORIENTED_EDGE('',*,*,#173,.T.);
#215=ORIENTED_EDGE('',*,*,#176,.F.);
#216=ORIENTED_EDGE('',*,*,#177,.T.);
#217=ORIENTED_EDGE('',*,*,#178,.F.);
#218=ORIENTED_EDGE('',*,*,#177,.F.);
#219=ORIENTED_EDGE('',*,*,#176,.T.);
#220=ORIENTED_EDGE('',*,*,#179,.F.);
#221=ORIENTED_EDGE('',*,*,#180,.T.);
#222=ORIENTED_EDGE('',*,*,#181,.F.);
#223=ORIENTED_EDGE('',*,*,#180,.F.);
#224=ORIENTED_EDGE('',*,*,#179,.T.);
#225=ORIENTED_EDGE('',*,*,#182,.F.);
#226=ORIENTED_EDGE('',*,*,#183,.T.);
#227=ORIENTED_EDGE('',*,*,#184,.F.);
#228=ORIENTED_EDGE('',*,*,#183,.F.);
#229=ORIENTED_EDGE('',*,*,#182,.T.);
#230=ORIENTED_EDGE('',*,*,#185,.T.);
#231=ORIENTED_EDGE('',*,*,#186,.T.);
#232=ORIENTED_EDGE('',*,*,#187,.T.);
#233=ORIENTED_EDGE('',*,*,#188,.F.);
#234=ORIENTED_EDGE('',*,*,#187,.F.);
#235=ORIENTED_EDGE('',*,*,#189,.T.);
#236=ORIENTED_EDGE('',*,*,#185,.F.);
#237=ORIENTED_EDGE('',*,*,#186,.F.);
#238=ORIENTED_EDGE('',*,*,#189,.F.);
#239=ORIENTED_EDGE('',*,*,#190,.F.);
#240=ORIENTED_EDGE('',*,*,#191,.T.);
#241=ORIENTED_EDGE('',*,*,#192,.F.);
#242=ORIENTED_EDGE('',*,*,#191,.F.);
#243=ORIENTED_EDGE('',*,*,#193,.F.);
#244=ORIENTED_EDGE('',*,*,#194,.T.);
#245=ORIENTED_EDGE('',*,*,#193,.T.);
#246=ORIENTED_EDGE('',*,*,#190,.T.);
#247=ORIENTED_EDGE('',*,*,#194,.F.);
#248=ORIENTED_EDGE('',*,*,#195,.T.);
#249=ORIENTED_EDGE('',*,*,#196,.T.);
#250=ORIENTED_EDGE('',*,*,#197,.F.);
#251=ORIENTED_EDGE('',*,*,#198,.F.);
#252=ORIENTED_EDGE('',*,*,#188,.T.);
#253=ORIENTED_EDGE('',*,*,#192,.T.);
#254=ORIENTED_EDGE('',*,*,#199,.T.);
#255=ORIENTED_EDGE('',*,*,#198,.T.);
#256=ORIENTED_EDGE('',*,*,#200,.F.);
#257=ORIENTED_EDGE('',*,*,#201,.F.);
#258=ORIENTED_EDGE('',*,*,#202,.T.);
#259=ORIENTED_EDGE('',*,*,#201,.T.);
#260=ORIENTED_EDGE('',*,*,#203,.F.);
#261=ORIENTED_EDGE('',*,*,#204,.F.);
#262=ORIENTED_EDGE('',*,*,#205,.T.);
#263=ORIENTED_EDGE('',*,*,#204,.T.);
#264=ORIENTED_EDGE('',*,*,#206,.F.);
#265=ORIENTED_EDGE('',*,*,#207,.F.);
#266=ORIENTED_EDGE('',*,*,#208,.T.);
#267=ORIENTED_EDGE('',*,*,#207,.T.);
#268=ORIENTED_EDGE('',*,*,#209,.F.);
#269=ORIENTED_EDGE('',*,*,#196,.F.);
#270=ORIENTED_EDGE('',*,*,#175,.T.);
#271=ORIENTED_EDGE('',*,*,#178,.T.);
#272=ORIENTED_EDGE('',*,*,#181,.T.);
#273=ORIENTED_EDGE('',*,*,#184,.T.);
#274=ORIENTED_EDGE('',*,*,#209,.T.);
#275=ORIENTED_EDGE('',*,*,#206,.T.);
#276=ORIENTED_EDGE('',*,*,#203,.T.);
#277=ORIENTED_EDGE('',*,*,#200,.T.);
#278=ORIENTED_EDGE('',*,*,#197,.T.);
#279=ORIENTED_EDGE('',*,*,#208,.F.);
#280=ORIENTED_EDGE('',*,*,#195,.F.);
#281=ORIENTED_EDGE('',*,*,#199,.F.);
#282=ORIENTED_EDGE('',*,*,#202,.F.);
#283=ORIENTED_EDGE('',*,*,#205,.F.);
#284=CYLINDRICAL_SURFACE('',#332,0.25);
#285=CYLINDRICAL_SURFACE('',#336,0.25);
#286=CYLINDRICAL_SURFACE('',#340,0.25);
#287=CYLINDRICAL_SURFACE('',#344,0.25);
#288=CYLINDRICAL_SURFACE('',#348,2.35);
#289=CYLINDRICAL_SURFACE('',#353,2.35);
#290=ADVANCED_FACE('',(#45),#284,.T.);
#291=ADVANCED_FACE('',(#46),#34,.T.);
#292=ADVANCED_FACE('',(#47),#285,.T.);
#293=ADVANCED_FACE('',(#48),#35,.T.);
#294=ADVANCED_FACE('',(#49),#286,.T.);
#295=ADVANCED_FACE('',(#50),#36,.T.);
#296=ADVANCED_FACE('',(#51),#287,.T.);
#297=ADVANCED_FACE('',(#52),#37,.T.);
#298=ADVANCED_FACE('',(#53),#288,.T.);
#299=ADVANCED_FACE('',(#54),#20,.T.);
#300=ADVANCED_FACE('',(#55),#289,.T.);
#301=ADVANCED_FACE('',(#56),#21,.F.);
#302=ADVANCED_FACE('',(#57,#14,#15),#38,.T.);
#303=ADVANCED_FACE('',(#58),#39,.T.);
#304=ADVANCED_FACE('',(#59),#40,.T.);
#305=ADVANCED_FACE('',(#60),#41,.T.);
#306=ADVANCED_FACE('',(#61,#16,#17,#18,#19),#42,.T.);
#307=ADVANCED_FACE('',(#62),#43,.T.);
#308=ADVANCED_FACE('',(#63),#44,.F.);
#309=CLOSED_SHELL('',(#290,#291,#292,#293,#294,#295,#296,#297,#298,#299,
#300,#301,#302,#303,#304,#305,#306,#307,#308));
#310=DERIVED_UNIT_ELEMENT(#313,1.);
#311=DERIVED_UNIT_ELEMENT(#594,-3.);
#312=DIMENSIONAL_EXPONENTS(0.,1.,0.,0.,0.,0.,0.);
#313=(
CONVERSION_BASED_UNIT('gram',#315)
MASS_UNIT()
NAMED_UNIT(#312)
);
#314=(
MASS_UNIT()
NAMED_UNIT(*)
SI_UNIT(.KILO.,.GRAM.)
);
#315=MASS_MEASURE_WITH_UNIT(MASS_MEASURE(0.001),#314);
#316=DERIVED_UNIT((#310,#311));
#317=MEASURE_REPRESENTATION_ITEM('density measure',
POSITIVE_RATIO_MEASURE(1.),#316);
#318=PROPERTY_DEFINITION_REPRESENTATION(#323,#320);
#319=PROPERTY_DEFINITION_REPRESENTATION(#324,#321);
#320=REPRESENTATION('material name',(#322),#591);
#321=REPRESENTATION('density',(#317),#591);
#322=DESCRIPTIVE_REPRESENTATION_ITEM('Generic','Generic');
#323=PROPERTY_DEFINITION('material property','material name',#601);
#324=PROPERTY_DEFINITION('material property','density of part',#601);
#325=DATE_TIME_ROLE('creation_date');
#326=APPLIED_DATE_AND_TIME_ASSIGNMENT(#327,#325,(#601));
#327=DATE_AND_TIME(#328,#329);
#328=CALENDAR_DATE(2026,27,7);
#329=LOCAL_TIME(0,0,0.,#330);
#330=COORDINATED_UNIVERSAL_TIME_OFFSET(0,0,.BEHIND.);
#331=AXIS2_PLACEMENT_3D('',#454,#365,#366);
#332=AXIS2_PLACEMENT_3D('',#455,#367,#368);
#333=AXIS2_PLACEMENT_3D('',#457,#369,#370);
#334=AXIS2_PLACEMENT_3D('',#460,#372,#373);
#335=AXIS2_PLACEMENT_3D('',#461,#374,#375);
#336=AXIS2_PLACEMENT_3D('',#462,#376,#377);
#337=AXIS2_PLACEMENT_3D('',#464,#378,#379);
#338=AXIS2_PLACEMENT_3D('',#467,#381,#382);
#339=AXIS2_PLACEMENT_3D('',#468,#383,#384);
#340=AXIS2_PLACEMENT_3D('',#469,#385,#386);
#341=AXIS2_PLACEMENT_3D('',#471,#387,#388);
#342=AXIS2_PLACEMENT_3D('',#474,#390,#391);
#343=AXIS2_PLACEMENT_3D('',#475,#392,#393);
#344=AXIS2_PLACEMENT_3D('',#476,#394,#395);
#345=AXIS2_PLACEMENT_3D('',#478,#396,#397);
#346=AXIS2_PLACEMENT_3D('',#481,#399,#400);
#347=AXIS2_PLACEMENT_3D('',#482,#401,#402);
#348=AXIS2_PLACEMENT_3D('',#483,#403,#404);
#349=AXIS2_PLACEMENT_3D('',#486,#405,#406);
#350=AXIS2_PLACEMENT_3D('',#487,#407,#408);
#351=AXIS2_PLACEMENT_3D('',#490,#410,#411);
#352=AXIS2_PLACEMENT_3D('',#519,#412,#413);
#353=AXIS2_PLACEMENT_3D('',#520,#414,#415);
#354=AXIS2_PLACEMENT_3D('',#523,#416,#417);
#355=AXIS2_PLACEMENT_3D('',#526,#419,#420);
#356=AXIS2_PLACEMENT_3D('',#527,#421,#422);
#357=AXIS2_PLACEMENT_3D('',#556,#423,#424);
#358=AXIS2_PLACEMENT_3D('',#557,#425,#426);
#359=AXIS2_PLACEMENT_3D('',#566,#431,#432);
#360=AXIS2_PLACEMENT_3D('',#572,#436,#437);
#361=AXIS2_PLACEMENT_3D('',#578,#441,#442);
#362=AXIS2_PLACEMENT_3D('',#584,#446,#447);
#363=AXIS2_PLACEMENT_3D('',#587,#450,#451);
#364=AXIS2_PLACEMENT_3D('',#588,#452,#453);
#365=DIRECTION('axis',(0.,0.,1.));
#366=DIRECTION('refdir',(1.,0.,0.));
#367=DIRECTION('center_axis',(0.,-1.,0.));
#368=DIRECTION('ref_axis',(1.,0.,0.));
#369=DIRECTION('center_axis',(0.,-1.,0.));
#370=DIRECTION('ref_axis',(1.,0.,0.));
#371=DIRECTION('',(0.,1.,0.));
#372=DIRECTION('center_axis',(0.,1.,0.));
#373=DIRECTION('ref_axis',(1.,0.,0.));
#374=DIRECTION('center_axis',(0.,-1.,0.));
#375=DIRECTION('ref_axis',(0.,0.,-1.));
#376=DIRECTION('center_axis',(0.,-1.,0.));
#377=DIRECTION('ref_axis',(1.,0.,0.));
#378=DIRECTION('center_axis',(0.,-1.,0.));
#379=DIRECTION('ref_axis',(1.,0.,0.));
#380=DIRECTION('',(0.,1.,0.));
#381=DIRECTION('center_axis',(0.,1.,0.));
#382=DIRECTION('ref_axis',(1.,0.,0.));
#383=DIRECTION('center_axis',(0.,-1.,0.));
#384=DIRECTION('ref_axis',(0.,0.,-1.));
#385=DIRECTION('center_axis',(0.,-1.,0.));
#386=DIRECTION('ref_axis',(1.,0.,0.));
#387=DIRECTION('center_axis',(0.,-1.,0.));
#388=DIRECTION('ref_axis',(1.,0.,0.));
#389=DIRECTION('',(0.,1.,0.));
#390=DIRECTION('center_axis',(0.,1.,0.));
#391=DIRECTION('ref_axis',(1.,0.,0.));
#392=DIRECTION('center_axis',(0.,-1.,0.));
#393=DIRECTION('ref_axis',(0.,0.,-1.));
#394=DIRECTION('center_axis',(0.,-1.,0.));
#395=DIRECTION('ref_axis',(1.,0.,0.));
#396=DIRECTION('center_axis',(0.,-1.,0.));
#397=DIRECTION('ref_axis',(1.,0.,0.));
#398=DIRECTION('',(0.,1.,0.));
#399=DIRECTION('center_axis',(0.,1.,0.));
#400=DIRECTION('ref_axis',(1.,0.,0.));
#401=DIRECTION('center_axis',(0.,-1.,0.));
#402=DIRECTION('ref_axis',(0.,0.,-1.));
#403=DIRECTION('center_axis',(1.,-2.46716227694479E-16,0.));
#404=DIRECTION('ref_axis',(-2.46716227694479E-16,-1.,0.));
#405=DIRECTION('center_axis',(1.,-2.46716227694479E-16,0.));
#406=DIRECTION('ref_axis',(0.,0.,1.));
#407=DIRECTION('center_axis',(1.,-2.46716227694479E-16,0.));
#408=DIRECTION('ref_axis',(0.,0.,1.));
#409=DIRECTION('',(1.,-2.46716227694479E-16,0.));
#410=DIRECTION('center_axis',(1.,0.,0.));
#411=DIRECTION('ref_axis',(-2.46716227694479E-16,-1.,0.));
#412=DIRECTION('center_axis',(-2.46716227694479E-16,-1.,-2.36217664813863E-16));
#413=DIRECTION('ref_axis',(0.,2.36217664813863E-16,-1.));
#414=DIRECTION('center_axis',(-1.,-2.46716227694479E-16,0.));
#415=DIRECTION('ref_axis',(-2.46716227694479E-16,1.,0.));
#416=DIRECTION('center_axis',(-1.,-2.46716227694479E-16,0.));
#417=DIRECTION('ref_axis',(0.,0.,1.));
#418=DIRECTION('',(1.,2.46716227694479E-16,0.));
#419=DIRECTION('center_axis',(1.,0.,0.));
#420=DIRECTION('ref_axis',(-2.46716227694479E-16,1.,0.));
#421=DIRECTION('center_axis',(-1.,-2.46716227694479E-16,0.));
#422=DIRECTION('ref_axis',(0.,0.,1.));
#423=DIRECTION('center_axis',(2.46716227694479E-16,-1.,0.));
#424=DIRECTION('ref_axis',(0.,0.,-1.));
#425=DIRECTION('center_axis',(-1.,0.,0.));
#426=DIRECTION('ref_axis',(0.,-1.,0.));
#427=DIRECTION('',(0.,-1.,0.));
#428=DIRECTION('',(0.,0.,1.));
#429=DIRECTION('',(0.,-1.,0.));
#430=DIRECTION('',(0.,0.,1.));
#431=DIRECTION('center_axis',(0.,1.,0.));
#432=DIRECTION('ref_axis',(-1.,0.,0.));
#433=DIRECTION('',(-1.,0.,0.));
#434=DIRECTION('',(-1.,0.,0.));
#435=DIRECTION('',(0.,0.,1.));
#436=DIRECTION('center_axis',(0.753772729907784,0.657135200432427,0.));
#437=DIRECTION('ref_axis',(-0.657135200432427,0.753772729907784,0.));
#438=DIRECTION('',(-0.657135200432427,0.753772729907784,0.));
#439=DIRECTION('',(-0.657135200432427,0.753772729907784,0.));
#440=DIRECTION('',(0.,0.,1.));
#441=DIRECTION('center_axis',(1.,0.,0.));
#442=DIRECTION('ref_axis',(0.,1.,0.));
#443=DIRECTION('',(0.,1.,0.));
#444=DIRECTION('',(0.,1.,0.));
#445=DIRECTION('',(0.,0.,1.));
#446=DIRECTION('center_axis',(0.,-1.,0.));
#447=DIRECTION('ref_axis',(1.,0.,0.));
#448=DIRECTION('',(1.,0.,0.));
#449=DIRECTION('',(1.,0.,0.));
#450=DIRECTION('center_axis',(0.,0.,1.));
#451=DIRECTION('ref_axis',(1.,0.,0.));
#452=DIRECTION('center_axis',(0.,0.,1.));
#453=DIRECTION('ref_axis',(1.,0.,0.));
#454=CARTESIAN_POINT('',(0.,0.,0.));
#455=CARTESIAN_POINT('Origin',(8.04,0.,1.78));
#456=CARTESIAN_POINT('',(7.79,-3.18,1.78));
#457=CARTESIAN_POINT('Origin',(8.04,-3.18,1.78));
#458=CARTESIAN_POINT('',(7.79,0.,1.78));
#459=CARTESIAN_POINT('',(7.79,0.,1.78));
#460=CARTESIAN_POINT('Origin',(8.04,0.,1.78));
#461=CARTESIAN_POINT('Origin',(8.04,-3.18,1.78));
#462=CARTESIAN_POINT('Origin',(8.04,0.,4.32));
#463=CARTESIAN_POINT('',(7.79,-3.18,4.32));
#464=CARTESIAN_POINT('Origin',(8.04,-3.18,4.32));
#465=CARTESIAN_POINT('',(7.79,0.,4.32));
#466=CARTESIAN_POINT('',(7.79,0.,4.32));
#467=CARTESIAN_POINT('Origin',(8.04,0.,4.32));
#468=CARTESIAN_POINT('Origin',(8.04,-3.18,4.32));
#469=CARTESIAN_POINT('Origin',(5.5,0.,1.78));
#470=CARTESIAN_POINT('',(5.25,-3.18,1.78));
#471=CARTESIAN_POINT('Origin',(5.5,-3.18,1.78));
#472=CARTESIAN_POINT('',(5.25,0.,1.78));
#473=CARTESIAN_POINT('',(5.25,0.,1.78));
#474=CARTESIAN_POINT('Origin',(5.5,0.,1.78));
#475=CARTESIAN_POINT('Origin',(5.5,-3.18,1.78));
#476=CARTESIAN_POINT('Origin',(5.5,0.,4.32));
#477=CARTESIAN_POINT('',(5.25,-3.18,4.32));
#478=CARTESIAN_POINT('Origin',(5.5,-3.18,4.32));
#479=CARTESIAN_POINT('',(5.25,0.,4.32));
#480=CARTESIAN_POINT('',(5.25,0.,4.32));
#481=CARTESIAN_POINT('Origin',(5.5,0.,4.32));
#482=CARTESIAN_POINT('Origin',(5.5,-3.18,4.32));
#483=CARTESIAN_POINT('Origin',(-1.,3.02,3.05));
#484=CARTESIAN_POINT('',(-2.,5.37,3.05));
#485=CARTESIAN_POINT('',(-2.,3.02,0.699999999999998));
#486=CARTESIAN_POINT('Origin',(-2.,3.02,3.05));
#487=CARTESIAN_POINT('Origin',(-2.,3.02,3.05));
#488=CARTESIAN_POINT('',(-1.80411241501588E-15,5.37,3.05));
#489=CARTESIAN_POINT('',(-0.999999999999999,5.37,3.05));
#490=CARTESIAN_POINT('Origin',(-2.35922392732846E-15,3.02,3.05));
#491=CARTESIAN_POINT('Ctrl Pts',(-2.,3.02,0.7));
#492=CARTESIAN_POINT('Ctrl Pts',(-2.,5.37,0.7));
#493=CARTESIAN_POINT('Ctrl Pts',(-2.,5.37,3.05));
#494=CARTESIAN_POINT('Ctrl Pts',(-2.,5.37,5.4));
#495=CARTESIAN_POINT('Ctrl Pts',(-2.,3.02,5.4));
#496=CARTESIAN_POINT('Ctrl Pts',(-2.,0.669999999999998,5.4));
#497=CARTESIAN_POINT('Ctrl Pts',(-2.,0.669999999999998,3.05));
#498=CARTESIAN_POINT('Ctrl Pts',(-2.,0.669999999999998,0.7));
#499=CARTESIAN_POINT('Ctrl Pts',(-2.,3.02,0.7));
#500=CARTESIAN_POINT('Ctrl Pts',(-4.3545,3.02,0.7));
#501=CARTESIAN_POINT('Ctrl Pts',(-4.3545,5.37,0.7));
#502=CARTESIAN_POINT('Ctrl Pts',(-4.3545,5.37,3.05));
#503=CARTESIAN_POINT('Ctrl Pts',(-4.3545,5.37,5.4));
#504=CARTESIAN_POINT('Ctrl Pts',(-4.3545,3.02,5.4));
#505=CARTESIAN_POINT('Ctrl Pts',(-4.3545,0.669999999999999,5.4));
#506=CARTESIAN_POINT('Ctrl Pts',(-4.3545,0.669999999999998,3.05));
#507=CARTESIAN_POINT('Ctrl Pts',(-4.3545,0.669999999999999,0.7));
#508=CARTESIAN_POINT('Ctrl Pts',(-4.3545,3.02,0.7));
#509=CARTESIAN_POINT('Ctrl Pts',(-4.5,3.02,3.05));
#510=CARTESIAN_POINT('Ctrl Pts',(-4.5,3.02,3.05));
#511=CARTESIAN_POINT('Ctrl Pts',(-4.5,3.02,3.05));
#512=CARTESIAN_POINT('Ctrl Pts',(-4.5,3.02,3.05));
#513=CARTESIAN_POINT('Ctrl Pts',(-4.5,3.02,3.05));
#514=CARTESIAN_POINT('Ctrl Pts',(-4.5,3.02,3.05));
#515=CARTESIAN_POINT('Ctrl Pts',(-4.5,3.02,3.05));
#516=CARTESIAN_POINT('Ctrl Pts',(-4.5,3.02,3.05));
#517=CARTESIAN_POINT('Ctrl Pts',(-4.5,3.02,3.05));
#518=CARTESIAN_POINT('',(-4.5,3.02,3.05));
#519=CARTESIAN_POINT('Origin',(-2.,3.02,3.20478723404255));
#520=CARTESIAN_POINT('Origin',(-1.,9.37,3.05));
#521=CARTESIAN_POINT('',(-2.,7.02,3.05));
#522=CARTESIAN_POINT('',(-2.,9.37,0.699999999999998));
#523=CARTESIAN_POINT('Origin',(-2.,9.37,3.05));
#524=CARTESIAN_POINT('',(1.38777878078145E-15,7.02,3.05));
#525=CARTESIAN_POINT('',(-0.999999999999999,7.02,3.05));
#526=CARTESIAN_POINT('Origin',(8.32667268468867E-16,9.37,3.05));
#527=CARTESIAN_POINT('Origin',(-2.,9.37,3.05));
#528=CARTESIAN_POINT('Ctrl Pts',(-2.,9.37,0.7));
#529=CARTESIAN_POINT('Ctrl Pts',(-2.,7.02,0.7));
#530=CARTESIAN_POINT('Ctrl Pts',(-2.,7.02,3.05));
#531=CARTESIAN_POINT('Ctrl Pts',(-2.,7.02,5.4));
#532=CARTESIAN_POINT('Ctrl Pts',(-2.,9.37,5.4));
#533=CARTESIAN_POINT('Ctrl Pts',(-2.,11.72,5.4));
#534=CARTESIAN_POINT('Ctrl Pts',(-2.,11.72,3.05));
#535=CARTESIAN_POINT('Ctrl Pts',(-2.,11.72,0.7));
#536=CARTESIAN_POINT('Ctrl Pts',(-2.,9.37,0.7));
#537=CARTESIAN_POINT('Ctrl Pts',(-4.3545,9.37,0.7));
#538=CARTESIAN_POINT('Ctrl Pts',(-4.3545,7.02,0.7));
#539=CARTESIAN_POINT('Ctrl Pts',(-4.3545,7.02,3.05));
#540=CARTESIAN_POINT('Ctrl Pts',(-4.3545,7.02,5.4));
#541=CARTESIAN_POINT('Ctrl Pts',(-4.3545,9.37,5.4));
#542=CARTESIAN_POINT('Ctrl Pts',(-4.3545,11.72,5.4));
#543=CARTESIAN_POINT('Ctrl Pts',(-4.3545,11.72,3.05));
#544=CARTESIAN_POINT('Ctrl Pts',(-4.3545,11.72,0.7));
#545=CARTESIAN_POINT('Ctrl Pts',(-4.3545,9.37,0.7));
#546=CARTESIAN_POINT('Ctrl Pts',(-4.5,9.37,3.05));
#547=CARTESIAN_POINT('Ctrl Pts',(-4.5,9.37,3.05));
#548=CARTESIAN_POINT('Ctrl Pts',(-4.5,9.37,3.05));
#549=CARTESIAN_POINT('Ctrl Pts',(-4.5,9.37,3.05));
#550=CARTESIAN_POINT('Ctrl Pts',(-4.5,9.37,3.05));
#551=CARTESIAN_POINT('Ctrl Pts',(-4.5,9.37,3.05));
#552=CARTESIAN_POINT('Ctrl Pts',(-4.5,9.37,3.05));
#553=CARTESIAN_POINT('Ctrl Pts',(-4.5,9.37,3.05));
#554=CARTESIAN_POINT('Ctrl Pts',(-4.5,9.37,3.05));
#555=CARTESIAN_POINT('',(-4.5,9.37,3.05));
#556=CARTESIAN_POINT('Origin',(-2.,9.37,3.20478723404255));
#557=CARTESIAN_POINT('Origin',(0.,12.6,0.));
#558=CARTESIAN_POINT('',(0.,12.6,0.));
#559=CARTESIAN_POINT('',(0.,0.,0.));
#560=CARTESIAN_POINT('',(0.,12.6,0.));
#561=CARTESIAN_POINT('',(0.,0.,6.1));
#562=CARTESIAN_POINT('',(0.,0.,0.));
#563=CARTESIAN_POINT('',(0.,12.6,6.1));
#564=CARTESIAN_POINT('',(0.,12.6,6.1));
#565=CARTESIAN_POINT('',(0.,12.6,0.));
#566=CARTESIAN_POINT('Origin',(7.6,12.6,0.));
#567=CARTESIAN_POINT('',(7.6,12.6,0.));
#568=CARTESIAN_POINT('',(7.6,12.6,0.));
#569=CARTESIAN_POINT('',(7.6,12.6,6.1));
#570=CARTESIAN_POINT('',(7.6,12.6,6.1));
#571=CARTESIAN_POINT('',(7.6,12.6,0.));
#572=CARTESIAN_POINT('Origin',(11.,8.7,0.));
#573=CARTESIAN_POINT('',(11.,8.7,0.));
#574=CARTESIAN_POINT('',(11.,8.7,0.));
#575=CARTESIAN_POINT('',(11.,8.7,6.1));
#576=CARTESIAN_POINT('',(11.,8.7,6.1));
#577=CARTESIAN_POINT('',(11.,8.7,0.));
#578=CARTESIAN_POINT('Origin',(11.,0.,0.));
#579=CARTESIAN_POINT('',(11.,0.,0.));
#580=CARTESIAN_POINT('',(11.,0.,0.));
#581=CARTESIAN_POINT('',(11.,0.,6.1));
#582=CARTESIAN_POINT('',(11.,0.,6.1));
#583=CARTESIAN_POINT('',(11.,0.,0.));
#584=CARTESIAN_POINT('Origin',(0.,0.,0.));
#585=CARTESIAN_POINT('',(0.,0.,0.));
#586=CARTESIAN_POINT('',(0.,0.,6.1));
#587=CARTESIAN_POINT('Origin',(5.5,6.3,6.1));
#588=CARTESIAN_POINT('Origin',(5.5,6.3,0.));
#589=UNCERTAINTY_MEASURE_WITH_UNIT(LENGTH_MEASURE(0.01),#593,
'DISTANCE_ACCURACY_VALUE',
'Maximum model space distance between geometric entities at asserted c
onnectivities');
#590=UNCERTAINTY_MEASURE_WITH_UNIT(LENGTH_MEASURE(0.01),#593,
'DISTANCE_ACCURACY_VALUE',
'Maximum model space distance between geometric entities at asserted c
onnectivities');
#591=(
GEOMETRIC_REPRESENTATION_CONTEXT(3)
GLOBAL_UNCERTAINTY_ASSIGNED_CONTEXT((#589))
GLOBAL_UNIT_ASSIGNED_CONTEXT((#593,#595,#596))
REPRESENTATION_CONTEXT('','3D')
);
#592=(
GEOMETRIC_REPRESENTATION_CONTEXT(3)
GLOBAL_UNCERTAINTY_ASSIGNED_CONTEXT((#590))
GLOBAL_UNIT_ASSIGNED_CONTEXT((#593,#595,#596))
REPRESENTATION_CONTEXT('','3D')
);
#593=(
LENGTH_UNIT()
NAMED_UNIT(*)
SI_UNIT(.MILLI.,.METRE.)
);
#594=(
LENGTH_UNIT()
NAMED_UNIT(*)
SI_UNIT(.CENTI.,.METRE.)
);
#595=(
NAMED_UNIT(*)
PLANE_ANGLE_UNIT()
SI_UNIT($,.RADIAN.)
);
#596=(
NAMED_UNIT(*)
SI_UNIT($,.STERADIAN.)
SOLID_ANGLE_UNIT()
);
#597=SHAPE_DEFINITION_REPRESENTATION(#598,#599);
#598=PRODUCT_DEFINITION_SHAPE('',$,#601);
#599=SHAPE_REPRESENTATION('',(#331),#591);
#600=PRODUCT_DEFINITION_CONTEXT('part definition',#605,'design');
#601=PRODUCT_DEFINITION('SSF-LXHM250GGD','SSF-LXHM250GGD',#602,#600);
#602=PRODUCT_DEFINITION_FORMATION('',$,#607);
#603=PRODUCT_RELATED_PRODUCT_CATEGORY('SSF-LXHM250GGD','SSF-LXHM250GGD',
(#607));
#604=APPLICATION_PROTOCOL_DEFINITION('international standard',
'automotive_design',2009,#605);
#605=APPLICATION_CONTEXT(
'Core Data for Automotive Mechanical Design Process');
#606=PRODUCT_CONTEXT('part definition',#605,'mechanical');
#607=PRODUCT('SSF-LXHM250GGD','SSF-LXHM250GGD',$,(#606));
#608=PRESENTATION_STYLE_ASSIGNMENT((#611));
#609=PRESENTATION_STYLE_ASSIGNMENT((#612));
#610=PRESENTATION_STYLE_ASSIGNMENT((#613));
#611=SURFACE_STYLE_USAGE(.BOTH.,#620);
#612=SURFACE_STYLE_USAGE(.BOTH.,#621);
#613=SURFACE_STYLE_USAGE(.BOTH.,#622);
#614=SURFACE_STYLE_RENDERING_WITH_PROPERTIES($,#632,(#617));
#615=SURFACE_STYLE_RENDERING_WITH_PROPERTIES($,#633,(#618));
#616=SURFACE_STYLE_RENDERING_WITH_PROPERTIES($,#634,(#619));
#617=SURFACE_STYLE_TRANSPARENT(0.);
#618=SURFACE_STYLE_TRANSPARENT(0.480000019073486);
#619=SURFACE_STYLE_TRANSPARENT(0.);
#620=SURFACE_SIDE_STYLE('',(#623,#614));
#621=SURFACE_SIDE_STYLE('',(#624,#615));
#622=SURFACE_SIDE_STYLE('',(#625,#616));
#623=SURFACE_STYLE_FILL_AREA(#626);
#624=SURFACE_STYLE_FILL_AREA(#627);
#625=SURFACE_STYLE_FILL_AREA(#628);
#626=FILL_AREA_STYLE('',(#629));
#627=FILL_AREA_STYLE('',(#630));
#628=FILL_AREA_STYLE('',(#631));
#629=FILL_AREA_STYLE_COLOUR('',#632);
#630=FILL_AREA_STYLE_COLOUR('',#633);
#631=FILL_AREA_STYLE_COLOUR('',#634);
#632=COLOUR_RGB('',0.749019607843137,0.749019607843137,0.749019607843137);
#633=COLOUR_RGB('',0.0627450980392157,0.670588235294118,0.290196078431373);
#634=COLOUR_RGB('',0.,0.,0.);
ENDSEC;
END-ISO-10303-21;
