ISO-10303-21;
HEADER;
/* Generated by software containing ST-Developer
 * from STEP Tools, Inc. (www.steptools.com) 
 */

FILE_DESCRIPTION(
/* description */ (''),
/* implementation_level */ '2;1');

FILE_NAME(
/* name */ 'JumperConnector.stp',
/* time_stamp */ '2026-01-20T13:56:39-06:00',
/* author */ ('tapen'),
/* organization */ (''),
/* preprocessor_version */ 'ST-DEVELOPER v20',
/* originating_system */ 'Autodesk Inventor 2025',
/* authorisation */ '');

FILE_SCHEMA (('AUTOMOTIVE_DESIGN { 1 0 10303 214 3 1 1 }'));
ENDSEC;

DATA;
#10=MECHANICAL_DESIGN_GEOMETRIC_PRESENTATION_REPRESENTATION('',(#21),#250);
#11=ITEM_DEFINED_TRANSFORMATION($,$,#154,#170);
#12=ITEM_DEFINED_TRANSFORMATION($,$,#154,#171);
#13=(
REPRESENTATION_RELATIONSHIP($,$,#266,#265)
REPRESENTATION_RELATIONSHIP_WITH_TRANSFORMATION(#11)
SHAPE_REPRESENTATION_RELATIONSHIP()
);
#14=(
REPRESENTATION_RELATIONSHIP($,$,#266,#265)
REPRESENTATION_RELATIONSHIP_WITH_TRANSFORMATION(#12)
SHAPE_REPRESENTATION_RELATIONSHIP()
);
#15=CONTEXT_DEPENDENT_SHAPE_REPRESENTATION(#13,#263);
#16=CONTEXT_DEPENDENT_SHAPE_REPRESENTATION(#14,#264);
#17=NEXT_ASSEMBLY_USAGE_OCCURRENCE('575-8:1','575-8:1','575-8:1',#268,#269,
'575-8:1');
#18=NEXT_ASSEMBLY_USAGE_OCCURRENCE('575-8:2','575-8:2','575-8:2',#268,#269,
'575-8:2');
#19=SHAPE_REPRESENTATION_RELATIONSHIP('SRR','None',#266,#20);
#20=ADVANCED_BREP_SHAPE_REPRESENTATION('',(#22),#249);
#21=STYLED_ITEM('',(#132),#22);
#22=MANIFOLD_SOLID_BREP('Solid1',#117);
#23=FACE_BOUND('',#44,.T.);
#24=FACE_BOUND('',#46,.T.);
#25=FACE_BOUND('',#48,.T.);
#26=PLANE('',#167);
#27=PLANE('',#168);
#28=PLANE('',#169);
#29=CYLINDRICAL_SURFACE('',#159,0.1015);
#30=CYLINDRICAL_SURFACE('',#162,0.0825);
#31=CYLINDRICAL_SURFACE('',#164,0.156);
#32=FACE_OUTER_BOUND('',#39,.T.);
#33=FACE_OUTER_BOUND('',#40,.T.);
#34=FACE_OUTER_BOUND('',#41,.T.);
#35=FACE_OUTER_BOUND('',#42,.T.);
#36=FACE_OUTER_BOUND('',#43,.T.);
#37=FACE_OUTER_BOUND('',#45,.T.);
#38=FACE_OUTER_BOUND('',#47,.T.);
#39=EDGE_LOOP('',(#85,#86,#87,#88,#89));
#40=EDGE_LOOP('',(#90,#91,#92,#93));
#41=EDGE_LOOP('',(#94,#95,#96,#97,#98));
#42=EDGE_LOOP('',(#99,#100,#101,#102));
#43=EDGE_LOOP('',(#103));
#44=EDGE_LOOP('',(#104));
#45=EDGE_LOOP('',(#105));
#46=EDGE_LOOP('',(#106));
#47=EDGE_LOOP('',(#107));
#48=EDGE_LOOP('',(#108));
#49=LINE('',#222,#53);
#50=LINE('',#228,#54);
#51=LINE('',#232,#55);
#52=LINE('',#238,#56);
#53=VECTOR('',#182,0.0825);
#54=VECTOR('',#189,0.1015);
#55=VECTOR('',#194,0.0825);
#56=VECTOR('',#201,0.156);
#57=CIRCLE('',#156,0.0825);
#58=CIRCLE('',#157,0.0825);
#59=CIRCLE('',#158,0.118295716689757);
#60=CIRCLE('',#160,0.1015);
#61=CIRCLE('',#161,0.1015);
#62=CIRCLE('',#163,0.0825);
#63=CIRCLE('',#165,0.156);
#64=CIRCLE('',#166,0.156);
#65=VERTEX_POINT('',#217);
#66=VERTEX_POINT('',#218);
#67=VERTEX_POINT('',#221);
#68=VERTEX_POINT('',#225);
#69=VERTEX_POINT('',#227);
#70=VERTEX_POINT('',#231);
#71=VERTEX_POINT('',#235);
#72=VERTEX_POINT('',#237);
#73=EDGE_CURVE('',#65,#66,#57,.T.);
#74=EDGE_CURVE('',#66,#65,#58,.T.);
#75=EDGE_CURVE('',#66,#67,#49,.T.);
#76=EDGE_CURVE('',#67,#67,#59,.T.);
#77=EDGE_CURVE('',#68,#68,#60,.T.);
#78=EDGE_CURVE('',#68,#69,#50,.T.);
#79=EDGE_CURVE('',#69,#69,#61,.T.);
#80=EDGE_CURVE('',#65,#70,#51,.T.);
#81=EDGE_CURVE('',#70,#70,#62,.T.);
#82=EDGE_CURVE('',#71,#71,#63,.T.);
#83=EDGE_CURVE('',#71,#72,#52,.T.);
#84=EDGE_CURVE('',#72,#72,#64,.T.);
#85=ORIENTED_EDGE('',*,*,#73,.F.);
#86=ORIENTED_EDGE('',*,*,#74,.F.);
#87=ORIENTED_EDGE('',*,*,#75,.T.);
#88=ORIENTED_EDGE('',*,*,#76,.F.);
#89=ORIENTED_EDGE('',*,*,#75,.F.);
#90=ORIENTED_EDGE('',*,*,#77,.T.);
#91=ORIENTED_EDGE('',*,*,#78,.T.);
#92=ORIENTED_EDGE('',*,*,#79,.F.);
#93=ORIENTED_EDGE('',*,*,#78,.F.);
#94=ORIENTED_EDGE('',*,*,#73,.T.);
#95=ORIENTED_EDGE('',*,*,#74,.T.);
#96=ORIENTED_EDGE('',*,*,#80,.T.);
#97=ORIENTED_EDGE('',*,*,#81,.T.);
#98=ORIENTED_EDGE('',*,*,#80,.F.);
#99=ORIENTED_EDGE('',*,*,#82,.T.);
#100=ORIENTED_EDGE('',*,*,#83,.T.);
#101=ORIENTED_EDGE('',*,*,#84,.F.);
#102=ORIENTED_EDGE('',*,*,#83,.F.);
#103=ORIENTED_EDGE('',*,*,#82,.F.);
#104=ORIENTED_EDGE('',*,*,#77,.F.);
#105=ORIENTED_EDGE('',*,*,#84,.T.);
#106=ORIENTED_EDGE('',*,*,#76,.T.);
#107=ORIENTED_EDGE('',*,*,#79,.T.);
#108=ORIENTED_EDGE('',*,*,#81,.F.);
#109=CONICAL_SURFACE('',#155,0.0825,0.523598775598297);
#110=ADVANCED_FACE('',(#32),#109,.F.);
#111=ADVANCED_FACE('',(#33),#29,.T.);
#112=ADVANCED_FACE('',(#34),#30,.F.);
#113=ADVANCED_FACE('',(#35),#31,.T.);
#114=ADVANCED_FACE('',(#36,#23),#26,.F.);
#115=ADVANCED_FACE('',(#37,#24),#27,.T.);
#116=ADVANCED_FACE('',(#38,#25),#28,.T.);
#117=CLOSED_SHELL('',(#110,#111,#112,#113,#114,#115,#116));
#118=DERIVED_UNIT_ELEMENT(#120,1.);
#119=DERIVED_UNIT_ELEMENT(#255,-3.);
#120=(
CONVERSION_BASED_UNIT('gram',#122)
MASS_UNIT()
NAMED_UNIT(#252)
);
#121=(
MASS_UNIT()
NAMED_UNIT(*)
SI_UNIT(.KILO.,.GRAM.)
);
#122=MASS_MEASURE_WITH_UNIT(MASS_MEASURE(0.001),#121);
#123=DERIVED_UNIT((#118,#119));
#124=MEASURE_REPRESENTATION_ITEM('density measure',
POSITIVE_RATIO_MEASURE(1.),#123);
#125=PROPERTY_DEFINITION_REPRESENTATION(#130,#127);
#126=PROPERTY_DEFINITION_REPRESENTATION(#131,#128);
#127=REPRESENTATION('material name',(#129),#249);
#128=REPRESENTATION('density',(#124),#249);
#129=DESCRIPTIVE_REPRESENTATION_ITEM('Generic','Generic');
#130=PROPERTY_DEFINITION('material property','material name',#269);
#131=PROPERTY_DEFINITION('material property','density of part',#269);
#132=PRESENTATION_STYLE_ASSIGNMENT((#133));
#133=SURFACE_STYLE_USAGE(.BOTH.,#136);
#134=SURFACE_STYLE_RENDERING_WITH_PROPERTIES($,#140,(#135));
#135=SURFACE_STYLE_TRANSPARENT(0.);
#136=SURFACE_SIDE_STYLE('',(#137,#134));
#137=SURFACE_STYLE_FILL_AREA(#138);
#138=FILL_AREA_STYLE('',(#139));
#139=FILL_AREA_STYLE_COLOUR('',#140);
#140=COLOUR_RGB('',0.792156862745098,0.819607843137255,0.933333333333333);
#141=DATE_TIME_ROLE('creation_date');
#142=DATE_TIME_ROLE('creation_date');
#143=APPLIED_DATE_AND_TIME_ASSIGNMENT(#145,#141,(#268));
#144=APPLIED_DATE_AND_TIME_ASSIGNMENT(#146,#142,(#269));
#145=DATE_AND_TIME(#147,#149);
#146=DATE_AND_TIME(#148,#150);
#147=CALENDAR_DATE(2026,20,1);
#148=CALENDAR_DATE(2023,19,1);
#149=LOCAL_TIME(0,0,0.,#151);
#150=LOCAL_TIME(3,47,5.,#152);
#151=COORDINATED_UNIVERSAL_TIME_OFFSET(0,0,.BEHIND.);
#152=COORDINATED_UNIVERSAL_TIME_OFFSET(0,0,.BEHIND.);
#153=AXIS2_PLACEMENT_3D('',#214,#172,#173);
#154=AXIS2_PLACEMENT_3D('',#215,#174,#175);
#155=AXIS2_PLACEMENT_3D('',#216,#176,#177);
#156=AXIS2_PLACEMENT_3D('',#219,#178,#179);
#157=AXIS2_PLACEMENT_3D('',#220,#180,#181);
#158=AXIS2_PLACEMENT_3D('',#223,#183,#184);
#159=AXIS2_PLACEMENT_3D('',#224,#185,#186);
#160=AXIS2_PLACEMENT_3D('',#226,#187,#188);
#161=AXIS2_PLACEMENT_3D('',#229,#190,#191);
#162=AXIS2_PLACEMENT_3D('',#230,#192,#193);
#163=AXIS2_PLACEMENT_3D('',#233,#195,#196);
#164=AXIS2_PLACEMENT_3D('',#234,#197,#198);
#165=AXIS2_PLACEMENT_3D('',#236,#199,#200);
#166=AXIS2_PLACEMENT_3D('',#239,#202,#203);
#167=AXIS2_PLACEMENT_3D('',#240,#204,#205);
#168=AXIS2_PLACEMENT_3D('',#241,#206,#207);
#169=AXIS2_PLACEMENT_3D('',#242,#208,#209);
#170=AXIS2_PLACEMENT_3D('',#243,#210,#211);
#171=AXIS2_PLACEMENT_3D('',#244,#212,#213);
#172=DIRECTION('axis',(0.,0.,1.));
#173=DIRECTION('refdir',(1.,0.,0.));
#174=DIRECTION('axis',(0.,0.,1.));
#175=DIRECTION('refdir',(1.,0.,0.));
#176=DIRECTION('center_axis',(0.,1.,0.));
#177=DIRECTION('ref_axis',(0.,0.,1.));
#178=DIRECTION('center_axis',(0.,1.,0.));
#179=DIRECTION('ref_axis',(0.,0.,1.));
#180=DIRECTION('center_axis',(0.,1.,0.));
#181=DIRECTION('ref_axis',(0.,0.,1.));
#182=DIRECTION('',(-6.12323399573675E-17,0.86602540378444,-0.499999999999998));
#183=DIRECTION('center_axis',(0.,-1.,0.));
#184=DIRECTION('ref_axis',(0.,0.,1.));
#185=DIRECTION('center_axis',(0.,1.,0.));
#186=DIRECTION('ref_axis',(0.,0.,1.));
#187=DIRECTION('center_axis',(0.,-1.,0.));
#188=DIRECTION('ref_axis',(0.,0.,1.));
#189=DIRECTION('',(0.,-1.,0.));
#190=DIRECTION('center_axis',(0.,-1.,0.));
#191=DIRECTION('ref_axis',(0.,0.,-1.));
#192=DIRECTION('center_axis',(0.,-1.,0.));
#193=DIRECTION('ref_axis',(0.,0.,-1.));
#194=DIRECTION('',(0.,-1.,0.));
#195=DIRECTION('center_axis',(0.,-1.,0.));
#196=DIRECTION('ref_axis',(0.,0.,-1.));
#197=DIRECTION('center_axis',(0.,-1.,0.));
#198=DIRECTION('ref_axis',(0.,0.,-1.));
#199=DIRECTION('center_axis',(0.,1.,0.));
#200=DIRECTION('ref_axis',(0.,0.,1.));
#201=DIRECTION('',(0.,1.,0.));
#202=DIRECTION('center_axis',(0.,1.,0.));
#203=DIRECTION('ref_axis',(0.,0.,1.));
#204=DIRECTION('center_axis',(0.,1.,0.));
#205=DIRECTION('ref_axis',(0.,0.,1.));
#206=DIRECTION('center_axis',(0.,1.,0.));
#207=DIRECTION('ref_axis',(0.,0.,1.));
#208=DIRECTION('center_axis',(0.,-1.,0.));
#209=DIRECTION('ref_axis',(0.,0.,-1.));
#210=DIRECTION('',(-4.16333634234436E-17,-1.,-9.34741284303641E-16));
#211=DIRECTION('',(1.,-4.16333634234428E-17,-8.67361737988404E-16));
#212=DIRECTION('',(-2.18922102668273E-15,-1.,-1.84947995304042E-15));
#213=DIRECTION('',(1.,-2.18922102668272E-15,-7.47665818146011E-16));
#214=CARTESIAN_POINT('',(0.,0.,0.));
#215=CARTESIAN_POINT('',(0.,0.,0.));
#216=CARTESIAN_POINT('Origin',(0.,0.0309999999999999,0.));
#217=CARTESIAN_POINT('',(1.01033360929657E-17,0.0309999999999999,0.0825));
#218=CARTESIAN_POINT('',(-1.01033360929657E-17,0.0309999999999999,-0.0825));
#219=CARTESIAN_POINT('Origin',(0.,0.0309999999999999,0.));
#220=CARTESIAN_POINT('Origin',(0.,0.0309999999999999,0.));
#221=CARTESIAN_POINT('',(-1.44870470796953E-17,0.093,-0.118295716689757));
#222=CARTESIAN_POINT('',(-1.01033360929657E-17,0.0309999999999999,-0.0825));
#223=CARTESIAN_POINT('Origin',(0.,0.093,0.));
#224=CARTESIAN_POINT('Origin',(0.,-0.35,0.));
#225=CARTESIAN_POINT('',(-1.24301650113456E-17,0.,-0.1015));
#226=CARTESIAN_POINT('Origin',(0.,0.,0.));
#227=CARTESIAN_POINT('',(-1.24301650113456E-17,-0.35,-0.1015));
#228=CARTESIAN_POINT('',(-1.24301650113456E-17,-0.35,-0.1015));
#229=CARTESIAN_POINT('Origin',(0.,-0.35,0.));
#230=CARTESIAN_POINT('Origin',(0.,0.093,0.));
#231=CARTESIAN_POINT('',(-1.01033360929657E-17,-0.35,0.0825));
#232=CARTESIAN_POINT('',(-1.01033360929657E-17,0.093,0.0825));
#233=CARTESIAN_POINT('Origin',(0.,-0.35,0.));
#234=CARTESIAN_POINT('Origin',(0.,0.093,0.));
#235=CARTESIAN_POINT('',(-1.91044900666987E-17,0.,0.156));
#236=CARTESIAN_POINT('Origin',(0.,0.,0.));
#237=CARTESIAN_POINT('',(-1.91044900666987E-17,0.093,0.156));
#238=CARTESIAN_POINT('',(-1.91044900666987E-17,0.093,0.156));
#239=CARTESIAN_POINT('Origin',(0.,0.093,0.));
#240=CARTESIAN_POINT('Origin',(0.,0.,0.));
#241=CARTESIAN_POINT('Origin',(0.,0.093,0.));
#242=CARTESIAN_POINT('Origin',(0.,-0.35,0.));
#243=CARTESIAN_POINT('',(-0.375,-3.24047889523916E-33,-5.08819038353446E-32));
#244=CARTESIAN_POINT('',(0.375,-2.43376357001122E-16,-5.61939083410879E-16));
#245=UNCERTAINTY_MEASURE_WITH_UNIT(LENGTH_MEASURE(0.000393700787401575),
#253,'DISTANCE_ACCURACY_VALUE',
'Maximum model space distance between geometric entities at asserted c
onnectivities');
#246=UNCERTAINTY_MEASURE_WITH_UNIT(LENGTH_MEASURE(0.000393700787401575),
#253,'DISTANCE_ACCURACY_VALUE',
'Maximum model space distance between geometric entities at asserted c
onnectivities');
#247=UNCERTAINTY_MEASURE_WITH_UNIT(LENGTH_MEASURE(0.000393700787401575),
#253,'DISTANCE_ACCURACY_VALUE',
'Maximum model space distance between geometric entities at asserted c
onnectivities');
#248=(
GEOMETRIC_REPRESENTATION_CONTEXT(3)
GLOBAL_UNCERTAINTY_ASSIGNED_CONTEXT((#245))
GLOBAL_UNIT_ASSIGNED_CONTEXT((#253,#257,#258))
REPRESENTATION_CONTEXT('','3D')
);
#249=(
GEOMETRIC_REPRESENTATION_CONTEXT(3)
GLOBAL_UNCERTAINTY_ASSIGNED_CONTEXT((#246))
GLOBAL_UNIT_ASSIGNED_CONTEXT((#253,#257,#258))
REPRESENTATION_CONTEXT('','3D')
);
#250=(
GEOMETRIC_REPRESENTATION_CONTEXT(3)
GLOBAL_UNCERTAINTY_ASSIGNED_CONTEXT((#247))
GLOBAL_UNIT_ASSIGNED_CONTEXT((#253,#257,#258))
REPRESENTATION_CONTEXT('','3D')
);
#251=DIMENSIONAL_EXPONENTS(1.,0.,0.,0.,0.,0.,0.);
#252=DIMENSIONAL_EXPONENTS(0.,1.,0.,0.,0.,0.,0.);
#253=(
CONVERSION_BASED_UNIT('inch',#256)
LENGTH_UNIT()
NAMED_UNIT(#251)
);
#254=(
LENGTH_UNIT()
NAMED_UNIT(*)
SI_UNIT(.MILLI.,.METRE.)
);
#255=(
LENGTH_UNIT()
NAMED_UNIT(*)
SI_UNIT(.CENTI.,.METRE.)
);
#256=LENGTH_MEASURE_WITH_UNIT(LENGTH_MEASURE(25.4),#254);
#257=(
NAMED_UNIT(*)
PLANE_ANGLE_UNIT()
SI_UNIT($,.RADIAN.)
);
#258=(
NAMED_UNIT(*)
SI_UNIT($,.STERADIAN.)
SOLID_ANGLE_UNIT()
);
#259=SHAPE_DEFINITION_REPRESENTATION(#261,#265);
#260=SHAPE_DEFINITION_REPRESENTATION(#262,#266);
#261=PRODUCT_DEFINITION_SHAPE('',$,#268);
#262=PRODUCT_DEFINITION_SHAPE('',$,#269);
#263=PRODUCT_DEFINITION_SHAPE($,$,#17);
#264=PRODUCT_DEFINITION_SHAPE($,$,#18);
#265=SHAPE_REPRESENTATION('',(#153,#170,#171),#248);
#266=SHAPE_REPRESENTATION('',(#154),#249);
#267=PRODUCT_DEFINITION_CONTEXT('part definition',#275,'design');
#268=PRODUCT_DEFINITION('Assembly2','Assembly2',#270,#267);
#269=PRODUCT_DEFINITION('575-8','575-8',#271,#267);
#270=PRODUCT_DEFINITION_FORMATION('',$,#277);
#271=PRODUCT_DEFINITION_FORMATION('ANY',$,#278);
#272=PRODUCT_RELATED_PRODUCT_CATEGORY('Assembly2','Assembly2',(#277));
#273=PRODUCT_RELATED_PRODUCT_CATEGORY('575-8','575-8',(#278));
#274=APPLICATION_PROTOCOL_DEFINITION('international standard',
'automotive_design',2009,#275);
#275=APPLICATION_CONTEXT(
'Core Data for Automotive Mechanical Design Process');
#276=PRODUCT_CONTEXT('part definition',#275,'mechanical');
#277=PRODUCT('Assembly2','Assembly2',$,(#276));
#278=PRODUCT('575-8','575-8','STEP AP214',(#276));
ENDSEC;
END-ISO-10303-21;
