%TF.GenerationSoftware,KiCad,Pcbnew,9.0.6*%
%TF.CreationDate,2026-07-27T22:04:20-05:00*%
%TF.ProjectId,8thOrderBandpassFilter,3874684f-7264-4657-9242-616e64706173,1.0*%
%TF.SameCoordinates,Original*%
%TF.FileFunction,Copper,L1,Top*%
%TF.FilePolarity,Positive*%
%FSLAX46Y46*%
G04 Gerber Fmt 4.6, Leading zero omitted, Abs format (unit mm)*
G04 Created by KiCad (PCBNEW 9.0.6) date 2026-07-27 22:04:20*
%MOMM*%
%LPD*%
G01*
G04 APERTURE LIST*
G04 Aperture macros list*
%AMRoundRect*
0 Rectangle with rounded corners*
0 $1 Rounding radius*
0 $2 $3 $4 $5 $6 $7 $8 $9 X,Y pos of 4 corners*
0 Add a 4 corners polygon primitive as box body*
4,1,4,$2,$3,$4,$5,$6,$7,$8,$9,$2,$3,0*
0 Add four circle primitives for the rounded corners*
1,1,$1+$1,$2,$3*
1,1,$1+$1,$4,$5*
1,1,$1+$1,$6,$7*
1,1,$1+$1,$8,$9*
0 Add four rect primitives between the rounded corners*
20,1,$1+$1,$2,$3,$4,$5,0*
20,1,$1+$1,$4,$5,$6,$7,0*
20,1,$1+$1,$6,$7,$8,$9,0*
20,1,$1+$1,$8,$9,$2,$3,0*%
G04 Aperture macros list end*
%TA.AperFunction,SMDPad,CuDef*%
%ADD10RoundRect,0.237500X0.237500X-0.300000X0.237500X0.300000X-0.237500X0.300000X-0.237500X-0.300000X0*%
%TD*%
%TA.AperFunction,SMDPad,CuDef*%
%ADD11RoundRect,0.250000X-0.445000X0.545000X-0.445000X-0.545000X0.445000X-0.545000X0.445000X0.545000X0*%
%TD*%
%TA.AperFunction,SMDPad,CuDef*%
%ADD12RoundRect,0.237500X-0.237500X0.300000X-0.237500X-0.300000X0.237500X-0.300000X0.237500X0.300000X0*%
%TD*%
%TA.AperFunction,SMDPad,CuDef*%
%ADD13RoundRect,0.237500X0.237500X-0.250000X0.237500X0.250000X-0.237500X0.250000X-0.237500X-0.250000X0*%
%TD*%
%TA.AperFunction,SMDPad,CuDef*%
%ADD14RoundRect,0.237500X-0.250000X-0.237500X0.250000X-0.237500X0.250000X0.237500X-0.250000X0.237500X0*%
%TD*%
%TA.AperFunction,SMDPad,CuDef*%
%ADD15RoundRect,0.237500X0.300000X0.237500X-0.300000X0.237500X-0.300000X-0.237500X0.300000X-0.237500X0*%
%TD*%
%TA.AperFunction,ComponentPad*%
%ADD16C,1.300000*%
%TD*%
%TA.AperFunction,ComponentPad*%
%ADD17C,2.400000*%
%TD*%
%TA.AperFunction,SMDPad,CuDef*%
%ADD18RoundRect,0.250000X0.445000X-0.545000X0.445000X0.545000X-0.445000X0.545000X-0.445000X-0.545000X0*%
%TD*%
%TA.AperFunction,SMDPad,CuDef*%
%ADD19RoundRect,0.250000X-0.650000X1.000000X-0.650000X-1.000000X0.650000X-1.000000X0.650000X1.000000X0*%
%TD*%
%TA.AperFunction,SMDPad,CuDef*%
%ADD20R,1.981200X0.558800*%
%TD*%
%TA.AperFunction,SMDPad,CuDef*%
%ADD21RoundRect,0.237500X-0.300000X-0.237500X0.300000X-0.237500X0.300000X0.237500X-0.300000X0.237500X0*%
%TD*%
%TA.AperFunction,SMDPad,CuDef*%
%ADD22RoundRect,0.237500X0.250000X0.237500X-0.250000X0.237500X-0.250000X-0.237500X0.250000X-0.237500X0*%
%TD*%
%TA.AperFunction,ComponentPad*%
%ADD23C,1.100000*%
%TD*%
%TA.AperFunction,SMDPad,CuDef*%
%ADD24RoundRect,0.237500X-0.237500X0.250000X-0.237500X-0.250000X0.237500X-0.250000X0.237500X0.250000X0*%
%TD*%
%TA.AperFunction,SMDPad,CuDef*%
%ADD25RoundRect,0.250000X0.650000X-1.000000X0.650000X1.000000X-0.650000X1.000000X-0.650000X-1.000000X0*%
%TD*%
%TA.AperFunction,SMDPad,CuDef*%
%ADD26RoundRect,0.250000X1.000000X0.650000X-1.000000X0.650000X-1.000000X-0.650000X1.000000X-0.650000X0*%
%TD*%
%TA.AperFunction,ViaPad*%
%ADD27C,0.600000*%
%TD*%
%TA.AperFunction,Conductor*%
%ADD28C,0.500000*%
%TD*%
%TA.AperFunction,Conductor*%
%ADD29C,1.000000*%
%TD*%
G04 APERTURE END LIST*
D10*
%TO.P,C5,1*%
%TO.N,Net-(C5-Pad1)*%
X135804200Y-106167000D03*
%TO.P,C5,2*%
%TO.N,GND*%
X135804200Y-104442000D03*
%TD*%
D11*
%TO.P,C1,1*%
%TO.N,+12V*%
X119786400Y-111844000D03*
%TO.P,C1,2*%
%TO.N,GND*%
X119786400Y-114724000D03*
%TD*%
D12*
%TO.P,C18,1*%
%TO.N,-12V*%
X151200000Y-102625000D03*
%TO.P,C18,2*%
%TO.N,GND*%
X151200000Y-104350000D03*
%TD*%
D13*
%TO.P,R1,1*%
%TO.N,Net-(C3-Pad1)*%
X129710000Y-101232500D03*
%TO.P,R1,2*%
%TO.N,/Input Buffer Output*%
X129710000Y-99407500D03*
%TD*%
D14*
%TO.P,R2,1*%
%TO.N,Net-(U1--INA)*%
X126282500Y-101227600D03*
%TO.P,R2,2*%
%TO.N,Net-(C3-Pad1)*%
X128107500Y-101227600D03*
%TD*%
D15*
%TO.P,C9,1*%
%TO.N,Net-(C10-Pad2)*%
X155294500Y-106476800D03*
%TO.P,C9,2*%
%TO.N,/First Stage High Pass Output*%
X153569500Y-106476800D03*
%TD*%
D16*
%TO.P,J2,1,Signal*%
%TO.N,/Output Signal*%
X143840600Y-90342000D03*
%TO.P,J2,2,GND*%
%TO.N,GND*%
X141300600Y-90342000D03*
D17*
%TO.P,J2,3,GND*%
X138760600Y-85262000D03*
%TO.P,J2,4,GND*%
X148920600Y-85262000D03*
%TD*%
D12*
%TO.P,C16,1*%
%TO.N,+12V*%
X141340000Y-102587500D03*
%TO.P,C16,2*%
%TO.N,GND*%
X141340000Y-104312500D03*
%TD*%
%TO.P,C8,1*%
%TO.N,Net-(U2-+IN_C)*%
X146750000Y-108237500D03*
%TO.P,C8,2*%
%TO.N,Net-(C7-Pad1)*%
X146750000Y-109962500D03*
%TD*%
D18*
%TO.P,C2,1*%
%TO.N,GND*%
X131622800Y-114825600D03*
%TO.P,C2,2*%
%TO.N,-12V*%
X131622800Y-111945600D03*
%TD*%
D19*
%TO.P,D2,1,A1*%
%TO.N,-12V*%
X134518400Y-111995200D03*
%TO.P,D2,2,A2*%
%TO.N,GND*%
X134518400Y-115995200D03*
%TD*%
D20*
%TO.P,U2,1,OUT_A*%
%TO.N,/Output Signal*%
X143879200Y-98845000D03*
%TO.P,U2,2,-IN_A*%
X143879200Y-100115000D03*
%TO.P,U2,3,+IN_A*%
%TO.N,/Second Stage High Pass Output*%
X143879200Y-101385000D03*
%TO.P,U2,4,V+*%
%TO.N,+12V*%
X143879200Y-102655000D03*
%TO.P,U2,5,+IN_B*%
%TO.N,GND*%
X143879200Y-103925000D03*
%TO.P,U2,6,-IN_B*%
%TO.N,Net-(U2--IN_B)*%
X143879200Y-105195000D03*
%TO.P,U2,7,OUT_B*%
%TO.N,/Second Stage Low Pass Output*%
X143879200Y-106465000D03*
%TO.P,U2,8,OUT_C*%
%TO.N,/First Stage High Pass Output*%
X148806800Y-106465000D03*
%TO.P,U2,9,-IN_C*%
X148806800Y-105195000D03*
%TO.P,U2,10,+IN_C*%
%TO.N,Net-(U2-+IN_C)*%
X148806800Y-103925000D03*
%TO.P,U2,11,V-*%
%TO.N,-12V*%
X148806800Y-102655000D03*
%TO.P,U2,12,+IN_D*%
%TO.N,Net-(U2-+IN_D)*%
X148806800Y-101385000D03*
%TO.P,U2,13,-IN_D*%
%TO.N,/Second Stage High Pass Output*%
X148806800Y-100115000D03*
%TO.P,U2,14,OUT_D*%
X148806800Y-98845000D03*
%TD*%
D14*
%TO.P,R3,1*%
%TO.N,/First Stage Low Pass Output*%
X126282500Y-102954800D03*
%TO.P,R3,2*%
%TO.N,Net-(C3-Pad1)*%
X128107500Y-102954800D03*
%TD*%
D21*
%TO.P,C10,1*%
%TO.N,Net-(U2-+IN_D)*%
X153568400Y-101041200D03*
%TO.P,C10,2*%
%TO.N,Net-(C10-Pad2)*%
X155293400Y-101041200D03*
%TD*%
D10*
%TO.P,C13,1*%
%TO.N,-12V*%
X125069600Y-98855700D03*
%TO.P,C13,2*%
%TO.N,GND*%
X125069600Y-97130700D03*
%TD*%
D16*
%TO.P,J1,1,Signal*%
%TO.N,/Input Signal*%
X124840600Y-90342000D03*
%TO.P,J1,2,GND*%
%TO.N,GND*%
X122300600Y-90342000D03*
D17*
%TO.P,J1,3,GND*%
X119760600Y-85262000D03*
%TO.P,J1,4,GND*%
X129920600Y-85262000D03*
%TD*%
D22*
%TO.P,R4,1*%
%TO.N,Net-(C5-Pad1)*%
X135804200Y-107725000D03*
%TO.P,R4,2*%
%TO.N,/First Stage Low Pass Output*%
X133979200Y-107725000D03*
%TD*%
%TO.P,R9,1*%
%TO.N,Net-(C10-Pad2)*%
X155293700Y-97650000D03*
%TO.P,R9,2*%
%TO.N,/Second Stage High Pass Output*%
X153468700Y-97650000D03*
%TD*%
D23*
%TO.P,J3,1,V-*%
%TO.N,-12V*%
X127730000Y-112004000D03*
%TO.P,J3,2,GND*%
%TO.N,GND*%
X125730000Y-112004000D03*
%TO.P,J3,3,V+*%
%TO.N,+12V*%
X123730000Y-112004000D03*
%TD*%
D12*
%TO.P,C4,1*%
%TO.N,Net-(U1--INA)*%
X124604200Y-101228700D03*
%TO.P,C4,2*%
%TO.N,/First Stage Low Pass Output*%
X124604200Y-102953700D03*
%TD*%
D24*
%TO.P,R10,1*%
%TO.N,GND*%
X152050000Y-99225000D03*
%TO.P,R10,2*%
%TO.N,Net-(U2-+IN_D)*%
X152050000Y-101050000D03*
%TD*%
D12*
%TO.P,C17,1*%
%TO.N,-12V*%
X152700000Y-102625000D03*
%TO.P,C17,2*%
%TO.N,GND*%
X152700000Y-104350000D03*
%TD*%
D20*
%TO.P,U1,1,OUTA*%
%TO.N,/First Stage Low Pass Output*%
X121327600Y-102650000D03*
%TO.P,U1,2,-INA*%
%TO.N,Net-(U1--INA)*%
X121327600Y-101380000D03*
%TO.P,U1,3,+INA*%
%TO.N,GND*%
X121327600Y-100110000D03*
%TO.P,U1,4,V-*%
%TO.N,-12V*%
X121327600Y-98840000D03*
%TO.P,U1,5,+INB*%
%TO.N,/Input Signal*%
X116400000Y-98840000D03*
%TO.P,U1,6,-INB*%
%TO.N,/Input Buffer Output*%
X116400000Y-100110000D03*
%TO.P,U1,7,OUTB*%
X116400000Y-101380000D03*
%TO.P,U1,8,V+*%
%TO.N,+12V*%
X116400000Y-102650000D03*
%TD*%
D21*
%TO.P,C3,1*%
%TO.N,Net-(C3-Pad1)*%
X129717500Y-102970000D03*
%TO.P,C3,2*%
%TO.N,GND*%
X131442500Y-102970000D03*
%TD*%
D10*
%TO.P,C14,1*%
%TO.N,-12V*%
X123545600Y-98855700D03*
%TO.P,C14,2*%
%TO.N,GND*%
X123545600Y-97130700D03*
%TD*%
D12*
%TO.P,C12,1*%
%TO.N,+12V*%
X114215600Y-102651100D03*
%TO.P,C12,2*%
%TO.N,GND*%
X114215600Y-104376100D03*
%TD*%
%TO.P,C6,1*%
%TO.N,Net-(U2--IN_B)*%
X140863600Y-106000000D03*
%TO.P,C6,2*%
%TO.N,/Second Stage Low Pass Output*%
X140863600Y-107725000D03*
%TD*%
D25*
%TO.P,D1,1,A1*%
%TO.N,GND*%
X116890800Y-115842800D03*
%TO.P,D1,2,A2*%
%TO.N,+12V*%
X116890800Y-111842800D03*
%TD*%
D22*
%TO.P,R6,1*%
%TO.N,/Second Stage Low Pass Output*%
X139204200Y-107725000D03*
%TO.P,R6,2*%
%TO.N,Net-(C5-Pad1)*%
X137379200Y-107725000D03*
%TD*%
D12*
%TO.P,C11,1*%
%TO.N,+12V*%
X112615400Y-102651100D03*
%TO.P,C11,2*%
%TO.N,GND*%
X112615400Y-104376100D03*
%TD*%
D22*
%TO.P,R5,1*%
%TO.N,Net-(U2--IN_B)*%
X139216700Y-106025000D03*
%TO.P,R5,2*%
%TO.N,Net-(C5-Pad1)*%
X137391700Y-106025000D03*
%TD*%
D13*
%TO.P,R7,1*%
%TO.N,Net-(C7-Pad1)*%
X151100000Y-108312500D03*
%TO.P,R7,2*%
%TO.N,/First Stage High Pass Output*%
X151100000Y-106487500D03*
%TD*%
%TO.P,R8,1*%
%TO.N,GND*%
X148680000Y-110062500D03*
%TO.P,R8,2*%
%TO.N,Net-(U2-+IN_C)*%
X148680000Y-108237500D03*
%TD*%
D10*
%TO.P,C7,1*%
%TO.N,Net-(C7-Pad1)*%
X143865600Y-109980900D03*
%TO.P,C7,2*%
%TO.N,/Second Stage Low Pass Output*%
X143865600Y-108255900D03*
%TD*%
D26*
%TO.P,D3,1,A1*%
%TO.N,/Output Signal*%
X140582400Y-96215200D03*
%TO.P,D3,2,A2*%
%TO.N,GND*%
X136582400Y-96215200D03*
%TD*%
D12*
%TO.P,C15,1*%
%TO.N,+12V*%
X139660000Y-102587500D03*
%TO.P,C15,2*%
%TO.N,GND*%
X139660000Y-104312500D03*
%TD*%
D27*
%TO.N,GND*%
X148720000Y-111190000D03*
X149900000Y-109230000D03*
X149950000Y-110070000D03*
X109820000Y-114900000D03*
X133940000Y-80910000D03*
X113120000Y-113320000D03*
X128310000Y-99700000D03*
X143630000Y-83350000D03*
X160570000Y-101500000D03*
X146910000Y-97030000D03*
X155860000Y-108030000D03*
X141240000Y-93450000D03*
X154000000Y-104320000D03*
X150800000Y-99480000D03*
X147510000Y-116890000D03*
X112600000Y-109510000D03*
X142280000Y-109200000D03*
X144900000Y-79440000D03*
X157340000Y-116760000D03*
X157790000Y-94380000D03*
X108440000Y-111330000D03*
X126370000Y-97070000D03*
X109020000Y-79780000D03*
X145430000Y-107690000D03*
X125370000Y-106250000D03*
X134440000Y-79160000D03*
X141720000Y-110740000D03*
X148720000Y-79880000D03*
X122310000Y-97030000D03*
X108130000Y-101020000D03*
X110640000Y-110810000D03*
X142840000Y-116890000D03*
X113670000Y-90880000D03*
X119570000Y-80360000D03*
X134240000Y-104000000D03*
X155450000Y-116790000D03*
X154070000Y-99670000D03*
X115280000Y-115940000D03*
X111810000Y-79400000D03*
X122610000Y-105540000D03*
X110190000Y-108100000D03*
X160400000Y-86820000D03*
X108270000Y-113560000D03*
X159510000Y-116690000D03*
X108400000Y-89200000D03*
X108400000Y-87750000D03*
X132410000Y-106640000D03*
X136850000Y-98390000D03*
X131560000Y-116280000D03*
X125710000Y-92580000D03*
X111640000Y-86720000D03*
X123230000Y-100180000D03*
X108240000Y-99370000D03*
X153990000Y-105070000D03*
X124110000Y-80160000D03*
X108650000Y-94180000D03*
X128580000Y-105900000D03*
X136060000Y-115250000D03*
X119740000Y-116170000D03*
X126940000Y-107820000D03*
X160540000Y-99950000D03*
X140160000Y-116830000D03*
X160130000Y-115110000D03*
X153370000Y-99230000D03*
X152020000Y-105390000D03*
X112840000Y-98110000D03*
X128050000Y-98480000D03*
X136080000Y-116990000D03*
X158030000Y-79400000D03*
X108370000Y-91190000D03*
X145670000Y-103800000D03*
X142530000Y-92190000D03*
X128040000Y-105300000D03*
X118130000Y-93980000D03*
X136090000Y-116240000D03*
X149230000Y-117000000D03*
X135810000Y-102890000D03*
X115480000Y-105160000D03*
X160500000Y-79190000D03*
X134180000Y-95050000D03*
X113820000Y-99880000D03*
X108130000Y-84180000D03*
X131170000Y-106600000D03*
X108540000Y-96550000D03*
X148680000Y-91220000D03*
X108100000Y-115350000D03*
X116110000Y-91890000D03*
X115660000Y-79470000D03*
X158100000Y-114450000D03*
X137620000Y-103680000D03*
X111290000Y-116650000D03*
X160470000Y-103250000D03*
X126510000Y-115380000D03*
X153730000Y-116930000D03*
X129180000Y-108900000D03*
X155310000Y-79440000D03*
X111050000Y-83250000D03*
X145310000Y-108630000D03*
X108200000Y-104900000D03*
X160540000Y-107990000D03*
X160540000Y-110230000D03*
X115680000Y-97280000D03*
X136470000Y-93810000D03*
X108370000Y-109270000D03*
X131190000Y-79680000D03*
X160470000Y-90260000D03*
X142400000Y-103950000D03*
X160370000Y-92870000D03*
X145220000Y-92100000D03*
X132950000Y-105260000D03*
X145520000Y-93560000D03*
X160500000Y-94520000D03*
X119660000Y-91570000D03*
X140350000Y-79250000D03*
X148960000Y-94830000D03*
X160470000Y-112190000D03*
X152980000Y-90880000D03*
X160020000Y-80470000D03*
X108340000Y-116480000D03*
X153360000Y-79160000D03*
X145000000Y-95900000D03*
X129090000Y-89500000D03*
X152780000Y-108130000D03*
X112810000Y-95800000D03*
X118200000Y-89440000D03*
X150700000Y-98870000D03*
X153180000Y-80190000D03*
X108240000Y-107140000D03*
X114830000Y-92870000D03*
X156140000Y-83460000D03*
X160300000Y-88540000D03*
X160570000Y-97680000D03*
X160300000Y-82180000D03*
X154020000Y-109670000D03*
X145660000Y-105780000D03*
X160500000Y-84560000D03*
X113530000Y-94120000D03*
X148650000Y-88820000D03*
X113630000Y-116830000D03*
X108130000Y-102980000D03*
X119700000Y-93980000D03*
X157070000Y-89330000D03*
X127170000Y-99810000D03*
X153080000Y-82010000D03*
X113080000Y-84690000D03*
X115670000Y-95990000D03*
X125240000Y-86410000D03*
X134110000Y-86510000D03*
X144350000Y-85520000D03*
X110710000Y-99540000D03*
X126290000Y-107140000D03*
X146470000Y-102640000D03*
X134280000Y-90810000D03*
X132210000Y-116740000D03*
X111040000Y-104340000D03*
X138170000Y-88680000D03*
X116710000Y-94860000D03*
X145420000Y-116860000D03*
X153250000Y-88510000D03*
X127400000Y-104510000D03*
X112470000Y-106080000D03*
X124610000Y-116500000D03*
X137480000Y-116830000D03*
X146040000Y-99530000D03*
X114220000Y-105990000D03*
X111940000Y-89200000D03*
X137820000Y-80600000D03*
X160500000Y-105620000D03*
X151160000Y-116890000D03*
X156430000Y-105270000D03*
%TO.N,+12V*%
X137740000Y-101940000D03*
X116382800Y-104394000D03*
X121259600Y-111861600D03*
%TO.N,-12V*%
X129946400Y-111912400D03*
X126390400Y-98501200D03*
X154076400Y-102616000D03*
%TD*%
D28*
%TO.N,/Second Stage Low Pass Output*%
X139204200Y-107725000D02*
X140863600Y-107725000D01*
%TO.N,GND*%
X141663600Y-104325000D02*
X139963600Y-104325000D01*
X151200000Y-104350000D02*
X152700000Y-104350000D01*
%TO.N,/First Stage Low Pass Output*%
X126282500Y-105352900D02*
X128654600Y-107725000D01*
X123578500Y-102953700D02*
X123274800Y-102650000D01*
X124604200Y-102953700D02*
X126281400Y-102953700D01*
X128654600Y-107725000D02*
X133979200Y-107725000D01*
X124604200Y-102953700D02*
X123578500Y-102953700D01*
X126282500Y-102954800D02*
X126282500Y-105352900D01*
X126281400Y-102953700D02*
X126282500Y-102954800D01*
X123274800Y-102650000D02*
X121327600Y-102650000D01*
%TO.N,/Second Stage Low Pass Output*%
X143865600Y-108255900D02*
X143865600Y-106478600D01*
X141499800Y-107725000D02*
X142759800Y-106465000D01*
X142759800Y-106465000D02*
X143879200Y-106465000D01*
X140863600Y-107725000D02*
X141499800Y-107725000D01*
X143865600Y-106478600D02*
X143879200Y-106465000D01*
%TO.N,/First Stage High Pass Output*%
X151077500Y-106465000D02*
X151100000Y-106487500D01*
X148806800Y-106465000D02*
X151077500Y-106465000D01*
X151100000Y-106487500D02*
X153558800Y-106487500D01*
X153558800Y-106487500D02*
X153569500Y-106476800D01*
X148806800Y-106465000D02*
X148806800Y-105195000D01*
%TO.N,+12V*%
X138387500Y-102587500D02*
X137740000Y-101940000D01*
X116398900Y-102651100D02*
X116400000Y-102650000D01*
D29*
X119786400Y-111844000D02*
X116892000Y-111844000D01*
D28*
X114215600Y-102651100D02*
X116398900Y-102651100D01*
X139963600Y-102600000D02*
X141663600Y-102600000D01*
X141718600Y-102655000D02*
X141663600Y-102600000D01*
D29*
X119804000Y-111861600D02*
X119786400Y-111844000D01*
D28*
X139660000Y-102587500D02*
X138387500Y-102587500D01*
X143879200Y-102655000D02*
X141718600Y-102655000D01*
D29*
X116892000Y-111844000D02*
X116890800Y-111842800D01*
D28*
X116400000Y-102650000D02*
X116400000Y-104376800D01*
X116400000Y-104376800D02*
X116382800Y-104394000D01*
D29*
X121259600Y-111861600D02*
X119804000Y-111861600D01*
X112615400Y-102651100D02*
X114215600Y-102651100D01*
X121238000Y-111840000D02*
X121259600Y-111861600D01*
%TO.N,-12V*%
X134518400Y-111995200D02*
X131672400Y-111995200D01*
D28*
X151170000Y-102655000D02*
X151200000Y-102625000D01*
D29*
X129958800Y-111900000D02*
X130004400Y-111945600D01*
X123545600Y-98855700D02*
X125069600Y-98855700D01*
D28*
X152700000Y-102625000D02*
X151200000Y-102625000D01*
D29*
X131672400Y-111995200D02*
X131622800Y-111945600D01*
D28*
X125069600Y-98855700D02*
X126035900Y-98855700D01*
X154067400Y-102625000D02*
X154076400Y-102616000D01*
X123529900Y-98840000D02*
X123545600Y-98855700D01*
X152700000Y-102625000D02*
X154067400Y-102625000D01*
X148806800Y-102655000D02*
X151170000Y-102655000D01*
D29*
X129946400Y-111912400D02*
X129958800Y-111900000D01*
X130004400Y-111945600D02*
X131622800Y-111945600D01*
D28*
X126035900Y-98855700D02*
X126390400Y-98501200D01*
X121327600Y-98840000D02*
X123529900Y-98840000D01*
%TO.N,/Output Signal*%
X142025000Y-98845000D02*
X140582400Y-97402400D01*
X143840600Y-90342000D02*
X143840600Y-95529400D01*
X143154800Y-96215200D02*
X140582400Y-96215200D01*
X143840600Y-95529400D02*
X143154800Y-96215200D01*
X143879200Y-98845000D02*
X142025000Y-98845000D01*
X140582400Y-97402400D02*
X140582400Y-96215200D01*
X143879200Y-100115000D02*
X143879200Y-98845000D01*
%TO.N,/Input Buffer Output*%
X116400000Y-101380000D02*
X116400000Y-100110000D01*
X127350000Y-95707200D02*
X127457200Y-95707200D01*
X116400000Y-101380000D02*
X117974400Y-101380000D01*
X118516400Y-99110800D02*
X121920000Y-95707200D01*
X127457200Y-95707200D02*
X129710000Y-97960000D01*
X121920000Y-95707200D02*
X127350000Y-95707200D01*
X117974400Y-101380000D02*
X118516400Y-100838000D01*
X118516400Y-100838000D02*
X118516400Y-99110800D01*
X129710000Y-97960000D02*
X129710000Y-99407500D01*
%TO.N,/Second Stage High Pass Output*%
X148806800Y-100115000D02*
X148806800Y-98845000D01*
X148806800Y-100115000D02*
X147281000Y-100115000D01*
X146011000Y-101385000D02*
X143879200Y-101385000D01*
X149288800Y-97650000D02*
X148806800Y-98132000D01*
X148806800Y-98132000D02*
X148806800Y-98845000D01*
X153537500Y-97650000D02*
X149288800Y-97650000D01*
X147281000Y-100115000D02*
X146011000Y-101385000D01*
%TO.N,/Input Signal*%
X114943600Y-98840000D02*
X116400000Y-98840000D01*
X114249200Y-95402400D02*
X114249200Y-98145600D01*
X124840600Y-90342000D02*
X124840600Y-91364200D01*
X114249200Y-98145600D02*
X114943600Y-98840000D01*
X116789200Y-92862400D02*
X114249200Y-95402400D01*
X123342400Y-92862400D02*
X116789200Y-92862400D01*
X124840600Y-91364200D02*
X123342400Y-92862400D01*
%TO.N,Net-(C3-Pad1)*%
X129717500Y-102970000D02*
X129717500Y-101240000D01*
X128112400Y-101232500D02*
X128107500Y-101227600D01*
X129717500Y-101240000D02*
X129710000Y-101232500D01*
X129710000Y-101232500D02*
X128112400Y-101232500D01*
X128107500Y-102954800D02*
X128107500Y-101227600D01*
X128122700Y-102970000D02*
X128107500Y-102954800D01*
%TO.N,Net-(C5-Pad1)*%
X135804200Y-107725000D02*
X135804200Y-106167000D01*
X135804200Y-107725000D02*
X137379200Y-107725000D01*
X137391700Y-107712500D02*
X137379200Y-107725000D01*
X137391700Y-106025000D02*
X137391700Y-107712500D01*
%TO.N,Net-(C7-Pad1)*%
X149660000Y-112210000D02*
X151100000Y-110770000D01*
X146750000Y-111393200D02*
X147015200Y-111658400D01*
X147566800Y-112210000D02*
X149660000Y-112210000D01*
X146750000Y-109962500D02*
X143884000Y-109962500D01*
X151100000Y-110770000D02*
X151100000Y-108312500D01*
X147015200Y-111658400D02*
X147566800Y-112210000D01*
X146750000Y-109962500D02*
X146750000Y-111393200D01*
X143884000Y-109962500D02*
X143865600Y-109980900D01*
%TO.N,Net-(C10-Pad2)*%
X155293400Y-101041200D02*
X155293400Y-97650300D01*
X155294500Y-101042300D02*
X155293400Y-101041200D01*
X155294500Y-106476800D02*
X155294500Y-101042300D01*
X155293400Y-97650300D02*
X155293700Y-97650000D01*
%TO.N,Net-(U1--INA)*%
X124452900Y-101380000D02*
X124604200Y-101228700D01*
X123003600Y-101380000D02*
X123154900Y-101228700D01*
X123154900Y-101228700D02*
X124604200Y-101228700D01*
X124604200Y-101228700D02*
X126281400Y-101228700D01*
X126281400Y-101228700D02*
X126282500Y-101227600D01*
X121327600Y-101380000D02*
X123003600Y-101380000D01*
%TO.N,Net-(U2--IN_B)*%
X140838600Y-106025000D02*
X140863600Y-106000000D01*
X140863600Y-106000000D02*
X141599200Y-106000000D01*
X139216700Y-106025000D02*
X140838600Y-106025000D01*
X142404200Y-105195000D02*
X143879200Y-105195000D01*
X141599200Y-106000000D02*
X142404200Y-105195000D01*
%TO.N,Net-(U2-+IN_C)*%
X146750000Y-108237500D02*
X148680000Y-108237500D01*
X147316200Y-103925000D02*
X148806800Y-103925000D01*
X146750000Y-104491200D02*
X147316200Y-103925000D01*
X146750000Y-108237500D02*
X146750000Y-104491200D01*
%TO.N,Net-(U2-+IN_D)*%
X151070400Y-101050000D02*
X150735400Y-101385000D01*
X153568400Y-101041200D02*
X152058800Y-101041200D01*
X152058800Y-101041200D02*
X152050000Y-101050000D01*
X152050000Y-101050000D02*
X151070400Y-101050000D01*
X150735400Y-101385000D02*
X148806800Y-101385000D01*
%TD*%
%TA.AperFunction,Conductor*%
%TO.N,GND*%
G36*
X150104784Y-108709685D02*
G01*
X150150539Y-108762489D01*
X150155451Y-108774994D01*
X150189092Y-108876516D01*
X150273111Y-109012733D01*
X150279661Y-109023351D01*
X150313181Y-109056871D01*
X150346666Y-109118194D01*
X150349500Y-109144552D01*
X150349500Y-110407770D01*
X150329815Y-110474809D01*
X150313181Y-110495451D01*
X149385451Y-111423181D01*
X149324128Y-111456666D01*
X149297770Y-111459500D01*
X147929029Y-111459500D01*
X147861990Y-111439815D01*
X147841348Y-111423181D01*
X147536819Y-111118651D01*
X147522115Y-111091723D01*
X147505523Y-111065905D01*
X147504631Y-111059704D01*
X147503334Y-111057328D01*
X147500500Y-111030970D01*
X147500500Y-110844552D01*
X147520185Y-110777513D01*
X147536819Y-110756871D01*
X147551940Y-110741750D01*
X147570340Y-110723350D01*
X147660908Y-110576516D01*
X147693923Y-110476881D01*
X147733694Y-110419439D01*
X147798210Y-110392615D01*
X147866986Y-110404930D01*
X147918186Y-110452472D01*
X147926982Y-110470397D01*
X147969576Y-110578407D01*
X147969579Y-110578413D01*
X148058856Y-110696143D01*
X148176586Y-110785420D01*
X148176592Y-110785423D01*
X148314041Y-110839626D01*
X148400428Y-110850000D01*
X148430000Y-110850000D01*
X148930000Y-110850000D01*
X148959572Y-110850000D01*
X149045958Y-110839626D01*
X149183407Y-110785423D01*
X149183413Y-110785420D01*
X149301143Y-110696143D01*
X149390420Y-110578413D01*
X149390423Y-110578407D01*
X149444626Y-110440958D01*
X149455000Y-110354571D01*
X149455000Y-110312500D01*
X148930000Y-110312500D01*
X148930000Y-110850000D01*
X148430000Y-110850000D01*
X148430000Y-110186500D01*
X148449685Y-110119461D01*
X148502489Y-110073706D01*
X148554000Y-110062500D01*
X148680000Y-110062500D01*
X148680000Y-109936500D01*
X148699685Y-109869461D01*
X148752489Y-109823706D01*
X148804000Y-109812500D01*
X149455000Y-109812500D01*
X149455000Y-109770428D01*
X149444626Y-109684041D01*
X149390423Y-109546592D01*
X149390420Y-109546586D01*
X149301144Y-109428858D01*
X149219248Y-109366754D01*
X149177725Y-109310561D01*
X149173174Y-109240840D01*
X149207039Y-109179726D01*
X149229078Y-109162411D01*
X149231513Y-109160908D01*
X149231516Y-109160908D01*
X149378350Y-109070340D01*
X149500340Y-108948350D01*
X149590908Y-108801516D01*
X149594715Y-108790026D01*
X149599697Y-108774994D01*
X149639470Y-108717550D01*
X149703986Y-108690728D01*
X149717402Y-108690000D01*
X150037745Y-108690000D01*
X150104784Y-108709685D01*
G37*
%TD.AperFunction*%
%TA.AperFunction,Conductor*%
G36*
X154504495Y-103383592D02*
G01*
X154540148Y-103443681D01*
X154544000Y-103474347D01*
X154544000Y-105200892D01*
X154524315Y-105267931D01*
X154501366Y-105294463D01*
X154240958Y-105520905D01*
X154177453Y-105550041D01*
X154120589Y-105545040D01*
X154019753Y-105511626D01*
X154019751Y-105511625D01*
X153918678Y-105501300D01*
X153220330Y-105501300D01*
X153220312Y-105501301D01*
X153119247Y-105511625D01*
X152955484Y-105565892D01*
X152955481Y-105565893D01*
X152808648Y-105656461D01*
X152764429Y-105700681D01*
X152703106Y-105734166D01*
X152676748Y-105737000D01*
X151932052Y-105737000D01*
X151865013Y-105717315D01*
X151844371Y-105700681D01*
X151798351Y-105654661D01*
X151798350Y-105654660D01*
X151680360Y-105581883D01*
X151651518Y-105564093D01*
X151651513Y-105564091D01*
X151650069Y-105563612D01*
X151487753Y-105509826D01*
X151487751Y-105509825D01*
X151386684Y-105499500D01*
X151386677Y-105499500D01*
X150974000Y-105499500D01*
X150965314Y-105496949D01*
X150956353Y-105498238D01*
X150932312Y-105487259D01*
X150906961Y-105479815D01*
X150901033Y-105472974D01*
X150892797Y-105469213D01*
X150878507Y-105446978D01*
X150861206Y-105427011D01*
X150858918Y-105416496D01*
X150855023Y-105410435D01*
X150850000Y-105375500D01*
X150850000Y-105311500D01*
X150869685Y-105244461D01*
X150922489Y-105198706D01*
X150943327Y-105194172D01*
X150950000Y-105187500D01*
X151450000Y-105187500D01*
X151479572Y-105187500D01*
X151565958Y-105177126D01*
X151703407Y-105122923D01*
X151703413Y-105122920D01*
X151821144Y-105033642D01*
X151851196Y-104994013D01*
X151907388Y-104952489D01*
X151977109Y-104947937D01*
X152038223Y-104981801D01*
X152048804Y-104994013D01*
X152078855Y-105033642D01*
X152196586Y-105122920D01*
X152196592Y-105122923D01*
X152334041Y-105177126D01*
X152420428Y-105187500D01*
X152450000Y-105187500D01*
X152950000Y-105187500D01*
X152979572Y-105187500D01*
X153065958Y-105177126D01*
X153203407Y-105122923D01*
X153203413Y-105122920D01*
X153321143Y-105033643D01*
X153410420Y-104915913D01*
X153410423Y-104915907D01*
X153464626Y-104778458D01*
X153475000Y-104692071D01*
X153475000Y-104600000D01*
X152950000Y-104600000D01*
X152950000Y-105187500D01*
X152450000Y-105187500D01*
X152450000Y-104600000D01*
X151450000Y-104600000D01*
X151450000Y-105187500D01*
X150950000Y-105187500D01*
X150950000Y-104474000D01*
X150969685Y-104406961D01*
X151022489Y-104361206D01*
X151074000Y-104350000D01*
X151200000Y-104350000D01*
X151200000Y-104224000D01*
X151219685Y-104156961D01*
X151272489Y-104111206D01*
X151324000Y-104100000D01*
X153475000Y-104100000D01*
X153475000Y-104007928D01*
X153464626Y-103921541D01*
X153410423Y-103784092D01*
X153410420Y-103784086D01*
X153346344Y-103699589D01*
X153321521Y-103634278D01*
X153335949Y-103565914D01*
X153361479Y-103533147D01*
X153370101Y-103525263D01*
X153398350Y-103507840D01*
X153496330Y-103409859D01*
X153498383Y-103407983D01*
X153527366Y-103393802D01*
X153555694Y-103378334D01*
X153559906Y-103377881D01*
X153561143Y-103377276D01*
X153563248Y-103377521D01*
X153582052Y-103375500D01*
X153793524Y-103375500D01*
X153837020Y-103384151D01*
X153837076Y-103383969D01*
X153838933Y-103384532D01*
X153840976Y-103384938D01*
X153842903Y-103385737D01*
X153961955Y-103409418D01*
X153997553Y-103416499D01*
X153997556Y-103416500D01*
X153997558Y-103416500D01*
X154155244Y-103416500D01*
X154155245Y-103416499D01*
X154309897Y-103385737D01*
X154372549Y-103359785D01*
X154442016Y-103352317D01*
X154504495Y-103383592D01*
G37*
%TD.AperFunction*%
%TA.AperFunction,Conductor*%
G36*
X150962118Y-98529693D02*
G01*
X151008246Y-98559665D01*
X151178269Y-98734689D01*
X151244317Y-98802679D01*
X151276909Y-98864480D01*
X151278490Y-98903863D01*
X151275000Y-98932927D01*
X151275000Y-98975000D01*
X152825000Y-98975000D01*
X152825000Y-98932922D01*
X152821679Y-98905271D01*
X152833229Y-98836363D01*
X152880200Y-98784638D01*
X152902567Y-98773897D01*
X153291974Y-98632906D01*
X153334188Y-98625499D01*
X153642211Y-98625499D01*
X153667255Y-98632852D01*
X153693115Y-98636429D01*
X153704879Y-98643900D01*
X153709250Y-98645184D01*
X153722909Y-98655351D01*
X153798842Y-98720436D01*
X153818612Y-98741905D01*
X154150000Y-99200000D01*
X154419998Y-99469999D01*
X154419999Y-99469999D01*
X154420000Y-99470000D01*
X154420000Y-99469999D01*
X154428406Y-99473043D01*
X154436547Y-99471873D01*
X154455632Y-99480589D01*
X154476215Y-99484652D01*
X154486773Y-99494810D01*
X154500103Y-99500898D01*
X154511445Y-99518547D01*
X154526565Y-99533094D01*
X154530628Y-99548397D01*
X154537877Y-99559676D01*
X154542900Y-99594611D01*
X154542900Y-99717863D01*
X154523215Y-99784902D01*
X154470411Y-99830657D01*
X154418900Y-99841863D01*
X154355329Y-99841863D01*
X154090641Y-100048650D01*
X154025693Y-100074411D01*
X154001700Y-100074293D01*
X153917589Y-100065700D01*
X153299386Y-100065700D01*
X153232347Y-100046015D01*
X153186592Y-99993211D01*
X153177459Y-99964279D01*
X153160000Y-99870000D01*
X153159999Y-99869999D01*
X152887782Y-99744361D01*
X152889263Y-99741150D01*
X152847734Y-99718361D01*
X152814378Y-99656967D01*
X152815188Y-99611532D01*
X152813679Y-99611351D01*
X152825000Y-99517071D01*
X152825000Y-99475000D01*
X151275000Y-99475000D01*
X151275000Y-99517071D01*
X151285373Y-99603458D01*
X151296855Y-99632574D01*
X151303137Y-99702160D01*
X151270800Y-99764097D01*
X151220161Y-99795883D01*
X150738837Y-99953819D01*
X150700177Y-99960000D01*
X150421899Y-99960000D01*
X150354860Y-99940315D01*
X150309105Y-99887511D01*
X150297899Y-99836000D01*
X150297899Y-99787729D01*
X150297898Y-99787723D01*
X150294993Y-99760700D01*
X150291990Y-99732755D01*
X150291491Y-99728116D01*
X150242028Y-99595500D01*
X150241196Y-99593269D01*
X150212029Y-99554307D01*
X150187613Y-99488848D01*
X150202464Y-99420575D01*
X150212021Y-99405702D01*
X150241196Y-99366731D01*
X150291491Y-99231883D01*
X150297900Y-99172273D01*
X150297899Y-98834725D01*
X150299972Y-98812147D01*
X150315061Y-98730667D01*
X150346622Y-98668336D01*
X150406875Y-98632961D01*
X150410040Y-98632213D01*
X150892408Y-98525020D01*
X150962118Y-98529693D01*
G37*
%TD.AperFunction*%
%TA.AperFunction,Conductor*%
G36*
X161283139Y-78528585D02*
G01*
X161328894Y-78581389D01*
X161340100Y-78632900D01*
X161340100Y-117383900D01*
X161320415Y-117450939D01*
X161267611Y-117496694D01*
X161216100Y-117507900D01*
X135719518Y-117507900D01*
X135652479Y-117488215D01*
X135606724Y-117435411D01*
X135596780Y-117366253D01*
X135620714Y-117308974D01*
X135652320Y-117267295D01*
X135707786Y-117126643D01*
X135718400Y-117038253D01*
X135718400Y-116245200D01*
X133318400Y-116245200D01*
X133318400Y-117038253D01*
X133329013Y-117126643D01*
X133384479Y-117267295D01*
X133416086Y-117308974D01*
X133440909Y-117374286D01*
X133426481Y-117442650D01*
X133377384Y-117492361D01*
X133317282Y-117507900D01*
X117942711Y-117507900D01*
X117875672Y-117488215D01*
X117829917Y-117435411D01*
X117819973Y-117366253D01*
X117848998Y-117302697D01*
X117867785Y-117285096D01*
X117933364Y-117235364D01*
X118024720Y-117114895D01*
X118080186Y-116974243D01*
X118090800Y-116885853D01*
X118090800Y-116092800D01*
X115690800Y-116092800D01*
X115690800Y-116885853D01*
X115701413Y-116974243D01*
X115756879Y-117114895D01*
X115848235Y-117235364D01*
X115913815Y-117285096D01*
X115955338Y-117341289D01*
X115959889Y-117411010D01*
X115926024Y-117472124D01*
X115864494Y-117505228D01*
X115838889Y-117507900D01*
X107465100Y-117507900D01*
X107398061Y-117488215D01*
X107352306Y-117435411D01*
X107341100Y-117383900D01*
X107341100Y-114799746D01*
X115690800Y-114799746D01*
X115690800Y-115592800D01*
X116640800Y-115592800D01*
X117140800Y-115592800D01*
X118090800Y-115592800D01*
X118090800Y-115312053D01*
X118791400Y-115312053D01*
X118802013Y-115400443D01*
X118857479Y-115541095D01*
X118948835Y-115661564D01*
X119069304Y-115752920D01*
X119209956Y-115808386D01*
X119298346Y-115819000D01*
X119536400Y-115819000D01*
X120036400Y-115819000D01*
X120274454Y-115819000D01*
X120362843Y-115808386D01*
X120503495Y-115752920D01*
X120623964Y-115661564D01*
X120715320Y-115541095D01*
X120765577Y-115413653D01*
X130627800Y-115413653D01*
X130638413Y-115502043D01*
X130693879Y-115642695D01*
X130785235Y-115763164D01*
X130905704Y-115854520D01*
X131046356Y-115909986D01*
X131134746Y-115920600D01*
X131372800Y-115920600D01*
X131872800Y-115920600D01*
X132110854Y-115920600D01*
X132199243Y-115909986D01*
X132339895Y-115854520D01*
X132460364Y-115763164D01*
X132551720Y-115642695D01*
X132607186Y-115502043D01*
X132617800Y-115413653D01*
X132617800Y-115075600D01*
X131872800Y-115075600D01*
X131872800Y-115920600D01*
X131372800Y-115920600D01*
X131372800Y-115075600D01*
X130627800Y-115075600D01*
X130627800Y-115413653D01*
X120765577Y-115413653D01*
X120770786Y-115400443D01*
X120781400Y-115312053D01*
X120781400Y-114974000D01*
X120036400Y-114974000D01*
X120036400Y-115819000D01*
X119536400Y-115819000D01*
X119536400Y-114974000D01*
X118791400Y-114974000D01*
X118791400Y-115312053D01*
X118090800Y-115312053D01*
X118090800Y-114952146D01*
X133318400Y-114952146D01*
X133318400Y-115745200D01*
X134268400Y-115745200D01*
X134768400Y-115745200D01*
X135718400Y-115745200D01*
X135718400Y-114952146D01*
X135707786Y-114863756D01*
X135652320Y-114723104D01*
X135560964Y-114602635D01*
X135440495Y-114511279D01*
X135299843Y-114455813D01*
X135211454Y-114445200D01*
X134768400Y-114445200D01*
X134768400Y-115745200D01*
X134268400Y-115745200D01*
X134268400Y-114445200D01*
X133825346Y-114445200D01*
X133736956Y-114455813D01*
X133596304Y-114511279D01*
X133475835Y-114602635D01*
X133384479Y-114723104D01*
X133329013Y-114863756D01*
X133318400Y-114952146D01*
X118090800Y-114952146D01*
X118090800Y-114799746D01*
X118080186Y-114711356D01*
X118024720Y-114570704D01*
X117933364Y-114450235D01*
X117812895Y-114358879D01*
X117672243Y-114303413D01*
X117583854Y-114292800D01*
X117140800Y-114292800D01*
X117140800Y-115592800D01*
X116640800Y-115592800D01*
X116640800Y-114292800D01*
X116197746Y-114292800D01*
X116109356Y-114303413D01*
X115968704Y-114358879D01*
X115848235Y-114450235D01*
X115756879Y-114570704D01*
X115701413Y-114711356D01*
X115690800Y-114799746D01*
X107341100Y-114799746D01*
X107341100Y-114135946D01*
X118791400Y-114135946D01*
X118791400Y-114474000D01*
X119536400Y-114474000D01*
X120036400Y-114474000D01*
X120781400Y-114474000D01*
X120781400Y-114237546D01*
X130627800Y-114237546D01*
X130627800Y-114575600D01*
X131372800Y-114575600D01*
X131872800Y-114575600D01*
X132617800Y-114575600D01*
X132617800Y-114237546D01*
X132607186Y-114149156D01*
X132551720Y-114008504D01*
X132460364Y-113888035D01*
X132339895Y-113796679D01*
X132199243Y-113741213D01*
X132110854Y-113730600D01*
X131872800Y-113730600D01*
X131872800Y-114575600D01*
X131372800Y-114575600D01*
X131372800Y-113730600D01*
X131134746Y-113730600D01*
X131046356Y-113741213D01*
X130905704Y-113796679D01*
X130785235Y-113888035D01*
X130693879Y-114008504D01*
X130638413Y-114149156D01*
X130627800Y-114237546D01*
X120781400Y-114237546D01*
X120781400Y-114135946D01*
X120770786Y-114047556D01*
X120715320Y-113906904D01*
X120623964Y-113786435D01*
X120503495Y-113695079D01*
X120362843Y-113639613D01*
X120274454Y-113629000D01*
X120036400Y-113629000D01*
X120036400Y-114474000D01*
X119536400Y-114474000D01*
X119536400Y-113629000D01*
X119298346Y-113629000D01*
X119209956Y-113639613D01*
X119069304Y-113695079D01*
X118948835Y-113786435D01*
X118857479Y-113906904D01*
X118802013Y-114047556D01*
X118791400Y-114135946D01*
X107341100Y-114135946D01*
X107341100Y-110792783D01*
X115490300Y-110792783D01*
X115490300Y-112892801D01*
X115490301Y-112892818D01*
X115500800Y-112995596D01*
X115500801Y-112995599D01*
X115555985Y-113162131D01*
X115555987Y-113162136D01*
X115564177Y-113175414D01*
X115648088Y-113311456D01*
X115772144Y-113435512D01*
X115921466Y-113527614D01*
X116088003Y-113582799D01*
X116190791Y-113593300D01*
X117590808Y-113593299D01*
X117693597Y-113582799D01*
X117860134Y-113527614D01*
X118009456Y-113435512D01*
X118133512Y-113311456D01*
X118225614Y-113162134D01*
X118231143Y-113145447D01*
X118270912Y-113088005D01*
X118298544Y-113071114D01*
X118586191Y-112943462D01*
X118609887Y-112940315D01*
X118632602Y-112932865D01*
X118650713Y-112934892D01*
X118655450Y-112934263D01*
X118667661Y-112936787D01*
X118878167Y-112991495D01*
X118912068Y-113005967D01*
X119022066Y-113073814D01*
X119188603Y-113128999D01*
X119291391Y-113139500D01*
X120281408Y-113139499D01*
X120281416Y-113139498D01*
X120281419Y-113139498D01*
X120357785Y-113131697D01*
X120384197Y-113128999D01*
X120550734Y-113073814D01*
X120636849Y-113020697D01*
X120672385Y-113005811D01*
X121205005Y-112875083D01*
X121243340Y-112865674D01*
X121272898Y-112862100D01*
X121358143Y-112862100D01*
X121401613Y-112853452D01*
X121508301Y-112832231D01*
X121551436Y-112823651D01*
X121610873Y-112799031D01*
X121733514Y-112748232D01*
X121897382Y-112638739D01*
X122036739Y-112499382D01*
X122146232Y-112335514D01*
X122221651Y-112153435D01*
X122223151Y-112145897D01*
X122252462Y-111998540D01*
X122260100Y-111960141D01*
X122260100Y-111900530D01*
X122679500Y-111900530D01*
X122679500Y-112107469D01*
X122719868Y-112310412D01*
X122719870Y-112310420D01*
X122799058Y-112501596D01*
X122914024Y-112673657D01*
X123060342Y-112819975D01*
X123060345Y-112819977D01*
X123232402Y-112934941D01*
X123423580Y-113014130D01*
X123579826Y-113045209D01*
X123626530Y-113054499D01*
X123626534Y-113054500D01*
X123626535Y-113054500D01*
X123833466Y-113054500D01*
X123833467Y-113054499D01*
X124036420Y-113014130D01*
X124227598Y-112934941D01*
X124399655Y-112819977D01*
X124545977Y-112673655D01*
X124660941Y-112501598D01*
X124723949Y-112349483D01*
X124767789Y-112295081D01*
X124834083Y-112273016D01*
X124901782Y-112290295D01*
X124949393Y-112341432D01*
X124953070Y-112349484D01*
X124975883Y-112404560D01*
X125330000Y-112050445D01*
X125330000Y-112056661D01*
X125357259Y-112158394D01*
X125409920Y-112249606D01*
X125484394Y-112324080D01*
X125575606Y-112376741D01*
X125677339Y-112404000D01*
X125683553Y-112404000D01*
X125329437Y-112758114D01*
X125482063Y-112821334D01*
X125482071Y-112821336D01*
X125646277Y-112853999D01*
X125646280Y-112854000D01*
X125813720Y-112854000D01*
X125813722Y-112853999D01*
X125977928Y-112821336D01*
X125977936Y-112821334D01*
X126130561Y-112758114D01*
X125776448Y-112404000D01*
X125782661Y-112404000D01*
X125884394Y-112376741D01*
X125975606Y-112324080D01*
X126050080Y-112249606D01*
X126102741Y-112158394D01*
X126130000Y-112056661D01*
X126130000Y-112050447D01*
X126484114Y-112404561D01*
X126506928Y-112349484D01*
X126550768Y-112295080D01*
X126617062Y-112273015D01*
X126684762Y-112290294D01*
X126732373Y-112341431D01*
X126736050Y-112349483D01*
X126799057Y-112501595D01*
X126914024Y-112673657D01*
X127060342Y-112819975D01*
X127060345Y-112819977D01*
X127232402Y-112934941D01*
X127423580Y-113014130D01*
X127579826Y-113045209D01*
X127626530Y-113054499D01*
X127626534Y-113054500D01*
X127626535Y-113054500D01*
X127833466Y-113054500D01*
X127833467Y-113054499D01*
X128036420Y-113014130D01*
X128227598Y-112934941D01*
X128399655Y-112819977D01*
X128545977Y-112673655D01*
X128660941Y-112501598D01*
X128740130Y-112310420D01*
X128753882Y-112241285D01*
X128786266Y-112179374D01*
X128846982Y-112144800D01*
X128916751Y-112148539D01*
X128973424Y-112189405D01*
X128990060Y-112218023D01*
X129059767Y-112386310D01*
X129059772Y-112386320D01*
X129169260Y-112550180D01*
X129169263Y-112550184D01*
X129308615Y-112689536D01*
X129308623Y-112689542D01*
X129472475Y-112799024D01*
X129472478Y-112799025D01*
X129472486Y-112799031D01*
X129472492Y-112799033D01*
X129472493Y-112799034D01*
X129483063Y-112803412D01*
X129504506Y-112814873D01*
X129530478Y-112832227D01*
X129530481Y-112832229D01*
X129530486Y-112832232D01*
X129530488Y-112832233D01*
X129530492Y-112832235D01*
X129659233Y-112885561D01*
X129702144Y-112903335D01*
X129712564Y-112907651D01*
X129809212Y-112926875D01*
X129833247Y-112931656D01*
X129905858Y-112946100D01*
X129905859Y-112946100D01*
X129905860Y-112946100D01*
X130102940Y-112946100D01*
X130133101Y-112946100D01*
X130164291Y-112950087D01*
X130714567Y-113093095D01*
X130748468Y-113107567D01*
X130858466Y-113175414D01*
X131025003Y-113230599D01*
X131127791Y-113241100D01*
X132117808Y-113241099D01*
X132117816Y-113241098D01*
X132117819Y-113241098D01*
X132174102Y-113235348D01*
X132220597Y-113230599D01*
X132387134Y-113175414D01*
X132432760Y-113147270D01*
X132471254Y-113131697D01*
X132722360Y-113076542D01*
X132792059Y-113081386D01*
X132799312Y-113084338D01*
X133110400Y-113222599D01*
X133163667Y-113267815D01*
X133177744Y-113296906D01*
X133183584Y-113314531D01*
X133183586Y-113314534D01*
X133275688Y-113463856D01*
X133399744Y-113587912D01*
X133549066Y-113680014D01*
X133715603Y-113735199D01*
X133818391Y-113745700D01*
X135218408Y-113745699D01*
X135321197Y-113735199D01*
X135487734Y-113680014D01*
X135637056Y-113587912D01*
X135761112Y-113463856D01*
X135853214Y-113314534D01*
X135908399Y-113147997D01*
X135918900Y-113045209D01*
X135918899Y-110945192D01*
X135908399Y-110842403D01*
X135853214Y-110675866D01*
X135761112Y-110526544D01*
X135637056Y-110402488D01*
X135519657Y-110330076D01*
X135487736Y-110310387D01*
X135487731Y-110310385D01*
X135486262Y-110309898D01*
X135321197Y-110255201D01*
X135321195Y-110255200D01*
X135218410Y-110244700D01*
X133818398Y-110244700D01*
X133818381Y-110244701D01*
X133715603Y-110255200D01*
X133715600Y-110255201D01*
X133549068Y-110310385D01*
X133549063Y-110310387D01*
X133399742Y-110402489D01*
X133275689Y-110526542D01*
X133183584Y-110675868D01*
X133177745Y-110693491D01*
X133137972Y-110750935D01*
X133110401Y-110767798D01*
X132845715Y-110885437D01*
X132819691Y-110888908D01*
X132794449Y-110896121D01*
X132780941Y-110894078D01*
X132776459Y-110894676D01*
X132759554Y-110890843D01*
X132669679Y-110863740D01*
X132588740Y-110839331D01*
X132542616Y-110811736D01*
X132542119Y-110812366D01*
X132537300Y-110808556D01*
X132536861Y-110808293D01*
X132536457Y-110807889D01*
X132536456Y-110807888D01*
X132399399Y-110723351D01*
X132387136Y-110715787D01*
X132387131Y-110715785D01*
X132374586Y-110711628D01*
X132220597Y-110660601D01*
X132220595Y-110660600D01*
X132117810Y-110650100D01*
X131127798Y-110650100D01*
X131127780Y-110650101D01*
X131025003Y-110660600D01*
X131025000Y-110660601D01*
X130900100Y-110701989D01*
X130858466Y-110715786D01*
X130791856Y-110756871D01*
X130748473Y-110783629D01*
X130714568Y-110798102D01*
X130236126Y-110922442D01*
X130180745Y-110924046D01*
X130057344Y-110899500D01*
X130057340Y-110899500D01*
X129860260Y-110899500D01*
X129860257Y-110899500D01*
X129666971Y-110937947D01*
X129666963Y-110937949D01*
X129484887Y-111013367D01*
X129321018Y-111122861D01*
X129169258Y-111274622D01*
X129059772Y-111438479D01*
X129059767Y-111438489D01*
X128984349Y-111620563D01*
X128984347Y-111620569D01*
X128974516Y-111669994D01*
X128942131Y-111731905D01*
X128881415Y-111766479D01*
X128811645Y-111762738D01*
X128754973Y-111721872D01*
X128738339Y-111693258D01*
X128660941Y-111506402D01*
X128545977Y-111334345D01*
X128545975Y-111334342D01*
X128399657Y-111188024D01*
X128241476Y-111082332D01*
X128227598Y-111073059D01*
X128202980Y-111062862D01*
X128036420Y-110993870D01*
X128036412Y-110993868D01*
X127833469Y-110953500D01*
X127833465Y-110953500D01*
X127626535Y-110953500D01*
X127626530Y-110953500D01*
X127423587Y-110993868D01*
X127423579Y-110993870D01*
X127232403Y-111073058D01*
X127060342Y-111188024D01*
X126914024Y-111334342D01*
X126799057Y-111506403D01*
X126736051Y-111658515D01*
X126692210Y-111712918D01*
X126625915Y-111734983D01*
X126558216Y-111717704D01*
X126510606Y-111666566D01*
X126506929Y-111658515D01*
X126484114Y-111603437D01*
X126130000Y-111957551D01*
X126130000Y-111951339D01*
X126102741Y-111849606D01*
X126050080Y-111758394D01*
X125975606Y-111683920D01*
X125884394Y-111631259D01*
X125782661Y-111604000D01*
X125776447Y-111604000D01*
X126130561Y-111249884D01*
X125977936Y-111186665D01*
X125977928Y-111186663D01*
X125813721Y-111154000D01*
X125646279Y-111154000D01*
X125482071Y-111186662D01*
X125482062Y-111186665D01*
X125329437Y-111249884D01*
X125683554Y-111604000D01*
X125677339Y-111604000D01*
X125575606Y-111631259D01*
X125484394Y-111683920D01*
X125409920Y-111758394D01*
X125357259Y-111849606D01*
X125330000Y-111951339D01*
X125330000Y-111957553D01*
X124975884Y-111603437D01*
X124953070Y-111658515D01*
X124909229Y-111712918D01*
X124842934Y-111734983D01*
X124775235Y-111717704D01*
X124727625Y-111666566D01*
X124723950Y-111658519D01*
X124701368Y-111604000D01*
X124660942Y-111506403D01*
X124660940Y-111506400D01*
X124562846Y-111359591D01*
X124562844Y-111359589D01*
X124545975Y-111334342D01*
X124399657Y-111188024D01*
X124241476Y-111082332D01*
X124227598Y-111073059D01*
X124202980Y-111062862D01*
X124036420Y-110993870D01*
X124036412Y-110993868D01*
X123833469Y-110953500D01*
X123833465Y-110953500D01*
X123626535Y-110953500D01*
X123626530Y-110953500D01*
X123423587Y-110993868D01*
X123423579Y-110993870D01*
X123232403Y-111073058D01*
X123060342Y-111188024D01*
X122914024Y-111334342D01*
X122799058Y-111506403D01*
X122719870Y-111697579D01*
X122719868Y-111697587D01*
X122679500Y-111900530D01*
X122260100Y-111900530D01*
X122260100Y-111763059D01*
X122260100Y-111763056D01*
X122239305Y-111658515D01*
X122230075Y-111612113D01*
X122221651Y-111569764D01*
X122189298Y-111491658D01*
X122146232Y-111387686D01*
X122110589Y-111334342D01*
X122036739Y-111223817D01*
X121894283Y-111081361D01*
X121894254Y-111081334D01*
X121875783Y-111062862D01*
X121875780Y-111062860D01*
X121711920Y-110953372D01*
X121711910Y-110953367D01*
X121529836Y-110877949D01*
X121529828Y-110877947D01*
X121336543Y-110839500D01*
X121336540Y-110839500D01*
X121200762Y-110839500D01*
X121167937Y-110835077D01*
X121150655Y-110830333D01*
X120916904Y-110766166D01*
X120718225Y-110711628D01*
X120685957Y-110697591D01*
X120582902Y-110634027D01*
X120550736Y-110614187D01*
X120550731Y-110614185D01*
X120549262Y-110613698D01*
X120384197Y-110559001D01*
X120384195Y-110559000D01*
X120281410Y-110548500D01*
X119291398Y-110548500D01*
X119291380Y-110548501D01*
X119188603Y-110559000D01*
X119188600Y-110559001D01*
X119063700Y-110600389D01*
X119022066Y-110614186D01*
X118963838Y-110650101D01*
X118912073Y-110682029D01*
X118911090Y-110682448D01*
X118910716Y-110682854D01*
X118878168Y-110696502D01*
X118668263Y-110751053D01*
X118598427Y-110748864D01*
X118586649Y-110744325D01*
X118299047Y-110616311D01*
X118245805Y-110571066D01*
X118231764Y-110542026D01*
X118225615Y-110523469D01*
X118225614Y-110523468D01*
X118225614Y-110523466D01*
X118133512Y-110374144D01*
X118009456Y-110250088D01*
X117860134Y-110157986D01*
X117693597Y-110102801D01*
X117693595Y-110102800D01*
X117590810Y-110092300D01*
X116190798Y-110092300D01*
X116190781Y-110092301D01*
X116088003Y-110102800D01*
X116088000Y-110102801D01*
X115921468Y-110157985D01*
X115921463Y-110157987D01*
X115772142Y-110250089D01*
X115648089Y-110374142D01*
X115555987Y-110523463D01*
X115555985Y-110523468D01*
X115538407Y-110576516D01*
X115500801Y-110690003D01*
X115500801Y-110690004D01*
X115500800Y-110690004D01*
X115490300Y-110792783D01*
X107341100Y-110792783D01*
X107341100Y-104718171D01*
X111840400Y-104718171D01*
X111850773Y-104804558D01*
X111904976Y-104942007D01*
X111904979Y-104942013D01*
X111994256Y-105059743D01*
X112111986Y-105149020D01*
X112111992Y-105149023D01*
X112249441Y-105203226D01*
X112335828Y-105213600D01*
X112365400Y-105213600D01*
X112865400Y-105213600D01*
X112894972Y-105213600D01*
X112981358Y-105203226D01*
X113118807Y-105149023D01*
X113118813Y-105149020D01*
X113236543Y-105059743D01*
X113316696Y-104954045D01*
X113372888Y-104912522D01*
X113442609Y-104907970D01*
X113503724Y-104941834D01*
X113514304Y-104954045D01*
X113594456Y-105059743D01*
X113712186Y-105149020D01*
X113712192Y-105149023D01*
X113849641Y-105203226D01*
X113936028Y-105213600D01*
X113965600Y-105213600D01*
X114465600Y-105213600D01*
X114495172Y-105213600D01*
X114581558Y-105203226D01*
X114719007Y-105149023D01*
X114719013Y-105149020D01*
X114836743Y-105059743D01*
X114926020Y-104942013D01*
X114926023Y-104942007D01*
X114980226Y-104804558D01*
X114990600Y-104718171D01*
X114990600Y-104626100D01*
X114465600Y-104626100D01*
X114465600Y-105213600D01*
X113965600Y-105213600D01*
X113965600Y-104626100D01*
X112865400Y-104626100D01*
X112865400Y-105213600D01*
X112365400Y-105213600D01*
X112365400Y-104626100D01*
X111840400Y-104626100D01*
X111840400Y-104718171D01*
X107341100Y-104718171D01*
X107341100Y-102552559D01*
X111614900Y-102552559D01*
X111614900Y-102558123D01*
X111614900Y-102749644D01*
X111637517Y-102863347D01*
X111639900Y-102887537D01*
X111639900Y-103000268D01*
X111639901Y-103000287D01*
X111650225Y-103101352D01*
X111675203Y-103176728D01*
X111700340Y-103252587D01*
X111704492Y-103265115D01*
X111704493Y-103265118D01*
X111717957Y-103286946D01*
X111795060Y-103411950D01*
X111917050Y-103533940D01*
X111935345Y-103545225D01*
X111982071Y-103597171D01*
X111993295Y-103666133D01*
X111969055Y-103725689D01*
X111904979Y-103810186D01*
X111904976Y-103810192D01*
X111850773Y-103947641D01*
X111840400Y-104034028D01*
X111840400Y-104126100D01*
X114990600Y-104126100D01*
X114990600Y-104034028D01*
X114980226Y-103947641D01*
X114926023Y-103810192D01*
X114926020Y-103810186D01*
X114861944Y-103725689D01*
X114837121Y-103660378D01*
X114851549Y-103592014D01*
X114877079Y-103559247D01*
X114885701Y-103551363D01*
X114913950Y-103533940D01*
X115011930Y-103435959D01*
X115013983Y-103434083D01*
X115042966Y-103419902D01*
X115071294Y-103404434D01*
X115075506Y-103403981D01*
X115076743Y-103403376D01*
X115078848Y-103403621D01*
X115097652Y-103401600D01*
X115220852Y-103401600D01*
X115264185Y-103409418D01*
X115301917Y-103423491D01*
X115361527Y-103429900D01*
X115525500Y-103429899D01*
X115592539Y-103449583D01*
X115638294Y-103502387D01*
X115649500Y-103553899D01*
X115649500Y-104047871D01*
X115640061Y-104095323D01*
X115613063Y-104160501D01*
X115613060Y-104160511D01*
X115582300Y-104315153D01*
X115582300Y-104472846D01*
X115613061Y-104627489D01*
X115613064Y-104627501D01*
X115673402Y-104773172D01*
X115673409Y-104773185D01*
X115761010Y-104904288D01*
X115761013Y-104904292D01*
X115872507Y-105015786D01*
X115872511Y-105015789D01*
X116003614Y-105103390D01*
X116003627Y-105103397D01*
X116149298Y-105163735D01*
X116149303Y-105163737D01*
X116268767Y-105187500D01*
X116303953Y-105194499D01*
X116303956Y-105194500D01*
X116303958Y-105194500D01*
X116461644Y-105194500D01*
X116461645Y-105194499D01*
X116616297Y-105163737D01*
X116761979Y-105103394D01*
X116893089Y-105015789D01*
X117004589Y-104904289D01*
X117092194Y-104773179D01*
X117152537Y-104627497D01*
X117183300Y-104472842D01*
X117183300Y-104315158D01*
X117183300Y-104315155D01*
X117152883Y-104162241D01*
X117150500Y-104138049D01*
X117150500Y-103553899D01*
X117170185Y-103486860D01*
X117222989Y-103441105D01*
X117274500Y-103429899D01*
X117438471Y-103429899D01*
X117438472Y-103429899D01*
X117498083Y-103423491D01*
X117632931Y-103373196D01*
X117748146Y-103286946D01*
X117834396Y-103171731D01*
X117884691Y-103036883D01*
X117891100Y-102977273D01*
X117891099Y-102322728D01*
X117885189Y-102267752D01*
X117897595Y-102198995D01*
X117945206Y-102147858D01*
X118008479Y-102130500D01*
X118048320Y-102130500D01*
X118167709Y-102106751D01*
X118193313Y-102101658D01*
X118317824Y-102050084D01*
X118329893Y-102045085D01*
X118329893Y-102045084D01*
X118329895Y-102045084D01*
X118387829Y-102006374D01*
X118387829Y-102006373D01*
X118387831Y-102006373D01*
X118443209Y-101969371D01*
X118452816Y-101962952D01*
X119099352Y-101316416D01*
X119156687Y-101230606D01*
X119181484Y-101193495D01*
X119213949Y-101115117D01*
X119238059Y-101056912D01*
X119266900Y-100911917D01*
X119266900Y-100764082D01*
X119266900Y-99795709D01*
X119286585Y-99728670D01*
X119339389Y-99682915D01*
X119379325Y-99672250D01*
X119905168Y-99622952D01*
X119973748Y-99636293D01*
X120024232Y-99684596D01*
X120040587Y-99752524D01*
X120039912Y-99760700D01*
X120037000Y-99785797D01*
X120037000Y-99860000D01*
X122618199Y-99860000D01*
X122618199Y-99808851D01*
X122637884Y-99741812D01*
X122690688Y-99696057D01*
X122759846Y-99686113D01*
X122823402Y-99715138D01*
X122829880Y-99721170D01*
X122847250Y-99738540D01*
X122994084Y-99829108D01*
X123157847Y-99883374D01*
X123258923Y-99893700D01*
X123832276Y-99893699D01*
X123832284Y-99893698D01*
X123832287Y-99893698D01*
X123892854Y-99887511D01*
X123933353Y-99883374D01*
X123996365Y-99862493D01*
X124035368Y-99856200D01*
X124579832Y-99856200D01*
X124618835Y-99862493D01*
X124681847Y-99883374D01*
X124782923Y-99893700D01*
X125356276Y-99893699D01*
X125356284Y-99893698D01*
X125356287Y-99893698D01*
X125416854Y-99887511D01*
X125457353Y-99883374D01*
X125621116Y-99829108D01*
X125767950Y-99738540D01*
X125863971Y-99642519D01*
X125925294Y-99609034D01*
X125951652Y-99606200D01*
X126109820Y-99606200D01*
X126207362Y-99586796D01*
X126254813Y-99577358D01*
X126391395Y-99520784D01*
X126455345Y-99478054D01*
X126514316Y-99438652D01*
X126705699Y-99247267D01*
X126745924Y-99220391D01*
X126769579Y-99210594D01*
X126900689Y-99122989D01*
X127012189Y-99011489D01*
X127099794Y-98880379D01*
X127160137Y-98734697D01*
X127190900Y-98580042D01*
X127190900Y-98422358D01*
X127190900Y-98422355D01*
X127190899Y-98422353D01*
X127187726Y-98406402D01*
X127160137Y-98267703D01*
X127133358Y-98203052D01*
X127099797Y-98122027D01*
X127099790Y-98122014D01*
X127012189Y-97990911D01*
X127012186Y-97990907D01*
X126900692Y-97879413D01*
X126900688Y-97879410D01*
X126769585Y-97791809D01*
X126769572Y-97791802D01*
X126623901Y-97731464D01*
X126623889Y-97731461D01*
X126469245Y-97700700D01*
X126469242Y-97700700D01*
X126311558Y-97700700D01*
X126311555Y-97700700D01*
X126156910Y-97731461D01*
X126156898Y-97731464D01*
X126011227Y-97791802D01*
X126011211Y-97791811D01*
X125976057Y-97815300D01*
X125909380Y-97836177D01*
X125842000Y-97817691D01*
X125795310Y-97765712D01*
X125784135Y-97696742D01*
X125791814Y-97666706D01*
X125834226Y-97559157D01*
X125844600Y-97472771D01*
X125844600Y-97380700D01*
X122770600Y-97380700D01*
X122770600Y-97472771D01*
X122780973Y-97559158D01*
X122835176Y-97696607D01*
X122835177Y-97696609D01*
X122899255Y-97781108D01*
X122924078Y-97846420D01*
X122909650Y-97914784D01*
X122883563Y-97948058D01*
X122875168Y-97955639D01*
X122847250Y-97972860D01*
X122764693Y-98055416D01*
X122762360Y-98057524D01*
X122733605Y-98071376D01*
X122705606Y-98086666D01*
X122700797Y-98087183D01*
X122699415Y-98087849D01*
X122697169Y-98087573D01*
X122679248Y-98089500D01*
X122509697Y-98089500D01*
X122466364Y-98081682D01*
X122425681Y-98066508D01*
X122425683Y-98066508D01*
X122366083Y-98060101D01*
X122366081Y-98060100D01*
X122366073Y-98060100D01*
X122366065Y-98060100D01*
X120927828Y-98060100D01*
X120860789Y-98040415D01*
X120815034Y-97987611D01*
X120805090Y-97918453D01*
X120834115Y-97854897D01*
X120840147Y-97848419D01*
X121430803Y-97257764D01*
X122194548Y-96494019D01*
X122255871Y-96460534D01*
X122282229Y-96457700D01*
X122695216Y-96457700D01*
X122762255Y-96477385D01*
X122808010Y-96530189D01*
X122817954Y-96599347D01*
X122810570Y-96627190D01*
X122780973Y-96702241D01*
X122770600Y-96788628D01*
X122770600Y-96880700D01*
X125844600Y-96880700D01*
X125844600Y-96788628D01*
X125834226Y-96702241D01*
X125804630Y-96627190D01*
X125798348Y-96557604D01*
X125830685Y-96495667D01*
X125891373Y-96461046D01*
X125919984Y-96457700D01*
X127094970Y-96457700D01*
X127162009Y-96477385D01*
X127182651Y-96494019D01*
X128923181Y-98234548D01*
X128956666Y-98295871D01*
X128959500Y-98322229D01*
X128959500Y-98575448D01*
X128939815Y-98642487D01*
X128923181Y-98663129D01*
X128889661Y-98696648D01*
X128799093Y-98843481D01*
X128799091Y-98843486D01*
X128786868Y-98880372D01*
X128744826Y-99007247D01*
X128744826Y-99007248D01*
X128744825Y-99007248D01*
X128734500Y-99108315D01*
X128734500Y-99706669D01*
X128734501Y-99706687D01*
X128744825Y-99807752D01*
X128799092Y-99971515D01*
X128799093Y-99971518D01*
X128816661Y-100000000D01*
X128863826Y-100076467D01*
X128889661Y-100118351D01*
X129003629Y-100232319D01*
X129007967Y-100240264D01*
X129015215Y-100245690D01*
X129024449Y-100270449D01*
X129037114Y-100293642D01*
X129036468Y-100302671D01*
X129039632Y-100311154D01*
X129034015Y-100336974D01*
X129032130Y-100363334D01*
X129026311Y-100372387D01*
X129024780Y-100379427D01*
X129003629Y-100407681D01*
X128998881Y-100412429D01*
X128937558Y-100445914D01*
X128867866Y-100440930D01*
X128823519Y-100412429D01*
X128818351Y-100407261D01*
X128818350Y-100407260D01*
X128719612Y-100346358D01*
X128671518Y-100316693D01*
X128671513Y-100316691D01*
X128670069Y-100316212D01*
X128507753Y-100262426D01*
X128507751Y-100262425D01*
X128406678Y-100252100D01*
X127808330Y-100252100D01*
X127808312Y-100252101D01*
X127707247Y-100262425D01*
X127543484Y-100316692D01*
X127543481Y-100316693D01*
X127396648Y-100407261D01*
X127282681Y-100521229D01*
X127221358Y-100554714D01*
X127151666Y-100549730D01*
X127107319Y-100521229D01*
X126993351Y-100407261D01*
X126993350Y-100407260D01*
X126894612Y-100346358D01*
X126846518Y-100316693D01*
X126846513Y-100316691D01*
X126845069Y-100316212D01*
X126682753Y-100262426D01*
X126682751Y-100262425D01*
X126581678Y-100252100D01*
X125983330Y-100252100D01*
X125983312Y-100252101D01*
X125882247Y-100262425D01*
X125718484Y-100316692D01*
X125718481Y-100316693D01*
X125571648Y-100407261D01*
X125555481Y-100423429D01*
X125494158Y-100456914D01*
X125424466Y-100451930D01*
X125380119Y-100423429D01*
X125302551Y-100345861D01*
X125302550Y-100345860D01*
X125182514Y-100271821D01*
X125155718Y-100255293D01*
X125155713Y-100255291D01*
X125146083Y-100252100D01*
X124991953Y-100201026D01*
X124991951Y-100201025D01*
X124890878Y-100190700D01*
X124317530Y-100190700D01*
X124317512Y-100190701D01*
X124216447Y-100201025D01*
X124052684Y-100255292D01*
X124052681Y-100255293D01*
X123905848Y-100345861D01*
X123809829Y-100441881D01*
X123748506Y-100475366D01*
X123722148Y-100478200D01*
X123080982Y-100478200D01*
X123061879Y-100482000D01*
X123061878Y-100482000D01*
X122935995Y-100507039D01*
X122935987Y-100507041D01*
X122882371Y-100529250D01*
X122799401Y-100563617D01*
X122799125Y-100563765D01*
X122798963Y-100563798D01*
X122793777Y-100565947D01*
X122793369Y-100564962D01*
X122730720Y-100577997D01*
X122665479Y-100552987D01*
X122624117Y-100496676D01*
X122617515Y-100440094D01*
X122618199Y-100434199D01*
X122618200Y-100434191D01*
X122618200Y-100360000D01*
X120037001Y-100360000D01*
X120037001Y-100434185D01*
X120037002Y-100434208D01*
X120039908Y-100459269D01*
X120039909Y-100459273D01*
X120079220Y-100548306D01*
X120088290Y-100617585D01*
X120058466Y-100680769D01*
X120040099Y-100697654D01*
X119979454Y-100743054D01*
X119979453Y-100743055D01*
X119979452Y-100743056D01*
X119893206Y-100858264D01*
X119893202Y-100858271D01*
X119842910Y-100993113D01*
X119842909Y-100993117D01*
X119836500Y-101052727D01*
X119836500Y-101052734D01*
X119836500Y-101052735D01*
X119836500Y-101707270D01*
X119836501Y-101707276D01*
X119842908Y-101766883D01*
X119893202Y-101901728D01*
X119893203Y-101901730D01*
X119922368Y-101940690D01*
X119946784Y-102006155D01*
X119931932Y-102074428D01*
X119922368Y-102089310D01*
X119893203Y-102128269D01*
X119893202Y-102128271D01*
X119842910Y-102263113D01*
X119842909Y-102263117D01*
X119836500Y-102322727D01*
X119836500Y-102322734D01*
X119836500Y-102322735D01*
X119836500Y-102977270D01*
X119836501Y-102977276D01*
X119842908Y-103036883D01*
X119893202Y-103171728D01*
X119893206Y-103171735D01*
X119979452Y-103286944D01*
X119979455Y-103286947D01*
X120094664Y-103373193D01*
X120094671Y-103373197D01*
X120229517Y-103423491D01*
X120229516Y-103423491D01*
X120236444Y-103424235D01*
X120289127Y-103429900D01*
X122366072Y-103429899D01*
X122425683Y-103423491D01*
X122466364Y-103408318D01*
X122509697Y-103400500D01*
X122912571Y-103400500D01*
X122941025Y-103408855D01*
X122970112Y-103414659D01*
X122976310Y-103419216D01*
X122979610Y-103420185D01*
X122998727Y-103435319D01*
X122999464Y-103436031D01*
X123100085Y-103536652D01*
X123102278Y-103538117D01*
X123111538Y-103544304D01*
X123111540Y-103544306D01*
X123196097Y-103600805D01*
X123223005Y-103618784D01*
X123241153Y-103626301D01*
X123359588Y-103675359D01*
X123475741Y-103698463D01*
X123494968Y-103702287D01*
X123504581Y-103704200D01*
X123504582Y-103704200D01*
X123504583Y-103704200D01*
X123652418Y-103704200D01*
X123722148Y-103704200D01*
X123789187Y-103723885D01*
X123809829Y-103740519D01*
X123905850Y-103836540D01*
X124052684Y-103927108D01*
X124216447Y-103981374D01*
X124317523Y-103991700D01*
X124660145Y-103991699D01*
X124727184Y-104011383D01*
X124735043Y-104016875D01*
X124826080Y-104085871D01*
X125482899Y-104583670D01*
X125524437Y-104639850D01*
X125532000Y-104682493D01*
X125532000Y-105426818D01*
X125532000Y-105426820D01*
X125531999Y-105426820D01*
X125560840Y-105571807D01*
X125560843Y-105571817D01*
X125617414Y-105708393D01*
X125617415Y-105708394D01*
X125636528Y-105736999D01*
X125699549Y-105831318D01*
X125699552Y-105831321D01*
X126970176Y-107101944D01*
X128176184Y-108307952D01*
X128208910Y-108329818D01*
X128299105Y-108390084D01*
X128299106Y-108390084D01*
X128299107Y-108390085D01*
X128329973Y-108402870D01*
X128435687Y-108446658D01*
X128435691Y-108446658D01*
X128435692Y-108446659D01*
X128580679Y-108475500D01*
X128580682Y-108475500D01*
X128580683Y-108475500D01*
X128728517Y-108475500D01*
X133147148Y-108475500D01*
X133214187Y-108495185D01*
X133234829Y-108511819D01*
X133268350Y-108545340D01*
X133415184Y-108635908D01*
X133578947Y-108690174D01*
X133680023Y-108700500D01*
X134278376Y-108700499D01*
X134278384Y-108700498D01*
X134278387Y-108700498D01*
X134333730Y-108694844D01*
X134379453Y-108690174D01*
X134543216Y-108635908D01*
X134690050Y-108545340D01*
X134804019Y-108431371D01*
X134865342Y-108397886D01*
X134935034Y-108402870D01*
X134979381Y-108431371D01*
X135093350Y-108545340D01*
X135240184Y-108635908D01*
X135403947Y-108690174D01*
X135505023Y-108700500D01*
X136103376Y-108700499D01*
X136103384Y-108700498D01*
X136103387Y-108700498D01*
X136158730Y-108694844D01*
X136204453Y-108690174D01*
X136368216Y-108635908D01*
X136515050Y-108545340D01*
X136515051Y-108545338D01*
X136521197Y-108541548D01*
X136521895Y-108542680D01*
X136579580Y-108519406D01*
X136648222Y-108532443D01*
X136666834Y-108544404D01*
X136668347Y-108545337D01*
X136668350Y-108545340D01*
X136815184Y-108635908D01*
X136978947Y-108690174D01*
X137080023Y-108700500D01*
X137678376Y-108700499D01*
X137678384Y-108700498D01*
X137678387Y-108700498D01*
X137733730Y-108694844D01*
X137779453Y-108690174D01*
X137943216Y-108635908D01*
X138090050Y-108545340D01*
X138204019Y-108431371D01*
X138265342Y-108397886D01*
X138335034Y-108402870D01*
X138379381Y-108431371D01*
X138493350Y-108545340D01*
X138640184Y-108635908D01*
X138803947Y-108690174D01*
X138905023Y-108700500D01*
X139503376Y-108700499D01*
X139503384Y-108700498D01*
X139503387Y-108700498D01*
X139558730Y-108694844D01*
X139604453Y-108690174D01*
X139768216Y-108635908D01*
X139915050Y-108545340D01*
X139921219Y-108539171D01*
X139982542Y-108505686D01*
X140052234Y-108510670D01*
X140096581Y-108539171D01*
X140165250Y-108607840D01*
X140312084Y-108698408D01*
X140475847Y-108752674D01*
X140576923Y-108763000D01*
X141150276Y-108762999D01*
X141150284Y-108762998D01*
X141150287Y-108762998D01*
X141205630Y-108757344D01*
X141251353Y-108752674D01*
X141415116Y-108698408D01*
X141561950Y-108607840D01*
X141683940Y-108485850D01*
X141683942Y-108485846D01*
X141688423Y-108480181D01*
X141689513Y-108481043D01*
X141695737Y-108475275D01*
X141703339Y-108462088D01*
X141725650Y-108447550D01*
X141732075Y-108441596D01*
X141736702Y-108439206D01*
X141855295Y-108390084D01*
X141935105Y-108336756D01*
X141941296Y-108333560D01*
X141969023Y-108328196D01*
X141995975Y-108319758D01*
X142003623Y-108321504D01*
X142009894Y-108320292D01*
X142025347Y-108326466D01*
X142054008Y-108333012D01*
X142875970Y-108747389D01*
X142926972Y-108795144D01*
X142937855Y-108819107D01*
X142954692Y-108869916D01*
X143045260Y-109016750D01*
X143045261Y-109016751D01*
X143059229Y-109030719D01*
X143092714Y-109092042D01*
X143087730Y-109161734D01*
X143059229Y-109206081D01*
X143045261Y-109220048D01*
X142954693Y-109366881D01*
X142954692Y-109366884D01*
X142900426Y-109530647D01*
X142900426Y-109530648D01*
X142900425Y-109530648D01*
X142890100Y-109631715D01*
X142890100Y-110330069D01*
X142890101Y-110330087D01*
X142900425Y-110431152D01*
X142921732Y-110495451D01*
X142954399Y-110594033D01*
X142954692Y-110594915D01*
X142954693Y-110594918D01*
X142988730Y-110650100D01*
X143045260Y-110741750D01*
X143167250Y-110863740D01*
X143314084Y-110954308D01*
X143477847Y-111008574D01*
X143578923Y-111018900D01*
X144152276Y-111018899D01*
X144152284Y-111018898D01*
X144152287Y-111018898D01*
X144207630Y-111013244D01*
X144253353Y-111008574D01*
X144417116Y-110954308D01*
X144563950Y-110863740D01*
X144678371Y-110749319D01*
X144739694Y-110715834D01*
X144766052Y-110713000D01*
X145867948Y-110713000D01*
X145897388Y-110721644D01*
X145927375Y-110728168D01*
X145932390Y-110731922D01*
X145934987Y-110732685D01*
X145955629Y-110749319D01*
X145963181Y-110756871D01*
X145996666Y-110818194D01*
X145999500Y-110844552D01*
X145999500Y-111467118D01*
X145999500Y-111467120D01*
X145999499Y-111467120D01*
X146028340Y-111612107D01*
X146028342Y-111612113D01*
X146084912Y-111748688D01*
X146084921Y-111748704D01*
X146100362Y-111771812D01*
X146100363Y-111771816D01*
X146100364Y-111771816D01*
X146167046Y-111871614D01*
X146167047Y-111871615D01*
X146167048Y-111871616D01*
X146427917Y-112132484D01*
X146427936Y-112132505D01*
X147088380Y-112792948D01*
X147088384Y-112792951D01*
X147211298Y-112875080D01*
X147211311Y-112875087D01*
X147333986Y-112925900D01*
X147347887Y-112931658D01*
X147347891Y-112931658D01*
X147347892Y-112931659D01*
X147492879Y-112960500D01*
X147492882Y-112960500D01*
X149733920Y-112960500D01*
X149853108Y-112936791D01*
X149878913Y-112931658D01*
X150015495Y-112875084D01*
X150064729Y-112842186D01*
X150077577Y-112833602D01*
X150092470Y-112823651D01*
X150138416Y-112792952D01*
X151682952Y-111248415D01*
X151723304Y-111188023D01*
X151765084Y-111125495D01*
X151792640Y-111058968D01*
X151821659Y-110988912D01*
X151850500Y-110843917D01*
X151850500Y-110696082D01*
X151850500Y-109144552D01*
X151870185Y-109077513D01*
X151886819Y-109056871D01*
X151892751Y-109050939D01*
X151920340Y-109023350D01*
X152010908Y-108876516D01*
X152065174Y-108712753D01*
X152075500Y-108611677D01*
X152075499Y-108013324D01*
X152065174Y-107912247D01*
X152054510Y-107880068D01*
X152052109Y-107810242D01*
X152076305Y-107762473D01*
X152468875Y-107283405D01*
X152470337Y-107282408D01*
X152471073Y-107280797D01*
X152499097Y-107262786D01*
X152526592Y-107244029D01*
X152528837Y-107243674D01*
X152529851Y-107243023D01*
X152564786Y-107238000D01*
X152698148Y-107238000D01*
X152765187Y-107257685D01*
X152785829Y-107274319D01*
X152808650Y-107297140D01*
X152955484Y-107387708D01*
X153119247Y-107441974D01*
X153220323Y-107452300D01*
X153918676Y-107452299D01*
X153918684Y-107452298D01*
X153918687Y-107452298D01*
X153974030Y-107446644D01*
X154019753Y-107441974D01*
X154183516Y-107387708D01*
X154330350Y-107297140D01*
X154344319Y-107283171D01*
X154405642Y-107249686D01*
X154475334Y-107254670D01*
X154519681Y-107283171D01*
X154533650Y-107297140D01*
X154680484Y-107387708D01*
X154844247Y-107441974D01*
X154945323Y-107452300D01*
X155643676Y-107452299D01*
X155643684Y-107452298D01*
X155643687Y-107452298D01*
X155699030Y-107446644D01*
X155744753Y-107441974D01*
X155908516Y-107387708D01*
X156055350Y-107297140D01*
X156177340Y-107175150D01*
X156267908Y-107028316D01*
X156322174Y-106864553D01*
X156332500Y-106763477D01*
X156332499Y-106190124D01*
X156322174Y-106089047D01*
X156267908Y-105925284D01*
X156177340Y-105778450D01*
X156081319Y-105682429D01*
X156047834Y-105621106D01*
X156045000Y-105594748D01*
X156045000Y-101922152D01*
X156064685Y-101855113D01*
X156081319Y-101834471D01*
X156119277Y-101796513D01*
X156176240Y-101739550D01*
X156266808Y-101592716D01*
X156321074Y-101428953D01*
X156331400Y-101327877D01*
X156331399Y-100754524D01*
X156330227Y-100743054D01*
X156321074Y-100653447D01*
X156315535Y-100636731D01*
X156266808Y-100489684D01*
X156176240Y-100342850D01*
X156080219Y-100246829D01*
X156046734Y-100185506D01*
X156043900Y-100159148D01*
X156043900Y-98482352D01*
X156063585Y-98415313D01*
X156080219Y-98394671D01*
X156103135Y-98371755D01*
X156126540Y-98348350D01*
X156217108Y-98201516D01*
X156271374Y-98037753D01*
X156281700Y-97936677D01*
X156281699Y-97363324D01*
X156271374Y-97262247D01*
X156217108Y-97098484D01*
X156126540Y-96951650D01*
X156004550Y-96829660D01*
X155857716Y-96739092D01*
X155693953Y-96684826D01*
X155693951Y-96684825D01*
X155592878Y-96674500D01*
X154994530Y-96674500D01*
X154994512Y-96674501D01*
X154893447Y-96684825D01*
X154729684Y-96739092D01*
X154729681Y-96739093D01*
X154582848Y-96829661D01*
X154468881Y-96943629D01*
X154407558Y-96977114D01*
X154337866Y-96972130D01*
X154293519Y-96943629D01*
X154179551Y-96829661D01*
X154179550Y-96829660D01*
X154032716Y-96739092D01*
X153868953Y-96684826D01*
X153868951Y-96684825D01*
X153767878Y-96674500D01*
X153169530Y-96674500D01*
X153169512Y-96674501D01*
X153068447Y-96684825D01*
X152904684Y-96739092D01*
X152904681Y-96739093D01*
X152757848Y-96829661D01*
X152724329Y-96863181D01*
X152663006Y-96896666D01*
X152636648Y-96899500D01*
X149214880Y-96899500D01*
X149069892Y-96928340D01*
X149069886Y-96928342D01*
X148933308Y-96984914D01*
X148933296Y-96984921D01*
X148884069Y-97017813D01*
X148810388Y-97067044D01*
X148810380Y-97067050D01*
X148223847Y-97653584D01*
X148223845Y-97653586D01*
X148201344Y-97687263D01*
X148192367Y-97700700D01*
X148171813Y-97731461D01*
X148141714Y-97776507D01*
X148085143Y-97913082D01*
X148085140Y-97913092D01*
X148074757Y-97965292D01*
X148042372Y-98027203D01*
X147981656Y-98061777D01*
X147953141Y-98065100D01*
X147768330Y-98065100D01*
X147768323Y-98065101D01*
X147708716Y-98071508D01*
X147573871Y-98121802D01*
X147573864Y-98121806D01*
X147458655Y-98208052D01*
X147458652Y-98208055D01*
X147372406Y-98323264D01*
X147372402Y-98323271D01*
X147322110Y-98458113D01*
X147322109Y-98458117D01*
X147315700Y-98517727D01*
X147315700Y-98517734D01*
X147315700Y-98517735D01*
X147315700Y-99172270D01*
X147315701Y-99172279D01*
X147321638Y-99227508D01*
X147309231Y-99296267D01*
X147261619Y-99347403D01*
X147210502Y-99364163D01*
X147207078Y-99364500D01*
X147062092Y-99393340D01*
X147062082Y-99393343D01*
X146925511Y-99449912D01*
X146925498Y-99449919D01*
X146802584Y-99532048D01*
X146802580Y-99532051D01*
X146096295Y-100238336D01*
X146034972Y-100271821D01*
X145965280Y-100266837D01*
X145956651Y-100263242D01*
X145906865Y-100240264D01*
X145715330Y-100151863D01*
X145535330Y-100151863D01*
X145535328Y-100151863D01*
X145534663Y-100152092D01*
X145464867Y-100155301D01*
X145404415Y-100120267D01*
X145372501Y-100058112D01*
X145370299Y-100034845D01*
X145370299Y-99787729D01*
X145370298Y-99787723D01*
X145367393Y-99760700D01*
X145364390Y-99732755D01*
X145363891Y-99728116D01*
X145314428Y-99595500D01*
X145313596Y-99593269D01*
X145284429Y-99554307D01*
X145260013Y-99488848D01*
X145274864Y-99420575D01*
X145284421Y-99405702D01*
X145313596Y-99366731D01*
X145363891Y-99231883D01*
X145370300Y-99172273D01*
X145370299Y-98517728D01*
X145365099Y-98469357D01*
X145363891Y-98458116D01*
X145313597Y-98323271D01*
X145313593Y-98323264D01*
X145227347Y-98208055D01*
X145227344Y-98208052D01*
X145112135Y-98121806D01*
X145112128Y-98121802D01*
X144977282Y-98071508D01*
X144977283Y-98071508D01*
X144917683Y-98065101D01*
X144917681Y-98065100D01*
X144917673Y-98065100D01*
X144917664Y-98065100D01*
X142840729Y-98065100D01*
X142840723Y-98065101D01*
X142781116Y-98071508D01*
X142740436Y-98086682D01*
X142697103Y-98094500D01*
X142387229Y-98094500D01*
X142320190Y-98074815D01*
X142299548Y-98058181D01*
X141970128Y-97728761D01*
X141967280Y-97723545D01*
X141962352Y-97720225D01*
X141950726Y-97693229D01*
X141936643Y-97667438D01*
X141937066Y-97661511D01*
X141934716Y-97656053D01*
X141939530Y-97627060D01*
X141941627Y-97597746D01*
X141945439Y-97591476D01*
X141946162Y-97587127D01*
X141965880Y-97557863D01*
X142042061Y-97473717D01*
X142070300Y-97450544D01*
X142688134Y-97080799D01*
X142851056Y-96983298D01*
X142914732Y-96965700D01*
X143228720Y-96965700D01*
X143326262Y-96946296D01*
X143373713Y-96936858D01*
X143510295Y-96880284D01*
X143559529Y-96847386D01*
X143633216Y-96798152D01*
X144423552Y-96007815D01*
X144478143Y-95926113D01*
X144505684Y-95884895D01*
X144535883Y-95811988D01*
X144562259Y-95748312D01*
X144591100Y-95603317D01*
X144591100Y-95455482D01*
X144591100Y-91269916D01*
X144610785Y-91202877D01*
X144627419Y-91182235D01*
X144641130Y-91168524D01*
X144718153Y-91091501D01*
X144824596Y-90944994D01*
X144906811Y-90783639D01*
X144962771Y-90611409D01*
X144977931Y-90515694D01*
X144991100Y-90432551D01*
X144991100Y-90251448D01*
X144974619Y-90147397D01*
X144962771Y-90072591D01*
X144906811Y-89900361D01*
X144906811Y-89900360D01*
X144878340Y-89844484D01*
X144824596Y-89739006D01*
X144810996Y-89720287D01*
X144718158Y-89592505D01*
X144718154Y-89592500D01*
X144590099Y-89464445D01*
X144590094Y-89464441D01*
X144443597Y-89358006D01*
X144443596Y-89358005D01*
X144443594Y-89358004D01*
X144391900Y-89331664D01*
X144282239Y-89275788D01*
X144282236Y-89275787D01*
X144110010Y-89219829D01*
X143931151Y-89191500D01*
X143931146Y-89191500D01*
X143750054Y-89191500D01*
X143750049Y-89191500D01*
X143571189Y-89219829D01*
X143398963Y-89275787D01*
X143398960Y-89275788D01*
X143237602Y-89358006D01*
X143091105Y-89464441D01*
X143091100Y-89464445D01*
X142963045Y-89592500D01*
X142963041Y-89592505D01*
X142856606Y-89739002D01*
X142774388Y-89900360D01*
X142774387Y-89900363D01*
X142718429Y-90072589D01*
X142690100Y-90251448D01*
X142690100Y-90432551D01*
X142718429Y-90611410D01*
X142774387Y-90783636D01*
X142774388Y-90783639D01*
X142856606Y-90944997D01*
X142963041Y-91091494D01*
X142963045Y-91091499D01*
X143053781Y-91182235D01*
X143087266Y-91243558D01*
X143090100Y-91269916D01*
X143090100Y-95167169D01*
X143081455Y-95196609D01*
X143074932Y-95226596D01*
X143071177Y-95231611D01*
X143070415Y-95234208D01*
X143053781Y-95254851D01*
X142925987Y-95382644D01*
X142864664Y-95416128D01*
X142794972Y-95411144D01*
X142774631Y-95401365D01*
X141944641Y-94904652D01*
X141944635Y-94904649D01*
X141944633Y-94904648D01*
X141937386Y-94901310D01*
X141930558Y-94898164D01*
X141901734Y-94880386D01*
X141866905Y-94868844D01*
X141860611Y-94865945D01*
X141860610Y-94865944D01*
X141846009Y-94859219D01*
X141845996Y-94859214D01*
X141843658Y-94858429D01*
X141841264Y-94857625D01*
X141831697Y-94854606D01*
X141823516Y-94852025D01*
X141823502Y-94852022D01*
X141821165Y-94851682D01*
X141800026Y-94846682D01*
X141735200Y-94825201D01*
X141632410Y-94814700D01*
X139532398Y-94814700D01*
X139532381Y-94814701D01*
X139429603Y-94825200D01*
X139429600Y-94825201D01*
X139263068Y-94880385D01*
X139263063Y-94880387D01*
X139113742Y-94972489D01*
X138989689Y-95096542D01*
X138897587Y-95245863D01*
X138897585Y-95245868D01*
X138881933Y-95293104D01*
X138842401Y-95412403D01*
X138842401Y-95412404D01*
X138842400Y-95412404D01*
X138831900Y-95515183D01*
X138831900Y-96915201D01*
X138831901Y-96915218D01*
X138842400Y-97017996D01*
X138842401Y-97017999D01*
X138897585Y-97184531D01*
X138897586Y-97184534D01*
X138989688Y-97333856D01*
X139113744Y-97457912D01*
X139263066Y-97550014D01*
X139429603Y-97605199D01*
X139532391Y-97615700D01*
X139635137Y-97615699D01*
X139702175Y-97635383D01*
X139720386Y-97649651D01*
X140169487Y-98074815D01*
X140458422Y-98348351D01*
X140483159Y-98371769D01*
X140483164Y-98371773D01*
X140523340Y-98406399D01*
X140523336Y-98406402D01*
X140534223Y-98415591D01*
X141442048Y-99323415D01*
X141442049Y-99323416D01*
X141511973Y-99393340D01*
X141546585Y-99427952D01*
X141669498Y-99510080D01*
X141669511Y-99510087D01*
X141776281Y-99554312D01*
X141806087Y-99566658D01*
X141806091Y-99566658D01*
X141806092Y-99566659D01*
X141951079Y-99595500D01*
X141951082Y-99595500D01*
X142270721Y-99595500D01*
X142337760Y-99615185D01*
X142383515Y-99667989D01*
X142394010Y-99732752D01*
X142388100Y-99787727D01*
X142388100Y-99787734D01*
X142388100Y-99787735D01*
X142388100Y-100442270D01*
X142388101Y-100442276D01*
X142394508Y-100501883D01*
X142444802Y-100636728D01*
X142444803Y-100636730D01*
X142473968Y-100675690D01*
X142498384Y-100741155D01*
X142483532Y-100809428D01*
X142473968Y-100824310D01*
X142444803Y-100863269D01*
X142444802Y-100863271D01*
X142394508Y-100998117D01*
X142388101Y-101057716D01*
X142388100Y-101057735D01*
X142388100Y-101311226D01*
X142368415Y-101378265D01*
X142315611Y-101424020D01*
X142246453Y-101433964D01*
X142237501Y-101432340D01*
X142235330Y-101431863D01*
X142055330Y-101431863D01*
X142055327Y-101431863D01*
X141895076Y-101557059D01*
X141830129Y-101582820D01*
X141779735Y-101577050D01*
X141727758Y-101559827D01*
X141727751Y-101559825D01*
X141626678Y-101549500D01*
X141053330Y-101549500D01*
X141053312Y-101549501D01*
X140952247Y-101559825D01*
X140788484Y-101614092D01*
X140788481Y-101614093D01*
X140641645Y-101704663D01*
X140623810Y-101722498D01*
X140605808Y-101732327D01*
X140590676Y-101746174D01*
X140575765Y-101748731D01*
X140562486Y-101755982D01*
X140542025Y-101754518D01*
X140521812Y-101757985D01*
X140496342Y-101751249D01*
X140492795Y-101750996D01*
X140487691Y-101748962D01*
X140312001Y-101674405D01*
X140295345Y-101665797D01*
X140211522Y-101614095D01*
X140211517Y-101614093D01*
X140211516Y-101614092D01*
X140047753Y-101559826D01*
X140047751Y-101559825D01*
X139946678Y-101549500D01*
X139373330Y-101549500D01*
X139373312Y-101549501D01*
X139272247Y-101559825D01*
X139108484Y-101614092D01*
X139108477Y-101614095D01*
X139039542Y-101656615D01*
X139021024Y-101665996D01*
X138745895Y-101777508D01*
X138726460Y-101779447D01*
X138708163Y-101786272D01*
X138692410Y-101782845D01*
X138676371Y-101784446D01*
X138658974Y-101775571D01*
X138639890Y-101771420D01*
X138616473Y-101753890D01*
X138614132Y-101752696D01*
X138611636Y-101750269D01*
X138486072Y-101624705D01*
X138459191Y-101584473D01*
X138449397Y-101560828D01*
X138449396Y-101560826D01*
X138449394Y-101560821D01*
X138363546Y-101432340D01*
X138361789Y-101429710D01*
X138250292Y-101318213D01*
X138250288Y-101318210D01*
X138119185Y-101230609D01*
X138119172Y-101230602D01*
X137973501Y-101170264D01*
X137973489Y-101170261D01*
X137818845Y-101139500D01*
X137818842Y-101139500D01*
X137661158Y-101139500D01*
X137661155Y-101139500D01*
X137506510Y-101170261D01*
X137506498Y-101170264D01*
X137360827Y-101230602D01*
X137360814Y-101230609D01*
X137229711Y-101318210D01*
X137229707Y-101318213D01*
X137118213Y-101429707D01*
X137118210Y-101429711D01*
X137030609Y-101560814D01*
X137030602Y-101560827D01*
X136970264Y-101706498D01*
X136970261Y-101706510D01*
X136939500Y-101861153D01*
X136939500Y-102018846D01*
X136970261Y-102173489D01*
X136970264Y-102173501D01*
X137030602Y-102319172D01*
X137030609Y-102319185D01*
X137118210Y-102450288D01*
X137118213Y-102450292D01*
X137229710Y-102561789D01*
X137317315Y-102620324D01*
X137360821Y-102649394D01*
X137360826Y-102649396D01*
X137360828Y-102649397D01*
X137384473Y-102659191D01*
X137424705Y-102686072D01*
X137804549Y-103065916D01*
X137875408Y-103136775D01*
X137909085Y-103170452D01*
X138031998Y-103252580D01*
X138032011Y-103252587D01*
X138127031Y-103291945D01*
X138168587Y-103309158D01*
X138168591Y-103309158D01*
X138168592Y-103309159D01*
X138313579Y-103338000D01*
X138313582Y-103338000D01*
X138574944Y-103338000D01*
X138621517Y-103347079D01*
X138954123Y-103481887D01*
X139008855Y-103525309D01*
X139031425Y-103591433D01*
X139014662Y-103659262D01*
X139006345Y-103671729D01*
X138949579Y-103746586D01*
X138949576Y-103746592D01*
X138895373Y-103884041D01*
X138885000Y-103970428D01*
X138885000Y-104062500D01*
X140453856Y-104062500D01*
X140473642Y-104051696D01*
X140543334Y-104056680D01*
X140552390Y-104062500D01*
X142115000Y-104062500D01*
X142115000Y-103970428D01*
X142104626Y-103884041D01*
X142050423Y-103746592D01*
X142050420Y-103746586D01*
X141986344Y-103662089D01*
X141984117Y-103656229D01*
X141979465Y-103652027D01*
X141971852Y-103623961D01*
X141961521Y-103596778D01*
X141962815Y-103590643D01*
X141961175Y-103584594D01*
X141969942Y-103556872D01*
X141975949Y-103528414D01*
X141980832Y-103522443D01*
X141982245Y-103517977D01*
X141992731Y-103507894D01*
X142005905Y-103491788D01*
X142012612Y-103486214D01*
X142038350Y-103470340D01*
X142070916Y-103437773D01*
X142075309Y-103434124D01*
X142102347Y-103422447D01*
X142128194Y-103408334D01*
X142137293Y-103407355D01*
X142139453Y-103406423D01*
X142142023Y-103406847D01*
X142154552Y-103405500D01*
X142476370Y-103405500D01*
X142543409Y-103425185D01*
X142589164Y-103477989D01*
X142599108Y-103547147D01*
X142593527Y-103566606D01*
X142593959Y-103566724D01*
X142591510Y-103575724D01*
X142588600Y-103600805D01*
X142588600Y-103675000D01*
X145169799Y-103675000D01*
X145169799Y-103600814D01*
X145169797Y-103600791D01*
X145166891Y-103575730D01*
X145166891Y-103575729D01*
X145127579Y-103486695D01*
X145118508Y-103417416D01*
X145148332Y-103354231D01*
X145166700Y-103337345D01*
X145227346Y-103291946D01*
X145313596Y-103176731D01*
X145363891Y-103041883D01*
X145370300Y-102982273D01*
X145370299Y-102327728D01*
X145364389Y-102272752D01*
X145376795Y-102203995D01*
X145424406Y-102152858D01*
X145487679Y-102135500D01*
X146084920Y-102135500D01*
X146212634Y-102110095D01*
X146229913Y-102106658D01*
X146366495Y-102050084D01*
X146421519Y-102013318D01*
X146489416Y-101967952D01*
X146517792Y-101939575D01*
X146524391Y-101934542D01*
X146549567Y-101924891D01*
X146573232Y-101911969D01*
X146581702Y-101912574D01*
X146589632Y-101909535D01*
X146616032Y-101915028D01*
X146642924Y-101916951D01*
X146653950Y-101921682D01*
X147246193Y-102210582D01*
X147297814Y-102257664D01*
X147315580Y-102324406D01*
X147315700Y-102324406D01*
X147315700Y-102324856D01*
X147315787Y-102325183D01*
X147315700Y-102327394D01*
X147315700Y-102982270D01*
X147315701Y-102982276D01*
X147322275Y-103043429D01*
X147316310Y-103076484D01*
X147311106Y-103109642D01*
X147310129Y-103110740D01*
X147309868Y-103112188D01*
X147286975Y-103136775D01*
X147264675Y-103161852D01*
X147263016Y-103162509D01*
X147262257Y-103163325D01*
X147232384Y-103176099D01*
X147227810Y-103177378D01*
X147213441Y-103180236D01*
X147097288Y-103203341D01*
X147025804Y-103232951D01*
X147018927Y-103235799D01*
X147018925Y-103235800D01*
X146960706Y-103259915D01*
X146917354Y-103288882D01*
X146917353Y-103288881D01*
X146837785Y-103342046D01*
X146837778Y-103342052D01*
X146167048Y-104012783D01*
X146143604Y-104047871D01*
X146118213Y-104085873D01*
X146084914Y-104135707D01*
X146084913Y-104135709D01*
X146028343Y-104272282D01*
X146028340Y-104272292D01*
X145999500Y-104417279D01*
X145999500Y-107355448D01*
X145979815Y-107422487D01*
X145963181Y-107443129D01*
X145929661Y-107476648D01*
X145839093Y-107623481D01*
X145839092Y-107623484D01*
X145784826Y-107787247D01*
X145784826Y-107787248D01*
X145784825Y-107787248D01*
X145774500Y-107888315D01*
X145774500Y-108586669D01*
X145774501Y-108586687D01*
X145784825Y-108687752D01*
X145839092Y-108851515D01*
X145839093Y-108851518D01*
X145854512Y-108876516D01*
X145926374Y-108993023D01*
X145929661Y-108998351D01*
X145931629Y-109000319D01*
X145932548Y-109002002D01*
X145934138Y-109004013D01*
X145933794Y-109004284D01*
X145965114Y-109061642D01*
X145960130Y-109131334D01*
X145918258Y-109187267D01*
X145852794Y-109211684D01*
X145843948Y-109212000D01*
X144787682Y-109212000D01*
X144720643Y-109192315D01*
X144674888Y-109139511D01*
X144664944Y-109070353D01*
X144685222Y-109024793D01*
X144682148Y-109022897D01*
X144685938Y-109016751D01*
X144685940Y-109016750D01*
X144776508Y-108869916D01*
X144830774Y-108706153D01*
X144841100Y-108605077D01*
X144841099Y-107906724D01*
X144839219Y-107888323D01*
X144830774Y-107805647D01*
X144797595Y-107705521D01*
X144776508Y-107641884D01*
X144685940Y-107495050D01*
X144652419Y-107461529D01*
X144637715Y-107434601D01*
X144621123Y-107408783D01*
X144620231Y-107402582D01*
X144618934Y-107400206D01*
X144616100Y-107373848D01*
X144616100Y-107368899D01*
X144635785Y-107301860D01*
X144688589Y-107256105D01*
X144740100Y-107244899D01*
X144917671Y-107244899D01*
X144917672Y-107244899D01*
X144977283Y-107238491D01*
X145112131Y-107188196D01*
X145227346Y-107101946D01*
X145313596Y-106986731D01*
X145363891Y-106851883D01*
X145370300Y-106792273D01*
X145370299Y-106137728D01*
X145363891Y-106078117D01*
X145313596Y-105943269D01*
X145284429Y-105904307D01*
X145260013Y-105838848D01*
X145274864Y-105770575D01*
X145284421Y-105755702D01*
X145313596Y-105716731D01*
X145363891Y-105581883D01*
X145370300Y-105522273D01*
X145370299Y-104867728D01*
X145363891Y-104808117D01*
X145354922Y-104784071D01*
X145313597Y-104673271D01*
X145313593Y-104673264D01*
X145227347Y-104558055D01*
X145227344Y-104558052D01*
X145166703Y-104512656D01*
X145124832Y-104456722D01*
X145119848Y-104387031D01*
X145127580Y-104363303D01*
X145166889Y-104274277D01*
X145166889Y-104274275D01*
X145169799Y-104249194D01*
X145169800Y-104249191D01*
X145169800Y-104175000D01*
X142588601Y-104175000D01*
X142588601Y-104249185D01*
X142588602Y-104249208D01*
X142591508Y-104274269D01*
X142593958Y-104283271D01*
X142591574Y-104283919D01*
X142598876Y-104339699D01*
X142569048Y-104402883D01*
X142509797Y-104439910D01*
X142476371Y-104444500D01*
X142330280Y-104444500D01*
X142185292Y-104473340D01*
X142185282Y-104473343D01*
X142048711Y-104529912D01*
X142048699Y-104529919D01*
X142031215Y-104541602D01*
X141964538Y-104562480D01*
X141962324Y-104562500D01*
X140546144Y-104562500D01*
X140526358Y-104573304D01*
X140456666Y-104568320D01*
X140447610Y-104562500D01*
X138885000Y-104562500D01*
X138885000Y-104654571D01*
X138895373Y-104740958D01*
X138952689Y-104886301D01*
X138949622Y-104887510D01*
X138961784Y-104940321D01*
X138938165Y-105006077D01*
X138882744Y-105048625D01*
X138850606Y-105056336D01*
X138816446Y-105059826D01*
X138652684Y-105114092D01*
X138652681Y-105114093D01*
X138505848Y-105204661D01*
X138391881Y-105318629D01*
X138330558Y-105352114D01*
X138260866Y-105347130D01*
X138216519Y-105318629D01*
X138102551Y-105204661D01*
X138102550Y-105204660D01*
X137996627Y-105139326D01*
X137955718Y-105114093D01*
X137955713Y-105114091D01*
X137954269Y-105113612D01*
X137791953Y-105059826D01*
X137791951Y-105059825D01*
X137690878Y-105049500D01*
X137092530Y-105049500D01*
X137092512Y-105049501D01*
X136991447Y-105059825D01*
X136827684Y-105114092D01*
X136827681Y-105114093D01*
X136680850Y-105204659D01*
X136657537Y-105227973D01*
X136596213Y-105261457D01*
X136526521Y-105256471D01*
X136470589Y-105214599D01*
X136446173Y-105149134D01*
X136461026Y-105080861D01*
X136471054Y-105065364D01*
X136514620Y-105007914D01*
X136514623Y-105007907D01*
X136568826Y-104870458D01*
X136579200Y-104784071D01*
X136579200Y-104692000D01*
X135029200Y-104692000D01*
X135029200Y-104784071D01*
X135039573Y-104870458D01*
X135093776Y-105007907D01*
X135093777Y-105007909D01*
X135157855Y-105092408D01*
X135182678Y-105157720D01*
X135168250Y-105226084D01*
X135124152Y-105272870D01*
X135105852Y-105284158D01*
X135105849Y-105284160D01*
X134983861Y-105406148D01*
X134893293Y-105552981D01*
X134893291Y-105552986D01*
X134887051Y-105571817D01*
X134839026Y-105716747D01*
X134839026Y-105716748D01*
X134839025Y-105716748D01*
X134828700Y-105817815D01*
X134828700Y-106516169D01*
X134828701Y-106516187D01*
X134839025Y-106617252D01*
X134839026Y-106617255D01*
X134890722Y-106773260D01*
X134893124Y-106843088D01*
X134857392Y-106903130D01*
X134794872Y-106934323D01*
X134725413Y-106926763D01*
X134696875Y-106907667D01*
X134695713Y-106909138D01*
X134690052Y-106904661D01*
X134543218Y-106814093D01*
X134543213Y-106814091D01*
X134541769Y-106813612D01*
X134379453Y-106759826D01*
X134379451Y-106759825D01*
X134278378Y-106749500D01*
X133680030Y-106749500D01*
X133680012Y-106749501D01*
X133578947Y-106759825D01*
X133415184Y-106814092D01*
X133415181Y-106814093D01*
X133268348Y-106904661D01*
X133234829Y-106938181D01*
X133173506Y-106971666D01*
X133147148Y-106974500D01*
X129016830Y-106974500D01*
X128949791Y-106954815D01*
X128929149Y-106938181D01*
X127069319Y-105078351D01*
X127035834Y-105017028D01*
X127033000Y-104990670D01*
X127033000Y-104099928D01*
X135029200Y-104099928D01*
X135029200Y-104192000D01*
X135554200Y-104192000D01*
X136054200Y-104192000D01*
X136579200Y-104192000D01*
X136579200Y-104099928D01*
X136568826Y-104013541D01*
X136514623Y-103876092D01*
X136514620Y-103876086D01*
X136425343Y-103758356D01*
X136307613Y-103669079D01*
X136307607Y-103669076D01*
X136170158Y-103614873D01*
X136083772Y-103604500D01*
X136054200Y-103604500D01*
X136054200Y-104192000D01*
X135554200Y-104192000D01*
X135554200Y-103604500D01*
X135524628Y-103604500D01*
X135438241Y-103614873D01*
X135300792Y-103669076D01*
X135300786Y-103669079D01*
X135183056Y-103758356D01*
X135093779Y-103876086D01*
X135093776Y-103876092D01*
X135039573Y-104013541D01*
X135029200Y-104099928D01*
X127033000Y-104099928D01*
X127033000Y-103786852D01*
X127041644Y-103757411D01*
X127048168Y-103727425D01*
X127051922Y-103722409D01*
X127052685Y-103719813D01*
X127069319Y-103699171D01*
X127107319Y-103661171D01*
X127168642Y-103627686D01*
X127238334Y-103632670D01*
X127282681Y-103661171D01*
X127396650Y-103775140D01*
X127543484Y-103865708D01*
X127707247Y-103919974D01*
X127808323Y-103930300D01*
X128406676Y-103930299D01*
X128406684Y-103930298D01*
X128406687Y-103930298D01*
X128462030Y-103924644D01*
X128507753Y-103919974D01*
X128671516Y-103865708D01*
X128811347Y-103779459D01*
X128878737Y-103761020D01*
X128945401Y-103781942D01*
X128953352Y-103787732D01*
X128956648Y-103790338D01*
X128956650Y-103790340D01*
X129103484Y-103880908D01*
X129267247Y-103935174D01*
X129368323Y-103945500D01*
X130066676Y-103945499D01*
X130066684Y-103945498D01*
X130066687Y-103945498D01*
X130122030Y-103939844D01*
X130167753Y-103935174D01*
X130331516Y-103880908D01*
X130478350Y-103790340D01*
X130600340Y-103668350D01*
X130611624Y-103650054D01*
X130663569Y-103603329D01*
X130732531Y-103592104D01*
X130792089Y-103616344D01*
X130876586Y-103680420D01*
X130876592Y-103680423D01*
X131014041Y-103734626D01*
X131100428Y-103745000D01*
X131192500Y-103745000D01*
X131692500Y-103745000D01*
X131784572Y-103745000D01*
X131870958Y-103734626D01*
X132008407Y-103680423D01*
X132008413Y-103680420D01*
X132126143Y-103591143D01*
X132215420Y-103473413D01*
X132215423Y-103473407D01*
X132269626Y-103335958D01*
X132280000Y-103249571D01*
X132280000Y-103220000D01*
X131692500Y-103220000D01*
X131692500Y-103745000D01*
X131192500Y-103745000D01*
X131192500Y-102720000D01*
X131692500Y-102720000D01*
X132280000Y-102720000D01*
X132280000Y-102690428D01*
X132269626Y-102604041D01*
X132215423Y-102466592D01*
X132215420Y-102466586D01*
X132126143Y-102348856D01*
X132008413Y-102259579D01*
X132008407Y-102259576D01*
X131870958Y-102205373D01*
X131784572Y-102195000D01*
X131692500Y-102195000D01*
X131692500Y-102720000D01*
X131192500Y-102720000D01*
X131192500Y-102195000D01*
X131100428Y-102195000D01*
X131014041Y-102205373D01*
X130876592Y-102259576D01*
X130876586Y-102259579D01*
X130792089Y-102323655D01*
X130726777Y-102348478D01*
X130658413Y-102334050D01*
X130625647Y-102308521D01*
X130617763Y-102299898D01*
X130600340Y-102271650D01*
X130502348Y-102173658D01*
X130500483Y-102171618D01*
X130486297Y-102142625D01*
X130470834Y-102114306D01*
X130470381Y-102110095D01*
X130469776Y-102108858D01*
X130470021Y-102106751D01*
X130468000Y-102087948D01*
X130468000Y-102057052D01*
X130487685Y-101990013D01*
X130504319Y-101969371D01*
X130510743Y-101962947D01*
X130530340Y-101943350D01*
X130620908Y-101796516D01*
X130675174Y-101632753D01*
X130685500Y-101531677D01*
X130685499Y-100933324D01*
X130683312Y-100911918D01*
X130675174Y-100832247D01*
X130667612Y-100809428D01*
X130620908Y-100668484D01*
X130530340Y-100521650D01*
X130416371Y-100407681D01*
X130382886Y-100346358D01*
X130387870Y-100276666D01*
X130416371Y-100232319D01*
X130463184Y-100185506D01*
X130530340Y-100118350D01*
X130620908Y-99971516D01*
X130675174Y-99807753D01*
X130685500Y-99706677D01*
X130685499Y-99108324D01*
X130675174Y-99007247D01*
X130620908Y-98843484D01*
X130530340Y-98696650D01*
X130496819Y-98663129D01*
X130463334Y-98601806D01*
X130460500Y-98575448D01*
X130460500Y-97886079D01*
X130431659Y-97741092D01*
X130431658Y-97741091D01*
X130431658Y-97741087D01*
X130427671Y-97731461D01*
X130375087Y-97604511D01*
X130375080Y-97604498D01*
X130292952Y-97481585D01*
X130261909Y-97450542D01*
X130188416Y-97377049D01*
X129754996Y-96943629D01*
X129719620Y-96908253D01*
X135032400Y-96908253D01*
X135043013Y-96996643D01*
X135098479Y-97137295D01*
X135189835Y-97257764D01*
X135310304Y-97349120D01*
X135450956Y-97404586D01*
X135539346Y-97415200D01*
X136332400Y-97415200D01*
X136832400Y-97415200D01*
X137625454Y-97415200D01*
X137713843Y-97404586D01*
X137854495Y-97349120D01*
X137974964Y-97257764D01*
X138066320Y-97137295D01*
X138121786Y-96996643D01*
X138132400Y-96908253D01*
X138132400Y-96465200D01*
X136832400Y-96465200D01*
X136832400Y-97415200D01*
X136332400Y-97415200D01*
X136332400Y-96465200D01*
X135032400Y-96465200D01*
X135032400Y-96908253D01*
X129719620Y-96908253D01*
X129312887Y-96501519D01*
X128417484Y-95606115D01*
X128333515Y-95522146D01*
X135032400Y-95522146D01*
X135032400Y-95965200D01*
X136332400Y-95965200D01*
X136832400Y-95965200D01*
X138132400Y-95965200D01*
X138132400Y-95522146D01*
X138121786Y-95433756D01*
X138066320Y-95293104D01*
X137974964Y-95172635D01*
X137854495Y-95081279D01*
X137713843Y-95025813D01*
X137625454Y-95015200D01*
X136832400Y-95015200D01*
X136832400Y-95965200D01*
X136332400Y-95965200D01*
X136332400Y-95015200D01*
X135539346Y-95015200D01*
X135450956Y-95025813D01*
X135310304Y-95081279D01*
X135189835Y-95172635D01*
X135098479Y-95293104D01*
X135043013Y-95433756D01*
X135032400Y-95522146D01*
X128333515Y-95522146D01*
X127935621Y-95124252D01*
X127935614Y-95124246D01*
X127861929Y-95075012D01*
X127861929Y-95075013D01*
X127812691Y-95042113D01*
X127676117Y-94985543D01*
X127676107Y-94985540D01*
X127531120Y-94956700D01*
X127531118Y-94956700D01*
X127423918Y-94956700D01*
X121993917Y-94956700D01*
X121846082Y-94956700D01*
X121846080Y-94956700D01*
X121701092Y-94985540D01*
X121701082Y-94985543D01*
X121564511Y-95042112D01*
X121564498Y-95042119D01*
X121441584Y-95124248D01*
X121441580Y-95124251D01*
X118083070Y-98482761D01*
X118021747Y-98516246D01*
X117952055Y-98511262D01*
X117896122Y-98469390D01*
X117879207Y-98438413D01*
X117834397Y-98318271D01*
X117834393Y-98318264D01*
X117748147Y-98203055D01*
X117748144Y-98203052D01*
X117632935Y-98116806D01*
X117632928Y-98116802D01*
X117498082Y-98066508D01*
X117498083Y-98066508D01*
X117438483Y-98060101D01*
X117438481Y-98060100D01*
X117438473Y-98060100D01*
X117438464Y-98060100D01*
X115361529Y-98060100D01*
X115361523Y-98060101D01*
X115297298Y-98067005D01*
X115295039Y-98066597D01*
X115292891Y-98067399D01*
X115260836Y-98060425D01*
X115228538Y-98054598D01*
X115226158Y-98052882D01*
X115224618Y-98052547D01*
X115196364Y-98031396D01*
X115036019Y-97871051D01*
X115002534Y-97809728D01*
X114999700Y-97783370D01*
X114999700Y-95764629D01*
X115019385Y-95697590D01*
X115036019Y-95676948D01*
X117063748Y-93649219D01*
X117125071Y-93615734D01*
X117151429Y-93612900D01*
X123416320Y-93612900D01*
X123513862Y-93593496D01*
X123561313Y-93584058D01*
X123697895Y-93527484D01*
X123747129Y-93494586D01*
X123820816Y-93445352D01*
X125423552Y-91842616D01*
X125472786Y-91768929D01*
X125505684Y-91719695D01*
X125529118Y-91663120D01*
X125562259Y-91583112D01*
X125591100Y-91438117D01*
X125591100Y-91290282D01*
X125591100Y-91269916D01*
X125598929Y-91243250D01*
X125603515Y-91215834D01*
X125609415Y-91207539D01*
X125610785Y-91202877D01*
X125623272Y-91186588D01*
X125625291Y-91184362D01*
X125718153Y-91091501D01*
X125824596Y-90944994D01*
X125906811Y-90783639D01*
X125962771Y-90611409D01*
X125977931Y-90515694D01*
X125991100Y-90432551D01*
X125991100Y-90251454D01*
X125991099Y-90251442D01*
X125990622Y-90248428D01*
X140350600Y-90248428D01*
X140350600Y-90435571D01*
X140387106Y-90619097D01*
X140387108Y-90619105D01*
X140458719Y-90791990D01*
X140458726Y-90792002D01*
X140474073Y-90814971D01*
X140474074Y-90814972D01*
X140858461Y-90430584D01*
X140881267Y-90515694D01*
X140940510Y-90618306D01*
X141024294Y-90702090D01*
X141126906Y-90761333D01*
X141212014Y-90784137D01*
X140827627Y-91168524D01*
X140827627Y-91168525D01*
X140850607Y-91183879D01*
X141023494Y-91255491D01*
X141023502Y-91255493D01*
X141207028Y-91291999D01*
X141207031Y-91292000D01*
X141394169Y-91292000D01*
X141394171Y-91291999D01*
X141577697Y-91255493D01*
X141577705Y-91255491D01*
X141750592Y-91183879D01*
X141750598Y-91183876D01*
X141773571Y-91168525D01*
X141773572Y-91168524D01*
X141389185Y-90784137D01*
X141474294Y-90761333D01*
X141576906Y-90702090D01*
X141660690Y-90618306D01*
X141719933Y-90515694D01*
X141742737Y-90430585D01*
X142127124Y-90814972D01*
X142127125Y-90814971D01*
X142142476Y-90791998D01*
X142142479Y-90791992D01*
X142214091Y-90619105D01*
X142214093Y-90619097D01*
X142250599Y-90435571D01*
X142250600Y-90435569D01*
X142250600Y-90248430D01*
X142250599Y-90248428D01*
X142214093Y-90064902D01*
X142214091Y-90064894D01*
X142142479Y-89892007D01*
X142127124Y-89869027D01*
X141742737Y-90253414D01*
X141719933Y-90168306D01*
X141660690Y-90065694D01*
X141576906Y-89981910D01*
X141474294Y-89922667D01*
X141389184Y-89899861D01*
X141773572Y-89515474D01*
X141773571Y-89515473D01*
X141750602Y-89500126D01*
X141750590Y-89500119D01*
X141577705Y-89428508D01*
X141577697Y-89428506D01*
X141394170Y-89392000D01*
X141207030Y-89392000D01*
X141023502Y-89428506D01*
X141023494Y-89428508D01*
X140850605Y-89500121D01*
X140827627Y-89515473D01*
X140827627Y-89515474D01*
X141212015Y-89899861D01*
X141126906Y-89922667D01*
X141024294Y-89981910D01*
X140940510Y-90065694D01*
X140881267Y-90168306D01*
X140858461Y-90253414D01*
X140474074Y-89869027D01*
X140474073Y-89869027D01*
X140458721Y-89892005D01*
X140387108Y-90064894D01*
X140387106Y-90064902D01*
X140350600Y-90248428D01*
X125990622Y-90248428D01*
X125974990Y-90149742D01*
X125962771Y-90072591D01*
X125906811Y-89900361D01*
X125906811Y-89900360D01*
X125878340Y-89844484D01*
X125824596Y-89739006D01*
X125812963Y-89722994D01*
X125748719Y-89634569D01*
X125748718Y-89634568D01*
X125718156Y-89592502D01*
X125590099Y-89464445D01*
X125590094Y-89464441D01*
X125443597Y-89358006D01*
X125443596Y-89358005D01*
X125443594Y-89358004D01*
X125391900Y-89331664D01*
X125282239Y-89275788D01*
X125282236Y-89275787D01*
X125110010Y-89219829D01*
X124931151Y-89191500D01*
X124931146Y-89191500D01*
X124750054Y-89191500D01*
X124750049Y-89191500D01*
X124571189Y-89219829D01*
X124398963Y-89275787D01*
X124398960Y-89275788D01*
X124237602Y-89358006D01*
X124091105Y-89464441D01*
X124091100Y-89464445D01*
X123963045Y-89592500D01*
X123963041Y-89592505D01*
X123856606Y-89739002D01*
X123774388Y-89900360D01*
X123774387Y-89900363D01*
X123718429Y-90072589D01*
X123690100Y-90251448D01*
X123690100Y-90432551D01*
X123718429Y-90611410D01*
X123774387Y-90783636D01*
X123774388Y-90783639D01*
X123856605Y-90944996D01*
X123938200Y-91057304D01*
X123961679Y-91123110D01*
X123945853Y-91191164D01*
X123925562Y-91217869D01*
X123067851Y-92075581D01*
X123006528Y-92109066D01*
X122980170Y-92111900D01*
X116715280Y-92111900D01*
X116570292Y-92140740D01*
X116570282Y-92140743D01*
X116433711Y-92197312D01*
X116433698Y-92197319D01*
X116310784Y-92279448D01*
X116310780Y-92279451D01*
X113666252Y-94923978D01*
X113666249Y-94923981D01*
X113625116Y-94985541D01*
X113625117Y-94985542D01*
X113584114Y-95046908D01*
X113527543Y-95183482D01*
X113527540Y-95183492D01*
X113498700Y-95328479D01*
X113498700Y-95328482D01*
X113498700Y-98219518D01*
X113498700Y-98219520D01*
X113498699Y-98219520D01*
X113527540Y-98364507D01*
X113527543Y-98364517D01*
X113579520Y-98490000D01*
X113584116Y-98501095D01*
X113600102Y-98525020D01*
X113612082Y-98542950D01*
X113666249Y-98624018D01*
X113666252Y-98624021D01*
X114150544Y-99108312D01*
X114465184Y-99422952D01*
X114505544Y-99449919D01*
X114535173Y-99469716D01*
X114535174Y-99469717D01*
X114588098Y-99505080D01*
X114588111Y-99505087D01*
X114655727Y-99533094D01*
X114724687Y-99561658D01*
X114817153Y-99580051D01*
X114879064Y-99612436D01*
X114913638Y-99673151D01*
X114913666Y-99715138D01*
X114916139Y-99715404D01*
X114915310Y-99723114D01*
X114915309Y-99723117D01*
X114908900Y-99782727D01*
X114908900Y-99782734D01*
X114908900Y-99782735D01*
X114908900Y-100437270D01*
X114908901Y-100437276D01*
X114915308Y-100496883D01*
X114965602Y-100631728D01*
X114965603Y-100631730D01*
X114994768Y-100670690D01*
X115019184Y-100736155D01*
X115004332Y-100804428D01*
X114994768Y-100819310D01*
X114965603Y-100858269D01*
X114965602Y-100858271D01*
X114915310Y-100993113D01*
X114915309Y-100993117D01*
X114908900Y-101052727D01*
X114908900Y-101052734D01*
X114908900Y-101052735D01*
X114908900Y-101552955D01*
X114889215Y-101619994D01*
X114836411Y-101665749D01*
X114767253Y-101675693D01*
X114745902Y-101670662D01*
X114631494Y-101632751D01*
X114603351Y-101623425D01*
X114502278Y-101613100D01*
X113928930Y-101613100D01*
X113928912Y-101613101D01*
X113827847Y-101623425D01*
X113781984Y-101638623D01*
X113764834Y-101644306D01*
X113725832Y-101650600D01*
X113105168Y-101650600D01*
X113066164Y-101644306D01*
X113003153Y-101623426D01*
X113003151Y-101623425D01*
X112902078Y-101613100D01*
X112328730Y-101613100D01*
X112328712Y-101613101D01*
X112227647Y-101623425D01*
X112063884Y-101677692D01*
X112063881Y-101677693D01*
X111917048Y-101768261D01*
X111795061Y-101890248D01*
X111704493Y-102037081D01*
X111704491Y-102037086D01*
X111680708Y-102108858D01*
X111650226Y-102200847D01*
X111650226Y-102200848D01*
X111650225Y-102200848D01*
X111639900Y-102301915D01*
X111639900Y-102414664D01*
X111637814Y-102435836D01*
X111637728Y-102437772D01*
X111637632Y-102438274D01*
X111614900Y-102552559D01*
X107341100Y-102552559D01*
X107341100Y-90248428D01*
X121350600Y-90248428D01*
X121350600Y-90435571D01*
X121387106Y-90619097D01*
X121387108Y-90619105D01*
X121458719Y-90791990D01*
X121458726Y-90792002D01*
X121474073Y-90814971D01*
X121474074Y-90814972D01*
X121858461Y-90430584D01*
X121881267Y-90515694D01*
X121940510Y-90618306D01*
X122024294Y-90702090D01*
X122126906Y-90761333D01*
X122212014Y-90784137D01*
X121827627Y-91168524D01*
X121827627Y-91168525D01*
X121850607Y-91183879D01*
X122023494Y-91255491D01*
X122023502Y-91255493D01*
X122207028Y-91291999D01*
X122207031Y-91292000D01*
X122394169Y-91292000D01*
X122394171Y-91291999D01*
X122577697Y-91255493D01*
X122577705Y-91255491D01*
X122750592Y-91183879D01*
X122750598Y-91183876D01*
X122773571Y-91168525D01*
X122773572Y-91168524D01*
X122389185Y-90784137D01*
X122474294Y-90761333D01*
X122576906Y-90702090D01*
X122660690Y-90618306D01*
X122719933Y-90515694D01*
X122742737Y-90430585D01*
X123127124Y-90814972D01*
X123127125Y-90814971D01*
X123142476Y-90791998D01*
X123142479Y-90791992D01*
X123214091Y-90619105D01*
X123214093Y-90619097D01*
X123250599Y-90435571D01*
X123250600Y-90435569D01*
X123250600Y-90248430D01*
X123250599Y-90248428D01*
X123214093Y-90064902D01*
X123214091Y-90064894D01*
X123142479Y-89892007D01*
X123127124Y-89869027D01*
X122742737Y-90253414D01*
X122719933Y-90168306D01*
X122660690Y-90065694D01*
X122576906Y-89981910D01*
X122474294Y-89922667D01*
X122389184Y-89899861D01*
X122773572Y-89515474D01*
X122773571Y-89515473D01*
X122750602Y-89500126D01*
X122750590Y-89500119D01*
X122577705Y-89428508D01*
X122577697Y-89428506D01*
X122394170Y-89392000D01*
X122207030Y-89392000D01*
X122023502Y-89428506D01*
X122023494Y-89428508D01*
X121850605Y-89500121D01*
X121827627Y-89515473D01*
X121827627Y-89515474D01*
X122212015Y-89899861D01*
X122126906Y-89922667D01*
X122024294Y-89981910D01*
X121940510Y-90065694D01*
X121881267Y-90168306D01*
X121858461Y-90253414D01*
X121474074Y-89869027D01*
X121474073Y-89869027D01*
X121458721Y-89892005D01*
X121387108Y-90064894D01*
X121387106Y-90064902D01*
X121350600Y-90248428D01*
X107341100Y-90248428D01*
X107341100Y-85143947D01*
X118260600Y-85143947D01*
X118260600Y-85380052D01*
X118297534Y-85613247D01*
X118370497Y-85837802D01*
X118477687Y-86048174D01*
X118537938Y-86131104D01*
X118537940Y-86131105D01*
X118898025Y-85771019D01*
X118983849Y-85899463D01*
X119123137Y-86038751D01*
X119251578Y-86124573D01*
X118891493Y-86484658D01*
X118974428Y-86544914D01*
X119184797Y-86652102D01*
X119409352Y-86725065D01*
X119409351Y-86725065D01*
X119642548Y-86762000D01*
X119878652Y-86762000D01*
X120111847Y-86725065D01*
X120336402Y-86652102D01*
X120546763Y-86544918D01*
X120546769Y-86544914D01*
X120629704Y-86484658D01*
X120629705Y-86484658D01*
X120269620Y-86124573D01*
X120398063Y-86038751D01*
X120537351Y-85899463D01*
X120623173Y-85771020D01*
X120983258Y-86131105D01*
X120983258Y-86131104D01*
X121043514Y-86048169D01*
X121043518Y-86048163D01*
X121150702Y-85837802D01*
X121223665Y-85613247D01*
X121260600Y-85380052D01*
X121260600Y-85143947D01*
X128420600Y-85143947D01*
X128420600Y-85380052D01*
X128457534Y-85613247D01*
X128530497Y-85837802D01*
X128637687Y-86048174D01*
X128697938Y-86131104D01*
X128697940Y-86131105D01*
X129058025Y-85771019D01*
X129143849Y-85899463D01*
X129283137Y-86038751D01*
X129411578Y-86124573D01*
X129051493Y-86484658D01*
X129134428Y-86544914D01*
X129344797Y-86652102D01*
X129569352Y-86725065D01*
X129569351Y-86725065D01*
X129802548Y-86762000D01*
X130038652Y-86762000D01*
X130271847Y-86725065D01*
X130496402Y-86652102D01*
X130706763Y-86544918D01*
X130706769Y-86544914D01*
X130789704Y-86484658D01*
X130789705Y-86484658D01*
X130429620Y-86124573D01*
X130558063Y-86038751D01*
X130697351Y-85899463D01*
X130783173Y-85771020D01*
X131143258Y-86131105D01*
X131143258Y-86131104D01*
X131203514Y-86048169D01*
X131203518Y-86048163D01*
X131310702Y-85837802D01*
X131383665Y-85613247D01*
X131420600Y-85380052D01*
X131420600Y-85143947D01*
X137260600Y-85143947D01*
X137260600Y-85380052D01*
X137297534Y-85613247D01*
X137370497Y-85837802D01*
X137477687Y-86048174D01*
X137537938Y-86131104D01*
X137537940Y-86131105D01*
X137898025Y-85771019D01*
X137983849Y-85899463D01*
X138123137Y-86038751D01*
X138251578Y-86124573D01*
X137891493Y-86484658D01*
X137974428Y-86544914D01*
X138184797Y-86652102D01*
X138409352Y-86725065D01*
X138409351Y-86725065D01*
X138642548Y-86762000D01*
X138878652Y-86762000D01*
X139111847Y-86725065D01*
X139336402Y-86652102D01*
X139546763Y-86544918D01*
X139546769Y-86544914D01*
X139629704Y-86484658D01*
X139629705Y-86484658D01*
X139269620Y-86124573D01*
X139398063Y-86038751D01*
X139537351Y-85899463D01*
X139623173Y-85771020D01*
X139983258Y-86131105D01*
X139983258Y-86131104D01*
X140043514Y-86048169D01*
X140043518Y-86048163D01*
X140150702Y-85837802D01*
X140223665Y-85613247D01*
X140260600Y-85380052D01*
X140260600Y-85143947D01*
X147420600Y-85143947D01*
X147420600Y-85380052D01*
X147457534Y-85613247D01*
X147530497Y-85837802D01*
X147637687Y-86048174D01*
X147697938Y-86131104D01*
X147697940Y-86131105D01*
X148058025Y-85771019D01*
X148143849Y-85899463D01*
X148283137Y-86038751D01*
X148411578Y-86124573D01*
X148051493Y-86484658D01*
X148134428Y-86544914D01*
X148344797Y-86652102D01*
X148569352Y-86725065D01*
X148569351Y-86725065D01*
X148802548Y-86762000D01*
X149038652Y-86762000D01*
X149271847Y-86725065D01*
X149496402Y-86652102D01*
X149706763Y-86544918D01*
X149706769Y-86544914D01*
X149789704Y-86484658D01*
X149789705Y-86484658D01*
X149429620Y-86124573D01*
X149558063Y-86038751D01*
X149697351Y-85899463D01*
X149783173Y-85771020D01*
X150143258Y-86131105D01*
X150143258Y-86131104D01*
X150203514Y-86048169D01*
X150203518Y-86048163D01*
X150310702Y-85837802D01*
X150383665Y-85613247D01*
X150420600Y-85380052D01*
X150420600Y-85143947D01*
X150383665Y-84910752D01*
X150310702Y-84686197D01*
X150203514Y-84475828D01*
X150143258Y-84392894D01*
X150143258Y-84392893D01*
X149783173Y-84752978D01*
X149697351Y-84624537D01*
X149558063Y-84485249D01*
X149429619Y-84399425D01*
X149789705Y-84039340D01*
X149789704Y-84039338D01*
X149706774Y-83979087D01*
X149496402Y-83871897D01*
X149271847Y-83798934D01*
X149271848Y-83798934D01*
X149038652Y-83762000D01*
X148802548Y-83762000D01*
X148569352Y-83798934D01*
X148344797Y-83871897D01*
X148134430Y-83979084D01*
X148051494Y-84039340D01*
X148411579Y-84399425D01*
X148283137Y-84485249D01*
X148143849Y-84624537D01*
X148058025Y-84752979D01*
X147697940Y-84392894D01*
X147637684Y-84475830D01*
X147530497Y-84686197D01*
X147457534Y-84910752D01*
X147420600Y-85143947D01*
X140260600Y-85143947D01*
X140223665Y-84910752D01*
X140150702Y-84686197D01*
X140043514Y-84475828D01*
X139983258Y-84392894D01*
X139983258Y-84392893D01*
X139623173Y-84752978D01*
X139537351Y-84624537D01*
X139398063Y-84485249D01*
X139269619Y-84399425D01*
X139629705Y-84039340D01*
X139629704Y-84039339D01*
X139546774Y-83979087D01*
X139336402Y-83871897D01*
X139111847Y-83798934D01*
X139111848Y-83798934D01*
X138878652Y-83762000D01*
X138642548Y-83762000D01*
X138409352Y-83798934D01*
X138184797Y-83871897D01*
X137974430Y-83979084D01*
X137891494Y-84039340D01*
X138251579Y-84399425D01*
X138123137Y-84485249D01*
X137983849Y-84624537D01*
X137898025Y-84752979D01*
X137537940Y-84392894D01*
X137477684Y-84475830D01*
X137370497Y-84686197D01*
X137297534Y-84910752D01*
X137260600Y-85143947D01*
X131420600Y-85143947D01*
X131383665Y-84910752D01*
X131310702Y-84686197D01*
X131203514Y-84475828D01*
X131143258Y-84392894D01*
X131143258Y-84392893D01*
X130783173Y-84752978D01*
X130697351Y-84624537D01*
X130558063Y-84485249D01*
X130429619Y-84399425D01*
X130789705Y-84039340D01*
X130789704Y-84039339D01*
X130706774Y-83979087D01*
X130496402Y-83871897D01*
X130271847Y-83798934D01*
X130271848Y-83798934D01*
X130038652Y-83762000D01*
X129802548Y-83762000D01*
X129569352Y-83798934D01*
X129344797Y-83871897D01*
X129134430Y-83979084D01*
X129051494Y-84039340D01*
X129411579Y-84399425D01*
X129283137Y-84485249D01*
X129143849Y-84624537D01*
X129058025Y-84752979D01*
X128697940Y-84392894D01*
X128637684Y-84475830D01*
X128530497Y-84686197D01*
X128457534Y-84910752D01*
X128420600Y-85143947D01*
X121260600Y-85143947D01*
X121223665Y-84910752D01*
X121150702Y-84686197D01*
X121043514Y-84475828D01*
X120983258Y-84392894D01*
X120983258Y-84392893D01*
X120623173Y-84752978D01*
X120537351Y-84624537D01*
X120398063Y-84485249D01*
X120269619Y-84399425D01*
X120629705Y-84039340D01*
X120629704Y-84039339D01*
X120546774Y-83979087D01*
X120336402Y-83871897D01*
X120111847Y-83798934D01*
X120111848Y-83798934D01*
X119878652Y-83762000D01*
X119642548Y-83762000D01*
X119409352Y-83798934D01*
X119184797Y-83871897D01*
X118974430Y-83979084D01*
X118891494Y-84039340D01*
X119251579Y-84399425D01*
X119123137Y-84485249D01*
X118983849Y-84624537D01*
X118898025Y-84752979D01*
X118537940Y-84392894D01*
X118477684Y-84475830D01*
X118370497Y-84686197D01*
X118297534Y-84910752D01*
X118260600Y-85143947D01*
X107341100Y-85143947D01*
X107341100Y-78632900D01*
X107360785Y-78565861D01*
X107413589Y-78520106D01*
X107465100Y-78508900D01*
X161216100Y-78508900D01*
X161283139Y-78528585D01*
G37*
%TD.AperFunction*%
%TD*%
%TA.AperFunction,Conductor*%
%TO.N,+12V*%
G36*
X119148809Y-111152000D02*
G01*
X119151486Y-111154158D01*
X119780089Y-111836070D01*
X119783176Y-111844476D01*
X119780089Y-111851930D01*
X119151486Y-112533841D01*
X119143359Y-112537601D01*
X119139940Y-112537235D01*
X118405157Y-112346275D01*
X118398012Y-112340877D01*
X118396400Y-112334951D01*
X118396400Y-111353048D01*
X118399827Y-111344775D01*
X118405156Y-111341724D01*
X119139942Y-111150764D01*
X119148809Y-111152000D01*
G37*
%TD.AperFunction*%
%TD*%
%TA.AperFunction,Conductor*%
%TO.N,+12V*%
G36*
X117798136Y-110946664D02*
G01*
X117803550Y-110949074D01*
X118683858Y-111340910D01*
X118690022Y-111347405D01*
X118690800Y-111351599D01*
X118690800Y-112336392D01*
X118687373Y-112344665D01*
X118683846Y-112347086D01*
X117798138Y-112740143D01*
X117789186Y-112740367D01*
X117785121Y-112737724D01*
X117391222Y-112344000D01*
X116898084Y-111851080D01*
X116894655Y-111842808D01*
X116898079Y-111834535D01*
X117785115Y-110949073D01*
X117793390Y-110945654D01*
X117798136Y-110946664D01*
G37*
%TD.AperFunction*%
%TD*%
%TA.AperFunction,Conductor*%
%TO.N,+12V*%
G36*
X140070619Y-102121105D02*
G01*
X140078028Y-102124249D01*
X140602872Y-102346975D01*
X140609148Y-102353360D01*
X140610000Y-102357744D01*
X140610000Y-102841979D01*
X140606573Y-102850252D01*
X140602520Y-102852892D01*
X140055127Y-103064566D01*
X140046175Y-103064353D01*
X140041808Y-103061009D01*
X139665131Y-102595084D01*
X139662595Y-102586496D01*
X139665355Y-102580106D01*
X140057176Y-102124248D01*
X140065167Y-102120208D01*
X140070619Y-102121105D01*
G37*
%TD.AperFunction*%
%TD*%
%TA.AperFunction,Conductor*%
%TO.N,+12V*%
G36*
X139266170Y-102115776D02*
G01*
X139270598Y-102119060D01*
X139654756Y-102580009D01*
X139657420Y-102588559D01*
X139654756Y-102594991D01*
X139270598Y-103055939D01*
X139262669Y-103060100D01*
X139257215Y-103059291D01*
X138717305Y-102840460D01*
X138710925Y-102834177D01*
X138710000Y-102829617D01*
X138710000Y-102345382D01*
X138713427Y-102337109D01*
X138717304Y-102334539D01*
X139257216Y-102115708D01*
X139266170Y-102115776D01*
G37*
%TD.AperFunction*%
%TD*%
%TA.AperFunction,Conductor*%
%TO.N,+12V*%
G36*
X120438283Y-111158982D02*
G01*
X121167797Y-111359238D01*
X121174868Y-111364733D01*
X121176400Y-111370521D01*
X121176400Y-112352424D01*
X121172973Y-112360697D01*
X121167489Y-112363787D01*
X120427446Y-112545427D01*
X120418594Y-112544071D01*
X120415976Y-112541908D01*
X119792631Y-111852003D01*
X119789627Y-111843567D01*
X119792790Y-111836143D01*
X120426668Y-111162249D01*
X120434831Y-111158571D01*
X120438283Y-111158982D01*
G37*
%TD.AperFunction*%
%TD*%
%TA.AperFunction,Conductor*%
%TO.N,-12V*%
G36*
X133624080Y-111100873D02*
G01*
X134015753Y-111492112D01*
X134511112Y-111986922D01*
X134514543Y-111995194D01*
X134511121Y-112003469D01*
X134511112Y-112003478D01*
X133624082Y-112889524D01*
X133615807Y-112892946D01*
X133611061Y-112891938D01*
X132725348Y-112498288D01*
X132719180Y-112491796D01*
X132718400Y-112487596D01*
X132718400Y-111502804D01*
X132721827Y-111494531D01*
X132725348Y-111492112D01*
X133611062Y-111098460D01*
X133620013Y-111098233D01*
X133624080Y-111100873D01*
G37*
%TD.AperFunction*%
%TD*%
%TA.AperFunction,Conductor*%
%TO.N,-12V*%
G36*
X132284591Y-111275596D02*
G01*
X133004478Y-111492690D01*
X133011409Y-111498360D01*
X133012800Y-111503892D01*
X133012800Y-112485790D01*
X133009373Y-112494063D01*
X133003610Y-112497218D01*
X132254045Y-112661857D01*
X132245229Y-112660284D01*
X132242714Y-112658116D01*
X132092542Y-112485790D01*
X131628889Y-111953735D01*
X131626039Y-111945247D01*
X131629336Y-111937878D01*
X132272848Y-111278625D01*
X132281078Y-111275100D01*
X132284591Y-111275596D01*
G37*
%TD.AperFunction*%
%TD*%
%TA.AperFunction,Conductor*%
%TO.N,-12V*%
G36*
X130985209Y-111253600D02*
G01*
X130987886Y-111255758D01*
X131616489Y-111937670D01*
X131619576Y-111946076D01*
X131616489Y-111953530D01*
X130987886Y-112635441D01*
X130979759Y-112639201D01*
X130976340Y-112638835D01*
X130241557Y-112447875D01*
X130234412Y-112442477D01*
X130232800Y-112436551D01*
X130232800Y-111454648D01*
X130236227Y-111446375D01*
X130241556Y-111443324D01*
X130976342Y-111252364D01*
X130985209Y-111253600D01*
G37*
%TD.AperFunction*%
%TD*%
%TA.AperFunction,Conductor*%
%TO.N,/Output Signal*%
G36*
X141685056Y-95338410D02*
G01*
X142726708Y-95961794D01*
X142732047Y-95968981D01*
X142732400Y-95971832D01*
X142732400Y-96458567D01*
X142728973Y-96466840D01*
X142726708Y-96468606D01*
X141685058Y-97091988D01*
X141676199Y-97093296D01*
X141671723Y-97091070D01*
X140592754Y-96224321D01*
X140588450Y-96216469D01*
X140590960Y-96207873D01*
X140592754Y-96206079D01*
X140896852Y-95961793D01*
X141671723Y-95339328D01*
X141680319Y-95336819D01*
X141685056Y-95338410D01*
G37*
%TD.AperFunction*%
%TD*%
%TA.AperFunction,Conductor*%
%TO.N,/Output Signal*%
G36*
X140590918Y-96221201D02*
G01*
X141728061Y-97048068D01*
X141732737Y-97055705D01*
X141730643Y-97064412D01*
X141729854Y-97065383D01*
X141192682Y-97658726D01*
X141192281Y-97659147D01*
X140846987Y-98004441D01*
X140838714Y-98007868D01*
X140830670Y-98004664D01*
X140830434Y-98004441D01*
X139898784Y-97122446D01*
X139895133Y-97114271D01*
X139897542Y-97106835D01*
X140574753Y-96223544D01*
X140582505Y-96219065D01*
X140590918Y-96221201D01*
G37*
%TD.AperFunction*%
%TD*%
M02*
