%TF.GenerationSoftware,KiCad,Pcbnew,9.0.6*%
%TF.CreationDate,2026-07-27T22:04:20-05:00*%
%TF.ProjectId,8thOrderBandpassFilter,3874684f-7264-4657-9242-616e64706173,1.0*%
%TF.SameCoordinates,Original*%
%TF.FileFunction,Copper,L4,Bot*%
%TF.FilePolarity,Positive*%
%FSLAX46Y46*%
G04 Gerber Fmt 4.6, Leading zero omitted, Abs format (unit mm)*
G04 Created by KiCad (PCBNEW 9.0.6) date 2026-07-27 22:04:20*
%MOMM*%
%LPD*%
G01*
G04 APERTURE LIST*
%TA.AperFunction,ComponentPad*%
%ADD10C,1.300000*%
%TD*%
%TA.AperFunction,ComponentPad*%
%ADD11C,2.400000*%
%TD*%
%TA.AperFunction,ComponentPad*%
%ADD12C,1.100000*%
%TD*%
%TA.AperFunction,ViaPad*%
%ADD13C,0.600000*%
%TD*%
G04 APERTURE END LIST*
D10*
%TO.P,J2,1,Signal*%
%TO.N,/Output Signal*%
X143840600Y-90342000D03*
%TO.P,J2,2,GND*%
%TO.N,GND*%
X141300600Y-90342000D03*
D11*
%TO.P,J2,3,GND*%
X138760600Y-85262000D03*
%TO.P,J2,4,GND*%
X148920600Y-85262000D03*
%TD*%
D10*
%TO.P,J1,1,Signal*%
%TO.N,/Input Signal*%
X124840600Y-90342000D03*
%TO.P,J1,2,GND*%
%TO.N,GND*%
X122300600Y-90342000D03*
D11*
%TO.P,J1,3,GND*%
X119760600Y-85262000D03*
%TO.P,J1,4,GND*%
X129920600Y-85262000D03*
%TD*%
D12*
%TO.P,J3,1,V-*%
%TO.N,-12V*%
X127730000Y-112004000D03*
%TO.P,J3,2,GND*%
%TO.N,GND*%
X125730000Y-112004000D03*
%TO.P,J3,3,V+*%
%TO.N,+12V*%
X123730000Y-112004000D03*
%TD*%
D13*
%TO.N,GND*%
X148720000Y-111190000D03*
X149900000Y-109230000D03*
X149950000Y-110070000D03*
X109820000Y-114900000D03*
X133940000Y-80910000D03*
X113120000Y-113320000D03*
X128310000Y-99700000D03*
X143630000Y-83350000D03*
X160570000Y-101500000D03*
X146910000Y-97030000D03*
X155860000Y-108030000D03*
X141240000Y-93450000D03*
X154000000Y-104320000D03*
X150800000Y-99480000D03*
X147510000Y-116890000D03*
X112600000Y-109510000D03*
X142280000Y-109200000D03*
X144900000Y-79440000D03*
X157340000Y-116760000D03*
X157790000Y-94380000D03*
X108440000Y-111330000D03*
X126370000Y-97070000D03*
X109020000Y-79780000D03*
X145430000Y-107690000D03*
X125370000Y-106250000D03*
X134440000Y-79160000D03*
X141720000Y-110740000D03*
X148720000Y-79880000D03*
X122310000Y-97030000D03*
X108130000Y-101020000D03*
X110640000Y-110810000D03*
X142840000Y-116890000D03*
X113670000Y-90880000D03*
X119570000Y-80360000D03*
X134240000Y-104000000D03*
X155450000Y-116790000D03*
X154070000Y-99670000D03*
X115280000Y-115940000D03*
X111810000Y-79400000D03*
X122610000Y-105540000D03*
X110190000Y-108100000D03*
X160400000Y-86820000D03*
X108270000Y-113560000D03*
X159510000Y-116690000D03*
X108400000Y-89200000D03*
X108400000Y-87750000D03*
X132410000Y-106640000D03*
X136850000Y-98390000D03*
X131560000Y-116280000D03*
X125710000Y-92580000D03*
X111640000Y-86720000D03*
X123230000Y-100180000D03*
X108240000Y-99370000D03*
X153990000Y-105070000D03*
X124110000Y-80160000D03*
X108650000Y-94180000D03*
X128580000Y-105900000D03*
X136060000Y-115250000D03*
X119740000Y-116170000D03*
X126940000Y-107820000D03*
X160540000Y-99950000D03*
X140160000Y-116830000D03*
X160130000Y-115110000D03*
X153370000Y-99230000D03*
X152020000Y-105390000D03*
X112840000Y-98110000D03*
X128050000Y-98480000D03*
X136080000Y-116990000D03*
X158030000Y-79400000D03*
X108370000Y-91190000D03*
X145670000Y-103800000D03*
X142530000Y-92190000D03*
X128040000Y-105300000D03*
X118130000Y-93980000D03*
X136090000Y-116240000D03*
X149230000Y-117000000D03*
X135810000Y-102890000D03*
X115480000Y-105160000D03*
X160500000Y-79190000D03*
X134180000Y-95050000D03*
X113820000Y-99880000D03*
X108130000Y-84180000D03*
X131170000Y-106600000D03*
X108540000Y-96550000D03*
X148680000Y-91220000D03*
X108100000Y-115350000D03*
X116110000Y-91890000D03*
X115660000Y-79470000D03*
X158100000Y-114450000D03*
X137620000Y-103680000D03*
X111290000Y-116650000D03*
X160470000Y-103250000D03*
X126510000Y-115380000D03*
X153730000Y-116930000D03*
X129180000Y-108900000D03*
X155310000Y-79440000D03*
X111050000Y-83250000D03*
X145310000Y-108630000D03*
X108200000Y-104900000D03*
X160540000Y-107990000D03*
X160540000Y-110230000D03*
X115680000Y-97280000D03*
X136470000Y-93810000D03*
X108370000Y-109270000D03*
X131190000Y-79680000D03*
X160470000Y-90260000D03*
X142400000Y-103950000D03*
X160370000Y-92870000D03*
X145220000Y-92100000D03*
X132950000Y-105260000D03*
X145520000Y-93560000D03*
X160500000Y-94520000D03*
X119660000Y-91570000D03*
X140350000Y-79250000D03*
X148960000Y-94830000D03*
X160470000Y-112190000D03*
X152980000Y-90880000D03*
X160020000Y-80470000D03*
X108340000Y-116480000D03*
X153360000Y-79160000D03*
X145000000Y-95900000D03*
X129090000Y-89500000D03*
X152780000Y-108130000D03*
X112810000Y-95800000D03*
X118200000Y-89440000D03*
X150700000Y-98870000D03*
X153180000Y-80190000D03*
X108240000Y-107140000D03*
X114830000Y-92870000D03*
X156140000Y-83460000D03*
X160300000Y-88540000D03*
X160570000Y-97680000D03*
X160300000Y-82180000D03*
X154020000Y-109670000D03*
X145660000Y-105780000D03*
X160500000Y-84560000D03*
X113530000Y-94120000D03*
X148650000Y-88820000D03*
X113630000Y-116830000D03*
X108130000Y-102980000D03*
X119700000Y-93980000D03*
X157070000Y-89330000D03*
X127170000Y-99810000D03*
X153080000Y-82010000D03*
X113080000Y-84690000D03*
X115670000Y-95990000D03*
X125240000Y-86410000D03*
X134110000Y-86510000D03*
X144350000Y-85520000D03*
X110710000Y-99540000D03*
X126290000Y-107140000D03*
X146470000Y-102640000D03*
X134280000Y-90810000D03*
X132210000Y-116740000D03*
X111040000Y-104340000D03*
X138170000Y-88680000D03*
X116710000Y-94860000D03*
X145420000Y-116860000D03*
X153250000Y-88510000D03*
X127400000Y-104510000D03*
X112470000Y-106080000D03*
X124610000Y-116500000D03*
X137480000Y-116830000D03*
X146040000Y-99530000D03*
X114220000Y-105990000D03*
X111940000Y-89200000D03*
X137820000Y-80600000D03*
X160500000Y-105620000D03*
X151160000Y-116890000D03*
X156430000Y-105270000D03*
%TO.N,+12V*%
X137740000Y-101940000D03*
X116382800Y-104394000D03*
X121259600Y-111861600D03*
%TO.N,-12V*%
X129946400Y-111912400D03*
X126390400Y-98501200D03*
X154076400Y-102616000D03*
%TD*%
%TA.AperFunction,Conductor*%
%TO.N,GND*%
G36*
X161283139Y-78528585D02*
G01*
X161328894Y-78581389D01*
X161340100Y-78632900D01*
X161340100Y-117383900D01*
X161320415Y-117450939D01*
X161267611Y-117496694D01*
X161216100Y-117507900D01*
X107465100Y-117507900D01*
X107398061Y-117488215D01*
X107352306Y-117435411D01*
X107341100Y-117383900D01*
X107341100Y-111782753D01*
X120459100Y-111782753D01*
X120459100Y-111940446D01*
X120489861Y-112095089D01*
X120489864Y-112095101D01*
X120550202Y-112240772D01*
X120550209Y-112240785D01*
X120637810Y-112371888D01*
X120637813Y-112371892D01*
X120749307Y-112483386D01*
X120749311Y-112483389D01*
X120880414Y-112570990D01*
X120880427Y-112570997D01*
X121003054Y-112621790D01*
X121026103Y-112631337D01*
X121180753Y-112662099D01*
X121180756Y-112662100D01*
X121180758Y-112662100D01*
X121338444Y-112662100D01*
X121338445Y-112662099D01*
X121493097Y-112631337D01*
X121638779Y-112570994D01*
X121769889Y-112483389D01*
X121881389Y-112371889D01*
X121968994Y-112240779D01*
X122029337Y-112095097D01*
X122060100Y-111940442D01*
X122060100Y-111900530D01*
X122679500Y-111900530D01*
X122679500Y-112107469D01*
X122719868Y-112310412D01*
X122719870Y-112310420D01*
X122791516Y-112483389D01*
X122799059Y-112501598D01*
X122845425Y-112570990D01*
X122914024Y-112673657D01*
X123060342Y-112819975D01*
X123060345Y-112819977D01*
X123232402Y-112934941D01*
X123423580Y-113014130D01*
X123626530Y-113054499D01*
X123626534Y-113054500D01*
X123626535Y-113054500D01*
X123833466Y-113054500D01*
X123833467Y-113054499D01*
X124036420Y-113014130D01*
X124227598Y-112934941D01*
X124399655Y-112819977D01*
X124545977Y-112673655D01*
X124660941Y-112501598D01*
X124723949Y-112349483D01*
X124767789Y-112295081D01*
X124834083Y-112273016D01*
X124901782Y-112290295D01*
X124949393Y-112341432D01*
X124953070Y-112349484D01*
X124975883Y-112404560D01*
X125330000Y-112050445D01*
X125330000Y-112056661D01*
X125357259Y-112158394D01*
X125409920Y-112249606D01*
X125484394Y-112324080D01*
X125575606Y-112376741D01*
X125677339Y-112404000D01*
X125683553Y-112404000D01*
X125329437Y-112758114D01*
X125482063Y-112821334D01*
X125482071Y-112821336D01*
X125646277Y-112853999D01*
X125646280Y-112854000D01*
X125813720Y-112854000D01*
X125813722Y-112853999D01*
X125977928Y-112821336D01*
X125977936Y-112821334D01*
X126130561Y-112758114D01*
X125776448Y-112404000D01*
X125782661Y-112404000D01*
X125884394Y-112376741D01*
X125975606Y-112324080D01*
X126050080Y-112249606D01*
X126102741Y-112158394D01*
X126130000Y-112056661D01*
X126130000Y-112050447D01*
X126484114Y-112404561D01*
X126506928Y-112349484D01*
X126550768Y-112295080D01*
X126617062Y-112273015D01*
X126684762Y-112290294D01*
X126732373Y-112341431D01*
X126736050Y-112349483D01*
X126799057Y-112501595D01*
X126914024Y-112673657D01*
X127060342Y-112819975D01*
X127060345Y-112819977D01*
X127232402Y-112934941D01*
X127423580Y-113014130D01*
X127626530Y-113054499D01*
X127626534Y-113054500D01*
X127626535Y-113054500D01*
X127833466Y-113054500D01*
X127833467Y-113054499D01*
X128036420Y-113014130D01*
X128227598Y-112934941D01*
X128399655Y-112819977D01*
X128545977Y-112673655D01*
X128660941Y-112501598D01*
X128740130Y-112310420D01*
X128780500Y-112107465D01*
X128780500Y-111900535D01*
X128767177Y-111833553D01*
X129145900Y-111833553D01*
X129145900Y-111991246D01*
X129176661Y-112145889D01*
X129176664Y-112145901D01*
X129237002Y-112291572D01*
X129237009Y-112291585D01*
X129324610Y-112422688D01*
X129324613Y-112422692D01*
X129436107Y-112534186D01*
X129436111Y-112534189D01*
X129567214Y-112621790D01*
X129567227Y-112621797D01*
X129712898Y-112682135D01*
X129712903Y-112682137D01*
X129867553Y-112712899D01*
X129867556Y-112712900D01*
X129867558Y-112712900D01*
X130025244Y-112712900D01*
X130025245Y-112712899D01*
X130179897Y-112682137D01*
X130325579Y-112621794D01*
X130456689Y-112534189D01*
X130568189Y-112422689D01*
X130655794Y-112291579D01*
X130716137Y-112145897D01*
X130746900Y-111991242D01*
X130746900Y-111833558D01*
X130746900Y-111833555D01*
X130746899Y-111833553D01*
X130736795Y-111782758D01*
X130716137Y-111678903D01*
X130704350Y-111650446D01*
X130655797Y-111533227D01*
X130655790Y-111533214D01*
X130568189Y-111402111D01*
X130568186Y-111402107D01*
X130456692Y-111290613D01*
X130456688Y-111290610D01*
X130325585Y-111203009D01*
X130325572Y-111203002D01*
X130179901Y-111142664D01*
X130179889Y-111142661D01*
X130025245Y-111111900D01*
X130025242Y-111111900D01*
X129867558Y-111111900D01*
X129867555Y-111111900D01*
X129712910Y-111142661D01*
X129712898Y-111142664D01*
X129567227Y-111203002D01*
X129567214Y-111203009D01*
X129436111Y-111290610D01*
X129436107Y-111290613D01*
X129324613Y-111402107D01*
X129324610Y-111402111D01*
X129237009Y-111533214D01*
X129237002Y-111533227D01*
X129176664Y-111678898D01*
X129176661Y-111678910D01*
X129145900Y-111833553D01*
X128767177Y-111833553D01*
X128740130Y-111697580D01*
X128660941Y-111506402D01*
X128545977Y-111334345D01*
X128545975Y-111334342D01*
X128399657Y-111188024D01*
X128255737Y-111091861D01*
X128227598Y-111073059D01*
X128036420Y-110993870D01*
X128036412Y-110993868D01*
X127833469Y-110953500D01*
X127833465Y-110953500D01*
X127626535Y-110953500D01*
X127626530Y-110953500D01*
X127423587Y-110993868D01*
X127423579Y-110993870D01*
X127232403Y-111073058D01*
X127060342Y-111188024D01*
X126914024Y-111334342D01*
X126799057Y-111506403D01*
X126736051Y-111658515D01*
X126692210Y-111712918D01*
X126625915Y-111734983D01*
X126558216Y-111717704D01*
X126510606Y-111666566D01*
X126506929Y-111658515D01*
X126484114Y-111603437D01*
X126130000Y-111957551D01*
X126130000Y-111951339D01*
X126102741Y-111849606D01*
X126050080Y-111758394D01*
X125975606Y-111683920D01*
X125884394Y-111631259D01*
X125782661Y-111604000D01*
X125776447Y-111604000D01*
X126130561Y-111249884D01*
X125977936Y-111186665D01*
X125977928Y-111186663D01*
X125813721Y-111154000D01*
X125646279Y-111154000D01*
X125482071Y-111186662D01*
X125482062Y-111186665D01*
X125329437Y-111249884D01*
X125683554Y-111604000D01*
X125677339Y-111604000D01*
X125575606Y-111631259D01*
X125484394Y-111683920D01*
X125409920Y-111758394D01*
X125357259Y-111849606D01*
X125330000Y-111951339D01*
X125330000Y-111957553D01*
X124975884Y-111603437D01*
X124953070Y-111658515D01*
X124909229Y-111712918D01*
X124842934Y-111734983D01*
X124775235Y-111717704D01*
X124727625Y-111666566D01*
X124723950Y-111658519D01*
X124701368Y-111604000D01*
X124660942Y-111506403D01*
X124660940Y-111506400D01*
X124562846Y-111359591D01*
X124562844Y-111359589D01*
X124557310Y-111351307D01*
X124545977Y-111334345D01*
X124545975Y-111334342D01*
X124399657Y-111188024D01*
X124255737Y-111091861D01*
X124227598Y-111073059D01*
X124036420Y-110993870D01*
X124036412Y-110993868D01*
X123833469Y-110953500D01*
X123833465Y-110953500D01*
X123626535Y-110953500D01*
X123626530Y-110953500D01*
X123423587Y-110993868D01*
X123423579Y-110993870D01*
X123232403Y-111073058D01*
X123060342Y-111188024D01*
X122914024Y-111334342D01*
X122799058Y-111506403D01*
X122719870Y-111697579D01*
X122719868Y-111697587D01*
X122679500Y-111900530D01*
X122060100Y-111900530D01*
X122060100Y-111782758D01*
X122060100Y-111782755D01*
X122060099Y-111782753D01*
X122033781Y-111650446D01*
X122029337Y-111628103D01*
X122019120Y-111603437D01*
X121968997Y-111482427D01*
X121968990Y-111482414D01*
X121881389Y-111351311D01*
X121881386Y-111351307D01*
X121769892Y-111239813D01*
X121769888Y-111239810D01*
X121638785Y-111152209D01*
X121638772Y-111152202D01*
X121493101Y-111091864D01*
X121493089Y-111091861D01*
X121338445Y-111061100D01*
X121338442Y-111061100D01*
X121180758Y-111061100D01*
X121180755Y-111061100D01*
X121026110Y-111091861D01*
X121026098Y-111091864D01*
X120880427Y-111152202D01*
X120880414Y-111152209D01*
X120749311Y-111239810D01*
X120749307Y-111239813D01*
X120637813Y-111351307D01*
X120637810Y-111351311D01*
X120550209Y-111482414D01*
X120550202Y-111482427D01*
X120489864Y-111628098D01*
X120489861Y-111628110D01*
X120459100Y-111782753D01*
X107341100Y-111782753D01*
X107341100Y-104315153D01*
X115582300Y-104315153D01*
X115582300Y-104472846D01*
X115613061Y-104627489D01*
X115613064Y-104627501D01*
X115673402Y-104773172D01*
X115673409Y-104773185D01*
X115761010Y-104904288D01*
X115761013Y-104904292D01*
X115872507Y-105015786D01*
X115872511Y-105015789D01*
X116003614Y-105103390D01*
X116003627Y-105103397D01*
X116149298Y-105163735D01*
X116149303Y-105163737D01*
X116303953Y-105194499D01*
X116303956Y-105194500D01*
X116303958Y-105194500D01*
X116461644Y-105194500D01*
X116461645Y-105194499D01*
X116616297Y-105163737D01*
X116761979Y-105103394D01*
X116893089Y-105015789D01*
X117004589Y-104904289D01*
X117092194Y-104773179D01*
X117152537Y-104627497D01*
X117183300Y-104472842D01*
X117183300Y-104315158D01*
X117183300Y-104315155D01*
X117183299Y-104315153D01*
X117152538Y-104160510D01*
X117152537Y-104160503D01*
X117152535Y-104160498D01*
X117092197Y-104014827D01*
X117092190Y-104014814D01*
X117004589Y-103883711D01*
X117004586Y-103883707D01*
X116893092Y-103772213D01*
X116893088Y-103772210D01*
X116761985Y-103684609D01*
X116761972Y-103684602D01*
X116616301Y-103624264D01*
X116616289Y-103624261D01*
X116461645Y-103593500D01*
X116461642Y-103593500D01*
X116303958Y-103593500D01*
X116303955Y-103593500D01*
X116149310Y-103624261D01*
X116149298Y-103624264D01*
X116003627Y-103684602D01*
X116003614Y-103684609D01*
X115872511Y-103772210D01*
X115872507Y-103772213D01*
X115761013Y-103883707D01*
X115761010Y-103883711D01*
X115673409Y-104014814D01*
X115673402Y-104014827D01*
X115613064Y-104160498D01*
X115613061Y-104160510D01*
X115582300Y-104315153D01*
X107341100Y-104315153D01*
X107341100Y-101861153D01*
X136939500Y-101861153D01*
X136939500Y-102018846D01*
X136970261Y-102173489D01*
X136970264Y-102173501D01*
X137030602Y-102319172D01*
X137030609Y-102319185D01*
X137118210Y-102450288D01*
X137118213Y-102450292D01*
X137229707Y-102561786D01*
X137229711Y-102561789D01*
X137360814Y-102649390D01*
X137360827Y-102649397D01*
X137506498Y-102709735D01*
X137506503Y-102709737D01*
X137661153Y-102740499D01*
X137661156Y-102740500D01*
X137661158Y-102740500D01*
X137818844Y-102740500D01*
X137818845Y-102740499D01*
X137973497Y-102709737D01*
X138119179Y-102649394D01*
X138250289Y-102561789D01*
X138274925Y-102537153D01*
X153275900Y-102537153D01*
X153275900Y-102694846D01*
X153306661Y-102849489D01*
X153306664Y-102849501D01*
X153367002Y-102995172D01*
X153367009Y-102995185D01*
X153454610Y-103126288D01*
X153454613Y-103126292D01*
X153566107Y-103237786D01*
X153566111Y-103237789D01*
X153697214Y-103325390D01*
X153697227Y-103325397D01*
X153842898Y-103385735D01*
X153842903Y-103385737D01*
X153997553Y-103416499D01*
X153997556Y-103416500D01*
X153997558Y-103416500D01*
X154155244Y-103416500D01*
X154155245Y-103416499D01*
X154309897Y-103385737D01*
X154455579Y-103325394D01*
X154586689Y-103237789D01*
X154698189Y-103126289D01*
X154785794Y-102995179D01*
X154846137Y-102849497D01*
X154876900Y-102694842D01*
X154876900Y-102537158D01*
X154876900Y-102537155D01*
X154876899Y-102537153D01*
X154859621Y-102450290D01*
X154846137Y-102382503D01*
X154819905Y-102319172D01*
X154785797Y-102236827D01*
X154785790Y-102236814D01*
X154698189Y-102105711D01*
X154698186Y-102105707D01*
X154586692Y-101994213D01*
X154586688Y-101994210D01*
X154455585Y-101906609D01*
X154455572Y-101906602D01*
X154309901Y-101846264D01*
X154309889Y-101846261D01*
X154155245Y-101815500D01*
X154155242Y-101815500D01*
X153997558Y-101815500D01*
X153997555Y-101815500D01*
X153842910Y-101846261D01*
X153842898Y-101846264D01*
X153697227Y-101906602D01*
X153697214Y-101906609D01*
X153566111Y-101994210D01*
X153566107Y-101994213D01*
X153454613Y-102105707D01*
X153454610Y-102105711D01*
X153367009Y-102236814D01*
X153367002Y-102236827D01*
X153306664Y-102382498D01*
X153306661Y-102382510D01*
X153275900Y-102537153D01*
X138274925Y-102537153D01*
X138361789Y-102450289D01*
X138449394Y-102319179D01*
X138509737Y-102173497D01*
X138540500Y-102018842D01*
X138540500Y-101861158D01*
X138540500Y-101861155D01*
X138540499Y-101861153D01*
X138509738Y-101706510D01*
X138509737Y-101706503D01*
X138509735Y-101706498D01*
X138449397Y-101560827D01*
X138449390Y-101560814D01*
X138361789Y-101429711D01*
X138361786Y-101429707D01*
X138250292Y-101318213D01*
X138250288Y-101318210D01*
X138119185Y-101230609D01*
X138119172Y-101230602D01*
X137973501Y-101170264D01*
X137973489Y-101170261D01*
X137818845Y-101139500D01*
X137818842Y-101139500D01*
X137661158Y-101139500D01*
X137661155Y-101139500D01*
X137506510Y-101170261D01*
X137506498Y-101170264D01*
X137360827Y-101230602D01*
X137360814Y-101230609D01*
X137229711Y-101318210D01*
X137229707Y-101318213D01*
X137118213Y-101429707D01*
X137118210Y-101429711D01*
X137030609Y-101560814D01*
X137030602Y-101560827D01*
X136970264Y-101706498D01*
X136970261Y-101706510D01*
X136939500Y-101861153D01*
X107341100Y-101861153D01*
X107341100Y-98422353D01*
X125589900Y-98422353D01*
X125589900Y-98580046D01*
X125620661Y-98734689D01*
X125620664Y-98734701D01*
X125681002Y-98880372D01*
X125681009Y-98880385D01*
X125768610Y-99011488D01*
X125768613Y-99011492D01*
X125880107Y-99122986D01*
X125880111Y-99122989D01*
X126011214Y-99210590D01*
X126011227Y-99210597D01*
X126156898Y-99270935D01*
X126156903Y-99270937D01*
X126311553Y-99301699D01*
X126311556Y-99301700D01*
X126311558Y-99301700D01*
X126469244Y-99301700D01*
X126469245Y-99301699D01*
X126623897Y-99270937D01*
X126769579Y-99210594D01*
X126900689Y-99122989D01*
X127012189Y-99011489D01*
X127099794Y-98880379D01*
X127160137Y-98734697D01*
X127190900Y-98580042D01*
X127190900Y-98422358D01*
X127190900Y-98422355D01*
X127190899Y-98422353D01*
X127160138Y-98267710D01*
X127160137Y-98267703D01*
X127160135Y-98267698D01*
X127099797Y-98122027D01*
X127099790Y-98122014D01*
X127012189Y-97990911D01*
X127012186Y-97990907D01*
X126900692Y-97879413D01*
X126900688Y-97879410D01*
X126769585Y-97791809D01*
X126769572Y-97791802D01*
X126623901Y-97731464D01*
X126623889Y-97731461D01*
X126469245Y-97700700D01*
X126469242Y-97700700D01*
X126311558Y-97700700D01*
X126311555Y-97700700D01*
X126156910Y-97731461D01*
X126156898Y-97731464D01*
X126011227Y-97791802D01*
X126011214Y-97791809D01*
X125880111Y-97879410D01*
X125880107Y-97879413D01*
X125768613Y-97990907D01*
X125768610Y-97990911D01*
X125681009Y-98122014D01*
X125681002Y-98122027D01*
X125620664Y-98267698D01*
X125620661Y-98267710D01*
X125589900Y-98422353D01*
X107341100Y-98422353D01*
X107341100Y-90248428D01*
X121350600Y-90248428D01*
X121350600Y-90435571D01*
X121387106Y-90619097D01*
X121387108Y-90619105D01*
X121458719Y-90791990D01*
X121458726Y-90792002D01*
X121474073Y-90814971D01*
X121474074Y-90814972D01*
X121858461Y-90430584D01*
X121881267Y-90515694D01*
X121940510Y-90618306D01*
X122024294Y-90702090D01*
X122126906Y-90761333D01*
X122212014Y-90784137D01*
X121827627Y-91168524D01*
X121827627Y-91168525D01*
X121850607Y-91183879D01*
X122023494Y-91255491D01*
X122023502Y-91255493D01*
X122207028Y-91291999D01*
X122207031Y-91292000D01*
X122394169Y-91292000D01*
X122394171Y-91291999D01*
X122577697Y-91255493D01*
X122577705Y-91255491D01*
X122750592Y-91183879D01*
X122750598Y-91183876D01*
X122773571Y-91168525D01*
X122773572Y-91168524D01*
X122389185Y-90784137D01*
X122474294Y-90761333D01*
X122576906Y-90702090D01*
X122660690Y-90618306D01*
X122719933Y-90515694D01*
X122742737Y-90430585D01*
X123127124Y-90814972D01*
X123127125Y-90814971D01*
X123142476Y-90791998D01*
X123142479Y-90791992D01*
X123214091Y-90619105D01*
X123214093Y-90619097D01*
X123250599Y-90435571D01*
X123250600Y-90435569D01*
X123250600Y-90251448D01*
X123690100Y-90251448D01*
X123690100Y-90432551D01*
X123718429Y-90611410D01*
X123774387Y-90783636D01*
X123774388Y-90783639D01*
X123856606Y-90944997D01*
X123963041Y-91091494D01*
X123963045Y-91091499D01*
X124091100Y-91219554D01*
X124091105Y-91219558D01*
X124140566Y-91255493D01*
X124237606Y-91325996D01*
X124343084Y-91379740D01*
X124398960Y-91408211D01*
X124398963Y-91408212D01*
X124485076Y-91436191D01*
X124571191Y-91464171D01*
X124654029Y-91477291D01*
X124750049Y-91492500D01*
X124750054Y-91492500D01*
X124931151Y-91492500D01*
X125017859Y-91478765D01*
X125110009Y-91464171D01*
X125282239Y-91408211D01*
X125443594Y-91325996D01*
X125590101Y-91219553D01*
X125718153Y-91091501D01*
X125720435Y-91088359D01*
X125748721Y-91049429D01*
X125791584Y-90990430D01*
X125824596Y-90944994D01*
X125906811Y-90783639D01*
X125962771Y-90611409D01*
X125977931Y-90515694D01*
X125991100Y-90432551D01*
X125991100Y-90251454D01*
X125991099Y-90251442D01*
X125990622Y-90248428D01*
X140350600Y-90248428D01*
X140350600Y-90435571D01*
X140387106Y-90619097D01*
X140387108Y-90619105D01*
X140458719Y-90791990D01*
X140458726Y-90792002D01*
X140474073Y-90814971D01*
X140474074Y-90814972D01*
X140858461Y-90430584D01*
X140881267Y-90515694D01*
X140940510Y-90618306D01*
X141024294Y-90702090D01*
X141126906Y-90761333D01*
X141212014Y-90784137D01*
X140827627Y-91168524D01*
X140827627Y-91168525D01*
X140850607Y-91183879D01*
X141023494Y-91255491D01*
X141023502Y-91255493D01*
X141207028Y-91291999D01*
X141207031Y-91292000D01*
X141394169Y-91292000D01*
X141394171Y-91291999D01*
X141577697Y-91255493D01*
X141577705Y-91255491D01*
X141750592Y-91183879D01*
X141750598Y-91183876D01*
X141773571Y-91168525D01*
X141773572Y-91168524D01*
X141389185Y-90784137D01*
X141474294Y-90761333D01*
X141576906Y-90702090D01*
X141660690Y-90618306D01*
X141719933Y-90515694D01*
X141742737Y-90430585D01*
X142127124Y-90814972D01*
X142127125Y-90814971D01*
X142142476Y-90791998D01*
X142142479Y-90791992D01*
X142214091Y-90619105D01*
X142214093Y-90619097D01*
X142250599Y-90435571D01*
X142250600Y-90435569D01*
X142250600Y-90251448D01*
X142690100Y-90251448D01*
X142690100Y-90432551D01*
X142718429Y-90611410D01*
X142774387Y-90783636D01*
X142774388Y-90783639D01*
X142856606Y-90944997D01*
X142963041Y-91091494D01*
X142963045Y-91091499D01*
X143091100Y-91219554D01*
X143091105Y-91219558D01*
X143140566Y-91255493D01*
X143237606Y-91325996D01*
X143343084Y-91379740D01*
X143398960Y-91408211D01*
X143398963Y-91408212D01*
X143485076Y-91436191D01*
X143571191Y-91464171D01*
X143654029Y-91477291D01*
X143750049Y-91492500D01*
X143750054Y-91492500D01*
X143931151Y-91492500D01*
X144017859Y-91478765D01*
X144110009Y-91464171D01*
X144282239Y-91408211D01*
X144443594Y-91325996D01*
X144590101Y-91219553D01*
X144718153Y-91091501D01*
X144824596Y-90944994D01*
X144906811Y-90783639D01*
X144962771Y-90611409D01*
X144977931Y-90515694D01*
X144991100Y-90432551D01*
X144991100Y-90251448D01*
X144974619Y-90147397D01*
X144962771Y-90072591D01*
X144906811Y-89900361D01*
X144906811Y-89900360D01*
X144878340Y-89844484D01*
X144824596Y-89739006D01*
X144810996Y-89720287D01*
X144718158Y-89592505D01*
X144718154Y-89592500D01*
X144590099Y-89464445D01*
X144590094Y-89464441D01*
X144443597Y-89358006D01*
X144443596Y-89358005D01*
X144443594Y-89358004D01*
X144391900Y-89331664D01*
X144282239Y-89275788D01*
X144282236Y-89275787D01*
X144110010Y-89219829D01*
X143931151Y-89191500D01*
X143931146Y-89191500D01*
X143750054Y-89191500D01*
X143750049Y-89191500D01*
X143571189Y-89219829D01*
X143398963Y-89275787D01*
X143398960Y-89275788D01*
X143237602Y-89358006D01*
X143091105Y-89464441D01*
X143091100Y-89464445D01*
X142963045Y-89592500D01*
X142963041Y-89592505D01*
X142856606Y-89739002D01*
X142774388Y-89900360D01*
X142774387Y-89900363D01*
X142718429Y-90072589D01*
X142690100Y-90251448D01*
X142250600Y-90251448D01*
X142250600Y-90248430D01*
X142250599Y-90248428D01*
X142214093Y-90064902D01*
X142214091Y-90064894D01*
X142142479Y-89892007D01*
X142127124Y-89869027D01*
X141742737Y-90253414D01*
X141719933Y-90168306D01*
X141660690Y-90065694D01*
X141576906Y-89981910D01*
X141474294Y-89922667D01*
X141389184Y-89899861D01*
X141773572Y-89515474D01*
X141773571Y-89515473D01*
X141750602Y-89500126D01*
X141750590Y-89500119D01*
X141577705Y-89428508D01*
X141577697Y-89428506D01*
X141394170Y-89392000D01*
X141207030Y-89392000D01*
X141023502Y-89428506D01*
X141023494Y-89428508D01*
X140850605Y-89500121D01*
X140827627Y-89515473D01*
X140827627Y-89515474D01*
X141212015Y-89899861D01*
X141126906Y-89922667D01*
X141024294Y-89981910D01*
X140940510Y-90065694D01*
X140881267Y-90168306D01*
X140858461Y-90253414D01*
X140474074Y-89869027D01*
X140474073Y-89869027D01*
X140458721Y-89892005D01*
X140387108Y-90064894D01*
X140387106Y-90064902D01*
X140350600Y-90248428D01*
X125990622Y-90248428D01*
X125974990Y-90149742D01*
X125962771Y-90072591D01*
X125906811Y-89900361D01*
X125906811Y-89900360D01*
X125878340Y-89844484D01*
X125824596Y-89739006D01*
X125812963Y-89722994D01*
X125748719Y-89634569D01*
X125748718Y-89634568D01*
X125718156Y-89592502D01*
X125590099Y-89464445D01*
X125590094Y-89464441D01*
X125443597Y-89358006D01*
X125443596Y-89358005D01*
X125443594Y-89358004D01*
X125391900Y-89331664D01*
X125282239Y-89275788D01*
X125282236Y-89275787D01*
X125110010Y-89219829D01*
X124931151Y-89191500D01*
X124931146Y-89191500D01*
X124750054Y-89191500D01*
X124750049Y-89191500D01*
X124571189Y-89219829D01*
X124398963Y-89275787D01*
X124398960Y-89275788D01*
X124237602Y-89358006D01*
X124091105Y-89464441D01*
X124091100Y-89464445D01*
X123963045Y-89592500D01*
X123963041Y-89592505D01*
X123856606Y-89739002D01*
X123774388Y-89900360D01*
X123774387Y-89900363D01*
X123718429Y-90072589D01*
X123690100Y-90251448D01*
X123250600Y-90251448D01*
X123250600Y-90248430D01*
X123250599Y-90248428D01*
X123214093Y-90064902D01*
X123214091Y-90064894D01*
X123142479Y-89892007D01*
X123127124Y-89869027D01*
X122742737Y-90253414D01*
X122719933Y-90168306D01*
X122660690Y-90065694D01*
X122576906Y-89981910D01*
X122474294Y-89922667D01*
X122389184Y-89899861D01*
X122773572Y-89515474D01*
X122773571Y-89515473D01*
X122750602Y-89500126D01*
X122750590Y-89500119D01*
X122577705Y-89428508D01*
X122577697Y-89428506D01*
X122394170Y-89392000D01*
X122207030Y-89392000D01*
X122023502Y-89428506D01*
X122023494Y-89428508D01*
X121850605Y-89500121D01*
X121827627Y-89515473D01*
X121827627Y-89515474D01*
X122212015Y-89899861D01*
X122126906Y-89922667D01*
X122024294Y-89981910D01*
X121940510Y-90065694D01*
X121881267Y-90168306D01*
X121858461Y-90253414D01*
X121474074Y-89869027D01*
X121474073Y-89869027D01*
X121458721Y-89892005D01*
X121387108Y-90064894D01*
X121387106Y-90064902D01*
X121350600Y-90248428D01*
X107341100Y-90248428D01*
X107341100Y-85143947D01*
X118260600Y-85143947D01*
X118260600Y-85380052D01*
X118297534Y-85613247D01*
X118370497Y-85837802D01*
X118477687Y-86048174D01*
X118537938Y-86131104D01*
X118537940Y-86131105D01*
X118898025Y-85771019D01*
X118983849Y-85899463D01*
X119123137Y-86038751D01*
X119251578Y-86124573D01*
X118891493Y-86484658D01*
X118974428Y-86544914D01*
X119184797Y-86652102D01*
X119409352Y-86725065D01*
X119409351Y-86725065D01*
X119642548Y-86762000D01*
X119878652Y-86762000D01*
X120111847Y-86725065D01*
X120336402Y-86652102D01*
X120546763Y-86544918D01*
X120546769Y-86544914D01*
X120629704Y-86484658D01*
X120629705Y-86484658D01*
X120269620Y-86124573D01*
X120398063Y-86038751D01*
X120537351Y-85899463D01*
X120623173Y-85771020D01*
X120983258Y-86131105D01*
X120983258Y-86131104D01*
X121043514Y-86048169D01*
X121043518Y-86048163D01*
X121150702Y-85837802D01*
X121223665Y-85613247D01*
X121260600Y-85380052D01*
X121260600Y-85143947D01*
X128420600Y-85143947D01*
X128420600Y-85380052D01*
X128457534Y-85613247D01*
X128530497Y-85837802D01*
X128637687Y-86048174D01*
X128697938Y-86131104D01*
X128697940Y-86131105D01*
X129058025Y-85771019D01*
X129143849Y-85899463D01*
X129283137Y-86038751D01*
X129411578Y-86124573D01*
X129051493Y-86484658D01*
X129134428Y-86544914D01*
X129344797Y-86652102D01*
X129569352Y-86725065D01*
X129569351Y-86725065D01*
X129802548Y-86762000D01*
X130038652Y-86762000D01*
X130271847Y-86725065D01*
X130496402Y-86652102D01*
X130706763Y-86544918D01*
X130706769Y-86544914D01*
X130789704Y-86484658D01*
X130789705Y-86484658D01*
X130429620Y-86124573D01*
X130558063Y-86038751D01*
X130697351Y-85899463D01*
X130783173Y-85771020D01*
X131143258Y-86131105D01*
X131143258Y-86131104D01*
X131203514Y-86048169D01*
X131203518Y-86048163D01*
X131310702Y-85837802D01*
X131383665Y-85613247D01*
X131420600Y-85380052D01*
X131420600Y-85143947D01*
X137260600Y-85143947D01*
X137260600Y-85380052D01*
X137297534Y-85613247D01*
X137370497Y-85837802D01*
X137477687Y-86048174D01*
X137537938Y-86131104D01*
X137537940Y-86131105D01*
X137898025Y-85771019D01*
X137983849Y-85899463D01*
X138123137Y-86038751D01*
X138251578Y-86124573D01*
X137891493Y-86484658D01*
X137974428Y-86544914D01*
X138184797Y-86652102D01*
X138409352Y-86725065D01*
X138409351Y-86725065D01*
X138642548Y-86762000D01*
X138878652Y-86762000D01*
X139111847Y-86725065D01*
X139336402Y-86652102D01*
X139546763Y-86544918D01*
X139546769Y-86544914D01*
X139629704Y-86484658D01*
X139629705Y-86484658D01*
X139269620Y-86124573D01*
X139398063Y-86038751D01*
X139537351Y-85899463D01*
X139623173Y-85771020D01*
X139983258Y-86131105D01*
X139983258Y-86131104D01*
X140043514Y-86048169D01*
X140043518Y-86048163D01*
X140150702Y-85837802D01*
X140223665Y-85613247D01*
X140260600Y-85380052D01*
X140260600Y-85143947D01*
X147420600Y-85143947D01*
X147420600Y-85380052D01*
X147457534Y-85613247D01*
X147530497Y-85837802D01*
X147637687Y-86048174D01*
X147697938Y-86131104D01*
X147697940Y-86131105D01*
X148058025Y-85771019D01*
X148143849Y-85899463D01*
X148283137Y-86038751D01*
X148411578Y-86124573D01*
X148051493Y-86484658D01*
X148134428Y-86544914D01*
X148344797Y-86652102D01*
X148569352Y-86725065D01*
X148569351Y-86725065D01*
X148802548Y-86762000D01*
X149038652Y-86762000D01*
X149271847Y-86725065D01*
X149496402Y-86652102D01*
X149706763Y-86544918D01*
X149706769Y-86544914D01*
X149789704Y-86484658D01*
X149789705Y-86484658D01*
X149429620Y-86124573D01*
X149558063Y-86038751D01*
X149697351Y-85899463D01*
X149783173Y-85771020D01*
X150143258Y-86131105D01*
X150143258Y-86131104D01*
X150203514Y-86048169D01*
X150203518Y-86048163D01*
X150310702Y-85837802D01*
X150383665Y-85613247D01*
X150420600Y-85380052D01*
X150420600Y-85143947D01*
X150383665Y-84910752D01*
X150310702Y-84686197D01*
X150203514Y-84475828D01*
X150143258Y-84392894D01*
X150143258Y-84392893D01*
X149783173Y-84752978D01*
X149697351Y-84624537D01*
X149558063Y-84485249D01*
X149429619Y-84399425D01*
X149789705Y-84039340D01*
X149789704Y-84039338D01*
X149706774Y-83979087D01*
X149496402Y-83871897D01*
X149271847Y-83798934D01*
X149271848Y-83798934D01*
X149038652Y-83762000D01*
X148802548Y-83762000D01*
X148569352Y-83798934D01*
X148344797Y-83871897D01*
X148134430Y-83979084D01*
X148051494Y-84039340D01*
X148411579Y-84399425D01*
X148283137Y-84485249D01*
X148143849Y-84624537D01*
X148058025Y-84752979D01*
X147697940Y-84392894D01*
X147637684Y-84475830D01*
X147530497Y-84686197D01*
X147457534Y-84910752D01*
X147420600Y-85143947D01*
X140260600Y-85143947D01*
X140223665Y-84910752D01*
X140150702Y-84686197D01*
X140043514Y-84475828D01*
X139983258Y-84392894D01*
X139983258Y-84392893D01*
X139623173Y-84752978D01*
X139537351Y-84624537D01*
X139398063Y-84485249D01*
X139269619Y-84399425D01*
X139629705Y-84039340D01*
X139629704Y-84039339D01*
X139546774Y-83979087D01*
X139336402Y-83871897D01*
X139111847Y-83798934D01*
X139111848Y-83798934D01*
X138878652Y-83762000D01*
X138642548Y-83762000D01*
X138409352Y-83798934D01*
X138184797Y-83871897D01*
X137974430Y-83979084D01*
X137891494Y-84039340D01*
X138251579Y-84399425D01*
X138123137Y-84485249D01*
X137983849Y-84624537D01*
X137898025Y-84752979D01*
X137537940Y-84392894D01*
X137477684Y-84475830D01*
X137370497Y-84686197D01*
X137297534Y-84910752D01*
X137260600Y-85143947D01*
X131420600Y-85143947D01*
X131383665Y-84910752D01*
X131310702Y-84686197D01*
X131203514Y-84475828D01*
X131143258Y-84392894D01*
X131143258Y-84392893D01*
X130783173Y-84752978D01*
X130697351Y-84624537D01*
X130558063Y-84485249D01*
X130429619Y-84399425D01*
X130789705Y-84039340D01*
X130789704Y-84039339D01*
X130706774Y-83979087D01*
X130496402Y-83871897D01*
X130271847Y-83798934D01*
X130271848Y-83798934D01*
X130038652Y-83762000D01*
X129802548Y-83762000D01*
X129569352Y-83798934D01*
X129344797Y-83871897D01*
X129134430Y-83979084D01*
X129051494Y-84039340D01*
X129411579Y-84399425D01*
X129283137Y-84485249D01*
X129143849Y-84624537D01*
X129058025Y-84752979D01*
X128697940Y-84392894D01*
X128637684Y-84475830D01*
X128530497Y-84686197D01*
X128457534Y-84910752D01*
X128420600Y-85143947D01*
X121260600Y-85143947D01*
X121223665Y-84910752D01*
X121150702Y-84686197D01*
X121043514Y-84475828D01*
X120983258Y-84392894D01*
X120983258Y-84392893D01*
X120623173Y-84752978D01*
X120537351Y-84624537D01*
X120398063Y-84485249D01*
X120269619Y-84399425D01*
X120629705Y-84039340D01*
X120629704Y-84039339D01*
X120546774Y-83979087D01*
X120336402Y-83871897D01*
X120111847Y-83798934D01*
X120111848Y-83798934D01*
X119878652Y-83762000D01*
X119642548Y-83762000D01*
X119409352Y-83798934D01*
X119184797Y-83871897D01*
X118974430Y-83979084D01*
X118891494Y-84039340D01*
X119251579Y-84399425D01*
X119123137Y-84485249D01*
X118983849Y-84624537D01*
X118898025Y-84752979D01*
X118537940Y-84392894D01*
X118477684Y-84475830D01*
X118370497Y-84686197D01*
X118297534Y-84910752D01*
X118260600Y-85143947D01*
X107341100Y-85143947D01*
X107341100Y-78632900D01*
X107360785Y-78565861D01*
X107413589Y-78520106D01*
X107465100Y-78508900D01*
X161216100Y-78508900D01*
X161283139Y-78528585D01*
G37*
%TD.AperFunction*%
%TD*%
M02*
