%TF.GenerationSoftware,KiCad,Pcbnew,9.0.6*%
%TF.CreationDate,2026-07-27T22:04:20-05:00*%
%TF.ProjectId,8thOrderBandpassFilter,3874684f-7264-4657-9242-616e64706173,1.0*%
%TF.SameCoordinates,Original*%
%TF.FileFunction,Legend,Top*%
%TF.FilePolarity,Positive*%
%FSLAX46Y46*%
G04 Gerber Fmt 4.6, Leading zero omitted, Abs format (unit mm)*
G04 Created by KiCad (PCBNEW 9.0.6) date 2026-07-27 22:04:20*
%MOMM*%
%LPD*%
G01*
G04 APERTURE LIST*
%ADD10C,0.150000*%
%ADD11C,0.100000*%
%ADD12C,0.120000*%
%ADD13C,0.152400*%
%ADD14C,0.000000*%
G04 APERTURE END LIST*
D10*
X134733780Y-105471166D02*
X134781400Y-105518785D01*
X134781400Y-105518785D02*
X134829019Y-105661642D01*
X134829019Y-105661642D02*
X134829019Y-105756880D01*
X134829019Y-105756880D02*
X134781400Y-105899737D01*
X134781400Y-105899737D02*
X134686161Y-105994975D01*
X134686161Y-105994975D02*
X134590923Y-106042594D01*
X134590923Y-106042594D02*
X134400447Y-106090213D01*
X134400447Y-106090213D02*
X134257590Y-106090213D01*
X134257590Y-106090213D02*
X134067114Y-106042594D01*
X134067114Y-106042594D02*
X133971876Y-105994975D01*
X133971876Y-105994975D02*
X133876638Y-105899737D01*
X133876638Y-105899737D02*
X133829019Y-105756880D01*
X133829019Y-105756880D02*
X133829019Y-105661642D01*
X133829019Y-105661642D02*
X133876638Y-105518785D01*
X133876638Y-105518785D02*
X133924257Y-105471166D01*
X133829019Y-104566404D02*
X133829019Y-105042594D01*
X133829019Y-105042594D02*
X134305209Y-105090213D01*
X134305209Y-105090213D02*
X134257590Y-105042594D01*
X134257590Y-105042594D02*
X134209971Y-104947356D01*
X134209971Y-104947356D02*
X134209971Y-104709261D01*
X134209971Y-104709261D02*
X134257590Y-104614023D01*
X134257590Y-104614023D02*
X134305209Y-104566404D01*
X134305209Y-104566404D02*
X134400447Y-104518785D01*
X134400447Y-104518785D02*
X134638542Y-104518785D01*
X134638542Y-104518785D02*
X134733780Y-104566404D01*
X134733780Y-104566404D02*
X134781400Y-104614023D01*
X134781400Y-104614023D02*
X134829019Y-104709261D01*
X134829019Y-104709261D02*
X134829019Y-104947356D01*
X134829019Y-104947356D02*
X134781400Y-105042594D01*
X134781400Y-105042594D02*
X134733780Y-105090213D01*
X119518133Y-110239980D02*
X119470514Y-110287600D01*
X119470514Y-110287600D02*
X119327657Y-110335219D01*
X119327657Y-110335219D02*
X119232419Y-110335219D01*
X119232419Y-110335219D02*
X119089562Y-110287600D01*
X119089562Y-110287600D02*
X118994324Y-110192361D01*
X118994324Y-110192361D02*
X118946705Y-110097123D01*
X118946705Y-110097123D02*
X118899086Y-109906647D01*
X118899086Y-109906647D02*
X118899086Y-109763790D01*
X118899086Y-109763790D02*
X118946705Y-109573314D01*
X118946705Y-109573314D02*
X118994324Y-109478076D01*
X118994324Y-109478076D02*
X119089562Y-109382838D01*
X119089562Y-109382838D02*
X119232419Y-109335219D01*
X119232419Y-109335219D02*
X119327657Y-109335219D01*
X119327657Y-109335219D02*
X119470514Y-109382838D01*
X119470514Y-109382838D02*
X119518133Y-109430457D01*
X120470514Y-110335219D02*
X119899086Y-110335219D01*
X120184800Y-110335219D02*
X120184800Y-109335219D01*
X120184800Y-109335219D02*
X120089562Y-109478076D01*
X120089562Y-109478076D02*
X119994324Y-109573314D01*
X119994324Y-109573314D02*
X119899086Y-109620933D01*
X155549580Y-104292857D02*
X155597200Y-104340476D01*
X155597200Y-104340476D02*
X155644819Y-104483333D01*
X155644819Y-104483333D02*
X155644819Y-104578571D01*
X155644819Y-104578571D02*
X155597200Y-104721428D01*
X155597200Y-104721428D02*
X155501961Y-104816666D01*
X155501961Y-104816666D02*
X155406723Y-104864285D01*
X155406723Y-104864285D02*
X155216247Y-104911904D01*
X155216247Y-104911904D02*
X155073390Y-104911904D01*
X155073390Y-104911904D02*
X154882914Y-104864285D01*
X154882914Y-104864285D02*
X154787676Y-104816666D01*
X154787676Y-104816666D02*
X154692438Y-104721428D01*
X154692438Y-104721428D02*
X154644819Y-104578571D01*
X154644819Y-104578571D02*
X154644819Y-104483333D01*
X154644819Y-104483333D02*
X154692438Y-104340476D01*
X154692438Y-104340476D02*
X154740057Y-104292857D01*
X155644819Y-103340476D02*
X155644819Y-103911904D01*
X155644819Y-103626190D02*
X154644819Y-103626190D01*
X154644819Y-103626190D02*
X154787676Y-103721428D01*
X154787676Y-103721428D02*
X154882914Y-103816666D01*
X154882914Y-103816666D02*
X154930533Y-103911904D01*
X155073390Y-102769047D02*
X155025771Y-102864285D01*
X155025771Y-102864285D02*
X154978152Y-102911904D01*
X154978152Y-102911904D02*
X154882914Y-102959523D01*
X154882914Y-102959523D02*
X154835295Y-102959523D01*
X154835295Y-102959523D02*
X154740057Y-102911904D01*
X154740057Y-102911904D02*
X154692438Y-102864285D01*
X154692438Y-102864285D02*
X154644819Y-102769047D01*
X154644819Y-102769047D02*
X154644819Y-102578571D01*
X154644819Y-102578571D02*
X154692438Y-102483333D01*
X154692438Y-102483333D02*
X154740057Y-102435714D01*
X154740057Y-102435714D02*
X154835295Y-102388095D01*
X154835295Y-102388095D02*
X154882914Y-102388095D01*
X154882914Y-102388095D02*
X154978152Y-102435714D01*
X154978152Y-102435714D02*
X155025771Y-102483333D01*
X155025771Y-102483333D02*
X155073390Y-102578571D01*
X155073390Y-102578571D02*
X155073390Y-102769047D01*
X155073390Y-102769047D02*
X155121009Y-102864285D01*
X155121009Y-102864285D02*
X155168628Y-102911904D01*
X155168628Y-102911904D02*
X155263866Y-102959523D01*
X155263866Y-102959523D02*
X155454342Y-102959523D01*
X155454342Y-102959523D02*
X155549580Y-102911904D01*
X155549580Y-102911904D02*
X155597200Y-102864285D01*
X155597200Y-102864285D02*
X155644819Y-102769047D01*
X155644819Y-102769047D02*
X155644819Y-102578571D01*
X155644819Y-102578571D02*
X155597200Y-102483333D01*
X155597200Y-102483333D02*
X155549580Y-102435714D01*
X155549580Y-102435714D02*
X155454342Y-102388095D01*
X155454342Y-102388095D02*
X155263866Y-102388095D01*
X155263866Y-102388095D02*
X155168628Y-102435714D01*
X155168628Y-102435714D02*
X155121009Y-102483333D01*
X155121009Y-102483333D02*
X155073390Y-102578571D01*
X131954819Y-100356666D02*
X131478628Y-100689999D01*
X131954819Y-100928094D02*
X130954819Y-100928094D01*
X130954819Y-100928094D02*
X130954819Y-100547142D01*
X130954819Y-100547142D02*
X131002438Y-100451904D01*
X131002438Y-100451904D02*
X131050057Y-100404285D01*
X131050057Y-100404285D02*
X131145295Y-100356666D01*
X131145295Y-100356666D02*
X131288152Y-100356666D01*
X131288152Y-100356666D02*
X131383390Y-100404285D01*
X131383390Y-100404285D02*
X131431009Y-100451904D01*
X131431009Y-100451904D02*
X131478628Y-100547142D01*
X131478628Y-100547142D02*
X131478628Y-100928094D01*
X131954819Y-99404285D02*
X131954819Y-99975713D01*
X131954819Y-99689999D02*
X130954819Y-99689999D01*
X130954819Y-99689999D02*
X131097676Y-99785237D01*
X131097676Y-99785237D02*
X131192914Y-99880475D01*
X131192914Y-99880475D02*
X131240533Y-99975713D01*
X127028333Y-100252419D02*
X126695000Y-99776228D01*
X126456905Y-100252419D02*
X126456905Y-99252419D01*
X126456905Y-99252419D02*
X126837857Y-99252419D01*
X126837857Y-99252419D02*
X126933095Y-99300038D01*
X126933095Y-99300038D02*
X126980714Y-99347657D01*
X126980714Y-99347657D02*
X127028333Y-99442895D01*
X127028333Y-99442895D02*
X127028333Y-99585752D01*
X127028333Y-99585752D02*
X126980714Y-99680990D01*
X126980714Y-99680990D02*
X126933095Y-99728609D01*
X126933095Y-99728609D02*
X126837857Y-99776228D01*
X126837857Y-99776228D02*
X126456905Y-99776228D01*
X127409286Y-99347657D02*
X127456905Y-99300038D01*
X127456905Y-99300038D02*
X127552143Y-99252419D01*
X127552143Y-99252419D02*
X127790238Y-99252419D01*
X127790238Y-99252419D02*
X127885476Y-99300038D01*
X127885476Y-99300038D02*
X127933095Y-99347657D01*
X127933095Y-99347657D02*
X127980714Y-99442895D01*
X127980714Y-99442895D02*
X127980714Y-99538133D01*
X127980714Y-99538133D02*
X127933095Y-99680990D01*
X127933095Y-99680990D02*
X127361667Y-100252419D01*
X127361667Y-100252419D02*
X127980714Y-100252419D01*
X154265333Y-108258780D02*
X154217714Y-108306400D01*
X154217714Y-108306400D02*
X154074857Y-108354019D01*
X154074857Y-108354019D02*
X153979619Y-108354019D01*
X153979619Y-108354019D02*
X153836762Y-108306400D01*
X153836762Y-108306400D02*
X153741524Y-108211161D01*
X153741524Y-108211161D02*
X153693905Y-108115923D01*
X153693905Y-108115923D02*
X153646286Y-107925447D01*
X153646286Y-107925447D02*
X153646286Y-107782590D01*
X153646286Y-107782590D02*
X153693905Y-107592114D01*
X153693905Y-107592114D02*
X153741524Y-107496876D01*
X153741524Y-107496876D02*
X153836762Y-107401638D01*
X153836762Y-107401638D02*
X153979619Y-107354019D01*
X153979619Y-107354019D02*
X154074857Y-107354019D01*
X154074857Y-107354019D02*
X154217714Y-107401638D01*
X154217714Y-107401638D02*
X154265333Y-107449257D01*
X154741524Y-108354019D02*
X154932000Y-108354019D01*
X154932000Y-108354019D02*
X155027238Y-108306400D01*
X155027238Y-108306400D02*
X155074857Y-108258780D01*
X155074857Y-108258780D02*
X155170095Y-108115923D01*
X155170095Y-108115923D02*
X155217714Y-107925447D01*
X155217714Y-107925447D02*
X155217714Y-107544495D01*
X155217714Y-107544495D02*
X155170095Y-107449257D01*
X155170095Y-107449257D02*
X155122476Y-107401638D01*
X155122476Y-107401638D02*
X155027238Y-107354019D01*
X155027238Y-107354019D02*
X154836762Y-107354019D01*
X154836762Y-107354019D02*
X154741524Y-107401638D01*
X154741524Y-107401638D02*
X154693905Y-107449257D01*
X154693905Y-107449257D02*
X154646286Y-107544495D01*
X154646286Y-107544495D02*
X154646286Y-107782590D01*
X154646286Y-107782590D02*
X154693905Y-107877828D01*
X154693905Y-107877828D02*
X154741524Y-107925447D01*
X154741524Y-107925447D02*
X154836762Y-107973066D01*
X154836762Y-107973066D02*
X155027238Y-107973066D01*
X155027238Y-107973066D02*
X155122476Y-107925447D01*
X155122476Y-107925447D02*
X155170095Y-107877828D01*
X155170095Y-107877828D02*
X155217714Y-107782590D01*
D11*
X151633333Y-94342580D02*
X151633333Y-93628295D01*
X151633333Y-93628295D02*
X151680952Y-93485438D01*
X151680952Y-93485438D02*
X151776190Y-93390200D01*
X151776190Y-93390200D02*
X151919047Y-93342580D01*
X151919047Y-93342580D02*
X152014285Y-93342580D01*
X151204761Y-94247342D02*
X151157142Y-94294961D01*
X151157142Y-94294961D02*
X151061904Y-94342580D01*
X151061904Y-94342580D02*
X150823809Y-94342580D01*
X150823809Y-94342580D02*
X150728571Y-94294961D01*
X150728571Y-94294961D02*
X150680952Y-94247342D01*
X150680952Y-94247342D02*
X150633333Y-94152104D01*
X150633333Y-94152104D02*
X150633333Y-94056866D01*
X150633333Y-94056866D02*
X150680952Y-93914009D01*
X150680952Y-93914009D02*
X151252380Y-93342580D01*
X151252380Y-93342580D02*
X150633333Y-93342580D01*
D10*
X153845180Y-83370990D02*
X153845180Y-83561466D01*
X153845180Y-83561466D02*
X153797561Y-83656704D01*
X153797561Y-83656704D02*
X153702323Y-83751942D01*
X153702323Y-83751942D02*
X153511847Y-83799561D01*
X153511847Y-83799561D02*
X153178514Y-83799561D01*
X153178514Y-83799561D02*
X152988038Y-83751942D01*
X152988038Y-83751942D02*
X152892800Y-83656704D01*
X152892800Y-83656704D02*
X152845180Y-83561466D01*
X152845180Y-83561466D02*
X152845180Y-83370990D01*
X152845180Y-83370990D02*
X152892800Y-83275752D01*
X152892800Y-83275752D02*
X152988038Y-83180514D01*
X152988038Y-83180514D02*
X153178514Y-83132895D01*
X153178514Y-83132895D02*
X153511847Y-83132895D01*
X153511847Y-83132895D02*
X153702323Y-83180514D01*
X153702323Y-83180514D02*
X153797561Y-83275752D01*
X153797561Y-83275752D02*
X153845180Y-83370990D01*
X153511847Y-84656704D02*
X152845180Y-84656704D01*
X153511847Y-84228133D02*
X152988038Y-84228133D01*
X152988038Y-84228133D02*
X152892800Y-84275752D01*
X152892800Y-84275752D02*
X152845180Y-84370990D01*
X152845180Y-84370990D02*
X152845180Y-84513847D01*
X152845180Y-84513847D02*
X152892800Y-84609085D01*
X152892800Y-84609085D02*
X152940419Y-84656704D01*
X153511847Y-84990038D02*
X153511847Y-85370990D01*
X153845180Y-85132895D02*
X152988038Y-85132895D01*
X152988038Y-85132895D02*
X152892800Y-85180514D01*
X152892800Y-85180514D02*
X152845180Y-85275752D01*
X152845180Y-85275752D02*
X152845180Y-85370990D01*
X153511847Y-85704324D02*
X152511847Y-85704324D01*
X153464228Y-85704324D02*
X153511847Y-85799562D01*
X153511847Y-85799562D02*
X153511847Y-85990038D01*
X153511847Y-85990038D02*
X153464228Y-86085276D01*
X153464228Y-86085276D02*
X153416609Y-86132895D01*
X153416609Y-86132895D02*
X153321371Y-86180514D01*
X153321371Y-86180514D02*
X153035657Y-86180514D01*
X153035657Y-86180514D02*
X152940419Y-86132895D01*
X152940419Y-86132895D02*
X152892800Y-86085276D01*
X152892800Y-86085276D02*
X152845180Y-85990038D01*
X152845180Y-85990038D02*
X152845180Y-85799562D01*
X152845180Y-85799562D02*
X152892800Y-85704324D01*
X153511847Y-87037657D02*
X152845180Y-87037657D01*
X153511847Y-86609086D02*
X152988038Y-86609086D01*
X152988038Y-86609086D02*
X152892800Y-86656705D01*
X152892800Y-86656705D02*
X152845180Y-86751943D01*
X152845180Y-86751943D02*
X152845180Y-86894800D01*
X152845180Y-86894800D02*
X152892800Y-86990038D01*
X152892800Y-86990038D02*
X152940419Y-87037657D01*
X153511847Y-87370991D02*
X153511847Y-87751943D01*
X153845180Y-87513848D02*
X152988038Y-87513848D01*
X152988038Y-87513848D02*
X152892800Y-87561467D01*
X152892800Y-87561467D02*
X152845180Y-87656705D01*
X152845180Y-87656705D02*
X152845180Y-87751943D01*
X141740180Y-100897357D02*
X141787800Y-100944976D01*
X141787800Y-100944976D02*
X141835419Y-101087833D01*
X141835419Y-101087833D02*
X141835419Y-101183071D01*
X141835419Y-101183071D02*
X141787800Y-101325928D01*
X141787800Y-101325928D02*
X141692561Y-101421166D01*
X141692561Y-101421166D02*
X141597323Y-101468785D01*
X141597323Y-101468785D02*
X141406847Y-101516404D01*
X141406847Y-101516404D02*
X141263990Y-101516404D01*
X141263990Y-101516404D02*
X141073514Y-101468785D01*
X141073514Y-101468785D02*
X140978276Y-101421166D01*
X140978276Y-101421166D02*
X140883038Y-101325928D01*
X140883038Y-101325928D02*
X140835419Y-101183071D01*
X140835419Y-101183071D02*
X140835419Y-101087833D01*
X140835419Y-101087833D02*
X140883038Y-100944976D01*
X140883038Y-100944976D02*
X140930657Y-100897357D01*
X141835419Y-99944976D02*
X141835419Y-100516404D01*
X141835419Y-100230690D02*
X140835419Y-100230690D01*
X140835419Y-100230690D02*
X140978276Y-100325928D01*
X140978276Y-100325928D02*
X141073514Y-100421166D01*
X141073514Y-100421166D02*
X141121133Y-100516404D01*
X140835419Y-99087833D02*
X140835419Y-99278309D01*
X140835419Y-99278309D02*
X140883038Y-99373547D01*
X140883038Y-99373547D02*
X140930657Y-99421166D01*
X140930657Y-99421166D02*
X141073514Y-99516404D01*
X141073514Y-99516404D02*
X141263990Y-99564023D01*
X141263990Y-99564023D02*
X141644942Y-99564023D01*
X141644942Y-99564023D02*
X141740180Y-99516404D01*
X141740180Y-99516404D02*
X141787800Y-99468785D01*
X141787800Y-99468785D02*
X141835419Y-99373547D01*
X141835419Y-99373547D02*
X141835419Y-99183071D01*
X141835419Y-99183071D02*
X141787800Y-99087833D01*
X141787800Y-99087833D02*
X141740180Y-99040214D01*
X141740180Y-99040214D02*
X141644942Y-98992595D01*
X141644942Y-98992595D02*
X141406847Y-98992595D01*
X141406847Y-98992595D02*
X141311609Y-99040214D01*
X141311609Y-99040214D02*
X141263990Y-99087833D01*
X141263990Y-99087833D02*
X141216371Y-99183071D01*
X141216371Y-99183071D02*
X141216371Y-99373547D01*
X141216371Y-99373547D02*
X141263990Y-99468785D01*
X141263990Y-99468785D02*
X141311609Y-99516404D01*
X141311609Y-99516404D02*
X141406847Y-99564023D01*
X147159580Y-112016666D02*
X147207200Y-112064285D01*
X147207200Y-112064285D02*
X147254819Y-112207142D01*
X147254819Y-112207142D02*
X147254819Y-112302380D01*
X147254819Y-112302380D02*
X147207200Y-112445237D01*
X147207200Y-112445237D02*
X147111961Y-112540475D01*
X147111961Y-112540475D02*
X147016723Y-112588094D01*
X147016723Y-112588094D02*
X146826247Y-112635713D01*
X146826247Y-112635713D02*
X146683390Y-112635713D01*
X146683390Y-112635713D02*
X146492914Y-112588094D01*
X146492914Y-112588094D02*
X146397676Y-112540475D01*
X146397676Y-112540475D02*
X146302438Y-112445237D01*
X146302438Y-112445237D02*
X146254819Y-112302380D01*
X146254819Y-112302380D02*
X146254819Y-112207142D01*
X146254819Y-112207142D02*
X146302438Y-112064285D01*
X146302438Y-112064285D02*
X146350057Y-112016666D01*
X146683390Y-111445237D02*
X146635771Y-111540475D01*
X146635771Y-111540475D02*
X146588152Y-111588094D01*
X146588152Y-111588094D02*
X146492914Y-111635713D01*
X146492914Y-111635713D02*
X146445295Y-111635713D01*
X146445295Y-111635713D02*
X146350057Y-111588094D01*
X146350057Y-111588094D02*
X146302438Y-111540475D01*
X146302438Y-111540475D02*
X146254819Y-111445237D01*
X146254819Y-111445237D02*
X146254819Y-111254761D01*
X146254819Y-111254761D02*
X146302438Y-111159523D01*
X146302438Y-111159523D02*
X146350057Y-111111904D01*
X146350057Y-111111904D02*
X146445295Y-111064285D01*
X146445295Y-111064285D02*
X146492914Y-111064285D01*
X146492914Y-111064285D02*
X146588152Y-111111904D01*
X146588152Y-111111904D02*
X146635771Y-111159523D01*
X146635771Y-111159523D02*
X146683390Y-111254761D01*
X146683390Y-111254761D02*
X146683390Y-111445237D01*
X146683390Y-111445237D02*
X146731009Y-111540475D01*
X146731009Y-111540475D02*
X146778628Y-111588094D01*
X146778628Y-111588094D02*
X146873866Y-111635713D01*
X146873866Y-111635713D02*
X147064342Y-111635713D01*
X147064342Y-111635713D02*
X147159580Y-111588094D01*
X147159580Y-111588094D02*
X147207200Y-111540475D01*
X147207200Y-111540475D02*
X147254819Y-111445237D01*
X147254819Y-111445237D02*
X147254819Y-111254761D01*
X147254819Y-111254761D02*
X147207200Y-111159523D01*
X147207200Y-111159523D02*
X147159580Y-111111904D01*
X147159580Y-111111904D02*
X147064342Y-111064285D01*
X147064342Y-111064285D02*
X146873866Y-111064285D01*
X146873866Y-111064285D02*
X146778628Y-111111904D01*
X146778628Y-111111904D02*
X146731009Y-111159523D01*
X146731009Y-111159523D02*
X146683390Y-111254761D01*
X131405333Y-110493980D02*
X131357714Y-110541600D01*
X131357714Y-110541600D02*
X131214857Y-110589219D01*
X131214857Y-110589219D02*
X131119619Y-110589219D01*
X131119619Y-110589219D02*
X130976762Y-110541600D01*
X130976762Y-110541600D02*
X130881524Y-110446361D01*
X130881524Y-110446361D02*
X130833905Y-110351123D01*
X130833905Y-110351123D02*
X130786286Y-110160647D01*
X130786286Y-110160647D02*
X130786286Y-110017790D01*
X130786286Y-110017790D02*
X130833905Y-109827314D01*
X130833905Y-109827314D02*
X130881524Y-109732076D01*
X130881524Y-109732076D02*
X130976762Y-109636838D01*
X130976762Y-109636838D02*
X131119619Y-109589219D01*
X131119619Y-109589219D02*
X131214857Y-109589219D01*
X131214857Y-109589219D02*
X131357714Y-109636838D01*
X131357714Y-109636838D02*
X131405333Y-109684457D01*
X131786286Y-109684457D02*
X131833905Y-109636838D01*
X131833905Y-109636838D02*
X131929143Y-109589219D01*
X131929143Y-109589219D02*
X132167238Y-109589219D01*
X132167238Y-109589219D02*
X132262476Y-109636838D01*
X132262476Y-109636838D02*
X132310095Y-109684457D01*
X132310095Y-109684457D02*
X132357714Y-109779695D01*
X132357714Y-109779695D02*
X132357714Y-109874933D01*
X132357714Y-109874933D02*
X132310095Y-110017790D01*
X132310095Y-110017790D02*
X131738667Y-110589219D01*
X131738667Y-110589219D02*
X132357714Y-110589219D01*
X137564019Y-114784094D02*
X136564019Y-114784094D01*
X136564019Y-114784094D02*
X136564019Y-114545999D01*
X136564019Y-114545999D02*
X136611638Y-114403142D01*
X136611638Y-114403142D02*
X136706876Y-114307904D01*
X136706876Y-114307904D02*
X136802114Y-114260285D01*
X136802114Y-114260285D02*
X136992590Y-114212666D01*
X136992590Y-114212666D02*
X137135447Y-114212666D01*
X137135447Y-114212666D02*
X137325923Y-114260285D01*
X137325923Y-114260285D02*
X137421161Y-114307904D01*
X137421161Y-114307904D02*
X137516400Y-114403142D01*
X137516400Y-114403142D02*
X137564019Y-114545999D01*
X137564019Y-114545999D02*
X137564019Y-114784094D01*
X136659257Y-113831713D02*
X136611638Y-113784094D01*
X136611638Y-113784094D02*
X136564019Y-113688856D01*
X136564019Y-113688856D02*
X136564019Y-113450761D01*
X136564019Y-113450761D02*
X136611638Y-113355523D01*
X136611638Y-113355523D02*
X136659257Y-113307904D01*
X136659257Y-113307904D02*
X136754495Y-113260285D01*
X136754495Y-113260285D02*
X136849733Y-113260285D01*
X136849733Y-113260285D02*
X136992590Y-113307904D01*
X136992590Y-113307904D02*
X137564019Y-113879332D01*
X137564019Y-113879332D02*
X137564019Y-113260285D01*
X144373695Y-96635219D02*
X144373695Y-97444742D01*
X144373695Y-97444742D02*
X144421314Y-97539980D01*
X144421314Y-97539980D02*
X144468933Y-97587600D01*
X144468933Y-97587600D02*
X144564171Y-97635219D01*
X144564171Y-97635219D02*
X144754647Y-97635219D01*
X144754647Y-97635219D02*
X144849885Y-97587600D01*
X144849885Y-97587600D02*
X144897504Y-97539980D01*
X144897504Y-97539980D02*
X144945123Y-97444742D01*
X144945123Y-97444742D02*
X144945123Y-96635219D01*
X145373695Y-96730457D02*
X145421314Y-96682838D01*
X145421314Y-96682838D02*
X145516552Y-96635219D01*
X145516552Y-96635219D02*
X145754647Y-96635219D01*
X145754647Y-96635219D02*
X145849885Y-96682838D01*
X145849885Y-96682838D02*
X145897504Y-96730457D01*
X145897504Y-96730457D02*
X145945123Y-96825695D01*
X145945123Y-96825695D02*
X145945123Y-96920933D01*
X145945123Y-96920933D02*
X145897504Y-97063790D01*
X145897504Y-97063790D02*
X145326076Y-97635219D01*
X145326076Y-97635219D02*
X145945123Y-97635219D01*
X127013333Y-104984819D02*
X126680000Y-104508628D01*
X126441905Y-104984819D02*
X126441905Y-103984819D01*
X126441905Y-103984819D02*
X126822857Y-103984819D01*
X126822857Y-103984819D02*
X126918095Y-104032438D01*
X126918095Y-104032438D02*
X126965714Y-104080057D01*
X126965714Y-104080057D02*
X127013333Y-104175295D01*
X127013333Y-104175295D02*
X127013333Y-104318152D01*
X127013333Y-104318152D02*
X126965714Y-104413390D01*
X126965714Y-104413390D02*
X126918095Y-104461009D01*
X126918095Y-104461009D02*
X126822857Y-104508628D01*
X126822857Y-104508628D02*
X126441905Y-104508628D01*
X127346667Y-103984819D02*
X127965714Y-103984819D01*
X127965714Y-103984819D02*
X127632381Y-104365771D01*
X127632381Y-104365771D02*
X127775238Y-104365771D01*
X127775238Y-104365771D02*
X127870476Y-104413390D01*
X127870476Y-104413390D02*
X127918095Y-104461009D01*
X127918095Y-104461009D02*
X127965714Y-104556247D01*
X127965714Y-104556247D02*
X127965714Y-104794342D01*
X127965714Y-104794342D02*
X127918095Y-104889580D01*
X127918095Y-104889580D02*
X127870476Y-104937200D01*
X127870476Y-104937200D02*
X127775238Y-104984819D01*
X127775238Y-104984819D02*
X127489524Y-104984819D01*
X127489524Y-104984819D02*
X127394286Y-104937200D01*
X127394286Y-104937200D02*
X127346667Y-104889580D01*
X157040342Y-101451580D02*
X156992723Y-101499200D01*
X156992723Y-101499200D02*
X156849866Y-101546819D01*
X156849866Y-101546819D02*
X156754628Y-101546819D01*
X156754628Y-101546819D02*
X156611771Y-101499200D01*
X156611771Y-101499200D02*
X156516533Y-101403961D01*
X156516533Y-101403961D02*
X156468914Y-101308723D01*
X156468914Y-101308723D02*
X156421295Y-101118247D01*
X156421295Y-101118247D02*
X156421295Y-100975390D01*
X156421295Y-100975390D02*
X156468914Y-100784914D01*
X156468914Y-100784914D02*
X156516533Y-100689676D01*
X156516533Y-100689676D02*
X156611771Y-100594438D01*
X156611771Y-100594438D02*
X156754628Y-100546819D01*
X156754628Y-100546819D02*
X156849866Y-100546819D01*
X156849866Y-100546819D02*
X156992723Y-100594438D01*
X156992723Y-100594438D02*
X157040342Y-100642057D01*
X157992723Y-101546819D02*
X157421295Y-101546819D01*
X157707009Y-101546819D02*
X157707009Y-100546819D01*
X157707009Y-100546819D02*
X157611771Y-100689676D01*
X157611771Y-100689676D02*
X157516533Y-100784914D01*
X157516533Y-100784914D02*
X157421295Y-100832533D01*
X158611771Y-100546819D02*
X158707009Y-100546819D01*
X158707009Y-100546819D02*
X158802247Y-100594438D01*
X158802247Y-100594438D02*
X158849866Y-100642057D01*
X158849866Y-100642057D02*
X158897485Y-100737295D01*
X158897485Y-100737295D02*
X158945104Y-100927771D01*
X158945104Y-100927771D02*
X158945104Y-101165866D01*
X158945104Y-101165866D02*
X158897485Y-101356342D01*
X158897485Y-101356342D02*
X158849866Y-101451580D01*
X158849866Y-101451580D02*
X158802247Y-101499200D01*
X158802247Y-101499200D02*
X158707009Y-101546819D01*
X158707009Y-101546819D02*
X158611771Y-101546819D01*
X158611771Y-101546819D02*
X158516533Y-101499200D01*
X158516533Y-101499200D02*
X158468914Y-101451580D01*
X158468914Y-101451580D02*
X158421295Y-101356342D01*
X158421295Y-101356342D02*
X158373676Y-101165866D01*
X158373676Y-101165866D02*
X158373676Y-100927771D01*
X158373676Y-100927771D02*
X158421295Y-100737295D01*
X158421295Y-100737295D02*
X158468914Y-100642057D01*
X158468914Y-100642057D02*
X158516533Y-100594438D01*
X158516533Y-100594438D02*
X158611771Y-100546819D01*
X125505380Y-95486457D02*
X125553000Y-95534076D01*
X125553000Y-95534076D02*
X125600619Y-95676933D01*
X125600619Y-95676933D02*
X125600619Y-95772171D01*
X125600619Y-95772171D02*
X125553000Y-95915028D01*
X125553000Y-95915028D02*
X125457761Y-96010266D01*
X125457761Y-96010266D02*
X125362523Y-96057885D01*
X125362523Y-96057885D02*
X125172047Y-96105504D01*
X125172047Y-96105504D02*
X125029190Y-96105504D01*
X125029190Y-96105504D02*
X124838714Y-96057885D01*
X124838714Y-96057885D02*
X124743476Y-96010266D01*
X124743476Y-96010266D02*
X124648238Y-95915028D01*
X124648238Y-95915028D02*
X124600619Y-95772171D01*
X124600619Y-95772171D02*
X124600619Y-95676933D01*
X124600619Y-95676933D02*
X124648238Y-95534076D01*
X124648238Y-95534076D02*
X124695857Y-95486457D01*
X125600619Y-94534076D02*
X125600619Y-95105504D01*
X125600619Y-94819790D02*
X124600619Y-94819790D01*
X124600619Y-94819790D02*
X124743476Y-94915028D01*
X124743476Y-94915028D02*
X124838714Y-95010266D01*
X124838714Y-95010266D02*
X124886333Y-95105504D01*
X124600619Y-94200742D02*
X124600619Y-93581695D01*
X124600619Y-93581695D02*
X124981571Y-93915028D01*
X124981571Y-93915028D02*
X124981571Y-93772171D01*
X124981571Y-93772171D02*
X125029190Y-93676933D01*
X125029190Y-93676933D02*
X125076809Y-93629314D01*
X125076809Y-93629314D02*
X125172047Y-93581695D01*
X125172047Y-93581695D02*
X125410142Y-93581695D01*
X125410142Y-93581695D02*
X125505380Y-93629314D01*
X125505380Y-93629314D02*
X125553000Y-93676933D01*
X125553000Y-93676933D02*
X125600619Y-93772171D01*
X125600619Y-93772171D02*
X125600619Y-94057885D01*
X125600619Y-94057885D02*
X125553000Y-94153123D01*
X125553000Y-94153123D02*
X125505380Y-94200742D01*
D11*
X117933333Y-94642580D02*
X117933333Y-93928295D01*
X117933333Y-93928295D02*
X117980952Y-93785438D01*
X117980952Y-93785438D02*
X118076190Y-93690200D01*
X118076190Y-93690200D02*
X118219047Y-93642580D01*
X118219047Y-93642580D02*
X118314285Y-93642580D01*
X116933333Y-93642580D02*
X117504761Y-93642580D01*
X117219047Y-93642580D02*
X117219047Y-94642580D01*
X117219047Y-94642580D02*
X117314285Y-94499723D01*
X117314285Y-94499723D02*
X117409523Y-94404485D01*
X117409523Y-94404485D02*
X117504761Y-94356866D01*
D10*
X115954819Y-87142856D02*
X114954819Y-87142856D01*
X115288152Y-86666666D02*
X115954819Y-86666666D01*
X115383390Y-86666666D02*
X115335771Y-86619047D01*
X115335771Y-86619047D02*
X115288152Y-86523809D01*
X115288152Y-86523809D02*
X115288152Y-86380952D01*
X115288152Y-86380952D02*
X115335771Y-86285714D01*
X115335771Y-86285714D02*
X115431009Y-86238095D01*
X115431009Y-86238095D02*
X115954819Y-86238095D01*
X115288152Y-85761904D02*
X116288152Y-85761904D01*
X115335771Y-85761904D02*
X115288152Y-85666666D01*
X115288152Y-85666666D02*
X115288152Y-85476190D01*
X115288152Y-85476190D02*
X115335771Y-85380952D01*
X115335771Y-85380952D02*
X115383390Y-85333333D01*
X115383390Y-85333333D02*
X115478628Y-85285714D01*
X115478628Y-85285714D02*
X115764342Y-85285714D01*
X115764342Y-85285714D02*
X115859580Y-85333333D01*
X115859580Y-85333333D02*
X115907200Y-85380952D01*
X115907200Y-85380952D02*
X115954819Y-85476190D01*
X115954819Y-85476190D02*
X115954819Y-85666666D01*
X115954819Y-85666666D02*
X115907200Y-85761904D01*
X115288152Y-84428571D02*
X115954819Y-84428571D01*
X115288152Y-84857142D02*
X115811961Y-84857142D01*
X115811961Y-84857142D02*
X115907200Y-84809523D01*
X115907200Y-84809523D02*
X115954819Y-84714285D01*
X115954819Y-84714285D02*
X115954819Y-84571428D01*
X115954819Y-84571428D02*
X115907200Y-84476190D01*
X115907200Y-84476190D02*
X115859580Y-84428571D01*
X115288152Y-84095237D02*
X115288152Y-83714285D01*
X114954819Y-83952380D02*
X115811961Y-83952380D01*
X115811961Y-83952380D02*
X115907200Y-83904761D01*
X115907200Y-83904761D02*
X115954819Y-83809523D01*
X115954819Y-83809523D02*
X115954819Y-83714285D01*
X134725033Y-109609819D02*
X134391700Y-109133628D01*
X134153605Y-109609819D02*
X134153605Y-108609819D01*
X134153605Y-108609819D02*
X134534557Y-108609819D01*
X134534557Y-108609819D02*
X134629795Y-108657438D01*
X134629795Y-108657438D02*
X134677414Y-108705057D01*
X134677414Y-108705057D02*
X134725033Y-108800295D01*
X134725033Y-108800295D02*
X134725033Y-108943152D01*
X134725033Y-108943152D02*
X134677414Y-109038390D01*
X134677414Y-109038390D02*
X134629795Y-109086009D01*
X134629795Y-109086009D02*
X134534557Y-109133628D01*
X134534557Y-109133628D02*
X134153605Y-109133628D01*
X135582176Y-108943152D02*
X135582176Y-109609819D01*
X135344081Y-108562200D02*
X135105986Y-109276485D01*
X135105986Y-109276485D02*
X135725033Y-109276485D01*
X154264533Y-96654819D02*
X153931200Y-96178628D01*
X153693105Y-96654819D02*
X153693105Y-95654819D01*
X153693105Y-95654819D02*
X154074057Y-95654819D01*
X154074057Y-95654819D02*
X154169295Y-95702438D01*
X154169295Y-95702438D02*
X154216914Y-95750057D01*
X154216914Y-95750057D02*
X154264533Y-95845295D01*
X154264533Y-95845295D02*
X154264533Y-95988152D01*
X154264533Y-95988152D02*
X154216914Y-96083390D01*
X154216914Y-96083390D02*
X154169295Y-96131009D01*
X154169295Y-96131009D02*
X154074057Y-96178628D01*
X154074057Y-96178628D02*
X153693105Y-96178628D01*
X154740724Y-96654819D02*
X154931200Y-96654819D01*
X154931200Y-96654819D02*
X155026438Y-96607200D01*
X155026438Y-96607200D02*
X155074057Y-96559580D01*
X155074057Y-96559580D02*
X155169295Y-96416723D01*
X155169295Y-96416723D02*
X155216914Y-96226247D01*
X155216914Y-96226247D02*
X155216914Y-95845295D01*
X155216914Y-95845295D02*
X155169295Y-95750057D01*
X155169295Y-95750057D02*
X155121676Y-95702438D01*
X155121676Y-95702438D02*
X155026438Y-95654819D01*
X155026438Y-95654819D02*
X154835962Y-95654819D01*
X154835962Y-95654819D02*
X154740724Y-95702438D01*
X154740724Y-95702438D02*
X154693105Y-95750057D01*
X154693105Y-95750057D02*
X154645486Y-95845295D01*
X154645486Y-95845295D02*
X154645486Y-96083390D01*
X154645486Y-96083390D02*
X154693105Y-96178628D01*
X154693105Y-96178628D02*
X154740724Y-96226247D01*
X154740724Y-96226247D02*
X154835962Y-96273866D01*
X154835962Y-96273866D02*
X155026438Y-96273866D01*
X155026438Y-96273866D02*
X155121676Y-96226247D01*
X155121676Y-96226247D02*
X155169295Y-96178628D01*
X155169295Y-96178628D02*
X155216914Y-96083390D01*
D11*
X121876666Y-108487419D02*
X121876666Y-109201704D01*
X121876666Y-109201704D02*
X121829047Y-109344561D01*
X121829047Y-109344561D02*
X121733809Y-109439800D01*
X121733809Y-109439800D02*
X121590952Y-109487419D01*
X121590952Y-109487419D02*
X121495714Y-109487419D01*
X122257619Y-108487419D02*
X122876666Y-108487419D01*
X122876666Y-108487419D02*
X122543333Y-108868371D01*
X122543333Y-108868371D02*
X122686190Y-108868371D01*
X122686190Y-108868371D02*
X122781428Y-108915990D01*
X122781428Y-108915990D02*
X122829047Y-108963609D01*
X122829047Y-108963609D02*
X122876666Y-109058847D01*
X122876666Y-109058847D02*
X122876666Y-109296942D01*
X122876666Y-109296942D02*
X122829047Y-109392180D01*
X122829047Y-109392180D02*
X122781428Y-109439800D01*
X122781428Y-109439800D02*
X122686190Y-109487419D01*
X122686190Y-109487419D02*
X122400476Y-109487419D01*
X122400476Y-109487419D02*
X122305238Y-109439800D01*
X122305238Y-109439800D02*
X122257619Y-109392180D01*
D10*
X125192380Y-104951366D02*
X125240000Y-104998985D01*
X125240000Y-104998985D02*
X125287619Y-105141842D01*
X125287619Y-105141842D02*
X125287619Y-105237080D01*
X125287619Y-105237080D02*
X125240000Y-105379937D01*
X125240000Y-105379937D02*
X125144761Y-105475175D01*
X125144761Y-105475175D02*
X125049523Y-105522794D01*
X125049523Y-105522794D02*
X124859047Y-105570413D01*
X124859047Y-105570413D02*
X124716190Y-105570413D01*
X124716190Y-105570413D02*
X124525714Y-105522794D01*
X124525714Y-105522794D02*
X124430476Y-105475175D01*
X124430476Y-105475175D02*
X124335238Y-105379937D01*
X124335238Y-105379937D02*
X124287619Y-105237080D01*
X124287619Y-105237080D02*
X124287619Y-105141842D01*
X124287619Y-105141842D02*
X124335238Y-104998985D01*
X124335238Y-104998985D02*
X124382857Y-104951366D01*
X124620952Y-104094223D02*
X125287619Y-104094223D01*
X124240000Y-104332318D02*
X124954285Y-104570413D01*
X124954285Y-104570413D02*
X124954285Y-103951366D01*
X151204819Y-100492857D02*
X150728628Y-100826190D01*
X151204819Y-101064285D02*
X150204819Y-101064285D01*
X150204819Y-101064285D02*
X150204819Y-100683333D01*
X150204819Y-100683333D02*
X150252438Y-100588095D01*
X150252438Y-100588095D02*
X150300057Y-100540476D01*
X150300057Y-100540476D02*
X150395295Y-100492857D01*
X150395295Y-100492857D02*
X150538152Y-100492857D01*
X150538152Y-100492857D02*
X150633390Y-100540476D01*
X150633390Y-100540476D02*
X150681009Y-100588095D01*
X150681009Y-100588095D02*
X150728628Y-100683333D01*
X150728628Y-100683333D02*
X150728628Y-101064285D01*
X151204819Y-99540476D02*
X151204819Y-100111904D01*
X151204819Y-99826190D02*
X150204819Y-99826190D01*
X150204819Y-99826190D02*
X150347676Y-99921428D01*
X150347676Y-99921428D02*
X150442914Y-100016666D01*
X150442914Y-100016666D02*
X150490533Y-100111904D01*
X150204819Y-98921428D02*
X150204819Y-98826190D01*
X150204819Y-98826190D02*
X150252438Y-98730952D01*
X150252438Y-98730952D02*
X150300057Y-98683333D01*
X150300057Y-98683333D02*
X150395295Y-98635714D01*
X150395295Y-98635714D02*
X150585771Y-98588095D01*
X150585771Y-98588095D02*
X150823866Y-98588095D01*
X150823866Y-98588095D02*
X151014342Y-98635714D01*
X151014342Y-98635714D02*
X151109580Y-98683333D01*
X151109580Y-98683333D02*
X151157200Y-98730952D01*
X151157200Y-98730952D02*
X151204819Y-98826190D01*
X151204819Y-98826190D02*
X151204819Y-98921428D01*
X151204819Y-98921428D02*
X151157200Y-99016666D01*
X151157200Y-99016666D02*
X151109580Y-99064285D01*
X151109580Y-99064285D02*
X151014342Y-99111904D01*
X151014342Y-99111904D02*
X150823866Y-99159523D01*
X150823866Y-99159523D02*
X150585771Y-99159523D01*
X150585771Y-99159523D02*
X150395295Y-99111904D01*
X150395295Y-99111904D02*
X150300057Y-99064285D01*
X150300057Y-99064285D02*
X150252438Y-99016666D01*
X150252438Y-99016666D02*
X150204819Y-98921428D01*
X156979580Y-104282857D02*
X157027200Y-104330476D01*
X157027200Y-104330476D02*
X157074819Y-104473333D01*
X157074819Y-104473333D02*
X157074819Y-104568571D01*
X157074819Y-104568571D02*
X157027200Y-104711428D01*
X157027200Y-104711428D02*
X156931961Y-104806666D01*
X156931961Y-104806666D02*
X156836723Y-104854285D01*
X156836723Y-104854285D02*
X156646247Y-104901904D01*
X156646247Y-104901904D02*
X156503390Y-104901904D01*
X156503390Y-104901904D02*
X156312914Y-104854285D01*
X156312914Y-104854285D02*
X156217676Y-104806666D01*
X156217676Y-104806666D02*
X156122438Y-104711428D01*
X156122438Y-104711428D02*
X156074819Y-104568571D01*
X156074819Y-104568571D02*
X156074819Y-104473333D01*
X156074819Y-104473333D02*
X156122438Y-104330476D01*
X156122438Y-104330476D02*
X156170057Y-104282857D01*
X157074819Y-103330476D02*
X157074819Y-103901904D01*
X157074819Y-103616190D02*
X156074819Y-103616190D01*
X156074819Y-103616190D02*
X156217676Y-103711428D01*
X156217676Y-103711428D02*
X156312914Y-103806666D01*
X156312914Y-103806666D02*
X156360533Y-103901904D01*
X156074819Y-102997142D02*
X156074819Y-102330476D01*
X156074819Y-102330476D02*
X157074819Y-102759047D01*
X120903904Y-104939180D02*
X120903904Y-104129657D01*
X120903904Y-104129657D02*
X120856285Y-104034419D01*
X120856285Y-104034419D02*
X120808666Y-103986800D01*
X120808666Y-103986800D02*
X120713428Y-103939180D01*
X120713428Y-103939180D02*
X120522952Y-103939180D01*
X120522952Y-103939180D02*
X120427714Y-103986800D01*
X120427714Y-103986800D02*
X120380095Y-104034419D01*
X120380095Y-104034419D02*
X120332476Y-104129657D01*
X120332476Y-104129657D02*
X120332476Y-104939180D01*
X119332476Y-103939180D02*
X119903904Y-103939180D01*
X119618190Y-103939180D02*
X119618190Y-104939180D01*
X119618190Y-104939180D02*
X119713428Y-104796323D01*
X119713428Y-104796323D02*
X119808666Y-104701085D01*
X119808666Y-104701085D02*
X119903904Y-104653466D01*
X129823333Y-104759580D02*
X129775714Y-104807200D01*
X129775714Y-104807200D02*
X129632857Y-104854819D01*
X129632857Y-104854819D02*
X129537619Y-104854819D01*
X129537619Y-104854819D02*
X129394762Y-104807200D01*
X129394762Y-104807200D02*
X129299524Y-104711961D01*
X129299524Y-104711961D02*
X129251905Y-104616723D01*
X129251905Y-104616723D02*
X129204286Y-104426247D01*
X129204286Y-104426247D02*
X129204286Y-104283390D01*
X129204286Y-104283390D02*
X129251905Y-104092914D01*
X129251905Y-104092914D02*
X129299524Y-103997676D01*
X129299524Y-103997676D02*
X129394762Y-103902438D01*
X129394762Y-103902438D02*
X129537619Y-103854819D01*
X129537619Y-103854819D02*
X129632857Y-103854819D01*
X129632857Y-103854819D02*
X129775714Y-103902438D01*
X129775714Y-103902438D02*
X129823333Y-103950057D01*
X130156667Y-103854819D02*
X130775714Y-103854819D01*
X130775714Y-103854819D02*
X130442381Y-104235771D01*
X130442381Y-104235771D02*
X130585238Y-104235771D01*
X130585238Y-104235771D02*
X130680476Y-104283390D01*
X130680476Y-104283390D02*
X130728095Y-104331009D01*
X130728095Y-104331009D02*
X130775714Y-104426247D01*
X130775714Y-104426247D02*
X130775714Y-104664342D01*
X130775714Y-104664342D02*
X130728095Y-104759580D01*
X130728095Y-104759580D02*
X130680476Y-104807200D01*
X130680476Y-104807200D02*
X130585238Y-104854819D01*
X130585238Y-104854819D02*
X130299524Y-104854819D01*
X130299524Y-104854819D02*
X130204286Y-104807200D01*
X130204286Y-104807200D02*
X130156667Y-104759580D01*
X124032180Y-95511857D02*
X124079800Y-95559476D01*
X124079800Y-95559476D02*
X124127419Y-95702333D01*
X124127419Y-95702333D02*
X124127419Y-95797571D01*
X124127419Y-95797571D02*
X124079800Y-95940428D01*
X124079800Y-95940428D02*
X123984561Y-96035666D01*
X123984561Y-96035666D02*
X123889323Y-96083285D01*
X123889323Y-96083285D02*
X123698847Y-96130904D01*
X123698847Y-96130904D02*
X123555990Y-96130904D01*
X123555990Y-96130904D02*
X123365514Y-96083285D01*
X123365514Y-96083285D02*
X123270276Y-96035666D01*
X123270276Y-96035666D02*
X123175038Y-95940428D01*
X123175038Y-95940428D02*
X123127419Y-95797571D01*
X123127419Y-95797571D02*
X123127419Y-95702333D01*
X123127419Y-95702333D02*
X123175038Y-95559476D01*
X123175038Y-95559476D02*
X123222657Y-95511857D01*
X124127419Y-94559476D02*
X124127419Y-95130904D01*
X124127419Y-94845190D02*
X123127419Y-94845190D01*
X123127419Y-94845190D02*
X123270276Y-94940428D01*
X123270276Y-94940428D02*
X123365514Y-95035666D01*
X123365514Y-95035666D02*
X123413133Y-95130904D01*
X123460752Y-93702333D02*
X124127419Y-93702333D01*
X123079800Y-93940428D02*
X123794085Y-94178523D01*
X123794085Y-94178523D02*
X123794085Y-93559476D01*
X114651380Y-107433057D02*
X114699000Y-107480676D01*
X114699000Y-107480676D02*
X114746619Y-107623533D01*
X114746619Y-107623533D02*
X114746619Y-107718771D01*
X114746619Y-107718771D02*
X114699000Y-107861628D01*
X114699000Y-107861628D02*
X114603761Y-107956866D01*
X114603761Y-107956866D02*
X114508523Y-108004485D01*
X114508523Y-108004485D02*
X114318047Y-108052104D01*
X114318047Y-108052104D02*
X114175190Y-108052104D01*
X114175190Y-108052104D02*
X113984714Y-108004485D01*
X113984714Y-108004485D02*
X113889476Y-107956866D01*
X113889476Y-107956866D02*
X113794238Y-107861628D01*
X113794238Y-107861628D02*
X113746619Y-107718771D01*
X113746619Y-107718771D02*
X113746619Y-107623533D01*
X113746619Y-107623533D02*
X113794238Y-107480676D01*
X113794238Y-107480676D02*
X113841857Y-107433057D01*
X114746619Y-106480676D02*
X114746619Y-107052104D01*
X114746619Y-106766390D02*
X113746619Y-106766390D01*
X113746619Y-106766390D02*
X113889476Y-106861628D01*
X113889476Y-106861628D02*
X113984714Y-106956866D01*
X113984714Y-106956866D02*
X114032333Y-107052104D01*
X113841857Y-106099723D02*
X113794238Y-106052104D01*
X113794238Y-106052104D02*
X113746619Y-105956866D01*
X113746619Y-105956866D02*
X113746619Y-105718771D01*
X113746619Y-105718771D02*
X113794238Y-105623533D01*
X113794238Y-105623533D02*
X113841857Y-105575914D01*
X113841857Y-105575914D02*
X113937095Y-105528295D01*
X113937095Y-105528295D02*
X114032333Y-105528295D01*
X114032333Y-105528295D02*
X114175190Y-105575914D01*
X114175190Y-105575914D02*
X114746619Y-106147342D01*
X114746619Y-106147342D02*
X114746619Y-105528295D01*
X141623180Y-109791666D02*
X141670800Y-109839285D01*
X141670800Y-109839285D02*
X141718419Y-109982142D01*
X141718419Y-109982142D02*
X141718419Y-110077380D01*
X141718419Y-110077380D02*
X141670800Y-110220237D01*
X141670800Y-110220237D02*
X141575561Y-110315475D01*
X141575561Y-110315475D02*
X141480323Y-110363094D01*
X141480323Y-110363094D02*
X141289847Y-110410713D01*
X141289847Y-110410713D02*
X141146990Y-110410713D01*
X141146990Y-110410713D02*
X140956514Y-110363094D01*
X140956514Y-110363094D02*
X140861276Y-110315475D01*
X140861276Y-110315475D02*
X140766038Y-110220237D01*
X140766038Y-110220237D02*
X140718419Y-110077380D01*
X140718419Y-110077380D02*
X140718419Y-109982142D01*
X140718419Y-109982142D02*
X140766038Y-109839285D01*
X140766038Y-109839285D02*
X140813657Y-109791666D01*
X140718419Y-108934523D02*
X140718419Y-109124999D01*
X140718419Y-109124999D02*
X140766038Y-109220237D01*
X140766038Y-109220237D02*
X140813657Y-109267856D01*
X140813657Y-109267856D02*
X140956514Y-109363094D01*
X140956514Y-109363094D02*
X141146990Y-109410713D01*
X141146990Y-109410713D02*
X141527942Y-109410713D01*
X141527942Y-109410713D02*
X141623180Y-109363094D01*
X141623180Y-109363094D02*
X141670800Y-109315475D01*
X141670800Y-109315475D02*
X141718419Y-109220237D01*
X141718419Y-109220237D02*
X141718419Y-109029761D01*
X141718419Y-109029761D02*
X141670800Y-108934523D01*
X141670800Y-108934523D02*
X141623180Y-108886904D01*
X141623180Y-108886904D02*
X141527942Y-108839285D01*
X141527942Y-108839285D02*
X141289847Y-108839285D01*
X141289847Y-108839285D02*
X141194609Y-108886904D01*
X141194609Y-108886904D02*
X141146990Y-108934523D01*
X141146990Y-108934523D02*
X141099371Y-109029761D01*
X141099371Y-109029761D02*
X141099371Y-109220237D01*
X141099371Y-109220237D02*
X141146990Y-109315475D01*
X141146990Y-109315475D02*
X141194609Y-109363094D01*
X141194609Y-109363094D02*
X141289847Y-109410713D01*
X116152705Y-109917619D02*
X116152705Y-108917619D01*
X116152705Y-108917619D02*
X116390800Y-108917619D01*
X116390800Y-108917619D02*
X116533657Y-108965238D01*
X116533657Y-108965238D02*
X116628895Y-109060476D01*
X116628895Y-109060476D02*
X116676514Y-109155714D01*
X116676514Y-109155714D02*
X116724133Y-109346190D01*
X116724133Y-109346190D02*
X116724133Y-109489047D01*
X116724133Y-109489047D02*
X116676514Y-109679523D01*
X116676514Y-109679523D02*
X116628895Y-109774761D01*
X116628895Y-109774761D02*
X116533657Y-109870000D01*
X116533657Y-109870000D02*
X116390800Y-109917619D01*
X116390800Y-109917619D02*
X116152705Y-109917619D01*
X117676514Y-109917619D02*
X117105086Y-109917619D01*
X117390800Y-109917619D02*
X117390800Y-108917619D01*
X117390800Y-108917619D02*
X117295562Y-109060476D01*
X117295562Y-109060476D02*
X117200324Y-109155714D01*
X117200324Y-109155714D02*
X117105086Y-109203333D01*
X138161733Y-109624019D02*
X137828400Y-109147828D01*
X137590305Y-109624019D02*
X137590305Y-108624019D01*
X137590305Y-108624019D02*
X137971257Y-108624019D01*
X137971257Y-108624019D02*
X138066495Y-108671638D01*
X138066495Y-108671638D02*
X138114114Y-108719257D01*
X138114114Y-108719257D02*
X138161733Y-108814495D01*
X138161733Y-108814495D02*
X138161733Y-108957352D01*
X138161733Y-108957352D02*
X138114114Y-109052590D01*
X138114114Y-109052590D02*
X138066495Y-109100209D01*
X138066495Y-109100209D02*
X137971257Y-109147828D01*
X137971257Y-109147828D02*
X137590305Y-109147828D01*
X139018876Y-108624019D02*
X138828400Y-108624019D01*
X138828400Y-108624019D02*
X138733162Y-108671638D01*
X138733162Y-108671638D02*
X138685543Y-108719257D01*
X138685543Y-108719257D02*
X138590305Y-108862114D01*
X138590305Y-108862114D02*
X138542686Y-109052590D01*
X138542686Y-109052590D02*
X138542686Y-109433542D01*
X138542686Y-109433542D02*
X138590305Y-109528780D01*
X138590305Y-109528780D02*
X138637924Y-109576400D01*
X138637924Y-109576400D02*
X138733162Y-109624019D01*
X138733162Y-109624019D02*
X138923638Y-109624019D01*
X138923638Y-109624019D02*
X139018876Y-109576400D01*
X139018876Y-109576400D02*
X139066495Y-109528780D01*
X139066495Y-109528780D02*
X139114114Y-109433542D01*
X139114114Y-109433542D02*
X139114114Y-109195447D01*
X139114114Y-109195447D02*
X139066495Y-109100209D01*
X139066495Y-109100209D02*
X139018876Y-109052590D01*
X139018876Y-109052590D02*
X138923638Y-109004971D01*
X138923638Y-109004971D02*
X138733162Y-109004971D01*
X138733162Y-109004971D02*
X138637924Y-109052590D01*
X138637924Y-109052590D02*
X138590305Y-109100209D01*
X138590305Y-109100209D02*
X138542686Y-109195447D01*
X112974980Y-107407657D02*
X113022600Y-107455276D01*
X113022600Y-107455276D02*
X113070219Y-107598133D01*
X113070219Y-107598133D02*
X113070219Y-107693371D01*
X113070219Y-107693371D02*
X113022600Y-107836228D01*
X113022600Y-107836228D02*
X112927361Y-107931466D01*
X112927361Y-107931466D02*
X112832123Y-107979085D01*
X112832123Y-107979085D02*
X112641647Y-108026704D01*
X112641647Y-108026704D02*
X112498790Y-108026704D01*
X112498790Y-108026704D02*
X112308314Y-107979085D01*
X112308314Y-107979085D02*
X112213076Y-107931466D01*
X112213076Y-107931466D02*
X112117838Y-107836228D01*
X112117838Y-107836228D02*
X112070219Y-107693371D01*
X112070219Y-107693371D02*
X112070219Y-107598133D01*
X112070219Y-107598133D02*
X112117838Y-107455276D01*
X112117838Y-107455276D02*
X112165457Y-107407657D01*
X113070219Y-106455276D02*
X113070219Y-107026704D01*
X113070219Y-106740990D02*
X112070219Y-106740990D01*
X112070219Y-106740990D02*
X112213076Y-106836228D01*
X112213076Y-106836228D02*
X112308314Y-106931466D01*
X112308314Y-106931466D02*
X112355933Y-107026704D01*
X113070219Y-105502895D02*
X113070219Y-106074323D01*
X113070219Y-105788609D02*
X112070219Y-105788609D01*
X112070219Y-105788609D02*
X112213076Y-105883847D01*
X112213076Y-105883847D02*
X112308314Y-105979085D01*
X112308314Y-105979085D02*
X112355933Y-106074323D01*
X137503333Y-105034819D02*
X137170000Y-104558628D01*
X136931905Y-105034819D02*
X136931905Y-104034819D01*
X136931905Y-104034819D02*
X137312857Y-104034819D01*
X137312857Y-104034819D02*
X137408095Y-104082438D01*
X137408095Y-104082438D02*
X137455714Y-104130057D01*
X137455714Y-104130057D02*
X137503333Y-104225295D01*
X137503333Y-104225295D02*
X137503333Y-104368152D01*
X137503333Y-104368152D02*
X137455714Y-104463390D01*
X137455714Y-104463390D02*
X137408095Y-104511009D01*
X137408095Y-104511009D02*
X137312857Y-104558628D01*
X137312857Y-104558628D02*
X136931905Y-104558628D01*
X138408095Y-104034819D02*
X137931905Y-104034819D01*
X137931905Y-104034819D02*
X137884286Y-104511009D01*
X137884286Y-104511009D02*
X137931905Y-104463390D01*
X137931905Y-104463390D02*
X138027143Y-104415771D01*
X138027143Y-104415771D02*
X138265238Y-104415771D01*
X138265238Y-104415771D02*
X138360476Y-104463390D01*
X138360476Y-104463390D02*
X138408095Y-104511009D01*
X138408095Y-104511009D02*
X138455714Y-104606247D01*
X138455714Y-104606247D02*
X138455714Y-104844342D01*
X138455714Y-104844342D02*
X138408095Y-104939580D01*
X138408095Y-104939580D02*
X138360476Y-104987200D01*
X138360476Y-104987200D02*
X138265238Y-105034819D01*
X138265238Y-105034819D02*
X138027143Y-105034819D01*
X138027143Y-105034819D02*
X137931905Y-104987200D01*
X137931905Y-104987200D02*
X137884286Y-104939580D01*
X151704819Y-110266666D02*
X151228628Y-110599999D01*
X151704819Y-110838094D02*
X150704819Y-110838094D01*
X150704819Y-110838094D02*
X150704819Y-110457142D01*
X150704819Y-110457142D02*
X150752438Y-110361904D01*
X150752438Y-110361904D02*
X150800057Y-110314285D01*
X150800057Y-110314285D02*
X150895295Y-110266666D01*
X150895295Y-110266666D02*
X151038152Y-110266666D01*
X151038152Y-110266666D02*
X151133390Y-110314285D01*
X151133390Y-110314285D02*
X151181009Y-110361904D01*
X151181009Y-110361904D02*
X151228628Y-110457142D01*
X151228628Y-110457142D02*
X151228628Y-110838094D01*
X150704819Y-109933332D02*
X150704819Y-109266666D01*
X150704819Y-109266666D02*
X151704819Y-109695237D01*
X149234819Y-111916666D02*
X148758628Y-112249999D01*
X149234819Y-112488094D02*
X148234819Y-112488094D01*
X148234819Y-112488094D02*
X148234819Y-112107142D01*
X148234819Y-112107142D02*
X148282438Y-112011904D01*
X148282438Y-112011904D02*
X148330057Y-111964285D01*
X148330057Y-111964285D02*
X148425295Y-111916666D01*
X148425295Y-111916666D02*
X148568152Y-111916666D01*
X148568152Y-111916666D02*
X148663390Y-111964285D01*
X148663390Y-111964285D02*
X148711009Y-112011904D01*
X148711009Y-112011904D02*
X148758628Y-112107142D01*
X148758628Y-112107142D02*
X148758628Y-112488094D01*
X148663390Y-111345237D02*
X148615771Y-111440475D01*
X148615771Y-111440475D02*
X148568152Y-111488094D01*
X148568152Y-111488094D02*
X148472914Y-111535713D01*
X148472914Y-111535713D02*
X148425295Y-111535713D01*
X148425295Y-111535713D02*
X148330057Y-111488094D01*
X148330057Y-111488094D02*
X148282438Y-111440475D01*
X148282438Y-111440475D02*
X148234819Y-111345237D01*
X148234819Y-111345237D02*
X148234819Y-111154761D01*
X148234819Y-111154761D02*
X148282438Y-111059523D01*
X148282438Y-111059523D02*
X148330057Y-111011904D01*
X148330057Y-111011904D02*
X148425295Y-110964285D01*
X148425295Y-110964285D02*
X148472914Y-110964285D01*
X148472914Y-110964285D02*
X148568152Y-111011904D01*
X148568152Y-111011904D02*
X148615771Y-111059523D01*
X148615771Y-111059523D02*
X148663390Y-111154761D01*
X148663390Y-111154761D02*
X148663390Y-111345237D01*
X148663390Y-111345237D02*
X148711009Y-111440475D01*
X148711009Y-111440475D02*
X148758628Y-111488094D01*
X148758628Y-111488094D02*
X148853866Y-111535713D01*
X148853866Y-111535713D02*
X149044342Y-111535713D01*
X149044342Y-111535713D02*
X149139580Y-111488094D01*
X149139580Y-111488094D02*
X149187200Y-111440475D01*
X149187200Y-111440475D02*
X149234819Y-111345237D01*
X149234819Y-111345237D02*
X149234819Y-111154761D01*
X149234819Y-111154761D02*
X149187200Y-111059523D01*
X149187200Y-111059523D02*
X149139580Y-111011904D01*
X149139580Y-111011904D02*
X149044342Y-110964285D01*
X149044342Y-110964285D02*
X148853866Y-110964285D01*
X148853866Y-110964285D02*
X148758628Y-111011904D01*
X148758628Y-111011904D02*
X148711009Y-111059523D01*
X148711009Y-111059523D02*
X148663390Y-111154761D01*
X144425180Y-112055066D02*
X144472800Y-112102685D01*
X144472800Y-112102685D02*
X144520419Y-112245542D01*
X144520419Y-112245542D02*
X144520419Y-112340780D01*
X144520419Y-112340780D02*
X144472800Y-112483637D01*
X144472800Y-112483637D02*
X144377561Y-112578875D01*
X144377561Y-112578875D02*
X144282323Y-112626494D01*
X144282323Y-112626494D02*
X144091847Y-112674113D01*
X144091847Y-112674113D02*
X143948990Y-112674113D01*
X143948990Y-112674113D02*
X143758514Y-112626494D01*
X143758514Y-112626494D02*
X143663276Y-112578875D01*
X143663276Y-112578875D02*
X143568038Y-112483637D01*
X143568038Y-112483637D02*
X143520419Y-112340780D01*
X143520419Y-112340780D02*
X143520419Y-112245542D01*
X143520419Y-112245542D02*
X143568038Y-112102685D01*
X143568038Y-112102685D02*
X143615657Y-112055066D01*
X143520419Y-111721732D02*
X143520419Y-111055066D01*
X143520419Y-111055066D02*
X144520419Y-111483637D01*
X133194305Y-96570019D02*
X133194305Y-95570019D01*
X133194305Y-95570019D02*
X133432400Y-95570019D01*
X133432400Y-95570019D02*
X133575257Y-95617638D01*
X133575257Y-95617638D02*
X133670495Y-95712876D01*
X133670495Y-95712876D02*
X133718114Y-95808114D01*
X133718114Y-95808114D02*
X133765733Y-95998590D01*
X133765733Y-95998590D02*
X133765733Y-96141447D01*
X133765733Y-96141447D02*
X133718114Y-96331923D01*
X133718114Y-96331923D02*
X133670495Y-96427161D01*
X133670495Y-96427161D02*
X133575257Y-96522400D01*
X133575257Y-96522400D02*
X133432400Y-96570019D01*
X133432400Y-96570019D02*
X133194305Y-96570019D01*
X134099067Y-95570019D02*
X134718114Y-95570019D01*
X134718114Y-95570019D02*
X134384781Y-95950971D01*
X134384781Y-95950971D02*
X134527638Y-95950971D01*
X134527638Y-95950971D02*
X134622876Y-95998590D01*
X134622876Y-95998590D02*
X134670495Y-96046209D01*
X134670495Y-96046209D02*
X134718114Y-96141447D01*
X134718114Y-96141447D02*
X134718114Y-96379542D01*
X134718114Y-96379542D02*
X134670495Y-96474780D01*
X134670495Y-96474780D02*
X134622876Y-96522400D01*
X134622876Y-96522400D02*
X134527638Y-96570019D01*
X134527638Y-96570019D02*
X134241924Y-96570019D01*
X134241924Y-96570019D02*
X134146686Y-96522400D01*
X134146686Y-96522400D02*
X134099067Y-96474780D01*
X140060180Y-100597357D02*
X140107800Y-100644976D01*
X140107800Y-100644976D02*
X140155419Y-100787833D01*
X140155419Y-100787833D02*
X140155419Y-100883071D01*
X140155419Y-100883071D02*
X140107800Y-101025928D01*
X140107800Y-101025928D02*
X140012561Y-101121166D01*
X140012561Y-101121166D02*
X139917323Y-101168785D01*
X139917323Y-101168785D02*
X139726847Y-101216404D01*
X139726847Y-101216404D02*
X139583990Y-101216404D01*
X139583990Y-101216404D02*
X139393514Y-101168785D01*
X139393514Y-101168785D02*
X139298276Y-101121166D01*
X139298276Y-101121166D02*
X139203038Y-101025928D01*
X139203038Y-101025928D02*
X139155419Y-100883071D01*
X139155419Y-100883071D02*
X139155419Y-100787833D01*
X139155419Y-100787833D02*
X139203038Y-100644976D01*
X139203038Y-100644976D02*
X139250657Y-100597357D01*
X140155419Y-99644976D02*
X140155419Y-100216404D01*
X140155419Y-99930690D02*
X139155419Y-99930690D01*
X139155419Y-99930690D02*
X139298276Y-100025928D01*
X139298276Y-100025928D02*
X139393514Y-100121166D01*
X139393514Y-100121166D02*
X139441133Y-100216404D01*
X139155419Y-98740214D02*
X139155419Y-99216404D01*
X139155419Y-99216404D02*
X139631609Y-99264023D01*
X139631609Y-99264023D02*
X139583990Y-99216404D01*
X139583990Y-99216404D02*
X139536371Y-99121166D01*
X139536371Y-99121166D02*
X139536371Y-98883071D01*
X139536371Y-98883071D02*
X139583990Y-98787833D01*
X139583990Y-98787833D02*
X139631609Y-98740214D01*
X139631609Y-98740214D02*
X139726847Y-98692595D01*
X139726847Y-98692595D02*
X139964942Y-98692595D01*
X139964942Y-98692595D02*
X140060180Y-98740214D01*
X140060180Y-98740214D02*
X140107800Y-98787833D01*
X140107800Y-98787833D02*
X140155419Y-98883071D01*
X140155419Y-98883071D02*
X140155419Y-99121166D01*
X140155419Y-99121166D02*
X140107800Y-99216404D01*
X140107800Y-99216404D02*
X140060180Y-99264023D01*
D12*
%TO.C,C5*%
X135294200Y-105450767D02*
X135294200Y-105158233D01*
X136314200Y-105450767D02*
X136314200Y-105158233D01*
%TO.C,C1*%
X118831400Y-110789000D02*
X118831400Y-114884000D01*
X120741400Y-110789000D02*
X118831400Y-110789000D01*
X120741400Y-114884000D02*
X120741400Y-110789000D01*
%TO.C,C18*%
X150690000Y-103341233D02*
X150690000Y-103633767D01*
X151710000Y-103341233D02*
X151710000Y-103633767D01*
%TO.C,R1*%
X129187500Y-100574724D02*
X129187500Y-100065276D01*
X130232500Y-100574724D02*
X130232500Y-100065276D01*
%TO.C,R2*%
X126940276Y-100705100D02*
X127449724Y-100705100D01*
X126940276Y-101750100D02*
X127449724Y-101750100D01*
%TO.C,C9*%
X154578267Y-105966800D02*
X154285733Y-105966800D01*
X154578267Y-106986800D02*
X154285733Y-106986800D01*
%TO.C,J2*%
D11*
X135839600Y-77261000D02*
X151841600Y-77261000D01*
X151841600Y-92882000D01*
X135839600Y-92882000D01*
X135839600Y-77261000D01*
D12*
%TO.C,C16*%
X140830000Y-103303733D02*
X140830000Y-103596267D01*
X141850000Y-103303733D02*
X141850000Y-103596267D01*
%TO.C,C8*%
X146240000Y-108953733D02*
X146240000Y-109246267D01*
X147260000Y-108953733D02*
X147260000Y-109246267D01*
%TO.C,C2*%
X130667800Y-111785600D02*
X130667800Y-115880600D01*
X130667800Y-115880600D02*
X132577800Y-115880600D01*
X132577800Y-115880600D02*
X132577800Y-111785600D01*
%TO.C,D2*%
X132868400Y-110485200D02*
X132868400Y-115995200D01*
X136168400Y-110485200D02*
X132868400Y-110485200D01*
X136168400Y-110485200D02*
X136168400Y-115995200D01*
D13*
%TO.C,U2*%
X144209400Y-107163500D02*
X148476600Y-107163500D01*
X148476600Y-98146500D02*
X144209400Y-98146500D01*
D14*
G36*
X150305400Y-104115500D02*
G01*
X150051400Y-104115500D01*
X150051400Y-103734500D01*
X150305400Y-103734500D01*
X150305400Y-104115500D01*
G37*
D12*
%TO.C,R3*%
X126940276Y-102432300D02*
X127449724Y-102432300D01*
X126940276Y-103477300D02*
X127449724Y-103477300D01*
%TO.C,C10*%
X154284633Y-100531200D02*
X154577167Y-100531200D01*
X154284633Y-101551200D02*
X154577167Y-101551200D01*
%TO.C,C13*%
X124559600Y-98139467D02*
X124559600Y-97846933D01*
X125579600Y-98139467D02*
X125579600Y-97846933D01*
%TO.C,J1*%
D11*
X116839600Y-77261000D02*
X132841600Y-77261000D01*
X132841600Y-92882000D01*
X116839600Y-92882000D01*
X116839600Y-77261000D01*
D12*
%TO.C,R4*%
X135146424Y-107202500D02*
X134636976Y-107202500D01*
X135146424Y-108247500D02*
X134636976Y-108247500D01*
%TO.C,R9*%
X154635924Y-97127500D02*
X154126476Y-97127500D01*
X154635924Y-98172500D02*
X154126476Y-98172500D01*
D11*
%TO.C,J3*%
X121730000Y-118144000D02*
X121730000Y-110444000D01*
X129730000Y-110444000D02*
X121730000Y-110444000D01*
X129730000Y-110444000D02*
X129730000Y-118144000D01*
X129730000Y-118144000D02*
X121730000Y-118144000D01*
D12*
%TO.C,C4*%
X124094200Y-101944933D02*
X124094200Y-102237467D01*
X125114200Y-101944933D02*
X125114200Y-102237467D01*
%TO.C,R10*%
X151527500Y-99882776D02*
X151527500Y-100392224D01*
X152572500Y-99882776D02*
X152572500Y-100392224D01*
%TO.C,C17*%
X152190000Y-103341233D02*
X152190000Y-103633767D01*
X153210000Y-103341233D02*
X153210000Y-103633767D01*
D13*
%TO.C,U1*%
X116742900Y-103373900D02*
X120984700Y-103373900D01*
X120984700Y-98116100D02*
X116742900Y-98116100D01*
D12*
%TO.C,C3*%
X130433733Y-102460000D02*
X130726267Y-102460000D01*
X130433733Y-103480000D02*
X130726267Y-103480000D01*
%TO.C,C14*%
X123035600Y-98139467D02*
X123035600Y-97846933D01*
X124055600Y-98139467D02*
X124055600Y-97846933D01*
%TO.C,C12*%
X113705600Y-103367333D02*
X113705600Y-103659867D01*
X114725600Y-103367333D02*
X114725600Y-103659867D01*
%TO.C,C6*%
X140353600Y-106716233D02*
X140353600Y-107008767D01*
X141373600Y-106716233D02*
X141373600Y-107008767D01*
%TO.C,D1*%
X115240800Y-117352800D02*
X115240800Y-111842800D01*
X115240800Y-117352800D02*
X118540800Y-117352800D01*
X118540800Y-117352800D02*
X118540800Y-111842800D01*
%TO.C,R6*%
X138546424Y-107202500D02*
X138036976Y-107202500D01*
X138546424Y-108247500D02*
X138036976Y-108247500D01*
%TO.C,C11*%
X112105400Y-103367333D02*
X112105400Y-103659867D01*
X113125400Y-103367333D02*
X113125400Y-103659867D01*
%TO.C,R5*%
X138558924Y-105502500D02*
X138049476Y-105502500D01*
X138558924Y-106547500D02*
X138049476Y-106547500D01*
%TO.C,R7*%
X150577500Y-107654724D02*
X150577500Y-107145276D01*
X151622500Y-107654724D02*
X151622500Y-107145276D01*
%TO.C,R8*%
X148157500Y-109404724D02*
X148157500Y-108895276D01*
X149202500Y-109404724D02*
X149202500Y-108895276D01*
%TO.C,C7*%
X143355600Y-109264667D02*
X143355600Y-108972133D01*
X144375600Y-109264667D02*
X144375600Y-108972133D01*
%TO.C,D3*%
X142092400Y-94565200D02*
X136582400Y-94565200D01*
X142092400Y-97865200D02*
X136582400Y-97865200D01*
X142092400Y-97865200D02*
X142092400Y-94565200D01*
%TO.C,C15*%
X139150000Y-103303733D02*
X139150000Y-103596267D01*
X140170000Y-103303733D02*
X140170000Y-103596267D01*
%TD*%
M02*
