%TF.GenerationSoftware,KiCad,Pcbnew,9.0.6*%
%TF.CreationDate,2026-07-27T22:04:20-05:00*%
%TF.ProjectId,8thOrderBandpassFilter,3874684f-7264-4657-9242-616e64706173,1.0*%
%TF.SameCoordinates,Original*%
%TF.FileFunction,Copper,L3,Inr*%
%TF.FilePolarity,Positive*%
%FSLAX46Y46*%
G04 Gerber Fmt 4.6, Leading zero omitted, Abs format (unit mm)*
G04 Created by KiCad (PCBNEW 9.0.6) date 2026-07-27 22:04:20*
%MOMM*%
%LPD*%
G01*
G04 APERTURE LIST*
%TA.AperFunction,ComponentPad*%
%ADD10C,1.300000*%
%TD*%
%TA.AperFunction,ComponentPad*%
%ADD11C,2.400000*%
%TD*%
%TA.AperFunction,ComponentPad*%
%ADD12C,1.100000*%
%TD*%
%TA.AperFunction,ViaPad*%
%ADD13C,0.600000*%
%TD*%
%TA.AperFunction,Conductor*%
%ADD14C,1.000000*%
%TD*%
G04 APERTURE END LIST*
D10*
%TO.N,/Output Signal*%
%TO.C,J2*%
X143840600Y-90342000D03*
%TO.N,GND*%
X141300600Y-90342000D03*
D11*
X138760600Y-85262000D03*
X148920600Y-85262000D03*
%TD*%
D10*
%TO.N,/Input Signal*%
%TO.C,J1*%
X124840600Y-90342000D03*
%TO.N,GND*%
X122300600Y-90342000D03*
D11*
X119760600Y-85262000D03*
X129920600Y-85262000D03*
%TD*%
D12*
%TO.N,-12V*%
%TO.C,J3*%
X127730000Y-112004000D03*
%TO.N,GND*%
X125730000Y-112004000D03*
%TO.N,+12V*%
X123730000Y-112004000D03*
%TD*%
D13*
%TO.N,GND*%
X148720000Y-111190000D03*
X149900000Y-109230000D03*
X149950000Y-110070000D03*
X109820000Y-114900000D03*
X133940000Y-80910000D03*
X113120000Y-113320000D03*
X128310000Y-99700000D03*
X143630000Y-83350000D03*
X160570000Y-101500000D03*
X146910000Y-97030000D03*
X155860000Y-108030000D03*
X141240000Y-93450000D03*
X154000000Y-104320000D03*
X150800000Y-99480000D03*
X147510000Y-116890000D03*
X112600000Y-109510000D03*
X142280000Y-109200000D03*
X144900000Y-79440000D03*
X157340000Y-116760000D03*
X157790000Y-94380000D03*
X108440000Y-111330000D03*
X126370000Y-97070000D03*
X109020000Y-79780000D03*
X145430000Y-107690000D03*
X125370000Y-106250000D03*
X134440000Y-79160000D03*
X141720000Y-110740000D03*
X148720000Y-79880000D03*
X122310000Y-97030000D03*
X108130000Y-101020000D03*
X110640000Y-110810000D03*
X142840000Y-116890000D03*
X113670000Y-90880000D03*
X119570000Y-80360000D03*
X134240000Y-104000000D03*
X155450000Y-116790000D03*
X154070000Y-99670000D03*
X115280000Y-115940000D03*
X111810000Y-79400000D03*
X122610000Y-105540000D03*
X110190000Y-108100000D03*
X160400000Y-86820000D03*
X108270000Y-113560000D03*
X159510000Y-116690000D03*
X108400000Y-89200000D03*
X108400000Y-87750000D03*
X132410000Y-106640000D03*
X136850000Y-98390000D03*
X131560000Y-116280000D03*
X125710000Y-92580000D03*
X111640000Y-86720000D03*
X123230000Y-100180000D03*
X108240000Y-99370000D03*
X153990000Y-105070000D03*
X124110000Y-80160000D03*
X108650000Y-94180000D03*
X128580000Y-105900000D03*
X136060000Y-115250000D03*
X119740000Y-116170000D03*
X126940000Y-107820000D03*
X160540000Y-99950000D03*
X140160000Y-116830000D03*
X160130000Y-115110000D03*
X153370000Y-99230000D03*
X152020000Y-105390000D03*
X112840000Y-98110000D03*
X128050000Y-98480000D03*
X136080000Y-116990000D03*
X158030000Y-79400000D03*
X108370000Y-91190000D03*
X145670000Y-103800000D03*
X142530000Y-92190000D03*
X128040000Y-105300000D03*
X118130000Y-93980000D03*
X136090000Y-116240000D03*
X149230000Y-117000000D03*
X135810000Y-102890000D03*
X115480000Y-105160000D03*
X160500000Y-79190000D03*
X134180000Y-95050000D03*
X113820000Y-99880000D03*
X108130000Y-84180000D03*
X131170000Y-106600000D03*
X108540000Y-96550000D03*
X148680000Y-91220000D03*
X108100000Y-115350000D03*
X116110000Y-91890000D03*
X115660000Y-79470000D03*
X158100000Y-114450000D03*
X137620000Y-103680000D03*
X111290000Y-116650000D03*
X160470000Y-103250000D03*
X126510000Y-115380000D03*
X153730000Y-116930000D03*
X129180000Y-108900000D03*
X155310000Y-79440000D03*
X111050000Y-83250000D03*
X145310000Y-108630000D03*
X108200000Y-104900000D03*
X160540000Y-107990000D03*
X160540000Y-110230000D03*
X115680000Y-97280000D03*
X136470000Y-93810000D03*
X108370000Y-109270000D03*
X131190000Y-79680000D03*
X160470000Y-90260000D03*
X142400000Y-103950000D03*
X160370000Y-92870000D03*
X145220000Y-92100000D03*
X132950000Y-105260000D03*
X145520000Y-93560000D03*
X160500000Y-94520000D03*
X119660000Y-91570000D03*
X140350000Y-79250000D03*
X148960000Y-94830000D03*
X160470000Y-112190000D03*
X152980000Y-90880000D03*
X160020000Y-80470000D03*
X108340000Y-116480000D03*
X153360000Y-79160000D03*
X145000000Y-95900000D03*
X129090000Y-89500000D03*
X152780000Y-108130000D03*
X112810000Y-95800000D03*
X118200000Y-89440000D03*
X150700000Y-98870000D03*
X153180000Y-80190000D03*
X108240000Y-107140000D03*
X114830000Y-92870000D03*
X156140000Y-83460000D03*
X160300000Y-88540000D03*
X160570000Y-97680000D03*
X160300000Y-82180000D03*
X154020000Y-109670000D03*
X145660000Y-105780000D03*
X160500000Y-84560000D03*
X113530000Y-94120000D03*
X148650000Y-88820000D03*
X113630000Y-116830000D03*
X108130000Y-102980000D03*
X119700000Y-93980000D03*
X157070000Y-89330000D03*
X127170000Y-99810000D03*
X153080000Y-82010000D03*
X113080000Y-84690000D03*
X115670000Y-95990000D03*
X125240000Y-86410000D03*
X134110000Y-86510000D03*
X144350000Y-85520000D03*
X110710000Y-99540000D03*
X126290000Y-107140000D03*
X146470000Y-102640000D03*
X134280000Y-90810000D03*
X132210000Y-116740000D03*
X111040000Y-104340000D03*
X138170000Y-88680000D03*
X116710000Y-94860000D03*
X145420000Y-116860000D03*
X153250000Y-88510000D03*
X127400000Y-104510000D03*
X112470000Y-106080000D03*
X124610000Y-116500000D03*
X137480000Y-116830000D03*
X146040000Y-99530000D03*
X114220000Y-105990000D03*
X111940000Y-89200000D03*
X137820000Y-80600000D03*
X160500000Y-105620000D03*
X151160000Y-116890000D03*
X156430000Y-105270000D03*
%TO.N,+12V*%
X137740000Y-101940000D03*
X116382800Y-104394000D03*
X121259600Y-111861600D03*
%TO.N,-12V*%
X129946400Y-111912400D03*
X126390400Y-98501200D03*
X154076400Y-102616000D03*
%TD*%
D14*
%TO.N,+12V*%
X118973600Y-96469200D02*
X118973600Y-106984800D01*
X118973600Y-106984800D02*
X119481600Y-107492800D01*
X130186400Y-94386400D02*
X121056400Y-94386400D01*
X121564400Y-107492800D02*
X123730000Y-109658400D01*
X123730000Y-109658400D02*
X123730000Y-112004000D01*
X123587600Y-111861600D02*
X123730000Y-112004000D01*
X121056400Y-94386400D02*
X118973600Y-96469200D01*
X121259600Y-111861600D02*
X123587600Y-111861600D01*
X116382800Y-104394000D02*
X118973600Y-106984800D01*
X119481600Y-107492800D02*
X121564400Y-107492800D01*
X137740000Y-101940000D02*
X130186400Y-94386400D01*
%TO.N,-12V*%
X155244800Y-113741200D02*
X141274800Y-113741200D01*
X127730000Y-108439200D02*
X127730000Y-112004000D01*
X129946400Y-111912400D02*
X127821600Y-111912400D01*
X132232400Y-103936800D02*
X127730000Y-108439200D01*
X158242000Y-110744000D02*
X155244800Y-113741200D01*
X127821600Y-111912400D02*
X127730000Y-112004000D01*
X132232400Y-99009200D02*
X132232400Y-103936800D01*
X130556000Y-97332800D02*
X132232400Y-99009200D01*
X155956000Y-102616000D02*
X158242000Y-104902000D01*
X137160000Y-109626400D02*
X130107600Y-109626400D01*
X158242000Y-104902000D02*
X158242000Y-110744000D01*
X127558800Y-97332800D02*
X130556000Y-97332800D01*
X126390400Y-98501200D02*
X127558800Y-97332800D01*
X141274800Y-113741200D02*
X137160000Y-109626400D01*
X154076400Y-102616000D02*
X155956000Y-102616000D01*
X130107600Y-109626400D02*
X127821600Y-111912400D01*
%TD*%
M02*
