%TF.GenerationSoftware,KiCad,Pcbnew,9.0.6*%
%TF.CreationDate,2026-07-27T22:04:20-05:00*%
%TF.ProjectId,8thOrderBandpassFilter,3874684f-7264-4657-9242-616e64706173,1.0*%
%TF.SameCoordinates,Original*%
%TF.FileFunction,Paste,Top*%
%TF.FilePolarity,Positive*%
%FSLAX46Y46*%
G04 Gerber Fmt 4.6, Leading zero omitted, Abs format (unit mm)*
G04 Created by KiCad (PCBNEW 9.0.6) date 2026-07-27 22:04:20*
%MOMM*%
%LPD*%
G01*
G04 APERTURE LIST*
G04 Aperture macros list*
%AMRoundRect*
0 Rectangle with rounded corners*
0 $1 Rounding radius*
0 $2 $3 $4 $5 $6 $7 $8 $9 X,Y pos of 4 corners*
0 Add a 4 corners polygon primitive as box body*
4,1,4,$2,$3,$4,$5,$6,$7,$8,$9,$2,$3,0*
0 Add four circle primitives for the rounded corners*
1,1,$1+$1,$2,$3*
1,1,$1+$1,$4,$5*
1,1,$1+$1,$6,$7*
1,1,$1+$1,$8,$9*
0 Add four rect primitives between the rounded corners*
20,1,$1+$1,$2,$3,$4,$5,0*
20,1,$1+$1,$4,$5,$6,$7,0*
20,1,$1+$1,$6,$7,$8,$9,0*
20,1,$1+$1,$8,$9,$2,$3,0*%
G04 Aperture macros list end*
%ADD10RoundRect,0.237500X0.237500X-0.300000X0.237500X0.300000X-0.237500X0.300000X-0.237500X-0.300000X0*%
%ADD11RoundRect,0.250000X-0.445000X0.545000X-0.445000X-0.545000X0.445000X-0.545000X0.445000X0.545000X0*%
%ADD12RoundRect,0.237500X-0.237500X0.300000X-0.237500X-0.300000X0.237500X-0.300000X0.237500X0.300000X0*%
%ADD13RoundRect,0.237500X0.237500X-0.250000X0.237500X0.250000X-0.237500X0.250000X-0.237500X-0.250000X0*%
%ADD14RoundRect,0.237500X-0.250000X-0.237500X0.250000X-0.237500X0.250000X0.237500X-0.250000X0.237500X0*%
%ADD15RoundRect,0.237500X0.300000X0.237500X-0.300000X0.237500X-0.300000X-0.237500X0.300000X-0.237500X0*%
%ADD16RoundRect,0.250000X0.445000X-0.545000X0.445000X0.545000X-0.445000X0.545000X-0.445000X-0.545000X0*%
%ADD17RoundRect,0.250000X-0.650000X1.000000X-0.650000X-1.000000X0.650000X-1.000000X0.650000X1.000000X0*%
%ADD18R,1.981200X0.558800*%
%ADD19RoundRect,0.237500X-0.300000X-0.237500X0.300000X-0.237500X0.300000X0.237500X-0.300000X0.237500X0*%
%ADD20RoundRect,0.237500X0.250000X0.237500X-0.250000X0.237500X-0.250000X-0.237500X0.250000X-0.237500X0*%
%ADD21RoundRect,0.237500X-0.237500X0.250000X-0.237500X-0.250000X0.237500X-0.250000X0.237500X0.250000X0*%
%ADD22RoundRect,0.250000X0.650000X-1.000000X0.650000X1.000000X-0.650000X1.000000X-0.650000X-1.000000X0*%
%ADD23RoundRect,0.250000X1.000000X0.650000X-1.000000X0.650000X-1.000000X-0.650000X1.000000X-0.650000X0*%
G04 APERTURE END LIST*
D10*
%TO.C,C5*%
X135804200Y-106167000D03*
X135804200Y-104442000D03*
%TD*%
D11*
%TO.C,C1*%
X119786400Y-111844000D03*
X119786400Y-114724000D03*
%TD*%
D12*
%TO.C,C18*%
X151200000Y-102625000D03*
X151200000Y-104350000D03*
%TD*%
D13*
%TO.C,R1*%
X129710000Y-101232500D03*
X129710000Y-99407500D03*
%TD*%
D14*
%TO.C,R2*%
X126282500Y-101227600D03*
X128107500Y-101227600D03*
%TD*%
D15*
%TO.C,C9*%
X155294500Y-106476800D03*
X153569500Y-106476800D03*
%TD*%
D12*
%TO.C,C16*%
X141340000Y-102587500D03*
X141340000Y-104312500D03*
%TD*%
%TO.C,C8*%
X146750000Y-108237500D03*
X146750000Y-109962500D03*
%TD*%
D16*
%TO.C,C2*%
X131622800Y-114825600D03*
X131622800Y-111945600D03*
%TD*%
D17*
%TO.C,D2*%
X134518400Y-111995200D03*
X134518400Y-115995200D03*
%TD*%
D18*
%TO.C,U2*%
X143879200Y-98845000D03*
X143879200Y-100115000D03*
X143879200Y-101385000D03*
X143879200Y-102655000D03*
X143879200Y-103925000D03*
X143879200Y-105195000D03*
X143879200Y-106465000D03*
X148806800Y-106465000D03*
X148806800Y-105195000D03*
X148806800Y-103925000D03*
X148806800Y-102655000D03*
X148806800Y-101385000D03*
X148806800Y-100115000D03*
X148806800Y-98845000D03*
%TD*%
D14*
%TO.C,R3*%
X126282500Y-102954800D03*
X128107500Y-102954800D03*
%TD*%
D19*
%TO.C,C10*%
X153568400Y-101041200D03*
X155293400Y-101041200D03*
%TD*%
D10*
%TO.C,C13*%
X125069600Y-98855700D03*
X125069600Y-97130700D03*
%TD*%
D20*
%TO.C,R4*%
X135804200Y-107725000D03*
X133979200Y-107725000D03*
%TD*%
%TO.C,R9*%
X155293700Y-97650000D03*
X153468700Y-97650000D03*
%TD*%
D12*
%TO.C,C4*%
X124604200Y-101228700D03*
X124604200Y-102953700D03*
%TD*%
D21*
%TO.C,R10*%
X152050000Y-99225000D03*
X152050000Y-101050000D03*
%TD*%
D12*
%TO.C,C17*%
X152700000Y-102625000D03*
X152700000Y-104350000D03*
%TD*%
D18*
%TO.C,U1*%
X121327600Y-102650000D03*
X121327600Y-101380000D03*
X121327600Y-100110000D03*
X121327600Y-98840000D03*
X116400000Y-98840000D03*
X116400000Y-100110000D03*
X116400000Y-101380000D03*
X116400000Y-102650000D03*
%TD*%
D19*
%TO.C,C3*%
X129717500Y-102970000D03*
X131442500Y-102970000D03*
%TD*%
D10*
%TO.C,C14*%
X123545600Y-98855700D03*
X123545600Y-97130700D03*
%TD*%
D12*
%TO.C,C12*%
X114215600Y-102651100D03*
X114215600Y-104376100D03*
%TD*%
%TO.C,C6*%
X140863600Y-106000000D03*
X140863600Y-107725000D03*
%TD*%
D22*
%TO.C,D1*%
X116890800Y-115842800D03*
X116890800Y-111842800D03*
%TD*%
D20*
%TO.C,R6*%
X139204200Y-107725000D03*
X137379200Y-107725000D03*
%TD*%
D12*
%TO.C,C11*%
X112615400Y-102651100D03*
X112615400Y-104376100D03*
%TD*%
D20*
%TO.C,R5*%
X139216700Y-106025000D03*
X137391700Y-106025000D03*
%TD*%
D13*
%TO.C,R7*%
X151100000Y-108312500D03*
X151100000Y-106487500D03*
%TD*%
%TO.C,R8*%
X148680000Y-110062500D03*
X148680000Y-108237500D03*
%TD*%
D10*
%TO.C,C7*%
X143865600Y-109980900D03*
X143865600Y-108255900D03*
%TD*%
D23*
%TO.C,D3*%
X140582400Y-96215200D03*
X136582400Y-96215200D03*
%TD*%
D12*
%TO.C,C15*%
X139660000Y-102587500D03*
X139660000Y-104312500D03*
%TD*%
M02*
