M48
; DRILL file {KiCad 9.0.6} date 2026-07-27T22:04:35-0500
; FORMAT={-:-/ absolute / metric / decimal}
; #@! TF.CreationDate,2026-07-27T22:04:35-05:00
; #@! TF.GenerationSoftware,Kicad,Pcbnew,9.0.6
; #@! TF.FileFunction,Plated,1,4,PTH
FMAT,2
METRIC
; #@! TA.AperFunction,Plated,PTH,ViaDrill
T1C0.300
; #@! TA.AperFunction,Plated,PTH,ComponentDrill
T2C0.800
; #@! TA.AperFunction,Plated,PTH,ComponentDrill
T3C0.900
; #@! TA.AperFunction,Plated,PTH,ComponentDrill
T4C2.000
%
G90
G05
T1
X108.1Y-115.35
X108.13Y-84.18
X108.13Y-101.02
X108.13Y-102.98
X108.2Y-104.9
X108.24Y-99.37
X108.24Y-107.14
X108.27Y-113.56
X108.34Y-116.48
X108.37Y-91.19
X108.37Y-109.27
X108.4Y-87.75
X108.4Y-89.2
X108.44Y-111.33
X108.54Y-96.55
X108.65Y-94.18
X109.02Y-79.78
X109.82Y-114.9
X110.19Y-108.1
X110.64Y-110.81
X110.71Y-99.54
X111.04Y-104.34
X111.05Y-83.25
X111.29Y-116.65
X111.64Y-86.72
X111.81Y-79.4
X111.94Y-89.2
X112.47Y-106.08
X112.6Y-109.51
X112.81Y-95.8
X112.84Y-98.11
X113.08Y-84.69
X113.12Y-113.32
X113.53Y-94.12
X113.63Y-116.83
X113.67Y-90.88
X113.82Y-99.88
X114.22Y-105.99
X114.83Y-92.87
X115.28Y-115.94
X115.48Y-105.16
X115.66Y-79.47
X115.67Y-95.99
X115.68Y-97.28
X116.11Y-91.89
X116.383Y-104.394
X116.71Y-94.86
X118.13Y-93.98
X118.2Y-89.44
X119.57Y-80.36
X119.66Y-91.57
X119.7Y-93.98
X119.74Y-116.17
X121.26Y-111.862
X122.31Y-97.03
X122.61Y-105.54
X123.23Y-100.18
X124.11Y-80.16
X124.61Y-116.5
X125.24Y-86.41
X125.37Y-106.25
X125.71Y-92.58
X126.29Y-107.14
X126.37Y-97.07
X126.39Y-98.501
X126.51Y-115.38
X126.94Y-107.82
X127.17Y-99.81
X127.4Y-104.51
X128.04Y-105.3
X128.05Y-98.48
X128.31Y-99.7
X128.58Y-105.9
X129.09Y-89.5
X129.18Y-108.9
X129.946Y-111.912
X131.17Y-106.6
X131.19Y-79.68
X131.56Y-116.28
X132.21Y-116.74
X132.41Y-106.64
X132.95Y-105.26
X133.94Y-80.91
X134.11Y-86.51
X134.18Y-95.05
X134.24Y-104.0
X134.28Y-90.81
X134.44Y-79.16
X135.81Y-102.89
X136.06Y-115.25
X136.08Y-116.99
X136.09Y-116.24
X136.47Y-93.81
X136.85Y-98.39
X137.48Y-116.83
X137.62Y-103.68
X137.74Y-101.94
X137.82Y-80.6
X138.17Y-88.68
X140.16Y-116.83
X140.35Y-79.25
X141.24Y-93.45
X141.72Y-110.74
X142.28Y-109.2
X142.4Y-103.95
X142.53Y-92.19
X142.84Y-116.89
X143.63Y-83.35
X144.35Y-85.52
X144.9Y-79.44
X145.0Y-95.9
X145.22Y-92.1
X145.31Y-108.63
X145.42Y-116.86
X145.43Y-107.69
X145.52Y-93.56
X145.66Y-105.78
X145.67Y-103.8
X146.04Y-99.53
X146.47Y-102.64
X146.91Y-97.03
X147.51Y-116.89
X148.65Y-88.82
X148.68Y-91.22
X148.72Y-79.88
X148.72Y-111.19
X148.96Y-94.83
X149.23Y-117.0
X149.9Y-109.23
X149.95Y-110.07
X150.7Y-98.87
X150.8Y-99.48
X151.16Y-116.89
X152.02Y-105.39
X152.78Y-108.13
X152.98Y-90.88
X153.08Y-82.01
X153.18Y-80.19
X153.25Y-88.51
X153.36Y-79.16
X153.37Y-99.23
X153.73Y-116.93
X153.99Y-105.07
X154.0Y-104.32
X154.02Y-109.67
X154.07Y-99.67
X154.076Y-102.616
X155.31Y-79.44
X155.45Y-116.79
X155.86Y-108.03
X156.14Y-83.46
X156.43Y-105.27
X157.07Y-89.33
X157.34Y-116.76
X157.79Y-94.38
X158.03Y-79.4
X158.1Y-114.45
X159.51Y-116.69
X160.02Y-80.47
X160.13Y-115.11
X160.3Y-82.18
X160.3Y-88.54
X160.37Y-92.87
X160.4Y-86.82
X160.47Y-90.26
X160.47Y-103.25
X160.47Y-112.19
X160.5Y-79.19
X160.5Y-84.56
X160.5Y-94.52
X160.5Y-105.62
X160.54Y-99.95
X160.54Y-107.99
X160.54Y-110.23
X160.57Y-97.68
X160.57Y-101.5
T2
X123.73Y-112.004
X125.73Y-112.004
X127.73Y-112.004
T3
X122.301Y-90.342
X124.841Y-90.342
X141.301Y-90.342
X143.841Y-90.342
T4
X119.761Y-85.262
X129.921Y-85.262
X138.761Y-85.262
X148.921Y-85.262
M30
