ISO-10303-21;
HEADER;
FILE_DESCRIPTION (( 'STEP AP214' ),
    '1' );
FILE_NAME ('575-8.STEP',
    '2023-01-19T03:47:05',
    ( '' ),
    ( '' ),
    'SwSTEP 2.0',
    'SolidWorks 2021',
    '' );
FILE_SCHEMA (( 'AUTOMOTIVE_DESIGN' ));
ENDSEC;

DATA;
#1 = VERTEX_POINT ( 'NONE', #115 ) ;
#2 = ORIENTED_EDGE ( 'NONE', *, *, #17, .T. ) ;
#3 = DIRECTION ( 'NONE',  ( 0.000000000000000000, 0.000000000000000000, 1.000000000000000000 ) ) ;
#4 = EDGE_LOOP ( 'NONE', ( #295, #78 ) ) ;
#5 = EDGE_CURVE ( 'NONE', #25, #241, #65, .T. ) ;
#6 = CONICAL_SURFACE ( 'NONE', #218, 0.08250000000000000389, 0.5235987755982969283 ) ;
#7 = DIRECTION ( 'NONE',  ( -0.000000000000000000, -1.000000000000000000, -0.000000000000000000 ) ) ;
#8 = DIRECTION ( 'NONE',  ( 0.000000000000000000, 0.000000000000000000, 1.000000000000000000 ) ) ;
#9 = FACE_BOUND ( 'NONE', #298, .T. ) ;
#10 = FACE_OUTER_BOUND ( 'NONE', #216, .T. ) ;
#11 = EDGE_CURVE ( 'NONE', #247, #25, #301, .T. ) ;
#12 = DIRECTION ( 'NONE',  ( -0.000000000000000000, -1.000000000000000000, -0.000000000000000000 ) ) ;
#13 = DIRECTION ( 'NONE',  ( 0.000000000000000000, -0.000000000000000000, -1.000000000000000000 ) ) ;
#14 = DIRECTION ( 'NONE',  ( 0.000000000000000000, 0.000000000000000000, -1.000000000000000000 ) ) ;
#15 = PLANE ( 'NONE',  #231 ) ;
#16 = UNCERTAINTY_MEASURE_WITH_UNIT (LENGTH_MEASURE( 1.000000000000000082E-05 ), #21, 'distance_accuracy_value', 'NONE');
#17 = EDGE_CURVE ( 'NONE', #192, #330, #49, .T. ) ;
#18 = DIRECTION ( 'NONE',  ( -0.000000000000000000, -1.000000000000000000, -0.000000000000000000 ) ) ;
#19 = VECTOR ( 'NONE', #7, 39.37007874015748143 ) ;
#20 = AXIS2_PLACEMENT_3D ( 'NONE', #204, #287, #155 ) ;
#21 =( CONVERSION_BASED_UNIT ( 'INCH', #194 ) LENGTH_UNIT ( ) NAMED_UNIT ( #213 ) );
#22 = ORIENTED_EDGE ( 'NONE', *, *, #17, .F. ) ;
#23 =( LENGTH_UNIT ( ) NAMED_UNIT ( * ) SI_UNIT ( $, .METRE. ) );
#24 = VERTEX_POINT ( 'NONE', #255 ) ;
#25 = VERTEX_POINT ( 'NONE', #337 ) ;
#26 = EDGE_LOOP ( 'NONE', ( #44, #272, #162, #224 ) ) ;
#27 = ADVANCED_BREP_SHAPE_REPRESENTATION ( '575-8', ( #306, #312 ), #83 ) ;
#28 = VERTEX_POINT ( 'NONE', #70 ) ;
#29 = DIRECTION ( 'NONE',  ( 0.000000000000000000, 0.000000000000000000, 1.000000000000000000 ) ) ;
#30 = CARTESIAN_POINT ( 'NONE',  ( 0.000000000000000000, 0.03099999999999994080, 0.000000000000000000 ) ) ;
#31 = VECTOR ( 'NONE', #152, 39.37007874015748143 ) ;
#32 = CARTESIAN_POINT ( 'NONE',  ( 0.000000000000000000, -0.3499999999999999778, 0.000000000000000000 ) ) ;
#33 = AXIS2_PLACEMENT_3D ( 'NONE', #73, #158, #39 ) ;
#34 = DIRECTION ( 'NONE',  ( -0.000000000000000000, -1.000000000000000000, -0.000000000000000000 ) ) ;
#35 = DIRECTION ( 'NONE',  ( 0.000000000000000000, 0.000000000000000000, 1.000000000000000000 ) ) ;
#36 = PLANE ( 'NONE',  #269 ) ;
#37 = FACE_OUTER_BOUND ( 'NONE', #109, .T. ) ;
#38 = AXIS2_PLACEMENT_3D ( 'NONE', #202, #228, #59 ) ;
#39 = DIRECTION ( 'NONE',  ( 0.000000000000000000, 0.000000000000000000, -1.000000000000000000 ) ) ;
#40 = EDGE_CURVE ( 'NONE', #219, #330, #123, .T. ) ;
#41 = PLANE ( 'NONE',  #191 ) ;
#42 = AXIS2_PLACEMENT_3D ( 'NONE', #346, #234, #159 ) ;
#43 = CARTESIAN_POINT ( 'NONE',  ( 0.000000000000000000, -0.3499999999999999778, 0.000000000000000000 ) ) ;
#44 = ORIENTED_EDGE ( 'NONE', *, *, #46, .T. ) ;
#45 = CARTESIAN_POINT ( 'NONE',  ( 0.000000000000000000, 0.03099999999999994080, 0.08250000000000000389 ) ) ;
#46 = EDGE_CURVE ( 'NONE', #219, #54, #197, .T. ) ;
#47 =( NAMED_UNIT ( * ) PLANE_ANGLE_UNIT ( ) SI_UNIT ( $, .RADIAN. ) );
#48 = APPLICATION_PROTOCOL_DEFINITION ( 'draft international standard', 'automotive_design', 1998, #136 ) ;
#49 = CIRCLE ( 'NONE', #80, 0.1182957166897566775 ) ;
#50 = VERTEX_POINT ( 'NONE', #200 ) ;
#51 = ORIENTED_EDGE ( 'NONE', *, *, #40, .T. ) ;
#52 = SURFACE_STYLE_USAGE ( .BOTH. , #167 ) ;
#53 = ORIENTED_EDGE ( 'NONE', *, *, #352, .F. ) ;
#54 = VERTEX_POINT ( 'NONE', #344 ) ;
#55 = ADVANCED_FACE ( 'NONE', ( #207, #10 ), #41, .T. ) ;
#56 = CARTESIAN_POINT ( 'NONE',  ( 1.910449006669870471E-17, 0.09299999999999999933, 0.1559999999999999443 ) ) ;
#57 = STYLED_ITEM ( 'NONE', ( #233 ), #306 ) ;
#58 = ORIENTED_EDGE ( 'NONE', *, *, #61, .F. ) ;
#59 = DIRECTION ( 'NONE',  ( 0.000000000000000000, 0.000000000000000000, 1.000000000000000000 ) ) ;
#60 = CARTESIAN_POINT ( 'NONE',  ( 0.000000000000000000, 0.03099999999999994080, 0.000000000000000000 ) ) ;
#61 = EDGE_CURVE ( 'NONE', #24, #1, #286, .T. ) ;
#62 = CARTESIAN_POINT ( 'NONE',  ( 0.000000000000000000, 0.000000000000000000, 0.000000000000000000 ) ) ;
#63 = AXIS2_PLACEMENT_3D ( 'NONE', #122, #275, #29 ) ;
#64 = DIRECTION ( 'NONE',  ( 0.000000000000000000, 1.000000000000000000, 0.000000000000000000 ) ) ;
#65 = LINE ( 'NONE', #225, #209 ) ;
#66 = COLOUR_RGB ( '',0.7921568627450980005, 0.8196078431372548767, 0.9333333333333333481 ) ;
#67 = FACE_OUTER_BOUND ( 'NONE', #144, .T. ) ;
#68 = CARTESIAN_POINT ( 'NONE',  ( 0.000000000000000000, -0.3499999999999999778, -0.08250000000000000389 ) ) ;
#69 = FILL_AREA_STYLE_COLOUR ( '', #66 ) ;
#70 = CARTESIAN_POINT ( 'NONE',  ( 0.000000000000000000, 0.09299999999999999933, -0.1559999999999999443 ) ) ;
#71 = PRODUCT ( '575-8', '575-8', '', ( #138 ) ) ;
#72 = CIRCLE ( 'NONE', #317, 0.1559999999999999443 ) ;
#73 = CARTESIAN_POINT ( 'NONE',  ( 0.000000000000000000, 0.09299999999999999933, 0.000000000000000000 ) ) ;
#74 = FACE_OUTER_BOUND ( 'NONE', #271, .T. ) ;
#75 = EDGE_CURVE ( 'NONE', #219, #143, #260, .T. ) ;
#76 = DIRECTION ( 'NONE',  ( -0.000000000000000000, 1.000000000000000000, -0.000000000000000000 ) ) ;
#77 =( NAMED_UNIT ( * ) SI_UNIT ( $, .STERADIAN. ) SOLID_ANGLE_UNIT ( ) );
#78 = ORIENTED_EDGE ( 'NONE', *, *, #11, .T. ) ;
#79 = EDGE_CURVE ( 'NONE', #50, #143, #249, .T. ) ;
#80 = AXIS2_PLACEMENT_3D ( 'NONE', #97, #125, #183 ) ;
#81 = CIRCLE ( 'NONE', #184, 0.1015000000000000069 ) ;
#82 = ORIENTED_EDGE ( 'NONE', *, *, #148, .T. ) ;
#83 =( GEOMETRIC_REPRESENTATION_CONTEXT ( 3 ) GLOBAL_UNCERTAINTY_ASSIGNED_CONTEXT ( ( #318 ) ) GLOBAL_UNIT_ASSIGNED_CONTEXT ( ( #214, #47, #77 ) ) REPRESENTATION_CONTEXT ( 'NONE', 'WORKASPACE' ) );
#84 = ORIENTED_EDGE ( 'NONE', *, *, #293, .F. ) ;
#85 = ORIENTED_EDGE ( 'NONE', *, *, #46, .F. ) ;
#86 = ADVANCED_FACE ( 'NONE', ( #147 ), #283, .T. ) ;
#87 = DIRECTION ( 'NONE',  ( 0.000000000000000000, 1.000000000000000000, 0.000000000000000000 ) ) ;
#88 = AXIS2_PLACEMENT_3D ( 'NONE', #206, #313, #181 ) ;
#89 = ORIENTED_EDGE ( 'NONE', *, *, #148, .F. ) ;
#90 = CARTESIAN_POINT ( 'NONE',  ( 0.000000000000000000, 0.03099999999999994080, 0.000000000000000000 ) ) ;
#91 = CIRCLE ( 'NONE', #96, 0.08250000000000000389 ) ;
#92 = DIRECTION ( 'NONE',  ( 0.000000000000000000, 1.000000000000000000, 0.000000000000000000 ) ) ;
#93 = ORIENTED_EDGE ( 'NONE', *, *, #61, .T. ) ;
#94 = DIRECTION ( 'NONE',  ( 0.000000000000000000, -1.000000000000000000, 0.000000000000000000 ) ) ;
#95 = CYLINDRICAL_SURFACE ( 'NONE', #88, 0.1015000000000000069 ) ;
#96 = AXIS2_PLACEMENT_3D ( 'NONE', #43, #211, #236 ) ;
#97 = CARTESIAN_POINT ( 'NONE',  ( 0.000000000000000000, 0.09299999999999999933, 0.000000000000000000 ) ) ;
#98 = PRODUCT_RELATED_PRODUCT_CATEGORY ( 'part', '', ( #71 ) ) ;
#99 = CYLINDRICAL_SURFACE ( 'NONE', #33, 0.08250000000000000389 ) ;
#100 = VECTOR ( 'NONE', #336, 39.37007874015748143 ) ;
#101 = LINE ( 'NONE', #45, #251 ) ;
#102 = FACE_OUTER_BOUND ( 'NONE', #217, .T. ) ;
#103 = LENGTH_MEASURE_WITH_UNIT ( LENGTH_MEASURE( 0.02539999999999999897 ), #132 );
#104 = CLOSED_SHELL ( 'NONE', ( #227, #86, #242, #341, #324, #55, #290, #308, #171, #164, #285 ) ) ;
#105 = PRODUCT_DEFINITION_FORMATION_WITH_SPECIFIED_SOURCE ( 'ANY', '', #71, .NOT_KNOWN. ) ;
#106 = DIRECTION ( 'NONE',  ( 0.000000000000000000, 0.000000000000000000, 1.000000000000000000 ) ) ;
#107 = EDGE_LOOP ( 'NONE', ( #244, #243, #300, #93 ) ) ;
#108 = CARTESIAN_POINT ( 'NONE',  ( 0.000000000000000000, 0.000000000000000000, 0.000000000000000000 ) ) ;
#109 = EDGE_LOOP ( 'NONE', ( #270, #245, #141, #303 ) ) ;
#110 = EDGE_CURVE ( 'NONE', #241, #263, #114, .T. ) ;
#111 = ORIENTED_EDGE ( 'NONE', *, *, #237, .T. ) ;
#112 = ORIENTED_EDGE ( 'NONE', *, *, #186, .F. ) ;
#113 = CYLINDRICAL_SURFACE ( 'NONE', #146, 0.08250000000000000389 ) ;
#114 = CIRCLE ( 'NONE', #332, 0.1015000000000000069 ) ;
#115 = CARTESIAN_POINT ( 'NONE',  ( 1.910449006669870471E-17, 0.000000000000000000, 0.1559999999999999443 ) ) ;
#116 = CARTESIAN_POINT ( 'NONE',  ( 0.000000000000000000, 0.09299999999999999933, 0.000000000000000000 ) ) ;
#117 = COLOUR_RGB ( '',0.7921568627450980005, 0.8196078431372548767, 0.9333333333333333481 ) ;
#118 = CARTESIAN_POINT ( 'NONE',  ( 0.000000000000000000, -0.3499999999999999778, 0.000000000000000000 ) ) ;
#119 = EDGE_CURVE ( 'NONE', #28, #157, #72, .T. ) ;
#120 = DIRECTION ( 'NONE',  ( 0.000000000000000000, 1.000000000000000000, 0.000000000000000000 ) ) ;
#121 = DIRECTION ( 'NONE',  ( 0.000000000000000000, 0.000000000000000000, -1.000000000000000000 ) ) ;
#122 = CARTESIAN_POINT ( 'NONE',  ( 0.000000000000000000, 0.03099999999999994080, 0.000000000000000000 ) ) ;
#123 = LINE ( 'NONE', #277, #326 ) ;
#124 =( LENGTH_UNIT ( ) NAMED_UNIT ( * ) SI_UNIT ( $, .METRE. ) );
#125 = DIRECTION ( 'NONE',  ( -0.000000000000000000, -1.000000000000000000, -0.000000000000000000 ) ) ;
#126 = DIRECTION ( 'NONE',  ( 0.000000000000000000, 0.000000000000000000, 1.000000000000000000 ) ) ;
#127 = CYLINDRICAL_SURFACE ( 'NONE', #42, 0.1559999999999999443 ) ;
#128 = AXIS2_PLACEMENT_3D ( 'NONE', #150, #276, #121 ) ;
#129 = SURFACE_STYLE_FILL_AREA ( #208 ) ;
#130 = STYLED_ITEM ( 'NONE', ( #348 ), #27 ) ;
#131 = DIMENSIONAL_EXPONENTS ( 1.000000000000000000, 0.000000000000000000, 0.000000000000000000, 0.000000000000000000, 0.000000000000000000, 0.000000000000000000, 0.000000000000000000 ) ;
#132 =( LENGTH_UNIT ( ) NAMED_UNIT ( * ) SI_UNIT ( $, .METRE. ) );
#133 = PRODUCT_DEFINITION_SHAPE ( 'NONE', 'NONE',  #294 ) ;
#134 = SHAPE_DEFINITION_REPRESENTATION ( #133, #27 ) ;
#135 = AXIS2_PLACEMENT_3D ( 'NONE', #30, #92, #339 ) ;
#136 = APPLICATION_CONTEXT ( 'automotive_design' ) ;
#137 = EDGE_LOOP ( 'NONE', ( #329, #274, #172, #112 ) ) ;
#138 = PRODUCT_CONTEXT ( 'NONE', #136, 'mechanical' ) ;
#139 = ORIENTED_EDGE ( 'NONE', *, *, #352, .T. ) ;
#140 =( NAMED_UNIT ( * ) SI_UNIT ( $, .STERADIAN. ) SOLID_ANGLE_UNIT ( ) );
#141 = ORIENTED_EDGE ( 'NONE', *, *, #5, .T. ) ;
#142 = ORIENTED_EDGE ( 'NONE', *, *, #335, .T. ) ;
#143 = VERTEX_POINT ( 'NONE', #68 ) ;
#144 = EDGE_LOOP ( 'NONE', ( #85, #51, #22, #53 ) ) ;
#145 = CYLINDRICAL_SURFACE ( 'NONE', #195, 0.1559999999999999443 ) ;
#146 = AXIS2_PLACEMENT_3D ( 'NONE', #280, #34, #151 ) ;
#147 = FACE_OUTER_BOUND ( 'NONE', #325, .T. ) ;
#148 = EDGE_CURVE ( 'NONE', #263, #241, #81, .T. ) ;
#149 = MECHANICAL_DESIGN_GEOMETRIC_PRESENTATION_REPRESENTATION (  '', ( #130 ), #267 ) ;
#150 = CARTESIAN_POINT ( 'NONE',  ( 0.000000000000000000, -0.3499999999999999778, 0.000000000000000000 ) ) ;
#151 = DIRECTION ( 'NONE',  ( 0.000000000000000000, 0.000000000000000000, -1.000000000000000000 ) ) ;
#152 = DIRECTION ( 'NONE',  ( -0.000000000000000000, -1.000000000000000000, -0.000000000000000000 ) ) ;
#153 = AXIS2_PLACEMENT_3D ( 'NONE', #118, #253, #14 ) ;
#154 = FACE_OUTER_BOUND ( 'NONE', #4, .T. ) ;
#155 = DIRECTION ( 'NONE',  ( 0.000000000000000000, 0.000000000000000000, 1.000000000000000000 ) ) ;
#156 = CARTESIAN_POINT ( 'NONE',  ( 1.243016501134563680E-17, -0.3499999999999999778, -0.1015000000000000069 ) ) ;
#157 = VERTEX_POINT ( 'NONE', #176 ) ;
#158 = DIRECTION ( 'NONE',  ( -0.000000000000000000, -1.000000000000000000, -0.000000000000000000 ) ) ;
#159 = DIRECTION ( 'NONE',  ( 0.000000000000000000, 0.000000000000000000, -1.000000000000000000 ) ) ;
#160 = EDGE_CURVE ( 'NONE', #25, #247, #235, .T. ) ;
#161 = AXIS2_PLACEMENT_3D ( 'NONE', #246, #64, #307 ) ;
#162 = ORIENTED_EDGE ( 'NONE', *, *, #79, .T. ) ;
#163 = ORIENTED_EDGE ( 'NONE', *, *, #314, .T. ) ;
#164 = ADVANCED_FACE ( 'NONE', ( #37 ), #95, .T. ) ;
#165 = AXIS2_PLACEMENT_3D ( 'NONE', #90, #340, #205 ) ;
#166 = ORIENTED_EDGE ( 'NONE', *, *, #40, .F. ) ;
#167 = SURFACE_SIDE_STYLE ('',( #215 ) ) ;
#168 = EDGE_LOOP ( 'NONE', ( #166, #353, #139, #196 ) ) ;
#169 = CIRCLE ( 'NONE', #334, 0.1182957166897566775 ) ;
#170 = DIRECTION ( 'NONE',  ( -0.000000000000000000, -1.000000000000000000, -0.000000000000000000 ) ) ;
#171 = ADVANCED_FACE ( 'NONE', ( #154, #9 ), #36, .T. ) ;
#172 = ORIENTED_EDGE ( 'NONE', *, *, #179, .T. ) ;
#173 = CARTESIAN_POINT ( 'NONE',  ( 0.000000000000000000, -0.3499999999999999778, 0.000000000000000000 ) ) ;
#174 = DIRECTION ( 'NONE',  ( -0.000000000000000000, 1.000000000000000000, -0.000000000000000000 ) ) ;
#175 = CIRCLE ( 'NONE', #161, 0.1559999999999999443 ) ;
#176 = CARTESIAN_POINT ( 'NONE',  ( 1.910449006669870471E-17, 0.09299999999999999933, 0.1559999999999999443 ) ) ;
#177 = FACE_OUTER_BOUND ( 'NONE', #26, .T. ) ;
#178 = DIRECTION ( 'NONE',  ( 0.000000000000000000, 1.000000000000000000, 0.000000000000000000 ) ) ;
#179 = EDGE_CURVE ( 'NONE', #1, #24, #175, .T. ) ;
#180 = FACE_OUTER_BOUND ( 'NONE', #168, .T. ) ;
#181 = DIRECTION ( 'NONE',  ( 0.000000000000000000, 0.000000000000000000, 1.000000000000000000 ) ) ;
#182 = SURFACE_STYLE_USAGE ( .BOTH. , #288 ) ;
#183 = DIRECTION ( 'NONE',  ( 0.000000000000000000, 0.000000000000000000, 1.000000000000000000 ) ) ;
#184 = AXIS2_PLACEMENT_3D ( 'NONE', #62, #342, #35 ) ;
#185 = UNCERTAINTY_MEASURE_WITH_UNIT (LENGTH_MEASURE( 1.000000000000000082E-05 ), #319, 'distance_accuracy_value', 'NONE');
#186 = EDGE_CURVE ( 'NONE', #28, #24, #338, .T. ) ;
#187 = LENGTH_MEASURE_WITH_UNIT ( LENGTH_MEASURE( 0.02539999999999999897 ), #124 );
#188 = DIMENSIONAL_EXPONENTS ( 1.000000000000000000, 0.000000000000000000, 0.000000000000000000, 0.000000000000000000, 0.000000000000000000, 0.000000000000000000, 0.000000000000000000 ) ;
#189 = ORIENTED_EDGE ( 'NONE', *, *, #79, .F. ) ;
#190 = FILL_AREA_STYLE_COLOUR ( '', #117 ) ;
#191 = AXIS2_PLACEMENT_3D ( 'NONE', #315, #178, #333 ) ;
#192 = VERTEX_POINT ( 'NONE', #199 ) ;
#193 = ORIENTED_EDGE ( 'NONE', *, *, #110, .F. ) ;
#194 = LENGTH_MEASURE_WITH_UNIT ( LENGTH_MEASURE( 0.02539999999999999897 ), #23 );
#195 = AXIS2_PLACEMENT_3D ( 'NONE', #116, #170, #248 ) ;
#196 = ORIENTED_EDGE ( 'NONE', *, *, #335, .F. ) ;
#197 = CIRCLE ( 'NONE', #135, 0.08250000000000000389 ) ;
#198 = EDGE_LOOP ( 'NONE', ( #2, #142 ) ) ;
#199 = CARTESIAN_POINT ( 'NONE',  ( 0.000000000000000000, 0.09299999999999999933, 0.1182957166897566775 ) ) ;
#200 = CARTESIAN_POINT ( 'NONE',  ( 1.010333609296566470E-17, -0.3499999999999999778, 0.08250000000000000389 ) ) ;
#201 = LINE ( 'NONE', #345, #212 ) ;
#202 = CARTESIAN_POINT ( 'NONE',  ( 0.000000000000000000, -0.3499999999999999778, 0.000000000000000000 ) ) ;
#203 = CARTESIAN_POINT ( 'NONE',  ( 0.000000000000000000, 0.09299999999999999933, 0.000000000000000000 ) ) ;
#204 = CARTESIAN_POINT ( 'NONE',  ( 0.000000000000000000, 0.000000000000000000, 0.000000000000000000 ) ) ;
#205 = DIRECTION ( 'NONE',  ( 0.000000000000000000, 0.000000000000000000, 1.000000000000000000 ) ) ;
#206 = CARTESIAN_POINT ( 'NONE',  ( 0.000000000000000000, -0.3499999999999999778, 0.000000000000000000 ) ) ;
#207 = FACE_BOUND ( 'NONE', #198, .T. ) ;
#208 = FILL_AREA_STYLE ('',( #69 ) ) ;
#209 = VECTOR ( 'NONE', #174, 39.37007874015748143 ) ;
#210 = AXIS2_PLACEMENT_3D ( 'NONE', #203, #87, #3 ) ;
#211 = DIRECTION ( 'NONE',  ( 0.000000000000000000, -1.000000000000000000, 0.000000000000000000 ) ) ;
#212 = VECTOR ( 'NONE', #322, 39.37007874015748143 ) ;
#213 = DIMENSIONAL_EXPONENTS ( 1.000000000000000000, 0.000000000000000000, 0.000000000000000000, 0.000000000000000000, 0.000000000000000000, 0.000000000000000000, 0.000000000000000000 ) ;
#214 =( CONVERSION_BASED_UNIT ( 'INCH', #103 ) LENGTH_UNIT ( ) NAMED_UNIT ( #188 ) );
#215 = SURFACE_STYLE_FILL_AREA ( #349 ) ;
#216 = EDGE_LOOP ( 'NONE', ( #273, #111 ) ) ;
#217 = EDGE_LOOP ( 'NONE', ( #58, #240 ) ) ;
#218 = AXIS2_PLACEMENT_3D ( 'NONE', #60, #120, #226 ) ;
#219 = VERTEX_POINT ( 'NONE', #302 ) ;
#220 = ORIENTED_EDGE ( 'NONE', *, *, #75, .T. ) ;
#221 = EDGE_LOOP ( 'NONE', ( #193, #89 ) ) ;
#222 = LINE ( 'NONE', #56, #100 ) ;
#223 = AXIS2_PLACEMENT_3D ( 'NONE', #32, #94, #311 ) ;
#224 = ORIENTED_EDGE ( 'NONE', *, *, #75, .F. ) ;
#225 = CARTESIAN_POINT ( 'NONE',  ( 0.000000000000000000, -0.3499999999999999778, 0.1015000000000000069 ) ) ;
#226 = DIRECTION ( 'NONE',  ( 0.000000000000000000, 0.000000000000000000, 1.000000000000000000 ) ) ;
#227 = ADVANCED_FACE ( 'NONE', ( #67 ), #6, .F. ) ;
#228 = DIRECTION ( 'NONE',  ( -0.000000000000000000, 1.000000000000000000, -0.000000000000000000 ) ) ;
#229 = CARTESIAN_POINT ( 'NONE',  ( 1.243016501134563680E-17, 0.000000000000000000, -0.1015000000000000069 ) ) ;
#230 = DIRECTION ( 'NONE',  ( 0.000000000000000000, 1.000000000000000000, 0.000000000000000000 ) ) ;
#231 = AXIS2_PLACEMENT_3D ( 'NONE', #323, #262, #266 ) ;
#232 = DIRECTION ( 'NONE',  ( 6.123233995736745082E-17, 0.8660254037844394848, -0.4999999999999982792 ) ) ;
#233 = PRESENTATION_STYLE_ASSIGNMENT (( #182 ) ) ;
#234 = DIRECTION ( 'NONE',  ( -0.000000000000000000, -1.000000000000000000, -0.000000000000000000 ) ) ;
#235 = CIRCLE ( 'NONE', #223, 0.1015000000000000069 ) ;
#236 = DIRECTION ( 'NONE',  ( 0.000000000000000000, 0.000000000000000000, -1.000000000000000000 ) ) ;
#237 = EDGE_CURVE ( 'NONE', #157, #28, #296, .T. ) ;
#238 = CONICAL_SURFACE ( 'NONE', #165, 0.08250000000000000389, 0.5235987755982969283 ) ;
#239 = PRESENTATION_LAYER_ASSIGNMENT (  '', '', ( #130 ) ) ;
#240 = ORIENTED_EDGE ( 'NONE', *, *, #179, .F. ) ;
#241 = VERTEX_POINT ( 'NONE', #304 ) ;
#242 = ADVANCED_FACE ( 'NONE', ( #177 ), #113, .F. ) ;
#243 = ORIENTED_EDGE ( 'NONE', *, *, #119, .F. ) ;
#244 = ORIENTED_EDGE ( 'NONE', *, *, #278, .F. ) ;
#245 = ORIENTED_EDGE ( 'NONE', *, *, #160, .F. ) ;
#246 = CARTESIAN_POINT ( 'NONE',  ( 0.000000000000000000, 0.000000000000000000, 0.000000000000000000 ) ) ;
#247 = VERTEX_POINT ( 'NONE', #254 ) ;
#248 = DIRECTION ( 'NONE',  ( 0.000000000000000000, 0.000000000000000000, -1.000000000000000000 ) ) ;
#249 = CIRCLE ( 'NONE', #128, 0.08250000000000000389 ) ;
#250 = DIRECTION ( 'NONE',  ( 0.000000000000000000, 0.000000000000000000, 1.000000000000000000 ) ) ;
#251 = VECTOR ( 'NONE', #347, 39.37007874015748143 ) ;
#252 = CARTESIAN_POINT ( 'NONE',  ( 0.000000000000000000, 0.09299999999999999933, -0.1559999999999999443 ) ) ;
#253 = DIRECTION ( 'NONE',  ( 0.000000000000000000, -1.000000000000000000, 0.000000000000000000 ) ) ;
#254 = CARTESIAN_POINT ( 'NONE',  ( 1.243016501134563680E-17, -0.3499999999999999778, -0.1015000000000000069 ) ) ;
#255 = CARTESIAN_POINT ( 'NONE',  ( 0.000000000000000000, 0.000000000000000000, -0.1559999999999999443 ) ) ;
#256 = DIRECTION ( 'NONE',  ( 0.000000000000000000, -1.000000000000000000, 0.000000000000000000 ) ) ;
#257 = ORIENTED_EDGE ( 'NONE', *, *, #299, .T. ) ;
#258 =( GEOMETRIC_REPRESENTATION_CONTEXT ( 3 ) GLOBAL_UNCERTAINTY_ASSIGNED_CONTEXT ( ( #185 ) ) GLOBAL_UNIT_ASSIGNED_CONTEXT ( ( #319, #316, #284 ) ) REPRESENTATION_CONTEXT ( 'NONE', 'WORKASPACE' ) );
#259 = EDGE_CURVE ( 'NONE', #54, #219, #310, .T. ) ;
#260 = LINE ( 'NONE', #305, #31 ) ;
#261 = APPLICATION_CONTEXT ( 'automotive_design' ) ;
#262 = DIRECTION ( 'NONE',  ( 0.000000000000000000, 1.000000000000000000, 0.000000000000000000 ) ) ;
#263 = VERTEX_POINT ( 'NONE', #229 ) ;
#264 = FACE_BOUND ( 'NONE', #221, .T. ) ;
#265 = VECTOR ( 'NONE', #76, 39.37007874015748143 ) ;
#266 = DIRECTION ( 'NONE',  ( 0.000000000000000000, -0.000000000000000000, 1.000000000000000000 ) ) ;
#267 =( GEOMETRIC_REPRESENTATION_CONTEXT ( 3 ) GLOBAL_UNCERTAINTY_ASSIGNED_CONTEXT ( ( #16 ) ) GLOBAL_UNIT_ASSIGNED_CONTEXT ( ( #21, #292, #140 ) ) REPRESENTATION_CONTEXT ( 'NONE', 'WORKASPACE' ) );
#268 = FACE_OUTER_BOUND ( 'NONE', #137, .T. ) ;
#269 = AXIS2_PLACEMENT_3D ( 'NONE', #173, #256, #13 ) ;
#270 = ORIENTED_EDGE ( 'NONE', *, *, #299, .F. ) ;
#271 = EDGE_LOOP ( 'NONE', ( #84, #327, #220, #163 ) ) ;
#272 = ORIENTED_EDGE ( 'NONE', *, *, #293, .T. ) ;
#273 = ORIENTED_EDGE ( 'NONE', *, *, #119, .T. ) ;
#274 = ORIENTED_EDGE ( 'NONE', *, *, #278, .T. ) ;
#275 = DIRECTION ( 'NONE',  ( 0.000000000000000000, 1.000000000000000000, 0.000000000000000000 ) ) ;
#276 = DIRECTION ( 'NONE',  ( 0.000000000000000000, -1.000000000000000000, 0.000000000000000000 ) ) ;
#277 = CARTESIAN_POINT ( 'NONE',  ( 1.010333609296566470E-17, 0.03099999999999994080, -0.08250000000000000389 ) ) ;
#278 = EDGE_CURVE ( 'NONE', #157, #1, #222, .T. ) ;
#279 = MECHANICAL_DESIGN_GEOMETRIC_PRESENTATION_REPRESENTATION (  '', ( #57 ), #258 ) ;
#280 = CARTESIAN_POINT ( 'NONE',  ( 0.000000000000000000, 0.09299999999999999933, 0.000000000000000000 ) ) ;
#281 = CARTESIAN_POINT ( 'NONE',  ( 0.000000000000000000, 0.000000000000000000, 0.000000000000000000 ) ) ;
#282 = FACE_OUTER_BOUND ( 'NONE', #107, .T. ) ;
#283 = CYLINDRICAL_SURFACE ( 'NONE', #38, 0.1015000000000000069 ) ;
#284 =( NAMED_UNIT ( * ) SI_UNIT ( $, .STERADIAN. ) SOLID_ANGLE_UNIT ( ) );
#285 = ADVANCED_FACE ( 'NONE', ( #180 ), #238, .F. ) ;
#286 = CIRCLE ( 'NONE', #20, 0.1559999999999999443 ) ;
#287 = DIRECTION ( 'NONE',  ( 0.000000000000000000, 1.000000000000000000, 0.000000000000000000 ) ) ;
#288 = SURFACE_SIDE_STYLE ('',( #129 ) ) ;
#289 = CARTESIAN_POINT ( 'NONE',  ( 0.000000000000000000, 0.09299999999999999933, 0.000000000000000000 ) ) ;
#290 = ADVANCED_FACE ( 'NONE', ( #282 ), #145, .T. ) ;
#291 = CARTESIAN_POINT ( 'NONE',  ( 1.448704707969526479E-17, 0.09299999999999999933, -0.1182957166897566775 ) ) ;
#292 =( NAMED_UNIT ( * ) PLANE_ANGLE_UNIT ( ) SI_UNIT ( $, .RADIAN. ) );
#293 = EDGE_CURVE ( 'NONE', #54, #50, #201, .T. ) ;
#294 = PRODUCT_DEFINITION ( 'UNKNOWN', '', #105, #321 ) ;
#295 = ORIENTED_EDGE ( 'NONE', *, *, #160, .T. ) ;
#296 = CIRCLE ( 'NONE', #210, 0.1559999999999999443 ) ;
#297 = ORIENTED_EDGE ( 'NONE', *, *, #5, .F. ) ;
#298 = EDGE_LOOP ( 'NONE', ( #331, #189 ) ) ;
#299 = EDGE_CURVE ( 'NONE', #247, #263, #343, .T. ) ;
#300 = ORIENTED_EDGE ( 'NONE', *, *, #186, .T. ) ;
#301 = CIRCLE ( 'NONE', #153, 0.1015000000000000069 ) ;
#302 = CARTESIAN_POINT ( 'NONE',  ( 0.000000000000000000, 0.03099999999999994080, -0.08250000000000000389 ) ) ;
#303 = ORIENTED_EDGE ( 'NONE', *, *, #110, .T. ) ;
#304 = CARTESIAN_POINT ( 'NONE',  ( 0.000000000000000000, 0.000000000000000000, 0.1015000000000000069 ) ) ;
#305 = CARTESIAN_POINT ( 'NONE',  ( 0.000000000000000000, 0.09299999999999999933, -0.08250000000000000389 ) ) ;
#306 = MANIFOLD_SOLID_BREP ( 'Chamfer1', #104 ) ;
#307 = DIRECTION ( 'NONE',  ( 0.000000000000000000, 0.000000000000000000, 1.000000000000000000 ) ) ;
#308 = ADVANCED_FACE ( 'NONE', ( #74 ), #99, .F. ) ;
#309 = CARTESIAN_POINT ( 'NONE',  ( 0.000000000000000000, 0.09299999999999999933, 0.000000000000000000 ) ) ;
#310 = CIRCLE ( 'NONE', #63, 0.08250000000000000389 ) ;
#311 = DIRECTION ( 'NONE',  ( 0.000000000000000000, 0.000000000000000000, -1.000000000000000000 ) ) ;
#312 = AXIS2_PLACEMENT_3D ( 'NONE', #108, #106, #328 ) ;
#313 = DIRECTION ( 'NONE',  ( -0.000000000000000000, 1.000000000000000000, -0.000000000000000000 ) ) ;
#314 = EDGE_CURVE ( 'NONE', #143, #50, #91, .T. ) ;
#315 = CARTESIAN_POINT ( 'NONE',  ( 0.000000000000000000, 0.09299999999999999933, 0.000000000000000000 ) ) ;
#316 =( NAMED_UNIT ( * ) PLANE_ANGLE_UNIT ( ) SI_UNIT ( $, .RADIAN. ) );
#317 = AXIS2_PLACEMENT_3D ( 'NONE', #309, #230, #8 ) ;
#318 = UNCERTAINTY_MEASURE_WITH_UNIT (LENGTH_MEASURE( 1.000000000000000082E-05 ), #214, 'distance_accuracy_value', 'NONE');
#319 =( CONVERSION_BASED_UNIT ( 'INCH', #187 ) LENGTH_UNIT ( ) NAMED_UNIT ( #131 ) );
#320 = PRESENTATION_LAYER_ASSIGNMENT (  '', '', ( #57 ) ) ;
#321 = PRODUCT_DEFINITION_CONTEXT ( 'detailed design', #261, 'design' ) ;
#322 = DIRECTION ( 'NONE',  ( -0.000000000000000000, -1.000000000000000000, -0.000000000000000000 ) ) ;
#323 = CARTESIAN_POINT ( 'NONE',  ( 0.000000000000000000, 0.000000000000000000, 0.000000000000000000 ) ) ;
#324 = ADVANCED_FACE ( 'NONE', ( #102, #264 ), #15, .F. ) ;
#325 = EDGE_LOOP ( 'NONE', ( #350, #257, #82, #297 ) ) ;
#326 = VECTOR ( 'NONE', #232, 39.37007874015748143 ) ;
#327 = ORIENTED_EDGE ( 'NONE', *, *, #259, .T. ) ;
#328 = DIRECTION ( 'NONE',  ( 1.000000000000000000, 0.000000000000000000, 0.000000000000000000 ) ) ;
#329 = ORIENTED_EDGE ( 'NONE', *, *, #237, .F. ) ;
#330 = VERTEX_POINT ( 'NONE', #291 ) ;
#331 = ORIENTED_EDGE ( 'NONE', *, *, #314, .F. ) ;
#332 = AXIS2_PLACEMENT_3D ( 'NONE', #281, #12, #250 ) ;
#333 = DIRECTION ( 'NONE',  ( 0.000000000000000000, -0.000000000000000000, 1.000000000000000000 ) ) ;
#334 = AXIS2_PLACEMENT_3D ( 'NONE', #289, #18, #126 ) ;
#335 = EDGE_CURVE ( 'NONE', #330, #192, #169, .T. ) ;
#336 = DIRECTION ( 'NONE',  ( -0.000000000000000000, -1.000000000000000000, -0.000000000000000000 ) ) ;
#337 = CARTESIAN_POINT ( 'NONE',  ( 0.000000000000000000, -0.3499999999999999778, 0.1015000000000000069 ) ) ;
#338 = LINE ( 'NONE', #252, #19 ) ;
#339 = DIRECTION ( 'NONE',  ( 0.000000000000000000, 0.000000000000000000, 1.000000000000000000 ) ) ;
#340 = DIRECTION ( 'NONE',  ( 0.000000000000000000, 1.000000000000000000, 0.000000000000000000 ) ) ;
#341 = ADVANCED_FACE ( 'NONE', ( #268 ), #127, .T. ) ;
#342 = DIRECTION ( 'NONE',  ( -0.000000000000000000, -1.000000000000000000, -0.000000000000000000 ) ) ;
#343 = LINE ( 'NONE', #156, #265 ) ;
#344 = CARTESIAN_POINT ( 'NONE',  ( 1.010333609296566470E-17, 0.03099999999999994080, 0.08250000000000000389 ) ) ;
#345 = CARTESIAN_POINT ( 'NONE',  ( 1.010333609296566470E-17, 0.09299999999999999933, 0.08250000000000000389 ) ) ;
#346 = CARTESIAN_POINT ( 'NONE',  ( 0.000000000000000000, 0.09299999999999999933, 0.000000000000000000 ) ) ;
#347 = DIRECTION ( 'NONE',  ( 0.000000000000000000, 0.8660254037844394848, 0.4999999999999982792 ) ) ;
#348 = PRESENTATION_STYLE_ASSIGNMENT (( #52 ) ) ;
#349 = FILL_AREA_STYLE ('',( #190 ) ) ;
#350 = ORIENTED_EDGE ( 'NONE', *, *, #11, .F. ) ;
#351 = APPLICATION_PROTOCOL_DEFINITION ( 'draft international standard', 'automotive_design', 1998, #261 ) ;
#352 = EDGE_CURVE ( 'NONE', #54, #192, #101, .T. ) ;
#353 = ORIENTED_EDGE ( 'NONE', *, *, #259, .F. ) ;
ENDSEC;
END-ISO-10303-21;
